# Blender 4.0.1
# www.blender.org
o Bomber_Tailwing_Cap_Right
v -4.348724 0.571427 0.147776
v -3.559072 0.502189 0.267700
v -4.354314 0.380368 0.478701
v -4.352287 0.476274 0.312586
v -3.582770 0.362401 0.515242
v -3.647055 0.222427 0.764222
v -4.134990 0.553249 0.179261
v -3.855659 0.532725 0.214810
v -3.669660 0.511085 0.252291
v -3.701383 0.372822 0.504077
v -3.861888 0.403908 0.446925
v -4.129216 0.444095 0.376784
v -3.747156 0.241076 0.736743
v -3.873307 0.284807 0.655276
v -4.129216 0.341710 0.554121
v -4.348702 0.897852 0.244334
v -3.561377 0.819959 0.379248
v -4.354286 0.705547 0.577415
v -4.352261 0.801696 0.410880
v -3.584332 0.679861 0.627328
v -3.647556 0.544323 0.868624
v -4.134981 0.887130 0.262903
v -3.855664 0.866614 0.298438
v -3.670627 0.840525 0.343627
v -3.701777 0.694669 0.591702
v -3.861888 0.729633 0.527834
v -4.129216 0.769816 0.457699
v -3.745840 0.565108 0.820583
v -3.872906 0.610651 0.735978
v -4.129216 0.667412 0.635069
v -3.526717 0.418167 0.511472
v -3.526987 0.646002 0.597003
v -3.498664 0.793698 0.333320
v -3.498275 0.566037 0.247486
v -4.397947 0.877327 0.188469
v -4.397959 0.642275 0.115439
v -3.599852 0.266693 0.783318
v -3.600010 0.499531 0.860183
v -4.399909 0.437300 0.470465
v -4.399897 0.672322 0.543549
v -4.399263 0.540266 0.292124
v -4.399252 0.774901 0.365876
v -4.245223 0.458575 0.347474
v -4.246236 0.360829 0.516774
v -4.246328 0.559392 0.168622
v -4.245210 0.788372 0.429759
v -4.246222 0.690605 0.599097
v -4.246313 0.893270 0.252269
v -3.508665 0.606069 0.572572
v -3.478365 0.756234 0.302849
v -4.413102 0.838103 0.161049
v -3.584856 0.455652 0.844713
v -4.414077 0.629331 0.522652
v -4.413754 0.733833 0.341649
v -3.508692 0.468337 0.520952
v -3.478356 0.618986 0.250391
v -4.413108 0.695611 0.117673
v -3.584916 0.314157 0.799609
v -4.414083 0.486567 0.479747
v -4.413761 0.591451 0.298082
v -4.388608 0.427988 0.282801
v -4.370416 0.532700 0.122594
v -3.652728 0.441747 0.253080
v -3.511014 0.452808 0.253260
v -4.371869 0.335644 0.460450
v -3.542738 0.319554 0.475234
v -3.628026 0.185245 0.730488
v -4.256641 0.402997 0.323099
v -4.256475 0.315324 0.475004
v -4.258131 0.493144 0.163081
v -4.142173 0.486784 0.174679
v -3.850850 0.464206 0.214127
v -3.686727 0.321001 0.473544
v -3.857147 0.348359 0.422705
v -4.135951 0.388843 0.352023
v -3.733387 0.205135 0.678219
v -3.869439 0.243863 0.605408
v -4.135482 0.297736 0.509756
v -4.388720 0.848801 0.442357
v -4.370540 0.937989 0.266934
v -3.655137 0.882564 0.391000
v -3.513270 0.854331 0.421815
v -4.371974 0.744189 0.606101
v -3.544752 0.734419 0.648217
v -3.629894 0.592178 0.884874
v -4.256633 0.840282 0.460245
v -4.256487 0.752541 0.612167
v -4.258113 0.933801 0.302116
v -4.142170 0.926969 0.313409
v -3.851059 0.904376 0.352559
v -3.687854 0.751157 0.614229
v -3.857748 0.782104 0.557198
v -4.136047 0.822367 0.486901
v -3.732266 0.638598 0.812663
v -3.870448 0.677840 0.739496
v -4.135697 0.731270 0.644582
v -3.461927 0.680078 0.613383
v -3.424124 0.542240 0.243219
v -4.474095 0.631002 0.101399
v -3.533191 0.553141 0.853848
v -4.461659 0.716026 0.539755
v -4.463389 0.806174 0.377731
v -3.461345 0.396060 0.476458
v -3.435427 0.617161 0.579954
v -3.423888 0.800513 0.368986
v -3.405585 0.604269 0.261089
v -4.474073 0.885279 0.207704
v -4.486945 0.692154 0.112883
v -3.531367 0.254779 0.720726
v -3.505881 0.483100 0.827355
v -4.461538 0.425887 0.417679
v -4.485814 0.656510 0.499343
v -4.463295 0.521735 0.257565
v -4.485826 0.749503 0.336424
v -3.405373 0.748067 0.332061
v -4.486928 0.837992 0.171641
v -3.435451 0.463660 0.503558
v -3.505666 0.323018 0.756372
v -4.485809 0.498863 0.434253
v -4.485824 0.593445 0.272288
v -3.666440 0.469333 0.222672
v -3.537618 0.465213 0.236397
v -4.245273 0.311792 0.499777
v -4.387205 0.338905 0.432955
v -4.245846 0.513498 0.146169
v -4.134747 0.507462 0.156625
v -3.855528 0.487423 0.191339
v -3.610219 0.190375 0.696255
v -3.742515 0.200584 0.704930
v -3.872503 0.239074 0.632542
v -4.128678 0.293428 0.535803
v -3.667346 0.890817 0.358460
v -3.539865 0.866492 0.394504
v -4.245266 0.732885 0.627798
v -4.387331 0.763469 0.594311
v -4.245834 0.938361 0.276113
v -4.134764 0.932339 0.286541
v -3.855788 0.912423 0.321039
v -3.611626 0.618906 0.862688
v -3.742261 0.616831 0.832900
v -3.873330 0.656824 0.757949
v -4.128836 0.710885 0.661718
v -3.454127 0.548513 0.221905
v -4.443465 0.629677 0.091317
v -4.396587 0.523059 0.136255
v -3.558677 0.526205 0.877080
v -4.443073 0.697731 0.553734
v -3.454457 0.819719 0.344828
v -3.428429 0.615450 0.238540
v -4.396655 0.927139 0.288483
v -4.443515 0.899800 0.195237
v -4.463618 0.697530 0.100601
v -3.557659 0.243974 0.762858
v -3.536164 0.461268 0.853640
v -4.442976 0.419571 0.446632
v -4.464487 0.640392 0.518638
v -3.428402 0.764040 0.307186
v -4.463617 0.848274 0.157101
v -3.536182 0.307847 0.793215
v -4.464485 0.487979 0.462053
vn 0.1175 0.9727 -0.2001
vn 0.0084 0.8713 0.4906
vn -0.3700 0.8417 0.3932
vn -0.3722 0.8917 -0.2575
vn -0.3295 0.1929 0.9242
vn -0.2764 -0.0433 0.9601
vn -0.0133 0.8686 0.4953
vn -0.2329 0.3621 0.9026
vn -0.2447 0.3586 0.9008
vn -0.0060 0.8704 0.4924
vn -0.3332 0.3450 0.8775
vn -0.0018 0.8719 0.4898
vn 0.1161 0.9569 -0.2661
vn 0.0902 0.9511 -0.2955
vn 0.1268 0.9529 -0.2754
vn 0.1921 -0.3637 -0.9115
vn -0.1902 -0.3087 -0.9320
vn -0.3282 -0.7926 -0.5139
vn 0.0207 -0.8684 -0.4954
vn -0.5007 -0.7155 0.4871
vn -0.3937 -0.8702 0.2962
vn -0.0131 -0.8632 -0.5047
vn -0.0049 -0.8623 -0.5064
vn -0.2599 -0.9453 0.1970
vn -0.1938 -0.9650 0.1768
vn 0.0063 -0.8637 -0.5040
vn -0.3458 -0.9189 0.1896
vn 0.0584 -0.2643 -0.9627
vn 0.0858 -0.2713 -0.9587
vn 0.1369 -0.2911 -0.9468
vn -0.5928 0.1507 -0.7911
vn -0.8013 -0.4449 -0.3999
vn -0.6832 -0.5631 0.4649
vn 0.4939 -0.7353 0.4642
vn 0.8516 -0.4566 -0.2574
vn 0.3696 -0.8055 -0.4631
vn 0.0452 -0.9443 0.3260
vn 0.6825 0.2381 -0.6910
vn 0.4432 -0.0765 -0.8932
vn 0.3674 0.8048 0.4662
vn 0.5959 0.7303 -0.3340
vn 0.8193 0.2968 -0.4906
vn 0.8484 0.4558 0.2693
vn 0.9890 -0.1294 -0.0713
vn 0.7065 0.2258 -0.6707
vn -0.1500 0.2806 0.9480
vn 0.2867 0.1610 0.9444
vn 0.6159 -0.3959 0.6812
vn -0.5145 -0.0230 0.8572
vn -0.8361 0.5305 0.1394
vn -0.9682 -0.0921 -0.2324
vn -0.7828 -0.3219 0.5325
vn -0.7469 0.4356 -0.5024
vn -0.6131 0.2827 -0.7377
vn -0.9772 0.1997 -0.0717
vn -0.6843 0.3144 -0.6579
vn -0.7165 -0.1461 0.6821
vn 0.9886 0.1289 0.0778
vn 0.5290 -0.1379 0.8374
vn 0.7718 0.2279 -0.5937
vn 0.0334 -0.8131 -0.5811
vn 0.3804 -0.7194 -0.5811
vn 0.3730 -0.8381 -0.3979
vn 0.0061 -0.8697 -0.4936
vn 0.3269 -0.9252 -0.1927
vn -0.0742 -0.9386 -0.3369
vn -0.0032 -0.8655 -0.5009
vn 0.0063 -0.8704 -0.4924
vn -0.0581 -0.9444 -0.3236
vn -0.0751 -0.9548 -0.2877
vn 0.0020 -0.8719 -0.4898
vn -0.0703 -0.9344 -0.3492
vn -0.0042 -0.7900 -0.6130
vn 0.0221 -0.7810 -0.6241
vn 0.0242 -0.7946 -0.6066
vn 0.0583 0.9260 0.3730
vn -0.0051 0.8704 0.4923
vn 0.3351 0.7941 0.5071
vn 0.3904 0.8679 0.3071
vn -0.1039 0.7916 0.6022
vn 0.2349 0.6909 0.6837
vn -0.0061 0.8667 0.4987
vn -0.0399 0.7382 0.6734
vn -0.0584 0.7571 0.6507
vn 0.0052 0.8621 0.5066
vn -0.0818 0.7804 0.6199
vn -0.0062 0.8636 0.5041
vn -0.0195 0.9279 0.3723
vn 0.0215 0.9308 0.3650
vn 0.0258 0.9280 0.3718
vn 0.8043 0.5925 0.0463
vn 0.8043 0.4382 0.4013
vn 0.6961 0.3154 0.6450
vn -0.8139 0.2438 0.5274
vn -0.4194 0.5649 0.7107
vn -0.3745 0.8088 0.4534
vn -0.8454 0.4638 0.2649
vn -0.4032 0.8725 0.2760
vn -0.7768 0.6229 -0.0925
vn -0.3703 -0.7986 -0.4745
vn -0.8422 -0.4652 -0.2727
vn -0.7129 -0.2827 -0.6417
vn -0.3690 -0.6911 -0.6215
vn -0.9893 0.1234 0.0781
vn -0.8723 0.3234 -0.3667
vn -0.4837 -0.8648 -0.1348
vn -0.8548 -0.5184 0.0248
vn -0.9352 -0.0168 0.3537
vn 0.8303 -0.5384 -0.1442
vn 0.7793 -0.6207 0.0868
vn 0.9700 0.0686 0.2330
vn 0.8689 -0.0403 0.4934
vn 0.7736 -0.3557 -0.5244
vn 0.9432 0.2747 -0.1870
vn 0.9298 -0.0117 -0.3679
vn 0.9748 -0.2093 0.0767
vn 0.8939 -0.3126 0.3212
vn -0.9503 -0.2315 0.2080
vn -0.9896 -0.1276 -0.0665
vn -0.8455 0.0505 -0.5315
vn 0.4894 -0.6444 0.5875
vn 0.4863 -0.4151 0.7689
vn 0.2827 -0.0605 0.9573
vn -0.0739 0.2408 0.9678
vn -0.3052 0.0964 0.9474
vn -0.2283 0.0350 0.9730
vn 0.1014 -0.1342 -0.9857
vn 0.1130 -0.1688 -0.9792
vn -0.6012 -0.3202 0.7321
vn -0.6436 -0.4152 0.6429
vn -0.2755 -0.0394 0.9605
vn -0.4649 -0.2819 0.8393
vn -0.0335 0.9674 -0.2509
vn 0.0597 0.9119 -0.4061
vn 0.1395 -0.1273 -0.9820
vn -0.3989 0.2682 0.8769
vn 0.1438 -0.1116 -0.9833
vn -0.3839 0.2047 0.9004
vn 0.2498 0.8463 -0.4705
vn 0.1974 0.9215 -0.3344
vn 0.3072 0.7920 -0.5276
vn 0.3341 0.2545 -0.9075
vn 0.1157 -0.0513 -0.9920
vn 0.4164 0.5178 -0.7473
vn -0.3292 -0.8890 0.3182
vn 0.1085 -0.9260 0.3616
vn -0.1809 0.8233 -0.5379
vn -0.2284 0.4973 -0.8370
vn -0.3882 -0.8581 0.3360
vn 0.0183 -0.2728 -0.9619
vn 0.0236 -0.1046 -0.9942
vn -0.1266 0.2319 -0.9645
vn -0.3157 -0.8373 0.4464
vn 0.3989 -0.2700 0.8763
vn 0.1049 0.8995 -0.4242
vn 0.1599 0.8831 -0.4410
vn -0.2946 -0.8140 0.5005
vn -0.4391 -0.7376 0.5129
vn 0.1155 -0.3258 -0.9384
vn -0.5249 -0.2968 0.7977
vt 0.725006 0.573649
vt 0.729660 0.457268
vt 0.646571 0.469128
vt 0.645332 0.578625
vt 0.738530 0.350492
vt 0.663708 0.358661
vt 0.917219 0.446795
vt 0.910545 0.337476
vt 0.868295 0.339193
vt 0.875237 0.446509
vt 0.797261 0.344694
vt 0.799860 0.451572
vt 0.925025 0.560733
vt 0.885064 0.563371
vt 0.804992 0.568562
vt 0.394859 0.601697
vt 0.474434 0.607997
vt 0.475074 0.498517
vt 0.392137 0.485261
vt 0.459844 0.387783
vt 0.385045 0.378350
vt 0.204789 0.471668
vt 0.246759 0.472082
vt 0.255484 0.364897
vt 0.213281 0.362476
vt 0.322041 0.478398
vt 0.326417 0.371578
vt 0.195096 0.585455
vt 0.235005 0.588758
vt 0.314974 0.595279
vt 0.035580 0.644860
vt 0.041462 0.530789
vt 0.005955 0.510050
vt -0.000000 0.615003
vt 0.042262 0.410804
vt 0.007301 0.399489
vt 0.598090 0.376833
vt 0.598405 0.496635
vt 0.617941 0.485866
vt 0.617894 0.374572
vt 0.598606 0.616350
vt 0.617724 0.596850
vt 0.501660 0.482428
vt 0.501442 0.593414
vt 0.537612 0.614548
vt 0.537410 0.494831
vt 0.585658 0.499555
vt 0.585980 0.621801
vt 0.501613 0.371131
vt 0.537095 0.375028
vt 0.585279 0.377264
vt 0.129870 0.507481
vt 0.131198 0.396897
vt 0.107255 0.409451
vt 0.106462 0.529444
vt 0.059593 0.536836
vt 0.060231 0.414096
vt 0.621340 0.483772
vt 0.617941 0.602125
vt 0.053745 0.653565
vt 0.155187 0.582153
vt 0.162819 0.471254
vt 0.171077 0.360055
vt 0.964986 0.558095
vt 0.959202 0.447082
vt 0.952795 0.335758
vt 0.100587 0.643533
vt 0.092093 0.536163
vt 0.086248 0.652901
vt 0.092728 0.413420
vt 0.555161 0.498653
vt 0.554782 0.376362
vt 0.555483 0.620900
vt 0.723987 0.556994
vt 0.642759 0.562313
vt 0.666566 0.375121
vt 0.740345 0.367086
vt 0.869255 0.355862
vt 0.911267 0.354148
vt 0.798396 0.361348
vt 0.923974 0.544079
vt 0.883917 0.546719
vt 0.803925 0.551905
vt 0.396226 0.585049
vt 0.480175 0.591830
vt 0.382852 0.394920
vt 0.456377 0.404180
vt 0.212275 0.379133
vt 0.254227 0.381548
vt 0.324962 0.388214
vt 0.196425 0.568822
vt 0.236435 0.572126
vt 0.316360 0.578638
vt 0.040114 0.630160
vt 0.004835 0.600098
vt 0.003664 0.415346
vt 0.040466 0.426985
vt 0.598678 0.393468
vt 0.618434 0.391258
vt 0.615611 0.579984
vt 0.595803 0.600396
vt 0.541522 0.598795
vt 0.505526 0.576730
vt 0.585000 0.605135
vt 0.500654 0.387773
vt 0.536383 0.391624
vt 0.585498 0.393907
vt 0.108267 0.425584
vt 0.133105 0.412666
vt 0.059649 0.430457
vt 0.614847 0.586415
vt 0.055616 0.637625
vt 0.153666 0.565297
vt 0.170538 0.376731
vt 0.966808 0.541266
vt 0.953050 0.352441
vt 0.098613 0.628978
vt 0.086174 0.637003
vt 0.092880 0.429764
vt 0.554665 0.392994
vt 0.556378 0.604289
s 1
f 9/1/1 10/2/2 5/3/3 2/4/4
f 10/2/2 13/5/5 6/6/6 5/3/3
f 43/7/7 44/8/8 15/9/9 12/10/10
f 12/10/10 15/9/9 14/11/11 11/12/12
f 11/12/12 14/11/11 13/5/5 10/2/2
f 45/13/13 43/7/7 12/10/10 7/14/14
f 7/14/14 12/10/10 11/12/12 8/15/15
f 8/15/15 11/12/12 10/2/2 9/1/1
f 24/16/16 17/17/17 20/18/18 25/19/19
f 25/19/19 20/18/18 21/20/20 28/21/21
f 46/22/22 27/23/23 30/24/24 47/25/25
f 27/23/23 26/26/26 29/27/27 30/24/24
f 26/26/26 25/19/19 28/21/21 29/27/27
f 48/28/28 22/29/29 27/23/23 46/22/22
f 22/29/29 23/30/30 26/26/26 27/23/23
f 23/30/30 24/16/16 25/19/19 26/26/26
f 33/31/31 32/32/32 20/33/18 17/34/17
f 32/32/32 38/35/33 21/36/20 20/33/18
f 40/37/34 42/38/35 19/39/36 18/40/37
f 42/38/35 35/41/38 16/42/39 19/39/36
f 4/43/40 1/44/41 36/45/42 41/46/43
f 54/47/44 51/48/45 35/41/38 42/38/35
f 3/49/46 4/43/40 41/46/43 39/50/47
f 53/51/48 54/47/44 42/38/35 40/37/34
f 5/52/3 6/53/6 37/54/49 31/55/50
f 49/56/51 52/57/52 38/35/33 32/32/32
f 2/4/4 5/3/3 31/58/50 34/59/53
f 50/60/54 49/56/51 32/32/32 33/31/31
f 16/61/39 48/28/28 46/22/22 19/62/36
f 19/62/36 46/22/22 47/25/25 18/63/37
f 1/64/41 4/65/40 43/7/7 45/13/13
f 4/65/40 3/66/46 44/8/8 43/7/7
f 34/67/53 31/55/50 55/68/55 56/69/56
f 31/55/50 37/54/49 58/70/57 55/68/55
f 39/50/47 41/46/43 60/71/58 59/72/59
f 41/46/43 36/45/42 57/73/60 60/71/58
f 49/56/51 50/60/54 56/69/56 55/68/55
f 58/70/57 52/57/52 49/56/51 55/68/55
f 51/48/45 54/47/44 60/71/58 57/73/60
f 60/71/58 54/47/44 53/51/48 59/72/59
f 63/74/61 64/75/62 66/3/63 73/2/64
f 73/2/64 66/3/63 128/76/65 76/77/66
f 68/7/67 75/10/68 78/78/69 69/79/70
f 75/10/68 74/12/71 77/80/72 78/78/69
f 74/12/71 73/2/64 76/77/66 77/80/72
f 70/81/73 71/82/74 75/10/68 68/7/67
f 71/82/74 72/83/75 74/12/71 75/10/68
f 72/83/75 63/74/61 73/2/64 74/12/71
f 81/84/76 91/19/77 84/18/78 82/85/79
f 91/19/77 94/86/80 139/87/81 84/18/78
f 86/22/82 87/88/83 96/89/84 93/23/85
f 93/23/85 96/89/84 95/90/86 92/26/87
f 92/26/87 95/90/86 94/86/80 91/19/77
f 88/91/88 86/22/82 93/23/85 89/92/89
f 89/92/89 93/23/85 92/26/87 90/93/90
f 90/93/90 92/26/87 91/19/77 81/84/76
f 105/94/91 82/95/79 84/33/78 97/32/92
f 97/32/92 84/33/78 139/96/81 100/97/93
f 101/98/94 135/99/95 79/39/96 102/38/97
f 102/38/97 79/39/96 150/100/98 107/101/99
f 61/43/100 113/46/101 99/102/102 145/103/103
f 114/47/104 102/38/97 107/101/99 116/104/105
f 124/105/106 111/106/107 113/46/101 61/43/100
f 112/107/108 101/98/94 102/38/97 114/47/104
f 66/52/63 103/55/109 109/108/110 128/109/65
f 104/56/111 97/32/92 100/97/93 110/110/112
f 64/75/62 98/111/113 103/58/109 66/3/63
f 115/112/114 105/94/91 97/32/92 104/56/111
f 150/113/98 79/62/96 86/22/82 88/91/88
f 79/62/96 135/114/95 87/88/83 86/22/82
f 145/115/103 70/81/73 68/7/67 61/65/100
f 61/65/100 68/7/67 69/79/70 124/116/106
f 98/117/113 106/118/115 117/68/116 103/55/109
f 103/55/109 117/68/116 118/119/117 109/108/110
f 111/106/107 119/120/118 120/71/119 113/46/101
f 113/46/101 120/71/119 108/121/120 99/102/102
f 104/56/111 117/68/116 106/118/115 115/112/114
f 118/119/117 117/68/116 104/56/111 110/110/112
f 116/104/105 108/121/120 120/71/119 114/47/104
f 120/71/119 119/120/118 112/107/108 114/47/104
f 58/70/57 37/54/49 153/54/121 159/70/122
f 21/36/20 38/35/33 146/35/123 85/36/124
f 47/25/25 30/24/24 142/24/125 134/25/126
f 45/13/13 7/14/14 126/14/127 125/13/128
f 39/50/47 59/72/59 160/72/129 155/50/130
f 40/37/34 18/40/37 83/40/131 147/37/132
f 48/28/28 16/61/39 80/61/133 136/28/134
f 7/14/14 8/15/15 127/15/135 126/14/127
f 28/21/21 21/20/20 85/20/124 140/21/136
f 8/15/15 9/1/1 121/1/137 127/15/135
f 29/27/27 28/21/21 140/21/136 141/27/138
f 17/17/17 24/16/16 132/16/139 133/17/140
f 30/24/24 29/27/27 141/27/138 142/24/125
f 33/31/31 17/34/17 133/34/140 148/31/141
f 34/67/53 56/69/56 149/69/142 143/67/143
f 50/60/54 33/31/31 148/31/141 157/60/144
f 6/6/6 13/5/5 129/5/145 67/6/146
f 56/69/56 50/60/54 157/60/144 149/69/142
f 16/42/39 35/41/38 151/41/147 80/42/133
f 35/41/38 51/48/45 158/48/148 151/41/147
f 13/5/5 14/11/11 130/11/149 129/5/145
f 9/1/1 2/4/4 122/4/150 121/1/137
f 18/63/37 47/25/25 134/25/126 83/63/131
f 57/73/60 36/45/42 144/45/151 152/73/152
f 14/11/11 15/9/9 131/9/153 130/11/149
f 52/57/52 58/70/57 159/70/122 154/57/154
f 22/29/29 48/28/28 136/28/134 137/29/155
f 37/54/49 6/53/6 67/53/146 153/54/121
f 23/30/30 22/29/29 137/29/155 138/30/156
f 38/35/33 52/57/52 154/57/154 146/35/123
f 15/9/9 44/8/8 123/8/157 131/9/153
f 51/48/45 57/73/60 152/73/152 158/48/148
f 24/16/16 23/30/30 138/30/156 132/16/139
f 3/49/46 39/50/47 155/50/130 65/49/158
f 2/4/4 34/59/53 143/59/143 122/4/150
f 1/64/41 45/13/13 125/13/128 62/64/159
f 59/72/59 53/51/48 156/51/160 160/72/129
f 53/51/48 40/37/34 147/37/132 156/51/160
f 36/45/42 1/44/41 62/44/159 144/45/151
f 44/8/8 3/66/46 65/66/158 123/8/157
f 64/75/62 63/74/61 121/1/137 122/4/150
f 124/116/106 69/79/70 123/8/157 65/66/158
f 71/82/74 70/81/73 125/13/128 126/14/127
f 72/83/75 71/82/74 126/14/127 127/15/135
f 63/74/61 72/83/75 127/15/135 121/1/137
f 76/77/66 128/76/65 67/6/146 129/5/145
f 77/80/72 76/77/66 129/5/145 130/11/149
f 78/78/69 77/80/72 130/11/149 131/9/153
f 81/84/76 82/85/79 133/17/140 132/16/139
f 87/88/83 135/114/95 83/63/131 134/25/126
f 88/91/88 89/92/89 137/29/155 136/28/134
f 89/92/89 90/93/90 138/30/156 137/29/155
f 90/93/90 81/84/76 132/16/139 138/30/156
f 139/87/81 94/86/80 140/21/136 85/20/124
f 94/86/80 95/90/86 141/27/138 140/21/136
f 95/90/86 96/89/84 142/24/125 141/27/138
f 98/111/113 64/75/62 122/4/150 143/59/143
f 145/103/103 99/102/102 144/45/151 62/44/159
f 100/97/93 139/96/81 85/36/124 146/35/123
f 135/99/95 101/98/94 147/37/132 83/40/131
f 82/95/79 105/94/91 148/31/141 133/34/140
f 106/118/115 98/117/113 143/67/143 149/69/142
f 107/101/99 150/100/98 80/42/133 151/41/147
f 99/102/102 108/121/120 152/73/152 144/45/151
f 128/109/65 109/108/110 153/54/121 67/53/146
f 110/110/112 100/97/93 146/35/123 154/57/154
f 111/106/107 124/105/106 65/49/158 155/50/130
f 101/98/94 112/107/108 156/51/160 147/37/132
f 69/79/70 78/78/69 131/9/153 123/8/157
f 70/81/73 145/115/103 62/64/159 125/13/128
f 96/89/84 87/88/83 134/25/126 142/24/125
f 150/113/98 88/91/88 136/28/134 80/61/133
f 105/94/91 115/112/114 157/60/144 148/31/141
f 116/104/105 107/101/99 151/41/147 158/48/148
f 109/108/110 118/119/117 159/70/122 153/54/121
f 119/120/118 111/106/107 155/50/130 160/72/129
f 115/112/114 106/118/115 149/69/142 157/60/144
f 118/119/117 110/110/112 154/57/154 159/70/122
f 108/121/120 116/104/105 158/48/148 152/73/152
f 112/107/108 119/120/118 160/72/129 156/51/160
o Bomber_Tailwing_Cap_Top
v -4.348724 1.067618 0.186344
v -3.529736 1.090360 0.186344
v -4.354314 1.450332 0.186344
v -4.352287 1.259865 0.186343
v -3.550979 1.283454 0.183632
v -3.612947 1.517515 0.180363
v -4.134990 1.084886 0.186344
v -3.855659 1.091514 0.186344
v -3.656590 1.089339 0.186344
v -3.687692 1.292495 0.180190
v -3.861888 1.294072 0.181844
v -4.129216 1.288262 0.182112
v -3.727954 1.512205 0.177952
v -3.872900 1.498390 0.180814
v -4.129216 1.470799 0.182112
v -4.348702 1.067680 -0.144627
v -3.529767 1.089294 -0.144627
v -4.354286 1.450329 -0.144627
v -4.352261 1.259974 -0.144627
v -3.550861 1.282074 -0.147339
v -3.612660 1.516815 -0.150608
v -4.134981 1.084790 -0.144627
v -3.855664 1.090803 -0.144627
v -3.656610 1.088339 -0.144627
v -3.687692 1.291215 -0.142350
v -3.861888 1.292871 -0.140696
v -4.129216 1.287773 -0.140428
v -3.727954 1.511432 -0.144588
v -3.872900 1.497257 -0.141726
v -4.129216 1.470102 -0.140428
v -3.484422 1.258115 0.137223
v -3.484367 1.257512 -0.102854
v -3.456226 1.050975 -0.098920
v -3.456208 1.051452 0.141156
v -4.397947 1.026135 -0.098920
v -4.397959 1.026121 0.141156
v -3.557392 1.505660 0.132480
v -3.557272 1.505525 -0.107596
v -4.399909 1.435646 0.141156
v -4.399897 1.435669 -0.098920
v -4.399263 1.230835 0.141156
v -4.399252 1.230860 -0.098920
v -4.245223 1.274977 0.184228
v -4.246236 1.458508 0.184228
v -4.246328 1.074210 0.186344
v -4.245210 1.274829 -0.142528
v -4.246222 1.458172 -0.142528
v -4.246313 1.074268 -0.144627
v -3.463894 1.251101 -0.056055
v -3.433594 1.040134 -0.051241
v -4.413102 1.014706 -0.051241
v -3.540085 1.501749 -0.061860
v -4.414077 1.431169 -0.051241
v -4.413754 1.222893 -0.051241
v -3.463921 1.251110 0.089034
v -3.433585 1.040136 0.093849
v -4.413108 1.014703 0.093849
v -3.540145 1.501752 0.083229
v -4.414083 1.431168 0.093849
v -4.413761 1.222892 0.093849
v -4.388608 1.266440 0.243053
v -4.370416 1.069979 0.232473
v -3.643792 1.117685 0.245998
v -3.485384 1.119303 0.236329
v -4.371869 1.459827 0.234201
v -3.515367 1.294923 0.240743
v -3.599634 1.530883 0.229431
v -4.256641 1.283206 0.244547
v -4.256475 1.449411 0.244521
v -4.258131 1.102535 0.246486
v -4.142173 1.113722 0.246195
v -3.850850 1.120184 0.246024
v -3.675960 1.302316 0.240335
v -3.857147 1.303839 0.242062
v -4.135951 1.297273 0.242342
v -3.719461 1.495569 0.238340
v -3.869439 1.484883 0.241206
v -4.135482 1.460694 0.242377
v -4.388720 1.266567 -0.201160
v -4.370540 1.070053 -0.190688
v -3.644119 1.115498 -0.204721
v -3.485699 1.116975 -0.195677
v -4.371974 1.459887 -0.192435
v -3.516368 1.291825 -0.205032
v -3.600978 1.528285 -0.200176
v -4.256633 1.283002 -0.202726
v -4.256487 1.448910 -0.202701
v -4.258113 1.102615 -0.204651
v -4.142170 1.113495 -0.204381
v -3.851059 1.118749 -0.204390
v -3.676862 1.299550 -0.202533
v -3.857748 1.301563 -0.200819
v -4.136047 1.296431 -0.200539
v -3.721006 1.493042 -0.204272
v -3.870448 1.482427 -0.201673
v -4.135697 1.459470 -0.200487
v -3.421889 1.267363 -0.140555
v -3.383069 1.080372 0.163899
v -4.474095 1.045009 0.157939
v -3.493590 1.488432 -0.150856
v -4.461659 1.417304 -0.134873
v -4.463389 1.231913 -0.131931
v -3.421450 1.269055 0.173875
v -3.390656 1.261772 -0.069353
v -3.382791 1.079231 -0.122656
v -3.360814 1.070174 0.101245
v -4.474073 1.045031 -0.115424
v -4.486945 1.034308 0.099237
v -3.491928 1.490062 0.174093
v -3.461110 1.485040 -0.076953
v -4.461538 1.417274 0.177434
v -4.485814 1.409734 -0.063124
v -4.463295 1.231890 0.174484
v -4.485826 1.221975 -0.062198
v -3.360602 1.069945 -0.058774
v -4.486928 1.034310 -0.056441
v -3.390680 1.262141 0.101782
v -3.460895 1.485459 0.097174
v -4.485809 1.409733 0.105948
v -4.485824 1.221973 0.105020
v -3.656812 1.093840 0.237312
v -3.511817 1.095520 0.234017
v -4.245273 1.469215 0.235194
v -4.387205 1.440600 0.245124
v -4.245846 1.077712 0.237315
v -4.134747 1.088493 0.237314
v -3.855528 1.095837 0.237312
v -3.583362 1.503078 0.242105
v -3.728044 1.521848 0.228926
v -3.872470 1.508493 0.231787
v -4.128678 1.481096 0.233084
v -3.657231 1.091875 -0.195598
v -3.512442 1.093245 -0.192554
v -4.245266 1.468695 -0.193494
v -4.387331 1.440729 -0.203237
v -4.245834 1.077790 -0.195599
v -4.134764 1.088333 -0.195598
v -3.855788 1.094597 -0.195599
v -3.585356 1.500091 -0.212231
v -3.729375 1.519600 -0.195539
v -3.873330 1.506250 -0.192699
v -4.128836 1.479928 -0.191402
v -3.413810 1.057629 0.169123
v -4.443465 1.026499 0.164127
v -4.396587 1.094068 0.233992
v -3.518229 1.518780 -0.139145
v -4.443073 1.438038 -0.126017
v -3.413973 1.056352 -0.127210
v -3.383658 1.046771 0.102837
v -4.396655 1.094139 -0.192065
v -4.443515 1.026513 -0.121766
v -4.463618 1.014618 0.100723
v -3.517347 1.520134 0.162385
v -3.491393 1.514808 -0.071188
v -4.442976 1.438010 0.168427
v -4.464487 1.431125 -0.058813
v -3.383631 1.046499 -0.060170
v -4.463617 1.014620 -0.058075
v -3.491411 1.515143 0.091891
v -4.464485 1.431125 0.101473
vn 0.0037 -0.7483 -0.6633
vn 0.0050 -0.0159 -0.9999
vn -0.3316 -0.0920 -0.9389
vn -0.3233 -0.7964 -0.5111
vn -0.0467 0.6281 -0.7767
vn -0.1933 0.6775 -0.7096
vn -0.0138 -0.0055 -0.9999
vn -0.0692 0.6235 -0.7788
vn -0.0742 0.6277 -0.7749
vn -0.0073 -0.0098 -0.9999
vn -0.0711 0.6327 -0.7711
vn -0.0054 -0.0150 -0.9999
vn 0.0512 -0.7366 -0.6744
vn 0.0406 -0.7297 -0.6825
vn 0.0035 -0.7400 -0.6726
vn 0.0078 -0.7362 0.6768
vn -0.3205 -0.7804 0.5368
vn -0.3107 -0.0605 0.9486
vn 0.0210 0.0051 0.9998
vn -0.1634 0.7006 0.6946
vn -0.0274 0.6490 0.7603
vn -0.0137 -0.0054 0.9999
vn -0.0056 -0.0080 1.0000
vn -0.0696 0.6318 0.7720
vn -0.0666 0.6252 0.7776
vn 0.0055 -0.0056 1.0000
vn -0.0569 0.6417 0.7648
vn 0.0506 -0.7365 0.6746
vn 0.0392 -0.7284 0.6840
vn 0.0051 -0.7343 0.6788
vn -0.5634 -0.8126 0.1491
vn -0.7795 -0.1536 0.6073
vn -0.5971 0.5778 0.5564
vn 0.5080 0.7261 0.4634
vn 0.8514 0.0053 0.5244
vn 0.3694 0.0017 0.9293
vn 0.1165 0.7388 0.6638
vn 0.6760 -0.7334 0.0719
vn 0.4424 -0.7590 0.4776
vn 0.3668 0.0017 -0.9303
vn 0.4415 -0.7579 -0.4802
vn 0.6758 -0.7335 -0.0730
vn 0.8494 0.0053 -0.5277
vn 0.9889 0.0030 0.1484
vn 0.6559 -0.7547 0.0165
vn 0.1130 0.7376 -0.6657
vn 0.5055 0.7264 -0.4656
vn 0.6692 0.7304 0.1368
vn -0.6307 0.5504 -0.5470
vn -0.7886 -0.1771 -0.5888
vn -0.9610 -0.2035 0.1874
vn -0.8353 0.5186 0.1824
vn -0.5587 -0.8195 -0.1280
vn -0.5330 -0.8455 0.0333
vn -0.9607 -0.2110 -0.1805
vn -0.5281 -0.8488 -0.0268
vn -0.8428 0.5089 -0.1750
vn 0.9888 0.0030 -0.1494
vn 0.6688 0.7307 -0.1375
vn 0.6556 -0.7550 -0.0167
vn 0.0231 -0.1376 0.9902
vn 0.3538 -0.1472 0.9237
vn 0.3359 0.0849 0.9381
vn 0.0064 0.0106 0.9999
vn 0.3003 0.3271 0.8960
vn -0.0128 0.1855 0.9826
vn -0.0056 -0.0017 1.0000
vn 0.0075 0.0097 0.9999
vn -0.0099 0.2139 0.9768
vn -0.0122 0.2350 0.9719
vn 0.0054 0.0150 0.9999
vn -0.0072 0.1933 0.9811
vn -0.0196 -0.1436 0.9894
vn 0.0136 -0.1545 0.9879
vn 0.0021 -0.1570 0.9876
vn 0.0169 -0.1567 -0.9875
vn -0.0102 -0.0106 -0.9999
vn 0.3150 0.0527 -0.9476
vn 0.3446 -0.1736 -0.9226
vn -0.0401 0.1574 -0.9867
vn 0.2711 0.2941 -0.9165
vn -0.0059 -0.0017 -1.0000
vn -0.0110 0.2321 -0.9726
vn -0.0113 0.2075 -0.9782
vn 0.0060 0.0083 -0.9999
vn -0.0255 0.1765 -0.9840
vn -0.0054 0.0059 -1.0000
vn -0.0203 -0.1416 -0.9897
vn 0.0126 -0.1541 -0.9880
vn -0.0017 -0.1636 -0.9865
vn 0.7620 -0.2798 -0.5840
vn 0.7760 0.1586 -0.6105
vn 0.7045 0.4328 -0.5624
vn -0.8130 0.3522 -0.4636
vn -0.4128 0.3493 -0.8412
vn -0.3744 -0.0118 -0.9272
vn -0.8453 -0.0026 -0.5342
vn -0.4035 -0.1960 -0.8937
vn -0.7795 -0.3695 -0.5058
vn -0.3720 -0.0117 0.9282
vn -0.8434 -0.0026 0.5372
vn -0.7777 -0.3700 0.5083
vn -0.4006 -0.1967 0.8949
vn -0.9894 0.0059 -0.1452
vn -0.8909 -0.4300 -0.1466
vn -0.4106 0.3495 0.8421
vn -0.8112 0.3523 0.4667
vn -0.9235 0.3598 -0.1329
vn 0.7856 0.1828 0.5912
vn 0.7200 0.4552 0.5238
vn 0.9586 0.2176 -0.1835
vn 0.8498 0.4985 -0.1716
vn 0.7654 -0.2619 0.5878
vn 0.9308 -0.3164 -0.1832
vn 0.9310 -0.3120 0.1895
vn 0.9584 0.2248 0.1757
vn 0.8499 0.5046 0.1519
vn -0.9233 0.3599 0.1342
vn -0.9892 0.0060 0.1462
vn -0.8905 -0.4304 0.1475
vn 0.3267 0.9300 0.1682
vn 0.3094 0.9505 0.0286
vn 0.3306 0.9213 -0.2046
vn 0.0962 0.8677 -0.4877
vn -0.0863 0.8812 -0.4647
vn -0.0701 0.8920 -0.4465
vn 0.0471 -0.7883 0.6135
vn 0.0486 -0.7815 0.6220
vn -0.4186 0.9079 0.0227
vn -0.4235 0.8992 0.1103
vn -0.2101 0.8891 -0.4067
vn -0.4236 0.8993 -0.1089
vn -0.0482 -0.6795 -0.7321
vn 0.0474 -0.7803 -0.6236
vn 0.0061 -0.7906 0.6123
vn -0.0803 0.8624 -0.4997
vn 0.0079 -0.7818 0.6235
vn -0.0896 0.8666 -0.4909
vn 0.0051 -0.7924 -0.6100
vn 0.0538 -0.7003 -0.7118
vn 0.2580 -0.8133 -0.5215
vn 0.4380 -0.8830 0.1689
vn 0.2639 -0.8005 0.5381
vn 0.4358 -0.8859 -0.1589
vn -0.0641 0.8780 0.4744
vn 0.1087 0.8825 0.4576
vn -0.2178 -0.8415 -0.4944
vn -0.3363 -0.9317 -0.1370
vn -0.0798 0.8745 0.4784
vn 0.0587 -0.6827 0.7283
vn -0.2153 -0.8415 0.4954
vn -0.3358 -0.9319 0.1372
vn -0.0873 0.8854 0.4566
vn 0.3156 0.9480 -0.0418
vn 0.0449 -0.7891 -0.6126
vn 0.0034 -0.7956 -0.6059
vn -0.0744 0.8942 0.4415
vn -0.2116 0.8897 0.4046
vn -0.0460 -0.6809 0.7309
vn -0.4186 0.9079 -0.0223
vt 0.725006 0.573649
vt 0.729660 0.457268
vt 0.646571 0.469128
vt 0.645332 0.578625
vt 0.738530 0.350492
vt 0.663708 0.358661
vt 0.917219 0.446795
vt 0.910545 0.337476
vt 0.868295 0.339193
vt 0.875237 0.446509
vt 0.797261 0.344694
vt 0.799860 0.451572
vt 0.925025 0.560733
vt 0.885064 0.563371
vt 0.804992 0.568562
vt 0.394859 0.601697
vt 0.474434 0.607997
vt 0.475074 0.498517
vt 0.392137 0.485261
vt 0.459844 0.387783
vt 0.385045 0.378350
vt 0.204789 0.471668
vt 0.246759 0.472082
vt 0.255484 0.364897
vt 0.213281 0.362476
vt 0.322041 0.478398
vt 0.326417 0.371578
vt 0.195096 0.585455
vt 0.235005 0.588758
vt 0.314974 0.595279
vt 0.035580 0.644860
vt 0.041462 0.530789
vt 0.005955 0.510050
vt -0.000000 0.615003
vt 0.042262 0.410804
vt 0.007301 0.399489
vt 0.598090 0.376833
vt 0.598405 0.496635
vt 0.617941 0.485866
vt 0.617894 0.374572
vt 0.598606 0.616350
vt 0.617724 0.596850
vt 0.501660 0.482428
vt 0.501442 0.593414
vt 0.537612 0.614548
vt 0.537410 0.494831
vt 0.585658 0.499555
vt 0.585980 0.621801
vt 0.501613 0.371131
vt 0.537095 0.375028
vt 0.585279 0.377264
vt 0.129870 0.507481
vt 0.131198 0.396897
vt 0.107255 0.409451
vt 0.106462 0.529444
vt 0.059593 0.536836
vt 0.060231 0.414096
vt 0.621340 0.483772
vt 0.617941 0.602125
vt 0.053745 0.653565
vt 0.155187 0.582153
vt 0.162819 0.471254
vt 0.171077 0.360055
vt 0.964986 0.558095
vt 0.959202 0.447082
vt 0.952795 0.335758
vt 0.100587 0.643533
vt 0.092093 0.536163
vt 0.086248 0.652901
vt 0.092728 0.413420
vt 0.555161 0.498653
vt 0.554782 0.376362
vt 0.555483 0.620900
vt 0.723987 0.556994
vt 0.642759 0.562313
vt 0.666566 0.375121
vt 0.740345 0.367086
vt 0.869255 0.355862
vt 0.911267 0.354148
vt 0.798396 0.361348
vt 0.923974 0.544079
vt 0.883917 0.546719
vt 0.803925 0.551905
vt 0.396226 0.585049
vt 0.480175 0.591830
vt 0.382852 0.394920
vt 0.456377 0.404180
vt 0.212275 0.379133
vt 0.254227 0.381548
vt 0.324962 0.388214
vt 0.196425 0.568822
vt 0.236435 0.572126
vt 0.316360 0.578638
vt 0.040114 0.630160
vt 0.004835 0.600098
vt 0.003664 0.415346
vt 0.040466 0.426985
vt 0.598678 0.393468
vt 0.618434 0.391258
vt 0.615611 0.579984
vt 0.595803 0.600396
vt 0.541522 0.598795
vt 0.505526 0.576730
vt 0.585000 0.605135
vt 0.500654 0.387773
vt 0.536383 0.391624
vt 0.585498 0.393907
vt 0.108267 0.425584
vt 0.133105 0.412666
vt 0.059649 0.430457
vt 0.614847 0.586415
vt 0.055616 0.637625
vt 0.153666 0.565297
vt 0.170538 0.376731
vt 0.966808 0.541266
vt 0.953050 0.352441
vt 0.098613 0.628978
vt 0.086174 0.637003
vt 0.092880 0.429764
vt 0.554665 0.392994
vt 0.556378 0.604289
s 1
f 169/122/161 170/123/162 165/124/163 162/125/164
f 170/123/162 173/126/165 166/127/166 165/124/163
f 203/128/167 204/129/168 175/130/169 172/131/170
f 172/131/170 175/130/169 174/132/171 171/133/172
f 171/133/172 174/132/171 173/126/165 170/123/162
f 205/134/173 203/128/167 172/131/170 167/135/174
f 167/135/174 172/131/170 171/133/172 168/136/175
f 168/136/175 171/133/172 170/123/162 169/122/161
f 184/137/176 177/138/177 180/139/178 185/140/179
f 185/140/179 180/139/178 181/141/180 188/142/181
f 206/143/182 187/144/183 190/145/184 207/146/185
f 187/144/183 186/147/186 189/148/187 190/145/184
f 186/147/186 185/140/179 188/142/181 189/148/187
f 208/149/188 182/150/189 187/144/183 206/143/182
f 182/150/189 183/151/190 186/147/186 187/144/183
f 183/151/190 184/137/176 185/140/179 186/147/186
f 193/152/191 192/153/192 180/154/178 177/155/177
f 192/153/192 198/156/193 181/157/180 180/154/178
f 200/158/194 202/159/195 179/160/196 178/161/197
f 202/159/195 195/162/198 176/163/199 179/160/196
f 164/164/200 161/165/201 196/166/202 201/167/203
f 214/168/204 211/169/205 195/162/198 202/159/195
f 163/170/206 164/164/200 201/167/203 199/171/207
f 213/172/208 214/168/204 202/159/195 200/158/194
f 165/173/163 166/174/166 197/175/209 191/176/210
f 209/177/211 212/178/212 198/156/193 192/153/192
f 162/125/164 165/124/163 191/179/210 194/180/213
f 210/181/214 209/177/211 192/153/192 193/152/191
f 176/182/199 208/149/188 206/143/182 179/183/196
f 179/183/196 206/143/182 207/146/185 178/184/197
f 161/185/201 164/186/200 203/128/167 205/134/173
f 164/186/200 163/187/206 204/129/168 203/128/167
f 194/188/213 191/176/210 215/189/215 216/190/216
f 191/176/210 197/175/209 218/191/217 215/189/215
f 199/171/207 201/167/203 220/192/218 219/193/219
f 201/167/203 196/166/202 217/194/220 220/192/218
f 209/177/211 210/181/214 216/190/216 215/189/215
f 218/191/217 212/178/212 209/177/211 215/189/215
f 211/169/205 214/168/204 220/192/218 217/194/220
f 220/192/218 214/168/204 213/172/208 219/193/219
f 223/195/221 224/196/222 226/124/223 233/123/224
f 233/123/224 226/124/223 288/197/225 236/198/226
f 228/128/227 235/131/228 238/199/229 229/200/230
f 235/131/228 234/133/231 237/201/232 238/199/229
f 234/133/231 233/123/224 236/198/226 237/201/232
f 230/202/233 231/203/234 235/131/228 228/128/227
f 231/203/234 232/204/235 234/133/231 235/131/228
f 232/204/235 223/195/221 233/123/224 234/133/231
f 241/205/236 251/140/237 244/139/238 242/206/239
f 251/140/237 254/207/240 299/208/241 244/139/238
f 246/143/242 247/209/243 256/210/244 253/144/245
f 253/144/245 256/210/244 255/211/246 252/147/247
f 252/147/247 255/211/246 254/207/240 251/140/237
f 248/212/248 246/143/242 253/144/245 249/213/249
f 249/213/249 253/144/245 252/147/247 250/214/250
f 250/214/250 252/147/247 251/140/237 241/205/236
f 265/215/251 242/216/239 244/154/238 257/153/252
f 257/153/252 244/154/238 299/217/241 260/218/253
f 261/219/254 295/220/255 239/160/256 262/159/257
f 262/159/257 239/160/256 310/221/258 267/222/259
f 221/164/260 273/167/261 259/223/262 305/224/263
f 274/168/264 262/159/257 267/222/259 276/225/265
f 284/226/266 271/227/267 273/167/261 221/164/260
f 272/228/268 261/219/254 262/159/257 274/168/264
f 226/173/223 263/176/269 269/229/270 288/230/225
f 264/177/271 257/153/252 260/218/253 270/231/272
f 224/196/222 258/232/273 263/179/269 226/124/223
f 275/233/274 265/215/251 257/153/252 264/177/271
f 310/234/258 239/183/256 246/143/242 248/212/248
f 239/183/256 295/235/255 247/209/243 246/143/242
f 305/236/263 230/202/233 228/128/227 221/186/260
f 221/186/260 228/128/227 229/200/230 284/237/266
f 258/238/273 266/239/275 277/189/276 263/176/269
f 263/176/269 277/189/276 278/240/277 269/229/270
f 271/227/267 279/241/278 280/192/279 273/167/261
f 273/167/261 280/192/279 268/242/280 259/223/262
f 264/177/271 277/189/276 266/239/275 275/233/274
f 278/240/277 277/189/276 264/177/271 270/231/272
f 276/225/265 268/242/280 280/192/279 274/168/264
f 280/192/279 279/241/278 272/228/268 274/168/264
f 218/191/217 197/175/209 313/175/281 319/191/282
f 181/157/180 198/156/193 306/156/283 245/157/284
f 207/146/185 190/145/184 302/145/285 294/146/286
f 205/134/173 167/135/174 286/135/287 285/134/288
f 199/171/207 219/193/219 320/193/289 315/171/290
f 200/158/194 178/161/197 243/161/291 307/158/292
f 208/149/188 176/182/199 240/182/293 296/149/294
f 167/135/174 168/136/175 287/136/295 286/135/287
f 188/142/181 181/141/180 245/141/284 300/142/296
f 168/136/175 169/122/161 281/122/297 287/136/295
f 189/148/187 188/142/181 300/142/296 301/148/298
f 177/138/177 184/137/176 292/137/299 293/138/300
f 190/145/184 189/148/187 301/148/298 302/145/285
f 193/152/191 177/155/177 293/155/300 308/152/301
f 194/188/213 216/190/216 309/190/302 303/188/303
f 210/181/214 193/152/191 308/152/301 317/181/304
f 166/127/166 173/126/165 289/126/305 227/127/306
f 216/190/216 210/181/214 317/181/304 309/190/302
f 176/163/199 195/162/198 311/162/307 240/163/293
f 195/162/198 211/169/205 318/169/308 311/162/307
f 173/126/165 174/132/171 290/132/309 289/126/305
f 169/122/161 162/125/164 282/125/310 281/122/297
f 178/184/197 207/146/185 294/146/286 243/184/291
f 217/194/220 196/166/202 304/166/311 312/194/312
f 174/132/171 175/130/169 291/130/313 290/132/309
f 212/178/212 218/191/217 319/191/282 314/178/314
f 182/150/189 208/149/188 296/149/294 297/150/315
f 197/175/209 166/174/166 227/174/306 313/175/281
f 183/151/190 182/150/189 297/150/315 298/151/316
f 198/156/193 212/178/212 314/178/314 306/156/283
f 175/130/169 204/129/168 283/129/317 291/130/313
f 211/169/205 217/194/220 312/194/312 318/169/308
f 184/137/176 183/151/190 298/151/316 292/137/299
f 163/170/206 199/171/207 315/171/290 225/170/318
f 162/125/164 194/180/213 303/180/303 282/125/310
f 161/185/201 205/134/173 285/134/288 222/185/319
f 219/193/219 213/172/208 316/172/320 320/193/289
f 213/172/208 200/158/194 307/158/292 316/172/320
f 196/166/202 161/165/201 222/165/319 304/166/311
f 204/129/168 163/187/206 225/187/318 283/129/317
f 224/196/222 223/195/221 281/122/297 282/125/310
f 284/237/266 229/200/230 283/129/317 225/187/318
f 231/203/234 230/202/233 285/134/288 286/135/287
f 232/204/235 231/203/234 286/135/287 287/136/295
f 223/195/221 232/204/235 287/136/295 281/122/297
f 236/198/226 288/197/225 227/127/306 289/126/305
f 237/201/232 236/198/226 289/126/305 290/132/309
f 238/199/229 237/201/232 290/132/309 291/130/313
f 241/205/236 242/206/239 293/138/300 292/137/299
f 247/209/243 295/235/255 243/184/291 294/146/286
f 248/212/248 249/213/249 297/150/315 296/149/294
f 249/213/249 250/214/250 298/151/316 297/150/315
f 250/214/250 241/205/236 292/137/299 298/151/316
f 299/208/241 254/207/240 300/142/296 245/141/284
f 254/207/240 255/211/246 301/148/298 300/142/296
f 255/211/246 256/210/244 302/145/285 301/148/298
f 258/232/273 224/196/222 282/125/310 303/180/303
f 305/224/263 259/223/262 304/166/311 222/165/319
f 260/218/253 299/217/241 245/157/284 306/156/283
f 295/220/255 261/219/254 307/158/292 243/161/291
f 242/216/239 265/215/251 308/152/301 293/155/300
f 266/239/275 258/238/273 303/188/303 309/190/302
f 267/222/259 310/221/258 240/163/293 311/162/307
f 259/223/262 268/242/280 312/194/312 304/166/311
f 288/230/225 269/229/270 313/175/281 227/174/306
f 270/231/272 260/218/253 306/156/283 314/178/314
f 271/227/267 284/226/266 225/170/318 315/171/290
f 261/219/254 272/228/268 316/172/320 307/158/292
f 229/200/230 238/199/229 291/130/313 283/129/317
f 230/202/233 305/236/263 222/185/319 285/134/288
f 256/210/244 247/209/243 294/146/286 302/145/285
f 310/234/258 248/212/248 296/149/294 240/182/293
f 265/215/251 275/233/274 317/181/304 308/152/301
f 276/225/265 267/222/259 311/162/307 318/169/308
f 269/229/270 278/240/277 319/191/282 313/175/281
f 279/241/278 271/227/267 315/171/290 320/193/289
f 275/233/274 266/239/275 309/190/302 317/181/304
f 278/240/277 270/231/272 314/178/314 319/191/282
f 268/242/280 276/225/265 318/169/308 312/194/312
f 272/228/268 279/241/278 320/193/289 316/172/320
o Bomber_Tailwing_Cap_Left
v -4.348724 0.934011 -0.265137
v -3.561432 0.856000 -0.400256
v -4.354314 0.741756 -0.598131
v -4.352287 0.837881 -0.431638
v -3.584085 0.711601 -0.644939
v -3.646709 0.571119 -0.881723
v -4.134990 0.923284 -0.283716
v -3.855659 0.902760 -0.319266
v -3.670666 0.876608 -0.364561
v -3.701465 0.727786 -0.610022
v -3.861888 0.765303 -0.548349
v -4.129216 0.805954 -0.478475
v -3.744734 0.595238 -0.835127
v -3.872900 0.644933 -0.754776
v -4.129216 0.703568 -0.655813
v -4.348702 0.607522 -0.168690
v -3.559017 0.538416 -0.288386
v -4.354286 0.416414 -0.499700
v -4.352261 0.512344 -0.333544
v -3.583008 0.393404 -0.534131
v -3.647751 0.246928 -0.781298
v -4.134981 0.589351 -0.200164
v -3.855664 0.568834 -0.235699
v -3.669590 0.546798 -0.273868
v -3.701664 0.405231 -0.523622
v -3.861888 0.439510 -0.467559
v -4.129216 0.480157 -0.397692
v -3.748036 0.268753 -0.755534
v -3.873466 0.318204 -0.675607
v -4.129216 0.377753 -0.575061
v -3.526939 0.675681 -0.614336
v -3.526770 0.447691 -0.529073
v -3.498265 0.602668 -0.268512
v -3.498672 0.830277 -0.354435
v -4.397947 0.678875 -0.136517
v -4.397959 0.913960 -0.209491
v -3.599840 0.520724 -0.873244
v -3.600002 0.287508 -0.797032
v -4.399909 0.708968 -0.564547
v -4.399897 0.473892 -0.491559
v -4.399263 0.811541 -0.386886
v -4.399252 0.576861 -0.313211
v -4.245223 0.824534 -0.450526
v -4.246236 0.726788 -0.619826
v -4.246328 0.929427 -0.273077
v -4.245210 0.494640 -0.368407
v -4.246222 0.396873 -0.537745
v -4.246313 0.595490 -0.189531
v -3.508665 0.496590 -0.537973
v -3.478365 0.655945 -0.271593
v -4.413102 0.732594 -0.138832
v -3.584856 0.331683 -0.811992
v -4.414077 0.523556 -0.500897
v -4.413754 0.628437 -0.319237
v -3.508692 0.634272 -0.589681
v -3.478356 0.793197 -0.324044
v -4.413108 0.875106 -0.182174
v -3.584916 0.472898 -0.857579
v -4.414083 0.666340 -0.543767
v -4.413761 0.770839 -0.362769
v -4.388608 0.885145 -0.463194
v -4.370416 0.974213 -0.287764
v -3.654960 0.917872 -0.412397
v -3.513182 0.888866 -0.443301
v -4.371869 0.780460 -0.626809
v -3.543372 0.765127 -0.666451
v -3.627307 0.618099 -0.898486
v -4.256641 0.876565 -0.481043
v -4.256475 0.788847 -0.632923
v -4.258131 0.970071 -0.322964
v -4.142173 0.963206 -0.334271
v -3.850850 0.940332 -0.373549
v -3.686638 0.783815 -0.633268
v -3.857147 0.817615 -0.578177
v -4.135951 0.858585 -0.507775
v -3.729508 0.668965 -0.828204
v -3.869439 0.711952 -0.759479
v -4.135482 0.767540 -0.665540
v -4.388720 0.464227 -0.303821
v -4.370540 0.568872 -0.143513
v -3.652884 0.477220 -0.274193
v -3.511132 0.488647 -0.272489
v -4.371974 0.371728 -0.481482
v -3.544142 0.350574 -0.492928
v -3.630496 0.209854 -0.746374
v -4.256633 0.439150 -0.344122
v -4.256487 0.351452 -0.496069
v -4.258113 0.529335 -0.184068
v -4.142170 0.522970 -0.195630
v -3.851059 0.500362 -0.234772
v -3.687945 0.353791 -0.492354
v -3.857748 0.384283 -0.442968
v -4.136047 0.425031 -0.372951
v -3.736023 0.233767 -0.696763
v -3.870453 0.278088 -0.625195
v -4.135697 0.334022 -0.530686
v -3.461863 0.425179 -0.492663
v -3.424274 0.835801 -0.390351
v -4.474095 0.922117 -0.228928
v -3.533291 0.274987 -0.732199
v -4.461659 0.462799 -0.438867
v -4.463389 0.558606 -0.278809
v -3.461418 0.708551 -0.630708
v -3.435427 0.491748 -0.519766
v -3.423747 0.578428 -0.263027
v -3.405585 0.784734 -0.353496
v -4.474073 0.667828 -0.122644
v -4.486945 0.875115 -0.192935
v -3.531266 0.572849 -0.866188
v -3.505881 0.340153 -0.767136
v -4.461538 0.752900 -0.561010
v -4.485814 0.536016 -0.455550
v -4.463295 0.843037 -0.398988
v -4.485826 0.630593 -0.293588
v -3.405373 0.641221 -0.282029
v -4.486928 0.729279 -0.134173
v -3.435451 0.645085 -0.596447
v -3.505666 0.500054 -0.838433
v -4.485809 0.693649 -0.520664
v -4.485824 0.786642 -0.357741
v -3.667060 0.926518 -0.380051
v -3.539422 0.901757 -0.416349
v -4.245273 0.769100 -0.648471
v -4.387205 0.799834 -0.615100
v -4.245846 0.974527 -0.296904
v -4.134747 0.968490 -0.307359
v -3.855528 0.948446 -0.342071
v -3.608163 0.645450 -0.876461
v -3.739811 0.646516 -0.848257
v -3.872470 0.690675 -0.777494
v -4.128678 0.747001 -0.682529
v -3.666730 0.505334 -0.243744
v -3.538100 0.501693 -0.256137
v -4.245266 0.347802 -0.520805
v -4.387331 0.375111 -0.454018
v -4.245834 0.549587 -0.167095
v -4.134764 0.543566 -0.177523
v -3.855788 0.523649 -0.212020
v -3.613475 0.215484 -0.712514
v -3.744832 0.228692 -0.723019
v -3.873444 0.272851 -0.652215
v -4.128836 0.329509 -0.556675
v -3.454371 0.855570 -0.366559
v -4.443465 0.936509 -0.216377
v -4.396587 0.963485 -0.309385
v -3.558770 0.264083 -0.774509
v -4.443073 0.456321 -0.467799
v -3.454223 0.585253 -0.242097
v -3.428429 0.800879 -0.328713
v -4.396655 0.559350 -0.157252
v -4.443515 0.666384 -0.112461
v -4.463618 0.885274 -0.178310
v -3.557559 0.545881 -0.889482
v -3.536164 0.325223 -0.804525
v -4.442976 0.734491 -0.574884
v -4.464487 0.524993 -0.483264
v -3.428402 0.652581 -0.259562
v -4.463617 0.734528 -0.121814
v -3.536182 0.478301 -0.865545
v -4.464485 0.677408 -0.539846
vn 0.1909 -0.3535 0.9157
vn 0.0094 -0.8605 0.5094
vn -0.3431 -0.7754 0.5302
vn -0.1874 -0.2890 0.9388
vn -0.3996 -0.8712 -0.2852
vn -0.5277 -0.7019 -0.4784
vn -0.0132 -0.8632 0.5047
vn -0.1942 -0.9648 -0.1771
vn -0.2618 -0.9449 -0.1964
vn -0.0060 -0.8616 0.5075
vn -0.3536 -0.9159 -0.1898
vn -0.0014 -0.8601 0.5102
vn 0.0585 -0.2644 0.9626
vn 0.0858 -0.2706 0.9589
vn 0.1356 -0.2866 0.9484
vn 0.1190 0.9750 0.1875
vn -0.3737 0.8966 0.2376
vn -0.3495 0.8384 -0.4183
vn 0.0222 0.8630 -0.5047
vn -0.2476 -0.0526 -0.9674
vn -0.3221 0.1821 -0.9290
vn -0.0132 0.8686 -0.4953
vn -0.0049 0.8697 -0.4935
vn -0.2427 0.3583 -0.9015
vn -0.2325 0.3625 -0.9025
vn 0.0062 0.8683 -0.4961
vn -0.3237 0.3457 -0.8807
vn 0.1161 0.9569 0.2662
vn 0.0902 0.9513 0.2948
vn 0.1303 0.9536 0.2715
vn -0.7510 0.4439 0.4888
vn -0.8268 0.5386 -0.1620
vn -0.4770 -0.0217 -0.8786
vn 0.2897 0.1601 -0.9436
vn 0.8504 0.4530 -0.2677
vn 0.3700 0.8039 -0.4657
vn -0.1489 0.2803 -0.9483
vn 0.8192 0.2956 0.4914
vn 0.5971 0.7283 0.3361
vn 0.3670 -0.8064 0.4637
vn 0.4423 -0.0791 0.8934
vn 0.6821 0.2380 0.6914
vn 0.8496 -0.4594 0.2591
vn 0.9888 0.1280 -0.0773
vn 0.7717 0.2275 0.5940
vn 0.0440 -0.9446 -0.3252
vn 0.4919 -0.7373 -0.4631
vn 0.5301 -0.1380 -0.8367
vn -0.7077 -0.5326 -0.4641
vn -0.8084 -0.4252 0.4070
vn -0.9771 0.2028 0.0643
vn -0.7028 -0.1485 -0.6957
vn -0.5873 0.1676 0.7918
vn -0.6872 0.3166 0.6539
vn -0.9682 -0.0853 0.2351
vn -0.6088 0.2884 0.7390
vn -0.7813 -0.3111 -0.5412
vn 0.9889 -0.1302 0.0718
vn 0.6161 -0.3967 -0.6804
vn 0.7056 0.2264 0.6714
vn 0.0607 0.9202 -0.3867
vn 0.3958 0.8592 -0.3243
vn 0.3511 0.7763 -0.5235
vn 0.0076 0.8622 -0.5064
vn 0.2612 0.6667 -0.6980
vn -0.0811 0.7796 -0.6210
vn -0.0059 0.8667 -0.4987
vn 0.0063 0.8616 -0.5076
vn -0.0576 0.7535 -0.6549
vn -0.0404 0.7364 -0.6753
vn 0.0018 0.8601 -0.5102
vn -0.0674 0.7721 -0.6319
vn -0.0189 0.9287 -0.3704
vn 0.0221 0.9311 -0.3642
vn 0.0280 0.9263 -0.3758
vn 0.0270 -0.8061 0.5911
vn -0.0099 -0.8612 0.5082
vn 0.3507 -0.8352 0.4236
vn 0.3693 -0.7108 0.5986
vn -0.1003 -0.9282 0.3582
vn 0.2976 -0.9283 0.2228
vn -0.0035 -0.8655 0.5009
vn -0.0742 -0.9541 0.2903
vn -0.0590 -0.9426 0.3287
vn 0.0052 -0.8698 0.4933
vn -0.0851 -0.9282 0.3622
vn -0.0063 -0.8684 0.4959
vn -0.0050 -0.7912 0.6115
vn 0.0215 -0.7816 0.6235
vn 0.0225 -0.7921 0.6099
vn 0.7689 -0.3476 0.5366
vn 0.8207 -0.5464 0.1670
vn 0.7642 -0.6429 -0.0521
vn -0.8565 -0.5155 -0.0259
vn -0.4857 -0.8636 0.1353
vn -0.3728 -0.7977 0.4740
vn -0.8441 -0.4626 0.2712
vn -0.3723 -0.6903 0.6204
vn -0.7151 -0.2811 0.6400
vn -0.3720 0.8097 -0.4540
vn -0.8435 0.4664 -0.2664
vn -0.7751 0.6253 0.0911
vn -0.4002 0.8739 -0.2761
vn -0.9897 -0.1267 0.0661
vn -0.8461 0.0509 0.5305
vn -0.4168 0.5651 -0.7120
vn -0.8119 0.2457 -0.5296
vn -0.9504 -0.2304 -0.2088
vn 0.8121 0.4170 -0.4081
vn 0.7103 0.2822 -0.6448
vn 0.9747 -0.2125 -0.0698
vn 0.8945 -0.3254 -0.3067
vn 0.8067 0.5879 -0.0595
vn 0.9293 -0.0055 0.3692
vn 0.9436 0.2771 0.1812
vn 0.9702 0.0614 -0.2346
vn 0.8709 -0.0540 -0.4884
vn -0.9349 -0.0162 -0.3545
vn -0.9891 0.1242 -0.0787
vn -0.8721 0.3246 0.3662
vn 0.2862 -0.0741 -0.9553
vn 0.4037 -0.2721 -0.8735
vn 0.4939 -0.6657 -0.5594
vn 0.0920 -0.9353 -0.3417
vn -0.3185 -0.8387 -0.4418
vn -0.2938 -0.8158 -0.4981
vn 0.1053 0.8992 0.4246
vn 0.0601 0.9110 0.4081
vn -0.5242 -0.2971 -0.7981
vn -0.4635 -0.2818 -0.8401
vn -0.4395 -0.7386 -0.5112
vn -0.6442 -0.4135 -0.6435
vn 0.1131 -0.3276 0.9380
vn 0.1125 -0.1710 0.9788
vn 0.1611 0.8845 0.4378
vn -0.3517 -0.8862 -0.3017
vn 0.2513 0.8514 0.4604
vn -0.4063 -0.8540 -0.3248
vn 0.1407 -0.1037 0.9846
vn 0.0083 -0.2554 0.9668
vn 0.1062 -0.0355 0.9937
vn 0.4203 0.5237 0.7410
vn 0.3149 0.7992 0.5119
vn 0.3309 0.2627 0.9064
vn -0.3769 0.2582 -0.8895
vn -0.0565 0.2285 -0.9719
vn 0.0207 -0.1044 0.9943
vn -0.1278 0.2315 0.9644
vn -0.3655 0.1960 -0.9099
vn 0.1998 0.9281 0.3143
vn -0.1789 0.8246 0.5367
vn -0.2287 0.4980 0.8365
vn -0.3026 0.0913 -0.9488
vn 0.4982 -0.4261 -0.7551
vn 0.1010 -0.1347 0.9857
vn 0.1404 -0.1238 0.9823
vn -0.2292 0.0320 -0.9729
vn -0.2746 -0.0415 -0.9607
vn -0.0313 0.9671 0.2526
vn -0.6008 -0.3196 -0.7327
vt 0.725006 0.573649
vt 0.729660 0.457268
vt 0.646571 0.469128
vt 0.645332 0.578625
vt 0.738530 0.350492
vt 0.663708 0.358661
vt 0.917219 0.446795
vt 0.910545 0.337476
vt 0.868295 0.339193
vt 0.875237 0.446509
vt 0.797261 0.344694
vt 0.799860 0.451572
vt 0.925025 0.560733
vt 0.885064 0.563371
vt 0.804992 0.568562
vt 0.394859 0.601697
vt 0.474434 0.607997
vt 0.475074 0.498517
vt 0.392137 0.485261
vt 0.459844 0.387783
vt 0.385045 0.378350
vt 0.204789 0.471668
vt 0.246759 0.472082
vt 0.255484 0.364897
vt 0.213281 0.362476
vt 0.322041 0.478398
vt 0.326417 0.371578
vt 0.195096 0.585455
vt 0.235005 0.588758
vt 0.314974 0.595279
vt 0.035580 0.644860
vt 0.041462 0.530789
vt 0.005955 0.510050
vt -0.000000 0.615003
vt 0.042262 0.410804
vt 0.007301 0.399489
vt 0.598090 0.376833
vt 0.598405 0.496635
vt 0.617941 0.485866
vt 0.617894 0.374572
vt 0.598606 0.616350
vt 0.617724 0.596850
vt 0.501660 0.482428
vt 0.501442 0.593414
vt 0.537612 0.614548
vt 0.537410 0.494831
vt 0.585658 0.499555
vt 0.585980 0.621801
vt 0.501613 0.371131
vt 0.537095 0.375028
vt 0.585279 0.377264
vt 0.129870 0.507481
vt 0.131198 0.396897
vt 0.107255 0.409451
vt 0.106462 0.529444
vt 0.059593 0.536836
vt 0.060231 0.414096
vt 0.621340 0.483772
vt 0.617941 0.602125
vt 0.053745 0.653565
vt 0.155187 0.582153
vt 0.162819 0.471254
vt 0.171077 0.360055
vt 0.964986 0.558095
vt 0.959202 0.447082
vt 0.952795 0.335758
vt 0.100587 0.643533
vt 0.092093 0.536163
vt 0.086248 0.652901
vt 0.092728 0.413420
vt 0.555161 0.498653
vt 0.554782 0.376362
vt 0.555483 0.620900
vt 0.723987 0.556994
vt 0.642759 0.562313
vt 0.666566 0.375121
vt 0.740345 0.367086
vt 0.869255 0.355862
vt 0.911267 0.354148
vt 0.798396 0.361348
vt 0.923974 0.544079
vt 0.883917 0.546719
vt 0.803925 0.551905
vt 0.396226 0.585049
vt 0.480175 0.591830
vt 0.382852 0.394920
vt 0.456377 0.404180
vt 0.212275 0.379133
vt 0.254227 0.381548
vt 0.324962 0.388214
vt 0.196425 0.568822
vt 0.236435 0.572126
vt 0.316360 0.578638
vt 0.040114 0.630160
vt 0.004835 0.600098
vt 0.003664 0.415346
vt 0.040466 0.426985
vt 0.598678 0.393468
vt 0.618434 0.391258
vt 0.615611 0.579984
vt 0.595803 0.600396
vt 0.541522 0.598795
vt 0.505526 0.576730
vt 0.585000 0.605135
vt 0.500654 0.387773
vt 0.536383 0.391624
vt 0.585498 0.393907
vt 0.108267 0.425584
vt 0.133105 0.412666
vt 0.059649 0.430457
vt 0.614847 0.586415
vt 0.055616 0.637625
vt 0.153666 0.565297
vt 0.170538 0.376731
vt 0.966808 0.541266
vt 0.953050 0.352441
vt 0.098613 0.628978
vt 0.086174 0.637003
vt 0.092880 0.429764
vt 0.554665 0.392994
vt 0.556378 0.604289
s 1
f 329/243/321 330/244/322 325/245/323 322/246/324
f 330/244/322 333/247/325 326/248/326 325/245/323
f 363/249/327 364/250/328 335/251/329 332/252/330
f 332/252/330 335/251/329 334/253/331 331/254/332
f 331/254/332 334/253/331 333/247/325 330/244/322
f 365/255/333 363/249/327 332/252/330 327/256/334
f 327/256/334 332/252/330 331/254/332 328/257/335
f 328/257/335 331/254/332 330/244/322 329/243/321
f 344/258/336 337/259/337 340/260/338 345/261/339
f 345/261/339 340/260/338 341/262/340 348/263/341
f 366/264/342 347/265/343 350/266/344 367/267/345
f 347/265/343 346/268/346 349/269/347 350/266/344
f 346/268/346 345/261/339 348/263/341 349/269/347
f 368/270/348 342/271/349 347/265/343 366/264/342
f 342/271/349 343/272/350 346/268/346 347/265/343
f 343/272/350 344/258/336 345/261/339 346/268/346
f 353/273/351 352/274/352 340/275/338 337/276/337
f 352/274/352 358/277/353 341/278/340 340/275/338
f 360/279/354 362/280/355 339/281/356 338/282/357
f 362/280/355 355/283/358 336/284/359 339/281/356
f 324/285/360 321/286/361 356/287/362 361/288/363
f 374/289/364 371/290/365 355/283/358 362/280/355
f 323/291/366 324/285/360 361/288/363 359/292/367
f 373/293/368 374/289/364 362/280/355 360/279/354
f 325/294/323 326/295/326 357/296/369 351/297/370
f 369/298/371 372/299/372 358/277/353 352/274/352
f 322/246/324 325/245/323 351/300/370 354/301/373
f 370/302/374 369/298/371 352/274/352 353/273/351
f 336/303/359 368/270/348 366/264/342 339/304/356
f 339/304/356 366/264/342 367/267/345 338/305/357
f 321/306/361 324/307/360 363/249/327 365/255/333
f 324/307/360 323/308/366 364/250/328 363/249/327
f 354/309/373 351/297/370 375/310/375 376/311/376
f 351/297/370 357/296/369 378/312/377 375/310/375
f 359/292/367 361/288/363 380/313/378 379/314/379
f 361/288/363 356/287/362 377/315/380 380/313/378
f 369/298/371 370/302/374 376/311/376 375/310/375
f 378/312/377 372/299/372 369/298/371 375/310/375
f 371/290/365 374/289/364 380/313/378 377/315/380
f 380/313/378 374/289/364 373/293/368 379/314/379
f 383/316/381 384/317/382 386/245/383 393/244/384
f 393/244/384 386/245/383 448/318/385 396/319/386
f 388/249/387 395/252/388 398/320/389 389/321/390
f 395/252/388 394/254/391 397/322/392 398/320/389
f 394/254/391 393/244/384 396/319/386 397/322/392
f 390/323/393 391/324/394 395/252/388 388/249/387
f 391/324/394 392/325/395 394/254/391 395/252/388
f 392/325/395 383/316/381 393/244/384 394/254/391
f 401/326/396 411/261/397 404/260/398 402/327/399
f 411/261/397 414/328/400 459/329/401 404/260/398
f 406/264/402 407/330/403 416/331/404 413/265/405
f 413/265/405 416/331/404 415/332/406 412/268/407
f 412/268/407 415/332/406 414/328/400 411/261/397
f 408/333/408 406/264/402 413/265/405 409/334/409
f 409/334/409 413/265/405 412/268/407 410/335/410
f 410/335/410 412/268/407 411/261/397 401/326/396
f 425/336/411 402/337/399 404/275/398 417/274/412
f 417/274/412 404/275/398 459/338/401 420/339/413
f 421/340/414 455/341/415 399/281/416 422/280/417
f 422/280/417 399/281/416 470/342/418 427/343/419
f 381/285/420 433/288/421 419/344/422 465/345/423
f 434/289/424 422/280/417 427/343/419 436/346/425
f 444/347/426 431/348/427 433/288/421 381/285/420
f 432/349/428 421/340/414 422/280/417 434/289/424
f 386/294/383 423/297/429 429/350/430 448/351/385
f 424/298/431 417/274/412 420/339/413 430/352/432
f 384/317/382 418/353/433 423/300/429 386/245/383
f 435/354/434 425/336/411 417/274/412 424/298/431
f 470/355/418 399/304/416 406/264/402 408/333/408
f 399/304/416 455/356/415 407/330/403 406/264/402
f 465/357/423 390/323/393 388/249/387 381/307/420
f 381/307/420 388/249/387 389/321/390 444/358/426
f 418/359/433 426/360/435 437/310/436 423/297/429
f 423/297/429 437/310/436 438/361/437 429/350/430
f 431/348/427 439/362/438 440/313/439 433/288/421
f 433/288/421 440/313/439 428/363/440 419/344/422
f 424/298/431 437/310/436 426/360/435 435/354/434
f 438/361/437 437/310/436 424/298/431 430/352/432
f 436/346/425 428/363/440 440/313/439 434/289/424
f 440/313/439 439/362/438 432/349/428 434/289/424
f 378/312/377 357/296/369 473/296/441 479/312/442
f 341/278/340 358/277/353 466/277/443 405/278/444
f 367/267/345 350/266/344 462/266/445 454/267/446
f 365/255/333 327/256/334 446/256/447 445/255/448
f 359/292/367 379/314/379 480/314/449 475/292/450
f 360/279/354 338/282/357 403/282/451 467/279/452
f 368/270/348 336/303/359 400/303/453 456/270/454
f 327/256/334 328/257/335 447/257/455 446/256/447
f 348/263/341 341/262/340 405/262/444 460/263/456
f 328/257/335 329/243/321 441/243/457 447/257/455
f 349/269/347 348/263/341 460/263/456 461/269/458
f 337/259/337 344/258/336 452/258/459 453/259/460
f 350/266/344 349/269/347 461/269/458 462/266/445
f 353/273/351 337/276/337 453/276/460 468/273/461
f 354/309/373 376/311/376 469/311/462 463/309/463
f 370/302/374 353/273/351 468/273/461 477/302/464
f 326/248/326 333/247/325 449/247/465 387/248/466
f 376/311/376 370/302/374 477/302/464 469/311/462
f 336/284/359 355/283/358 471/283/467 400/284/453
f 355/283/358 371/290/365 478/290/468 471/283/467
f 333/247/325 334/253/331 450/253/469 449/247/465
f 329/243/321 322/246/324 442/246/470 441/243/457
f 338/305/357 367/267/345 454/267/446 403/305/451
f 377/315/380 356/287/362 464/287/471 472/315/472
f 334/253/331 335/251/329 451/251/473 450/253/469
f 372/299/372 378/312/377 479/312/442 474/299/474
f 342/271/349 368/270/348 456/270/454 457/271/475
f 357/296/369 326/295/326 387/295/466 473/296/441
f 343/272/350 342/271/349 457/271/475 458/272/476
f 358/277/353 372/299/372 474/299/474 466/277/443
f 335/251/329 364/250/328 443/250/477 451/251/473
f 371/290/365 377/315/380 472/315/472 478/290/468
f 344/258/336 343/272/350 458/272/476 452/258/459
f 323/291/366 359/292/367 475/292/450 385/291/478
f 322/246/324 354/301/373 463/301/463 442/246/470
f 321/306/361 365/255/333 445/255/448 382/306/479
f 379/314/379 373/293/368 476/293/480 480/314/449
f 373/293/368 360/279/354 467/279/452 476/293/480
f 356/287/362 321/286/361 382/286/479 464/287/471
f 364/250/328 323/308/366 385/308/478 443/250/477
f 384/317/382 383/316/381 441/243/457 442/246/470
f 444/358/426 389/321/390 443/250/477 385/308/478
f 391/324/394 390/323/393 445/255/448 446/256/447
f 392/325/395 391/324/394 446/256/447 447/257/455
f 383/316/381 392/325/395 447/257/455 441/243/457
f 396/319/386 448/318/385 387/248/466 449/247/465
f 397/322/392 396/319/386 449/247/465 450/253/469
f 398/320/389 397/322/392 450/253/469 451/251/473
f 401/326/396 402/327/399 453/259/460 452/258/459
f 407/330/403 455/356/415 403/305/451 454/267/446
f 408/333/408 409/334/409 457/271/475 456/270/454
f 409/334/409 410/335/410 458/272/476 457/271/475
f 410/335/410 401/326/396 452/258/459 458/272/476
f 459/329/401 414/328/400 460/263/456 405/262/444
f 414/328/400 415/332/406 461/269/458 460/263/456
f 415/332/406 416/331/404 462/266/445 461/269/458
f 418/353/433 384/317/382 442/246/470 463/301/463
f 465/345/423 419/344/422 464/287/471 382/286/479
f 420/339/413 459/338/401 405/278/444 466/277/443
f 455/341/415 421/340/414 467/279/452 403/282/451
f 402/337/399 425/336/411 468/273/461 453/276/460
f 426/360/435 418/359/433 463/309/463 469/311/462
f 427/343/419 470/342/418 400/284/453 471/283/467
f 419/344/422 428/363/440 472/315/472 464/287/471
f 448/351/385 429/350/430 473/296/441 387/295/466
f 430/352/432 420/339/413 466/277/443 474/299/474
f 431/348/427 444/347/426 385/291/478 475/292/450
f 421/340/414 432/349/428 476/293/480 467/279/452
f 389/321/390 398/320/389 451/251/473 443/250/477
f 390/323/393 465/357/423 382/306/479 445/255/448
f 416/331/404 407/330/403 454/267/446 462/266/445
f 470/355/418 408/333/408 456/270/454 400/303/453
f 425/336/411 435/354/434 477/302/464 468/273/461
f 436/346/425 427/343/419 471/283/467 478/290/468
f 429/350/430 438/361/437 479/312/442 473/296/441
f 439/362/438 431/348/427 475/292/450 480/314/449
f 435/354/434 426/360/435 469/311/462 477/302/464
f 438/361/437 430/352/432 474/299/474 479/312/442
f 428/363/440 436/346/425 478/290/468 472/315/472
f 432/349/428 439/362/438 480/314/449 476/293/480
