# Blender 4.0.1
# www.blender.org
o Bomber_Swizzle_Glow
v 1.618897 -0.800483 0.534865
v 1.618897 -0.680754 0.680755
v 1.618897 0.962732 0.000000
v 1.618897 0.944234 -0.187820
v 1.618897 -0.889449 0.368422
v 1.618897 0.944233 0.187820
v 1.618897 -0.944234 0.187820
v 1.618897 0.889448 0.368422
v 1.618897 -0.962732 0.000000
v 1.618897 0.800483 0.534865
v 1.618897 -0.944234 -0.187820
v 1.618897 0.680754 0.680754
v 1.618897 -0.889449 -0.368422
v 1.618897 0.534865 0.800483
v 1.618897 -0.800483 -0.534865
v 1.618897 0.368422 0.889448
v 1.618897 0.187820 -0.944234
v 1.618897 -0.000000 -0.962732
v 1.618897 -0.680754 -0.680755
v 1.618897 0.187820 0.944234
v 1.618897 0.368422 -0.889448
v 1.618897 -0.534865 -0.800483
v 1.618897 -0.000000 0.962732
v 1.618897 0.534865 -0.800483
v 1.618897 -0.368422 -0.889448
v 1.618897 -0.187820 0.944234
v 1.618897 0.680754 -0.680754
v 1.618897 -0.187820 -0.944234
v 1.618897 -0.368422 0.889448
v 1.618897 0.800483 -0.534865
v 1.618897 -0.534865 0.800483
v 1.618897 0.889448 -0.368422
v 1.418771 1.018658 -0.421942
v 1.418771 1.081402 -0.215104
v 1.418771 -0.612565 0.916768
v 1.418771 -0.779647 0.779647
v 1.418771 0.916768 -0.612565
v 1.418771 -0.421942 1.018658
v 1.418771 -0.215104 -1.081402
v 1.418771 0.000000 -1.102587
v 1.418771 0.779647 -0.779647
v 1.418771 -0.215104 1.081402
v 1.418771 -0.421942 -1.018658
v 1.418771 0.612565 -0.916768
v 1.418771 0.000000 1.102587
v 1.418771 -0.612565 -0.916768
v 1.418771 0.421942 -1.018658
v 1.418771 0.215104 1.081402
v 1.418771 -0.779647 -0.779647
v 1.418771 0.215104 -1.081402
v 1.418771 0.421942 1.018658
v 1.418771 -0.916768 -0.612565
v 1.418771 0.612565 0.916768
v 1.418771 -1.018658 -0.421942
v 1.418771 0.779647 0.779647
v 1.418771 -1.081402 -0.215104
v 1.418771 0.916768 0.612565
v 1.418771 -1.102587 0.000000
v 1.418771 1.018658 0.421942
v 1.418771 -1.081402 0.215104
v 1.418771 1.081401 0.215104
v 1.418771 -1.018658 0.421942
v 1.418771 1.102587 -0.000000
v 1.418771 -0.916768 0.612565
v 1.430515 1.034184 -0.428373
v 1.630641 0.904974 -0.374853
v 1.430515 -0.621901 0.930741
v 1.630641 -0.544202 0.814456
v 1.430515 0.930741 -0.621901
v 1.630641 0.814456 -0.544202
v 1.430515 -0.428373 1.034184
v 1.630641 -0.374853 0.904974
v 1.430515 -0.218383 -1.097884
v 1.630641 -0.191098 -0.960716
v 1.430515 0.791530 -0.791530
v 1.630641 0.692637 -0.692637
v 1.430515 -0.218383 1.097884
v 1.630641 -0.191098 0.960716
v 1.430515 -0.428373 -1.034184
v 1.630641 -0.374853 -0.904974
v 1.430515 0.621901 -0.930741
v 1.630641 0.544202 -0.814455
v 1.430515 -0.000000 1.119393
v 1.630641 -0.000000 0.979537
v 1.430515 -0.621901 -0.930741
v 1.630641 -0.544202 -0.814456
v 1.430515 0.428373 -1.034184
v 1.630641 0.374853 -0.904974
v 1.430515 0.218383 1.097884
v 1.630641 0.191098 0.960716
v 1.430515 -0.791530 -0.791530
v 1.630641 -0.692637 -0.692638
v 1.430515 0.218383 -1.097884
v 1.630641 0.191098 -0.960716
v 1.430515 0.428373 1.034184
v 1.630641 0.374853 0.904974
v 1.430515 -0.930741 -0.621901
v 1.630641 -0.814455 -0.544202
v 1.430515 0.621901 0.930741
v 1.630641 0.544202 0.814455
v 1.430515 -1.034184 -0.428373
v 1.630641 -0.904974 -0.374853
v 1.430515 0.791530 0.791530
v 1.630641 0.692637 0.692637
v 1.430515 -1.097884 -0.218383
v 1.630641 -0.960716 -0.191098
v 1.430515 0.930741 0.621901
v 1.630641 0.814456 0.544202
v 1.430515 -1.119392 0.000000
v 1.630641 -0.979537 0.000000
v 1.430515 1.034184 0.428373
v 1.630641 0.904974 0.374853
v 1.430515 -1.097884 0.218383
v 1.630641 -0.960716 0.191098
v 1.430515 1.097884 0.218383
v 1.630641 0.960715 0.191098
v 1.430515 -1.034184 0.428373
v 1.630641 -0.904974 0.374853
v 1.430515 1.119392 -0.000000
v 1.630641 0.979537 0.000000
v 1.430515 -0.930741 0.621901
v 1.630641 -0.814455 0.544202
v 1.594260 -0.724733 0.710442
v 1.594260 1.005234 -0.196011
v 1.594260 -0.000000 -1.004717
v 1.430515 1.097884 -0.218383
v 1.430515 -0.791530 0.791530
v 1.430515 -0.000000 -1.119393
v 1.594260 -0.852196 0.558191
v 1.630641 -0.692637 0.692638
v 1.594261 1.024927 0.000000
v 1.630641 0.960716 -0.191098
v 1.594260 -0.946909 0.384489
v 1.594260 1.005234 0.196011
v 1.594260 -1.005234 0.196010
v 1.594261 0.946909 0.384489
v 1.594260 -1.024927 0.000000
v 1.594261 0.852196 0.558191
v 1.594260 -1.005234 -0.196010
v 1.594260 0.724733 0.710442
v 1.594260 -0.946909 -0.384489
v 1.594260 0.569419 0.835392
v 1.594260 -0.852196 -0.558191
v 1.594260 0.392223 0.928237
v 1.594260 0.199954 -0.985412
v 1.630641 -0.000000 -0.979537
v 1.594260 -0.724733 -0.710442
v 1.594260 0.199954 0.985412
v 1.594260 0.392223 -0.928237
v 1.594260 -0.569419 -0.835392
v 1.594260 -0.000000 1.004717
v 1.594260 0.569419 -0.835392
v 1.594260 -0.392223 -0.928237
v 1.594260 -0.199953 0.985412
v 1.594260 0.724733 -0.710442
v 1.594260 -0.199953 -0.985412
v 1.594260 -0.392223 0.928237
v 1.594261 0.852196 -0.558191
v 1.594260 -0.569419 0.835392
v 1.594261 0.946909 -0.384489
v 1.466895 1.031256 -0.418737
v 1.466895 1.094776 -0.213470
v 1.466895 -0.620141 0.909805
v 1.466895 -0.789289 0.773725
v 1.466895 0.928106 -0.607912
v 1.466895 -0.427160 1.010921
v 1.466895 -0.217764 -1.073188
v 1.466895 -0.000000 -1.094213
v 1.466895 0.789289 -0.773725
v 1.466895 -0.217764 1.073188
v 1.466895 -0.427160 -1.010921
v 1.466895 0.620140 -0.909805
v 1.466895 -0.000000 1.094213
v 1.466895 -0.620141 -0.909805
v 1.466895 0.427160 -1.010921
v 1.466895 0.217764 1.073188
v 1.466895 -0.789289 -0.773725
v 1.466895 0.217764 -1.073188
v 1.466895 0.427160 1.010921
v 1.466895 -0.928106 -0.607912
v 1.466895 0.620140 0.909805
v 1.466895 -1.031256 -0.418737
v 1.466895 0.789289 0.773725
v 1.466895 -1.094776 -0.213470
v 1.466895 0.928106 0.607912
v 1.466895 -1.116223 0.000000
v 1.466895 1.031256 0.418737
v 1.466895 -1.094776 0.213470
v 1.466895 1.094775 0.213470
v 1.466895 -1.031256 0.418737
v 1.466895 1.116223 -0.000000
v 1.466895 -0.928106 0.607912
vn 0.1827 -0.9083 0.3762
vn 0.1827 -0.9643 0.1918
vn -0.9914 -0.1286 0.0256
vn -0.9914 -0.1211 0.0502
vn 0.1827 0.5462 -0.8175
vn 0.1827 0.6952 -0.6952
vn -0.9914 0.0927 -0.0927
vn -0.9914 0.0729 -0.1090
vn 0.1827 -0.8175 0.5462
vn -0.9914 -0.1090 0.0729
vn 0.1827 0.3762 -0.9083
vn -0.9914 0.0502 -0.1211
vn 0.1827 0.1918 0.9643
vn 0.1827 -0.0000 0.9832
vn -0.9914 -0.0000 0.1311
vn -0.9914 0.0256 0.1286
vn 0.1827 -0.6952 0.6952
vn -0.9914 -0.0927 0.0927
vn 0.1827 0.1918 -0.9643
vn -0.9914 0.0256 -0.1286
vn 0.1827 0.3762 0.9083
vn -0.9914 0.0502 0.1211
vn 0.1827 -0.5462 0.8175
vn -0.9914 -0.0729 0.1090
vn 0.1827 -0.0000 -0.9832
vn -0.9914 -0.0000 -0.1311
vn 0.1827 0.5462 0.8175
vn -0.9914 0.0729 0.1090
vn 0.1827 -0.3762 0.9083
vn -0.9914 -0.0502 0.1211
vn 0.1827 -0.1918 -0.9643
vn -0.9914 -0.0256 -0.1286
vn 0.1827 0.6952 0.6952
vn -0.9914 0.0927 0.0927
vn 0.1827 -0.1918 0.9643
vn -0.9914 -0.0256 0.1286
vn 0.1827 -0.3762 -0.9083
vn -0.9914 -0.0502 -0.1211
vn 0.1827 0.8175 0.5462
vn -0.9914 0.1090 0.0729
vn 0.1827 -0.5462 -0.8175
vn -0.9914 -0.0729 -0.1090
vn 0.1827 0.9083 0.3762
vn -0.9914 0.1211 0.0502
vn 0.1827 -0.6952 -0.6952
vn -0.9914 -0.0927 -0.0927
vn 0.1827 0.9643 0.1918
vn -0.9914 0.1286 0.0256
vn 0.1827 -0.8175 -0.5462
vn -0.9914 -0.1090 -0.0729
vn 0.1827 0.9832 -0.0000
vn -0.9914 0.1311 -0.0000
vn 0.1827 -0.9083 -0.3762
vn -0.9914 -0.1211 -0.0502
vn 0.1827 0.9643 -0.1918
vn -0.9914 0.1286 -0.0256
vn 0.1827 -0.9643 -0.1918
vn -0.9914 -0.1286 -0.0256
vn 0.1827 0.9083 -0.3762
vn -0.9914 0.1211 -0.0502
vn 0.1827 -0.9832 -0.0000
vn -0.9914 -0.1311 -0.0000
vn 0.1827 0.8175 -0.5462
vn -0.9914 0.1090 -0.0729
vn 0.6712 0.6840 -0.2857
vn 0.3816 0.8549 -0.3513
vn 0.3541 0.9175 -0.1810
vn 0.6799 0.7190 -0.1442
vn 0.6160 -0.4360 0.6561
vn 0.5100 -0.4798 0.7139
vn 0.4675 -0.6272 0.6230
vn 0.6379 -0.5428 0.5463
vn 0.6569 0.6255 -0.4210
vn 0.4220 0.7555 -0.5011
vn 0.5949 -0.3064 0.7431
vn 0.5430 -0.3227 0.7753
vn 0.5793 -0.1585 -0.7996
vn 0.5634 -0.1619 -0.8102
vn 0.5702 -0.0000 -0.8215
vn 0.5735 -0.0000 -0.8192
vn 0.6379 0.5428 -0.5463
vn 0.4675 0.6271 -0.6230
vn 0.5793 -0.1585 0.7996
vn 0.5634 -0.1619 0.8102
vn 0.5949 -0.3064 -0.7431
vn 0.5430 -0.3227 -0.7753
vn 0.6160 0.4360 -0.6561
vn 0.5100 0.4798 -0.7139
vn 0.5735 -0.0000 0.8192
vn 0.5702 -0.0000 0.8215
vn 0.6160 -0.4360 -0.6561
vn 0.5100 -0.4798 -0.7139
vn 0.5949 0.3064 -0.7431
vn 0.5430 0.3227 -0.7753
vn 0.5793 0.1585 0.7996
vn 0.5634 0.1619 0.8102
vn 0.6379 -0.5428 -0.5463
vn 0.4675 -0.6271 -0.6230
vn 0.5793 0.1585 -0.7996
vn 0.5634 0.1619 -0.8102
vn 0.5949 0.3064 0.7431
vn 0.5430 0.3227 0.7753
vn 0.6569 -0.6255 -0.4210
vn 0.4220 -0.7555 -0.5011
vn 0.6160 0.4360 0.6561
vn 0.5100 0.4798 0.7139
vn 0.6712 -0.6840 -0.2857
vn 0.3816 -0.8549 -0.3513
vn 0.6379 0.5428 0.5463
vn 0.4675 0.6271 0.6230
vn 0.6799 -0.7190 -0.1442
vn 0.3541 -0.9175 -0.1810
vn 0.6569 0.6255 0.4210
vn 0.4220 0.7555 0.5011
vn 0.6828 -0.7306 -0.0000
vn 0.3445 -0.9388 -0.0000
vn 0.6712 0.6840 0.2857
vn 0.3816 0.8549 0.3513
vn 0.6799 -0.7190 0.1442
vn 0.3541 -0.9175 0.1810
vn 0.6799 0.7190 0.1442
vn 0.3541 0.9175 0.1810
vn 0.6712 -0.6840 0.2857
vn 0.3816 -0.8549 0.3513
vn 0.6828 0.7306 -0.0000
vn 0.3445 0.9388 -0.0000
vn 0.6569 -0.6255 0.4210
vn 0.4220 -0.7555 0.5011
vn -0.1992 -0.3678 -0.9083
vn -0.2326 -0.5313 -0.8146
vn 0.9776 0.0364 0.2075
vn 0.9761 -0.0000 0.2171
vn -0.2326 0.5313 -0.8146
vn -0.1992 0.3678 -0.9083
vn 0.9813 0.0660 -0.1810
vn 0.9860 0.0842 -0.1438
vn -0.1715 -0.0000 0.9852
vn -0.1785 0.1879 0.9658
vn 0.9860 -0.0842 -0.1438
vn 0.9813 -0.0660 -0.1810
vn -0.2761 -0.6709 -0.6883
vn 0.9776 -0.0364 0.2075
vn -0.1785 0.1879 -0.9658
vn 0.9905 0.0903 -0.1039
vn -0.1992 0.3678 0.9083
vn 0.9776 -0.0364 -0.2075
vn -0.3239 -0.7799 -0.5355
vn 0.9813 -0.0660 0.1810
vn -0.1715 -0.0000 -0.9852
vn 0.9939 0.0873 -0.0680
vn 0.9905 -0.0903 0.1039
vn 0.9939 -0.0873 0.0680
vn -0.2326 0.5313 0.8146
vn 0.9761 -0.0000 -0.2171
vn 0.9971 0.0738 -0.0176
vn 0.9975 0.0712 -0.0000
vn -0.3675 -0.8555 -0.3646
vn 0.9860 -0.0842 0.1438
vn 0.9960 -0.0802 0.0394
vn -0.2761 0.6709 0.6883
vn 0.9960 0.0802 -0.0394
vn 0.9971 0.0738 0.0176
vn -0.3980 -0.8987 -0.1841
vn 0.9971 -0.0738 0.0176
vn -0.3239 0.7799 0.5355
vn 0.9960 0.0802 0.0394
vn -0.4090 -0.9125 -0.0000
vn 0.9975 -0.0712 -0.0000
vn -0.3676 0.8555 0.3646
vn 0.9939 0.0873 0.0680
vn -0.3980 -0.8987 0.1841
vn 0.9971 -0.0738 -0.0176
vn -0.3980 0.8987 0.1841
vn -0.3980 0.8987 -0.1841
vn -0.3675 0.8555 -0.3646
vn 0.9905 0.0903 0.1039
vn -0.3675 -0.8555 0.3646
vn -0.2761 -0.6709 0.6883
vn -0.2326 -0.5313 0.8146
vn 0.9960 -0.0802 -0.0394
vn -0.4090 0.9125 -0.0000
vn -0.3239 0.7799 -0.5355
vn 0.9860 0.0842 0.1438
vn -0.3239 -0.7799 0.5355
vn -0.1992 -0.3678 0.9083
vn 0.9939 -0.0873 -0.0680
vn -0.1785 -0.1879 -0.9658
vn 0.9813 0.0660 0.1810
vn -0.2761 0.6709 -0.6883
vn 0.9776 0.0364 -0.2075
vn -0.1785 -0.1879 0.9658
vn 0.9905 -0.0903 -0.1039
vt 0.312677 0.744059
vt 0.333723 0.744102
vt 0.330473 0.717646
vt 0.306387 0.717596
vt 0.160967 0.782790
vt 0.179300 0.784655
vt 0.193232 0.762407
vt 0.172251 0.760273
vt 0.293683 0.744702
vt 0.284651 0.718332
vt 0.140412 0.780535
vt 0.148728 0.757692
vt 0.886629 0.283013
vt 0.908513 0.277508
vt 0.902222 0.250192
vt 0.877177 0.256492
vt 0.277480 0.746006
vt 0.266103 0.719825
vt 0.118432 0.777976
vt 0.123575 0.754764
vt 0.865687 0.291884
vt 0.853211 0.266644
vt 0.971503 0.282599
vt 0.988897 0.291278
vt 0.994218 0.265955
vt 0.974304 0.256018
vt 0.095872 0.775213
vt 0.097758 0.751602
vt 0.846499 0.303779
vt 0.831254 0.280256
vt 0.951791 0.277295
vt 0.951746 0.249948
vt 0.073599 0.772351
vt 0.072270 0.748326
vt 0.829804 0.318240
vt 0.812149 0.296805
vt 0.930525 0.275575
vt 0.927410 0.247981
vt 0.052469 0.769500
vt 0.048089 0.745064
vt 0.816244 0.334712
vt 0.796630 0.315655
vt 0.033293 0.766770
vt 0.026137 0.741939
vt 0.806338 0.352561
vt 0.785295 0.336081
vt 0.440616 0.753663
vt 0.456513 0.756924
vt 0.470996 0.732320
vt 0.452797 0.728586
vt 0.800469 0.371102
vt 0.778579 0.357299
vt 0.421858 0.750718
vt 0.431331 0.725216
vt 0.798861 0.389623
vt 0.776739 0.378501
vt 0.400966 0.748203
vt 0.407422 0.722338
vt 0.602473 0.796205
vt 0.624843 0.795926
vt 0.622008 0.778875
vt 0.596397 0.779194
vt 0.378741 0.746215
vt 0.381989 0.720064
vt 0.581247 0.794964
vt 0.572106 0.777773
vt 0.356039 0.744831
vt 0.356010 0.718479
vt 0.561990 0.792250
vt 0.550062 0.774667
vt 0.194722 0.786059
vt 0.210886 0.764014
vt 0.311539 0.739263
vt 0.307529 0.722392
vt 0.331060 0.722440
vt 0.333132 0.739308
vt 0.163013 0.778710
vt 0.170208 0.764354
vt 0.190706 0.766439
vt 0.181823 0.780623
vt 0.292048 0.739923
vt 0.286289 0.723110
vt 0.141921 0.776395
vt 0.147223 0.761832
vt 0.884918 0.278206
vt 0.878892 0.261298
vt 0.903360 0.255142
vt 0.907371 0.272558
vt 0.275420 0.741261
vt 0.268164 0.724570
vt 0.119366 0.773770
vt 0.122645 0.758971
vt 0.863428 0.287310
vt 0.855474 0.271217
vt 0.972012 0.277782
vt 0.973798 0.260835
vt 0.993255 0.270545
vt 0.989860 0.286689
vt 0.096216 0.770934
vt 0.097418 0.755881
vt 0.843738 0.299515
vt 0.834018 0.284518
vt 0.951784 0.272340
vt 0.951756 0.254904
vt 0.073360 0.767997
vt 0.072512 0.752680
vt 0.826606 0.314354
vt 0.815349 0.300688
vt 0.929962 0.270575
vt 0.927976 0.252981
vt 0.051677 0.765072
vt 0.048884 0.749493
vt 0.812690 0.331257
vt 0.800186 0.319107
vt 0.031998 0.762271
vt 0.027432 0.746439
vt 0.802526 0.349573
vt 0.789109 0.339066
vt 0.442825 0.749119
vt 0.450591 0.733131
vt 0.468372 0.736779
vt 0.459136 0.752465
vt 0.796503 0.368599
vt 0.782546 0.359799
vt 0.423576 0.746097
vt 0.429616 0.729838
vt 0.794852 0.387606
vt 0.780748 0.380518
vt 0.402137 0.743516
vt 0.406254 0.727026
vt 0.601374 0.793122
vt 0.597500 0.782277
vt 0.622523 0.781965
vt 0.624328 0.792836
vt 0.379332 0.741476
vt 0.381402 0.724803
vt 0.579592 0.791849
vt 0.573764 0.780889
vt 0.356036 0.740055
vt 0.356017 0.723255
vt 0.559830 0.789064
vt 0.552222 0.777853
vt 0.207958 0.768009
vt 0.197650 0.782064
s 1
f 32/1/1 4/2/2 34/3/3 33/4/4
f 31/5/5 2/6/6 36/7/7 35/8/8
f 30/9/9 32/1/1 33/4/4 37/10/10
f 29/11/11 31/5/5 35/8/8 38/12/12
f 28/13/13 18/14/14 40/15/15 39/16/16
f 27/17/17 30/9/9 37/10/10 41/18/18
f 26/19/19 29/11/11 38/12/12 42/20/20
f 25/21/21 28/13/13 39/16/16 43/22/22
f 24/23/23 27/24/17 41/25/18 44/26/24
f 23/27/25 26/19/19 42/20/20 45/28/26
f 22/29/27 25/21/21 43/22/22 46/30/28
f 21/31/29 24/23/23 44/26/24 47/32/30
f 20/33/31 23/27/25 45/28/26 48/34/32
f 19/35/33 22/29/27 46/30/28 49/36/34
f 17/37/35 21/31/29 47/32/30 50/38/36
f 16/39/37 20/33/31 48/34/32 51/40/38
f 15/41/39 19/35/33 49/36/34 52/42/40
f 18/14/14 17/37/35 50/38/36 40/15/15
f 14/43/41 16/39/37 51/40/38 53/44/42
f 13/45/43 15/41/39 52/42/40 54/46/44
f 12/47/45 14/48/41 53/49/42 55/50/46
f 11/51/47 13/45/43 54/46/44 56/52/48
f 10/53/49 12/47/45 55/50/46 57/54/50
f 9/55/51 11/51/47 56/52/48 58/56/52
f 8/57/53 10/53/49 57/54/50 59/58/54
f 7/59/55 9/60/51 58/61/52 60/62/56
f 6/63/57 8/57/53 59/58/54 61/64/58
f 5/65/59 7/59/55 60/62/56 62/66/60
f 3/67/61 6/63/57 61/64/58 63/68/62
f 1/69/63 5/65/59 62/66/60 64/70/64
f 4/2/2 3/67/61 63/68/62 34/3/3
f 2/6/6 1/71/63 64/72/64 36/7/7
f 160/73/65 161/74/66 162/75/67 124/76/68
f 159/77/69 163/78/70 164/79/71 123/80/72
f 158/81/73 165/82/74 161/74/66 160/73/65
f 157/83/75 166/84/76 163/78/70 159/77/69
f 156/85/77 167/86/78 168/87/79 125/88/80
f 155/89/81 169/90/82 165/82/74 158/81/73
f 154/91/83 170/92/84 166/84/76 157/83/75
f 153/93/85 171/94/86 167/86/78 156/85/77
f 152/95/87 172/96/88 169/97/82 155/98/81
f 151/99/89 173/100/90 170/92/84 154/91/83
f 150/101/91 174/102/92 171/94/86 153/93/85
f 149/103/93 175/104/94 172/96/88 152/95/87
f 148/105/95 176/106/96 173/100/90 151/99/89
f 147/107/97 177/108/98 174/102/92 150/101/91
f 145/109/99 178/110/100 175/104/94 149/103/93
f 144/111/101 179/112/102 176/106/96 148/105/95
f 143/113/103 180/114/104 177/108/98 147/107/97
f 125/88/80 168/87/79 178/110/100 145/109/99
f 142/115/105 181/116/106 179/112/102 144/111/101
f 141/117/107 182/118/108 180/114/104 143/113/103
f 140/119/109 183/120/110 181/121/106 142/122/105
f 139/123/111 184/124/112 182/118/108 141/117/107
f 138/125/113 185/126/114 183/120/110 140/119/109
f 137/127/115 186/128/116 184/124/112 139/123/111
f 136/129/117 187/130/118 185/126/114 138/125/113
f 135/131/119 188/132/120 186/133/116 137/134/115
f 134/135/121 189/136/122 187/130/118 136/129/117
f 133/137/123 190/138/124 188/132/120 135/131/119
f 131/139/125 191/140/126 189/136/122 134/135/121
f 129/141/127 192/142/128 190/138/124 133/137/123
f 124/76/68 162/75/67 191/140/126 131/139/125
f 123/80/72 164/79/71 192/143/128 129/144/127
f 46/30/28 43/22/22 79/22/129 85/30/130
f 23/27/25 20/33/31 90/33/131 84/27/132
f 47/32/30 44/26/24 81/26/133 87/32/134
f 24/23/23 21/31/29 88/31/135 82/23/136
f 48/34/32 45/28/26 83/28/137 89/34/138
f 25/21/21 22/29/27 86/29/139 80/21/140
f 49/36/34 46/30/28 85/30/130 91/36/141
f 26/19/19 23/27/25 84/27/132 78/19/142
f 50/38/36 47/32/30 87/32/134 93/38/143
f 27/24/17 24/23/23 82/23/136 76/24/144
f 51/40/38 48/34/32 89/34/138 95/40/145
f 28/13/13 25/21/21 80/21/140 74/13/146
f 52/42/40 49/36/34 91/36/141 97/42/147
f 29/11/11 26/19/19 78/19/142 72/11/148
f 40/15/15 50/38/36 93/38/143 128/15/149
f 30/9/9 27/17/17 76/17/144 70/9/150
f 1/71/63 2/6/6 130/6/151 122/71/152
f 53/44/42 51/40/38 95/40/145 99/44/153
f 18/14/14 28/13/13 74/13/146 146/14/154
f 3/67/61 4/2/2 132/2/155 120/67/156
f 54/46/44 52/42/40 97/42/147 101/46/157
f 31/5/5 29/11/11 72/11/148 68/5/158
f 5/65/59 1/69/63 122/69/152 118/65/159
f 55/50/46 53/49/42 99/49/153 103/50/160
f 32/1/1 30/9/9 70/9/150 66/1/161
f 6/63/57 3/67/61 120/67/156 116/63/162
f 56/52/48 54/46/44 101/46/157 105/52/163
f 2/6/6 31/5/5 68/5/158 130/6/151
f 7/59/55 5/65/59 118/65/159 114/59/164
f 57/54/50 55/50/46 103/50/160 107/54/165
f 4/2/2 32/1/1 66/1/161 132/2/155
f 8/57/53 6/63/57 116/63/162 112/57/166
f 58/56/52 56/52/48 105/52/163 109/56/167
f 9/60/51 7/59/55 114/59/164 110/60/168
f 59/58/54 57/54/50 107/54/165 111/58/169
f 10/53/49 8/57/53 112/57/166 108/53/170
f 60/62/56 58/61/52 109/61/167 113/62/171
f 11/51/47 9/55/51 110/55/168 106/51/172
f 61/64/58 59/58/54 111/58/169 115/64/173
f 33/4/4 34/3/3 126/3/174 65/4/175
f 12/47/45 10/53/49 108/53/170 104/47/176
f 62/66/60 60/62/56 113/62/171 117/66/177
f 35/8/8 36/7/7 127/7/178 67/8/179
f 13/45/43 11/51/47 106/51/172 102/45/180
f 63/68/62 61/64/58 115/64/173 119/68/181
f 37/10/10 33/4/4 65/4/175 69/10/182
f 14/48/41 12/47/45 104/47/176 100/48/183
f 64/70/64 62/66/60 117/66/177 121/70/184
f 38/12/12 35/8/8 67/8/179 71/12/185
f 15/41/39 13/45/43 102/45/180 98/41/186
f 34/3/3 63/68/62 119/68/181 126/3/174
f 39/16/16 40/15/15 128/15/149 73/16/187
f 16/39/37 14/43/41 100/43/183 96/39/188
f 36/7/7 64/72/64 121/72/184 127/7/178
f 41/18/18 37/10/10 69/10/182 75/18/189
f 17/37/35 18/14/14 146/14/154 94/37/190
f 42/20/20 38/12/12 71/12/185 77/20/191
f 19/35/33 15/41/39 98/41/186 92/35/192
f 43/22/22 39/16/16 73/16/187 79/22/129
f 20/33/31 16/39/37 96/39/188 90/33/131
f 44/26/24 41/25/18 75/25/189 81/26/133
f 21/31/29 17/37/35 94/37/190 88/31/135
f 45/28/26 42/20/20 77/20/191 83/28/137
f 22/29/27 19/35/33 92/35/192 86/29/139
f 123/80/72 129/144/127 122/71/152 130/6/151
f 124/76/68 131/139/125 120/67/156 132/2/155
f 129/141/127 133/137/123 118/65/159 122/69/152
f 131/139/125 134/135/121 116/63/162 120/67/156
f 133/137/123 135/131/119 114/59/164 118/65/159
f 134/135/121 136/129/117 112/57/166 116/63/162
f 135/131/119 137/134/115 110/60/168 114/59/164
f 136/129/117 138/125/113 108/53/170 112/57/166
f 137/127/115 139/123/111 106/51/172 110/55/168
f 138/125/113 140/119/109 104/47/176 108/53/170
f 139/123/111 141/117/107 102/45/180 106/51/172
f 140/119/109 142/122/105 100/48/183 104/47/176
f 141/117/107 143/113/103 98/41/186 102/45/180
f 142/115/105 144/111/101 96/39/188 100/43/183
f 125/88/80 145/109/99 94/37/190 146/14/154
f 143/113/103 147/107/97 92/35/192 98/41/186
f 144/111/101 148/105/95 90/33/131 96/39/188
f 145/109/99 149/103/93 88/31/135 94/37/190
f 147/107/97 150/101/91 86/29/139 92/35/192
f 148/105/95 151/99/89 84/27/132 90/33/131
f 149/103/93 152/95/87 82/23/136 88/31/135
f 150/101/91 153/93/85 80/21/140 86/29/139
f 151/99/89 154/91/83 78/19/142 84/27/132
f 152/95/87 155/98/81 76/24/144 82/23/136
f 153/93/85 156/85/77 74/13/146 80/21/140
f 154/91/83 157/83/75 72/11/148 78/19/142
f 155/89/81 158/81/73 70/9/150 76/17/144
f 156/85/77 125/88/80 146/14/154 74/13/146
f 157/83/75 159/77/69 68/5/158 72/11/148
f 158/81/73 160/73/65 66/1/161 70/9/150
f 159/77/69 123/80/72 130/6/151 68/5/158
f 160/73/65 124/76/68 132/2/155 66/1/161
f 162/75/67 161/74/66 65/4/175 126/3/174
f 164/79/71 163/78/70 67/8/179 127/7/178
f 161/74/66 165/82/74 69/10/182 65/4/175
f 163/78/70 166/84/76 71/12/185 67/8/179
f 168/87/79 167/86/78 73/16/187 128/15/149
f 165/82/74 169/90/82 75/18/189 69/10/182
f 166/84/76 170/92/84 77/20/191 71/12/185
f 167/86/78 171/94/86 79/22/129 73/16/187
f 169/97/82 172/96/88 81/26/133 75/25/189
f 170/92/84 173/100/90 83/28/137 77/20/191
f 171/94/86 174/102/92 85/30/130 79/22/129
f 172/96/88 175/104/94 87/32/134 81/26/133
f 173/100/90 176/106/96 89/34/138 83/28/137
f 174/102/92 177/108/98 91/36/141 85/30/130
f 175/104/94 178/110/100 93/38/143 87/32/134
f 176/106/96 179/112/102 95/40/145 89/34/138
f 177/108/98 180/114/104 97/42/147 91/36/141
f 178/110/100 168/87/79 128/15/149 93/38/143
f 179/112/102 181/116/106 99/44/153 95/40/145
f 180/114/104 182/118/108 101/46/157 97/42/147
f 181/121/106 183/120/110 103/50/160 99/49/153
f 182/118/108 184/124/112 105/52/163 101/46/157
f 183/120/110 185/126/114 107/54/165 103/50/160
f 184/124/112 186/128/116 109/56/167 105/52/163
f 185/126/114 187/130/118 111/58/169 107/54/165
f 186/133/116 188/132/120 113/62/171 109/61/167
f 187/130/118 189/136/122 115/64/173 111/58/169
f 188/132/120 190/138/124 117/66/177 113/62/171
f 189/136/122 191/140/126 119/68/181 115/64/173
f 190/138/124 192/142/128 121/70/184 117/66/177
f 191/140/126 162/75/67 126/3/174 119/68/181
f 192/143/128 164/79/71 127/7/178 121/72/184
