# Blender 4.0.1
# www.blender.org
o Bomber_Tailwing_Trim_Top
v -4.134990 1.157699 0.186344
v -3.855659 1.157672 0.186344
v -3.656590 1.157892 0.186344
v -4.029595 2.582295 0.186343
v -4.105455 2.582273 0.186343
v -4.298342 2.582169 0.186343
v -3.687692 1.454073 0.180190
v -3.861888 1.457020 0.181844
v -4.129216 1.457497 0.182112
v -3.727954 1.725049 0.177952
v -3.872900 1.730147 0.180814
v -4.129216 1.732459 0.182112
v -3.767206 2.004711 0.180588
v -3.883800 2.007049 0.181904
v -4.129857 2.007420 0.182112
v -3.867312 2.282382 0.182112
v -3.971536 2.282381 0.182112
v -4.183787 2.282381 0.182112
v -4.134981 1.157716 -0.144627
v -3.855664 1.157689 -0.144627
v -3.656610 1.157909 -0.144627
v -4.029564 2.582278 -0.144627
v -4.105419 2.582256 -0.144627
v -4.298297 2.582152 -0.144627
v -3.687692 1.454073 -0.142350
v -3.861888 1.457020 -0.140696
v -4.129216 1.457497 -0.140428
v -3.727954 1.725049 -0.144588
v -3.872900 1.730147 -0.141726
v -4.129216 1.732459 -0.140428
v -3.767182 2.004718 -0.141952
v -3.883800 2.007049 -0.140636
v -4.129857 2.007420 -0.140428
v -3.867303 2.282381 -0.140428
v -3.971526 2.282381 -0.140428
v -4.183777 2.282381 -0.140428
v -3.614161 1.102811 -0.098920
v -3.614150 1.102803 0.141156
v -4.153560 1.102745 0.141156
v -4.153555 1.102753 -0.098920
v -3.843799 1.102737 0.141156
v -3.843802 1.102745 -0.098920
v -4.356711 2.637354 -0.098921
v -4.356727 2.637362 0.141156
v -4.056121 2.637400 0.141156
v -4.056114 2.637392 -0.098921
v -4.144464 2.637393 0.141156
v -4.144454 2.637385 -0.098921
v -4.374060 2.582057 0.186343
v -4.245223 1.449837 0.184228
v -4.246236 1.729866 0.184228
v -4.246552 2.010054 0.184228
v -4.279925 2.290079 0.184228
v -4.246328 1.157836 0.186344
v -4.374011 2.582041 -0.144627
v -4.245210 1.449842 -0.142528
v -4.246222 1.729868 -0.142528
v -4.246538 2.010052 -0.142528
v -4.279902 2.290073 -0.142528
v -4.246313 1.157853 -0.144627
v -4.444277 2.637328 0.141156
v -4.444259 2.637321 -0.098921
v -4.280231 1.102786 0.141156
v -4.280222 1.102794 -0.098920
v -3.601096 1.086748 -0.051241
v -4.159273 1.086720 -0.051241
v -3.840150 1.086715 -0.051241
v -4.371537 2.653452 -0.051241
v -4.061463 2.653471 -0.051241
v -4.153589 2.653468 -0.051241
v -4.290659 1.086740 -0.051241
v -4.462441 2.653435 -0.051241
v -3.601090 1.086745 0.093849
v -4.159276 1.086716 0.093849
v -3.840149 1.086712 0.093849
v -4.371544 2.653456 0.093849
v -4.061467 2.653475 0.093849
v -4.153594 2.653472 0.093849
v -4.290663 1.086736 0.093849
v -4.462450 2.653439 0.093849
v -4.246220 1.147408 0.212168
v -4.134851 1.149353 0.212914
v -3.855581 1.149121 0.212849
v -3.656528 1.147034 0.211990
v -4.029596 2.588962 0.213385
v -4.105457 2.594144 0.211538
v -3.687442 1.454443 0.208037
v -3.861620 1.457371 0.209692
v -3.727537 1.725098 0.205800
v -3.872479 1.730167 0.208662
v -3.766879 2.004612 0.208437
v -3.883512 2.006967 0.209753
v -3.867206 2.282220 0.209962
v -3.971472 2.282129 0.209961
v -4.144208 2.007344 0.212005
v -4.198208 2.282300 0.211857
v -4.143590 1.731170 0.211988
v -4.143714 1.453934 0.211901
v -4.313394 2.588840 0.217968
v -4.246206 1.147347 -0.170420
v -4.134844 1.149299 -0.171175
v -3.855726 1.148954 -0.171073
v -3.656655 1.146888 -0.170205
v -4.029566 2.589004 -0.171654
v -4.105421 2.594215 -0.169780
v -3.687940 1.454135 -0.170200
v -3.862152 1.457052 -0.168545
v -3.728372 1.725000 -0.172435
v -3.873321 1.730126 -0.169574
v -3.767510 2.004817 -0.169800
v -3.884087 2.007131 -0.168486
v -3.867409 2.282261 -0.168278
v -3.971590 2.282155 -0.168278
v -4.144213 2.007344 -0.170319
v -4.198202 2.282301 -0.170170
v -4.143594 1.731170 -0.170301
v -4.143717 1.453933 -0.170214
v -4.313360 2.588902 -0.176250
v -3.623628 1.068381 0.152943
v -4.168566 1.074271 -0.118229
v -3.827348 1.073601 -0.117423
v -4.372946 2.662633 0.164283
v -4.070172 2.665386 -0.118761
v -4.131159 2.671384 -0.111382
v -3.623640 1.068362 -0.110619
v -3.611031 1.051131 0.097251
v -4.168570 1.074346 0.160566
v -4.174446 1.051882 -0.057233
v -3.827345 1.073659 0.159751
v -3.823620 1.051800 -0.056956
v -4.372934 2.662739 -0.121945
v -4.388704 2.687972 0.101074
v -4.070179 2.665306 0.161095
v -4.075717 2.688356 -0.057196
v -4.131171 2.671367 0.153704
v -4.139996 2.688912 -0.055171
v -4.444287 2.661918 0.154232
v -4.444269 2.661947 -0.111929
v -4.373947 2.594108 0.211452
v -4.244851 1.449991 0.212076
v -4.245731 1.729867 0.212074
v -4.246020 2.010100 0.212073
v -4.279499 2.290009 0.212075
v -4.373899 2.594181 -0.169693
v -4.244840 1.449996 -0.170375
v -4.245721 1.729869 -0.170374
v -4.246010 2.010098 -0.170373
v -4.279479 2.290004 -0.170375
v -4.280240 1.078917 0.155505
v -4.280232 1.078878 -0.113192
v -4.278358 1.051244 0.097626
v -4.451751 2.689255 0.096515
v -3.611037 1.051137 -0.054613
v -4.388697 2.687979 -0.058417
v -4.278353 1.051248 -0.054986
v -4.451742 2.689247 -0.053881
v -4.174448 1.051886 0.099886
v -3.823618 1.051804 0.099608
v -4.075720 2.688353 0.099848
v -4.140001 2.688916 0.097812
v -4.129328 2.007461 0.209958
v -4.183314 2.282367 0.209959
v -3.867482 2.010774 0.211367
v -3.957066 2.291022 0.211800
v -3.778026 2.002403 0.210338
v -3.878445 2.280261 0.211657
v -4.128711 1.732460 0.209958
v -3.856269 1.729440 0.210202
v -3.738516 1.721700 0.207747
v -4.128832 1.457639 0.209960
v -3.845302 1.453946 0.211302
v -3.698088 1.448796 0.209956
v -4.149761 1.143930 0.215696
v -3.839210 1.143268 0.215194
v -3.666756 1.137054 0.211815
v -4.298105 2.587872 0.213603
v -4.092339 2.606108 0.211520
v -4.042789 2.590652 0.216421
v -4.129332 2.007460 -0.168274
v -4.183308 2.282367 -0.168275
v -3.868060 2.010923 -0.170409
v -3.957181 2.291035 -0.170193
v -3.778666 2.002625 -0.171437
v -3.878654 2.280314 -0.169897
v -4.128715 1.732460 -0.168274
v -3.857119 1.729399 -0.171572
v -3.739359 1.721599 -0.174027
v -4.128835 1.457638 -0.168276
v -3.845839 1.453641 -0.170436
v -3.698590 1.448467 -0.171865
v -4.149754 1.143866 -0.173958
v -3.839364 1.143112 -0.173491
v -3.666863 1.136913 -0.169945
v -4.298062 2.587909 -0.171875
v -4.092295 2.606161 -0.169753
v -4.042766 2.590711 -0.174694
v -3.614142 1.078719 0.155143
v -4.153566 1.080296 -0.115393
v -3.843793 1.080110 -0.115147
v -4.356740 2.658922 0.158786
v -4.056116 2.659723 -0.115564
v -4.144456 2.661362 -0.113091
v -3.614152 1.078684 -0.112833
v -3.601086 1.059202 0.097980
v -4.153571 1.080359 0.157725
v -4.159279 1.059261 -0.055898
v -3.843790 1.080169 0.157477
v -3.840145 1.059248 -0.055844
v -4.356725 2.658997 -0.116450
v -4.371551 2.680867 0.098780
v -4.056124 2.659658 0.157895
v -4.061465 2.680930 -0.055898
v -4.144466 2.661324 0.155402
v -4.153590 2.680995 -0.055478
v -4.290668 1.059206 0.098063
v -4.268210 1.069111 0.153959
v -4.233512 1.138566 0.212247
v -4.462456 2.681004 0.097829
v -4.434637 2.673647 0.150417
v -4.363565 2.606794 0.210262
v -4.363508 2.606842 -0.168488
v -4.434613 2.673643 -0.108101
v -4.233497 1.138521 -0.170494
v -4.268199 1.069092 -0.111639
v -4.267320 2.296947 -0.172035
v -4.232101 1.446066 -0.171994
v -4.232992 1.728598 -0.171904
v -4.233284 2.012280 -0.171888
v -4.267340 2.296953 0.213733
v -4.232112 1.446062 0.213693
v -4.233003 1.728596 0.213603
v -4.233295 2.012283 0.213586
v -3.601091 1.059202 -0.055346
v -4.371543 2.680870 -0.056136
v -4.290665 1.059206 -0.055428
v -4.462447 2.681004 -0.055198
v -4.159281 1.059263 0.098540
v -3.840144 1.059249 0.098484
v -4.061468 2.680928 0.098539
v -4.153595 2.680994 0.098113
vn -0.7056 -0.0427 -0.7073
vn -0.6900 -0.1447 -0.7092
vn 0.6786 0.1974 -0.7075
vn 0.7114 0.0703 -0.6992
vn -0.6718 -0.1149 -0.7318
vn -0.6648 -0.2438 -0.7062
vn 0.6471 0.2934 -0.7037
vn 0.7004 0.1781 -0.6911
vn -0.7198 -0.0016 -0.6942
vn 0.6948 0.0007 -0.7192
vn -0.7155 -0.0286 -0.6980
vn 0.6870 0.0995 -0.7198
vn -0.7147 -0.0036 -0.6995
vn 0.6977 -0.0106 -0.7163
vn -0.7094 -0.0301 -0.7042
vn 0.7026 0.0797 -0.7071
vn -0.7541 0.3728 -0.5408
vn 0.7902 0.0889 -0.6064
vn -0.7972 0.1235 -0.5910
vn 0.7343 0.4423 -0.5149
vn -0.6670 -0.6017 -0.4393
vn 0.6777 0.2238 -0.7004
vn -0.7117 -0.5579 -0.4270
vn 0.7027 0.1269 -0.7001
vn -0.7055 -0.0427 0.7074
vn 0.7115 0.0703 0.6991
vn 0.6786 0.1974 0.7075
vn -0.6900 -0.1447 0.7092
vn -0.6557 -0.1184 0.7457
vn 0.7148 0.1725 0.6777
vn 0.6518 0.2919 0.6999
vn -0.6606 -0.2438 0.7100
vn -0.7197 -0.0016 0.6943
vn 0.6949 0.0007 0.7192
vn -0.6977 -0.0277 0.7158
vn 0.7105 0.1024 0.6962
vn -0.7146 -0.0036 0.6995
vn 0.6978 -0.0105 0.7162
vn -0.6954 -0.0224 0.7183
vn 0.7144 0.0877 0.6942
vn -0.7551 0.3736 0.5388
vn 0.7909 0.0906 0.6052
vn -0.7935 0.1277 0.5951
vn 0.7370 0.4459 0.5079
vn 0.6786 0.2221 0.7002
vn -0.6680 -0.6027 0.4364
vn 0.7041 0.1254 0.6989
vn -0.7123 -0.5585 0.4251
vn -0.7428 0.6551 0.1383
vn 0.7570 0.4470 0.4766
vn -0.7658 0.4734 0.4352
vn 0.7248 0.6832 0.0890
vn 0.7461 -0.4336 0.5053
vn -0.7424 -0.6590 0.1206
vn -0.7424 -0.6588 -0.1217
vn 0.7463 -0.4307 -0.5074
vn 0.7371 -0.6598 0.1460
vn -0.7549 -0.6547 0.0392
vn 0.7245 0.6833 -0.0909
vn -0.7667 0.4709 -0.4364
vn -0.7399 0.6592 0.1340
vn 0.7565 0.6539 0.0096
vn 0.7572 0.4442 -0.4788
vn -0.7428 0.6548 -0.1393
vn -0.7553 0.6547 0.0295
vn 0.7364 0.6600 0.1484
vn 0.7182 -0.6640 0.2080
vn -0.7575 -0.6523 -0.0287
vn -0.6680 -0.7436 -0.0296
vn 0.6796 -0.3329 0.6537
vn -0.6675 -0.7441 0.0287
vn 0.6792 -0.3290 -0.6560
vn -0.7577 -0.6520 0.0288
vn 0.7183 -0.6635 -0.2092
vn 0.7367 0.6596 -0.1494
vn -0.7556 0.6543 -0.0297
vn 0.7568 0.6536 -0.0097
vn -0.7402 0.6587 -0.1348
vn -0.7552 -0.6543 -0.0395
vn 0.7374 -0.6593 -0.1469
vn -0.0473 -0.0028 0.9989
vn 0.0802 0.0081 0.9967
vn 0.0902 0.0220 0.9957
vn -0.0424 -0.0097 0.9991
vn -0.0389 -0.0110 0.9992
vn 0.0906 0.0156 0.9958
vn 0.0860 0.0327 0.9958
vn -0.0474 -0.0227 0.9986
vn -0.0513 -0.0001 0.9987
vn 0.0764 -0.0000 0.9971
vn -0.0405 -0.0015 0.9992
vn 0.0904 0.0131 0.9958
vn -0.0430 0.0004 0.9991
vn 0.0759 0.0032 0.9971
vn -0.0465 0.0070 0.9989
vn 0.0615 0.0159 0.9980
vn -0.1117 -0.3630 0.9251
vn 0.1564 -0.3615 0.9192
vn -0.1311 -0.3587 0.9242
vn 0.1275 -0.3594 0.9244
vn 0.1329 0.3384 0.9316
vn -0.0916 0.3989 0.9124
vn 0.1277 0.3225 0.9379
vn -0.1076 0.3910 0.9141
vn -0.0475 -0.0029 -0.9989
vn -0.0426 -0.0096 -0.9990
vn 0.0901 0.0221 -0.9957
vn 0.0800 0.0081 -0.9968
vn -0.0580 -0.0066 -0.9983
vn -0.0521 -0.0225 -0.9984
vn 0.0783 0.0342 -0.9963
vn 0.0669 0.0239 -0.9975
vn -0.0514 -0.0001 -0.9987
vn 0.0762 -0.0000 -0.9971
vn -0.0681 -0.0028 -0.9977
vn 0.0624 0.0091 -0.9980
vn -0.0430 0.0003 -0.9991
vn 0.0758 0.0031 -0.9971
vn -0.0646 -0.0015 -0.9979
vn 0.0468 0.0027 -0.9989
vn -0.1122 -0.3656 -0.9240
vn 0.1567 -0.3639 -0.9182
vn -0.1366 -0.3636 -0.9215
vn 0.1246 -0.3661 -0.9222
vn -0.0918 0.4020 -0.9110
vn 0.1331 0.3404 -0.9308
vn -0.1082 0.3938 -0.9128
vn 0.1281 0.3246 -0.9371
vn -0.2406 -0.7940 -0.5582
vn 0.1978 -0.8143 -0.5457
vn -0.1860 -0.8174 -0.5452
vn 0.2824 -0.7769 -0.5628
vn 0.2061 0.8083 -0.5516
vn -0.2302 0.8008 -0.5530
vn 0.2058 0.8062 0.5547
vn -0.2300 0.7990 0.5556
vn 0.2312 0.9601 -0.1573
vn -0.2630 0.9503 -0.1669
vn -0.1857 -0.8152 0.5485
vn 0.2823 -0.7750 0.5655
vn -0.2032 -0.9665 -0.1566
vn 0.3434 -0.9230 -0.1738
vn -0.2404 -0.7922 0.5609
vn 0.1975 -0.8123 0.5488
vn -0.2878 -0.9425 -0.1697
vn 0.2162 -0.9638 -0.1563
vn 0.1904 0.9693 -0.1555
vn 0.1656 0.8135 -0.5574
vn -0.2530 0.7861 -0.5639
vn -0.3281 0.9273 -0.1801
vn 0.1651 0.8112 0.5610
vn -0.2526 0.7845 0.5663
vn 0.1904 0.9691 0.1568
vn -0.3282 0.9271 0.1812
vn -0.2878 -0.9423 0.1708
vn 0.2162 -0.9636 0.1575
vn -0.2032 -0.9663 0.1577
vn 0.3435 -0.9228 0.1748
vn 0.2311 0.9599 0.1585
vn -0.2631 0.9500 0.1679
vn 0.7715 0.0754 0.6317
vn 0.7589 0.0007 0.6512
vn 0.8199 0.5686 -0.0663
vn 0.8197 0.5689 0.0671
vn -0.7297 -0.0436 -0.6824
vn -0.7431 -0.0016 -0.6692
vn 0.7397 0.0903 -0.6669
vn 0.7410 0.1080 -0.6628
vn -0.7364 -0.0295 0.6759
vn -0.6990 -0.1248 0.7042
vn 0.8914 -0.4196 0.1714
vn 0.8914 -0.4199 -0.1705
vn -0.6852 -0.1416 -0.7145
vn 0.7565 -0.2411 -0.6079
vn 0.7627 -0.0046 -0.6467
vn 0.7597 0.1832 0.6239
vn 0.7615 0.1090 0.6389
vn -0.8072 -0.5850 -0.0785
vn -0.8070 -0.5852 0.0792
vn -0.6852 -0.1417 0.7144
vn -0.5334 -0.0770 0.8424
vn -0.7522 -0.0222 -0.6585
vn -0.7375 -0.2257 -0.6366
vn 0.7628 -0.0045 0.6466
vn 0.8119 -0.5801 0.0654
vn 0.8122 -0.5798 -0.0646
vn -0.6304 -0.0736 0.7727
vn -0.7368 -0.0003 0.6761
vn 0.6166 -0.0104 -0.7872
vn -0.7393 -0.0175 0.6732
vn -0.8664 -0.4744 -0.1561
vn -0.8663 -0.4742 0.1570
vn -0.7430 -0.0016 0.6693
vn 0.7596 0.2134 -0.6144
vn 0.7069 0.4774 -0.5219
vn 0.7497 0.1008 0.6541
vn -0.7296 -0.0436 0.6825
vn -0.6284 -0.0576 -0.7758
vn -0.6697 -0.2509 -0.6990
vn 0.7567 -0.2402 0.6080
vn 0.7181 0.3181 -0.6190
vn 0.6775 0.4300 -0.5967
vn -0.7327 -0.2230 0.6429
vn 0.7997 -0.2537 -0.5442
vn 0.6190 -0.0027 0.7854
vn 0.7994 -0.2513 0.5456
vn 0.6721 0.7160 -0.1887
vn 0.7712 0.6361 -0.0262
vn 0.7756 -0.5651 -0.2813
vn 0.7068 0.4772 0.5222
vn 0.7596 0.2134 0.6144
vn -0.7960 -0.3190 -0.5144
vn -0.7739 -0.5468 -0.3195
vn -0.6646 -0.2505 0.7039
vn -0.6272 -0.0596 0.7766
vn -0.8853 0.4168 -0.2062
vn -0.7506 0.1920 -0.6322
vn 0.6713 0.7160 0.1913
vn 0.6785 0.4299 0.5957
vn 0.7232 0.3164 0.6139
vn 0.7557 0.5907 -0.2828
vn -0.8004 0.3092 -0.5136
vn 0.7751 -0.5646 0.2837
vn -0.7730 -0.5459 0.3231
vn 0.7552 0.5901 0.2852
vn -0.7953 -0.3171 0.5166
vn -0.7997 0.3074 0.5157
vn -0.8552 0.4963 0.1492
vn 0.7714 0.0753 -0.6319
vn -0.7496 0.1898 0.6341
vn -0.8853 0.4164 0.2072
vn -0.7133 -0.1230 -0.6900
vn 0.7707 0.6366 0.0270
vn 0.7463 0.1892 -0.6381
vn -0.5338 -0.0748 -0.8423
vn 0.7588 0.0007 -0.6513
vn -0.6307 -0.0755 -0.7724
vn -0.7514 -0.0298 -0.6592
vn -0.8553 0.4965 -0.1484
vn -0.7368 -0.0004 -0.6761
vt 0.903594 0.228112
vt 0.909550 0.117977
vt 0.875710 0.123184
vt 0.861603 0.231861
vt 0.794526 0.236345
vt 0.821818 0.126670
vt 0.778854 0.129449
vt 0.746792 0.240349
vt 0.910545 0.337476
vt 0.868295 0.339193
vt 0.797261 0.344694
vt 0.738530 0.350492
vt 0.917219 0.446795
vt 0.875237 0.446509
vt 0.799860 0.451572
vt 0.729660 0.457268
vt 0.925025 0.560733
vt 0.885064 0.563371
vt 0.804992 0.568562
vt 0.725006 0.573649
vt 0.938921 0.001643
vt 0.912856 0.003285
vt 0.866519 0.006241
vt 0.834625 0.008296
vt 0.222049 0.253245
vt 0.263961 0.257691
vt 0.251667 0.148794
vt 0.217929 0.143028
vt 0.330954 0.263291
vt 0.378625 0.268086
vt 0.348405 0.156670
vt 0.305494 0.153176
vt 0.213281 0.362476
vt 0.255484 0.364897
vt 0.326417 0.371578
vt 0.385045 0.378350
vt 0.204789 0.471668
vt 0.246759 0.472082
vt 0.322041 0.478398
vt 0.392137 0.485261
vt 0.195096 0.585455
vt 0.235005 0.588758
vt 0.314974 0.595279
vt 0.394859 0.601697
vt 0.216545 0.028301
vt 0.190513 0.026225
vt 0.294676 0.034613
vt 0.262823 0.032028
vt 0.180003 0.605877
vt 0.225893 0.609629
vt 0.317727 0.617109
vt 0.409531 0.624557
vt 0.285949 0.012320
vt 0.249229 0.009333
vt 0.715609 0.657002
vt 0.715594 0.688962
vt 0.752845 0.704231
vt 0.752859 0.667388
vt 0.800866 0.669498
vt 0.800852 0.707820
vt 0.812961 0.704254
vt 0.812976 0.667413
vt 0.715333 0.808576
vt 0.715395 0.728428
vt 0.678153 0.711820
vt 0.678115 0.803928
vt 0.630104 0.802486
vt 0.630136 0.706699
vt 0.618012 0.711803
vt 0.617975 0.803909
vt 0.715330 0.928865
vt 0.715317 0.888817
vt 0.678092 0.896071
vt 0.678087 0.942116
vt 0.630069 0.946179
vt 0.630078 0.898290
vt 0.617951 0.896048
vt 0.617946 0.942092
vt 0.800829 0.764053
vt 0.800815 0.796109
vt 0.812920 0.789005
vt 0.812937 0.758262
vt 0.715558 0.735393
vt 0.715529 0.761510
vt 0.752803 0.788985
vt 0.752820 0.758241
vt 0.195399 0.004963
vt 0.164756 0.002482
vt 0.770756 0.796099
vt 0.770771 0.764043
vt 0.660149 0.898301
vt 0.660139 0.946191
vt 0.660206 0.706707
vt 0.660174 0.802495
vt 0.770793 0.707808
vt 0.770808 0.669486
vt 0.898454 0.228109
vt 0.866762 0.232076
vt 0.880598 0.124341
vt 0.904557 0.117136
vt 0.788667 0.235746
vt 0.752572 0.241327
vt 0.784430 0.131283
vt 0.816146 0.125146
vt 0.905419 0.337796
vt 0.873421 0.338866
vt 0.791477 0.344848
vt 0.744299 0.350915
vt 0.912098 0.447130
vt 0.880356 0.446135
vt 0.794115 0.451787
vt 0.735398 0.457557
vt 0.919982 0.561944
vt 0.890121 0.562452
vt 0.799258 0.568542
vt 0.730703 0.574545
vt 0.917405 0.005640
vt 0.934361 -0.000764
vt 0.840514 0.010224
vt 0.860698 0.004267
vt 0.227188 0.253328
vt 0.222935 0.142270
vt 0.246762 0.149869
vt 0.258800 0.257820
vt 0.336825 0.262798
vt 0.311195 0.151753
vt 0.342794 0.158405
vt 0.372825 0.268958
vt 0.218400 0.362881
vt 0.250365 0.364485
vt 0.332199 0.371825
vt 0.379269 0.378679
vt 0.209903 0.472088
vt 0.241648 0.471624
vt 0.327782 0.478703
vt 0.386395 0.485461
vt 0.200119 0.586744
vt 0.229972 0.587884
vt 0.320703 0.595440
vt 0.389154 0.602192
vt 0.195115 0.023903
vt 0.212157 0.029758
vt 0.268587 0.031003
vt 0.288864 0.035511
vt 0.184903 0.607224
vt 0.220846 0.608655
vt 0.323428 0.617216
vt 0.403958 0.625223
vt 0.280013 0.012570
vt 0.255110 0.008747
vt 0.713226 0.662726
vt 0.752040 0.673264
vt 0.754046 0.698448
vt 0.718188 0.683295
vt 0.800989 0.675414
vt 0.813521 0.673289
vt 0.812161 0.698470
vt 0.800644 0.701904
vt 0.715832 0.802852
vt 0.678516 0.798243
vt 0.676861 0.717300
vt 0.713765 0.734076
vt 0.630023 0.796788
vt 0.617708 0.798223
vt 0.618876 0.717284
vt 0.630420 0.712397
vt 0.714091 0.923785
vt 0.676446 0.937118
vt 0.678724 0.901192
vt 0.716111 0.893908
vt 0.630304 0.940995
vt 0.618674 0.937075
vt 0.617527 0.901169
vt 0.629948 0.903473
vt 0.801157 0.769068
vt 0.814091 0.762911
vt 0.811537 0.784518
vt 0.800395 0.791095
vt 0.712424 0.739654
vt 0.751088 0.762887
vt 0.755991 0.784644
vt 0.718837 0.757260
vt 0.190767 0.006165
vt 0.169226 0.001007
vt 0.770437 0.769057
vt 0.771182 0.791085
vt 0.659906 0.941007
vt 0.660277 0.903484
vt 0.660258 0.796797
vt 0.659917 0.712405
vt 0.770680 0.675402
vt 0.771007 0.701893
s 1
f 52/1/1 53/2/2 18/3/3 15/4/4
f 14/5/5 17/6/6 16/7/7 13/8/8
f 51/9/9 52/1/1 15/4/4 12/10/10
f 11/11/11 14/5/5 13/8/8 10/12/12
f 50/13/13 51/9/9 12/10/10 9/14/14
f 8/15/15 11/11/11 10/12/12 7/16/16
f 54/17/17 50/13/13 9/14/14 1/18/18
f 2/19/19 8/15/15 7/16/16 3/20/20
f 53/2/2 49/21/21 6/22/22 18/3/3
f 17/6/6 5/23/23 4/24/24 16/7/7
f 58/25/25 33/26/26 36/27/27 59/28/28
f 32/29/29 31/30/30 34/31/31 35/32/32
f 57/33/33 30/34/34 33/26/26 58/25/25
f 29/35/35 28/36/36 31/30/30 32/29/29
f 56/37/37 27/38/38 30/34/34 57/33/33
f 26/39/39 25/40/40 28/36/36 29/35/35
f 60/41/41 19/42/42 27/38/38 56/37/37
f 20/43/43 21/44/44 25/40/40 26/39/39
f 59/28/28 36/27/27 24/45/45 55/46/46
f 35/32/32 34/31/31 22/47/47 23/48/48
f 64/49/49 40/50/50 19/42/42 60/41/41
f 42/51/51 37/52/52 21/44/44 20/43/43
f 46/53/53 48/54/54 23/48/48 22/47/47
f 4/55/24 5/56/23 47/57/55 45/58/56
f 69/59/57 70/60/58 48/61/54 46/62/53
f 2/63/19 3/64/20 38/65/59 41/66/60
f 67/67/61 65/68/62 37/69/52 42/70/51
f 54/71/17 1/72/18 39/73/63 63/74/64
f 71/75/65 66/76/66 40/77/50 64/78/49
f 68/79/67 72/80/68 62/81/69 43/82/70
f 6/83/22 49/84/21 61/85/71 44/86/72
f 43/87/70 62/88/69 55/46/46 24/45/45
f 44/86/72 61/85/71 80/89/73 76/90/74
f 63/74/64 39/73/63 74/91/75 79/92/76
f 41/66/60 38/65/59 73/93/77 75/94/78
f 45/58/56 47/57/55 78/95/79 77/96/80
f 72/80/68 68/79/67 76/90/74 80/89/73
f 78/95/79 70/60/58 69/59/57 77/96/80
f 65/68/62 67/67/61 75/94/78 73/93/77
f 66/76/66 71/75/65 79/92/76 74/91/75
f 232/97/81 95/98/82 96/99/83 229/100/84
f 163/101/85 165/102/86 166/103/87 164/104/88
f 231/105/89 97/106/90 95/98/82 232/97/81
f 168/107/91 169/108/92 165/102/86 163/101/85
f 230/109/93 98/110/94 97/106/90 231/105/89
f 171/111/95 172/112/96 169/108/92 168/107/91
f 217/113/97 173/114/98 98/110/94 230/109/93
f 174/115/99 175/116/100 172/112/96 171/111/95
f 229/100/84 96/99/83 99/117/101 220/118/102
f 164/104/88 166/103/87 178/119/103 177/120/104
f 228/121/105 225/122/106 115/123/107 114/124/108
f 181/125/109 182/126/110 184/127/111 183/128/112
f 227/129/113 228/121/105 114/124/108 116/130/114
f 186/131/115 181/125/109 183/128/112 187/132/116
f 226/133/117 227/129/113 116/130/114 117/134/118
f 189/135/119 186/131/115 187/132/116 190/136/120
f 223/137/121 226/133/117 117/134/118 191/138/122
f 192/139/123 189/135/119 190/136/120 193/140/124
f 225/122/106 221/141/125 118/142/126 115/123/107
f 182/126/110 195/143/127 196/144/128 184/127/111
f 224/145/129 223/137/121 191/138/122 120/146/130
f 121/147/131 192/139/123 193/140/124 125/148/132
f 123/149/133 196/144/128 195/143/127 124/150/134
f 178/151/103 133/152/135 135/153/136 177/154/104
f 134/155/137 123/156/133 124/157/134 136/158/138
f 174/159/99 129/160/139 119/161/140 175/162/100
f 130/163/141 121/164/131 125/165/132 153/166/142
f 217/167/97 216/168/143 127/169/144 173/170/98
f 155/171/145 224/172/129 120/173/130 128/174/146
f 154/175/147 131/176/148 222/177/149 156/178/150
f 99/179/101 122/180/151 219/181/152 220/182/102
f 131/183/148 118/142/126 221/141/125 222/184/149
f 122/180/151 132/185/153 152/186/154 219/181/152
f 216/168/143 151/187/155 157/188/156 127/169/144
f 129/160/139 158/189/157 126/190/158 119/161/140
f 133/152/135 159/191/159 160/192/160 135/153/136
f 156/178/150 152/186/154 132/185/153 154/175/147
f 160/192/160 159/191/159 134/155/137 136/158/138
f 153/166/142 126/190/158 158/189/157 130/163/141
f 128/174/146 157/188/156 151/187/155 155/171/145
f 12/10/10 15/4/4 161/4/161 167/10/162
f 77/96/80 69/59/57 212/59/163 239/96/164
f 57/33/33 58/25/25 147/25/165 146/33/166
f 28/36/36 25/40/40 106/40/167 108/36/168
f 14/5/5 11/11/11 90/11/169 92/5/170
f 65/68/62 73/93/77 204/93/171 233/68/172
f 58/25/25 59/28/28 148/28/173 147/25/165
f 27/38/38 19/42/42 101/42/174 188/38/175
f 10/12/12 13/8/8 91/8/176 89/12/177
f 75/94/78 67/67/61 208/67/178 238/94/179
f 49/21/21 53/2/2 143/2/180 139/21/181
f 20/43/43 26/39/39 107/39/182 102/43/183
f 9/14/14 12/10/10 167/10/162 170/14/184
f 66/76/66 74/91/75 237/91/185 206/76/186
f 50/13/13 54/17/17 81/17/187 140/13/188
f 25/40/40 21/44/44 103/44/189 106/40/167
f 11/11/11 8/15/15 88/15/190 90/11/169
f 79/92/76 71/75/65 235/75/191 215/92/192
f 51/9/9 50/13/13 140/13/188 141/9/193
f 24/45/45 36/27/27 180/27/194 194/45/195
f 7/16/16 10/12/12 89/12/177 87/16/196
f 52/1/1 51/9/9 141/9/193 142/1/197
f 35/32/32 23/48/48 105/48/198 113/32/199
f 1/18/18 9/14/14 170/14/184 82/18/200
f 53/2/2 52/1/1 142/1/197 143/2/180
f 22/47/47 34/31/31 112/31/201 104/47/202
f 8/15/15 2/19/19 83/19/203 88/15/190
f 37/69/52 65/68/62 233/68/172 203/69/204
f 38/65/59 3/64/20 84/64/205 197/65/206
f 3/20/20 7/16/16 87/16/196 84/20/205
f 68/79/67 43/82/70 209/82/207 234/79/208
f 19/42/42 40/50/50 198/50/209 101/42/174
f 18/3/3 6/22/22 176/22/210 162/3/211
f 71/75/65 64/78/49 150/78/212 235/75/191
f 42/51/51 20/43/43 102/43/183 199/51/213
f 5/23/23 17/6/6 94/6/214 86/23/215
f 62/81/69 72/80/68 236/80/216 138/81/217
f 6/83/22 44/86/72 200/86/218 176/83/210
f 16/7/7 4/24/24 85/24/219 93/7/220
f 46/53/53 22/47/47 104/47/202 201/53/221
f 23/48/48 48/54/54 202/54/222 105/48/198
f 21/44/44 37/52/52 203/52/204 103/44/189
f 73/93/77 38/65/59 197/65/206 204/93/171
f 74/91/75 39/73/63 205/73/223 237/91/185
f 39/73/63 1/72/18 82/72/200 205/73/223
f 41/66/60 75/94/78 238/94/179 207/66/224
f 40/77/50 66/76/66 206/76/186 198/77/209
f 45/58/56 77/96/80 239/96/164 211/58/225
f 63/74/64 79/92/76 215/92/192 149/74/226
f 2/63/19 41/66/60 207/66/224 83/63/203
f 78/95/79 47/57/55 213/57/227 240/95/228
f 54/71/17 63/74/64 149/74/226 81/71/187
f 67/67/61 42/70/51 199/70/213 208/67/178
f 36/27/27 33/26/26 179/26/229 180/27/194
f 80/89/73 61/85/71 137/85/230 218/89/231
f 43/87/70 24/45/45 194/45/195 209/87/207
f 32/29/29 35/32/32 113/32/199 111/29/232
f 61/85/71 49/84/21 139/84/181 137/85/230
f 44/86/72 76/90/74 210/90/233 200/86/218
f 34/31/31 31/30/30 110/30/234 112/31/201
f 55/46/46 62/88/69 138/88/217 144/46/235
f 4/55/24 45/58/56 211/58/225 85/55/219
f 33/26/26 30/34/34 185/34/236 179/26/229
f 64/49/49 60/41/41 100/41/237 150/49/212
f 69/59/57 46/62/53 201/62/221 212/59/163
f 29/35/35 32/29/29 111/29/232 109/35/238
f 15/4/4 18/3/3 162/3/211 161/4/161
f 70/60/58 78/95/79 240/95/228 214/60/239
f 59/28/28 55/46/46 144/46/235 148/28/173
f 47/57/55 5/56/23 86/56/215 213/57/227
f 31/30/30 28/36/36 108/36/168 110/30/234
f 17/6/6 14/5/5 92/5/170 94/6/214
f 76/90/74 68/79/67 234/79/208 210/90/233
f 60/41/41 56/37/37 145/37/240 100/41/237
f 48/61/54 70/60/58 214/60/239 202/61/222
f 30/34/34 27/38/38 188/38/175 185/34/236
f 13/8/8 16/7/7 93/7/220 91/8/176
f 72/80/68 80/89/73 218/89/231 236/80/216
f 56/37/37 57/33/33 146/33/166 145/37/240
f 26/39/39 29/35/35 109/35/238 107/39/182
f 96/99/83 95/98/82 161/4/161 162/3/211
f 163/101/85 164/104/88 94/6/214 92/5/170
f 166/103/87 165/102/86 91/8/176 93/7/220
f 95/98/82 97/106/90 167/10/162 161/4/161
f 168/107/91 163/101/85 92/5/170 90/11/169
f 165/102/86 169/108/92 89/12/177 91/8/176
f 97/106/90 98/110/94 170/14/184 167/10/162
f 171/111/95 168/107/91 90/11/169 88/15/190
f 169/108/92 172/112/96 87/16/196 89/12/177
f 98/110/94 173/114/98 82/18/200 170/14/184
f 174/115/99 171/111/95 88/15/190 83/19/203
f 172/112/96 175/116/100 84/20/205 87/16/196
f 99/117/101 96/99/83 162/3/211 176/22/210
f 164/104/88 177/120/104 86/23/215 94/6/214
f 178/119/103 166/103/87 93/7/220 85/24/219
f 114/124/108 115/123/107 180/27/194 179/26/229
f 182/126/110 181/125/109 111/29/232 113/32/199
f 183/128/112 184/127/111 112/31/201 110/30/234
f 116/130/114 114/124/108 179/26/229 185/34/236
f 181/125/109 186/131/115 109/35/238 111/29/232
f 187/132/116 183/128/112 110/30/234 108/36/168
f 117/134/118 116/130/114 185/34/236 188/38/175
f 186/131/115 189/135/119 107/39/182 109/35/238
f 190/136/120 187/132/116 108/36/168 106/40/167
f 191/138/122 117/134/118 188/38/175 101/42/174
f 189/135/119 192/139/123 102/43/183 107/39/182
f 193/140/124 190/136/120 106/40/167 103/44/189
f 115/123/107 118/142/126 194/45/195 180/27/194
f 195/143/127 182/126/110 113/32/199 105/48/198
f 184/127/111 196/144/128 104/47/202 112/31/201
f 175/162/100 119/161/140 197/65/206 84/64/205
f 120/146/130 191/138/122 101/42/174 198/50/209
f 192/139/123 121/147/131 199/51/213 102/43/183
f 122/180/151 99/179/101 176/83/210 200/86/218
f 196/144/128 123/149/133 201/53/221 104/47/202
f 124/150/134 195/143/127 105/48/198 202/54/222
f 125/148/132 193/140/124 103/44/189 203/52/204
f 119/161/140 126/190/158 204/93/171 197/65/206
f 173/170/98 127/169/144 205/73/223 82/72/200
f 128/174/146 120/173/130 198/77/209 206/76/186
f 129/160/139 174/159/99 83/63/203 207/66/224
f 121/164/131 130/163/141 208/67/178 199/70/213
f 118/142/126 131/183/148 209/87/207 194/45/195
f 132/185/153 122/180/151 200/86/218 210/90/233
f 133/152/135 178/151/103 85/55/219 211/58/225
f 123/156/133 134/155/137 212/59/163 201/62/221
f 177/154/104 135/153/136 213/57/227 86/56/215
f 136/158/138 124/157/134 202/61/222 214/60/239
f 151/187/155 216/168/143 149/74/226 215/92/192
f 216/168/143 217/167/97 81/71/187 149/74/226
f 219/181/152 152/186/154 218/89/231 137/85/230
f 220/182/102 219/181/152 137/85/230 139/84/181
f 222/184/149 221/141/125 144/46/235 138/88/217
f 223/137/121 224/145/129 150/49/212 100/41/237
f 221/141/125 225/122/106 148/28/173 144/46/235
f 226/133/117 223/137/121 100/41/237 145/37/240
f 227/129/113 226/133/117 145/37/240 146/33/166
f 228/121/105 227/129/113 146/33/166 147/25/165
f 225/122/106 228/121/105 147/25/165 148/28/173
f 229/100/84 220/118/102 139/21/181 143/2/180
f 217/113/97 230/109/93 140/13/188 81/17/187
f 230/109/93 231/105/89 141/9/193 140/13/188
f 231/105/89 232/97/81 142/1/197 141/9/193
f 232/97/81 229/100/84 143/2/180 142/1/197
f 153/166/142 125/165/132 203/69/204 233/68/172
f 131/176/148 154/175/147 234/79/208 209/82/207
f 224/172/129 155/171/145 235/75/191 150/78/212
f 156/178/150 222/177/149 138/81/217 236/80/216
f 127/169/144 157/188/156 237/91/185 205/73/223
f 158/189/157 129/160/139 207/66/224 238/94/179
f 159/191/159 133/152/135 211/58/225 239/96/164
f 135/153/136 160/192/160 240/95/228 213/57/227
f 160/192/160 136/158/138 214/60/239 240/95/228
f 154/175/147 132/185/153 210/90/233 234/79/208
f 152/186/154 156/178/150 236/80/216 218/89/231
f 134/155/137 159/191/159 239/96/164 212/59/163
f 126/190/158 153/166/142 233/68/172 204/93/171
f 130/163/141 158/189/157 238/94/179 208/67/178
f 157/188/156 128/174/146 206/76/186 237/91/185
f 155/171/145 151/187/155 215/92/192 235/75/191
o Bomber_Tailwing_Trim_Right
v -4.134305 0.567564 0.156446
v -3.854974 0.567578 0.156422
v -3.655906 0.567468 0.156613
v -4.028910 -0.144734 1.390183
v -4.104770 -0.144723 1.390163
v -4.297657 -0.144670 1.390073
v -3.687007 0.424707 0.416190
v -3.861203 0.421800 0.417915
v -4.128531 0.421330 0.418195
v -3.727269 0.291157 0.651981
v -3.872215 0.286129 0.654965
v -4.128531 0.283849 0.656318
v -3.766522 0.149042 0.892858
v -3.883115 0.146735 0.894224
v -4.129172 0.146369 0.894442
v -3.866627 0.008888 1.132565
v -3.970851 0.008888 1.132565
v -4.183103 0.008888 1.132565
v -4.134296 0.854185 0.321946
v -3.854979 0.854199 0.321923
v -3.655925 0.854089 0.322113
v -4.028880 0.141904 1.555653
v -4.104734 0.141915 1.555634
v -4.297612 0.141967 1.555544
v -3.687007 0.704035 0.577461
v -3.861203 0.701128 0.579186
v -4.128531 0.700658 0.579465
v -3.727269 0.570485 0.813251
v -3.872215 0.565457 0.816235
v -4.128531 0.563177 0.817588
v -3.766497 0.428367 1.054133
v -3.883115 0.426063 1.055494
v -4.129172 0.425696 1.055712
v -3.866618 0.288216 1.293835
v -3.970841 0.288216 1.293835
v -4.183093 0.288216 1.293835
v -3.613476 0.842054 0.251543
v -3.613465 0.634146 0.131498
v -4.152875 0.634175 0.131448
v -4.152871 0.842083 0.251493
v -3.843114 0.634179 0.131441
v -3.843117 0.842087 0.251486
v -4.356027 0.074783 1.580497
v -4.356042 -0.133133 1.460465
v -4.055436 -0.133152 1.460498
v -4.055429 0.074764 1.580530
v -4.143779 -0.133149 1.460493
v -4.143769 0.074767 1.580524
v -4.373375 -0.144615 1.389977
v -4.244538 0.423328 0.410503
v -4.245552 0.283313 0.653015
v -4.245868 0.143219 0.895665
v -4.279241 0.003207 1.138173
v -4.245644 0.567496 0.156565
v -4.373326 0.142023 1.555448
v -4.244525 0.706304 0.573885
v -4.245537 0.566291 0.816395
v -4.245853 0.426199 1.059041
v -4.279218 0.286188 1.301547
v -4.245628 0.854117 0.322065
v -4.443592 -0.133116 1.460436
v -4.443574 0.074800 1.580468
v -4.279546 0.634154 0.131484
v -4.279538 0.842063 0.251529
v -3.600411 0.808794 0.213793
v -4.158588 0.808808 0.213768
v -3.839465 0.808810 0.213764
v -4.370852 0.025442 1.570599
v -4.060779 0.025433 1.570615
v -4.152904 0.025434 1.570612
v -4.289974 0.808798 0.213786
v -4.461756 0.025450 1.570584
v -3.600406 0.683144 0.141245
v -4.158591 0.683159 0.141220
v -3.839464 0.683161 0.141216
v -4.370860 -0.100211 1.498057
v -4.060782 -0.100221 1.498073
v -4.152909 -0.100219 1.498070
v -4.289979 0.683148 0.141238
v -4.461765 -0.100203 1.498042
v -4.245535 0.550345 0.134622
v -4.134167 0.548727 0.135933
v -3.854896 0.548899 0.135765
v -3.655843 0.550686 0.134386
v -4.028911 -0.171485 1.382435
v -4.104772 -0.172477 1.387846
v -3.686757 0.400406 0.402587
v -3.860936 0.397508 0.404296
v -3.726852 0.267015 0.638099
v -3.871794 0.262002 0.641059
v -3.766194 0.124974 0.878848
v -3.882828 0.122658 0.880228
v -3.866521 -0.015150 1.118501
v -3.970787 -0.015104 1.118422
v -4.143524 0.120518 0.879430
v -4.197523 -0.016831 1.117622
v -4.142905 0.258621 0.640264
v -4.143029 0.397314 0.400215
v -4.312709 -0.175394 1.380038
v -4.245521 0.881707 0.325863
v -4.134159 0.881385 0.327931
v -3.855042 0.881468 0.327581
v -3.655970 0.881750 0.325358
v -4.028881 0.161946 1.574991
v -4.104736 0.157718 1.578567
v -3.687255 0.728122 0.591439
v -3.861468 0.725231 0.593138
v -3.727687 0.594626 0.827132
v -3.872636 0.589584 0.830141
v -3.766825 0.452435 1.068144
v -3.883402 0.450139 1.069490
v -3.866724 0.312395 1.307656
v -3.970905 0.312448 1.307564
v -4.143528 0.451620 1.070591
v -4.197517 0.314013 1.308637
v -4.142909 0.589693 0.831409
v -4.143032 0.728236 0.591271
v -4.312675 0.165978 1.577200
v -3.622943 0.641149 0.095795
v -4.167881 0.873046 0.236481
v -3.826663 0.872684 0.235498
v -4.372261 -0.165797 1.470788
v -4.069487 0.077949 1.614693
v -4.130475 0.068560 1.616199
v -3.622955 0.869410 0.227559
v -3.610347 0.698005 0.108702
v -4.167885 0.631565 0.097149
v -4.173761 0.831416 0.186594
v -3.826660 0.632614 0.096962
v -3.822935 0.831218 0.186385
v -4.372250 0.082030 1.613993
v -4.388020 -0.123726 1.524336
v -4.069494 -0.164374 1.474696
v -4.075032 0.013148 1.603804
v -4.130486 -0.161003 1.483641
v -4.139311 0.011115 1.603273
v -4.443603 -0.156736 1.475194
v -4.443584 0.073752 1.608299
v -4.373262 -0.172385 1.387858
v -4.244166 0.399134 0.396713
v -4.245047 0.259197 0.639093
v -4.245335 0.119081 0.881782
v -4.278814 -0.020875 1.124189
v -4.373214 0.157660 1.578494
v -4.244155 0.730344 0.587942
v -4.245037 0.590406 0.830319
v -4.245325 0.450291 1.073004
v -4.278794 0.310340 1.315410
v -4.279555 0.633663 0.103638
v -4.279547 0.866381 0.237953
v -4.277673 0.697623 0.108612
v -4.451066 -0.120420 1.527727
v -3.610352 0.829520 0.184638
v -4.388012 0.014393 1.604088
v -4.277668 0.829787 0.184922
v -4.451057 0.009831 1.602918
v -4.173763 0.695345 0.108038
v -3.822934 0.695628 0.108106
v -4.075036 -0.122855 1.525279
v -4.139317 -0.121374 1.526784
v -4.128643 0.122233 0.880554
v -4.182629 -0.015221 1.118629
v -3.866797 0.119356 0.882719
v -3.956381 -0.021143 1.125204
v -3.777342 0.124432 0.875984
v -3.877760 -0.015638 1.115956
v -4.128026 0.259733 0.642396
v -3.855584 0.261032 0.639659
v -3.737831 0.267028 0.634183
v -4.128148 0.397142 0.404393
v -3.844617 0.397826 0.400524
v -3.697404 0.401567 0.396737
v -4.149076 0.549029 0.129846
v -3.838525 0.549795 0.129523
v -3.666071 0.555828 0.125832
v -4.297420 -0.171129 1.381382
v -4.091654 -0.178443 1.398216
v -4.042105 -0.174960 1.382381
v -4.128647 0.449791 1.069670
v -4.182623 0.312339 1.307746
v -3.867375 0.449909 1.073736
v -3.956497 0.309666 1.316212
v -3.777982 0.454949 1.067063
v -3.877969 0.314770 1.306779
v -4.128030 0.587292 0.831512
v -3.856434 0.591678 0.830510
v -3.738674 0.597704 0.824983
v -4.128150 0.724705 0.593510
v -3.845154 0.728573 0.591129
v -3.697905 0.732398 0.587363
v -4.149069 0.886511 0.324617
v -3.838679 0.886484 0.323730
v -3.666179 0.886512 0.316589
v -4.297377 0.162686 1.574154
v -4.091610 0.151721 1.588899
v -4.042081 0.163727 1.577989
v -3.613457 0.634074 0.103648
v -4.152881 0.867578 0.240281
v -3.843108 0.867458 0.239997
v -4.356055 -0.159182 1.470322
v -4.055431 0.078012 1.608191
v -4.143771 0.075050 1.608373
v -3.613468 0.866167 0.237606
v -3.600401 0.693338 0.115327
v -4.152886 0.631019 0.103777
v -4.158594 0.826571 0.192317
v -3.843105 0.631328 0.103737
v -3.839461 0.826530 0.192278
v -4.356040 0.079142 1.608004
v -4.370866 -0.118187 1.519330
v -4.055439 -0.158779 1.471405
v -4.060780 0.015737 1.596723
v -4.143782 -0.157452 1.474094
v -4.152905 0.015340 1.596569
v -4.289984 0.693264 0.115289
v -4.267526 0.639904 0.095919
v -4.232828 0.554697 0.126925
v -4.461771 -0.117432 1.519924
v -4.433952 -0.159296 1.487259
v -4.362881 -0.177697 1.399440
v -4.362823 0.150286 1.588856
v -4.433928 0.064589 1.616514
v -4.232812 0.886184 0.318256
v -4.267515 0.869928 0.228701
v -4.266635 0.308306 1.322253
v -4.231416 0.733710 0.585348
v -4.232307 0.592367 0.829983
v -4.232600 0.450511 1.075651
v -4.266655 -0.025782 1.129374
v -4.231427 0.399698 0.392501
v -4.232318 0.258509 0.637227
v -4.232610 0.116680 0.882916
v -3.600406 0.826122 0.191990
v -4.370858 0.015973 1.596790
v -4.289980 0.826191 0.192034
v -4.461762 0.015093 1.596437
v -4.158597 0.692823 0.115100
v -3.839459 0.692878 0.115116
v -4.060783 -0.118009 1.519503
v -4.152910 -0.117673 1.519774
vn -0.7056 0.6339 0.3167
vn -0.6900 0.6865 0.2293
vn 0.6786 0.5140 0.5247
vn 0.7114 0.5704 0.4105
vn -0.6718 0.6912 0.2664
vn -0.6648 0.7334 0.1420
vn 0.6471 0.4628 0.6059
vn 0.7004 0.5095 0.4998
vn -0.7198 0.6020 0.3457
vn 0.6948 0.6225 0.3602
vn -0.7155 0.6188 0.3242
vn 0.6870 0.5736 0.4461
vn -0.7147 0.6076 0.3466
vn 0.6977 0.6256 0.3490
vn -0.7094 0.6249 0.3260
vn 0.7026 0.5726 0.4225
vn -0.7541 0.2820 0.5932
vn 0.7902 0.4807 0.3802
vn -0.7972 0.4500 0.4025
vn 0.7343 0.2248 0.6405
vn -0.6670 0.6813 -0.3015
vn 0.6777 0.4946 0.5441
vn -0.7117 0.6487 -0.2696
vn 0.7027 0.5428 0.4600
vn -0.7055 -0.5913 -0.3907
vn 0.7115 -0.6406 -0.2887
vn 0.6786 -0.7114 -0.1828
vn -0.6900 -0.5418 -0.4799
vn -0.6557 -0.5866 -0.4754
vn 0.7148 -0.6731 -0.1894
vn 0.6518 -0.7521 -0.0972
vn -0.6606 -0.4930 -0.5661
vn -0.7197 -0.6005 -0.3485
vn 0.6949 -0.6232 -0.3590
vn -0.6977 -0.6061 -0.3819
vn 0.7105 -0.6541 -0.2594
vn -0.7146 -0.6040 -0.3529
vn 0.6978 -0.6150 -0.3672
vn -0.6954 -0.6108 -0.3785
vn 0.7144 -0.6450 -0.2712
vn -0.7551 -0.6534 0.0542
vn 0.7909 -0.5694 -0.2242
vn -0.7935 -0.5792 -0.1869
vn 0.7370 -0.6628 0.1323
vn 0.6786 -0.7174 -0.1578
vn -0.6680 -0.0766 -0.7402
vn 0.7041 -0.6680 -0.2408
vn -0.7123 -0.0889 -0.6963
vn -0.7428 -0.4473 0.4982
vn 0.7570 -0.6363 0.1488
vn -0.7658 -0.6136 0.1924
vn 0.7248 -0.4187 0.5471
vn 0.7461 -0.2208 -0.6281
vn -0.7424 0.2251 -0.6310
vn -0.7424 0.4348 -0.5097
vn 0.7463 0.6548 -0.1193
vn 0.7371 0.2034 -0.6444
vn -0.7549 0.2934 -0.5866
vn 0.7245 -0.2629 0.6372
vn -0.7667 0.1425 0.6260
vn -0.7399 -0.4456 0.5039
vn 0.7565 -0.3353 0.5615
vn 0.7572 0.1925 0.6241
vn -0.7428 -0.2068 0.6368
vn -0.7553 -0.3529 0.5522
vn 0.7364 -0.4586 0.4974
vn 0.7182 0.1519 -0.6791
vn -0.7575 0.3510 -0.5505
vn -0.6680 0.3975 -0.6292
vn 0.6796 -0.3997 -0.6151
vn -0.6675 0.3472 -0.6588
vn 0.6792 0.7326 0.0430
vn -0.7577 0.3010 -0.5790
vn 0.7183 0.5129 -0.4700
vn 0.7367 -0.2004 0.6459
vn -0.7556 -0.3014 0.5815
vn 0.7568 -0.3184 0.5709
vn -0.7402 -0.2126 0.6379
vn -0.7552 0.3614 -0.5469
vn 0.7374 0.4569 -0.4975
vn -0.0473 -0.8636 -0.5019
vn 0.0802 -0.8673 -0.4914
vn 0.0902 -0.8733 -0.4788
vn -0.0424 -0.8604 -0.5079
vn -0.0389 -0.8598 -0.5091
vn 0.0906 -0.8701 -0.4844
vn 0.0860 -0.8787 -0.4696
vn -0.0474 -0.8535 -0.5189
vn -0.0513 -0.8649 -0.4994
vn 0.0764 -0.8635 -0.4985
vn -0.0405 -0.8646 -0.5009
vn 0.0904 -0.8689 -0.4866
vn -0.0430 -0.8654 -0.4992
vn 0.0759 -0.8651 -0.4958
vn -0.0465 -0.8686 -0.4934
vn 0.0615 -0.8722 -0.4852
vn -0.1117 -0.6196 -0.7769
vn 0.1564 -0.6153 -0.7726
vn -0.1311 -0.6210 -0.7728
vn 0.1275 -0.6209 -0.7735
vn 0.1329 -0.9760 -0.1727
vn -0.0916 -0.9896 -0.1107
vn 0.1277 -0.9735 -0.1896
vn -0.1076 -0.9871 -0.1184
vn -0.0475 0.8665 0.4970
vn -0.0426 0.8700 0.4912
vn 0.0901 0.8513 0.5169
vn 0.0800 0.8592 0.5054
vn -0.0580 0.8679 0.4934
vn -0.0521 0.8759 0.4797
vn 0.0783 0.8458 0.5278
vn 0.0669 0.8519 0.5195
vn -0.0514 0.8649 0.4993
vn 0.0762 0.8635 0.4986
vn -0.0681 0.8654 0.4964
vn 0.0624 0.8598 0.5069
vn -0.0430 0.8651 0.4998
vn 0.0758 0.8620 0.5012
vn -0.0646 0.8650 0.4977
vn 0.0468 0.8637 0.5018
vn -0.1122 0.9830 0.1454
vn 0.1567 0.9771 0.1439
vn -0.1366 0.9798 0.1459
vn 0.1246 0.9817 0.1441
vn -0.0918 0.5880 0.8036
vn 0.1331 0.6359 0.7602
vn -0.1082 0.5936 0.7974
vn 0.1281 0.6493 0.7497
vn -0.2406 0.8804 -0.4086
vn 0.1978 0.8797 -0.4324
vn -0.1860 0.8809 -0.4352
vn 0.2824 0.8758 -0.3914
vn 0.2061 0.0735 0.9758
vn -0.2302 0.0785 0.9700
vn 0.2058 -0.8835 0.4208
vn -0.2300 -0.8807 0.4141
vn 0.2312 -0.3438 0.9101
vn -0.2630 -0.3306 0.9064
vn -0.1857 -0.0674 -0.9803
vn 0.2823 -0.1022 -0.9539
vn -0.2032 0.6189 -0.7588
vn 0.3434 0.6120 -0.7124
vn -0.2404 -0.0896 -0.9665
vn 0.1975 -0.0691 -0.9779
vn -0.2878 0.6182 -0.7314
vn 0.2162 0.6172 -0.7565
vn 0.1904 -0.3500 0.9172
vn 0.1656 0.0760 0.9833
vn -0.2530 0.0953 0.9628
vn -0.3281 -0.3077 0.8931
vn 0.1651 -0.8914 0.4220
vn -0.2526 -0.8827 0.3962
vn 0.1904 -0.6203 0.7609
vn -0.3282 -0.6204 0.7123
vn -0.2878 0.3233 -0.9015
vn 0.2162 0.3454 -0.9132
vn -0.2032 0.3466 -0.9157
vn 0.3435 0.3100 -0.8865
vn 0.2311 -0.6173 0.7520
vn -0.2631 -0.6205 0.7388
vn 0.7715 -0.5848 -0.2506
vn 0.7589 -0.5643 -0.3250
vn 0.8199 -0.2269 0.5256
vn 0.8197 -0.3425 0.4592
vn -0.7297 0.6128 0.3034
vn -0.7431 0.5804 0.3332
vn 0.7397 0.5324 0.4116
vn 0.7410 0.5200 0.4249
vn -0.7364 -0.5705 -0.3635
vn -0.6990 -0.5474 -0.4602
vn 0.8914 0.0614 -0.4491
vn 0.8914 0.3576 -0.2784
vn -0.6852 0.6895 0.2346
vn 0.7565 0.6470 0.0951
vn 0.7627 0.5624 0.3194
vn 0.7597 -0.6319 -0.1533
vn 0.7615 -0.6078 -0.2250
vn -0.8072 0.3605 -0.4674
vn -0.8070 0.2240 -0.5464
vn -0.6852 -0.5478 -0.4799
vn -0.5334 -0.6910 -0.4879
vn -0.7522 0.5814 0.3101
vn -0.7375 0.6641 0.1228
vn 0.7628 -0.5577 -0.3272
vn 0.8119 0.2334 -0.5351
vn 0.8122 0.3459 -0.4698
vn -0.6304 -0.6324 -0.4501
vn -0.7368 -0.5853 -0.3383
vn 0.6166 0.6870 0.3846
vn -0.7393 -0.5742 -0.3518
vn -0.8664 0.3724 -0.3328
vn -0.8663 0.1012 -0.4891
vn -0.7430 -0.5789 -0.3360
vn 0.7596 0.4254 0.4920
vn 0.7069 0.2133 0.6744
vn 0.7497 -0.6169 -0.2397
vn -0.7296 -0.5693 -0.3790
vn -0.6284 0.7007 0.3380
vn -0.6697 0.7308 0.1322
vn 0.7567 -0.4065 -0.5120
vn 0.7181 0.3770 0.5850
vn 0.6775 0.3018 0.6707
vn -0.7327 -0.4453 -0.5146
vn 0.7997 0.5981 0.0524
vn 0.6190 -0.6788 -0.3950
vn 0.7994 -0.3469 -0.4905
vn 0.6721 -0.1946 0.7145
vn 0.7712 -0.2954 0.5640
vn 0.7756 0.5262 -0.3488
vn 0.7068 -0.6908 0.1522
vn 0.7596 -0.6388 -0.1224
vn -0.7960 0.6050 -0.0191
vn -0.7739 0.5501 -0.3138
vn -0.6646 -0.4844 -0.5689
vn -0.6272 -0.6427 -0.4399
vn -0.8853 -0.0298 0.4640
vn -0.7506 0.4516 0.4824
vn 0.6713 -0.5237 0.5245
vn 0.6785 -0.7308 0.0745
vn 0.7232 -0.6899 -0.0329
vn 0.7557 -0.0505 0.6530
vn -0.8004 0.2902 0.5246
vn 0.7751 0.0366 -0.6308
vn -0.7730 -0.0069 -0.6343
vn 0.7552 -0.5421 0.3684
vn -0.7953 -0.2889 -0.5329
vn -0.7997 -0.6003 0.0083
vn -0.8552 -0.3774 0.3552
vn 0.7714 0.5095 0.3812
vn -0.7496 -0.6441 -0.1527
vn -0.8853 -0.3876 0.2570
vn -0.7133 0.6590 0.2385
vn 0.7707 -0.3417 0.5378
vn 0.7463 0.4581 0.4829
vn -0.5338 0.7669 0.3563
vn 0.7588 0.5637 0.3263
vn -0.6307 0.7067 0.3208
vn -0.7514 0.5858 0.3038
vn -0.8553 -0.1197 0.5042
vn -0.7368 0.5857 0.3377
vt 0.903594 0.228112
vt 0.909550 0.117977
vt 0.875710 0.123184
vt 0.861603 0.231861
vt 0.794526 0.236345
vt 0.821818 0.126670
vt 0.778854 0.129449
vt 0.746792 0.240349
vt 0.910545 0.337476
vt 0.868295 0.339193
vt 0.797261 0.344694
vt 0.738530 0.350492
vt 0.917219 0.446795
vt 0.875237 0.446509
vt 0.799860 0.451572
vt 0.729660 0.457268
vt 0.925025 0.560733
vt 0.885064 0.563371
vt 0.804992 0.568562
vt 0.725006 0.573649
vt 0.938921 0.001643
vt 0.912856 0.003285
vt 0.866519 0.006241
vt 0.834625 0.008296
vt 0.222049 0.253245
vt 0.263961 0.257691
vt 0.251667 0.148794
vt 0.217929 0.143028
vt 0.330954 0.263291
vt 0.378625 0.268086
vt 0.348405 0.156670
vt 0.305494 0.153176
vt 0.213281 0.362476
vt 0.255484 0.364897
vt 0.326417 0.371578
vt 0.385045 0.378350
vt 0.204789 0.471668
vt 0.246759 0.472082
vt 0.322041 0.478398
vt 0.392137 0.485261
vt 0.195096 0.585455
vt 0.235005 0.588758
vt 0.314974 0.595279
vt 0.394859 0.601697
vt 0.216545 0.028301
vt 0.190513 0.026225
vt 0.294676 0.034613
vt 0.262823 0.032028
vt 0.180003 0.605877
vt 0.225893 0.609629
vt 0.317727 0.617109
vt 0.409531 0.624557
vt 0.285949 0.012320
vt 0.249229 0.009333
vt 0.715609 0.657002
vt 0.715594 0.688962
vt 0.752845 0.704231
vt 0.752859 0.667388
vt 0.800866 0.669498
vt 0.800852 0.707820
vt 0.812961 0.704254
vt 0.812976 0.667413
vt 0.715333 0.808576
vt 0.715395 0.728428
vt 0.678153 0.711820
vt 0.678115 0.803928
vt 0.630104 0.802486
vt 0.630136 0.706699
vt 0.618012 0.711803
vt 0.617975 0.803909
vt 0.715330 0.928865
vt 0.715317 0.888817
vt 0.678092 0.896071
vt 0.678087 0.942116
vt 0.630069 0.946179
vt 0.630078 0.898290
vt 0.617951 0.896048
vt 0.617946 0.942092
vt 0.800829 0.764053
vt 0.800815 0.796109
vt 0.812920 0.789005
vt 0.812937 0.758262
vt 0.715558 0.735393
vt 0.715529 0.761510
vt 0.752803 0.788985
vt 0.752820 0.758241
vt 0.195399 0.004963
vt 0.164756 0.002482
vt 0.770756 0.796099
vt 0.770771 0.764043
vt 0.660149 0.898301
vt 0.660139 0.946191
vt 0.660206 0.706707
vt 0.660174 0.802495
vt 0.770793 0.707808
vt 0.770808 0.669486
vt 0.898454 0.228109
vt 0.866762 0.232076
vt 0.880598 0.124341
vt 0.904557 0.117136
vt 0.788667 0.235746
vt 0.752572 0.241327
vt 0.784430 0.131283
vt 0.816146 0.125146
vt 0.905419 0.337796
vt 0.873421 0.338866
vt 0.791477 0.344848
vt 0.744299 0.350915
vt 0.912098 0.447130
vt 0.880356 0.446135
vt 0.794115 0.451787
vt 0.735398 0.457557
vt 0.919982 0.561944
vt 0.890121 0.562452
vt 0.799258 0.568542
vt 0.730703 0.574545
vt 0.917405 0.005640
vt 0.934361 -0.000764
vt 0.840514 0.010224
vt 0.860698 0.004267
vt 0.227188 0.253328
vt 0.222935 0.142270
vt 0.246762 0.149869
vt 0.258800 0.257820
vt 0.336825 0.262798
vt 0.311195 0.151753
vt 0.342794 0.158405
vt 0.372825 0.268958
vt 0.218400 0.362881
vt 0.250365 0.364485
vt 0.332199 0.371825
vt 0.379269 0.378679
vt 0.209903 0.472088
vt 0.241648 0.471624
vt 0.327782 0.478703
vt 0.386395 0.485461
vt 0.200119 0.586744
vt 0.229972 0.587884
vt 0.320703 0.595440
vt 0.389154 0.602192
vt 0.195115 0.023903
vt 0.212157 0.029758
vt 0.268587 0.031003
vt 0.288864 0.035511
vt 0.184903 0.607224
vt 0.220846 0.608655
vt 0.323428 0.617216
vt 0.403958 0.625223
vt 0.280013 0.012570
vt 0.255110 0.008747
vt 0.713226 0.662726
vt 0.752040 0.673264
vt 0.754046 0.698448
vt 0.718188 0.683295
vt 0.800989 0.675414
vt 0.813521 0.673289
vt 0.812161 0.698470
vt 0.800644 0.701904
vt 0.715832 0.802852
vt 0.678516 0.798243
vt 0.676861 0.717300
vt 0.713765 0.734076
vt 0.630023 0.796788
vt 0.617708 0.798223
vt 0.618876 0.717284
vt 0.630420 0.712397
vt 0.714091 0.923785
vt 0.676446 0.937118
vt 0.678724 0.901192
vt 0.716111 0.893908
vt 0.630304 0.940995
vt 0.618674 0.937075
vt 0.617527 0.901169
vt 0.629948 0.903473
vt 0.801157 0.769068
vt 0.814091 0.762911
vt 0.811537 0.784518
vt 0.800395 0.791095
vt 0.712424 0.739654
vt 0.751088 0.762887
vt 0.755991 0.784644
vt 0.718837 0.757260
vt 0.190767 0.006165
vt 0.169226 0.001007
vt 0.770437 0.769057
vt 0.771182 0.791085
vt 0.659906 0.941007
vt 0.660277 0.903484
vt 0.660258 0.796797
vt 0.659917 0.712405
vt 0.770680 0.675402
vt 0.771007 0.701893
s 1
f 292/193/241 293/194/242 258/195/243 255/196/244
f 254/197/245 257/198/246 256/199/247 253/200/248
f 291/201/249 292/193/241 255/196/244 252/202/250
f 251/203/251 254/197/245 253/200/248 250/204/252
f 290/205/253 291/201/249 252/202/250 249/206/254
f 248/207/255 251/203/251 250/204/252 247/208/256
f 294/209/257 290/205/253 249/206/254 241/210/258
f 242/211/259 248/207/255 247/208/256 243/212/260
f 293/194/242 289/213/261 246/214/262 258/195/243
f 257/198/246 245/215/263 244/216/264 256/199/247
f 298/217/265 273/218/266 276/219/267 299/220/268
f 272/221/269 271/222/270 274/223/271 275/224/272
f 297/225/273 270/226/274 273/218/266 298/217/265
f 269/227/275 268/228/276 271/222/270 272/221/269
f 296/229/277 267/230/278 270/226/274 297/225/273
f 266/231/279 265/232/280 268/228/276 269/227/275
f 300/233/281 259/234/282 267/230/278 296/229/277
f 260/235/283 261/236/284 265/232/280 266/231/279
f 299/220/268 276/219/267 264/237/285 295/238/286
f 275/224/272 274/223/271 262/239/287 263/240/288
f 304/241/289 280/242/290 259/234/282 300/233/281
f 282/243/291 277/244/292 261/236/284 260/235/283
f 286/245/293 288/246/294 263/240/288 262/239/287
f 244/247/264 245/248/263 287/249/295 285/250/296
f 309/251/297 310/252/298 288/253/294 286/254/293
f 242/255/259 243/256/260 278/257/299 281/258/300
f 307/259/301 305/260/302 277/261/292 282/262/291
f 294/263/257 241/264/258 279/265/303 303/266/304
f 311/267/305 306/268/306 280/269/290 304/270/289
f 308/271/307 312/272/308 302/273/309 283/274/310
f 246/275/262 289/276/261 301/277/311 284/278/312
f 283/279/310 302/280/309 295/238/286 264/237/285
f 284/278/312 301/277/311 320/281/313 316/282/314
f 303/266/304 279/265/303 314/283/315 319/284/316
f 281/258/300 278/257/299 313/285/317 315/286/318
f 285/250/296 287/249/295 318/287/319 317/288/320
f 312/272/308 308/271/307 316/282/314 320/281/313
f 318/287/319 310/252/298 309/251/297 317/288/320
f 305/260/302 307/259/301 315/286/318 313/285/317
f 306/268/306 311/267/305 319/284/316 314/283/315
f 472/289/321 335/290/322 336/291/323 469/292/324
f 403/293/325 405/294/326 406/295/327 404/296/328
f 471/297/329 337/298/330 335/290/322 472/289/321
f 408/299/331 409/300/332 405/294/326 403/293/325
f 470/301/333 338/302/334 337/298/330 471/297/329
f 411/303/335 412/304/336 409/300/332 408/299/331
f 457/305/337 413/306/338 338/302/334 470/301/333
f 414/307/339 415/308/340 412/304/336 411/303/335
f 469/292/324 336/291/323 339/309/341 460/310/342
f 404/296/328 406/295/327 418/311/343 417/312/344
f 468/313/345 465/314/346 355/315/347 354/316/348
f 421/317/349 422/318/350 424/319/351 423/320/352
f 467/321/353 468/313/345 354/316/348 356/322/354
f 426/323/355 421/317/349 423/320/352 427/324/356
f 466/325/357 467/321/353 356/322/354 357/326/358
f 429/327/359 426/323/355 427/324/356 430/328/360
f 463/329/361 466/325/357 357/326/358 431/330/362
f 432/331/363 429/327/359 430/328/360 433/332/364
f 465/314/346 461/333/365 358/334/366 355/315/347
f 422/318/350 435/335/367 436/336/368 424/319/351
f 464/337/369 463/329/361 431/330/362 360/338/370
f 361/339/371 432/331/363 433/332/364 365/340/372
f 363/341/373 436/336/368 435/335/367 364/342/374
f 418/343/343 373/344/375 375/345/376 417/346/344
f 374/347/377 363/348/373 364/349/374 376/350/378
f 414/351/339 369/352/379 359/353/380 415/354/340
f 370/355/381 361/356/371 365/357/372 393/358/382
f 457/359/337 456/360/383 367/361/384 413/362/338
f 395/363/385 464/364/369 360/365/370 368/366/386
f 394/367/387 371/368/388 462/369/389 396/370/390
f 339/371/341 362/372/391 459/373/392 460/374/342
f 371/375/388 358/334/366 461/333/365 462/376/389
f 362/372/391 372/377/393 392/378/394 459/373/392
f 456/360/383 391/379/395 397/380/396 367/361/384
f 369/352/379 398/381/397 366/382/398 359/353/380
f 373/344/375 399/383/399 400/384/400 375/345/376
f 396/370/390 392/378/394 372/377/393 394/367/387
f 400/384/400 399/383/399 374/347/377 376/350/378
f 393/358/382 366/382/398 398/381/397 370/355/381
f 368/366/386 397/380/396 391/379/395 395/363/385
f 252/202/250 255/196/244 401/196/401 407/202/402
f 317/288/320 309/251/297 452/251/403 479/288/404
f 297/225/273 298/217/265 387/217/405 386/225/406
f 268/228/276 265/232/280 346/232/407 348/228/408
f 254/197/245 251/203/251 330/203/409 332/197/410
f 305/260/302 313/285/317 444/285/411 473/260/412
f 298/217/265 299/220/268 388/220/413 387/217/405
f 267/230/278 259/234/282 341/234/414 428/230/415
f 250/204/252 253/200/248 331/200/416 329/204/417
f 315/286/318 307/259/301 448/259/418 478/286/419
f 289/213/261 293/194/242 383/194/420 379/213/421
f 260/235/283 266/231/279 347/231/422 342/235/423
f 249/206/254 252/202/250 407/202/402 410/206/424
f 306/268/306 314/283/315 477/283/425 446/268/426
f 290/205/253 294/209/257 321/209/427 380/205/428
f 265/232/280 261/236/284 343/236/429 346/232/407
f 251/203/251 248/207/255 328/207/430 330/203/409
f 319/284/316 311/267/305 475/267/431 455/284/432
f 291/201/249 290/205/253 380/205/428 381/201/433
f 264/237/285 276/219/267 420/219/434 434/237/435
f 247/208/256 250/204/252 329/204/417 327/208/436
f 292/193/241 291/201/249 381/201/433 382/193/437
f 275/224/272 263/240/288 345/240/438 353/224/439
f 241/210/258 249/206/254 410/206/424 322/210/440
f 293/194/242 292/193/241 382/193/437 383/194/420
f 262/239/287 274/223/271 352/223/441 344/239/442
f 248/207/255 242/211/259 323/211/443 328/207/430
f 277/261/292 305/260/302 473/260/412 443/261/444
f 278/257/299 243/256/260 324/256/445 437/257/446
f 243/212/260 247/208/256 327/208/436 324/212/445
f 308/271/307 283/274/310 449/274/447 474/271/448
f 259/234/282 280/242/290 438/242/449 341/234/414
f 258/195/243 246/214/262 416/214/450 402/195/451
f 311/267/305 304/270/289 390/270/452 475/267/431
f 282/243/291 260/235/283 342/235/423 439/243/453
f 245/215/263 257/198/246 334/198/454 326/215/455
f 302/273/309 312/272/308 476/272/456 378/273/457
f 246/275/262 284/278/312 440/278/458 416/275/450
f 256/199/247 244/216/264 325/216/459 333/199/460
f 286/245/293 262/239/287 344/239/442 441/245/461
f 263/240/288 288/246/294 442/246/462 345/240/438
f 261/236/284 277/244/292 443/244/444 343/236/429
f 313/285/317 278/257/299 437/257/446 444/285/411
f 314/283/315 279/265/303 445/265/463 477/283/425
f 279/265/303 241/264/258 322/264/440 445/265/463
f 281/258/300 315/286/318 478/286/419 447/258/464
f 280/269/290 306/268/306 446/268/426 438/269/449
f 285/250/296 317/288/320 479/288/404 451/250/465
f 303/266/304 319/284/316 455/284/432 389/266/466
f 242/255/259 281/258/300 447/258/464 323/255/443
f 318/287/319 287/249/295 453/249/467 480/287/468
f 294/263/257 303/266/304 389/266/466 321/263/427
f 307/259/301 282/262/291 439/262/453 448/259/418
f 276/219/267 273/218/266 419/218/469 420/219/434
f 320/281/313 301/277/311 377/277/470 458/281/471
f 283/279/310 264/237/285 434/237/435 449/279/447
f 272/221/269 275/224/272 353/224/439 351/221/472
f 301/277/311 289/276/261 379/276/421 377/277/470
f 284/278/312 316/282/314 450/282/473 440/278/458
f 274/223/271 271/222/270 350/222/474 352/223/441
f 295/238/286 302/280/309 378/280/457 384/238/475
f 244/247/264 285/250/296 451/250/465 325/247/459
f 273/218/266 270/226/274 425/226/476 419/218/469
f 304/241/289 300/233/281 340/233/477 390/241/452
f 309/251/297 286/254/293 441/254/461 452/251/403
f 269/227/275 272/221/269 351/221/472 349/227/478
f 255/196/244 258/195/243 402/195/451 401/196/401
f 310/252/298 318/287/319 480/287/468 454/252/479
f 299/220/268 295/238/286 384/238/475 388/220/413
f 287/249/295 245/248/263 326/248/455 453/249/467
f 271/222/270 268/228/276 348/228/408 350/222/474
f 257/198/246 254/197/245 332/197/410 334/198/454
f 316/282/314 308/271/307 474/271/448 450/282/473
f 300/233/281 296/229/277 385/229/480 340/233/477
f 288/253/294 310/252/298 454/252/479 442/253/462
f 270/226/274 267/230/278 428/230/415 425/226/476
f 253/200/248 256/199/247 333/199/460 331/200/416
f 312/272/308 320/281/313 458/281/471 476/272/456
f 296/229/277 297/225/273 386/225/406 385/229/480
f 266/231/279 269/227/275 349/227/478 347/231/422
f 336/291/323 335/290/322 401/196/401 402/195/451
f 403/293/325 404/296/328 334/198/454 332/197/410
f 406/295/327 405/294/326 331/200/416 333/199/460
f 335/290/322 337/298/330 407/202/402 401/196/401
f 408/299/331 403/293/325 332/197/410 330/203/409
f 405/294/326 409/300/332 329/204/417 331/200/416
f 337/298/330 338/302/334 410/206/424 407/202/402
f 411/303/335 408/299/331 330/203/409 328/207/430
f 409/300/332 412/304/336 327/208/436 329/204/417
f 338/302/334 413/306/338 322/210/440 410/206/424
f 414/307/339 411/303/335 328/207/430 323/211/443
f 412/304/336 415/308/340 324/212/445 327/208/436
f 339/309/341 336/291/323 402/195/451 416/214/450
f 404/296/328 417/312/344 326/215/455 334/198/454
f 418/311/343 406/295/327 333/199/460 325/216/459
f 354/316/348 355/315/347 420/219/434 419/218/469
f 422/318/350 421/317/349 351/221/472 353/224/439
f 423/320/352 424/319/351 352/223/441 350/222/474
f 356/322/354 354/316/348 419/218/469 425/226/476
f 421/317/349 426/323/355 349/227/478 351/221/472
f 427/324/356 423/320/352 350/222/474 348/228/408
f 357/326/358 356/322/354 425/226/476 428/230/415
f 426/323/355 429/327/359 347/231/422 349/227/478
f 430/328/360 427/324/356 348/228/408 346/232/407
f 431/330/362 357/326/358 428/230/415 341/234/414
f 429/327/359 432/331/363 342/235/423 347/231/422
f 433/332/364 430/328/360 346/232/407 343/236/429
f 355/315/347 358/334/366 434/237/435 420/219/434
f 435/335/367 422/318/350 353/224/439 345/240/438
f 424/319/351 436/336/368 344/239/442 352/223/441
f 415/354/340 359/353/380 437/257/446 324/256/445
f 360/338/370 431/330/362 341/234/414 438/242/449
f 432/331/363 361/339/371 439/243/453 342/235/423
f 362/372/391 339/371/341 416/275/450 440/278/458
f 436/336/368 363/341/373 441/245/461 344/239/442
f 364/342/374 435/335/367 345/240/438 442/246/462
f 365/340/372 433/332/364 343/236/429 443/244/444
f 359/353/380 366/382/398 444/285/411 437/257/446
f 413/362/338 367/361/384 445/265/463 322/264/440
f 368/366/386 360/365/370 438/269/449 446/268/426
f 369/352/379 414/351/339 323/255/443 447/258/464
f 361/356/371 370/355/381 448/259/418 439/262/453
f 358/334/366 371/375/388 449/279/447 434/237/435
f 372/377/393 362/372/391 440/278/458 450/282/473
f 373/344/375 418/343/343 325/247/459 451/250/465
f 363/348/373 374/347/377 452/251/403 441/254/461
f 417/346/344 375/345/376 453/249/467 326/248/455
f 376/350/378 364/349/374 442/253/462 454/252/479
f 391/379/395 456/360/383 389/266/466 455/284/432
f 456/360/383 457/359/337 321/263/427 389/266/466
f 459/373/392 392/378/394 458/281/471 377/277/470
f 460/374/342 459/373/392 377/277/470 379/276/421
f 462/376/389 461/333/365 384/238/475 378/280/457
f 463/329/361 464/337/369 390/241/452 340/233/477
f 461/333/365 465/314/346 388/220/413 384/238/475
f 466/325/357 463/329/361 340/233/477 385/229/480
f 467/321/353 466/325/357 385/229/480 386/225/406
f 468/313/345 467/321/353 386/225/406 387/217/405
f 465/314/346 468/313/345 387/217/405 388/220/413
f 469/292/324 460/310/342 379/213/421 383/194/420
f 457/305/337 470/301/333 380/205/428 321/209/427
f 470/301/333 471/297/329 381/201/433 380/205/428
f 471/297/329 472/289/321 382/193/437 381/201/433
f 472/289/321 469/292/324 383/194/420 382/193/437
f 393/358/382 365/357/372 443/261/444 473/260/412
f 371/368/388 394/367/387 474/271/448 449/274/447
f 464/364/369 395/363/385 475/267/431 390/270/452
f 396/370/390 462/369/389 378/273/457 476/272/456
f 367/361/384 397/380/396 477/283/425 445/265/463
f 398/381/397 369/352/379 447/258/464 478/286/419
f 399/383/399 373/344/375 451/250/465 479/288/404
f 375/345/376 400/384/400 480/287/468 453/249/467
f 400/384/400 376/350/378 454/252/479 480/287/468
f 394/367/387 372/377/393 450/282/473 474/271/448
f 392/378/394 396/370/390 476/272/456 458/281/471
f 374/347/377 399/383/399 479/288/404 452/251/403
f 366/382/398 393/358/382 473/260/412 444/285/411
f 370/355/381 398/381/397 478/286/419 448/259/418
f 397/380/396 368/366/386 446/268/426 477/283/425
f 395/363/385 391/379/395 455/284/432 475/267/431
o Bomber_Tailwing_Trim_Left
v -4.134990 0.892924 -0.338984
v -3.855659 0.892938 -0.338960
v -3.656590 0.892828 -0.339151
v -4.029595 0.180626 -1.572721
v -4.105455 0.180637 -1.572701
v -4.298342 0.180690 -1.572611
v -3.687692 0.739408 -0.592574
v -3.861888 0.739367 -0.595954
v -4.129216 0.739361 -0.596501
v -3.727954 0.601983 -0.826127
v -3.872900 0.601912 -0.831973
v -4.129216 0.601880 -0.834625
v -3.767206 0.464434 -1.069641
v -3.883800 0.464405 -1.072322
v -4.129857 0.464399 -1.072748
v -3.867312 0.326919 -1.310871
v -3.971536 0.326919 -1.310871
v -4.183787 0.326919 -1.310871
v -4.134981 0.606287 -0.173513
v -3.855664 0.606300 -0.173490
v -3.656610 0.606191 -0.173680
v -4.029564 -0.105994 -1.407220
v -4.105419 -0.105983 -1.407201
v -4.298297 -0.105931 -1.407110
v -3.687692 0.460080 -0.431304
v -3.861888 0.460039 -0.434684
v -4.129216 0.460033 -0.435231
v -3.727954 0.322655 -0.664857
v -3.872900 0.322584 -0.670703
v -4.129216 0.322552 -0.673354
v -3.767182 0.185103 -0.908376
v -3.883800 0.185077 -0.911052
v -4.129857 0.185071 -0.911478
v -3.867303 0.047591 -1.149601
v -3.971526 0.047591 -1.149601
v -4.183777 0.047591 -1.149601
v -3.614161 0.673323 -0.148817
v -3.614150 0.881239 -0.268849
v -4.153560 0.881268 -0.268799
v -4.153555 0.673352 -0.148767
v -3.843799 0.881272 -0.268792
v -3.843802 0.673356 -0.148760
v -4.356711 -0.093949 -1.477771
v -4.356727 0.113959 -1.597816
v -4.056121 0.113940 -1.597848
v -4.056114 -0.093968 -1.477803
v -4.144464 0.113944 -1.597843
v -4.144454 -0.093965 -1.477798
v -4.374060 0.180745 -1.572515
v -4.245223 0.745023 -0.590925
v -4.246236 0.605009 -0.833437
v -4.246552 0.464915 -1.076087
v -4.279925 0.324902 -1.318595
v -4.246328 0.892856 -0.339103
v -4.374011 -0.105876 -1.407015
v -4.245210 0.462042 -0.427552
v -4.246222 0.322029 -0.670061
v -4.246538 0.181937 -0.912707
v -4.279902 0.041926 -1.155213
v -4.246313 0.606218 -0.173632
v -4.444277 0.113976 -1.597786
v -4.444259 -0.093932 -1.477741
v -4.280231 0.881247 -0.268834
v -4.280222 0.673331 -0.148803
v -3.601096 0.722646 -0.158747
v -4.159273 0.722660 -0.158722
v -3.840150 0.722662 -0.158718
v -4.371537 -0.060707 -1.515552
v -4.061463 -0.060716 -1.515568
v -4.153589 -0.060714 -1.515565
v -4.290659 0.722650 -0.158739
v -4.462441 -0.060698 -1.515537
v -3.601090 0.848299 -0.231288
v -4.159276 0.848314 -0.231263
v -3.840149 0.848316 -0.231260
v -4.371544 0.064943 -1.588100
v -4.061467 0.064934 -1.588116
v -4.153594 0.064935 -1.588114
v -4.290663 0.848303 -0.231281
v -4.462450 0.064951 -1.588085
v -4.246220 0.920435 -0.342984
v -4.134851 0.920108 -0.345041
v -3.855581 0.920168 -0.344808
v -3.656528 0.920468 -0.342571
v -4.029596 0.200711 -1.592014
v -4.105457 0.196521 -1.595578
v -3.687442 0.763340 -0.606818
v -3.861620 0.763308 -0.610182
v -3.727537 0.626075 -0.840093
v -3.872479 0.626018 -0.845915
v -3.766879 0.488601 -1.083479
v -3.883512 0.488564 -1.086176
v -3.867206 0.351118 -1.324657
v -3.971472 0.351163 -1.324577
v -4.144208 0.490325 -1.087629
v -4.198208 0.352719 -1.325674
v -4.143590 0.628398 -0.848446
v -4.143714 0.766940 -0.608310
v -4.313394 0.204742 -1.594200
v -4.246206 0.589134 -0.151637
v -4.134844 0.587504 -0.152950
v -3.855726 0.587765 -0.152702
v -3.656655 0.589550 -0.151347
v -4.029566 -0.132763 -1.399532
v -4.105421 -0.133746 -1.404982
v -3.687940 0.435931 -0.417433
v -3.862152 0.435905 -0.420787
v -3.728372 0.298562 -0.650891
v -3.873321 0.298478 -0.656761
v -3.767510 0.160936 -0.894538
v -3.884087 0.160917 -0.897199
v -3.867409 0.023532 -1.135572
v -3.971590 0.023586 -1.135480
v -4.144213 0.159223 -0.896467
v -4.198202 0.021873 -1.134661
v -4.143594 0.297326 -0.657301
v -4.143717 0.436019 -0.417251
v -4.313360 -0.136692 -1.397145
v -3.623628 0.908658 -0.244932
v -4.168566 0.670871 -0.114447
v -3.827348 0.671904 -0.114269
v -4.372946 0.121352 -1.631264
v -4.070172 -0.125147 -1.492127
v -4.131159 -0.121756 -1.501011
v -3.623640 0.680416 -0.113135
v -3.611031 0.869052 -0.202147
v -4.168570 0.912277 -0.253910
v -4.174446 0.734889 -0.125555
v -3.827345 0.911915 -0.252907
v -3.823620 0.735170 -0.125623
v -4.372934 -0.126581 -1.488243
v -4.388704 0.053942 -1.621604
v -4.070179 0.117255 -1.631986
v -4.075717 -0.083316 -1.542802
v -4.131171 0.107824 -1.633539
v -4.139996 -0.081840 -1.544296
v -4.444287 0.113006 -1.625620
v -4.444269 -0.117511 -1.492564
v -4.373947 0.196464 -1.595505
v -4.244851 0.769063 -0.604982
v -4.245731 0.629124 -0.847361
v -4.246020 0.489006 -1.090050
v -4.279499 0.349054 -1.332458
v -4.373899 -0.133653 -1.404995
v -4.244840 0.437848 -0.413761
v -4.245721 0.297913 -0.656139
v -4.246010 0.157799 -0.898825
v -4.279479 0.017845 -1.141229
v -4.280240 0.905609 -0.255337
v -4.280232 0.672929 -0.120955
v -4.278358 0.869320 -0.202433
v -4.451751 0.049352 -1.620436
v -3.611037 0.737532 -0.126220
v -4.388697 -0.084185 -1.541865
v -4.278353 0.737153 -0.126130
v -4.451742 -0.080890 -1.545231
v -4.174448 0.870956 -0.204118
v -3.823618 0.870757 -0.203908
v -4.075720 0.052690 -1.621321
v -4.140001 0.050646 -1.620790
v -4.129328 0.488494 -1.086706
v -4.183314 0.351042 -1.324782
v -3.867482 0.488058 -1.090280
v -3.957066 0.348309 -1.333198
v -3.778026 0.491352 -1.082516
v -3.878445 0.353565 -1.323807
v -4.128711 0.625995 -0.848548
v -3.856269 0.627716 -0.846055
v -3.738516 0.629460 -0.838124
v -4.128832 0.763407 -0.610547
v -3.845302 0.766416 -0.608021
v -3.698088 0.767825 -0.602887
v -4.149761 0.925228 -0.341736
v -3.839210 0.925125 -0.340911
v -3.666756 0.925305 -0.333841
v -4.298105 0.201446 -1.591179
v -4.092339 0.190523 -1.605931
v -4.042789 0.202496 -1.594996
v -4.129332 0.160936 -0.897590
v -4.183308 0.023482 -1.135666
v -3.868060 0.157355 -0.899521
v -3.957181 0.017486 -1.142213
v -3.778666 0.160614 -0.891820
v -3.878654 0.023104 -1.133077
v -4.128715 0.298436 -0.659432
v -3.857119 0.297111 -0.655133
v -3.739359 0.298885 -0.647151
v -4.128835 0.435846 -0.421429
v -3.845839 0.435973 -0.416888
v -3.698590 0.437322 -0.411692
v -4.149754 0.587811 -0.146853
v -3.839364 0.588593 -0.146434
v -3.666863 0.594763 -0.142839
v -4.298062 -0.132407 -1.398473
v -4.092295 -0.139695 -1.415341
v -4.042766 -0.136249 -1.399489
v -3.614142 0.905394 -0.254985
v -4.153566 0.670314 -0.121082
v -3.843793 0.670620 -0.121044
v -4.356740 0.118447 -1.625302
v -4.056116 -0.119547 -1.488821
v -4.144456 -0.118225 -1.491477
v -3.614152 0.673337 -0.120966
v -3.601086 0.865648 -0.209501
v -4.153571 0.906810 -0.257696
v -4.159279 0.732356 -0.132613
v -3.843790 0.906690 -0.257408
v -3.840145 0.732410 -0.132629
v -4.356725 -0.119951 -1.487749
v -4.371551 0.055508 -1.614304
v -4.056124 0.117308 -1.625495
v -4.061465 -0.078479 -1.537019
v -4.144466 0.114316 -1.625691
v -4.153590 -0.078147 -1.537286
v -4.290668 0.865718 -0.209546
v -4.268210 0.909172 -0.246072
v -4.233512 0.924924 -0.335366
v -4.462456 0.054616 -1.613947
v -4.434637 0.103837 -1.633870
v -4.363565 0.189091 -1.605896
v -4.363508 -0.138940 -1.416563
v -4.434613 -0.120044 -1.504607
v -4.233497 0.593483 -0.143956
v -4.268199 0.679168 -0.113257
v -4.267320 0.012935 -1.146412
v -4.232101 0.438411 -0.409549
v -4.232992 0.297224 -0.654273
v -4.233284 0.155396 -0.899957
v -4.267340 0.347017 -1.339301
v -4.232112 0.772428 -0.602388
v -4.233003 0.631083 -0.847024
v -4.233295 0.489225 -1.092696
v -3.601091 0.732864 -0.132838
v -4.371543 -0.078654 -1.536848
v -4.290665 0.732791 -0.132801
v -4.462447 -0.077909 -1.537433
v -4.159281 0.866102 -0.209834
v -3.840144 0.866061 -0.209794
v -4.061468 0.055269 -1.614236
v -4.153595 0.054867 -1.614081
vn -0.7056 -0.5912 0.3907
vn -0.6900 -0.5418 0.4799
vn 0.6786 -0.7114 0.1828
vn 0.7114 -0.6407 0.2888
vn -0.6718 -0.5763 0.4654
vn -0.6648 -0.4897 0.5642
vn 0.6471 -0.7561 0.0978
vn 0.7004 -0.6876 0.1913
vn -0.7198 -0.6004 0.3485
vn 0.6948 -0.6232 0.3590
vn -0.7155 -0.5902 0.3738
vn 0.6870 -0.6731 0.2737
vn -0.7147 -0.6039 0.3529
vn 0.6977 -0.6150 0.3673
vn -0.7094 -0.5948 0.3781
vn 0.7026 -0.6522 0.2846
vn -0.7541 -0.6547 -0.0524
vn 0.7902 -0.5696 0.2262
vn -0.7972 -0.5736 0.1885
vn 0.7343 -0.6671 -0.1256
vn -0.6670 -0.0796 0.7408
vn 0.6777 -0.7185 0.1563
vn -0.7117 -0.0909 0.6966
vn 0.7027 -0.6697 0.2401
vn -0.7055 0.6340 -0.3167
vn 0.7115 0.5703 -0.4104
vn 0.6786 0.5140 -0.5247
vn -0.6900 0.6865 -0.2293
vn -0.6557 0.7050 -0.2703
vn 0.7148 0.5006 -0.4882
vn 0.6518 0.4602 -0.6027
vn -0.6606 0.7368 -0.1439
vn -0.7197 0.6021 -0.3458
vn 0.6949 0.6224 -0.3602
vn -0.6977 0.6338 -0.3339
vn 0.7105 0.5517 -0.4368
vn -0.7146 0.6076 -0.3466
vn 0.6978 0.6255 -0.3490
vn -0.6954 0.6333 -0.3397
vn 0.7144 0.5574 -0.4230
vn -0.7551 0.2798 -0.5930
vn 0.7909 0.4789 -0.3810
vn -0.7935 0.4515 -0.4081
vn 0.7370 0.2169 -0.6401
vn 0.6786 0.4953 -0.5424
vn -0.6680 0.6793 0.3037
vn 0.7041 0.5426 -0.4581
vn -0.7123 0.6474 0.2711
vn -0.7428 -0.2078 -0.6365
vn 0.7570 0.1893 -0.6254
vn -0.7658 0.1402 -0.6276
vn 0.7248 -0.2645 -0.6362
vn 0.7461 0.6544 0.1228
vn -0.7424 0.4340 0.5104
vn -0.7424 0.2240 0.6314
vn 0.7463 -0.2241 0.6267
vn 0.7371 0.4563 0.4984
vn -0.7549 0.3613 0.5474
vn 0.7245 -0.4204 -0.5463
vn -0.7667 -0.6134 -0.1896
vn -0.7399 -0.2136 -0.6379
vn 0.7565 -0.3186 -0.5711
vn 0.7572 -0.6368 -0.1453
vn -0.7428 -0.4481 -0.4974
vn -0.7553 -0.3018 -0.5817
vn 0.7364 -0.2015 -0.6458
vn 0.7182 0.5122 0.4711
vn -0.7575 0.3013 0.5792
vn -0.6680 0.3461 0.6588
vn 0.6796 0.7326 -0.0386
vn -0.6675 0.3969 0.6300
vn 0.6792 -0.4036 0.6130
vn -0.7577 0.3509 0.5502
vn 0.7183 0.1506 0.6792
vn 0.7367 -0.4591 -0.4965
vn -0.7556 -0.3529 -0.5518
vn 0.7568 -0.3352 -0.5612
vn -0.7402 -0.4461 -0.5031
vn -0.7552 0.2929 0.5864
vn 0.7374 0.2024 0.6444
vn -0.0473 0.8665 -0.4970
vn 0.0802 0.8592 -0.5054
vn 0.0902 0.8513 -0.5169
vn -0.0424 0.8701 -0.4911
vn -0.0389 0.8708 -0.4901
vn 0.0906 0.8546 -0.5114
vn 0.0860 0.8460 -0.5262
vn -0.0474 0.8762 -0.4797
vn -0.0513 0.8649 -0.4993
vn 0.0764 0.8635 -0.4986
vn -0.0405 0.8661 -0.4983
vn 0.0904 0.8559 -0.5092
vn -0.0430 0.8650 -0.4999
vn 0.0759 0.8619 -0.5013
vn -0.0465 0.8616 -0.5055
vn 0.0615 0.8563 -0.5127
vn -0.1117 0.9826 -0.1482
vn 0.1564 0.9768 -0.1465
vn -0.1311 0.9797 -0.1514
vn 0.1275 0.9803 -0.1509
vn 0.1329 0.6375 -0.7589
vn -0.0916 0.5907 -0.8017
vn 0.1277 0.6510 -0.7483
vn -0.1076 0.5961 -0.7956
vn -0.0475 -0.8636 0.5019
vn -0.0426 -0.8604 0.5079
vn 0.0901 -0.8733 0.4787
vn 0.0800 -0.8673 0.4914
vn -0.0580 -0.8612 0.5049
vn -0.0521 -0.8534 0.5186
vn 0.0783 -0.8800 0.4686
vn 0.0669 -0.8758 0.4780
vn -0.0514 -0.8648 0.4994
vn 0.0762 -0.8635 0.4985
vn -0.0681 -0.8626 0.5013
vn 0.0624 -0.8688 0.4911
vn -0.0430 -0.8654 0.4992
vn 0.0758 -0.8651 0.4959
vn -0.0646 -0.8635 0.5002
vn 0.0468 -0.8664 0.4971
vn -0.1122 -0.6174 0.7786
vn 0.1567 -0.6132 0.7742
vn -0.1366 -0.6163 0.7756
vn 0.1246 -0.6156 0.7781
vn -0.0918 -0.9900 0.1074
vn 0.1331 -0.9763 0.1707
vn -0.1082 -0.9874 0.1154
vn 0.1281 -0.9739 0.1875
vn -0.2406 -0.0864 0.9668
vn 0.1978 -0.0654 0.9781
vn -0.1860 -0.0635 0.9805
vn 0.2824 -0.0990 0.9542
vn 0.2061 -0.8818 -0.4242
vn -0.2302 -0.8793 -0.4170
vn 0.2058 0.0773 -0.9755
vn -0.2300 0.0817 -0.9698
vn 0.2312 -0.6163 -0.7528
vn -0.2630 -0.6196 -0.7395
vn -0.1857 0.8827 0.4317
vn 0.2823 0.8772 0.3884
vn -0.2032 0.3477 0.9153
vn 0.3434 0.3110 0.8862
vn -0.2404 0.8819 0.4056
vn 0.1975 0.8814 0.4291
vn -0.2878 0.3243 0.9011
vn 0.2162 0.3466 0.9128
vn 0.1904 -0.6193 -0.7617
vn 0.1656 -0.8895 -0.4258
vn -0.2530 -0.8814 -0.3989
vn -0.3281 -0.6197 -0.7130
vn 0.1651 0.0802 -0.9830
vn -0.2526 0.0982 -0.9626
vn 0.1904 -0.3488 -0.9177
vn -0.3282 -0.3066 -0.8934
vn -0.2878 0.6191 0.7307
vn 0.2162 0.6182 0.7557
vn -0.2032 0.6198 0.7580
vn 0.3435 0.6128 0.7117
vn 0.2311 -0.3427 -0.9106
vn -0.2631 -0.3296 -0.9067
vn 0.7715 0.5094 -0.3811
vn 0.7589 0.5636 -0.3262
vn 0.8199 -0.3417 -0.4593
vn 0.8197 -0.2264 -0.5262
vn -0.7297 -0.5692 0.3790
vn -0.7431 -0.5788 0.3360
vn 0.7397 -0.6227 0.2553
vn 0.7410 -0.6280 0.2379
vn -0.7364 0.6001 -0.3124
vn -0.6990 0.6723 -0.2440
vn 0.8914 0.3582 0.2777
vn 0.8914 0.0623 0.4488
vn -0.6852 -0.5480 0.4798
vn 0.7565 -0.4059 0.5128
vn 0.7627 -0.5578 0.3273
vn 0.7597 0.4488 -0.4706
vn 0.7615 0.4988 -0.4139
vn -0.8072 0.2245 0.5458
vn -0.8070 0.3612 0.4672
vn -0.6852 0.6895 -0.2345
vn -0.5334 0.7680 -0.3545
vn -0.7522 -0.5592 0.3485
vn -0.7375 -0.4384 0.5137
vn 0.7628 0.5623 -0.3194
vn 0.8119 0.3467 0.4697
vn 0.8122 0.2339 0.5344
vn -0.6304 0.7060 -0.3226
vn -0.7368 0.5857 -0.3377
vn 0.6166 -0.6766 0.4026
vn -0.7393 0.5918 -0.3214
vn -0.8664 0.1020 0.4889
vn -0.8663 0.3730 0.3322
vn -0.7430 0.5804 -0.3333
vn 0.7596 -0.6388 0.1224
vn 0.7069 -0.6907 -0.1525
vn 0.7497 0.5161 -0.4144
vn -0.7296 0.6129 -0.3035
vn -0.6284 -0.6430 0.4378
vn -0.6697 -0.4799 0.5668
vn 0.7567 0.6466 -0.0960
vn 0.7181 -0.6951 0.0341
vn 0.6775 -0.7318 -0.0740
vn -0.7327 0.6683 -0.1283
vn 0.7997 -0.3444 0.4918
vn 0.6190 0.6815 -0.3903
vn 0.7994 0.5982 -0.0552
vn 0.6721 -0.5214 -0.5258
vn 0.7712 -0.3407 -0.5378
vn 0.7756 0.0390 0.6301
vn 0.7068 0.2136 -0.6744
vn 0.7596 0.4254 -0.4920
vn -0.7960 -0.2860 0.5335
vn -0.7739 -0.0033 0.6333
vn -0.6646 0.7349 -0.1351
vn -0.6272 0.7023 -0.3366
vn -0.8853 -0.3870 -0.2578
vn -0.7506 -0.6435 0.1499
vn 0.6713 -0.1923 -0.7158
vn 0.6785 0.3009 -0.6701
vn 0.7232 0.3735 -0.5810
vn 0.7557 -0.5402 -0.3702
vn -0.8004 -0.5994 -0.0110
vn 0.7751 0.5280 0.3471
vn -0.7730 0.5528 0.3112
vn 0.7552 -0.0480 -0.6537
vn -0.7953 0.6060 0.0163
vn -0.7997 0.2929 -0.5240
vn -0.8552 -0.1189 -0.5045
vn 0.7714 -0.5849 0.2507
vn -0.7496 0.4543 -0.4814
vn -0.8853 -0.0287 -0.4642
vn -0.7133 -0.5361 0.4515
vn 0.7707 -0.2949 -0.5648
vn 0.7463 -0.6472 0.1552
vn -0.5338 -0.6920 0.4860
vn 0.7588 -0.5644 0.3250
vn -0.6307 -0.6311 0.4516
vn -0.7514 -0.5560 0.3554
vn -0.8553 -0.3768 -0.3558
vn -0.7368 -0.5853 0.3384
vt 0.903594 0.228112
vt 0.909550 0.117977
vt 0.875710 0.123184
vt 0.861603 0.231861
vt 0.794526 0.236345
vt 0.821818 0.126670
vt 0.778854 0.129449
vt 0.746792 0.240349
vt 0.910545 0.337476
vt 0.868295 0.339193
vt 0.797261 0.344694
vt 0.738530 0.350492
vt 0.917219 0.446795
vt 0.875237 0.446509
vt 0.799860 0.451572
vt 0.729660 0.457268
vt 0.925025 0.560733
vt 0.885064 0.563371
vt 0.804992 0.568562
vt 0.725006 0.573649
vt 0.938921 0.001643
vt 0.912856 0.003285
vt 0.866519 0.006241
vt 0.834625 0.008296
vt 0.222049 0.253245
vt 0.263961 0.257691
vt 0.251667 0.148794
vt 0.217929 0.143028
vt 0.330954 0.263291
vt 0.378625 0.268086
vt 0.348405 0.156670
vt 0.305494 0.153176
vt 0.213281 0.362476
vt 0.255484 0.364897
vt 0.326417 0.371578
vt 0.385045 0.378350
vt 0.204789 0.471668
vt 0.246759 0.472082
vt 0.322041 0.478398
vt 0.392137 0.485261
vt 0.195096 0.585455
vt 0.235005 0.588758
vt 0.314974 0.595279
vt 0.394859 0.601697
vt 0.216545 0.028301
vt 0.190513 0.026225
vt 0.294676 0.034613
vt 0.262823 0.032028
vt 0.180003 0.605877
vt 0.225893 0.609629
vt 0.317727 0.617109
vt 0.409531 0.624557
vt 0.285949 0.012320
vt 0.249229 0.009333
vt 0.715609 0.657002
vt 0.715594 0.688962
vt 0.752845 0.704231
vt 0.752859 0.667388
vt 0.800866 0.669498
vt 0.800852 0.707820
vt 0.812961 0.704254
vt 0.812976 0.667413
vt 0.715333 0.808576
vt 0.715395 0.728428
vt 0.678153 0.711820
vt 0.678115 0.803928
vt 0.630104 0.802486
vt 0.630136 0.706699
vt 0.618012 0.711803
vt 0.617975 0.803909
vt 0.715330 0.928865
vt 0.715317 0.888817
vt 0.678092 0.896071
vt 0.678087 0.942116
vt 0.630069 0.946179
vt 0.630078 0.898290
vt 0.617951 0.896048
vt 0.617946 0.942092
vt 0.800829 0.764053
vt 0.800815 0.796109
vt 0.812920 0.789005
vt 0.812937 0.758262
vt 0.715558 0.735393
vt 0.715529 0.761510
vt 0.752803 0.788985
vt 0.752820 0.758241
vt 0.195399 0.004963
vt 0.164756 0.002482
vt 0.770756 0.796099
vt 0.770771 0.764043
vt 0.660149 0.898301
vt 0.660139 0.946191
vt 0.660206 0.706707
vt 0.660174 0.802495
vt 0.770793 0.707808
vt 0.770808 0.669486
vt 0.898454 0.228109
vt 0.866762 0.232076
vt 0.880598 0.124341
vt 0.904557 0.117136
vt 0.788667 0.235746
vt 0.752572 0.241327
vt 0.784430 0.131283
vt 0.816146 0.125146
vt 0.905419 0.337796
vt 0.873421 0.338866
vt 0.791477 0.344848
vt 0.744299 0.350915
vt 0.912098 0.447130
vt 0.880356 0.446135
vt 0.794115 0.451787
vt 0.735398 0.457557
vt 0.919982 0.561944
vt 0.890121 0.562452
vt 0.799258 0.568542
vt 0.730703 0.574545
vt 0.917405 0.005640
vt 0.934361 -0.000764
vt 0.840514 0.010224
vt 0.860698 0.004267
vt 0.227188 0.253328
vt 0.222935 0.142270
vt 0.246762 0.149869
vt 0.258800 0.257820
vt 0.336825 0.262798
vt 0.311195 0.151753
vt 0.342794 0.158405
vt 0.372825 0.268958
vt 0.218400 0.362881
vt 0.250365 0.364485
vt 0.332199 0.371825
vt 0.379269 0.378679
vt 0.209903 0.472088
vt 0.241648 0.471624
vt 0.327782 0.478703
vt 0.386395 0.485461
vt 0.200119 0.586744
vt 0.229972 0.587884
vt 0.320703 0.595440
vt 0.389154 0.602192
vt 0.195115 0.023903
vt 0.212157 0.029758
vt 0.268587 0.031003
vt 0.288864 0.035511
vt 0.184903 0.607224
vt 0.220846 0.608655
vt 0.323428 0.617216
vt 0.403958 0.625223
vt 0.280013 0.012570
vt 0.255110 0.008747
vt 0.713226 0.662726
vt 0.752040 0.673264
vt 0.754046 0.698448
vt 0.718188 0.683295
vt 0.800989 0.675414
vt 0.813521 0.673289
vt 0.812161 0.698470
vt 0.800644 0.701904
vt 0.715832 0.802852
vt 0.678516 0.798243
vt 0.676861 0.717300
vt 0.713765 0.734076
vt 0.630023 0.796788
vt 0.617708 0.798223
vt 0.618876 0.717284
vt 0.630420 0.712397
vt 0.714091 0.923785
vt 0.676446 0.937118
vt 0.678724 0.901192
vt 0.716111 0.893908
vt 0.630304 0.940995
vt 0.618674 0.937075
vt 0.617527 0.901169
vt 0.629948 0.903473
vt 0.801157 0.769068
vt 0.814091 0.762911
vt 0.811537 0.784518
vt 0.800395 0.791095
vt 0.712424 0.739654
vt 0.751088 0.762887
vt 0.755991 0.784644
vt 0.718837 0.757260
vt 0.190767 0.006165
vt 0.169226 0.001007
vt 0.770437 0.769057
vt 0.771182 0.791085
vt 0.659906 0.941007
vt 0.660277 0.903484
vt 0.660258 0.796797
vt 0.659917 0.712405
vt 0.770680 0.675402
vt 0.771007 0.701893
s 1
f 532/385/481 533/386/482 498/387/483 495/388/484
f 494/389/485 497/390/486 496/391/487 493/392/488
f 531/393/489 532/385/481 495/388/484 492/394/490
f 491/395/491 494/389/485 493/392/488 490/396/492
f 530/397/493 531/393/489 492/394/490 489/398/494
f 488/399/495 491/395/491 490/396/492 487/400/496
f 534/401/497 530/397/493 489/398/494 481/402/498
f 482/403/499 488/399/495 487/400/496 483/404/500
f 533/386/482 529/405/501 486/406/502 498/387/483
f 497/390/486 485/407/503 484/408/504 496/391/487
f 538/409/505 513/410/506 516/411/507 539/412/508
f 512/413/509 511/414/510 514/415/511 515/416/512
f 537/417/513 510/418/514 513/410/506 538/409/505
f 509/419/515 508/420/516 511/414/510 512/413/509
f 536/421/517 507/422/518 510/418/514 537/417/513
f 506/423/519 505/424/520 508/420/516 509/419/515
f 540/425/521 499/426/522 507/422/518 536/421/517
f 500/427/523 501/428/524 505/424/520 506/423/519
f 539/412/508 516/411/507 504/429/525 535/430/526
f 515/416/512 514/415/511 502/431/527 503/432/528
f 544/433/529 520/434/530 499/426/522 540/425/521
f 522/435/531 517/436/532 501/428/524 500/427/523
f 526/437/533 528/438/534 503/432/528 502/431/527
f 484/439/504 485/440/503 527/441/535 525/442/536
f 549/443/537 550/444/538 528/445/534 526/446/533
f 482/447/499 483/448/500 518/449/539 521/450/540
f 547/451/541 545/452/542 517/453/532 522/454/531
f 534/455/497 481/456/498 519/457/543 543/458/544
f 551/459/545 546/460/546 520/461/530 544/462/529
f 548/463/547 552/464/548 542/465/549 523/466/550
f 486/467/502 529/468/501 541/469/551 524/470/552
f 523/471/550 542/472/549 535/430/526 504/429/525
f 524/470/552 541/469/551 560/473/553 556/474/554
f 543/458/544 519/457/543 554/475/555 559/476/556
f 521/450/540 518/449/539 553/477/557 555/478/558
f 525/442/536 527/441/535 558/479/559 557/480/560
f 552/464/548 548/463/547 556/474/554 560/473/553
f 558/479/559 550/444/538 549/443/537 557/480/560
f 545/452/542 547/451/541 555/478/558 553/477/557
f 546/460/546 551/459/545 559/476/556 554/475/555
f 712/481/561 575/482/562 576/483/563 709/484/564
f 643/485/565 645/486/566 646/487/567 644/488/568
f 711/489/569 577/490/570 575/482/562 712/481/561
f 648/491/571 649/492/572 645/486/566 643/485/565
f 710/493/573 578/494/574 577/490/570 711/489/569
f 651/495/575 652/496/576 649/492/572 648/491/571
f 697/497/577 653/498/578 578/494/574 710/493/573
f 654/499/579 655/500/580 652/496/576 651/495/575
f 709/484/564 576/483/563 579/501/581 700/502/582
f 644/488/568 646/487/567 658/503/583 657/504/584
f 708/505/585 705/506/586 595/507/587 594/508/588
f 661/509/589 662/510/590 664/511/591 663/512/592
f 707/513/593 708/505/585 594/508/588 596/514/594
f 666/515/595 661/509/589 663/512/592 667/516/596
f 706/517/597 707/513/593 596/514/594 597/518/598
f 669/519/599 666/515/595 667/516/596 670/520/600
f 703/521/601 706/517/597 597/518/598 671/522/602
f 672/523/603 669/519/599 670/520/600 673/524/604
f 705/506/586 701/525/605 598/526/606 595/507/587
f 662/510/590 675/527/607 676/528/608 664/511/591
f 704/529/609 703/521/601 671/522/602 600/530/610
f 601/531/611 672/523/603 673/524/604 605/532/612
f 603/533/613 676/528/608 675/527/607 604/534/614
f 658/535/583 613/536/615 615/537/616 657/538/584
f 614/539/617 603/540/613 604/541/614 616/542/618
f 654/543/579 609/544/619 599/545/620 655/546/580
f 610/547/621 601/548/611 605/549/612 633/550/622
f 697/551/577 696/552/623 607/553/624 653/554/578
f 635/555/625 704/556/609 600/557/610 608/558/626
f 634/559/627 611/560/628 702/561/629 636/562/630
f 579/563/581 602/564/631 699/565/632 700/566/582
f 611/567/628 598/526/606 701/525/605 702/568/629
f 602/564/631 612/569/633 632/570/634 699/565/632
f 696/552/623 631/571/635 637/572/636 607/553/624
f 609/544/619 638/573/637 606/574/638 599/545/620
f 613/536/615 639/575/639 640/576/640 615/537/616
f 636/562/630 632/570/634 612/569/633 634/559/627
f 640/576/640 639/575/639 614/539/617 616/542/618
f 633/550/622 606/574/638 638/573/637 610/547/621
f 608/558/626 637/572/636 631/571/635 635/555/625
f 492/394/490 495/388/484 641/388/641 647/394/642
f 557/480/560 549/443/537 692/443/643 719/480/644
f 537/417/513 538/409/505 627/409/645 626/417/646
f 508/420/516 505/424/520 586/424/647 588/420/648
f 494/389/485 491/395/491 570/395/649 572/389/650
f 545/452/542 553/477/557 684/477/651 713/452/652
f 538/409/505 539/412/508 628/412/653 627/409/645
f 507/422/518 499/426/522 581/426/654 668/422/655
f 490/396/492 493/392/488 571/392/656 569/396/657
f 555/478/558 547/451/541 688/451/658 718/478/659
f 529/405/501 533/386/482 623/386/660 619/405/661
f 500/427/523 506/423/519 587/423/662 582/427/663
f 489/398/494 492/394/490 647/394/642 650/398/664
f 546/460/546 554/475/555 717/475/665 686/460/666
f 530/397/493 534/401/497 561/401/667 620/397/668
f 505/424/520 501/428/524 583/428/669 586/424/647
f 491/395/491 488/399/495 568/399/670 570/395/649
f 559/476/556 551/459/545 715/459/671 695/476/672
f 531/393/489 530/397/493 620/397/668 621/393/673
f 504/429/525 516/411/507 660/411/674 674/429/675
f 487/400/496 490/396/492 569/396/657 567/400/676
f 532/385/481 531/393/489 621/393/673 622/385/677
f 515/416/512 503/432/528 585/432/678 593/416/679
f 481/402/498 489/398/494 650/398/664 562/402/680
f 533/386/482 532/385/481 622/385/677 623/386/660
f 502/431/527 514/415/511 592/415/681 584/431/682
f 488/399/495 482/403/499 563/403/683 568/399/670
f 517/453/532 545/452/542 713/452/652 683/453/684
f 518/449/539 483/448/500 564/448/685 677/449/686
f 483/404/500 487/400/496 567/400/676 564/404/685
f 548/463/547 523/466/550 689/466/687 714/463/688
f 499/426/522 520/434/530 678/434/689 581/426/654
f 498/387/483 486/406/502 656/406/690 642/387/691
f 551/459/545 544/462/529 630/462/692 715/459/671
f 522/435/531 500/427/523 582/427/663 679/435/693
f 485/407/503 497/390/486 574/390/694 566/407/695
f 542/465/549 552/464/548 716/464/696 618/465/697
f 486/467/502 524/470/552 680/470/698 656/467/690
f 496/391/487 484/408/504 565/408/699 573/391/700
f 526/437/533 502/431/527 584/431/682 681/437/701
f 503/432/528 528/438/534 682/438/702 585/432/678
f 501/428/524 517/436/532 683/436/684 583/428/669
f 553/477/557 518/449/539 677/449/686 684/477/651
f 554/475/555 519/457/543 685/457/703 717/475/665
f 519/457/543 481/456/498 562/456/680 685/457/703
f 521/450/540 555/478/558 718/478/659 687/450/704
f 520/461/530 546/460/546 686/460/666 678/461/689
f 525/442/536 557/480/560 719/480/644 691/442/705
f 543/458/544 559/476/556 695/476/672 629/458/706
f 482/447/499 521/450/540 687/450/704 563/447/683
f 558/479/559 527/441/535 693/441/707 720/479/708
f 534/455/497 543/458/544 629/458/706 561/455/667
f 547/451/541 522/454/531 679/454/693 688/451/658
f 516/411/507 513/410/506 659/410/709 660/411/674
f 560/473/553 541/469/551 617/469/710 698/473/711
f 523/471/550 504/429/525 674/429/675 689/471/687
f 512/413/509 515/416/512 593/416/679 591/413/712
f 541/469/551 529/468/501 619/468/661 617/469/710
f 524/470/552 556/474/554 690/474/713 680/470/698
f 514/415/511 511/414/510 590/414/714 592/415/681
f 535/430/526 542/472/549 618/472/697 624/430/715
f 484/439/504 525/442/536 691/442/705 565/439/699
f 513/410/506 510/418/514 665/418/716 659/410/709
f 544/433/529 540/425/521 580/425/717 630/433/692
f 549/443/537 526/446/533 681/446/701 692/443/643
f 509/419/515 512/413/509 591/413/712 589/419/718
f 495/388/484 498/387/483 642/387/691 641/388/641
f 550/444/538 558/479/559 720/479/708 694/444/719
f 539/412/508 535/430/526 624/430/715 628/412/653
f 527/441/535 485/440/503 566/440/695 693/441/707
f 511/414/510 508/420/516 588/420/648 590/414/714
f 497/390/486 494/389/485 572/389/650 574/390/694
f 556/474/554 548/463/547 714/463/688 690/474/713
f 540/425/521 536/421/517 625/421/720 580/425/717
f 528/445/534 550/444/538 694/444/719 682/445/702
f 510/418/514 507/422/518 668/422/655 665/418/716
f 493/392/488 496/391/487 573/391/700 571/392/656
f 552/464/548 560/473/553 698/473/711 716/464/696
f 536/421/517 537/417/513 626/417/646 625/421/720
f 506/423/519 509/419/515 589/419/718 587/423/662
f 576/483/563 575/482/562 641/388/641 642/387/691
f 643/485/565 644/488/568 574/390/694 572/389/650
f 646/487/567 645/486/566 571/392/656 573/391/700
f 575/482/562 577/490/570 647/394/642 641/388/641
f 648/491/571 643/485/565 572/389/650 570/395/649
f 645/486/566 649/492/572 569/396/657 571/392/656
f 577/490/570 578/494/574 650/398/664 647/394/642
f 651/495/575 648/491/571 570/395/649 568/399/670
f 649/492/572 652/496/576 567/400/676 569/396/657
f 578/494/574 653/498/578 562/402/680 650/398/664
f 654/499/579 651/495/575 568/399/670 563/403/683
f 652/496/576 655/500/580 564/404/685 567/400/676
f 579/501/581 576/483/563 642/387/691 656/406/690
f 644/488/568 657/504/584 566/407/695 574/390/694
f 658/503/583 646/487/567 573/391/700 565/408/699
f 594/508/588 595/507/587 660/411/674 659/410/709
f 662/510/590 661/509/589 591/413/712 593/416/679
f 663/512/592 664/511/591 592/415/681 590/414/714
f 596/514/594 594/508/588 659/410/709 665/418/716
f 661/509/589 666/515/595 589/419/718 591/413/712
f 667/516/596 663/512/592 590/414/714 588/420/648
f 597/518/598 596/514/594 665/418/716 668/422/655
f 666/515/595 669/519/599 587/423/662 589/419/718
f 670/520/600 667/516/596 588/420/648 586/424/647
f 671/522/602 597/518/598 668/422/655 581/426/654
f 669/519/599 672/523/603 582/427/663 587/423/662
f 673/524/604 670/520/600 586/424/647 583/428/669
f 595/507/587 598/526/606 674/429/675 660/411/674
f 675/527/607 662/510/590 593/416/679 585/432/678
f 664/511/591 676/528/608 584/431/682 592/415/681
f 655/546/580 599/545/620 677/449/686 564/448/685
f 600/530/610 671/522/602 581/426/654 678/434/689
f 672/523/603 601/531/611 679/435/693 582/427/663
f 602/564/631 579/563/581 656/467/690 680/470/698
f 676/528/608 603/533/613 681/437/701 584/431/682
f 604/534/614 675/527/607 585/432/678 682/438/702
f 605/532/612 673/524/604 583/428/669 683/436/684
f 599/545/620 606/574/638 684/477/651 677/449/686
f 653/554/578 607/553/624 685/457/703 562/456/680
f 608/558/626 600/557/610 678/461/689 686/460/666
f 609/544/619 654/543/579 563/447/683 687/450/704
f 601/548/611 610/547/621 688/451/658 679/454/693
f 598/526/606 611/567/628 689/471/687 674/429/675
f 612/569/633 602/564/631 680/470/698 690/474/713
f 613/536/615 658/535/583 565/439/699 691/442/705
f 603/540/613 614/539/617 692/443/643 681/446/701
f 657/538/584 615/537/616 693/441/707 566/440/695
f 616/542/618 604/541/614 682/445/702 694/444/719
f 631/571/635 696/552/623 629/458/706 695/476/672
f 696/552/623 697/551/577 561/455/667 629/458/706
f 699/565/632 632/570/634 698/473/711 617/469/710
f 700/566/582 699/565/632 617/469/710 619/468/661
f 702/568/629 701/525/605 624/430/715 618/472/697
f 703/521/601 704/529/609 630/433/692 580/425/717
f 701/525/605 705/506/586 628/412/653 624/430/715
f 706/517/597 703/521/601 580/425/717 625/421/720
f 707/513/593 706/517/597 625/421/720 626/417/646
f 708/505/585 707/513/593 626/417/646 627/409/645
f 705/506/586 708/505/585 627/409/645 628/412/653
f 709/484/564 700/502/582 619/405/661 623/386/660
f 697/497/577 710/493/573 620/397/668 561/401/667
f 710/493/573 711/489/569 621/393/673 620/397/668
f 711/489/569 712/481/561 622/385/677 621/393/673
f 712/481/561 709/484/564 623/386/660 622/385/677
f 633/550/622 605/549/612 683/453/684 713/452/652
f 611/560/628 634/559/627 714/463/688 689/466/687
f 704/556/609 635/555/625 715/459/671 630/462/692
f 636/562/630 702/561/629 618/465/697 716/464/696
f 607/553/624 637/572/636 717/475/665 685/457/703
f 638/573/637 609/544/619 687/450/704 718/478/659
f 639/575/639 613/536/615 691/442/705 719/480/644
f 615/537/616 640/576/640 720/479/708 693/441/707
f 640/576/640 616/542/618 694/444/719 720/479/708
f 634/559/627 612/569/633 690/474/713 714/463/688
f 632/570/634 636/562/630 716/464/696 698/473/711
f 614/539/617 639/575/639 719/480/644 692/443/643
f 606/574/638 633/550/622 713/452/652 684/477/651
f 610/547/621 638/573/637 718/478/659 688/451/658
f 637/572/636 608/558/626 686/460/666 717/475/665
f 635/555/625 631/571/635 695/476/672 715/459/671
