# Blender 4.0.1
# www.blender.org
mtllib Bomber_Wing_Trim_Left.mtl
o Bomber_Wing_Trim_Left
v -1.341687 0.378611 -1.705648
v -1.340651 0.374164 -0.979496
v -0.005267 0.402321 -3.853296
v -0.275409 0.413985 -4.582906
v -1.376517 0.400211 -4.595186
v -1.350261 0.391792 -3.869334
v -1.341995 0.378568 -3.147613
v -1.341883 0.377526 -2.426532
v 0.613998 0.373440 -0.975213
v 0.549729 0.378012 -1.685789
v 0.390590 0.378845 -2.388219
v 0.208496 0.396267 -3.122646
v -0.917878 0.450400 -3.134402
v -1.030262 0.460387 -3.833763
v -0.072020 0.458831 -3.142106
v -0.306029 0.466781 -3.854832
v -0.916378 0.447961 -2.435611
v 0.029104 0.449202 -2.423596
v -0.916575 0.445735 -1.733498
v 0.132536 0.446201 -1.730109
v -0.925119 0.415043 -0.987317
v 0.198023 0.418286 -0.991116
v -1.129700 0.442316 -4.582701
v -0.525943 0.448467 -4.595167
v -1.341683 0.013361 -1.705648
v -1.340653 0.017827 -0.979493
v -0.005289 -0.010283 -3.853335
v -0.275407 -0.021888 -4.582905
v -1.376520 -0.008139 -4.595189
v -1.350254 0.000224 -3.869335
v -1.341989 0.013397 -3.147614
v -1.341877 0.014436 -2.426532
v 0.614013 0.018577 -0.975185
v 0.549728 0.008284 -1.685722
v 0.390588 0.000262 -2.388219
v 0.208479 -0.010545 -3.122730
v -0.917885 -0.058087 -3.134400
v -1.030268 -0.068049 -3.833763
v -0.071996 -0.071547 -3.142012
v -0.306014 -0.074424 -3.854800
v -0.916384 -0.055653 -2.435611
v 0.029111 -0.070744 -2.423583
v -0.916579 -0.053426 -1.733497
v 0.132537 -0.060115 -1.730178
v -0.925119 -0.022966 -0.987316
v 0.198015 -0.026216 -0.991139
v -1.129699 -0.050163 -4.582704
v -0.525943 -0.056290 -4.595172
v 0.677672 0.264120 -0.885708
v 0.232041 0.301076 -0.902542
v -0.940172 0.095374 -0.899592
v -1.383373 0.268372 -0.888619
v -0.257449 0.103899 -4.681334
v -1.420945 0.114689 -4.685287
v -1.154734 0.310048 -4.673209
v -0.526638 0.083259 -4.676705
v 0.677675 0.127764 -0.885701
v 0.705669 0.195921 -0.840180
v 0.232041 0.090888 -0.902545
v 0.252298 0.195951 -0.852801
v -0.940172 0.296590 -0.899593
v -0.948746 0.195952 -0.850542
v -1.383375 0.123509 -0.888616
v -1.403152 0.195920 -0.842879
v -0.257449 0.288059 -4.681337
v -0.248757 0.195950 -4.728034
v -1.420944 0.277245 -4.685285
v -1.441794 0.195940 -4.731124
v -1.154734 0.081983 -4.673211
v -1.169089 0.195978 -4.722953
v -0.526638 0.308800 -4.676699
v -0.526919 0.195989 -4.725470
v -1.306309 0.426308 -1.705318
v -1.302392 0.410487 -0.959404
v 0.201330 0.449059 -0.978846
v 0.616644 0.401870 -0.958090
v -0.036277 0.453238 -3.842808
v -0.312045 0.456838 -4.593457
v -1.134629 0.472836 -4.595057
v -1.380576 0.428383 -4.612459
v -1.316817 0.441775 -3.869456
v -1.307973 0.427448 -3.147210
v -1.307292 0.425861 -2.426517
v 0.515142 0.426304 -1.679878
v 0.358167 0.428369 -2.379901
v 0.177232 0.447229 -3.113397
v -0.921364 0.478680 -1.733119
v -0.921785 0.480813 -2.435555
v -0.923720 0.483172 -3.133862
v -1.036572 0.493069 -3.833007
v -0.928182 0.445260 -0.973678
v -0.521500 0.476342 -4.612822
v 0.137834 0.479067 -1.730548
v 0.035540 0.481857 -2.424446
v -0.065002 0.491346 -3.143525
v -0.299606 0.499386 -3.856867
v -1.306280 -0.034316 -1.705320
v -1.302385 -0.018493 -0.959408
v 0.201306 -0.056935 -0.978731
v 0.616645 -0.009802 -0.957977
v -0.036384 -0.061061 -3.843012
v -0.312060 -0.064618 -4.593443
v -1.134610 -0.080688 -4.595055
v -1.380565 -0.036318 -4.612453
v -1.316780 -0.049734 -3.869461
v -1.307933 -0.035458 -3.147213
v -1.307255 -0.033875 -2.426516
v 0.515130 -0.040060 -1.679452
v 0.358157 -0.049671 -2.379830
v 0.177153 -0.061673 -3.113850
v -0.921347 -0.086375 -1.733120
v -0.921766 -0.088509 -2.435554
v -0.923700 -0.090864 -3.133863
v -1.036553 -0.100735 -3.833009
v -0.928170 -0.053187 -0.973684
v -0.521515 -0.084173 -4.612819
v 0.137831 -0.092985 -1.730304
v 0.035538 -0.103399 -2.424483
v -0.065043 -0.104062 -3.143704
v -0.299643 -0.107033 -3.856921
v 0.639209 0.274651 -0.850097
v 0.272552 0.330430 -0.879103
v -0.981194 0.069826 -0.874089
v -1.344100 0.282882 -0.855236
v -0.296760 0.084981 -4.713099
v -1.381650 0.101195 -4.719146
v -1.195899 0.336103 -4.698750
v -0.484797 0.062947 -4.704526
v 0.639212 0.117338 -0.850090
v 0.663808 0.195970 -0.802122
v 0.272547 0.061622 -0.879116
v 0.292781 0.195998 -0.821729
v -0.981197 0.322121 -0.874084
v -0.989212 0.195944 -0.818178
v -1.344099 0.108986 -0.855236
v -1.362063 0.195914 -0.806319
v -0.296756 0.307078 -4.713109
v -0.289193 0.195999 -4.762487
v -1.381652 0.290730 -4.719149
v -1.400504 0.195934 -4.767204
v -1.195894 0.055912 -4.698747
v -1.209499 0.195971 -4.755018
v -0.484793 0.329209 -4.704521
v -0.486234 0.196039 -4.758818
v -1.346427 0.411563 -1.705237
v -1.343388 0.403089 -0.963238
v 0.001404 0.434878 -3.855288
v -0.270677 0.443007 -4.598519
v -1.339504 0.438526 -4.616825
v -1.356591 0.424471 -3.868665
v -1.347873 0.411333 -3.147027
v -1.347288 0.410378 -2.426476
v 0.575842 0.407398 -0.950870
v 0.554795 0.410917 -1.686013
v 0.396869 0.411529 -2.389124
v 0.215445 0.428806 -3.123834
v -0.963599 0.487206 -3.130681
v -1.075930 0.496908 -3.827248
v -0.026314 0.494212 -3.152614
v -0.261692 0.503009 -3.868594
v -0.961782 0.485439 -2.435508
v 0.074901 0.485283 -2.430169
v -0.961484 0.484015 -1.733411
v 0.177608 0.483874 -1.735274
v -0.968791 0.453393 -0.975510
v 0.241945 0.459087 -0.983583
v -1.175137 0.481198 -4.590189
v -0.480899 0.482360 -4.617414
v -1.346402 -0.019594 -1.705238
v -1.343380 -0.011105 -0.963244
v 0.001316 -0.042846 -3.855460
v -0.270691 -0.050919 -4.598506
v -1.339494 -0.046442 -4.616820
v -1.356560 -0.032460 -3.868668
v -1.347839 -0.019373 -3.147030
v -1.347256 -0.018420 -2.426476
v 0.575855 -0.015187 -0.950730
v 0.554786 -0.024623 -1.685645
v 0.396860 -0.032425 -2.389050
v 0.215379 -0.043082 -3.124216
v -0.963585 -0.094922 -3.130681
v -1.075917 -0.104596 -3.827250
v -0.026337 -0.107002 -3.152716
v -0.261716 -0.110561 -3.868622
v -0.961767 -0.093157 -2.435508
v 0.074903 -0.107274 -2.430195
v -0.961470 -0.091726 -1.733411
v 0.177607 -0.097977 -1.735090
v -0.968779 -0.061332 -0.975515
v 0.241916 -0.066882 -0.983491
v -1.175119 -0.089064 -4.590188
v -0.480914 -0.090094 -4.617416
v 0.677821 0.281846 -0.857526
v 0.232506 0.319992 -0.875148
v -0.940737 0.076602 -0.872101
v -1.383751 0.286360 -0.860606
v -0.256308 0.087684 -4.710390
v -1.421383 0.098174 -4.714192
v -1.155547 0.327567 -4.701509
v -0.525320 0.066677 -4.705545
v 0.677822 0.110029 -0.857524
v 0.705325 0.195917 -0.806889
v 0.232502 0.071962 -0.875158
v 0.251955 0.195948 -0.819509
v -0.940740 0.315352 -0.872095
v -0.948626 0.195949 -0.817248
v -1.383750 0.105512 -0.860608
v -1.403033 0.195917 -0.809585
v -0.256304 0.304264 -4.710398
v -0.248609 0.195944 -4.761327
v -1.421386 0.293750 -4.714196
v -1.441530 0.195935 -4.764417
v -1.155542 0.064454 -4.701505
v -1.168826 0.195975 -4.756246
v -0.525316 0.325372 -4.705545
v -0.526770 0.195987 -4.758763
vn -0.8108 -0.5283 0.2518
vn -0.8871 -0.2953 0.3548
vn 0.6682 -0.7035 0.2421
vn 0.5125 -0.8406 -0.1750
vn -0.8621 -0.5010 -0.0768
vn -0.8008 -0.5919 0.0916
vn 0.6083 -0.7865 -0.1072
vn 0.7135 -0.5051 -0.4856
vn -0.8215 -0.5579 0.1181
vn 0.5445 -0.8265 -0.1428
vn -0.8075 -0.5602 0.1846
vn 0.5294 -0.8332 -0.1597
vn -0.5677 -0.8232 -0.0095
vn -0.5643 -0.8256 0.0001
vn 0.8160 -0.5663 -0.1160
vn 0.8279 -0.5568 -0.0672
vn -0.5832 -0.8123 -0.0008
vn 0.8123 -0.5832 -0.0017
vn -0.6026 -0.7980 -0.0078
vn 0.8042 -0.5943 -0.0024
vn -0.7298 -0.5522 -0.4032
vn 0.8682 -0.4651 -0.1726
vn -0.7179 -0.5468 0.4309
vn 0.8884 -0.4533 0.0721
vn -0.8094 0.5299 0.2531
vn 0.5132 0.8410 -0.1714
vn 0.6685 0.7033 0.2418
vn -0.8869 0.2958 0.3549
vn -0.8610 0.5023 -0.0797
vn 0.7123 0.5045 -0.4879
vn 0.6080 0.7856 -0.1144
vn -0.8005 0.5932 0.0860
vn 0.5467 0.8247 -0.1448
vn -0.8235 0.5546 0.1193
vn 0.5309 0.8336 -0.1523
vn -0.8058 0.5612 0.1891
vn -0.5684 0.8227 -0.0095
vn 0.8275 0.5575 -0.0672
vn 0.8155 0.5670 -0.1159
vn -0.5649 0.8251 0.0001
vn -0.5838 0.8119 -0.0008
vn 0.8119 0.5839 -0.0017
vn -0.6031 0.7976 -0.0078
vn 0.8038 0.5949 -0.0024
vn -0.7299 0.5521 -0.4030
vn 0.8680 0.4655 -0.1726
vn 0.8882 0.4538 0.0722
vn -0.7181 0.5467 0.4307
vn -0.7290 0.4866 -0.4815
vn 0.6736 0.1681 -0.7198
vn -0.6950 0.2379 -0.6785
vn 0.7406 0.4228 -0.5222
vn 0.7465 0.4183 0.5175
vn -0.6880 0.2145 0.6933
vn 0.6949 0.3020 0.6526
vn -0.7541 0.3216 0.5726
vn -0.7542 -0.3214 0.5726
vn 0.6948 -0.3019 0.6528
vn -0.8198 0.0001 0.5726
vn 0.8191 0.0001 0.5736
vn -0.6879 -0.2144 0.6935
vn 0.7466 -0.4180 0.5176
vn -0.8402 -0.0000 0.5423
vn 0.8025 0.0001 0.5966
vn 0.7407 -0.4226 -0.5223
vn -0.6949 -0.2378 -0.6786
vn 0.8214 0.0001 -0.5704
vn -0.8470 -0.0000 -0.5316
vn 0.6734 -0.1683 -0.7199
vn -0.7291 -0.4862 -0.4816
vn 0.8520 -0.0000 -0.5236
vn -0.8058 0.0001 -0.5922
vn 0.0543 0.9982 -0.0243
vn 0.3005 0.9493 -0.0923
vn 0.2079 0.8663 -0.4543
vn 0.0075 0.8650 -0.5016
vn -0.0144 0.9132 0.4073
vn 0.1425 0.8768 0.4593
vn 0.2429 0.9698 -0.0233
vn 0.0217 0.9997 0.0106
vn 0.2917 0.9550 -0.0539
vn 0.0572 0.9984 -0.0029
vn 0.3132 0.9474 -0.0657
vn 0.0829 0.9965 -0.0106
vn -0.2816 0.9594 0.0154
vn -0.0327 0.9994 0.0082
vn -0.0471 0.9989 0.0005
vn -0.2862 0.9580 0.0175
vn -0.2660 0.9640 0.0012
vn -0.0269 0.9996 0.0022
vn -0.2329 0.9724 0.0123
vn -0.0063 0.9998 0.0189
vn -0.1461 0.8834 0.4452
vn 0.0162 0.9040 0.4273
vn -0.0351 0.9142 -0.4036
vn -0.1931 0.8591 -0.4739
vn 0.0537 -0.9982 -0.0273
vn 0.0083 -0.8650 -0.5017
vn 0.2066 -0.8667 -0.4540
vn 0.2983 -0.9496 -0.0961
vn -0.0143 -0.9114 0.4113
vn 0.0200 -0.9996 0.0206
vn 0.2445 -0.9695 -0.0146
vn 0.1417 -0.8750 0.4628
vn 0.0533 -0.9986 -0.0037
vn 0.2940 -0.9543 -0.0527
vn 0.0794 -0.9967 -0.0194
vn 0.3130 -0.9468 -0.0746
vn -0.2809 -0.9596 0.0153
vn -0.2855 -0.9582 0.0174
vn -0.0464 -0.9989 0.0005
vn -0.0320 -0.9995 0.0081
vn -0.2653 -0.9642 0.0012
vn -0.0262 -0.9997 0.0022
vn -0.2323 -0.9726 0.0122
vn -0.0058 -0.9998 0.0188
vn -0.1458 -0.8836 0.4449
vn 0.0165 -0.9041 0.4270
vn -0.1927 -0.8593 -0.4737
vn -0.0346 -0.9144 -0.4034
vn -0.0114 -0.5380 0.8429
vn 0.0489 -0.5541 0.8310
vn -0.0511 -0.5548 0.8304
vn 0.0136 -0.5340 0.8454
vn 0.0051 -0.5085 -0.8610
vn -0.0518 -0.5082 -0.8597
vn 0.0637 -0.5026 -0.8622
vn -0.0000 -0.4690 -0.8832
vn 0.0646 0.5023 -0.8623
vn -0.0005 0.4688 -0.8833
vn 0.0291 -0.0000 -0.9996
vn -0.0073 0.0001 -1.0000
vn 0.0049 0.5083 -0.8612
vn -0.0519 0.5078 -0.8599
vn 0.0149 -0.0001 -0.9999
vn -0.0265 -0.0001 -0.9996
vn -0.0512 0.5545 0.8306
vn 0.0135 0.5337 0.8456
vn -0.0375 -0.0001 0.9993
vn 0.0089 -0.0001 1.0000
vn -0.0120 0.5378 0.8430
vn 0.0497 0.5541 0.8309
vn -0.0065 -0.0000 1.0000
vn 0.0411 0.0002 0.9992
vn -0.7239 -0.4867 -0.4889
vn -0.7089 -0.6491 -0.2760
vn 0.8633 -0.4496 -0.2295
vn 0.8537 -0.4393 -0.2798
vn 0.6581 0.2977 -0.6916
vn 0.6146 0.6589 -0.4337
vn -0.6894 -0.3276 -0.6461
vn -0.6571 -0.6843 -0.3162
vn 0.6960 -0.5845 0.4170
vn 0.6658 -0.7128 0.2203
vn 0.7263 -0.0004 0.6874
vn 0.6967 0.5840 0.4166
vn 0.6771 0.7288 -0.1018
vn 0.6950 0.7173 -0.0503
vn -0.6544 -0.6273 0.4222
vn -0.6545 -0.2840 0.7007
vn -0.6211 0.7685 0.1540
vn -0.6302 0.7530 0.1896
vn -0.5695 -0.0004 0.8220
vn 0.6910 0.7229 0.0011
vn -0.6548 0.2837 0.7005
vn -0.6642 0.7406 0.1018
vn 0.6549 0.6532 0.3800
vn 0.6772 0.3315 0.6569
vn 0.7065 0.7074 0.0192
vn -0.6834 0.6810 0.2632
vn -0.8464 0.5325 0.0062
vn 0.6034 -0.0000 0.7975
vn -0.6893 0.7183 0.0941
vn 0.6772 -0.3316 0.6568
vn 0.6955 -0.7168 -0.0503
vn 0.6776 -0.7283 -0.1018
vn 0.6843 0.5831 -0.4380
vn 0.8539 0.4400 -0.2778
vn -0.6832 -0.6812 0.2629
vn -0.7125 -0.5244 0.4662
vn -0.6311 -0.7527 0.1874
vn -0.6245 -0.7670 0.1470
vn -0.6540 0.6294 0.4197
vn -0.7012 -0.0001 0.7130
vn 0.6914 -0.7225 0.0011
vn -0.8664 0.4987 0.0238
vn -0.7091 0.6487 -0.2762
vn -0.7125 0.5242 0.4664
vn -0.6651 -0.7398 0.1013
vn -0.6576 0.6837 -0.3162
vn -0.8769 0.4806 0.0105
vn 0.7272 0.4026 -0.5561
vn 0.7069 -0.7070 0.0191
vn -0.8461 -0.5330 0.0062
vn -0.8680 0.4966 0.0008
vn 0.6736 -0.0004 -0.7391
vn -0.6907 -0.7160 0.1012
vn 0.7266 -0.4032 -0.5563
vn 0.6551 -0.6532 0.3798
vn 0.6833 -0.5843 -0.4378
vn 0.8448 0.5198 -0.1273
vn 0.6657 0.7136 0.2182
vn -0.7240 0.4864 -0.4891
vn 0.8619 0.4670 -0.1975
vn -0.7025 -0.0001 -0.7117
vn 0.6149 -0.6587 -0.4335
vn -0.8661 -0.4993 0.0237
vn 0.8636 0.4510 -0.2255
vn -0.8765 -0.4813 0.0105
vn 0.6582 -0.2978 -0.6915
vn -0.8676 -0.4972 0.0008
vn 0.5950 -0.0000 -0.8037
vn 0.8459 -0.5191 -0.1228
vn -0.6897 0.3273 -0.6459
vn 0.8615 -0.4680 -0.1969
vn -0.6300 -0.0003 -0.7766
vt 0.364702 0.534080
vt 0.326928 0.670934
vt 0.373345 0.669605
vt 0.420377 0.532680
vt 0.446654 0.002981
vt 0.437499 0.139766
vt 0.514503 0.129995
vt 0.523763 -0.001587
vt 0.421089 0.268315
vt 0.487810 0.260414
vt 0.405192 0.401476
vt 0.457033 0.396833
vt 0.170613 0.407498
vt 0.171830 0.540881
vt 0.230860 0.533026
vt 0.248858 0.403357
vt 0.167813 0.274250
vt 0.246429 0.274224
vt 0.165017 0.141037
vt 0.243672 0.144485
vt 0.162272 0.006826
vt 0.239244 0.006658
vt 0.169853 0.675027
vt 0.215359 0.672263
vt 0.740326 0.135788
vt 0.795976 0.136001
vt 0.746117 0.001137
vt 0.699667 -0.001063
vt 0.833549 0.665373
vt 0.910422 0.667728
vt 0.898569 0.536637
vt 0.821417 0.528463
vt 0.869136 0.406800
vt 0.802298 0.400309
vt 0.835481 0.271042
vt 0.783606 0.267522
vt 0.548898 0.266442
vt 0.627253 0.268925
vt 0.606526 0.139664
vt 0.547307 0.133062
vt 0.548910 0.399720
vt 0.627549 0.398081
vt 0.548929 0.532963
vt 0.627531 0.527849
vt 0.549146 0.667193
vt 0.625941 0.665841
vt 0.588243 0.001219
vt 0.542280 -0.001086
vt 0.839838 0.681299
vt 0.922225 0.684742
vt 0.541255 0.684126
vt 0.623179 0.681886
vt 0.563702 0.745032
vt 0.569155 0.695722
vt 0.541432 0.704440
vt 0.534262 0.750170
vt 0.570996 0.910773
vt 0.566339 0.861099
vt 0.536577 0.861721
vt 0.541707 0.908046
vt 0.327284 0.686937
vt 0.377064 0.686812
vt 0.600797 0.910203
vt 0.603000 0.860398
vt 0.588943 0.860630
vt 0.590076 0.912026
vt 0.162073 0.692202
vt 0.211204 0.688691
vt 0.600889 0.744321
vt 0.595367 0.695222
vt 0.586291 0.691561
vt 0.586940 0.741947
vt 0.950379 0.019448
vt 0.940964 0.096012
vt 0.968175 0.094006
vt 0.975998 0.012280
vt 0.989105 0.093015
vt 0.991894 0.009080
vt 1.000168 0.094915
vt 0.998750 0.012926
vt 0.934139 0.303512
vt 0.940667 0.380591
vt 0.966106 0.393097
vt 0.961025 0.310556
vt 0.981039 0.398692
vt 0.982321 0.314910
vt 0.987457 0.393703
vt 0.994539 0.311507
vt 0.371742 0.536060
vt 0.413374 0.530518
vt 0.365770 0.669551
vt 0.334382 0.671073
vt 0.454110 0.003774
vt 0.516339 -0.002835
vt 0.507155 0.129011
vt 0.444875 0.140460
vt 0.480615 0.258858
vt 0.428388 0.269221
vt 0.449942 0.395049
vt 0.412382 0.403016
vt 0.177991 0.407372
vt 0.241469 0.402929
vt 0.223590 0.532152
vt 0.179157 0.540865
vt 0.175198 0.274098
vt 0.239043 0.274375
vt 0.172416 0.140891
vt 0.236270 0.144692
vt 0.169734 0.005907
vt 0.231780 0.007201
vt 0.207849 0.671927
vt 0.177452 0.675523
vt 0.747322 0.133668
vt 0.707168 -0.001955
vt 0.738524 0.002095
vt 0.789024 0.138302
vt 0.841054 0.664831
vt 0.828773 0.527601
vt 0.891247 0.537785
vt 0.902897 0.668745
vt 0.809574 0.399249
vt 0.861987 0.408507
vt 0.790762 0.265847
vt 0.828428 0.272962
vt 0.556282 0.266412
vt 0.554639 0.132922
vt 0.599270 0.140689
vt 0.619870 0.269509
vt 0.556302 0.399716
vt 0.620158 0.398086
vt 0.556333 0.532952
vt 0.620122 0.527799
vt 0.556711 0.667812
vt 0.618435 0.665614
vt 0.549710 -0.002007
vt 0.580844 0.002234
vt 0.847208 0.680595
vt 0.915145 0.686185
vt 0.548548 0.685144
vt 0.615715 0.681548
vt 0.563002 0.737590
vt 0.534071 0.742669
vt 0.541831 0.712023
vt 0.570484 0.703035
vt 0.571205 0.903294
vt 0.540400 0.900502
vt 0.538037 0.869140
vt 0.566662 0.868585
vt 0.369615 0.687387
vt 0.334774 0.686687
vt 0.600599 0.902733
vt 0.590009 0.904526
vt 0.589088 0.868120
vt 0.602899 0.867893
vt 0.203771 0.688331
vt 0.169382 0.693015
vt 0.600939 0.736865
vt 0.586939 0.734435
vt 0.586652 0.699128
vt 0.595024 0.702566
vt 0.950595 0.027023
vt 0.977032 0.019634
vt 0.968033 0.086524
vt 0.941295 0.088512
vt 0.991916 0.016651
vt 0.989414 0.085522
vt 0.998084 0.020231
vt 1.000482 0.087446
vt 0.933518 0.311003
vt 0.959889 0.317920
vt 0.968129 0.386027
vt 0.941920 0.373095
vt 0.981969 0.322440
vt 0.981562 0.391044
vt 0.994774 0.318910
vt 0.986973 0.386563
s 1
f 16/1/1 24/2/2 4/3/3 3/4/4
f 22/5/5 20/6/6 10/7/7 9/8/8
f 20/6/6 18/9/9 11/10/10 10/7/7
f 18/9/9 15/11/11 12/12/12 11/10/10
f 15/11/11 16/1/1 3/4/4 12/12/12
f 7/13/13 6/14/14 14/15/15 13/16/16
f 8/17/17 7/13/13 13/16/16 17/18/18
f 1/19/19 8/17/17 17/18/18 19/20/20
f 2/21/21 1/19/19 19/20/20 21/22/22
f 6/14/14 5/23/23 23/24/24 14/15/15
f 40/25/25 27/26/26 28/27/27 48/28/28
f 46/29/29 33/30/30 34/31/31 44/32/32
f 44/32/32 34/31/31 35/33/33 42/34/34
f 42/34/34 35/33/33 36/35/35 39/36/36
f 39/36/36 36/35/35 27/26/26 40/25/25
f 31/37/37 37/38/38 38/39/39 30/40/40
f 32/41/41 41/42/42 37/38/38 31/37/37
f 25/43/43 43/44/44 41/42/42 32/41/41
f 26/45/45 45/46/46 43/44/44 25/43/43
f 30/40/40 38/39/39 47/47/47 29/48/48
f 59/49/49 57/50/50 33/30/30 46/29/29
f 63/51/51 51/52/52 45/46/46 26/45/45
f 69/53/53 54/54/54 29/55/48 47/56/47
f 53/57/55 56/58/56 48/59/28 28/60/27
f 4/3/3 24/2/2 71/61/57 65/62/58
f 65/63/58 71/64/57 72/65/59 66/66/60
f 66/66/60 72/65/59 56/58/56 53/57/55
f 23/24/24 5/23/23 67/67/61 55/68/62
f 55/69/62 67/70/61 68/71/63 70/72/64
f 70/72/64 68/71/63 54/54/54 69/53/53
f 2/73/21 21/74/22 61/75/65 52/76/66
f 52/76/66 61/75/65 62/77/67 64/78/68
f 64/78/68 62/77/67 51/79/52 63/80/51
f 22/81/5 9/82/8 49/83/69 50/84/70
f 50/84/70 49/83/69 58/85/71 60/86/72
f 60/86/72 58/85/71 57/87/50 59/88/49
f 160/89/73 77/90/74 78/91/75 168/92/76
f 166/93/77 153/94/78 84/95/79 164/96/80
f 164/96/80 84/95/79 85/97/81 162/98/82
f 162/98/82 85/97/81 86/99/83 159/100/84
f 159/100/84 86/99/83 77/90/74 160/89/73
f 82/101/85 157/102/86 158/103/87 81/104/88
f 83/105/89 161/106/90 157/102/86 82/101/85
f 73/107/91 163/108/92 161/106/90 83/105/89
f 74/109/93 165/110/94 163/108/92 73/107/91
f 81/104/88 158/103/87 167/111/95 149/112/96
f 184/113/97 192/114/98 102/115/99 101/116/100
f 190/117/101 188/118/102 108/119/103 177/120/104
f 188/118/102 186/121/105 109/122/106 108/119/103
f 186/121/105 183/123/107 110/124/108 109/122/106
f 183/123/107 184/113/97 101/116/100 110/124/108
f 106/125/109 105/126/110 182/127/111 181/128/112
f 107/129/113 106/125/109 181/128/112 185/130/114
f 97/131/115 107/129/113 185/130/114 187/132/116
f 98/133/117 97/131/115 187/132/116 189/134/118
f 105/126/110 173/135/119 191/136/120 182/127/111
f 131/137/121 190/117/101 177/120/104 129/138/122
f 135/139/123 98/133/117 189/134/118 123/140/124
f 141/141/125 191/142/120 173/143/119 126/144/126
f 125/145/127 102/146/99 192/147/98 128/148/128
f 78/91/75 137/149/129 143/150/130 168/92/76
f 137/151/129 138/152/131 144/153/132 143/154/130
f 138/152/131 125/145/127 128/148/128 144/153/132
f 167/111/95 127/155/133 139/156/134 149/112/96
f 127/157/133 142/158/135 140/159/136 139/160/134
f 142/158/135 141/141/125 126/144/126 140/159/136
f 74/161/93 124/162/137 133/163/138 165/164/94
f 124/162/137 136/165/139 134/166/140 133/163/138
f 136/165/139 135/167/123 123/168/124 134/166/140
f 166/169/77 122/170/141 121/171/142 153/172/78
f 122/170/141 132/173/143 130/174/144 121/171/142
f 132/173/143 131/175/121 129/176/122 130/174/144
f 29/55/48 54/54/54 198/54/145 104/55/146
f 27/26/26 36/35/35 180/35/147 171/26/148
f 23/24/24 55/68/62 199/68/149 79/24/150
f 48/59/28 56/58/56 200/58/151 116/59/152
f 33/30/30 57/50/50 201/50/153 100/30/154
f 57/87/50 58/85/71 202/85/155 201/87/153
f 58/85/71 49/83/69 193/83/156 202/85/155
f 13/16/16 14/15/15 90/15/157 89/16/158
f 59/49/49 46/29/29 99/29/159 203/49/160
f 16/1/1 15/11/11 95/11/161 96/1/162
f 60/86/72 59/88/49 203/88/160 204/86/163
f 17/18/18 13/16/16 89/16/158 88/18/164
f 50/84/70 60/86/72 204/86/163 194/84/165
f 15/11/11 18/9/9 94/9/166 95/11/161
f 61/75/65 21/74/22 91/74/167 205/75/168
f 19/20/20 17/18/18 88/18/164 87/20/169
f 1/19/19 2/21/21 146/21/170 145/19/171
f 62/77/67 61/75/65 205/75/168 206/77/172
f 18/9/9 20/6/6 93/6/173 94/9/166
f 51/79/52 62/77/67 206/77/172 195/79/174
f 38/39/39 37/38/38 113/38/175 114/39/176
f 21/22/22 19/20/20 87/20/169 91/22/167
f 3/4/4 4/3/3 148/3/177 147/4/178
f 63/51/51 26/45/45 170/45/179 207/51/180
f 39/36/36 40/25/25 120/25/181 119/36/182
f 20/6/6 22/5/5 75/5/183 93/6/173
f 64/78/68 63/80/51 207/80/180 208/78/184
f 37/38/38 41/42/42 112/42/185 113/38/175
f 14/15/15 23/24/24 79/24/150 90/15/157
f 5/23/23 6/14/14 150/14/186 80/23/187
f 52/76/66 64/78/68 208/78/184 196/76/188
f 42/34/34 39/36/36 119/36/182 118/34/189
f 24/2/2 16/1/1 96/1/162 92/2/190
f 6/14/14 7/13/13 151/13/191 150/14/186
f 4/3/3 65/62/58 209/62/192 148/3/177
f 41/42/42 43/44/44 111/44/193 112/42/185
f 26/45/45 25/43/43 169/43/194 170/45/179
f 7/13/13 8/17/17 152/17/195 151/13/191
f 65/63/58 66/66/60 210/66/196 209/63/192
f 44/32/32 42/34/34 118/34/189 117/32/197
f 8/17/17 1/19/19 145/19/171 152/17/195
f 66/66/60 53/57/55 197/57/198 210/66/196
f 43/44/44 45/46/46 115/46/199 111/44/193
f 28/27/27 27/26/26 171/26/148 172/27/200
f 9/8/8 10/7/7 154/7/201 76/8/202
f 67/67/61 5/23/23 80/23/187 211/67/203
f 46/29/29 44/32/32 117/32/197 99/29/159
f 10/7/7 11/10/10 155/10/204 154/7/201
f 68/71/63 67/70/61 211/70/203 212/71/205
f 47/47/47 38/39/39 114/39/176 103/47/206
f 30/40/40 29/48/48 104/48/146 174/40/207
f 11/10/10 12/12/12 156/12/208 155/10/204
f 54/54/54 68/71/63 212/71/205 198/54/145
f 40/25/25 48/28/28 116/28/152 120/25/181
f 31/37/37 30/40/40 174/40/207 175/37/209
f 12/12/12 3/4/4 147/4/178 156/12/208
f 69/53/53 47/56/47 103/56/206 213/53/210
f 49/83/69 9/82/8 76/82/202 193/83/156
f 32/41/41 31/37/37 175/37/209 176/41/211
f 70/72/64 69/53/53 213/53/210 214/72/212
f 22/81/5 50/84/70 194/84/165 75/81/183
f 25/43/43 32/41/41 176/41/211 169/43/194
f 55/69/62 70/72/64 214/72/212 199/69/149
f 45/46/46 51/52/52 195/52/174 115/46/199
f 34/31/31 33/30/30 100/30/154 178/31/213
f 71/61/57 24/2/2 92/2/190 215/61/214
f 2/73/21 52/76/66 196/76/188 146/73/170
f 35/33/33 34/31/31 178/31/213 179/33/215
f 72/65/59 71/64/57 215/64/214 216/65/216
f 53/57/55 28/60/27 172/60/200 197/57/198
f 36/35/35 35/33/33 179/33/215 180/35/147
f 56/58/56 72/65/59 216/65/216 200/58/151
f 74/109/93 73/107/91 145/19/171 146/21/170
f 78/91/75 77/90/74 147/4/178 148/3/177
f 81/104/88 149/112/96 80/23/187 150/14/186
f 82/101/85 81/104/88 150/14/186 151/13/191
f 83/105/89 82/101/85 151/13/191 152/17/195
f 73/107/91 83/105/89 152/17/195 145/19/171
f 84/95/79 153/94/78 76/8/202 154/7/201
f 85/97/81 84/95/79 154/7/201 155/10/204
f 86/99/83 85/97/81 155/10/204 156/12/208
f 77/90/74 86/99/83 156/12/208 147/4/178
f 158/103/87 157/102/86 89/16/158 90/15/157
f 159/100/84 160/89/73 96/1/162 95/11/161
f 157/102/86 161/106/90 88/18/164 89/16/158
f 162/98/82 159/100/84 95/11/161 94/9/166
f 161/106/90 163/108/92 87/20/169 88/18/164
f 164/96/80 162/98/82 94/9/166 93/6/173
f 163/108/92 165/110/94 91/22/167 87/20/169
f 166/93/77 164/96/80 93/6/173 75/5/183
f 167/111/95 158/103/87 90/15/157 79/24/150
f 160/89/73 168/92/76 92/2/190 96/1/162
f 97/131/115 98/133/117 170/45/179 169/43/194
f 101/116/100 102/115/99 172/27/200 171/26/148
f 173/135/119 105/126/110 174/40/207 104/48/146
f 105/126/110 106/125/109 175/37/209 174/40/207
f 106/125/109 107/129/113 176/41/211 175/37/209
f 107/129/113 97/131/115 169/43/194 176/41/211
f 177/120/104 108/119/103 178/31/213 100/30/154
f 108/119/103 109/122/106 179/33/215 178/31/213
f 109/122/106 110/124/108 180/35/147 179/33/215
f 110/124/108 101/116/100 171/26/148 180/35/147
f 181/128/112 182/127/111 114/39/176 113/38/175
f 184/113/97 183/123/107 119/36/182 120/25/181
f 185/130/114 181/128/112 113/38/175 112/42/185
f 183/123/107 186/121/105 118/34/189 119/36/182
f 187/132/116 185/130/114 112/42/185 111/44/193
f 186/121/105 188/118/102 117/32/197 118/34/189
f 189/134/118 187/132/116 111/44/193 115/46/199
f 188/118/102 190/117/101 99/29/159 117/32/197
f 182/127/111 191/136/120 103/47/206 114/39/176
f 192/114/98 184/113/97 120/25/181 116/28/152
f 153/172/78 121/171/142 193/83/156 76/82/202
f 122/170/141 166/169/77 75/81/183 194/84/165
f 123/140/124 189/134/118 115/46/199 195/52/174
f 124/162/137 74/161/93 146/73/170 196/76/188
f 102/146/99 125/145/127 197/57/198 172/60/200
f 126/144/126 173/143/119 104/55/146 198/54/145
f 127/155/133 167/111/95 79/24/150 199/68/149
f 128/148/128 192/147/98 116/59/152 200/58/151
f 129/138/122 177/120/104 100/30/154 201/50/153
f 130/174/144 129/176/122 201/87/153 202/85/155
f 121/171/142 130/174/144 202/85/155 193/83/156
f 190/117/101 131/137/121 203/49/160 99/29/159
f 131/175/121 132/173/143 204/86/163 203/88/160
f 132/173/143 122/170/141 194/84/165 204/86/163
f 165/164/94 133/163/138 205/75/168 91/74/167
f 133/163/138 134/166/140 206/77/172 205/75/168
f 134/166/140 123/168/124 195/79/174 206/77/172
f 98/133/117 135/139/123 207/51/180 170/45/179
f 135/167/123 136/165/139 208/78/184 207/80/180
f 136/165/139 124/162/137 196/76/188 208/78/184
f 137/149/129 78/91/75 148/3/177 209/62/192
f 138/152/131 137/151/129 209/63/192 210/66/196
f 125/145/127 138/152/131 210/66/196 197/57/198
f 149/112/96 139/156/134 211/67/203 80/23/187
f 139/160/134 140/159/136 212/71/205 211/70/203
f 140/159/136 126/144/126 198/54/145 212/71/205
f 191/142/120 141/141/125 213/53/210 103/56/206
f 141/141/125 142/158/135 214/72/212 213/53/210
f 142/158/135 127/157/133 199/69/149 214/72/212
f 168/92/76 143/150/130 215/61/214 92/2/190
f 143/154/130 144/153/132 216/65/216 215/64/214
f 144/153/132 128/148/128 200/58/151 216/65/216
