# Blender 4.0.1
# www.blender.org
mtllib Bomber_Propeller_Rivot.mtl
g Bomber_Propeller_Rivot_Bomber_Propeller_Rivot
v 2.240723 0.000000 -0.393426
v 2.240723 -0.076754 -0.385867
v 2.240723 -0.150558 -0.363478
v 2.240723 -0.218576 -0.327122
v 2.240723 -0.278194 -0.278194
v 2.240723 -0.327122 -0.218576
v 2.240723 -0.363478 -0.150558
v 2.240723 -0.385867 -0.076754
v 2.240723 -0.393426 0.000000
v 2.240723 -0.385867 0.076754
v 2.240723 -0.363478 0.150558
v 2.240723 -0.327122 0.218576
v 2.240723 -0.278194 0.278194
v 2.240723 -0.218576 0.327122
v 2.240723 -0.150558 0.363478
v 2.240723 -0.076754 0.385867
v 2.240723 0.000000 0.393426
v 2.240723 0.076754 0.385867
v 2.240723 0.150558 0.363478
v 2.240723 0.218576 0.327122
v 2.240723 0.278194 0.278194
v 2.240723 0.327122 0.218576
v 2.240723 0.363478 0.150558
v 2.240723 0.385867 0.076754
v 2.240723 0.393426 0.000000
v 2.240723 0.385867 -0.076754
v 2.240723 0.363478 -0.150558
v 2.240723 0.327122 -0.218576
v 2.240723 0.278194 -0.278194
v 2.240723 0.218576 -0.327122
v 2.240723 0.150558 -0.363478
v 2.240723 0.076754 -0.385867
v 2.453421 0.000000 -0.393426
v 2.453421 -0.076754 -0.385867
v 2.453421 -0.150558 -0.363478
v 2.453421 -0.218576 -0.327122
v 2.453421 -0.278194 -0.278194
v 2.453421 -0.327122 -0.218576
v 2.453421 -0.363478 -0.150558
v 2.453421 -0.385867 -0.076754
v 2.453421 -0.393426 0.000000
v 2.453421 -0.385867 0.076754
v 2.453421 -0.363478 0.150558
v 2.453421 -0.327122 0.218576
v 2.453421 -0.278194 0.278194
v 2.453421 -0.218576 0.327122
v 2.453421 -0.150558 0.363478
v 2.453421 -0.076754 0.385867
v 2.453421 0.000000 0.393426
v 2.453421 0.076754 0.385867
v 2.453421 0.150558 0.363478
v 2.453421 0.218576 0.327122
v 2.453421 0.278194 0.278194
v 2.453421 0.327122 0.218576
v 2.453421 0.363478 0.150558
v 2.453421 0.385867 0.076754
v 2.453421 0.393426 0.000000
v 2.453421 0.385867 -0.076754
v 2.453421 0.363478 -0.150558
v 2.453421 0.327122 -0.218576
v 2.453421 0.278194 -0.278194
v 2.453421 0.218576 -0.327122
v 2.453421 0.150558 -0.363478
v 2.453421 0.076754 -0.385867
v 2.404974 -0.234010 0.350221
v 2.289170 -0.234010 0.350221
v 2.289170 -0.297839 0.297839
v 2.404974 -0.297839 0.297839
v 2.404974 0.350221 -0.234010
v 2.289170 0.350221 -0.234010
v 2.289170 0.389145 -0.161189
v 2.404974 0.389145 -0.161189
v 2.404974 -0.161189 0.389145
v 2.289170 -0.161189 0.389145
v 2.404974 -0.082174 -0.413114
v 2.289170 -0.082174 -0.413114
v 2.289170 0.000000 -0.421208
v 2.404974 0.000000 -0.421208
v 2.404974 0.297839 -0.297839
v 2.289170 0.297839 -0.297839
v 2.404974 -0.082174 0.413114
v 2.289170 -0.082174 0.413114
v 2.404974 -0.161189 -0.389145
v 2.289170 -0.161189 -0.389145
v 2.404974 0.234010 -0.350221
v 2.289170 0.234010 -0.350221
v 2.404974 0.000000 0.421208
v 2.289170 0.000000 0.421208
v 2.404974 -0.234010 -0.350221
v 2.289170 -0.234010 -0.350221
v 2.404974 0.161189 -0.389145
v 2.289170 0.161189 -0.389145
v 2.404974 0.082174 0.413114
v 2.289170 0.082174 0.413114
v 2.404974 -0.297839 -0.297839
v 2.289170 -0.297839 -0.297839
v 2.404974 0.082174 -0.413114
v 2.289170 0.082174 -0.413114
v 2.404974 0.161189 0.389145
v 2.289170 0.161189 0.389145
v 2.404974 -0.350221 -0.234010
v 2.289170 -0.350221 -0.234010
v 2.404974 0.234010 0.350221
v 2.289170 0.234010 0.350221
v 2.404974 -0.389145 -0.161189
v 2.289170 -0.389145 -0.161189
v 2.404974 0.297839 0.297839
v 2.289170 0.297839 0.297839
v 2.404974 -0.413114 -0.082174
v 2.289170 -0.413114 -0.082174
v 2.404974 0.350221 0.234010
v 2.289170 0.350221 0.234010
v 2.404974 -0.421208 0.000000
v 2.289170 -0.421208 0.000000
v 2.404974 0.389145 0.161189
v 2.289170 0.389145 0.161189
v 2.404974 -0.413114 0.082174
v 2.289170 -0.413114 0.082174
v 2.404974 0.413114 0.082174
v 2.289170 0.413114 0.082174
v 2.404974 -0.389145 0.161189
v 2.289170 -0.389145 0.161189
v 2.404974 0.421208 0.000000
v 2.289170 0.421208 0.000000
v 2.404974 -0.350221 0.234010
v 2.289170 -0.350221 0.234010
v 2.404974 0.413114 -0.082174
v 2.289170 0.413114 -0.082174
vn 0.2535 -0.5374 0.8043
vn 0.2535 -0.6840 0.6840
vn 0.8517 -0.3705 0.3705
vn 0.8517 -0.2911 0.4357
vn 0.2535 0.8043 -0.5374
vn 0.2535 0.8937 -0.3702
vn 0.8517 0.4841 -0.2005
vn 0.8517 0.4357 -0.2911
vn 0.2535 -0.3702 0.8937
vn 0.8517 -0.2005 0.4841
vn 0.2535 -0.1887 -0.9488
vn 0.2535 -0.0000 -0.9673
vn 0.8517 -0.0000 -0.5240
vn 0.8517 -0.1022 -0.5139
vn 0.2535 0.6840 -0.6840
vn 0.8517 0.3705 -0.3705
vn 0.2535 -0.1887 0.9488
vn 0.8517 -0.1022 0.5139
vn 0.2535 -0.3702 -0.8937
vn 0.8517 -0.2005 -0.4841
vn 0.2535 0.5374 -0.8043
vn 0.8517 0.2911 -0.4357
vn 0.2535 -0.0000 0.9673
vn 0.8517 -0.0000 0.5240
vn 0.2535 -0.5374 -0.8043
vn 0.8517 -0.2911 -0.4357
vn 0.2535 0.3702 -0.8937
vn 0.8517 0.2005 -0.4841
vn 0.2535 0.1887 0.9488
vn 0.8517 0.1022 0.5139
vn 0.2535 -0.6840 -0.6840
vn 0.8517 -0.3705 -0.3705
vn 0.2535 0.1887 -0.9488
vn 0.8517 0.1022 -0.5139
vn 0.2535 0.3702 0.8937
vn 0.8517 0.2005 0.4841
vn 0.2535 -0.8043 -0.5374
vn 0.8517 -0.4357 -0.2911
vn 0.2535 0.5374 0.8043
vn 0.8517 0.2911 0.4357
vn 0.2535 -0.8937 -0.3702
vn 0.8517 -0.4841 -0.2005
vn 0.2535 0.6840 0.6840
vn 0.8517 0.3705 0.3705
vn 0.2535 -0.9488 -0.1887
vn 0.8517 -0.5139 -0.1022
vn 0.2535 0.8043 0.5374
vn 0.8517 0.4357 0.2911
vn 0.2535 -0.9673 -0.0000
vn 0.8517 -0.5240 -0.0000
vn 0.2535 0.8937 0.3702
vn 0.8517 0.4841 0.2005
vn 0.2535 -0.9488 0.1887
vn 0.8517 -0.5139 0.1022
vn 0.2535 0.9488 0.1887
vn 0.8517 0.5139 0.1022
vn 0.2535 -0.8937 0.3702
vn 0.8517 -0.4841 0.2005
vn 0.2535 0.9673 -0.0000
vn 0.8517 0.5240 -0.0000
vn 0.2535 -0.8043 0.5374
vn 0.8517 -0.4357 0.2911
vn 0.2535 0.9488 -0.1887
vn 0.8517 0.5139 -0.1022
vn -0.8517 -0.0000 -0.5240
vn -0.8517 -0.1022 -0.5139
vn -0.8517 -0.2005 -0.4841
vn -0.8517 -0.2911 -0.4357
vn -0.8517 -0.3705 -0.3705
vn -0.8517 -0.4357 -0.2911
vn -0.8517 -0.4841 -0.2005
vn -0.8517 -0.5139 -0.1022
vn -0.8517 -0.5240 -0.0000
vn -0.8517 -0.5139 0.1022
vn -0.8517 -0.4841 0.2005
vn -0.8517 -0.4357 0.2911
vn -0.8517 -0.3705 0.3705
vn -0.8517 -0.2911 0.4357
vn -0.8517 -0.2005 0.4841
vn -0.8517 -0.1022 0.5139
vn -0.8517 -0.0000 0.5240
vn -0.8517 0.1022 0.5139
vn -0.8517 0.2005 0.4841
vn -0.8517 0.2911 0.4357
vn -0.8517 0.3705 0.3705
vn -0.8517 0.4357 0.2911
vn -0.8517 0.4841 0.2005
vn -0.8517 0.5139 0.1022
vn -0.8517 0.5240 -0.0000
vn -0.8517 0.5139 -0.1022
vn -0.8517 0.4841 -0.2005
vn -0.8517 0.4357 -0.2911
vn -0.8517 0.3705 -0.3705
vn -0.8517 0.2911 -0.4357
vn -0.8517 0.2005 -0.4841
vn -0.8517 0.1022 -0.5139
vn -0.2535 0.9488 -0.1887
vn -0.2535 0.8937 -0.3702
vn -0.2535 -0.8043 0.5374
vn -0.2535 -0.6840 0.6840
vn -0.2535 0.9673 -0.0000
vn -0.2535 -0.8937 0.3702
vn -0.2535 0.9488 0.1887
vn -0.2535 -0.9488 0.1887
vn -0.2535 0.8937 0.3702
vn -0.2535 -0.9673 -0.0000
vn -0.2535 0.8043 0.5374
vn -0.2535 -0.9488 -0.1887
vn -0.2535 0.6840 0.6840
vn -0.2535 -0.8937 -0.3702
vn -0.2535 0.5374 0.8043
vn -0.2535 -0.8043 -0.5374
vn -0.2535 0.3702 0.8937
vn -0.2535 0.1887 -0.9488
vn -0.2535 -0.0000 -0.9673
vn -0.2535 -0.6840 -0.6840
vn -0.2535 0.1887 0.9488
vn -0.2535 0.3702 -0.8937
vn -0.2535 -0.5374 -0.8043
vn -0.2535 -0.0000 0.9673
vn -0.2535 0.5374 -0.8043
vn -0.2535 -0.3702 -0.8937
vn -0.2535 -0.1887 0.9488
vn -0.2535 0.6840 -0.6840
vn -0.2535 -0.1887 -0.9488
vn -0.2535 -0.3702 0.8937
vn -0.2535 0.8043 -0.5374
vn -0.2535 -0.5374 0.8043
vt 0.530934 0.234262
vt 0.530934 0.285972
vt 0.500000 0.280822
vt 0.500000 0.232523
vt 0.604877 0.493802
vt 0.604877 0.445092
vt 0.635812 0.453454
vt 0.635812 0.498951
vt 0.530934 0.181539
vt 0.500000 0.183277
vt 0.740689 0.427229
vt 0.740689 0.378519
vt 0.771624 0.386882
vt 0.771624 0.432379
vt 0.604877 0.545512
vt 0.635812 0.547250
vt 0.530934 0.129828
vt 0.500000 0.134978
vt 0.740689 0.478939
vt 0.771624 0.480678
vt 0.604877 0.598235
vt 0.635812 0.596496
vt 0.530934 0.081119
vt 0.500000 0.089481
vt 0.740689 0.531662
vt 0.771624 0.529924
vt 0.604877 0.649945
vt 0.635812 0.644796
vt 0.530934 0.037281
vt 0.500000 0.048534
vt 0.740689 0.583373
vt 0.771624 0.578223
vt 0.604877 0.698655
vt 0.635812 0.690293
vt 0.530934 0.000000
vt 0.500000 0.013712
vt 0.740689 0.632082
vt 0.771624 0.623720
vt 0.604877 0.742493
vt 0.635812 0.731239
vt 0.666746 0.341238
vt 0.666746 0.378519
vt 0.635812 0.364807
vt 0.635812 0.329985
vt 0.740689 0.675920
vt 0.771624 0.664667
vt 0.666746 0.297401
vt 0.635812 0.289039
vt 0.740689 0.713201
vt 0.771624 0.699489
vt 0.666746 0.248691
vt 0.635812 0.243542
vt 0.420619 0.957900
vt 0.376781 0.987191
vt 0.368419 0.971547
vt 0.409366 0.944188
vt 0.666746 0.196981
vt 0.635812 0.195242
vt 0.457900 0.920619
vt 0.444188 0.909366
vt 0.666746 0.144258
vt 0.635812 0.145996
vt 0.530934 0.378519
vt 0.530934 0.415800
vt 0.500000 0.402088
vt 0.500000 0.367266
vt 0.666746 0.092548
vt 0.635812 0.097697
vt 0.530934 0.334682
vt 0.500000 0.326320
vt 0.666746 0.043838
vt 0.635812 0.052200
vt 0.666746 0.000000
vt 0.635812 0.011254
vt 0.055812 0.909366
vt 0.028453 0.868419
vt 0.009607 0.822922
vt 0.000000 0.774623
vt 0.000000 0.725377
vt 0.009607 0.677078
vt 0.028453 0.631581
vt 0.055812 0.590634
vt 0.090634 0.555812
vt 0.131581 0.528453
vt 0.177078 0.509607
vt 0.225377 0.500000
vt 0.274623 0.500000
vt 0.322922 0.509607
vt 0.368419 0.528453
vt 0.409366 0.555812
vt 0.444188 0.590634
vt 0.471547 0.631581
vt 0.490393 0.677078
vt 0.500000 0.725377
vt 0.500000 0.774623
vt 0.490393 0.822922
vt 0.471547 0.868419
vt 0.322922 0.990393
vt 0.274623 1.000000
vt 0.225377 1.000000
vt 0.177078 0.990393
vt 0.131581 0.971547
vt 0.090634 0.944188
vt 0.090634 0.444188
vt 0.055812 0.409366
vt 0.028453 0.368419
vt 0.009607 0.322922
vt 0.000000 0.274623
vt 0.000000 0.225377
vt 0.009607 0.177078
vt 0.028453 0.131581
vt 0.055812 0.090634
vt 0.090634 0.055812
vt 0.131581 0.028453
vt 0.177078 0.009607
vt 0.225377 0.000000
vt 0.274623 0.000000
vt 0.322922 0.009607
vt 0.368419 0.028453
vt 0.409366 0.055812
vt 0.444188 0.090634
vt 0.471547 0.131581
vt 0.490393 0.177078
vt 0.500000 0.225377
vt 0.500000 0.274623
vt 0.490393 0.322922
vt 0.471547 0.368419
vt 0.444188 0.409366
vt 0.409366 0.444188
vt 0.368419 0.471547
vt 0.322922 0.490393
vt 0.274623 0.500000
vt 0.225377 0.500000
vt 0.177078 0.490393
vt 0.131581 0.471547
vt 0.771624 0.011254
vt 0.771624 0.052200
vt 0.740689 0.043838
vt 0.740689 0.000000
vt 0.635812 0.280822
vt 0.635812 0.326320
vt 0.604877 0.334682
vt 0.604877 0.285972
vt 0.771624 0.097697
vt 0.740689 0.092548
vt 0.635812 0.367266
vt 0.604877 0.378519
vt 0.771624 0.145996
vt 0.740689 0.144258
vt 0.635812 0.402088
vt 0.604877 0.415800
vt 0.771624 0.195242
vt 0.740689 0.196981
vt 0.042100 0.079381
vt 0.079381 0.042100
vt 0.604877 0.445092
vt 0.530934 0.445092
vt 0.771624 0.243542
vt 0.740689 0.248691
vt 0.012809 0.123218
vt 0.666746 0.742493
vt 0.666746 0.713201
vt 0.740689 0.742492
vt 0.771624 0.289039
vt 0.740689 0.297401
vt 0.635812 0.699489
vt 0.635812 0.664667
vt 0.666746 0.675920
vt 0.771624 0.329985
vt 0.740689 0.341238
vt 0.635812 0.623720
vt 0.666746 0.632082
vt 0.771624 0.364807
vt 0.740689 0.378519
vt 0.500000 0.731239
vt 0.500000 0.690293
vt 0.530934 0.698655
vt 0.530934 0.742493
vt 0.635812 0.578223
vt 0.666746 0.583373
vt 0.635812 0.013712
vt 0.635812 0.048534
vt 0.604877 0.037281
vt 0.604877 0.000000
vt 0.500000 0.644796
vt 0.530934 0.649945
vt 0.635812 0.529924
vt 0.666746 0.531662
vt 0.635812 0.089481
vt 0.604877 0.081119
vt 0.500000 0.596496
vt 0.530934 0.598235
vt 0.635812 0.480678
vt 0.666746 0.478939
vt 0.635812 0.134978
vt 0.604877 0.129828
vt 0.500000 0.547250
vt 0.530934 0.545512
vt 0.635812 0.432379
vt 0.666746 0.427229
vt 0.635812 0.183277
vt 0.604877 0.181539
vt 0.500000 0.498951
vt 0.530934 0.493802
vt 0.635812 0.386882
vt 0.666746 0.378519
vt 0.635812 0.232523
vt 0.604877 0.234262
vt 0.500000 0.453454
s 1
f 65/1/1 68/2/2 45/3/3 46/4/4
f 69/5/5 72/6/6 59/7/7 60/8/8
f 73/9/9 65/1/1 46/4/4 47/10/10
f 75/11/11 78/12/12 33/13/13 34/14/14
f 79/15/15 69/5/5 60/8/8 61/16/16
f 81/17/17 73/9/9 47/10/10 48/18/18
f 83/19/19 75/11/11 34/14/14 35/20/20
f 85/21/21 79/15/15 61/16/16 62/22/22
f 87/23/23 81/17/17 48/18/18 49/24/24
f 89/25/25 83/19/19 35/20/20 36/26/26
f 91/27/27 85/21/21 62/22/22 63/28/28
f 93/29/29 87/23/23 49/24/24 50/30/30
f 95/31/31 89/25/25 36/26/26 37/32/32
f 97/33/33 91/27/27 63/28/28 64/34/34
f 99/35/35 93/29/29 50/30/30 51/36/36
f 101/37/37 95/31/31 37/32/32 38/38/38
f 78/39/12 97/33/33 64/34/34 33/40/13
f 103/41/39 99/42/35 51/43/36 52/44/40
f 105/45/41 101/37/37 38/38/38 39/46/42
f 107/47/43 103/41/39 52/44/40 53/48/44
f 109/49/45 105/45/41 39/46/42 40/50/46
f 111/51/47 107/47/43 53/48/44 54/52/48
f 113/53/49 109/54/45 40/55/46 41/56/50
f 115/57/51 111/51/47 54/52/48 55/58/52
f 117/59/53 113/53/49 41/56/50 42/60/54
f 119/61/55 115/57/51 55/58/52 56/62/56
f 121/63/57 117/64/53 42/65/54 43/66/58
f 123/67/59 119/61/55 56/62/56 57/68/60
f 125/69/61 121/63/57 43/66/58 44/70/62
f 127/71/63 123/67/59 57/68/60 58/72/64
f 68/2/2 125/69/61 44/70/62 45/3/3
f 72/73/6 127/71/63 58/72/64 59/74/7
f 33/75/13 64/76/34 63/77/28 62/78/22 61/79/16 60/80/8 59/81/7 58/82/64 57/83/60 56/84/56 55/85/52 54/86/48 53/87/44 52/88/40 51/89/36 50/90/30 49/91/24 48/92/18 47/93/10 46/94/4 45/95/3 44/96/62 43/97/58 42/60/54 41/56/50 40/55/46 39/98/42 38/99/38 37/100/32 36/101/26 35/102/20 34/103/14
f 1/104/65 2/105/66 3/106/67 4/107/68 5/108/69 6/109/70 7/110/71 8/111/72 9/112/73 10/113/74 11/114/75 12/115/76 13/116/77 14/117/78 15/118/79 16/119/80 17/120/81 18/121/82 19/122/83 20/123/84 21/124/85 22/125/86 23/126/87 24/127/88 25/128/89 26/129/90 27/130/91 28/131/92 29/132/93 30/133/94 31/134/95 32/135/96
f 27/136/91 26/137/90 128/138/97 71/139/98
f 71/139/98 128/138/97 127/71/63 72/73/6
f 13/140/77 12/141/76 126/142/99 67/143/100
f 67/143/100 126/142/99 125/69/61 68/2/2
f 26/137/90 25/144/89 124/145/101 128/138/97
f 128/138/97 124/145/101 123/67/59 127/71/63
f 12/141/76 11/146/75 122/147/102 126/142/99
f 126/142/99 122/147/102 121/63/57 125/69/61
f 25/144/89 24/148/88 120/149/103 124/145/101
f 124/145/101 120/149/103 119/61/55 123/67/59
f 11/146/75 10/150/74 118/151/104 122/147/102
f 122/147/102 118/151/104 117/64/53 121/63/57
f 24/148/88 23/152/87 116/153/105 120/149/103
f 120/149/103 116/153/105 115/57/51 119/61/55
f 10/113/74 9/112/73 114/154/106 118/155/104
f 118/151/104 114/156/106 113/157/49 117/64/53
f 23/152/87 22/158/86 112/159/107 116/153/105
f 116/153/105 112/159/107 111/51/47 115/57/51
f 9/112/73 8/111/72 110/160/108 114/154/106
f 114/161/106 110/162/108 109/49/45 113/163/49
f 22/158/86 21/164/85 108/165/109 112/159/107
f 112/159/107 108/165/109 107/47/43 111/51/47
f 8/166/72 7/167/71 106/168/110 110/162/108
f 110/162/108 106/168/110 105/45/41 109/49/45
f 21/164/85 20/169/84 104/170/111 108/165/109
f 108/165/109 104/170/111 103/41/39 107/47/43
f 7/167/71 6/171/70 102/172/112 106/168/110
f 106/168/110 102/172/112 101/37/37 105/45/41
f 20/169/84 19/173/83 100/174/113 104/170/111
f 104/170/111 100/174/113 99/42/35 103/41/39
f 1/175/65 32/176/96 98/177/114 77/178/115
f 77/178/115 98/177/114 97/33/33 78/39/12
f 6/171/70 5/179/69 96/180/116 102/172/112
f 102/172/112 96/180/116 95/31/31 101/37/37
f 19/181/83 18/182/82 94/183/117 100/184/113
f 100/184/113 94/183/117 93/29/29 99/35/35
f 32/176/96 31/185/95 92/186/118 98/177/114
f 98/177/114 92/186/118 91/27/27 97/33/33
f 5/179/69 4/187/68 90/188/119 96/180/116
f 96/180/116 90/188/119 89/25/25 95/31/31
f 18/182/82 17/189/81 88/190/120 94/183/117
f 94/183/117 88/190/120 87/23/23 93/29/29
f 31/185/95 30/191/94 86/192/121 92/186/118
f 92/186/118 86/192/121 85/21/21 91/27/27
f 4/187/68 3/193/67 84/194/122 90/188/119
f 90/188/119 84/194/122 83/19/19 89/25/25
f 17/189/81 16/195/80 82/196/123 88/190/120
f 88/190/120 82/196/123 81/17/17 87/23/23
f 30/191/94 29/197/93 80/198/124 86/192/121
f 86/192/121 80/198/124 79/15/15 85/21/21
f 3/193/67 2/199/66 76/200/125 84/194/122
f 84/194/122 76/200/125 75/11/11 83/19/19
f 16/195/80 15/201/79 74/202/126 82/196/123
f 82/196/123 74/202/126 73/9/9 81/17/17
f 29/197/93 28/203/92 70/204/127 80/198/124
f 80/198/124 70/204/127 69/5/5 79/15/15
f 2/199/66 1/205/65 77/206/115 76/200/125
f 76/200/125 77/206/115 78/12/12 75/11/11
f 15/201/79 14/207/78 66/208/128 74/202/126
f 74/202/126 66/208/128 65/1/1 73/9/9
f 28/203/92 27/209/91 71/157/98 70/204/127
f 70/204/127 71/157/98 72/6/6 69/5/5
f 14/207/78 13/140/77 67/143/100 66/208/128
f 66/208/128 67/143/100 68/2/2 65/1/1
