# Blender 4.0.1
# www.blender.org
mtllib Bomber_Blades.mtl
g Bomber_Propeller_Blade_Top_Bomber_Propeller_Blade
v 2.315907 0.318633 0.099555
v 2.315907 0.327766 -0.000000
v 2.315907 0.318633 -0.099555
v 2.378237 0.318633 0.099555
v 2.378237 0.327766 0.000000
v 2.378237 0.318633 -0.099555
v 2.271539 1.431790 0.447787
v 2.204785 1.545636 0.000000
v 2.271539 1.431790 -0.447787
v 2.422605 1.431790 0.447787
v 2.489359 1.545636 0.000000
v 2.422604 1.431790 -0.447786
v 2.295964 0.800193 -0.231580
v 2.398180 0.800193 -0.231580
v 2.398180 0.800193 0.231580
v 2.295964 0.800193 0.231580
v 2.409345 0.840194 0.000000
v 2.284799 0.840194 0.000000
v 2.315907 0.323199 0.049778
v 2.378237 0.323199 0.049778
v 2.232922 1.513126 0.209586
v 2.461222 1.513126 0.209586
v 2.293271 0.825174 0.107112
v 2.400873 0.825174 0.107112
v 2.315907 0.323199 -0.049778
v 2.378237 0.323199 -0.049778
v 2.232922 1.513126 -0.209586
v 2.461222 1.513126 -0.209586
v 2.293271 0.825174 -0.107112
v 2.400873 0.825174 -0.107112
v 2.202481 1.965663 0.227613
v 2.181977 1.998235 0.000000
v 2.202481 1.965663 -0.227613
v 2.244111 1.894383 -0.475014
v 2.491663 1.965663 0.227613
v 2.512167 1.998235 0.000000
v 2.491663 1.965663 -0.227613
v 2.450032 1.894383 -0.475014
v 2.450032 1.894383 0.475014
v 2.244111 1.894383 0.475014
v 2.347072 0.314739 0.100452
v 2.347072 0.323918 -0.000000
v 2.347072 0.314739 -0.100452
v 2.347072 1.439802 0.479150
v 2.347072 1.439802 -0.479150
v 2.347072 0.795572 0.238294
v 2.347072 0.795572 -0.238294
v 2.347072 0.319328 0.050226
v 2.347072 0.319328 -0.050226
v 2.347072 1.928778 0.521599
v 2.347072 2.077616 0.000000
v 2.347072 1.928778 -0.521599
v 2.347072 2.031815 0.305874
v 2.347072 2.031815 -0.305874
v 2.372626 0.797021 -0.234937
v 2.424805 1.998992 0.262531
v 2.424804 1.998992 -0.262531
v 2.362654 0.315905 0.100004
v 2.362654 0.325070 0.000000
v 2.362654 0.315905 -0.100004
v 2.384838 1.437103 0.463468
v 2.384838 1.437103 -0.463468
v 2.372626 0.797021 0.234937
v 2.362654 0.320487 0.050002
v 2.362654 0.320487 -0.050002
v 2.398552 1.915924 0.498306
v 2.436656 2.035508 0.000000
v 2.398552 1.915924 -0.498306
v 2.331489 0.315905 0.100004
v 2.331489 0.325070 -0.000000
v 2.331489 0.315905 -0.100004
v 2.309306 1.437103 0.463469
v 2.309306 1.437103 -0.463469
v 2.321518 0.797021 0.234937
v 2.331489 0.320487 0.050002
v 2.331489 0.320487 -0.050002
v 2.295592 1.915924 0.498306
v 2.257488 2.035508 0.000000
v 2.295592 1.915924 -0.498306
v 2.321518 0.797021 -0.234937
v 2.269339 1.998992 0.262531
v 2.269339 1.998992 -0.262531
v 2.175366 1.879876 0.000000
v 2.199525 1.844781 0.240409
v 2.243237 1.764665 0.506189
v 2.450907 1.764665 0.506189
v 2.494619 1.844781 0.240410
v 2.199525 1.844781 -0.240409
v 2.243237 1.764665 -0.506189
v 2.518778 1.879876 0.000000
v 2.494619 1.844781 -0.240409
v 2.450907 1.764665 -0.506189
v 2.347072 1.793823 -0.555645
v 2.347072 1.793823 0.555645
v 2.398768 1.784166 -0.527044
v 2.398769 1.784166 0.527044
v 2.295375 1.784166 0.527044
v 2.295375 1.784166 -0.527044
v 2.282347 1.116183 -0.344278
v 2.411797 1.116183 0.344278
v 2.450221 1.193288 0.000000
v 2.411797 1.116183 -0.344278
v 2.282347 1.116183 0.344278
v 2.243923 1.193288 0.000000
v 2.262199 1.169282 0.160433
v 2.431945 1.169282 0.160433
v 2.262199 1.169282 -0.160433
v 2.431945 1.169282 -0.160433
v 2.347072 1.117502 0.363142
v 2.347072 1.117502 -0.363142
v 2.379435 1.116998 -0.353710
v 2.379435 1.116998 0.353710
v 2.314709 1.116998 0.353710
v 2.314709 1.116998 -0.353710
vn 0.1212 -0.9885 -0.0905
vn 0.7488 -0.6616 -0.0400
vn 0.6466 -0.6165 0.4493
vn 0.1521 -0.8208 0.5506
vn 0.1212 -0.9885 0.0905
vn 0.7488 -0.6616 0.0400
vn 0.7648 -0.6442 -0.0000
vn 0.1223 -0.9925 -0.0000
vn 0.7642 -0.0431 0.6436
vn 0.9911 -0.0252 0.1306
vn 0.8344 0.5143 0.1984
vn 0.7638 0.3960 0.5097
vn 0.4312 0.0184 0.9021
vn 0.5206 0.5553 0.6486
vn -0.2568 -0.3298 -0.9085
vn -0.7561 -0.2494 -0.6050
vn -0.7497 -0.2109 -0.6273
vn -0.3361 -0.2501 -0.9080
vn 0.2568 -0.3298 0.9085
vn 0.7561 -0.2494 0.6050
vn 0.7497 -0.2109 0.6273
vn 0.3361 -0.2501 0.9080
vn 0.9914 -0.0951 0.0900
vn 0.9943 -0.1070 -0.0000
vn 0.9948 -0.1016 -0.0000
vn 0.9886 -0.1001 0.1120
vn -0.9914 -0.0951 0.0900
vn -0.7561 -0.2494 0.6050
vn -0.7497 -0.2109 0.6273
vn -0.9886 -0.1001 0.1120
vn 0.9914 -0.0951 -0.0900
vn 0.7561 -0.2494 -0.6050
vn 0.7497 -0.2109 -0.6273
vn 0.9886 -0.1001 -0.1120
vn -0.9914 -0.0951 -0.0900
vn -0.9943 -0.1070 -0.0000
vn -0.9948 -0.1016 -0.0000
vn -0.9886 -0.1001 -0.1120
vn -0.7488 -0.6616 0.0400
vn -0.7648 -0.6442 -0.0000
vn -0.9964 -0.0847 -0.0000
vn -0.9962 -0.0729 -0.0485
vn 0.6466 -0.6165 -0.4493
vn 0.7568 -0.2352 -0.6099
vn 0.9962 -0.0729 -0.0485
vn -0.7488 -0.6616 -0.0400
vn -0.6466 -0.6165 0.4493
vn -0.7568 -0.2352 0.6099
vn -0.9962 -0.0729 0.0485
vn 0.9964 -0.0847 -0.0000
vn 0.9962 -0.0729 0.0485
vn 0.7568 -0.2352 0.6099
vn 0.1636 -0.3075 0.9374
vn -0.1521 -0.8208 -0.5506
vn -0.6466 -0.6165 -0.4493
vn -0.7568 -0.2352 -0.6099
vn -0.1636 -0.3075 -0.9374
vn -0.9998 -0.0199 -0.0000
vn -0.9911 -0.0252 0.1306
vn -0.8344 0.5143 0.1984
vn -0.8356 0.5493 -0.0000
vn -0.7642 -0.0431 0.6436
vn -0.7638 0.3960 0.5097
vn 0.1521 -0.8208 -0.5506
vn 0.4783 0.8446 0.2408
vn 0.4783 0.8446 -0.2408
vn 0.4564 0.8898 -0.0000
vn 0.8356 0.5493 -0.0000
vn 0.8344 0.5143 -0.1984
vn 0.5206 0.5553 -0.6486
vn 0.7638 0.3960 -0.5097
vn -0.7642 -0.0431 -0.6436
vn -0.9911 -0.0252 -0.1306
vn -0.8344 0.5143 -0.1984
vn -0.7638 0.3960 -0.5097
vn 0.9998 -0.0199 -0.0000
vn 0.9911 -0.0252 -0.1306
vn -0.4312 0.0184 -0.9021
vn -0.5206 0.5553 -0.6486
vn 0.7642 -0.0431 -0.6436
vn 0.4312 0.0184 -0.9021
vn -0.0000 0.0320 -0.9995
vn -0.0000 0.6167 -0.7872
vn -0.4783 0.8446 -0.2408
vn -0.0000 0.9506 -0.3105
vn -0.4564 0.8898 -0.0000
vn -0.4783 0.8446 0.2408
vn -0.0000 0.9506 0.3105
vn -0.0000 1.0000 -0.0000
vn -0.5206 0.5553 0.6486
vn -0.0000 0.6167 0.7872
vn -0.0000 -0.8298 -0.5581
vn -0.0000 -0.9958 0.0911
vn -0.1212 -0.9885 0.0905
vn -0.1223 -0.9925 -0.0000
vn -0.0000 -1.0000 -0.0000
vn -0.0000 -0.9958 -0.0911
vn -0.1212 -0.9885 -0.0905
vn -0.0000 -0.3150 -0.9491
vn 0.1636 -0.3075 -0.9374
vn -0.1521 -0.8208 0.5506
vn -0.0000 -0.8298 0.5581
vn -0.0000 -0.3150 0.9491
vn -0.1636 -0.3075 0.9374
vn -0.2568 -0.3298 0.9085
vn -0.0000 -0.3447 0.9387
vn -0.0000 -0.2643 0.9645
vn -0.3361 -0.2501 0.9080
vn 0.2568 -0.3298 -0.9085
vn -0.0000 -0.3447 -0.9387
vn -0.0000 -0.2643 -0.9645
vn 0.3361 -0.2501 -0.9080
vn -0.4312 0.0184 0.9021
vn -0.0000 0.0320 0.9995
vt 0.447420 0.500000
vt 0.447420 0.500000
s 1
f 64/1/1 20/1/2 4/1/3 58/1/4
f 65/1/5 26/1/6 5/1/7 59/1/8
f 86/1/9 87/1/10 35/1/11 39/1/12
f 96/1/13 86/1/9 39/1/12 66/1/14
f 114/1/15 99/1/16 9/1/17 73/1/18
f 112/1/19 100/1/20 10/1/21 61/1/22
f 106/1/23 101/1/24 11/1/25 22/1/26
f 105/1/27 103/1/28 7/1/29 21/1/30
f 108/1/31 102/1/32 12/1/33 28/1/34
f 107/1/35 104/1/36 8/1/37 27/1/38
f 25/1/39 2/1/40 18/1/41 29/1/42
f 26/1/6 6/1/43 14/1/44 30/1/45
f 19/1/46 1/1/47 16/1/48 23/1/49
f 20/1/2 5/1/7 17/1/50 24/1/51
f 58/1/4 4/1/3 15/1/52 63/1/53
f 71/1/54 3/1/55 13/1/56 80/1/57
f 4/1/3 20/1/2 24/1/51 15/1/52
f 2/1/40 19/1/46 23/1/49 18/1/41
f 104/1/36 105/1/27 21/1/30 8/1/37
f 100/1/20 106/1/23 22/1/26 10/1/21
f 83/1/58 84/1/59 31/2/60 32/1/61
f 59/1/8 5/1/7 20/1/2 64/1/1
f 5/1/7 26/1/6 30/1/45 17/1/50
f 3/1/55 25/1/39 29/1/42 13/1/56
f 99/1/16 107/1/35 27/1/38 9/1/17
f 101/1/24 108/1/31 28/1/34 11/1/25
f 84/1/59 85/1/62 40/1/63 31/2/60
f 60/1/64 6/1/43 26/1/6 65/1/5
f 56/1/65 66/1/14 39/1/12 35/1/11
f 57/1/66 67/1/67 36/1/68 37/1/69
f 67/1/67 56/1/65 35/1/11 36/1/68
f 68/1/70 57/1/66 37/1/69 38/1/71
f 89/1/72 88/1/73 33/1/74 34/1/75
f 88/1/73 83/1/58 32/1/61 33/1/74
f 87/1/10 90/1/76 36/1/68 35/1/11
f 90/1/76 91/1/77 37/1/69 36/1/68
f 98/1/78 89/1/72 34/1/75 79/1/79
f 91/1/77 92/1/80 38/1/71 37/1/69
f 95/1/81 93/1/82 52/1/83 68/1/70
f 79/1/79 82/1/84 54/1/85 52/1/83
f 78/1/86 81/1/87 53/1/88 51/1/89
f 82/1/84 78/1/86 51/1/89 54/1/85
f 81/1/87 77/1/90 50/1/91 53/1/88
f 71/1/54 43/1/92 49/1/93 76/1/94
f 70/1/95 42/1/96 48/1/97 75/1/98
f 60/1/64 43/1/92 47/1/99 55/1/100
f 69/1/101 41/1/102 46/1/103 74/1/104
f 113/1/105 109/1/106 44/1/107 72/1/108
f 111/1/109 110/1/110 45/1/111 62/1/112
f 97/1/113 94/1/114 50/1/91 77/1/90
f 76/1/94 49/1/93 42/1/96 70/1/95
f 75/1/98 48/1/97 41/1/102 69/1/101
f 102/1/32 111/1/109 62/1/112 12/1/33
f 6/1/43 60/1/64 55/1/100 14/1/44
f 92/1/80 95/1/81 68/1/70 38/1/71
f 52/1/83 54/1/85 57/1/66 68/1/70
f 51/1/89 53/1/88 56/1/65 67/1/67
f 54/1/85 51/1/89 67/1/67 57/1/66
f 53/1/88 50/1/91 66/1/14 56/1/65
f 43/1/92 60/1/64 65/1/5 49/1/93
f 42/1/96 59/1/8 64/1/1 48/1/97
f 41/1/102 58/1/4 63/1/53 46/1/103
f 109/1/106 112/1/19 61/1/22 44/1/107
f 94/1/114 96/1/13 66/1/14 50/1/91
f 49/1/93 65/1/5 59/1/8 42/1/96
f 48/1/97 64/1/1 58/1/4 41/1/102
f 19/1/46 75/1/98 69/1/101 1/1/47
f 25/1/39 76/1/94 70/1/95 2/1/40
f 85/1/62 97/1/113 77/1/90 40/1/63
f 103/1/28 113/1/105 72/1/108 7/1/29
f 1/1/47 69/1/101 74/1/104 16/1/48
f 2/1/40 70/1/95 75/1/98 19/1/46
f 3/1/55 71/1/54 76/1/94 25/1/39
f 31/1/60 40/1/63 77/1/90 81/1/87
f 33/1/74 32/1/61 78/1/86 82/1/84
f 32/1/61 31/1/60 81/1/87 78/1/86
f 34/1/75 33/1/74 82/1/84 79/1/79
f 93/1/82 98/1/78 79/1/79 52/1/83
f 43/1/92 71/1/54 80/1/57 47/1/99
f 110/1/110 114/1/15 73/1/18 45/1/111
f 45/1/111 73/1/18 98/1/78 93/1/82
f 7/1/29 72/1/108 97/1/113 85/1/62
f 44/1/107 61/1/22 96/1/13 94/1/114
f 12/1/33 62/1/112 95/1/81 92/1/80
f 72/1/108 44/1/107 94/1/114 97/1/113
f 62/1/112 45/1/111 93/1/82 95/1/81
f 28/1/34 12/1/33 92/1/80 91/1/77
f 73/1/18 9/1/17 89/1/72 98/1/78
f 11/1/25 28/1/34 91/1/77 90/1/76
f 22/1/26 11/1/25 90/1/76 87/1/10
f 27/1/38 8/1/37 83/1/58 88/1/73
f 9/1/17 27/1/38 88/1/73 89/1/72
f 21/1/30 7/1/29 85/1/62 84/1/59
f 8/1/37 21/1/30 84/1/59 83/1/58
f 61/1/22 10/1/21 86/1/9 96/1/13
f 10/1/21 22/1/26 87/1/10 86/1/9
f 47/1/99 80/1/57 114/1/15 110/1/110
f 16/1/48 74/1/104 113/1/105 103/1/28
f 46/1/103 63/1/53 112/1/19 109/1/106
f 14/1/44 55/1/100 111/1/109 102/1/32
f 55/1/100 47/1/99 110/1/110 111/1/109
f 74/1/104 46/1/103 109/1/106 113/1/105
f 17/1/50 30/1/45 108/1/31 101/1/24
f 13/1/56 29/1/42 107/1/35 99/1/16
f 15/1/52 24/1/51 106/1/23 100/1/20
f 18/1/41 23/1/49 105/1/27 104/1/36
f 29/1/42 18/1/41 104/1/36 107/1/35
f 30/1/45 14/1/44 102/1/32 108/1/31
f 23/1/49 16/1/48 103/1/28 105/1/27
f 24/1/51 17/1/50 101/1/24 106/1/23
f 63/1/53 15/1/52 100/1/20 112/1/19
f 80/1/57 13/1/56 99/1/16 114/1/15
g Bomber_Propeller_Blade_Left_Bomber_Propeller_Blade
v 2.314472 0.104132 -0.318411
v 2.314472 0.004577 -0.327544
v 2.314472 -0.094978 -0.318411
v 2.376802 0.104132 -0.318411
v 2.376802 0.004577 -0.327544
v 2.376802 -0.094978 -0.318411
v 2.270105 0.452364 -1.431568
v 2.203350 0.004577 -1.545414
v 2.270105 -0.443210 -1.431568
v 2.421170 0.452364 -1.431568
v 2.487925 0.004577 -1.545414
v 2.421170 -0.443209 -1.431568
v 2.294529 -0.227003 -0.799971
v 2.396745 -0.227003 -0.799971
v 2.396745 0.236157 -0.799971
v 2.294529 0.236157 -0.799971
v 2.407910 0.004577 -0.839972
v 2.283364 0.004577 -0.839972
v 2.314472 0.054355 -0.322977
v 2.376802 0.054355 -0.322977
v 2.231487 0.214163 -1.512904
v 2.459787 0.214163 -1.512904
v 2.291836 0.111689 -0.824952
v 2.399438 0.111689 -0.824952
v 2.314472 -0.045201 -0.322977
v 2.376802 -0.045201 -0.322977
v 2.231487 -0.205009 -1.512904
v 2.459787 -0.205009 -1.512904
v 2.291836 -0.102535 -0.824952
v 2.399438 -0.102535 -0.824952
v 2.201046 0.232190 -1.965441
v 2.180542 0.004577 -1.998012
v 2.201046 -0.223036 -1.965441
v 2.242676 -0.470437 -1.894161
v 2.490228 0.232190 -1.965441
v 2.510733 0.004577 -1.998012
v 2.490228 -0.223036 -1.965441
v 2.448598 -0.470437 -1.894161
v 2.448598 0.479591 -1.894161
v 2.242676 0.479591 -1.894161
v 2.345637 0.105029 -0.314517
v 2.345637 0.004577 -0.323696
v 2.345637 -0.095875 -0.314517
v 2.345637 0.483728 -1.439580
v 2.345637 -0.474573 -1.439580
v 2.345637 0.242871 -0.795350
v 2.345637 -0.233717 -0.795350
v 2.345637 0.054803 -0.319106
v 2.345637 -0.045649 -0.319106
v 2.345637 0.526176 -1.928556
v 2.345637 0.004577 -2.077394
v 2.345637 -0.517022 -1.928556
v 2.345637 0.310451 -2.031593
v 2.345637 -0.301297 -2.031593
v 2.371191 -0.230360 -0.796799
v 2.423370 0.267108 -1.998770
v 2.423370 -0.257954 -1.998770
v 2.361220 0.104581 -0.315683
v 2.361220 0.004577 -0.324848
v 2.361220 -0.095427 -0.315683
v 2.383404 0.468046 -1.436881
v 2.383403 -0.458891 -1.436881
v 2.371191 0.239514 -0.796799
v 2.361220 0.054579 -0.320265
v 2.361220 -0.045425 -0.320265
v 2.397117 0.502883 -1.915702
v 2.435221 0.004577 -2.035285
v 2.397117 -0.493729 -1.915702
v 2.330055 0.104581 -0.315683
v 2.330055 0.004577 -0.324848
v 2.330055 -0.095427 -0.315683
v 2.307871 0.468046 -1.436881
v 2.307871 -0.458892 -1.436881
v 2.320083 0.239514 -0.796799
v 2.330055 0.054579 -0.320265
v 2.330055 -0.045425 -0.320265
v 2.294157 0.502883 -1.915702
v 2.256053 0.004577 -2.035285
v 2.294157 -0.493729 -1.915702
v 2.320083 -0.230360 -0.796799
v 2.267905 0.267108 -1.998770
v 2.267905 -0.257954 -1.998770
v 2.173932 0.004577 -1.879654
v 2.198090 0.244986 -1.844559
v 2.241802 0.510766 -1.764443
v 2.449472 0.510766 -1.764443
v 2.493184 0.244987 -1.844559
v 2.198090 -0.235832 -1.844559
v 2.241802 -0.501612 -1.764443
v 2.517343 0.004577 -1.879654
v 2.493184 -0.235832 -1.844559
v 2.449472 -0.501612 -1.764443
v 2.345637 -0.551068 -1.793601
v 2.345637 0.560223 -1.793601
v 2.397334 -0.522467 -1.783944
v 2.397334 0.531621 -1.783944
v 2.293941 0.531621 -1.783944
v 2.293941 -0.522467 -1.783944
v 2.280912 -0.339701 -1.115961
v 2.410362 0.348855 -1.115961
v 2.448786 0.004577 -1.193066
v 2.410362 -0.339701 -1.115961
v 2.280912 0.348855 -1.115961
v 2.242489 0.004577 -1.193066
v 2.260764 0.165010 -1.169060
v 2.430510 0.165010 -1.169060
v 2.260764 -0.155856 -1.169060
v 2.430510 -0.155856 -1.169060
v 2.345637 0.367719 -1.117280
v 2.345637 -0.358565 -1.117280
v 2.378000 -0.349133 -1.116776
v 2.378000 0.358287 -1.116776
v 2.313275 0.358287 -1.116776
v 2.313274 -0.349133 -1.116776
vn 0.1212 -0.0905 0.9885
vn 0.7488 -0.0400 0.6616
vn 0.6466 0.4493 0.6165
vn 0.1521 0.5506 0.8208
vn 0.1212 0.0905 0.9885
vn 0.7488 0.0400 0.6616
vn 0.7648 -0.0000 0.6442
vn 0.1223 -0.0000 0.9925
vn 0.7642 0.6436 0.0431
vn 0.9911 0.1306 0.0252
vn 0.8344 0.1984 -0.5143
vn 0.7638 0.5097 -0.3960
vn 0.4312 0.9021 -0.0184
vn 0.5206 0.6486 -0.5553
vn -0.2568 -0.9085 0.3298
vn -0.7561 -0.6050 0.2494
vn -0.7497 -0.6273 0.2109
vn -0.3361 -0.9080 0.2501
vn 0.2568 0.9085 0.3298
vn 0.7561 0.6050 0.2494
vn 0.7497 0.6273 0.2109
vn 0.3361 0.9080 0.2501
vn 0.9914 0.0900 0.0951
vn 0.9943 -0.0000 0.1070
vn 0.9948 -0.0000 0.1016
vn 0.9886 0.1120 0.1001
vn -0.9914 0.0900 0.0951
vn -0.7561 0.6050 0.2494
vn -0.7497 0.6273 0.2109
vn -0.9886 0.1120 0.1001
vn 0.9914 -0.0900 0.0951
vn 0.7561 -0.6050 0.2494
vn 0.7497 -0.6273 0.2109
vn 0.9886 -0.1120 0.1001
vn -0.9914 -0.0900 0.0951
vn -0.9943 -0.0000 0.1070
vn -0.9948 -0.0000 0.1016
vn -0.9886 -0.1120 0.1001
vn -0.7488 0.0400 0.6616
vn -0.7648 -0.0000 0.6442
vn -0.9964 -0.0000 0.0847
vn -0.9962 -0.0485 0.0729
vn 0.6466 -0.4493 0.6165
vn 0.7568 -0.6099 0.2352
vn 0.9962 -0.0485 0.0729
vn -0.7488 -0.0400 0.6616
vn -0.6466 0.4493 0.6165
vn -0.7568 0.6099 0.2352
vn -0.9962 0.0485 0.0729
vn 0.9964 -0.0000 0.0847
vn 0.9962 0.0485 0.0729
vn 0.7568 0.6099 0.2352
vn 0.1636 0.9374 0.3075
vn -0.1521 -0.5506 0.8208
vn -0.6466 -0.4493 0.6165
vn -0.7568 -0.6099 0.2352
vn -0.1636 -0.9374 0.3075
vn -0.9998 -0.0000 0.0199
vn -0.9911 0.1306 0.0252
vn -0.8344 0.1984 -0.5143
vn -0.8356 -0.0000 -0.5493
vn -0.7642 0.6436 0.0431
vn -0.7638 0.5097 -0.3960
vn 0.1521 -0.5506 0.8208
vn 0.4783 0.2408 -0.8446
vn 0.4783 -0.2408 -0.8446
vn 0.4564 -0.0000 -0.8898
vn 0.8356 -0.0000 -0.5493
vn 0.8344 -0.1984 -0.5143
vn 0.5206 -0.6486 -0.5553
vn 0.7638 -0.5097 -0.3960
vn -0.7642 -0.6436 0.0431
vn -0.9911 -0.1306 0.0252
vn -0.8344 -0.1984 -0.5143
vn -0.7638 -0.5097 -0.3960
vn 0.9998 -0.0000 0.0199
vn 0.9911 -0.1306 0.0252
vn -0.4312 -0.9021 -0.0184
vn -0.5206 -0.6486 -0.5553
vn 0.7642 -0.6436 0.0431
vn 0.4312 -0.9021 -0.0184
vn -0.0000 -0.9995 -0.0320
vn -0.0000 -0.7872 -0.6167
vn -0.4783 -0.2408 -0.8446
vn -0.0000 -0.3105 -0.9506
vn -0.4564 -0.0000 -0.8898
vn -0.4783 0.2408 -0.8446
vn -0.0000 0.3105 -0.9506
vn -0.0000 -0.0000 -1.0000
vn -0.5206 0.6486 -0.5553
vn -0.0000 0.7872 -0.6167
vn -0.0000 -0.5581 0.8298
vn -0.0000 0.0911 0.9958
vn -0.1212 0.0905 0.9885
vn -0.1223 -0.0000 0.9925
vn -0.0000 -0.0000 1.0000
vn -0.0000 -0.0911 0.9958
vn -0.1212 -0.0905 0.9885
vn -0.0000 -0.9491 0.3150
vn 0.1636 -0.9374 0.3075
vn -0.1521 0.5506 0.8208
vn -0.0000 0.5581 0.8298
vn -0.0000 0.9491 0.3150
vn -0.1636 0.9374 0.3075
vn -0.2568 0.9085 0.3298
vn -0.0000 0.9387 0.3447
vn -0.0000 0.9645 0.2643
vn -0.3361 0.9080 0.2501
vn 0.2568 -0.9085 0.3298
vn -0.0000 -0.9387 0.3447
vn -0.0000 -0.9645 0.2643
vn 0.3361 -0.9080 0.2501
vn -0.4312 0.9021 -0.0184
vn -0.0000 0.9995 -0.0320
vt 0.447420 0.500000
vt 0.447420 0.500000
s 1
f 178/3/115 134/3/116 118/3/117 172/3/118
f 179/3/119 140/3/120 119/3/121 173/3/122
f 200/3/123 201/3/124 149/3/125 153/3/126
f 210/3/127 200/3/123 153/3/126 180/3/128
f 228/3/129 213/3/130 123/3/131 187/3/132
f 226/3/133 214/3/134 124/3/135 175/3/136
f 220/3/137 215/3/138 125/3/139 136/3/140
f 219/3/141 217/3/142 121/3/143 135/3/144
f 222/3/145 216/3/146 126/3/147 142/3/148
f 221/3/149 218/3/150 122/3/151 141/3/152
f 139/3/153 116/3/154 132/3/155 143/3/156
f 140/3/120 120/3/157 128/3/158 144/3/159
f 133/3/160 115/3/161 130/3/162 137/3/163
f 134/3/116 119/3/121 131/3/164 138/3/165
f 172/3/118 118/3/117 129/3/166 177/3/167
f 185/3/168 117/3/169 127/3/170 194/3/171
f 118/3/117 134/3/116 138/3/165 129/3/166
f 116/3/154 133/3/160 137/3/163 132/3/155
f 218/3/150 219/3/141 135/3/144 122/3/151
f 214/3/134 220/3/137 136/3/140 124/3/135
f 197/3/172 198/3/173 145/4/174 146/3/175
f 173/3/122 119/3/121 134/3/116 178/3/115
f 119/3/121 140/3/120 144/3/159 131/3/164
f 117/3/169 139/3/153 143/3/156 127/3/170
f 213/3/130 221/3/149 141/3/152 123/3/131
f 215/3/138 222/3/145 142/3/148 125/3/139
f 198/3/173 199/3/176 154/3/177 145/4/174
f 174/3/178 120/3/157 140/3/120 179/3/119
f 170/3/179 180/3/128 153/3/126 149/3/125
f 171/3/180 181/3/181 150/3/182 151/3/183
f 181/3/181 170/3/179 149/3/125 150/3/182
f 182/3/184 171/3/180 151/3/183 152/3/185
f 203/3/186 202/3/187 147/3/188 148/3/189
f 202/3/187 197/3/172 146/3/175 147/3/188
f 201/3/124 204/3/190 150/3/182 149/3/125
f 204/3/190 205/3/191 151/3/183 150/3/182
f 212/3/192 203/3/186 148/3/189 193/3/193
f 205/3/191 206/3/194 152/3/185 151/3/183
f 209/3/195 207/3/196 166/3/197 182/3/184
f 193/3/193 196/3/198 168/3/199 166/3/197
f 192/3/200 195/3/201 167/3/202 165/3/203
f 196/3/198 192/3/200 165/3/203 168/3/199
f 195/3/201 191/3/204 164/3/205 167/3/202
f 185/3/168 157/3/206 163/3/207 190/3/208
f 184/3/209 156/3/210 162/3/211 189/3/212
f 174/3/178 157/3/206 161/3/213 169/3/214
f 183/3/215 155/3/216 160/3/217 188/3/218
f 227/3/219 223/3/220 158/3/221 186/3/222
f 225/3/223 224/3/224 159/3/225 176/3/226
f 211/3/227 208/3/228 164/3/205 191/3/204
f 190/3/208 163/3/207 156/3/210 184/3/209
f 189/3/212 162/3/211 155/3/216 183/3/215
f 216/3/146 225/3/223 176/3/226 126/3/147
f 120/3/157 174/3/178 169/3/214 128/3/158
f 206/3/194 209/3/195 182/3/184 152/3/185
f 166/3/197 168/3/199 171/3/180 182/3/184
f 165/3/203 167/3/202 170/3/179 181/3/181
f 168/3/199 165/3/203 181/3/181 171/3/180
f 167/3/202 164/3/205 180/3/128 170/3/179
f 157/3/206 174/3/178 179/3/119 163/3/207
f 156/3/210 173/3/122 178/3/115 162/3/211
f 155/3/216 172/3/118 177/3/167 160/3/217
f 223/3/220 226/3/133 175/3/136 158/3/221
f 208/3/228 210/3/127 180/3/128 164/3/205
f 163/3/207 179/3/119 173/3/122 156/3/210
f 162/3/211 178/3/115 172/3/118 155/3/216
f 133/3/160 189/3/212 183/3/215 115/3/161
f 139/3/153 190/3/208 184/3/209 116/3/154
f 199/3/176 211/3/227 191/3/204 154/3/177
f 217/3/142 227/3/219 186/3/222 121/3/143
f 115/3/161 183/3/215 188/3/218 130/3/162
f 116/3/154 184/3/209 189/3/212 133/3/160
f 117/3/169 185/3/168 190/3/208 139/3/153
f 145/3/174 154/3/177 191/3/204 195/3/201
f 147/3/188 146/3/175 192/3/200 196/3/198
f 146/3/175 145/3/174 195/3/201 192/3/200
f 148/3/189 147/3/188 196/3/198 193/3/193
f 207/3/196 212/3/192 193/3/193 166/3/197
f 157/3/206 185/3/168 194/3/171 161/3/213
f 224/3/224 228/3/129 187/3/132 159/3/225
f 159/3/225 187/3/132 212/3/192 207/3/196
f 121/3/143 186/3/222 211/3/227 199/3/176
f 158/3/221 175/3/136 210/3/127 208/3/228
f 126/3/147 176/3/226 209/3/195 206/3/194
f 186/3/222 158/3/221 208/3/228 211/3/227
f 176/3/226 159/3/225 207/3/196 209/3/195
f 142/3/148 126/3/147 206/3/194 205/3/191
f 187/3/132 123/3/131 203/3/186 212/3/192
f 125/3/139 142/3/148 205/3/191 204/3/190
f 136/3/140 125/3/139 204/3/190 201/3/124
f 141/3/152 122/3/151 197/3/172 202/3/187
f 123/3/131 141/3/152 202/3/187 203/3/186
f 135/3/144 121/3/143 199/3/176 198/3/173
f 122/3/151 135/3/144 198/3/173 197/3/172
f 175/3/136 124/3/135 200/3/123 210/3/127
f 124/3/135 136/3/140 201/3/124 200/3/123
f 161/3/213 194/3/171 228/3/129 224/3/224
f 130/3/162 188/3/218 227/3/219 217/3/142
f 160/3/217 177/3/167 226/3/133 223/3/220
f 128/3/158 169/3/214 225/3/223 216/3/146
f 169/3/214 161/3/213 224/3/224 225/3/223
f 188/3/218 160/3/217 223/3/220 227/3/219
f 131/3/164 144/3/159 222/3/145 215/3/138
f 127/3/170 143/3/156 221/3/149 213/3/130
f 129/3/166 138/3/165 220/3/137 214/3/134
f 132/3/155 137/3/163 219/3/141 218/3/150
f 143/3/156 132/3/155 218/3/150 221/3/149
f 144/3/159 128/3/158 216/3/146 222/3/145
f 137/3/163 130/3/162 217/3/142 219/3/141
f 138/3/165 131/3/164 215/3/138 220/3/137
f 177/3/167 129/3/166 214/3/134 226/3/133
f 194/3/171 127/3/170 213/3/130 228/3/129
g Bomber_Propeller_Blade_Bottom_Bomber_Propeller_Blade
v 2.314472 -0.314056 -0.099333
v 2.314472 -0.323189 0.000222
v 2.314472 -0.314056 0.099777
v 2.376802 -0.314056 -0.099333
v 2.376802 -0.323189 0.000222
v 2.376802 -0.314056 0.099777
v 2.270105 -1.427214 -0.447564
v 2.203350 -1.541059 0.000222
v 2.270105 -1.427214 0.448009
v 2.421170 -1.427214 -0.447564
v 2.487925 -1.541059 0.000222
v 2.421170 -1.427214 0.448009
v 2.294529 -0.795616 0.231802
v 2.396745 -0.795616 0.231802
v 2.396745 -0.795616 -0.231358
v 2.294529 -0.795616 -0.231358
v 2.407910 -0.835617 0.000222
v 2.283365 -0.835617 0.000222
v 2.314472 -0.318622 -0.049555
v 2.376802 -0.318622 -0.049556
v 2.231487 -1.508549 -0.209363
v 2.459787 -1.508549 -0.209364
v 2.291836 -0.820597 -0.106890
v 2.399438 -0.820597 -0.106890
v 2.314472 -0.318622 0.050000
v 2.376802 -0.318622 0.050000
v 2.231487 -1.508549 0.209808
v 2.459788 -1.508549 0.209808
v 2.291837 -0.820597 0.107334
v 2.399438 -0.820597 0.107334
v 2.201046 -1.961086 -0.227391
v 2.180542 -1.993658 0.000222
v 2.201046 -1.961087 0.227835
v 2.242677 -1.889806 0.475236
v 2.490228 -1.961087 -0.227391
v 2.510733 -1.993658 0.000222
v 2.490228 -1.961087 0.227835
v 2.448598 -1.889806 0.475236
v 2.448598 -1.889806 -0.474792
v 2.242676 -1.889806 -0.474792
v 2.345637 -0.310162 -0.100230
v 2.345637 -0.319341 0.000222
v 2.345637 -0.310162 0.100674
v 2.345637 -1.435225 -0.478928
v 2.345637 -1.435225 0.479373
v 2.345637 -0.790995 -0.238072
v 2.345637 -0.790995 0.238517
v 2.345637 -0.314752 -0.050004
v 2.345637 -0.314752 0.050448
v 2.345637 -1.924201 -0.521376
v 2.345637 -2.073039 0.000222
v 2.345637 -1.924201 0.521821
v 2.345637 -2.027238 -0.305652
v 2.345637 -2.027238 0.306096
v 2.371191 -0.792444 0.235159
v 2.423370 -1.994415 -0.262309
v 2.423370 -1.994415 0.262753
v 2.361220 -0.311328 -0.099782
v 2.361220 -0.320493 0.000222
v 2.361220 -0.311328 0.100226
v 2.383404 -1.432526 -0.463246
v 2.383404 -1.432526 0.463691
v 2.371191 -0.792444 -0.234715
v 2.361220 -0.315911 -0.049780
v 2.361220 -0.315911 0.050224
v 2.397118 -1.911347 -0.498084
v 2.435222 -2.030931 0.000222
v 2.397118 -1.911347 0.498528
v 2.330055 -0.311328 -0.099782
v 2.330055 -0.320493 0.000222
v 2.330055 -0.311328 0.100226
v 2.307871 -1.432526 -0.463246
v 2.307871 -1.432526 0.463691
v 2.320083 -0.792444 -0.234715
v 2.330055 -0.315911 -0.049780
v 2.330055 -0.315911 0.050224
v 2.294157 -1.911347 -0.498084
v 2.256053 -2.030931 0.000222
v 2.294157 -1.911347 0.498528
v 2.320083 -0.792444 0.235159
v 2.267905 -1.994415 -0.262309
v 2.267905 -1.994415 0.262753
v 2.173932 -1.875299 0.000222
v 2.198090 -1.840204 -0.240187
v 2.241802 -1.760089 -0.505967
v 2.449472 -1.760089 -0.505967
v 2.493184 -1.840204 -0.240187
v 2.198091 -1.840204 0.240632
v 2.241803 -1.760089 0.506412
v 2.517343 -1.875299 0.000222
v 2.493184 -1.840204 0.240632
v 2.449472 -1.760089 0.506411
v 2.345637 -1.789246 0.555868
v 2.345637 -1.789246 -0.555423
v 2.397334 -1.779589 0.527266
v 2.397334 -1.779589 -0.526822
v 2.293941 -1.779589 -0.526822
v 2.293941 -1.779589 0.527267
v 2.280912 -1.111606 0.344501
v 2.410362 -1.111606 -0.344056
v 2.448786 -1.188711 0.000222
v 2.410362 -1.111606 0.344501
v 2.280912 -1.111606 -0.344056
v 2.242489 -1.188711 0.000222
v 2.260764 -1.164706 -0.160211
v 2.430511 -1.164706 -0.160211
v 2.260764 -1.164706 0.160655
v 2.430511 -1.164706 0.160655
v 2.345637 -1.112926 -0.362920
v 2.345637 -1.112926 0.363365
v 2.378000 -1.112421 0.353933
v 2.378000 -1.112421 -0.353488
v 2.313275 -1.112421 -0.353488
v 2.313275 -1.112421 0.353933
vn 0.1212 0.9885 0.0905
vn 0.7488 0.6616 0.0400
vn 0.6466 0.6165 -0.4493
vn 0.1521 0.8208 -0.5506
vn 0.1212 0.9885 -0.0905
vn 0.7488 0.6616 -0.0400
vn 0.7648 0.6442 -0.0000
vn 0.1223 0.9925 -0.0000
vn 0.7642 0.0431 -0.6436
vn 0.9911 0.0252 -0.1306
vn 0.8344 -0.5143 -0.1984
vn 0.7638 -0.3960 -0.5097
vn 0.4312 -0.0184 -0.9021
vn 0.5206 -0.5553 -0.6486
vn -0.2568 0.3298 0.9085
vn -0.7561 0.2494 0.6050
vn -0.7497 0.2109 0.6273
vn -0.3361 0.2501 0.9080
vn 0.2568 0.3298 -0.9085
vn 0.7561 0.2494 -0.6050
vn 0.7497 0.2109 -0.6273
vn 0.3361 0.2501 -0.9080
vn 0.9914 0.0951 -0.0900
vn 0.9943 0.1070 -0.0000
vn 0.9948 0.1016 -0.0000
vn 0.9886 0.1001 -0.1120
vn -0.9914 0.0951 -0.0900
vn -0.7561 0.2494 -0.6050
vn -0.7497 0.2109 -0.6273
vn -0.9886 0.1001 -0.1120
vn 0.9914 0.0951 0.0900
vn 0.7561 0.2494 0.6050
vn 0.7497 0.2109 0.6273
vn 0.9886 0.1001 0.1120
vn -0.9914 0.0951 0.0900
vn -0.9943 0.1070 -0.0000
vn -0.9948 0.1016 -0.0000
vn -0.9886 0.1001 0.1120
vn -0.7488 0.6616 -0.0400
vn -0.7648 0.6442 -0.0000
vn -0.9964 0.0847 -0.0000
vn -0.9962 0.0729 0.0485
vn 0.6466 0.6165 0.4493
vn 0.7568 0.2352 0.6099
vn 0.9962 0.0729 0.0485
vn -0.7488 0.6616 0.0400
vn -0.6466 0.6165 -0.4493
vn -0.7568 0.2352 -0.6099
vn -0.9962 0.0729 -0.0485
vn 0.9964 0.0847 -0.0000
vn 0.9962 0.0729 -0.0485
vn 0.7568 0.2352 -0.6099
vn 0.1636 0.3075 -0.9374
vn -0.1521 0.8208 0.5506
vn -0.6466 0.6165 0.4493
vn -0.7568 0.2352 0.6099
vn -0.1636 0.3075 0.9374
vn -0.9998 0.0199 -0.0000
vn -0.9911 0.0252 -0.1306
vn -0.8344 -0.5143 -0.1984
vn -0.8356 -0.5493 -0.0000
vn -0.7642 0.0431 -0.6436
vn -0.7638 -0.3960 -0.5097
vn 0.1521 0.8208 0.5506
vn 0.4783 -0.8446 -0.2408
vn 0.4783 -0.8446 0.2408
vn 0.4564 -0.8898 -0.0000
vn 0.8356 -0.5493 -0.0000
vn 0.8344 -0.5143 0.1984
vn 0.5206 -0.5553 0.6486
vn 0.7638 -0.3960 0.5097
vn -0.7642 0.0431 0.6436
vn -0.9911 0.0252 0.1306
vn -0.8344 -0.5143 0.1984
vn -0.7638 -0.3960 0.5097
vn 0.9998 0.0199 -0.0000
vn 0.9911 0.0252 0.1306
vn -0.4312 -0.0184 0.9021
vn -0.5206 -0.5553 0.6486
vn 0.7642 0.0431 0.6436
vn 0.4312 -0.0184 0.9021
vn -0.0000 -0.0320 0.9995
vn -0.0000 -0.6167 0.7872
vn -0.4783 -0.8446 0.2408
vn -0.0000 -0.9506 0.3105
vn -0.4564 -0.8898 -0.0000
vn -0.4783 -0.8446 -0.2408
vn -0.0000 -0.9506 -0.3105
vn -0.0000 -1.0000 -0.0000
vn -0.5206 -0.5553 -0.6486
vn -0.0000 -0.6167 -0.7872
vn -0.0000 0.8298 0.5581
vn -0.0000 0.9958 -0.0911
vn -0.1212 0.9885 -0.0905
vn -0.1223 0.9925 -0.0000
vn -0.0000 1.0000 -0.0000
vn -0.0000 0.9958 0.0911
vn -0.1212 0.9885 0.0905
vn -0.0000 0.3150 0.9491
vn 0.1636 0.3075 0.9374
vn -0.1521 0.8208 -0.5506
vn -0.0000 0.8298 -0.5581
vn -0.0000 0.3150 -0.9491
vn -0.1636 0.3075 -0.9374
vn -0.2568 0.3298 -0.9085
vn -0.0000 0.3447 -0.9387
vn -0.0000 0.2643 -0.9645
vn -0.3361 0.2501 -0.9080
vn 0.2568 0.3298 0.9085
vn -0.0000 0.3447 0.9387
vn -0.0000 0.2643 0.9645
vn 0.3361 0.2501 0.9080
vn -0.4312 -0.0184 -0.9021
vn -0.0000 -0.0320 -0.9995
vt 0.447420 0.500000
vt 0.447420 0.500000
s 1
f 292/5/229 248/5/230 232/5/231 286/5/232
f 293/5/233 254/5/234 233/5/235 287/5/236
f 314/5/237 315/5/238 263/5/239 267/5/240
f 324/5/241 314/5/237 267/5/240 294/5/242
f 342/5/243 327/5/244 237/5/245 301/5/246
f 340/5/247 328/5/248 238/5/249 289/5/250
f 334/5/251 329/5/252 239/5/253 250/5/254
f 333/5/255 331/5/256 235/5/257 249/5/258
f 336/5/259 330/5/260 240/5/261 256/5/262
f 335/5/263 332/5/264 236/5/265 255/5/266
f 253/5/267 230/5/268 246/5/269 257/5/270
f 254/5/234 234/5/271 242/5/272 258/5/273
f 247/5/274 229/5/275 244/5/276 251/5/277
f 248/5/230 233/5/235 245/5/278 252/5/279
f 286/5/232 232/5/231 243/5/280 291/5/281
f 299/5/282 231/5/283 241/5/284 308/5/285
f 232/5/231 248/5/230 252/5/279 243/5/280
f 230/5/268 247/5/274 251/5/277 246/5/269
f 332/5/264 333/5/255 249/5/258 236/5/265
f 328/5/248 334/5/251 250/5/254 238/5/249
f 311/5/286 312/5/287 259/6/288 260/5/289
f 287/5/236 233/5/235 248/5/230 292/5/229
f 233/5/235 254/5/234 258/5/273 245/5/278
f 231/5/283 253/5/267 257/5/270 241/5/284
f 327/5/244 335/5/263 255/5/266 237/5/245
f 329/5/252 336/5/259 256/5/262 239/5/253
f 312/5/287 313/5/290 268/5/291 259/6/288
f 288/5/292 234/5/271 254/5/234 293/5/233
f 284/5/293 294/5/242 267/5/240 263/5/239
f 285/5/294 295/5/295 264/5/296 265/5/297
f 295/5/295 284/5/293 263/5/239 264/5/296
f 296/5/298 285/5/294 265/5/297 266/5/299
f 317/5/300 316/5/301 261/5/302 262/5/303
f 316/5/301 311/5/286 260/5/289 261/5/302
f 315/5/238 318/5/304 264/5/296 263/5/239
f 318/5/304 319/5/305 265/5/297 264/5/296
f 326/5/306 317/5/300 262/5/303 307/5/307
f 319/5/305 320/5/308 266/5/299 265/5/297
f 323/5/309 321/5/310 280/5/311 296/5/298
f 307/5/307 310/5/312 282/5/313 280/5/311
f 306/5/314 309/5/315 281/5/316 279/5/317
f 310/5/312 306/5/314 279/5/317 282/5/313
f 309/5/315 305/5/318 278/5/319 281/5/316
f 299/5/282 271/5/320 277/5/321 304/5/322
f 298/5/323 270/5/324 276/5/325 303/5/326
f 288/5/292 271/5/320 275/5/327 283/5/328
f 297/5/329 269/5/330 274/5/331 302/5/332
f 341/5/333 337/5/334 272/5/335 300/5/336
f 339/5/337 338/5/338 273/5/339 290/5/340
f 325/5/341 322/5/342 278/5/319 305/5/318
f 304/5/322 277/5/321 270/5/324 298/5/323
f 303/5/326 276/5/325 269/5/330 297/5/329
f 330/5/260 339/5/337 290/5/340 240/5/261
f 234/5/271 288/5/292 283/5/328 242/5/272
f 320/5/308 323/5/309 296/5/298 266/5/299
f 280/5/311 282/5/313 285/5/294 296/5/298
f 279/5/317 281/5/316 284/5/293 295/5/295
f 282/5/313 279/5/317 295/5/295 285/5/294
f 281/5/316 278/5/319 294/5/242 284/5/293
f 271/5/320 288/5/292 293/5/233 277/5/321
f 270/5/324 287/5/236 292/5/229 276/5/325
f 269/5/330 286/5/232 291/5/281 274/5/331
f 337/5/334 340/5/247 289/5/250 272/5/335
f 322/5/342 324/5/241 294/5/242 278/5/319
f 277/5/321 293/5/233 287/5/236 270/5/324
f 276/5/325 292/5/229 286/5/232 269/5/330
f 247/5/274 303/5/326 297/5/329 229/5/275
f 253/5/267 304/5/322 298/5/323 230/5/268
f 313/5/290 325/5/341 305/5/318 268/5/291
f 331/5/256 341/5/333 300/5/336 235/5/257
f 229/5/275 297/5/329 302/5/332 244/5/276
f 230/5/268 298/5/323 303/5/326 247/5/274
f 231/5/283 299/5/282 304/5/322 253/5/267
f 259/5/288 268/5/291 305/5/318 309/5/315
f 261/5/302 260/5/289 306/5/314 310/5/312
f 260/5/289 259/5/288 309/5/315 306/5/314
f 262/5/303 261/5/302 310/5/312 307/5/307
f 321/5/310 326/5/306 307/5/307 280/5/311
f 271/5/320 299/5/282 308/5/285 275/5/327
f 338/5/338 342/5/243 301/5/246 273/5/339
f 273/5/339 301/5/246 326/5/306 321/5/310
f 235/5/257 300/5/336 325/5/341 313/5/290
f 272/5/335 289/5/250 324/5/241 322/5/342
f 240/5/261 290/5/340 323/5/309 320/5/308
f 300/5/336 272/5/335 322/5/342 325/5/341
f 290/5/340 273/5/339 321/5/310 323/5/309
f 256/5/262 240/5/261 320/5/308 319/5/305
f 301/5/246 237/5/245 317/5/300 326/5/306
f 239/5/253 256/5/262 319/5/305 318/5/304
f 250/5/254 239/5/253 318/5/304 315/5/238
f 255/5/266 236/5/265 311/5/286 316/5/301
f 237/5/245 255/5/266 316/5/301 317/5/300
f 249/5/258 235/5/257 313/5/290 312/5/287
f 236/5/265 249/5/258 312/5/287 311/5/286
f 289/5/250 238/5/249 314/5/237 324/5/241
f 238/5/249 250/5/254 315/5/238 314/5/237
f 275/5/327 308/5/285 342/5/243 338/5/338
f 244/5/276 302/5/332 341/5/333 331/5/256
f 274/5/331 291/5/281 340/5/247 337/5/334
f 242/5/272 283/5/328 339/5/337 330/5/260
f 283/5/328 275/5/327 338/5/338 339/5/337
f 302/5/332 274/5/331 337/5/334 341/5/333
f 245/5/278 258/5/273 336/5/259 329/5/252
f 241/5/284 257/5/270 335/5/263 327/5/244
f 243/5/280 252/5/279 334/5/251 328/5/248
f 246/5/269 251/5/277 333/5/255 332/5/264
f 257/5/270 246/5/269 332/5/264 335/5/263
f 258/5/273 242/5/272 330/5/260 336/5/259
f 251/5/277 244/5/276 331/5/256 333/5/255
f 252/5/279 245/5/278 329/5/252 334/5/251
f 291/5/281 243/5/280 328/5/248 340/5/247
f 308/5/285 241/5/284 327/5/244 342/5/243
g Bomber_Propeller_Blade_Right_Bomber_Propeller_Blade
v 2.314472 -0.094978 0.318855
v 2.314472 0.004577 0.327988
v 2.314472 0.104132 0.318855
v 2.376802 -0.094978 0.318855
v 2.376802 0.004577 0.327988
v 2.376802 0.104132 0.318855
v 2.270105 -0.443210 1.432013
v 2.203350 0.004577 1.545859
v 2.270105 0.452363 1.432013
v 2.421170 -0.443210 1.432013
v 2.487925 0.004577 1.545859
v 2.421170 0.452363 1.432013
v 2.294529 0.236157 0.800415
v 2.396745 0.236157 0.800415
v 2.396745 -0.227003 0.800415
v 2.294529 -0.227003 0.800415
v 2.407910 0.004577 0.840416
v 2.283365 0.004577 0.840416
v 2.314472 -0.045201 0.323421
v 2.376802 -0.045201 0.323421
v 2.231487 -0.205009 1.513348
v 2.459787 -0.205009 1.513348
v 2.291836 -0.102535 0.825396
v 2.399438 -0.102535 0.825396
v 2.314472 0.054355 0.323421
v 2.376802 0.054354 0.323421
v 2.231487 0.214162 1.513348
v 2.459788 0.214162 1.513348
v 2.291837 0.111689 0.825396
v 2.399438 0.111689 0.825396
v 2.201046 -0.223036 1.965885
v 2.180542 0.004577 1.998457
v 2.201047 0.232190 1.965886
v 2.242677 0.479591 1.894605
v 2.490228 -0.223036 1.965886
v 2.510733 0.004577 1.998457
v 2.490228 0.232190 1.965886
v 2.448598 0.479591 1.894605
v 2.448598 -0.470437 1.894605
v 2.242676 -0.470437 1.894605
v 2.345637 -0.095875 0.314961
v 2.345637 0.004577 0.324140
v 2.345637 0.105029 0.314961
v 2.345637 -0.474574 1.440024
v 2.345638 0.483727 1.440024
v 2.345637 -0.233718 0.795794
v 2.345637 0.242871 0.795794
v 2.345637 -0.045649 0.319551
v 2.345637 0.054803 0.319551
v 2.345637 -0.517022 1.929000
v 2.345637 0.004577 2.077838
v 2.345637 0.526175 1.929000
v 2.345637 -0.301298 2.032037
v 2.345638 0.310451 2.032037
v 2.371192 0.239514 0.797243
v 2.423370 -0.257955 1.999214
v 2.423370 0.267108 1.999214
v 2.361220 -0.095427 0.316127
v 2.361220 0.004577 0.325292
v 2.361220 0.104581 0.316127
v 2.383404 -0.458892 1.437325
v 2.383404 0.468045 1.437325
v 2.371191 -0.230360 0.797243
v 2.361220 -0.045425 0.320710
v 2.361220 0.054579 0.320710
v 2.397117 -0.493730 1.916146
v 2.435222 0.004577 2.035730
v 2.397118 0.502883 1.916146
v 2.330055 -0.095427 0.316127
v 2.330055 0.004577 0.325292
v 2.330055 0.104581 0.316127
v 2.307871 -0.458892 1.437325
v 2.307871 0.468045 1.437325
v 2.320083 -0.230360 0.797243
v 2.330055 -0.045425 0.320710
v 2.330055 0.054579 0.320710
v 2.294157 -0.493729 1.916146
v 2.256053 0.004577 2.035730
v 2.294157 0.502883 1.916146
v 2.320083 0.239514 0.797243
v 2.267905 -0.257954 1.999214
v 2.267905 0.267108 1.999214
v 2.173932 0.004577 1.880098
v 2.198090 -0.235833 1.845003
v 2.241802 -0.501613 1.764888
v 2.449472 -0.501613 1.764888
v 2.493184 -0.235833 1.845003
v 2.198091 0.244986 1.845003
v 2.241803 0.510766 1.764888
v 2.517343 0.004577 1.880098
v 2.493184 0.244986 1.845003
v 2.449472 0.510766 1.764888
v 2.345638 0.560222 1.794045
v 2.345637 -0.551069 1.794045
v 2.397334 0.531621 1.784388
v 2.397334 -0.522468 1.784388
v 2.293941 -0.522467 1.784388
v 2.293941 0.531621 1.784388
v 2.280912 0.348855 1.116405
v 2.410362 -0.339702 1.116405
v 2.448786 0.004577 1.193510
v 2.410363 0.348855 1.116405
v 2.280912 -0.339702 1.116405
v 2.242489 0.004577 1.193510
v 2.260764 -0.155856 1.169505
v 2.430511 -0.155856 1.169505
v 2.260764 0.165010 1.169505
v 2.430511 0.165010 1.169505
v 2.345637 -0.358566 1.117725
v 2.345637 0.367719 1.117725
v 2.378000 0.358287 1.117220
v 2.378000 -0.349134 1.117220
v 2.313275 -0.349134 1.117220
v 2.313275 0.358287 1.117220
vn 0.1212 0.0905 -0.9885
vn 0.7488 0.0400 -0.6616
vn 0.6466 -0.4493 -0.6165
vn 0.1521 -0.5506 -0.8208
vn 0.1212 -0.0905 -0.9885
vn 0.7488 -0.0400 -0.6616
vn 0.7648 -0.0000 -0.6442
vn 0.1223 -0.0000 -0.9925
vn 0.7642 -0.6436 -0.0431
vn 0.9911 -0.1306 -0.0252
vn 0.8344 -0.1984 0.5143
vn 0.7638 -0.5097 0.3960
vn 0.4312 -0.9021 0.0184
vn 0.5206 -0.6486 0.5553
vn -0.2568 0.9085 -0.3298
vn -0.7561 0.6050 -0.2494
vn -0.7497 0.6273 -0.2109
vn -0.3361 0.9080 -0.2501
vn 0.2568 -0.9085 -0.3298
vn 0.7561 -0.6050 -0.2494
vn 0.7497 -0.6273 -0.2109
vn 0.3361 -0.9080 -0.2501
vn 0.9914 -0.0900 -0.0951
vn 0.9943 -0.0000 -0.1070
vn 0.9948 -0.0000 -0.1016
vn 0.9886 -0.1120 -0.1001
vn -0.9914 -0.0900 -0.0951
vn -0.7561 -0.6050 -0.2494
vn -0.7497 -0.6273 -0.2109
vn -0.9886 -0.1120 -0.1001
vn 0.9914 0.0900 -0.0951
vn 0.7561 0.6050 -0.2494
vn 0.7497 0.6273 -0.2109
vn 0.9886 0.1120 -0.1001
vn -0.9914 0.0900 -0.0951
vn -0.9943 -0.0000 -0.1070
vn -0.9948 -0.0000 -0.1016
vn -0.9886 0.1120 -0.1001
vn -0.7488 -0.0400 -0.6616
vn -0.7648 -0.0000 -0.6442
vn -0.9964 -0.0000 -0.0847
vn -0.9962 0.0485 -0.0729
vn 0.6466 0.4493 -0.6165
vn 0.7568 0.6099 -0.2352
vn 0.9962 0.0485 -0.0729
vn -0.7488 0.0400 -0.6616
vn -0.6466 -0.4493 -0.6165
vn -0.7568 -0.6099 -0.2352
vn -0.9962 -0.0485 -0.0729
vn 0.9964 -0.0000 -0.0847
vn 0.9962 -0.0485 -0.0729
vn 0.7568 -0.6099 -0.2352
vn 0.1636 -0.9374 -0.3075
vn -0.1521 0.5506 -0.8208
vn -0.6466 0.4493 -0.6165
vn -0.7568 0.6099 -0.2352
vn -0.1636 0.9374 -0.3075
vn -0.9998 -0.0000 -0.0199
vn -0.9911 -0.1306 -0.0252
vn -0.8344 -0.1984 0.5143
vn -0.8356 -0.0000 0.5493
vn -0.7642 -0.6436 -0.0431
vn -0.7638 -0.5097 0.3960
vn 0.1521 0.5506 -0.8208
vn 0.4783 -0.2408 0.8446
vn 0.4783 0.2408 0.8446
vn 0.4564 -0.0000 0.8898
vn 0.8356 -0.0000 0.5493
vn 0.8344 0.1984 0.5143
vn 0.5206 0.6486 0.5553
vn 0.7638 0.5097 0.3960
vn -0.7642 0.6436 -0.0431
vn -0.9911 0.1306 -0.0252
vn -0.8344 0.1984 0.5143
vn -0.7638 0.5097 0.3960
vn 0.9998 -0.0000 -0.0199
vn 0.9911 0.1306 -0.0252
vn -0.4312 0.9021 0.0184
vn -0.5206 0.6486 0.5553
vn 0.7642 0.6436 -0.0431
vn 0.4312 0.9021 0.0184
vn -0.0000 0.9995 0.0320
vn -0.0000 0.7872 0.6167
vn -0.4783 0.2408 0.8446
vn -0.0000 0.3105 0.9506
vn -0.4564 -0.0000 0.8898
vn -0.4783 -0.2408 0.8446
vn -0.0000 -0.3105 0.9506
vn -0.0000 -0.0000 1.0000
vn -0.5206 -0.6486 0.5553
vn -0.0000 -0.7872 0.6167
vn -0.0000 0.5581 -0.8298
vn -0.0000 -0.0911 -0.9958
vn -0.1212 -0.0905 -0.9885
vn -0.1223 -0.0000 -0.9925
vn -0.0000 -0.0000 -1.0000
vn -0.0000 0.0911 -0.9958
vn -0.1212 0.0905 -0.9885
vn -0.0000 0.9491 -0.3150
vn 0.1636 0.9374 -0.3075
vn -0.1521 -0.5506 -0.8208
vn -0.0000 -0.5581 -0.8298
vn -0.0000 -0.9491 -0.3150
vn -0.1636 -0.9374 -0.3075
vn -0.2568 -0.9085 -0.3298
vn -0.0000 -0.9387 -0.3447
vn -0.0000 -0.9645 -0.2643
vn -0.3361 -0.9080 -0.2501
vn 0.2568 0.9085 -0.3298
vn -0.0000 0.9387 -0.3447
vn -0.0000 0.9645 -0.2643
vn 0.3361 0.9080 -0.2501
vn -0.4312 -0.9021 0.0184
vn -0.0000 -0.9995 0.0320
vt 0.447420 0.500000
vt 0.447420 0.500000
s 1
f 406/7/343 362/7/344 346/7/345 400/7/346
f 407/7/347 368/7/348 347/7/349 401/7/350
f 428/7/351 429/7/352 377/7/353 381/7/354
f 438/7/355 428/7/351 381/7/354 408/7/356
f 456/7/357 441/7/358 351/7/359 415/7/360
f 454/7/361 442/7/362 352/7/363 403/7/364
f 448/7/365 443/7/366 353/7/367 364/7/368
f 447/7/369 445/7/370 349/7/371 363/7/372
f 450/7/373 444/7/374 354/7/375 370/7/376
f 449/7/377 446/7/378 350/7/379 369/7/380
f 367/7/381 344/7/382 360/7/383 371/7/384
f 368/7/348 348/7/385 356/7/386 372/7/387
f 361/7/388 343/7/389 358/7/390 365/7/391
f 362/7/344 347/7/349 359/7/392 366/7/393
f 400/7/346 346/7/345 357/7/394 405/7/395
f 413/7/396 345/7/397 355/7/398 422/7/399
f 346/7/345 362/7/344 366/7/393 357/7/394
f 344/7/382 361/7/388 365/7/391 360/7/383
f 446/7/378 447/7/369 363/7/372 350/7/379
f 442/7/362 448/7/365 364/7/368 352/7/363
f 425/7/400 426/7/401 373/8/402 374/7/403
f 401/7/350 347/7/349 362/7/344 406/7/343
f 347/7/349 368/7/348 372/7/387 359/7/392
f 345/7/397 367/7/381 371/7/384 355/7/398
f 441/7/358 449/7/377 369/7/380 351/7/359
f 443/7/366 450/7/373 370/7/376 353/7/367
f 426/7/401 427/7/404 382/7/405 373/8/402
f 402/7/406 348/7/385 368/7/348 407/7/347
f 398/7/407 408/7/356 381/7/354 377/7/353
f 399/7/408 409/7/409 378/7/410 379/7/411
f 409/7/409 398/7/407 377/7/353 378/7/410
f 410/7/412 399/7/408 379/7/411 380/7/413
f 431/7/414 430/7/415 375/7/416 376/7/417
f 430/7/415 425/7/400 374/7/403 375/7/416
f 429/7/352 432/7/418 378/7/410 377/7/353
f 432/7/418 433/7/419 379/7/411 378/7/410
f 440/7/420 431/7/414 376/7/417 421/7/421
f 433/7/419 434/7/422 380/7/413 379/7/411
f 437/7/423 435/7/424 394/7/425 410/7/412
f 421/7/421 424/7/426 396/7/427 394/7/425
f 420/7/428 423/7/429 395/7/430 393/7/431
f 424/7/426 420/7/428 393/7/431 396/7/427
f 423/7/429 419/7/432 392/7/433 395/7/430
f 413/7/396 385/7/434 391/7/435 418/7/436
f 412/7/437 384/7/438 390/7/439 417/7/440
f 402/7/406 385/7/434 389/7/441 397/7/442
f 411/7/443 383/7/444 388/7/445 416/7/446
f 455/7/447 451/7/448 386/7/449 414/7/450
f 453/7/451 452/7/452 387/7/453 404/7/454
f 439/7/455 436/7/456 392/7/433 419/7/432
f 418/7/436 391/7/435 384/7/438 412/7/437
f 417/7/440 390/7/439 383/7/444 411/7/443
f 444/7/374 453/7/451 404/7/454 354/7/375
f 348/7/385 402/7/406 397/7/442 356/7/386
f 434/7/422 437/7/423 410/7/412 380/7/413
f 394/7/425 396/7/427 399/7/408 410/7/412
f 393/7/431 395/7/430 398/7/407 409/7/409
f 396/7/427 393/7/431 409/7/409 399/7/408
f 395/7/430 392/7/433 408/7/356 398/7/407
f 385/7/434 402/7/406 407/7/347 391/7/435
f 384/7/438 401/7/350 406/7/343 390/7/439
f 383/7/444 400/7/346 405/7/395 388/7/445
f 451/7/448 454/7/361 403/7/364 386/7/449
f 436/7/456 438/7/355 408/7/356 392/7/433
f 391/7/435 407/7/347 401/7/350 384/7/438
f 390/7/439 406/7/343 400/7/346 383/7/444
f 361/7/388 417/7/440 411/7/443 343/7/389
f 367/7/381 418/7/436 412/7/437 344/7/382
f 427/7/404 439/7/455 419/7/432 382/7/405
f 445/7/370 455/7/447 414/7/450 349/7/371
f 343/7/389 411/7/443 416/7/446 358/7/390
f 344/7/382 412/7/437 417/7/440 361/7/388
f 345/7/397 413/7/396 418/7/436 367/7/381
f 373/7/402 382/7/405 419/7/432 423/7/429
f 375/7/416 374/7/403 420/7/428 424/7/426
f 374/7/403 373/7/402 423/7/429 420/7/428
f 376/7/417 375/7/416 424/7/426 421/7/421
f 435/7/424 440/7/420 421/7/421 394/7/425
f 385/7/434 413/7/396 422/7/399 389/7/441
f 452/7/452 456/7/357 415/7/360 387/7/453
f 387/7/453 415/7/360 440/7/420 435/7/424
f 349/7/371 414/7/450 439/7/455 427/7/404
f 386/7/449 403/7/364 438/7/355 436/7/456
f 354/7/375 404/7/454 437/7/423 434/7/422
f 414/7/450 386/7/449 436/7/456 439/7/455
f 404/7/454 387/7/453 435/7/424 437/7/423
f 370/7/376 354/7/375 434/7/422 433/7/419
f 415/7/360 351/7/359 431/7/414 440/7/420
f 353/7/367 370/7/376 433/7/419 432/7/418
f 364/7/368 353/7/367 432/7/418 429/7/352
f 369/7/380 350/7/379 425/7/400 430/7/415
f 351/7/359 369/7/380 430/7/415 431/7/414
f 363/7/372 349/7/371 427/7/404 426/7/401
f 350/7/379 363/7/372 426/7/401 425/7/400
f 403/7/364 352/7/363 428/7/351 438/7/355
f 352/7/363 364/7/368 429/7/352 428/7/351
f 389/7/441 422/7/399 456/7/357 452/7/452
f 358/7/390 416/7/446 455/7/447 445/7/370
f 388/7/445 405/7/395 454/7/361 451/7/448
f 356/7/386 397/7/442 453/7/451 444/7/374
f 397/7/442 389/7/441 452/7/452 453/7/451
f 416/7/446 388/7/445 451/7/448 455/7/447
f 359/7/392 372/7/387 450/7/373 443/7/366
f 355/7/398 371/7/384 449/7/377 441/7/358
f 357/7/394 366/7/393 448/7/365 442/7/362
f 360/7/383 365/7/391 447/7/369 446/7/378
f 371/7/384 360/7/383 446/7/378 449/7/377
f 372/7/387 356/7/386 444/7/374 450/7/373
f 365/7/391 358/7/390 445/7/370 447/7/369
f 366/7/393 359/7/392 443/7/366 448/7/365
f 405/7/395 357/7/394 442/7/362 454/7/361
f 422/7/399 355/7/398 441/7/358 456/7/357
