# Blender 4.0.1
# www.blender.org
o Bomber_Wing_Cap_Right
v -1.313414 0.382647 1.132137
v 0.555079 0.382916 1.132137
v -0.835029 0.445589 1.132137
v -0.369371 0.491292 1.132137
v 0.080795 0.446595 1.132137
v -1.313414 0.009356 1.132137
v 0.555079 0.006099 1.132137
v -0.835029 -0.053320 1.132137
v -0.369371 -0.099422 1.132137
v 0.080795 -0.057566 1.132137
v -1.350935 0.281805 1.132137
v -1.371274 0.195937 1.132137
v -1.350935 0.110108 1.132137
v 0.609281 0.280560 1.132137
v 0.638664 0.194577 1.132137
v 0.609281 0.108551 1.132137
v -1.313414 0.383817 1.442913
v -1.313414 0.008196 1.442913
v 0.625171 0.281375 1.442913
v 0.654957 0.195257 1.442913
v 0.625171 0.109139 1.442913
v 0.570225 0.384830 1.442913
v -0.836873 0.436183 1.442913
v -0.366696 0.483851 1.442913
v 0.095735 0.437159 1.442913
v 0.570225 0.005695 1.442913
v -0.836873 -0.043978 1.442913
v -0.366696 -0.091776 1.442913
v 0.095735 -0.046571 1.442913
v -1.350935 0.281913 1.442913
v -1.371274 0.195937 1.442913
v -1.350935 0.110001 1.442913
v 0.673564 0.447257 1.413408
v 0.656215 0.445898 1.159635
v -0.879422 0.511732 1.415178
v -0.877423 0.521899 1.161350
v -0.366371 0.563513 1.415404
v -0.369313 0.571555 1.161574
v 0.138295 0.512786 1.414981
v 0.122114 0.522988 1.161175
v 0.673599 -0.056754 1.413564
v 0.656191 -0.057070 1.159797
v -0.879423 -0.119433 1.415180
v -0.877425 -0.129530 1.161353
v -0.366487 -0.171352 1.415467
v -0.369428 -0.179616 1.161636
v 0.138193 -0.122243 1.415135
v 0.122005 -0.134130 1.161327
v -1.477344 0.307121 1.414387
v -1.477344 0.307003 1.160556
v -1.502003 0.195967 1.414401
v -1.502003 0.195967 1.160571
v -1.477340 0.084851 1.414387
v -1.477341 0.084968 1.160556
v 0.733114 0.076673 1.158585
v 0.769961 0.194476 1.158297
v 0.733111 0.312275 1.158506
v -1.419437 0.442955 1.160844
v -1.419422 -0.050888 1.160842
v -1.419382 0.444267 1.414675
v -1.419367 -0.052189 1.414673
v 0.750337 0.313036 1.412334
v 0.787570 0.195265 1.412127
v 0.750349 0.077450 1.412412
v 0.667781 0.461624 1.338126
v 0.661998 0.461144 1.234558
v -0.878755 0.533971 1.340271
v -0.878089 0.537559 1.236680
v -0.367351 0.588055 1.340547
v -0.368332 0.590894 1.236955
v 0.132901 0.535099 1.340038
v 0.127508 0.538700 1.236456
v 0.667796 -0.071744 1.338319
v 0.661994 -0.071856 1.234753
v -0.878757 -0.141573 1.340274
v -0.878091 -0.145137 1.236683
v -0.367468 -0.195907 1.340623
v -0.368448 -0.198824 1.237031
v 0.132797 -0.145180 1.340226
v 0.127401 -0.149376 1.236643
v -1.477344 0.313661 1.339301
v -1.477344 0.313619 1.235709
v -1.502003 0.195994 1.339319
v -1.502003 0.195994 1.235727
v -1.477340 0.078366 1.339301
v -1.477340 0.078407 1.235709
v -1.419419 0.458011 1.236061
v -1.419400 0.458474 1.339653
v -1.419404 -0.065880 1.236059
v -1.419385 -0.066339 1.339651
v 0.738853 0.319430 1.233198
v 0.744595 0.319698 1.336789
v 0.775831 0.194692 1.232942
v 0.781700 0.194971 1.336534
v 0.738859 0.069938 1.233294
v 0.744604 0.070212 1.336884
vn -0.2098 -0.0662 0.9755
vn -0.2120 -0.0000 0.9773
vn -0.8058 -0.0001 0.5922
vn -0.7510 -0.2294 0.6192
vn -0.2114 -0.0000 -0.9774
vn -0.2096 -0.0678 -0.9754
vn -0.7501 -0.2306 -0.6198
vn -0.8057 -0.0001 -0.5923
vn 0.2230 0.0002 0.9748
vn 0.2149 -0.0932 0.9722
vn 0.7476 -0.3110 0.5869
vn 0.8386 0.0006 0.5447
vn 0.1905 0.0886 -0.9777
vn 0.1038 0.2461 -0.9637
vn 0.4578 0.6332 -0.6241
vn 0.6970 0.2957 -0.6532
vn 0.2154 0.0939 0.9720
vn 0.7482 0.3120 0.5855
vn 0.0381 0.3393 -0.9399
vn 0.0912 0.7476 -0.6579
vn 0.1941 -0.0002 -0.9810
vn 0.7862 -0.0005 -0.6180
vn 0.1097 0.2551 0.9607
vn 0.4928 0.6387 0.5910
vn -0.0388 0.3438 -0.9382
vn -0.1152 0.2409 -0.9637
vn -0.5235 0.6088 -0.5961
vn -0.0929 0.7526 -0.6519
vn 0.1909 -0.0891 -0.9776
vn 0.6977 -0.2963 -0.6522
vn 0.1093 -0.2537 0.9611
vn 0.4925 -0.6363 0.5937
vn 0.0001 0.3424 -0.9396
vn -0.0002 0.7607 -0.6491
vn 0.0358 -0.3335 0.9421
vn -0.0007 -0.3272 0.9449
vn -0.0011 -0.7310 0.6823
vn 0.0843 -0.7313 0.6768
vn -0.0362 -0.3328 0.9423
vn -0.0855 -0.7307 0.6773
vn 0.0369 -0.3405 -0.9395
vn 0.1042 -0.2469 -0.9634
vn 0.4581 -0.6351 -0.6219
vn 0.0893 -0.7502 -0.6551
vn 0.9973 -0.0000 -0.0736
vn 0.9179 -0.3884 -0.0819
vn 0.9177 0.3884 -0.0840
vn 0.5549 0.8250 -0.1070
vn 0.5551 -0.8254 -0.1023
vn -0.0026 -0.9953 -0.0971
vn -0.0027 -0.7616 -0.6481
vn 0.1190 -0.9882 -0.0966
vn -0.1223 -0.9880 -0.0946
vn -0.0930 -0.7530 -0.6514
vn -0.6015 -0.7958 -0.0699
vn -0.5233 -0.6092 -0.5958
vn 0.0003 0.9951 -0.0993
vn 0.1216 0.9874 -0.1013
vn -0.1222 0.9879 -0.0951
vn -0.6017 0.7956 -0.0702
vn -1.0000 -0.0000 0.0047
vn -0.9552 -0.2955 0.0157
vn -0.9553 0.2953 0.0158
vn -0.7510 0.2292 0.6193
vn -0.5996 0.7954 0.0885
vn -0.5163 0.6052 0.6060
vn -0.5994 -0.7956 0.0881
vn -0.5161 -0.6056 0.6057
vn -0.2096 0.0677 -0.9754
vn -0.7501 0.2304 -0.6199
vn -0.2098 0.0661 0.9755
vn 0.0366 0.3346 0.9416
vn 0.0858 0.7335 0.6742
vn -0.1108 0.2377 0.9650
vn -0.1151 -0.2413 -0.9636
vn -0.0361 0.3327 0.9423
vn -0.0855 0.7304 0.6776
vn -0.1108 -0.2381 0.9649
vn -0.0000 0.3276 0.9448
vn 0.0005 0.7320 0.6813
vn -0.0011 -0.3434 -0.9392
vn -0.0389 -0.3443 -0.9380
vn -0.9550 -0.2960 -0.0168
vn -0.9551 0.2958 -0.0169
vn -1.0000 -0.0000 -0.0047
vn 0.5528 0.8314 0.0568
vn 0.1182 0.9830 0.1406
vn -0.1189 0.9822 0.1454
vn -0.0000 0.9866 0.1631
vn 0.1159 -0.9825 0.1458
vn 0.5527 -0.8310 0.0624
vn -0.1190 -0.9822 0.1451
vn -0.0024 -0.9863 0.1649
vn 0.9201 -0.3899 -0.0379
vn 0.9200 0.3899 -0.0404
vn 0.9982 -0.0001 -0.0593
vt 0.127479 0.673032
vt 0.112935 0.680852
vt 0.113129 0.645022
vt 0.127650 0.638087
vt 0.042417 0.034926
vt 0.057981 0.044242
vt 0.026991 0.078084
vt 0.010357 0.093341
vt 0.028045 0.044022
vt 0.527940 0.065598
vt 0.433229 0.070428
vt 0.041309 0.069852
vt 0.011164 0.060872
vt 0.250331 0.075097
vt 0.154776 0.074613
vt 0.056888 0.078303
vt 0.077060 0.061356
vt 0.343302 0.072993
vt 0.821592 0.632058
vt 0.729205 0.631738
vt 0.635282 0.631657
vt 0.818605 0.597888
vt 0.913362 0.600721
vt 0.041678 0.058210
vt 0.057252 0.066949
vt 0.027343 0.066730
vt 0.010626 0.082518
vt 0.076254 0.083000
vt 0.075851 0.093822
vt 0.728848 0.608725
vt 0.728669 0.597218
vt 0.819601 0.609278
vt 0.635526 0.608607
vt 0.635649 0.597082
vt 0.540088 0.610692
vt 0.540088 0.599588
vt 0.914371 0.611634
vt 0.343239 0.061486
vt 0.433985 0.059019
vt 0.249968 0.063577
vt 0.154541 0.063512
vt 0.528718 0.054665
vt 0.112999 0.668909
vt 0.127536 0.661384
vt 0.097466 0.661178
vt 0.097397 0.672826
vt 0.078784 0.646985
vt 0.078655 0.658088
vt 0.144376 0.647434
vt 0.144383 0.658538
vt 0.097605 0.637882
vt 0.079041 0.624780
vt 0.435499 0.036202
vt 0.530274 0.032799
vt 0.144361 0.625227
vt 0.154072 0.041309
vt 0.249241 0.040537
vt 0.343113 0.038470
vt 0.916389 0.633462
vt 0.540089 0.632900
vt 0.144368 0.636331
vt 0.127593 0.649736
vt 0.097536 0.649530
vt 0.078912 0.635883
vt 0.113064 0.656965
vt 0.529496 0.043732
vt 0.434742 0.047610
vt 0.249604 0.052057
vt 0.154307 0.052410
vt 0.343176 0.049978
vt 0.820596 0.620668
vt 0.915380 0.622548
vt 0.540088 0.621796
vt 0.635404 0.620132
vt 0.729026 0.620231
vt 0.076657 0.072178
vt 0.057617 0.055596
vt 0.027694 0.055376
vt 0.010895 0.071695
vt 0.042048 0.046568
s 1
f 32/1/1 31/2/2 51/2/3 53/1/4
f 12/3/5 13/4/6 54/4/7 52/3/8
f 20/5/9 21/6/10 64/6/11 63/5/12
f 14/7/13 2/8/14 34/8/15 57/7/16
f 19/9/17 20/5/9 63/5/12 62/9/18
f 2/10/14 5/11/19 40/11/20 34/10/15
f 15/12/21 14/7/13 57/7/16 56/12/22
f 22/13/23 19/9/17 62/9/18 33/13/24
f 3/14/25 1/15/26 58/15/27 36/14/28
f 16/16/29 15/12/21 56/12/22 55/16/30
f 21/6/10 26/17/31 41/17/32 64/6/11
f 4/18/33 3/14/25 36/14/28 38/18/34
f 29/19/35 28/20/36 45/20/37 47/19/38
f 5/11/19 4/18/33 38/18/34 40/11/20
f 28/20/36 27/21/39 43/21/40 45/20/37
f 10/22/41 7/23/42 42/23/43 48/22/44
f 93/24/45 95/25/46 55/16/30 56/12/22
f 91/26/47 93/24/45 56/12/22 57/7/16
f 66/27/48 91/26/47 57/7/16 34/8/15
f 95/25/46 74/28/49 42/29/43 55/16/30
f 78/30/50 46/31/51 48/22/44 80/32/52
f 76/33/53 44/34/54 46/31/51 78/30/50
f 89/35/55 59/36/56 44/34/54 76/33/53
f 80/32/52 48/22/44 42/23/43 74/37/49
f 70/38/57 72/39/58 40/11/20 38/18/34
f 68/40/59 70/38/57 38/18/34 36/14/28
f 87/41/60 68/40/59 36/14/28 58/15/27
f 72/39/58 66/42/48 34/10/15 40/11/20
f 83/43/61 85/44/62 53/1/4 51/2/3
f 81/45/63 83/43/61 51/2/3 49/46/64
f 88/47/65 81/45/63 49/46/64 60/48/66
f 85/44/62 90/49/67 61/50/68 53/1/4
f 11/51/69 12/3/5 52/3/8 50/51/70
f 31/2/2 30/46/71 49/46/64 51/2/3
f 1/52/26 11/51/69 50/51/70 58/52/27
f 25/53/72 22/54/23 33/54/24 39/53/73
f 30/46/71 17/48/74 60/48/66 49/46/64
f 13/4/6 6/55/75 59/55/56 54/4/7
f 17/56/74 23/57/76 35/57/77 60/56/66
f 18/50/78 32/1/1 53/1/4 61/50/68
f 7/29/42 16/16/29 55/16/30 42/29/43
f 23/57/76 24/58/79 37/58/80 35/57/77
f 9/31/81 10/22/41 48/22/44 46/31/51
f 24/58/79 25/53/72 39/53/73 37/58/80
f 8/34/82 9/31/81 46/31/51 44/34/54
f 26/59/31 29/19/35 47/19/38 41/59/32
f 6/36/75 8/34/82 44/34/54 59/36/56
f 27/21/39 18/60/78 61/60/68 43/21/40
f 54/4/7 59/55/56 89/61/55 86/62/83
f 86/62/83 89/61/55 90/49/67 85/44/62
f 58/52/27 50/51/70 82/63/84 87/64/60
f 87/64/60 82/63/84 81/45/63 88/47/65
f 50/51/70 52/3/8 84/65/85 82/63/84
f 82/63/84 84/65/85 83/43/61 81/45/63
f 52/3/8 54/4/7 86/62/83 84/65/85
f 84/65/85 86/62/83 85/44/62 83/43/61
f 39/53/73 33/54/24 65/66/86 71/67/87
f 71/67/87 65/66/86 66/42/48 72/39/58
f 60/56/66 35/57/77 67/68/88 88/69/65
f 88/69/65 67/68/88 68/40/59 87/41/60
f 35/57/77 37/58/80 69/70/89 67/68/88
f 67/68/88 69/70/89 70/38/57 68/40/59
f 37/58/80 39/53/73 71/67/87 69/70/89
f 69/70/89 71/67/87 72/39/58 70/38/57
f 47/19/38 79/71/90 73/72/91 41/59/32
f 79/71/90 80/32/52 74/37/49 73/72/91
f 61/60/68 90/73/67 75/74/92 43/21/40
f 90/73/67 89/35/55 76/33/53 75/74/92
f 43/21/40 75/74/92 77/75/93 45/20/37
f 75/74/92 76/33/53 78/30/50 77/75/93
f 45/20/37 77/75/93 79/71/90 47/19/38
f 77/75/93 78/30/50 80/32/52 79/71/90
f 64/6/11 41/17/32 73/76/91 96/77/94
f 96/77/94 73/76/91 74/28/49 95/25/46
f 33/13/24 62/9/18 92/78/95 65/79/86
f 65/79/86 92/78/95 91/26/47 66/27/48
f 62/9/18 63/5/12 94/80/96 92/78/95
f 92/78/95 94/80/96 93/24/45 91/26/47
f 63/5/12 64/6/11 96/77/94 94/80/96
f 94/80/96 96/77/94 95/25/46 93/24/45
