# Blender 4.0.1
# www.blender.org
mtllib Bomber_Cockpit_Base.mtl
g Bomber_Cockpit_Base_Bomber_Cockpit_Base
v -0.288369 0.836017 -1.026388
v -0.488607 0.836017 -1.006666
v -0.681151 0.836017 -0.948259
v -0.858600 0.836017 -0.853411
v -1.014135 0.836017 -0.725766
v -1.141779 0.836017 -0.570231
v -1.236628 0.836017 -0.392782
v -1.295035 0.836017 -0.200238
v -1.314757 0.836017 0.000000
v -1.295035 0.836017 0.200238
v -1.236628 0.836017 0.392782
v -1.141779 0.836017 0.570231
v -1.014135 0.836017 0.725766
v -0.858600 0.836017 0.853411
v -0.681151 0.836017 0.948259
v -0.488607 0.836017 1.006666
v -0.288369 0.836017 1.026388
v -0.088130 0.836017 1.006666
v 0.104413 0.836017 0.948259
v 0.281862 0.836017 0.853411
v 0.437397 0.836017 0.725766
v 0.565042 0.836017 0.570231
v 0.659890 0.836017 0.392782
v 0.718298 0.836017 0.200238
v 0.738019 0.836017 0.000000
v 0.718298 0.836017 -0.200238
v 0.659890 0.836017 -0.392782
v 0.565042 0.836017 -0.570231
v 0.437397 0.836017 -0.725766
v 0.281862 0.836017 -0.853411
v 0.104413 0.836017 -0.948259
v -0.088130 0.836017 -1.006666
v -0.288369 1.445002 -0.764627
v -0.437540 1.445002 -0.749934
v -0.580979 1.445002 -0.706423
v -0.713173 1.445002 -0.635764
v -0.829041 1.445002 -0.540673
v -0.924133 1.445002 -0.424804
v -0.994792 1.445002 -0.292610
v -1.038303 1.445002 -0.149171
v -1.052995 1.445002 0.000000
v -1.038303 1.445002 0.149171
v -0.994792 1.445002 0.292610
v -0.924133 1.445002 0.424804
v -0.829041 1.445002 0.540673
v -0.713173 1.445002 0.635764
v -0.580979 1.445002 0.706423
v -0.437540 1.445002 0.749934
v -0.288369 1.445002 0.764627
v -0.139198 1.445002 0.749934
v 0.004241 1.445002 0.706423
v 0.136435 1.445002 0.635764
v 0.252304 1.445002 0.540673
v 0.347395 1.445002 0.424804
v 0.418054 1.445002 0.292610
v 0.461566 1.445002 0.149171
v 0.476258 1.445002 0.000000
v 0.461566 1.445002 -0.149171
v 0.418054 1.445002 -0.292610
v 0.347395 1.445002 -0.424804
v 0.252304 1.445002 -0.540673
v 0.136435 1.445002 -0.635764
v 0.004241 1.445002 -0.706423
v -0.139198 1.445002 -0.749934
v -1.343248 1.137045 0.209828
v -1.282043 1.137045 0.411593
v 0.766510 1.137045 0.209828
v 0.787176 1.137045 0.000000
v -1.182652 1.137045 0.597541
v 0.766510 1.137045 -0.209828
v -1.048894 1.137045 0.760525
v 0.705305 1.137045 -0.411593
v -0.885910 1.137045 0.894283
v 0.605914 1.137045 -0.597541
v -0.699962 1.137045 0.993674
v -0.288369 1.137045 -1.075545
v -0.498197 1.137045 -1.054879
v 0.472156 1.137045 -0.760525
v -0.498197 1.137045 1.054879
v -0.699962 1.137045 -0.993674
v 0.309172 1.137045 -0.894283
v -0.288369 1.137045 1.075545
v -0.885910 1.137045 -0.894283
v 0.123224 1.137045 -0.993674
v -0.078540 1.137045 1.054879
v -1.048894 1.137045 -0.760525
v -0.078540 1.137045 -1.054879
v 0.123224 1.137045 0.993674
v -1.182652 1.137045 -0.597541
v 0.309172 1.137045 0.894283
v -1.282043 1.137045 -0.411593
v 0.472156 1.137045 0.760525
v -1.343248 1.137045 -0.209828
v 0.605914 1.137045 0.597541
v -1.363914 1.137045 0.000000
v 0.705305 1.137045 0.411593
v -0.468470 1.419499 -0.905429
v -0.288369 1.419499 -0.923167
v -0.641650 1.419499 -0.852895
v -0.801253 1.419499 -0.767586
v -0.941147 1.419499 -0.652778
v -1.055954 1.419499 -0.512884
v -1.141264 1.419499 -0.353281
v -1.193798 1.419499 -0.180101
v -1.211536 1.419499 -0.000000
v -1.193798 1.419499 0.180101
v -1.141264 1.419499 0.353281
v -1.055954 1.419499 0.512884
v -0.941147 1.419499 0.652778
v -0.801253 1.419499 0.767586
v -0.641650 1.419499 0.852895
v -0.468470 1.419499 0.905429
v -0.288369 1.419499 0.923167
v -0.108268 1.419499 0.905429
v 0.064912 1.419499 0.852895
v 0.224515 1.419499 0.767586
v 0.364409 1.419499 0.652778
v 0.479217 1.419499 0.512884
v 0.564527 1.419499 0.353281
v 0.617060 1.419499 0.180101
v 0.634798 1.419499 -0.000000
v 0.617060 1.419499 -0.180101
v 0.564527 1.419499 -0.353281
v 0.479217 1.419499 -0.512884
v 0.364409 1.419499 -0.652778
v 0.224515 1.419499 -0.767586
v 0.064912 1.419499 -0.852895
v -0.108268 1.419499 -0.905429
v -1.226353 1.283069 0.388526
v 0.726898 1.283069 -0.000000
v -1.132532 1.283069 0.564052
v 0.707389 1.283069 -0.198069
v -1.006271 1.283069 0.717902
v 0.649615 1.283069 -0.388526
v -0.852421 1.283069 0.844163
v 0.555794 1.283069 -0.564052
v -0.676895 1.283069 0.937984
v -0.486438 1.283069 -0.995758
v 0.429533 1.283069 -0.717902
v -0.486438 1.283069 0.995758
v -0.676895 1.283069 -0.937984
v 0.275683 1.283069 -0.844163
v -0.288369 1.283069 1.015267
v -0.852421 1.283069 -0.844163
v 0.100157 1.283069 -0.937984
v -0.090300 1.283069 0.995758
v -1.006271 1.283069 -0.717902
v -0.090300 1.283069 -0.995758
v 0.100157 1.283069 0.937984
v -1.132532 1.283069 -0.564052
v 0.275683 1.283069 0.844163
v -1.226353 1.283069 -0.388526
v 0.429533 1.283069 0.717902
v -1.284127 1.283069 -0.198069
v 0.555794 1.283069 0.564052
v -1.303636 1.283069 -0.000000
v 0.649615 1.283069 0.388526
v -1.284127 1.283069 0.198069
v 0.707389 1.283069 0.198069
v -0.288369 1.283069 -1.015267
vn -0.8655 0.4703 0.1722
vn -0.8153 0.4703 0.3377
vn -0.5131 0.8316 0.2125
vn -0.5447 0.8316 0.1083
vn 0.8655 0.4703 0.1722
vn 0.8825 0.4703 -0.0000
vn 0.5553 0.8316 -0.0000
vn 0.5447 0.8316 0.1083
vn -0.7338 0.4703 0.4903
vn -0.4617 0.8316 0.3085
vn 0.8655 0.4703 -0.1722
vn 0.5447 0.8316 -0.1083
vn -0.6240 0.4703 0.6240
vn -0.3927 0.8316 0.3927
vn 0.8153 0.4703 -0.3377
vn 0.5131 0.8316 -0.2125
vn -0.4903 0.4703 0.7338
vn -0.3085 0.8316 0.4617
vn 0.7338 0.4703 -0.4903
vn 0.4617 0.8316 -0.3085
vn -0.3377 0.4703 0.8153
vn -0.2125 0.8316 0.5131
vn -0.0000 0.4703 -0.8825
vn -0.1722 0.4703 -0.8655
vn -0.1083 0.8316 -0.5447
vn -0.0000 0.8316 -0.5553
vn 0.6240 0.4703 -0.6240
vn 0.3927 0.8316 -0.3927
vn -0.1722 0.4703 0.8655
vn -0.1083 0.8316 0.5447
vn -0.3377 0.4703 -0.8153
vn -0.2125 0.8316 -0.5131
vn 0.4903 0.4703 -0.7338
vn 0.3085 0.8316 -0.4617
vn -0.0000 0.4703 0.8825
vn -0.0000 0.8316 0.5553
vn -0.4903 0.4703 -0.7338
vn -0.3085 0.8316 -0.4617
vn 0.3377 0.4703 -0.8153
vn 0.2125 0.8316 -0.5131
vn 0.1722 0.4703 0.8655
vn 0.1083 0.8316 0.5447
vn -0.6240 0.4703 -0.6240
vn -0.3927 0.8316 -0.3927
vn 0.1722 0.4703 -0.8655
vn 0.1083 0.8316 -0.5447
vn 0.3377 0.4703 0.8153
vn 0.2125 0.8316 0.5131
vn -0.7338 0.4703 -0.4903
vn -0.4617 0.8316 -0.3085
vn 0.4903 0.4703 0.7338
vn 0.3085 0.8316 0.4617
vn -0.8153 0.4703 -0.3377
vn -0.5131 0.8316 -0.2125
vn 0.6240 0.4703 0.6240
vn 0.3927 0.8316 0.3927
vn -0.8655 0.4703 -0.1722
vn -0.5447 0.8316 -0.1083
vn 0.7338 0.4703 0.4903
vn 0.4617 0.8316 0.3085
vn -0.8825 0.4703 -0.0000
vn -0.5553 0.8316 -0.0000
vn 0.8153 0.4703 0.3377
vn 0.5131 0.8316 0.2125
vn -0.0165 0.9964 -0.0830
vn -0.0324 0.9964 -0.0782
vn -0.0470 0.9964 -0.0703
vn -0.0598 0.9964 -0.0598
vn -0.0703 0.9964 -0.0470
vn -0.0782 0.9964 -0.0324
vn -0.0830 0.9964 -0.0165
vn -0.0846 0.9964 -0.0000
vn -0.0830 0.9964 0.0165
vn -0.0782 0.9964 0.0324
vn -0.0703 0.9964 0.0470
vn -0.0598 0.9964 0.0598
vn -0.0470 0.9964 0.0703
vn -0.0324 0.9964 0.0782
vn -0.0165 0.9964 0.0830
vn -0.0000 0.9964 0.0846
vn 0.0165 0.9964 0.0830
vn 0.0324 0.9964 0.0782
vn 0.0470 0.9964 0.0703
vn 0.0598 0.9964 0.0598
vn 0.0703 0.9964 0.0470
vn 0.0782 0.9964 0.0324
vn 0.0830 0.9964 0.0165
vn 0.0846 0.9964 -0.0000
vn 0.0830 0.9964 -0.0165
vn 0.0782 0.9964 -0.0324
vn 0.0703 0.9964 -0.0470
vn 0.0598 0.9964 -0.0598
vn 0.0470 0.9964 -0.0703
vn 0.0324 0.9964 -0.0782
vn 0.0165 0.9964 -0.0830
vn -0.0000 0.9964 -0.0846
vn 0.9118 -0.1612 0.3777
vn 0.9680 -0.1612 0.1925
vn 0.9745 0.1127 0.1938
vn 0.9180 0.1127 0.3802
vn -0.9869 -0.1612 -0.0000
vn -0.9680 -0.1612 0.1925
vn -0.9745 0.1127 0.1938
vn -0.9936 0.1127 -0.0000
vn 0.8206 -0.1612 0.5483
vn 0.8262 0.1127 0.5520
vn -0.9680 -0.1612 -0.1925
vn -0.9745 0.1127 -0.1938
vn 0.6979 -0.1612 0.6979
vn 0.7026 0.1127 0.7026
vn -0.9118 -0.1612 -0.3777
vn -0.9180 0.1127 -0.3802
vn 0.5483 -0.1612 0.8206
vn 0.5520 0.1127 0.8262
vn -0.8206 -0.1612 -0.5483
vn -0.8262 0.1127 -0.5520
vn 0.3777 -0.1612 0.9118
vn 0.3802 0.1127 0.9180
vn 0.1925 -0.1612 -0.9680
vn -0.0000 -0.1612 -0.9869
vn -0.0000 0.1127 -0.9936
vn 0.1938 0.1127 -0.9745
vn -0.6979 -0.1612 -0.6979
vn -0.7026 0.1127 -0.7026
vn 0.1925 -0.1612 0.9680
vn 0.1938 0.1127 0.9745
vn 0.3777 -0.1612 -0.9118
vn 0.3802 0.1127 -0.9180
vn -0.5483 -0.1612 -0.8206
vn -0.5520 0.1127 -0.8262
vn -0.0000 -0.1612 0.9869
vn -0.0000 0.1127 0.9936
vn 0.5483 -0.1612 -0.8206
vn 0.5520 0.1127 -0.8262
vn -0.3777 -0.1612 -0.9118
vn -0.3802 0.1127 -0.9180
vn -0.1925 -0.1612 0.9680
vn -0.1938 0.1127 0.9745
vn 0.6979 -0.1612 -0.6979
vn 0.7026 0.1127 -0.7026
vn -0.1925 -0.1612 -0.9680
vn -0.1938 0.1127 -0.9745
vn -0.3777 -0.1612 0.9118
vn -0.3802 0.1127 0.9180
vn 0.8206 -0.1612 -0.5483
vn 0.8262 0.1127 -0.5520
vn -0.5483 -0.1612 0.8206
vn -0.5520 0.1127 0.8262
vn 0.9118 -0.1612 -0.3777
vn 0.9180 0.1127 -0.3802
vn -0.6979 -0.1612 0.6979
vn -0.7026 0.1127 0.7026
vn 0.9680 -0.1612 -0.1925
vn 0.9745 0.1127 -0.1938
vn -0.8206 -0.1612 0.5483
vn -0.8262 0.1127 0.5520
vn 0.9869 -0.1612 -0.0000
vn 0.9936 0.1127 -0.0000
vn -0.9118 -0.1612 0.3777
vn -0.9180 0.1127 0.3802
vt 0.053968 0.070580
vt 0.099183 0.030494
vt 0.115592 0.053135
vt 0.074479 0.089584
vt 0.835500 0.846732
vt 0.824854 0.902558
vt 0.776731 0.889377
vt 0.786411 0.838615
vt 0.151349 0.000000
vt 0.163026 0.025407
vt 0.809398 0.952800
vt 0.762677 0.935061
vt 0.789113 0.056874
vt 0.786622 0.107116
vt 0.747146 0.120297
vt 0.749411 0.074613
vt 0.789727 0.995527
vt 0.744790 0.973912
vt 0.784906 0.162941
vt 0.745585 0.171058
vt 0.601117 0.657743
vt 0.599809 0.716999
vt 0.560548 0.719453
vt 0.561738 0.665572
vt 0.784032 0.222206
vt 0.744790 0.224946
vt 0.118716 0.542704
vt 0.070580 0.506179
vt 0.089584 0.485668
vt 0.133354 0.518880
vt 0.599367 0.777423
vt 0.560147 0.774396
vt 0.784032 0.282631
vt 0.744790 0.279890
vt 0.606098 0.056532
vt 0.603240 0.106755
vt 0.563669 0.119647
vt 0.566267 0.073980
vt 0.599809 0.836692
vt 0.560548 0.828288
vt 0.784906 0.341895
vt 0.745585 0.333778
vt 0.601117 0.162566
vt 0.561737 0.170396
vt 0.601117 0.892529
vt 0.561738 0.879060
vt 0.786622 0.397721
vt 0.747146 0.384540
vt 0.599809 0.221823
vt 0.560548 0.224277
vt 0.603240 0.942788
vt 0.563669 0.924759
vt 0.789727 0.518984
vt 0.809398 0.561711
vt 0.762677 0.579449
vt 0.744790 0.540598
vt 0.599367 0.282246
vt 0.560147 0.279219
vt 0.173053 0.569137
vt 0.182762 0.542915
vt 0.824854 0.611953
vt 0.776731 0.625134
vt 0.599809 0.341516
vt 0.560548 0.333111
vt 0.835500 0.667778
vt 0.786411 0.675895
vt 0.601117 0.397352
vt 0.561737 0.383883
vt 0.840927 0.727042
vt 0.791346 0.729783
vt 0.603240 0.447611
vt 0.563668 0.429583
vt 0.840927 0.787468
vt 0.791346 0.784727
vt 0.017443 0.118716
vt 0.041267 0.133354
vt 0.122298 0.450360
vt 0.092108 0.416307
vt 0.069142 0.377019
vt 0.054282 0.334006
vt 0.048099 0.288920
vt 0.050830 0.243494
vt 0.062371 0.199474
vt 0.082279 0.158551
vt 0.109787 0.122298
vt 0.143840 0.092108
vt 0.183127 0.069142
vt 0.226141 0.054282
vt 0.271227 0.048099
vt 0.316653 0.050830
vt 0.360673 0.062371
vt 0.401596 0.082279
vt 0.437849 0.109787
vt 0.468039 0.143840
vt 0.491005 0.183127
vt 0.505865 0.226141
vt 0.512048 0.271227
vt 0.509317 0.316653
vt 0.497776 0.360673
vt 0.477868 0.401596
vt 0.450360 0.437849
vt 0.416307 0.468039
vt 0.377019 0.491005
vt 0.334006 0.505865
vt 0.288920 0.512048
vt 0.243494 0.509317
vt 0.199474 0.497776
vt 0.158551 0.477868
vt 0.962961 0.787799
vt 0.957474 0.847712
vt 0.882918 0.852045
vt 0.888668 0.789262
vt 0.738380 0.450741
vt 0.741269 0.493958
vt 0.649344 0.504823
vt 0.646316 0.459536
vt 0.962961 0.726712
vt 0.888668 0.725249
vt 0.736233 0.399931
vt 0.644066 0.406293
vt 0.957474 0.666798
vt 0.882918 0.662466
vt 0.734911 0.343483
vt 0.642681 0.347141
vt 0.946711 0.610361
vt 0.871640 0.603326
vt 0.734464 0.283565
vt 0.642213 0.284353
vt 0.924272 0.450105
vt 0.927477 0.493300
vt 0.835633 0.504837
vt 0.832275 0.459573
vt 0.738380 0.945917
vt 0.741269 0.989135
vt 0.649344 1.000000
vt 0.646316 0.954713
vt 0.734911 0.222479
vt 0.642681 0.220342
vt 0.921754 0.399313
vt 0.829636 0.406348
vt 0.736233 0.895108
vt 0.644066 0.901470
vt 0.736233 0.162574
vt 0.644066 0.157568
vt 0.920019 0.342875
vt 0.827818 0.347208
vt 0.734911 0.838660
vt 0.642681 0.842318
vt 0.738380 0.106151
vt 0.646316 0.098442
vt 0.919135 0.282962
vt 0.826891 0.284425
vt 0.734465 0.778741
vt 0.642213 0.779530
vt 0.741269 0.055378
vt 0.649344 0.045238
vt 0.919135 0.221875
vt 0.826891 0.220412
vt 0.734911 0.717656
vt 0.642681 0.715519
vt 0.744790 0.012207
vt 0.653033 0.000000
vt 0.920019 0.161961
vt 0.827818 0.157629
vt 0.736233 0.657750
vt 0.644066 0.652744
vt 0.921754 0.105524
vt 0.829636 0.098489
vt 0.738380 0.601327
vt 0.646316 0.593619
vt 0.924272 0.054732
vt 0.832275 0.045264
vt 0.741269 0.550555
vt 0.649344 0.540415
vt 0.927477 0.011537
vt 0.835633 -0.000000
vt 0.946711 0.904150
vt 0.871640 0.911185
vt 0.744790 0.527923
vt 0.653033 0.540415
vt 0.053135 0.444555
vt 0.025407 0.397121
vt 0.007465 0.345189
vt -0.000000 0.290754
vt 0.003298 0.235909
vt 0.017232 0.182762
vt 0.214958 0.007465
vt 0.269393 0.000000
vt 0.324237 0.003298
vt 0.377385 0.017232
vt 0.426793 0.041267
vt 0.470563 0.074479
vt 0.507012 0.115592
vt 0.534740 0.163026
vt 0.552682 0.214958
vt 0.560147 0.269393
vt 0.556849 0.324237
vt 0.542915 0.377385
vt 0.518880 0.426793
vt 0.485668 0.470563
vt 0.444555 0.507012
vt 0.397121 0.534740
vt 0.345189 0.552682
vt 0.290754 0.560147
vt 0.235909 0.556849
vt 0.606098 0.490360
vt 0.855267 0.550101
vt 0.606099 0.985537
vt 0.834427 0.504837
vt 0.609581 0.013829
vt 0.603240 0.601931
vt 0.855267 0.964410
vt 0.792283 0.014147
vt 0.609581 0.523957
s 1
f 158/1/1 129/2/2 107/3/3 106/4/4
f 159/5/5 130/6/6 121/7/7 120/8/8
f 129/2/2 131/9/9 108/10/10 107/3/3
f 130/6/6 132/11/11 122/12/12 121/7/7
f 131/13/9 133/14/13 109/15/14 108/16/10
f 132/11/11 134/17/15 123/18/16 122/12/12
f 133/14/13 135/19/17 110/20/18 109/15/14
f 134/21/15 136/22/19 124/23/20 123/24/16
f 135/19/17 137/25/21 111/26/22 110/20/18
f 160/27/23 138/28/24 97/29/25 98/30/26
f 136/22/19 139/31/27 125/32/28 124/23/20
f 137/25/21 140/33/29 112/34/30 111/26/22
f 138/35/24 141/36/31 99/37/32 97/38/25
f 139/31/27 142/39/33 126/40/34 125/32/28
f 140/33/29 143/41/35 113/42/36 112/34/30
f 141/36/31 144/43/37 100/44/38 99/37/32
f 142/39/33 145/45/39 127/46/40 126/40/34
f 143/41/35 146/47/41 114/48/42 113/42/36
f 144/43/37 147/49/43 101/50/44 100/44/38
f 145/45/39 148/51/45 128/52/46 127/46/40
f 146/53/41 149/54/47 115/55/48 114/56/42
f 147/49/43 150/57/49 102/58/50 101/50/44
f 148/59/45 160/27/23 98/30/26 128/60/46
f 149/54/47 151/61/51 116/62/52 115/55/48
f 150/57/49 152/63/53 103/64/54 102/58/50
f 151/61/51 153/65/55 117/66/56 116/62/52
f 152/63/53 154/67/57 104/68/58 103/64/54
f 153/65/55 155/69/59 118/70/60 117/66/56
f 154/67/57 156/71/61 105/72/62 104/68/58
f 155/69/59 157/73/63 119/74/64 118/70/60
f 156/75/61 158/1/1 106/4/4 105/76/62
f 157/73/63 159/5/5 120/8/8 119/74/64
f 34/77/65 35/78/66 36/79/67 37/80/68 38/81/69 39/82/70 40/83/71 41/84/72 42/85/73 43/86/74 44/87/75 45/88/76 46/89/77 47/90/78 48/91/79 49/92/80 50/93/81 51/94/82 52/95/83 53/96/84 54/97/85 55/98/86 56/99/87 57/100/88 58/101/89 59/102/90 60/103/91 61/104/92 62/105/93 63/106/94 64/107/95 33/108/96
f 23/109/97 24/110/98 67/111/99 96/112/100
f 9/113/101 10/114/102 65/115/103 95/116/104
f 22/117/105 23/109/97 96/112/100 94/118/106
f 8/119/107 9/113/101 95/116/104 93/120/108
f 21/121/109 22/117/105 94/118/106 92/122/110
f 7/123/111 8/119/107 93/120/108 91/124/112
f 20/125/113 21/121/109 92/122/110 90/126/114
f 6/127/115 7/123/111 91/124/112 89/128/116
f 19/129/117 20/130/113 90/131/114 88/132/118
f 32/133/119 1/134/120 76/135/121 87/136/122
f 5/137/123 6/127/115 89/128/116 86/138/124
f 18/139/125 19/129/117 88/132/118 85/140/126
f 31/141/127 32/133/119 87/136/122 84/142/128
f 4/143/129 5/137/123 86/138/124 83/144/130
f 17/145/131 18/139/125 85/140/126 82/146/132
f 30/147/133 31/141/127 84/142/128 81/148/134
f 3/149/135 4/143/129 83/144/130 80/150/136
f 16/151/137 17/145/131 82/146/132 79/152/138
f 29/153/139 30/147/133 81/148/134 78/154/140
f 2/155/141 3/149/135 80/150/136 77/156/142
f 15/157/143 16/151/137 79/152/138 75/158/144
f 28/159/145 29/153/139 78/154/140 74/160/146
f 1/161/120 2/155/141 77/156/142 76/162/121
f 14/163/147 15/157/143 75/158/144 73/164/148
f 27/165/149 28/159/145 74/160/146 72/166/150
f 13/167/151 14/163/147 73/164/148 71/168/152
f 26/169/153 27/165/149 72/166/150 70/170/154
f 12/171/155 13/167/151 71/168/152 69/172/156
f 25/173/157 26/169/153 70/170/154 68/174/158
f 11/175/159 12/171/155 69/172/156 66/176/160
f 24/110/98 25/177/157 68/178/158 67/111/99
f 10/114/102 11/179/159 66/180/160 65/115/103
f 34/77/65 33/108/96 98/30/26 97/29/25
f 35/78/66 34/77/65 97/29/25 99/181/32
f 36/79/67 35/78/66 99/181/32 100/182/38
f 37/80/68 36/79/67 100/182/38 101/183/44
f 38/81/69 37/80/68 101/183/44 102/184/50
f 39/82/70 38/81/69 102/184/50 103/185/54
f 40/83/71 39/82/70 103/185/54 104/186/58
f 41/84/72 40/83/71 104/186/58 105/76/62
f 42/85/73 41/84/72 105/76/62 106/4/4
f 43/86/74 42/85/73 106/4/4 107/3/3
f 44/87/75 43/86/74 107/3/3 108/10/10
f 45/88/76 44/87/75 108/10/10 109/187/14
f 46/89/77 45/88/76 109/187/14 110/188/18
f 47/90/78 46/89/77 110/188/18 111/189/22
f 48/91/79 47/90/78 111/189/22 112/190/30
f 49/92/80 48/91/79 112/190/30 113/191/36
f 50/93/81 49/92/80 113/191/36 114/192/42
f 51/94/82 50/93/81 114/192/42 115/193/48
f 52/95/83 51/94/82 115/193/48 116/194/52
f 53/96/84 52/95/83 116/194/52 117/195/56
f 54/97/85 53/96/84 117/195/56 118/196/60
f 55/98/86 54/97/85 118/196/60 119/197/64
f 56/99/87 55/98/86 119/197/64 120/198/8
f 57/100/88 56/99/87 120/198/8 121/199/7
f 58/101/89 57/100/88 121/199/7 122/200/12
f 59/102/90 58/101/89 122/200/12 123/201/16
f 60/103/91 59/102/90 123/201/16 124/202/20
f 61/104/92 60/103/91 124/202/20 125/203/28
f 62/105/93 61/104/92 125/203/28 126/204/34
f 63/106/94 62/105/93 126/204/34 127/205/40
f 64/107/95 63/106/94 127/205/40 128/60/46
f 33/108/96 64/107/95 128/60/46 98/30/26
f 96/112/100 67/111/99 159/5/5 157/73/63
f 95/116/104 65/115/103 158/206/1 156/71/61
f 94/118/106 96/112/100 157/73/63 155/69/59
f 93/120/108 95/116/104 156/71/61 154/67/57
f 92/122/110 94/118/106 155/69/59 153/65/55
f 91/124/112 93/120/108 154/67/57 152/63/53
f 90/126/114 92/122/110 153/65/55 151/61/51
f 89/128/116 91/124/112 152/63/53 150/57/49
f 88/207/118 90/126/114 151/61/51 149/54/47
f 87/136/122 76/135/121 160/208/23 148/51/45
f 86/138/124 89/128/116 150/57/49 147/49/43
f 85/209/126 88/207/118 149/54/47 146/53/41
f 84/142/128 87/136/122 148/51/45 145/45/39
f 83/144/130 86/138/124 147/49/43 144/43/37
f 82/146/132 85/140/126 146/47/41 143/41/35
f 81/148/134 84/142/128 145/45/39 142/39/33
f 80/150/136 83/144/130 144/43/37 141/36/31
f 79/152/138 82/146/132 143/41/35 140/33/29
f 78/154/140 81/148/134 142/39/33 139/31/27
f 77/156/142 80/150/136 141/36/31 138/35/24
f 75/158/144 79/152/138 140/33/29 137/25/21
f 74/160/146 78/154/140 139/31/27 136/22/19
f 76/162/121 77/156/142 138/35/24 160/210/23
f 73/164/148 75/158/144 137/25/21 135/19/17
f 72/166/150 74/160/146 136/22/19 134/21/15
f 71/168/152 73/164/148 135/19/17 133/14/13
f 70/170/154 72/166/150 134/21/15 132/211/11
f 69/172/156 71/168/152 133/14/13 131/13/9
f 68/178/158 70/212/154 132/11/11 130/6/6
f 66/176/160 69/172/156 131/13/9 129/213/2
f 67/111/99 68/178/158 130/6/6 159/5/5
f 65/115/103 66/180/160 129/214/2 158/206/1
