# Blender 4.0.1
# www.blender.org
o Bomber_Tailwing_Top
v -4.348724 1.157973 0.186344
v -3.529736 1.158347 0.186344
v -4.440836 2.581947 0.186343
v -3.966541 2.582242 0.186343
v -4.367120 2.297776 0.186343
v -4.354306 2.012688 0.186343
v -4.354314 1.727274 0.186343
v -4.352287 1.442176 0.186343
v -3.550979 1.437524 0.183632
v -3.612947 1.716553 0.180363
v -3.686667 2.007818 0.183644
v -3.786736 2.297877 0.186343
v -4.134990 1.157699 0.186344
v -3.855659 1.157672 0.186344
v -3.656590 1.157892 0.186344
v -4.029595 2.582295 0.186343
v -4.105455 2.582273 0.186343
v -4.298342 2.582169 0.186343
v -3.687692 1.454073 0.180190
v -3.861888 1.457020 0.181844
v -4.129216 1.457497 0.182112
v -3.727954 1.725049 0.177952
v -3.872900 1.730147 0.180814
v -4.129216 1.732459 0.182112
v -3.767206 2.004711 0.180588
v -3.883800 2.007049 0.181904
v -4.129857 2.007420 0.182112
v -3.867312 2.282382 0.182112
v -3.971536 2.282381 0.182112
v -4.183787 2.282381 0.182112
v -4.348702 1.157990 -0.144627
v -3.529767 1.158363 -0.144627
v -4.440782 2.581930 -0.144627
v -3.966520 2.582224 -0.144627
v -4.367085 2.297765 -0.144627
v -4.354277 2.012684 -0.144627
v -4.354286 1.727278 -0.144627
v -4.352261 1.442187 -0.144627
v -3.550861 1.437489 -0.147339
v -3.612660 1.716520 -0.150608
v -3.686575 2.007830 -0.147327
v -3.786746 2.297866 -0.144627
v -4.134981 1.157716 -0.144627
v -3.855664 1.157689 -0.144627
v -3.656610 1.157909 -0.144627
v -4.029564 2.582278 -0.144627
v -4.105419 2.582256 -0.144627
v -4.298297 2.582152 -0.144627
v -3.687692 1.454073 -0.142350
v -3.861888 1.457020 -0.140696
v -4.129216 1.457497 -0.140428
v -3.727954 1.725049 -0.144588
v -3.872900 1.730147 -0.141726
v -4.129216 1.732459 -0.140428
v -3.767182 2.004718 -0.141952
v -3.883800 2.007049 -0.140636
v -4.129857 2.007420 -0.140428
v -3.867303 2.282381 -0.140428
v -3.971526 2.282381 -0.140428
v -4.183777 2.282381 -0.140428
v -3.484422 1.404361 0.137223
v -3.484367 1.404346 -0.102854
v -3.456226 1.102951 -0.098920
v -3.456208 1.102943 0.141156
v -3.614161 1.102811 -0.098920
v -3.614150 1.102803 0.141156
v -4.153560 1.102745 0.141156
v -4.153555 1.102753 -0.098920
v -4.397947 1.102835 -0.098920
v -4.397959 1.102828 0.141156
v -3.557392 1.704955 0.132480
v -3.557272 1.704941 -0.107596
v -3.973117 2.637383 0.141156
v -3.973115 2.637376 -0.098921
v -3.764488 2.330609 -0.098921
v -3.764482 2.330614 0.141156
v -3.843799 1.102737 0.141156
v -3.843802 1.102745 -0.098920
v -3.641517 2.018367 0.137239
v -3.641479 2.018372 -0.102837
v -4.522884 2.637295 0.141156
v -4.522864 2.637287 -0.098921
v -4.356711 2.637354 -0.098921
v -4.356727 2.637362 0.141156
v -4.430935 2.330585 0.141156
v -4.430919 2.330581 -0.098921
v -4.056121 2.637400 0.141156
v -4.056114 2.637392 -0.098921
v -4.399906 2.023604 0.141156
v -4.399895 2.023602 -0.098920
v -4.144464 2.637393 0.141156
v -4.144454 2.637385 -0.098921
v -4.399909 1.716531 0.141156
v -4.399897 1.716533 -0.098920
v -4.399263 1.409547 0.141156
v -4.399252 1.409552 -0.098920
v -4.374060 2.582057 0.186343
v -4.245223 1.449837 0.184228
v -4.246236 1.729866 0.184228
v -4.246552 2.010054 0.184228
v -4.279925 2.290079 0.184228
v -4.246328 1.157836 0.186344
v -4.374011 2.582041 -0.144627
v -4.245210 1.449842 -0.142528
v -4.246222 1.729868 -0.142528
v -4.246538 2.010052 -0.142528
v -4.279902 2.290073 -0.142528
v -4.246313 1.157853 -0.144627
v -4.444277 2.637328 0.141156
v -4.444259 2.637321 -0.098921
v -4.280231 1.102786 0.141156
v -4.280222 1.102794 -0.098920
v -3.463894 1.394665 -0.056055
v -3.433594 1.086819 -0.051241
v -3.601096 1.086748 -0.051241
v -4.159273 1.086720 -0.051241
v -4.413102 1.086761 -0.051241
v -3.540085 1.701550 -0.061860
v -3.972178 2.653463 -0.051241
v -3.757055 2.340193 -0.051241
v -3.840150 1.086715 -0.051241
v -3.627459 2.021463 -0.056035
v -4.544403 2.653419 -0.051241
v -4.371537 2.653452 -0.051241
v -4.450706 2.340179 -0.051241
v -4.061463 2.653471 -0.051241
v -4.414076 2.026803 -0.051241
v -4.153589 2.653468 -0.051241
v -4.414077 1.713382 -0.051241
v -4.413754 1.400005 -0.051241
v -4.290659 1.086740 -0.051241
v -4.462441 2.653435 -0.051241
v -3.463921 1.394673 0.089034
v -3.433585 1.086815 0.093849
v -3.601090 1.086745 0.093849
v -4.159276 1.086716 0.093849
v -4.413108 1.086757 0.093849
v -3.540145 1.701557 0.083229
v -3.972180 2.653467 0.093849
v -3.757052 2.340196 0.093849
v -3.840149 1.086712 0.093849
v -3.627478 2.021461 0.089055
v -4.544413 2.653422 0.093849
v -4.371544 2.653456 0.093849
v -4.450714 2.340181 0.093849
v -4.061467 2.653475 0.093849
v -4.414082 2.026804 0.093849
v -4.153594 2.653472 0.093849
v -4.414083 1.713382 0.093849
v -4.413761 1.400003 0.093849
v -4.290663 1.086736 0.093849
v -4.462450 2.653439 0.093849
vn -0.0158 -0.0147 0.9998
vn 0.4021 0.1886 0.8960
vn 0.2991 0.3734 0.8781
vn -0.0048 0.3287 0.9444
vn -0.0019 -0.3292 0.9443
vn 0.2281 -0.2473 0.9417
vn 0.3328 0.0743 0.9401
vn -0.0048 0.0113 0.9999
vn 0.3472 0.0877 0.9337
vn -0.0054 -0.0024 1.0000
vn 0.3731 0.1102 0.9212
vn -0.0139 -0.0121 0.9998
vn 0.0198 0.0013 0.9998
vn 0.0098 0.0001 1.0000
vn 0.0081 -0.0046 1.0000
vn 0.0169 -0.0008 0.9999
vn 0.0065 -0.0021 1.0000
vn 0.0013 -0.0074 1.0000
vn 0.0189 -0.0000 0.9998
vn 0.0106 -0.0000 0.9999
vn 0.0091 0.0004 1.0000
vn 0.0142 0.0037 0.9999
vn 0.0077 0.0067 0.9999
vn 0.0057 0.0105 0.9999
vn 0.0048 -0.3335 0.9427
vn 0.0024 -0.3314 0.9435
vn 0.0015 -0.3296 0.9441
vn 0.0038 0.3319 0.9433
vn 0.0066 0.3347 0.9423
vn -0.0001 0.3299 0.9440
vn -0.0228 -0.0118 -0.9997
vn -0.0048 0.3314 -0.9435
vn 0.3004 0.3759 -0.8766
vn 0.3952 0.1961 -0.8974
vn -0.0061 -0.3378 -0.9412
vn -0.0218 -0.0048 -0.9998
vn 0.3117 0.0502 -0.9489
vn 0.2201 -0.2601 -0.9402
vn -0.0338 -0.0052 -0.9994
vn 0.3160 0.0808 -0.9453
vn -0.0364 -0.0025 -0.9993
vn 0.3498 0.1233 -0.9287
vn 0.0197 0.0013 -0.9998
vn 0.0167 -0.0008 -0.9999
vn 0.0079 -0.0045 -1.0000
vn 0.0080 0.0012 -1.0000
vn -0.0013 -0.0067 -1.0000
vn -0.0065 0.0021 -1.0000
vn 0.0187 -0.0000 -0.9998
vn 0.0075 -0.0000 -1.0000
vn -0.0091 -0.0004 -1.0000
vn 0.0141 0.0037 -0.9999
vn 0.0059 0.0054 -1.0000
vn -0.0056 0.0035 -1.0000
vn 0.0047 -0.3362 -0.9418
vn 0.0022 -0.3343 -0.9425
vn -0.0012 -0.3344 -0.9424
vn 0.0066 0.3373 -0.9414
vn 0.0037 0.3346 -0.9424
vn -0.0001 0.3326 -0.9431
vn 0.5421 -0.5231 -0.6577
vn 0.7837 0.1213 -0.6092
vn 0.0007 -0.8240 -0.5666
vn -0.0004 -0.8245 -0.5659
vn -0.0002 -0.8248 -0.5654
vn 0.7991 0.2009 -0.5666
vn 0.7995 0.4282 -0.4213
vn 0.3945 0.7635 -0.5114
vn 0.0002 -0.8248 -0.5654
vn 0.8198 0.2752 -0.5022
vn -0.0005 0.8234 -0.5674
vn -0.2557 0.2172 -0.9420
vn -0.6086 0.4457 -0.6564
vn -0.3081 -0.0431 -0.9504
vn -0.7986 -0.1560 -0.5813
vn 0.0001 0.8243 -0.5662
vn -0.3532 -0.0108 -0.9355
vn -0.8402 -0.0391 -0.5408
vn -0.0001 0.8241 -0.5664
vn -0.3731 -0.0007 -0.9278
vn -0.8578 -0.0013 -0.5140
vn -0.0003 0.8238 -0.5669
vn -0.3694 -0.0011 -0.9293
vn -0.8516 -0.0036 -0.5242
vn -0.2877 -0.2622 -0.9211
vn -0.5668 -0.5645 -0.6001
vn -0.3668 -0.0011 0.9303
vn -0.8496 -0.0036 0.5275
vn -0.5654 -0.5630 0.6028
vn -0.2855 -0.2600 0.9224
vn -0.9889 -0.0020 -0.1484
vn -0.6917 -0.6953 -0.1953
vn -0.3705 -0.0007 0.9288
vn -0.8559 -0.0013 0.5172
vn -0.9894 -0.0007 -0.1449
vn -0.0001 0.8219 0.5696
vn -0.0003 0.8216 0.5701
vn -0.0001 0.9868 -0.1620
vn -0.0002 0.9868 -0.1621
vn -0.3506 -0.0108 0.9365
vn -0.8381 -0.0390 0.5441
vn -0.9863 -0.0567 -0.1550
vn 0.0001 0.8220 0.5694
vn -0.0000 0.9868 -0.1620
vn -0.3057 -0.0428 0.9512
vn -0.7964 -0.1555 0.5845
vn -0.9649 -0.2046 -0.1647
vn 0.3939 0.7618 0.5143
vn 0.4464 0.8824 -0.1486
vn -0.2534 0.2154 0.9431
vn -0.6070 0.4445 0.6588
vn -0.7809 0.5818 -0.2275
vn 0.8302 0.2652 0.4903
vn 0.8012 0.4239 0.4223
vn 0.9378 0.3173 -0.1410
vn 0.8732 0.4731 -0.1173
vn 0.0002 -0.8226 0.5687
vn 0.0007 -0.8217 0.5699
vn 0.0001 -0.9869 -0.1616
vn 0.0004 -0.9868 -0.1620
vn -0.0005 0.8212 0.5706
vn -0.0002 0.9867 -0.1623
vn 0.8159 0.2078 0.5396
vn 0.9546 0.2466 -0.1670
vn -0.0002 -0.8226 0.5686
vn -0.0001 -0.9869 -0.1615
vn 0.7930 0.1388 0.5932
vn 0.9693 0.1578 -0.1885
vn -0.0004 -0.8222 0.5692
vn -0.0002 -0.9868 -0.1617
vn 0.5467 -0.5164 0.6591
vn 0.7266 -0.6478 -0.2289
vn -0.0002 0.9866 0.1633
vn -0.0002 0.9866 0.1634
vn -0.6915 -0.6951 0.1965
vn -0.0002 -0.9867 0.1628
vn 0.7279 -0.6456 0.2309
vn 0.9694 0.1637 0.1830
vn 0.0004 -0.9866 0.1631
vn -0.0001 -0.9867 0.1627
vn 0.9561 0.2480 0.1559
vn 0.8738 0.4717 0.1182
vn 0.4462 0.8823 0.1496
vn 0.0001 -0.9867 0.1627
vn 0.9395 0.3136 0.1378
vn -0.7807 0.5816 0.2287
vn -0.9647 -0.2046 0.1657
vn -0.0000 0.9866 0.1631
vn -0.9861 -0.0567 0.1561
vn -0.0001 0.9866 0.1631
vn -0.9893 -0.0007 0.1459
vn -0.9888 -0.0020 0.1494
vt 0.778854 0.129449
vt 0.716867 0.127384
vt 0.779865 0.011859
vt 0.834625 0.008296
vt 0.725006 0.573649
vt 0.645332 0.578625
vt 0.646571 0.469128
vt 0.729660 0.457268
vt 0.663708 0.358661
vt 0.738530 0.350492
vt 0.685131 0.243120
vt 0.746792 0.240349
vt 0.903594 0.228112
vt 0.861603 0.231861
vt 0.875710 0.123184
vt 0.909550 0.117977
vt 0.794526 0.236345
vt 0.821818 0.126670
vt 0.910545 0.337476
vt 0.868295 0.339193
vt 0.797261 0.344694
vt 0.917219 0.446795
vt 0.875237 0.446509
vt 0.799860 0.451572
vt 0.925025 0.560733
vt 0.885064 0.563371
vt 0.804992 0.568562
vt 0.912856 0.003285
vt 0.938921 0.001643
vt 0.866519 0.006241
vt 0.348405 0.156670
vt 0.294676 0.034613
vt 0.349366 0.039086
vt 0.410421 0.155640
vt 0.394859 0.601697
vt 0.392137 0.485261
vt 0.475074 0.498517
vt 0.474434 0.607997
vt 0.385045 0.378350
vt 0.459844 0.387783
vt 0.378625 0.268086
vt 0.440269 0.271880
vt 0.222049 0.253245
vt 0.217929 0.143028
vt 0.251667 0.148794
vt 0.263961 0.257691
vt 0.305494 0.153176
vt 0.330954 0.263291
vt 0.213281 0.362476
vt 0.255484 0.364897
vt 0.326417 0.371578
vt 0.204789 0.471668
vt 0.246759 0.472082
vt 0.322041 0.478398
vt 0.195096 0.585455
vt 0.235005 0.588758
vt 0.314974 0.595279
vt 0.190513 0.026225
vt 0.216545 0.028301
vt 0.262823 0.032028
vt 0.035580 0.644860
vt -0.000000 0.615003
vt 0.005955 0.510050
vt 0.041462 0.530789
vt 0.409531 0.624557
vt 0.501216 0.631967
vt 0.180003 0.605877
vt 0.225893 0.609629
vt 0.007301 0.399489
vt 0.042262 0.410804
vt 0.042959 0.153266
vt 0.009997 0.162753
vt 0.000000 0.033851
vt 0.030587 0.012169
vt 0.317727 0.617109
vt 0.010197 0.282707
vt 0.044840 0.284506
vt 0.164756 0.002482
vt 0.164481 0.024150
vt 0.134113 0.000000
vt 0.184192 0.137261
vt 0.160222 0.122478
vt 0.348418 0.017412
vt 0.285949 0.012320
vt 0.180137 0.248798
vt 0.162574 0.243129
vt 0.249229 0.009333
vt 0.597664 0.257012
vt 0.617497 0.263204
vt 0.617894 0.374572
vt 0.598090 0.376833
vt 0.195399 0.004963
vt 0.617941 0.485866
vt 0.598405 0.496635
vt 0.617724 0.596850
vt 0.598606 0.616350
vt 0.501660 0.482428
vt 0.537410 0.494831
vt 0.537612 0.614548
vt 0.501442 0.593414
vt 0.585658 0.499555
vt 0.585980 0.621801
vt 0.501613 0.371131
vt 0.537095 0.375028
vt 0.585279 0.377264
vt 0.715594 0.688962
vt 0.752845 0.704231
vt 0.752820 0.758241
vt 0.715558 0.735393
vt 0.800852 0.707820
vt 0.812961 0.704254
vt 0.812937 0.758262
vt 0.800829 0.764053
vt 0.501216 0.259760
vt 0.536669 0.255205
vt 0.584844 0.254965
vt 0.715609 0.657002
vt 0.752859 0.667388
vt 0.800866 0.669498
vt 0.812976 0.667413
vt 0.503022 0.148203
vt 0.541575 0.134661
vt 0.590703 0.131789
vt 0.602569 0.136468
vt 0.715619 0.602125
vt 0.752878 0.604710
vt 0.800887 0.604363
vt 0.812995 0.604736
vt 0.515294 0.035518
vt 0.556948 0.012735
vt 0.606367 0.007272
vt 0.617941 0.014544
vt 0.134113 0.280159
vt 0.109841 0.283171
vt 0.107965 0.151933
vt 0.133926 0.160211
vt 0.062698 0.284989
vt 0.060334 0.150460
vt 0.715333 0.808576
vt 0.678115 0.803928
vt 0.678153 0.711820
vt 0.715395 0.728428
vt 0.630104 0.802486
vt 0.617975 0.803909
vt 0.618012 0.711803
vt 0.630136 0.706699
vt 0.715529 0.761510
vt 0.752803 0.788985
vt 0.752786 0.819729
vt 0.715500 0.787627
vt 0.800815 0.796109
vt 0.812920 0.789005
vt 0.812903 0.819748
vt 0.800800 0.828166
vt 0.131198 0.396897
vt 0.107255 0.409451
vt 0.060231 0.414096
vt 0.715317 0.888817
vt 0.678092 0.896071
vt 0.630078 0.898290
vt 0.617951 0.896048
vt 0.095593 0.010834
vt 0.123925 0.031303
vt 0.047476 0.006085
vt 0.129870 0.507481
vt 0.106462 0.529444
vt 0.059593 0.536836
vt 0.715330 0.928865
vt 0.678087 0.942116
vt 0.630069 0.946179
vt 0.617946 0.942092
vt 0.678203 0.619832
vt 0.715500 0.648599
vt 0.618063 0.619818
vt 0.630175 0.610972
vt 0.617941 0.602125
vt 0.621340 0.483772
vt 0.053745 0.653565
vt 0.630060 0.994067
vt 0.617941 0.988135
vt 0.715344 0.968914
vt 0.678082 0.988160
vt 0.134113 0.602125
vt 0.155187 0.582153
vt 0.162819 0.471254
vt 0.171077 0.360055
vt 0.943390 0.112771
vt 0.964986 0.000000
vt 0.964986 0.558095
vt 0.959202 0.447082
vt 0.952795 0.335758
vt 0.945586 0.224363
vt 0.770771 0.764043
vt 0.770756 0.796099
vt 0.660130 0.994080
vt 0.660139 0.946191
vt 0.100587 0.643533
vt 0.086248 0.652901
vt 0.092093 0.536163
vt 0.660206 0.706707
vt 0.660245 0.610979
vt 0.660149 0.898301
vt 0.092728 0.413420
vt 0.092837 0.149794
vt 0.079979 0.005417
vt 0.660174 0.802495
vt 0.095198 0.284321
vt 0.770742 0.828156
vt 0.575871 0.006368
vt 0.560206 0.130885
vt 0.770829 0.604350
vt 0.770808 0.669486
vt 0.554347 0.254062
vt 0.770793 0.707808
vt 0.554782 0.376362
vt 0.555161 0.498653
vt 0.555483 0.620900
s 1
f 28/1/1 12/2/2 4/3/3 16/4/4
f 15/5/5 2/6/6 9/7/7 19/8/8
f 19/8/8 9/7/7 10/9/9 22/10/10
f 22/10/10 10/9/9 11/11/11 25/12/12
f 25/12/12 11/11/11 12/2/2 28/1/1
f 100/13/13 27/14/14 30/15/15 101/16/16
f 27/14/14 26/17/17 29/18/18 30/15/15
f 26/17/17 25/12/12 28/1/1 29/18/18
f 99/19/19 24/20/20 27/14/14 100/13/13
f 24/20/20 23/21/21 26/17/17 27/14/14
f 23/21/21 22/10/10 25/12/12 26/17/17
f 98/22/22 21/23/23 24/20/20 99/19/19
f 21/23/23 20/24/24 23/21/21 24/20/20
f 20/24/24 19/8/8 22/10/10 23/21/21
f 102/25/25 13/26/26 21/23/23 98/22/22
f 13/26/26 14/27/27 20/24/24 21/23/23
f 14/27/27 15/5/5 19/8/8 20/24/24
f 101/16/16 30/15/15 18/28/28 97/29/29
f 30/15/15 29/18/18 17/30/30 18/28/28
f 29/18/18 28/1/1 16/4/4 17/30/30
f 58/31/31 46/32/32 34/33/33 42/34/34
f 45/35/35 49/36/36 39/37/37 32/38/38
f 49/36/36 52/39/39 40/40/40 39/37/37
f 52/39/39 55/41/41 41/42/42 40/40/40
f 55/41/41 58/31/31 42/34/34 41/42/42
f 106/43/43 107/44/44 60/45/45 57/46/46
f 57/46/46 60/45/45 59/47/47 56/48/48
f 56/48/48 59/47/47 58/31/31 55/41/41
f 105/49/49 106/43/43 57/46/46 54/50/50
f 54/50/50 57/46/46 56/48/48 53/51/51
f 53/51/51 56/48/48 55/41/41 52/39/39
f 104/52/52 105/49/49 54/50/50 51/53/53
f 51/53/53 54/50/50 53/51/51 50/54/54
f 50/54/54 53/51/51 52/39/39 49/36/36
f 108/55/55 104/52/52 51/53/53 43/56/56
f 43/56/56 51/53/53 50/54/54 44/57/57
f 44/57/57 50/54/54 49/36/36 45/35/35
f 107/44/44 103/58/58 48/59/59 60/45/45
f 60/45/45 48/59/59 47/60/60 59/47/47
f 59/47/47 47/60/60 46/32/32 58/31/31
f 63/61/61 32/62/38 39/63/37 62/64/62
f 65/65/63 45/35/35 32/38/38 63/66/61
f 112/67/64 108/55/55 43/56/56 68/68/65
f 62/64/62 39/63/37 40/69/40 72/70/66
f 75/71/67 42/72/34 34/73/33 74/74/68
f 68/68/65 43/56/56 44/57/57 78/75/69
f 72/70/66 40/69/40 41/76/42 80/77/70
f 110/78/71 103/58/58 33/79/72 82/80/73
f 78/75/69 44/57/57 45/35/35 65/65/63
f 80/77/70 41/76/42 42/72/34 75/71/67
f 82/80/73 33/79/72 35/81/74 86/82/75
f 74/83/68 34/33/33 46/32/32 88/84/76
f 86/82/75 35/81/74 36/85/77 90/86/78
f 88/84/76 46/32/32 47/60/60 92/87/79
f 90/88/78 36/89/77 37/90/80 94/91/81
f 92/87/79 47/60/60 48/59/59 83/92/82
f 94/91/81 37/90/80 38/93/83 96/94/84
f 96/94/84 38/93/83 31/95/85 69/96/86
f 8/97/87 95/98/88 70/99/89 1/100/90
f 130/101/91 96/94/84 69/96/86 117/102/92
f 7/103/93 93/104/94 95/98/88 8/97/87
f 129/105/95 94/91/81 96/94/84 130/101/91
f 17/106/30 91/107/96 84/108/97 18/109/28
f 128/110/98 92/111/79 83/112/82 124/113/99
f 6/114/100 89/115/101 93/104/94 7/103/93
f 127/116/102 90/88/78 94/91/81 129/105/95
f 16/117/4 87/118/103 91/107/96 17/106/30
f 126/119/104 88/120/76 92/111/79 128/110/98
f 5/121/105 85/122/106 89/115/101 6/114/100
f 125/123/107 86/124/75 90/88/78 127/116/102
f 4/125/3 73/126/108 87/118/103 16/117/4
f 119/127/109 74/128/68 88/120/76 126/119/104
f 3/129/110 81/130/111 85/122/106 5/121/105
f 123/131/112 82/132/73 86/124/75 125/123/107
f 11/133/11 79/134/113 76/135/114 12/136/2
f 122/137/115 80/77/70 75/71/67 120/138/116
f 14/139/27 77/140/117 66/141/118 15/142/5
f 121/143/119 78/144/69 65/145/63 115/146/120
f 97/147/29 109/148/121 81/149/111 3/150/110
f 132/151/122 110/152/71 82/153/73 123/154/112
f 10/155/9 71/156/123 79/134/113 11/133/11
f 118/157/124 72/70/66 80/77/70 122/137/115
f 13/158/26 67/159/125 77/140/117 14/139/27
f 116/160/126 68/161/65 78/144/69 121/143/119
f 12/136/2 76/135/114 73/162/108 4/163/3
f 120/138/116 75/71/67 74/74/68 119/164/109
f 9/165/7 61/166/127 71/156/123 10/155/9
f 113/167/128 62/64/62 72/70/66 118/157/124
f 102/168/25 111/169/129 67/159/125 13/158/26
f 131/170/130 112/171/64 68/161/65 116/160/126
f 15/142/5 66/141/118 64/172/131 2/173/6
f 115/146/120 65/145/63 63/174/61 114/175/132
f 2/6/6 64/176/131 61/177/127 9/7/7
f 114/178/132 63/61/61 62/64/62 113/167/128
f 117/179/92 69/180/86 112/171/64 131/170/130
f 1/181/90 70/182/89 111/169/129 102/168/25
f 124/113/99 83/112/82 110/152/71 132/151/122
f 18/109/28 84/108/97 109/148/121 97/147/29
f 83/92/82 48/59/59 103/58/58 110/78/71
f 69/183/86 31/184/85 108/55/55 112/67/64
f 35/81/74 33/79/72 103/58/58 107/44/44
f 31/184/85 38/185/83 104/52/52 108/55/55
f 38/185/83 37/186/80 105/49/49 104/52/52
f 37/186/80 36/85/77 106/43/43 105/49/49
f 36/85/77 35/81/74 107/44/44 106/43/43
f 5/187/105 101/16/16 97/29/29 3/188/110
f 1/189/90 102/25/25 98/22/22 8/190/87
f 8/190/87 98/22/22 99/19/19 7/191/93
f 7/191/93 99/19/19 100/13/13 6/192/100
f 6/192/100 100/13/13 101/16/16 5/187/105
f 84/108/97 144/193/133 152/194/134 109/148/121
f 70/182/89 137/195/135 151/196/136 111/169/129
f 64/197/131 134/198/137 133/199/138 61/166/127
f 66/141/118 135/200/139 134/201/137 64/172/131
f 111/169/129 151/196/136 136/202/140 67/159/125
f 61/166/127 133/199/138 138/203/141 71/156/123
f 76/135/114 140/204/142 139/205/143 73/162/108
f 67/159/125 136/202/140 141/206/144 77/140/117
f 71/156/123 138/203/141 142/207/145 79/134/113
f 109/148/121 152/194/134 143/208/146 81/149/111
f 77/140/117 141/206/144 135/200/139 66/141/118
f 79/134/113 142/207/145 140/204/142 76/135/114
f 81/130/111 143/209/146 145/210/147 85/122/106
f 73/126/108 139/211/143 146/212/148 87/118/103
f 85/122/106 145/210/147 147/213/149 89/115/101
f 87/118/103 146/212/148 148/214/150 91/107/96
f 89/115/101 147/213/149 149/215/151 93/104/94
f 91/107/96 148/214/150 144/193/133 84/108/97
f 93/104/94 149/215/151 150/216/152 95/98/88
f 95/98/88 150/216/152 137/217/135 70/99/89
f 124/113/99 144/193/133 148/214/150 128/110/98
f 132/151/122 152/194/134 144/193/133 124/113/99
f 113/167/128 133/199/138 134/198/137 114/178/132
f 148/214/150 146/212/148 126/119/104 128/110/98
f 146/212/148 139/211/143 119/127/109 126/119/104
f 139/205/143 140/204/142 120/138/116 119/164/109
f 140/204/142 142/207/145 122/137/115 120/138/116
f 142/207/145 138/203/141 118/157/124 122/137/115
f 138/203/141 133/199/138 113/167/128 118/157/124
f 117/102/92 137/217/135 150/216/152 130/101/91
f 114/175/132 134/198/137 135/200/139 115/146/120
f 115/146/120 135/200/139 141/206/144 121/143/119
f 121/143/119 141/206/144 136/202/140 116/160/126
f 116/160/126 136/202/140 151/196/136 131/170/130
f 131/170/130 151/196/136 137/195/135 117/179/92
f 123/154/112 143/208/146 152/194/134 132/151/122
f 150/216/152 149/215/151 129/105/95 130/101/91
f 149/215/151 147/213/149 127/116/102 129/105/95
f 147/213/149 145/210/147 125/123/107 127/116/102
f 145/210/147 143/209/146 123/154/112 125/123/107
o Bomber_Tailwing_Right
v -4.349704 0.570425 0.150194
v -3.530715 0.570238 0.150518
v -4.441816 -0.141562 1.383392
v -3.967521 -0.141709 1.383647
v -4.368100 0.000523 1.137293
v -4.355285 0.143067 0.890399
v -4.355294 0.285774 0.643223
v -4.353267 0.428323 0.396322
v -3.551959 0.432997 0.393648
v -3.613926 0.296314 0.636930
v -3.687647 0.147841 0.887531
v -3.787715 0.000473 1.137380
v -4.135969 0.570562 0.149957
v -3.856638 0.570575 0.149934
v -3.657570 0.570465 0.150124
v -4.030574 -0.141736 1.383694
v -4.106434 -0.141725 1.383675
v -4.299321 -0.141673 1.383584
v -3.688672 0.427704 0.409702
v -3.862867 0.424798 0.411427
v -4.130196 0.424327 0.411706
v -3.728934 0.294154 0.645492
v -3.873879 0.289127 0.648476
v -4.130196 0.286847 0.649829
v -3.768186 0.152040 0.886369
v -3.884779 0.149732 0.887735
v -4.130836 0.149366 0.887953
v -3.868291 0.011885 1.126076
v -3.972516 0.011885 1.126076
v -4.184767 0.011885 1.126076
v -4.349681 0.857046 0.315694
v -3.530747 0.856859 0.316017
v -4.441761 0.145075 1.548863
v -3.967500 0.144928 1.549118
v -4.368064 0.287158 1.302769
v -4.355257 0.429698 1.055881
v -4.355265 0.572402 0.808712
v -4.353240 0.714947 0.561816
v -3.551840 0.719644 0.559103
v -3.613639 0.582960 0.802386
v -3.687555 0.434464 1.053027
v -3.787725 0.287107 1.302856
v -4.135961 0.857182 0.315458
v -3.856643 0.857196 0.315434
v -3.657589 0.857086 0.315624
v -4.030544 0.144901 1.549165
v -4.106398 0.144912 1.549145
v -4.299276 0.144965 1.549055
v -3.688672 0.707032 0.570972
v -3.862867 0.704126 0.572697
v -4.130196 0.703655 0.572976
v -3.728934 0.573482 0.806762
v -3.873879 0.568455 0.809746
v -4.130196 0.566175 0.811099
v -3.768162 0.431364 1.047645
v -3.884779 0.429060 1.049006
v -4.130836 0.428694 1.049223
v -3.868282 0.291213 1.287346
v -3.972505 0.291213 1.287346
v -4.184757 0.291213 1.287346
v -3.485401 0.489771 0.388133
v -3.485346 0.697691 0.508158
v -3.457205 0.844982 0.245176
v -3.457187 0.637073 0.125131
v -3.615140 0.845052 0.245054
v -3.615129 0.637143 0.125010
v -4.154540 0.637172 0.124959
v -4.154535 0.845081 0.245004
v -4.398926 0.845039 0.245076
v -4.398939 0.637131 0.125031
v -3.558371 0.343581 0.650827
v -3.558251 0.551500 0.770853
v -3.974097 -0.130147 1.453995
v -3.974094 0.077769 1.574027
v -3.765467 0.231153 1.308359
v -3.765461 0.023238 1.188325
v -3.844779 0.637176 0.124952
v -3.844781 0.845085 0.244997
v -3.642497 0.182753 0.919870
v -3.642459 0.390663 1.039912
v -4.523864 -0.130102 1.453918
v -4.523843 0.077814 1.573950
v -4.357691 0.077780 1.574008
v -4.357706 -0.130136 1.453977
v -4.431914 0.023252 1.188300
v -4.431898 0.231167 1.308334
v -4.057100 -0.130155 1.454009
v -4.057093 0.077761 1.574041
v -4.400886 0.176743 0.922446
v -4.400874 0.384656 1.042483
v -4.145443 -0.130152 1.454004
v -4.145433 0.077765 1.574035
v -4.400888 0.330279 0.656514
v -4.400877 0.538191 0.776553
v -4.400243 0.483771 0.390658
v -4.400231 0.691681 0.510700
v -4.375040 -0.141617 1.383488
v -4.246202 0.426325 0.404014
v -4.247216 0.286310 0.646526
v -4.247532 0.146217 0.889176
v -4.280905 0.006204 1.131685
v -4.247308 0.570493 0.150076
v -4.374990 0.145020 1.548959
v -4.246189 0.709301 0.567396
v -4.247201 0.569288 0.809906
v -4.247518 0.429196 1.052552
v -4.280882 0.289186 1.295058
v -4.247293 0.857114 0.315576
v -4.445256 -0.130119 1.453947
v -4.445239 0.077797 1.573979
v -4.281210 0.637152 0.124995
v -4.281202 0.845060 0.245040
v -3.464873 0.662002 0.476376
v -3.434574 0.811756 0.207365
v -3.602075 0.811791 0.207304
v -4.160253 0.811806 0.207279
v -4.414082 0.811785 0.207315
v -3.541065 0.513587 0.745048
v -3.973158 0.028434 1.564119
v -3.758035 0.185069 1.292820
v -3.841130 0.811808 0.207276
v -3.628438 0.348586 1.019188
v -4.545382 0.028456 1.564081
v -4.372516 0.028439 1.564110
v -4.451685 0.185076 1.292807
v -4.062443 0.028430 1.564126
v -4.415055 0.341764 1.021416
v -4.154568 0.028432 1.564123
v -4.415057 0.498474 0.749985
v -4.414734 0.655163 0.478593
v -4.291638 0.811795 0.207297
v -4.463420 0.028448 1.564095
v -3.464901 0.536347 0.403837
v -3.434565 0.686107 0.134817
v -3.602070 0.686142 0.134756
v -4.160255 0.686156 0.134731
v -4.414088 0.686135 0.134767
v -3.541124 0.387933 0.672509
v -3.973159 -0.097219 1.491578
v -3.758032 0.059416 1.220277
v -3.841128 0.686158 0.134727
v -3.628458 0.222935 0.946641
v -4.545393 -0.097197 1.491539
v -4.372524 -0.097214 1.491568
v -4.451693 0.059423 1.220264
v -4.062447 -0.097223 1.491585
v -4.415061 0.216112 0.948872
v -4.154573 -0.097222 1.491582
v -4.415063 0.372823 0.677440
v -4.414740 0.529512 0.406046
v -4.291643 0.686146 0.134749
v -4.463429 -0.097206 1.491553
vn -0.0158 -0.8585 -0.5126
vn 0.4021 -0.8702 -0.2847
vn 0.2991 -0.9472 -0.1157
vn -0.0048 -0.9822 -0.1875
vn -0.0019 -0.6531 -0.7572
vn 0.2281 -0.6919 -0.6850
vn 0.3328 -0.8513 -0.4057
vn -0.0048 -0.8716 -0.4902
vn 0.3472 -0.8525 -0.3909
vn -0.0054 -0.8648 -0.5021
vn 0.3731 -0.8529 -0.3652
vn -0.0139 -0.8598 -0.5104
vn 0.0198 -0.8665 -0.4988
vn 0.0098 -0.8661 -0.4999
vn 0.0081 -0.8637 -0.5040
vn 0.0169 -0.8655 -0.5006
vn 0.0065 -0.8649 -0.5018
vn 0.0013 -0.8623 -0.5064
vn 0.0189 -0.8659 -0.4999
vn 0.0106 -0.8660 -0.5000
vn 0.0091 -0.8662 -0.4996
vn 0.0142 -0.8678 -0.4967
vn 0.0077 -0.8693 -0.4942
vn 0.0057 -0.8712 -0.4909
vn 0.0048 -0.6497 -0.7602
vn 0.0024 -0.6514 -0.7588
vn 0.0015 -0.6528 -0.7575
vn 0.0038 -0.9829 -0.1842
vn 0.0066 -0.9834 -0.1813
vn -0.0001 -0.9825 -0.1863
vn -0.0228 0.8716 0.4896
vn -0.0048 0.6514 0.7587
vn 0.3004 0.5712 0.7638
vn 0.3952 0.6791 0.6185
vn -0.0061 0.9840 0.1781
vn -0.0218 0.8682 0.4957
vn 0.3117 0.7967 0.5179
vn 0.2201 0.9442 0.2448
vn -0.0338 0.8681 0.4952
vn 0.3160 0.7783 0.5426
vn -0.0364 0.8667 0.4975
vn 0.3498 0.7426 0.5711
vn 0.0197 0.8652 0.5010
vn 0.0167 0.8663 0.4993
vn 0.0079 0.8682 0.4961
vn 0.0080 0.8654 0.5011
vn -0.0013 0.8694 0.4942
vn -0.0065 0.8649 0.5018
vn 0.0187 0.8659 0.5000
vn 0.0075 0.8660 0.5000
vn -0.0091 0.8662 0.4996
vn 0.0141 0.8641 0.5031
vn 0.0059 0.8633 0.5047
vn -0.0056 0.8642 0.5031
vn 0.0047 0.9837 0.1798
vn 0.0022 0.9833 0.1817
vn -0.0012 0.9834 0.1817
vn 0.0066 0.6466 0.7628
vn 0.0037 0.6488 0.7609
vn -0.0001 0.6504 0.7596
vn 0.5421 0.8311 -0.1242
vn 0.7837 0.4669 0.4097
vn 0.0007 0.9027 -0.4302
vn -0.0004 0.9023 -0.4310
vn -0.0002 0.9021 -0.4316
vn 0.7991 0.3902 0.4573
vn 0.7995 0.1507 0.5815
vn 0.3945 0.0611 0.9168
vn 0.0002 0.9021 -0.4316
vn 0.8198 0.2973 0.4894
vn -0.0005 0.0797 0.9968
vn -0.2557 0.7072 0.6591
vn -0.6086 0.3456 0.7142
vn -0.3081 0.8446 0.4378
vn -0.7986 0.5814 0.1555
vn 0.0001 0.0782 0.9969
vn -0.3532 0.8156 0.4583
vn -0.8402 0.4879 0.2365
vn -0.0001 0.0784 0.9969
vn -0.3731 0.8039 0.4633
vn -0.8578 0.4457 0.2559
vn -0.0003 0.0790 0.9969
vn -0.3694 0.8053 0.4636
vn -0.8516 0.4558 0.2590
vn -0.2877 0.9288 0.2335
vn -0.5668 0.8020 -0.1888
vn -0.3668 -0.8051 -0.4661
vn -0.8496 -0.4550 -0.2668
vn -0.5654 -0.2405 -0.7890
vn -0.2855 -0.6688 -0.6864
vn -0.9889 0.1295 0.0725
vn -0.6917 0.5168 -0.5045
vn -0.3705 -0.8040 -0.4651
vn -0.8559 -0.4473 -0.2597
vn -0.9894 0.1258 0.0719
vn -0.0001 -0.9043 0.4270
vn -0.0003 -0.9045 0.4265
vn -0.0001 -0.3531 0.9356
vn -0.0002 -0.3530 0.9356
vn -0.3506 -0.8056 -0.4775
vn -0.8381 -0.4516 -0.3058
vn -0.9863 0.1626 0.0284
vn 0.0001 -0.9042 0.4272
vn -0.0000 -0.3531 0.9356
vn -0.3057 -0.8024 -0.5126
vn -0.7964 -0.4284 -0.4269
vn -0.9649 0.2449 -0.0948
vn 0.3939 -0.8263 0.4025
vn 0.4464 -0.3125 0.8385
vn -0.2534 -0.9244 -0.2850
vn -0.6070 -0.7928 0.0555
vn -0.7809 -0.0938 0.6176
vn 0.8302 -0.5572 -0.0155
vn 0.8012 -0.5777 0.1560
vn 0.9378 -0.0365 0.3453
vn 0.8732 -0.1350 0.4683
vn 0.0002 -0.0812 -0.9967
vn 0.0007 -0.0827 -0.9966
vn 0.0001 0.6333 -0.7739
vn 0.0004 0.6337 -0.7736
vn -0.0005 -0.9048 0.4259
vn -0.0002 -0.3528 0.9357
vn 0.8159 -0.5712 -0.0899
vn 0.9546 0.0214 0.2971
vn -0.0002 -0.0812 -0.9967
vn -0.0001 0.6333 -0.7739
vn 0.7930 -0.5831 -0.1764
vn 0.9693 0.0843 0.2309
vn -0.0004 -0.0818 -0.9966
vn -0.0002 0.6335 -0.7738
vn 0.5467 -0.3125 -0.7768
vn 0.7266 0.5221 -0.4466
vn -0.0002 -0.6347 0.7728
vn -0.0002 -0.6348 0.7727
vn -0.6915 0.1774 -0.7002
vn -0.0002 0.3523 -0.9359
vn 0.7279 0.1229 -0.6745
vn 0.9694 -0.2403 0.0503
vn 0.0004 0.3521 -0.9360
vn -0.0001 0.3525 -0.9358
vn 0.9561 -0.2590 0.1368
vn 0.8738 -0.3383 0.3494
vn 0.4462 -0.5708 0.6893
vn 0.0001 0.3525 -0.9358
vn 0.9395 -0.2761 0.2027
vn -0.7807 -0.4889 0.3893
vn -0.9647 -0.0413 -0.2600
vn -0.0000 -0.6345 0.7729
vn -0.9861 -0.1068 -0.1272
vn -0.0001 -0.6346 0.7729
vn -0.9893 -0.1260 -0.0735
vn -0.9888 -0.1284 -0.0764
vt 0.778854 0.129449
vt 0.716867 0.127384
vt 0.779865 0.011859
vt 0.834625 0.008296
vt 0.725006 0.573649
vt 0.645332 0.578625
vt 0.646571 0.469128
vt 0.729660 0.457268
vt 0.663708 0.358661
vt 0.738530 0.350492
vt 0.685131 0.243120
vt 0.746792 0.240349
vt 0.903594 0.228112
vt 0.861603 0.231861
vt 0.875710 0.123184
vt 0.909550 0.117977
vt 0.794526 0.236345
vt 0.821818 0.126670
vt 0.910545 0.337476
vt 0.868295 0.339193
vt 0.797261 0.344694
vt 0.917219 0.446795
vt 0.875237 0.446509
vt 0.799860 0.451572
vt 0.925025 0.560733
vt 0.885064 0.563371
vt 0.804992 0.568562
vt 0.912856 0.003285
vt 0.938921 0.001643
vt 0.866519 0.006241
vt 0.348405 0.156670
vt 0.294676 0.034613
vt 0.349366 0.039086
vt 0.410421 0.155640
vt 0.394859 0.601697
vt 0.392137 0.485261
vt 0.475074 0.498517
vt 0.474434 0.607997
vt 0.385045 0.378350
vt 0.459844 0.387783
vt 0.378625 0.268086
vt 0.440269 0.271880
vt 0.222049 0.253245
vt 0.217929 0.143028
vt 0.251667 0.148794
vt 0.263961 0.257691
vt 0.305494 0.153176
vt 0.330954 0.263291
vt 0.213281 0.362476
vt 0.255484 0.364897
vt 0.326417 0.371578
vt 0.204789 0.471668
vt 0.246759 0.472082
vt 0.322041 0.478398
vt 0.195096 0.585455
vt 0.235005 0.588758
vt 0.314974 0.595279
vt 0.190513 0.026225
vt 0.216545 0.028301
vt 0.262823 0.032028
vt 0.035580 0.644860
vt -0.000000 0.615003
vt 0.005955 0.510050
vt 0.041462 0.530789
vt 0.409531 0.624557
vt 0.501216 0.631967
vt 0.180003 0.605877
vt 0.225893 0.609629
vt 0.007301 0.399489
vt 0.042262 0.410804
vt 0.042959 0.153266
vt 0.009997 0.162753
vt 0.000000 0.033851
vt 0.030587 0.012169
vt 0.317727 0.617109
vt 0.010197 0.282707
vt 0.044840 0.284506
vt 0.164756 0.002482
vt 0.164481 0.024150
vt 0.134113 0.000000
vt 0.184192 0.137261
vt 0.160222 0.122478
vt 0.348418 0.017412
vt 0.285949 0.012320
vt 0.180137 0.248798
vt 0.162574 0.243129
vt 0.249229 0.009333
vt 0.597664 0.257012
vt 0.617497 0.263204
vt 0.617894 0.374572
vt 0.598090 0.376833
vt 0.195399 0.004963
vt 0.617941 0.485866
vt 0.598405 0.496635
vt 0.617724 0.596850
vt 0.598606 0.616350
vt 0.501660 0.482428
vt 0.537410 0.494831
vt 0.537612 0.614548
vt 0.501442 0.593414
vt 0.585658 0.499555
vt 0.585980 0.621801
vt 0.501613 0.371131
vt 0.537095 0.375028
vt 0.585279 0.377264
vt 0.715594 0.688962
vt 0.752845 0.704231
vt 0.752820 0.758241
vt 0.715558 0.735393
vt 0.800852 0.707820
vt 0.812961 0.704254
vt 0.812937 0.758262
vt 0.800829 0.764053
vt 0.501216 0.259760
vt 0.536669 0.255205
vt 0.584844 0.254965
vt 0.715609 0.657002
vt 0.752859 0.667388
vt 0.800866 0.669498
vt 0.812976 0.667413
vt 0.503022 0.148203
vt 0.541575 0.134661
vt 0.590703 0.131789
vt 0.602569 0.136468
vt 0.715619 0.602125
vt 0.752878 0.604710
vt 0.800887 0.604363
vt 0.812995 0.604736
vt 0.515294 0.035518
vt 0.556948 0.012735
vt 0.606367 0.007272
vt 0.617941 0.014544
vt 0.134113 0.280159
vt 0.109841 0.283171
vt 0.107965 0.151933
vt 0.133926 0.160211
vt 0.062698 0.284989
vt 0.060334 0.150460
vt 0.715333 0.808576
vt 0.678115 0.803928
vt 0.678153 0.711820
vt 0.715395 0.728428
vt 0.630104 0.802486
vt 0.617975 0.803909
vt 0.618012 0.711803
vt 0.630136 0.706699
vt 0.715529 0.761510
vt 0.752803 0.788985
vt 0.752786 0.819729
vt 0.715500 0.787627
vt 0.800815 0.796109
vt 0.812920 0.789005
vt 0.812903 0.819748
vt 0.800800 0.828166
vt 0.131198 0.396897
vt 0.107255 0.409451
vt 0.060231 0.414096
vt 0.715317 0.888817
vt 0.678092 0.896071
vt 0.630078 0.898290
vt 0.617951 0.896048
vt 0.095593 0.010834
vt 0.123925 0.031303
vt 0.047476 0.006085
vt 0.129870 0.507481
vt 0.106462 0.529444
vt 0.059593 0.536836
vt 0.715330 0.928865
vt 0.678087 0.942116
vt 0.630069 0.946179
vt 0.617946 0.942092
vt 0.678203 0.619832
vt 0.715500 0.648599
vt 0.618063 0.619818
vt 0.630175 0.610972
vt 0.617941 0.602125
vt 0.621340 0.483772
vt 0.053745 0.653565
vt 0.630060 0.994067
vt 0.617941 0.988135
vt 0.715344 0.968914
vt 0.678082 0.988160
vt 0.134113 0.602125
vt 0.155187 0.582153
vt 0.162819 0.471254
vt 0.171077 0.360055
vt 0.943390 0.112771
vt 0.964986 0.000000
vt 0.964986 0.558095
vt 0.959202 0.447082
vt 0.952795 0.335758
vt 0.945586 0.224363
vt 0.770771 0.764043
vt 0.770756 0.796099
vt 0.660130 0.994080
vt 0.660139 0.946191
vt 0.100587 0.643533
vt 0.086248 0.652901
vt 0.092093 0.536163
vt 0.660206 0.706707
vt 0.660245 0.610979
vt 0.660149 0.898301
vt 0.092728 0.413420
vt 0.092837 0.149794
vt 0.079979 0.005417
vt 0.660174 0.802495
vt 0.095198 0.284321
vt 0.770742 0.828156
vt 0.575871 0.006368
vt 0.560206 0.130885
vt 0.770829 0.604350
vt 0.770808 0.669486
vt 0.554347 0.254062
vt 0.770793 0.707808
vt 0.554782 0.376362
vt 0.555161 0.498653
vt 0.555483 0.620900
s 1
f 180/218/153 164/219/154 156/220/155 168/221/156
f 167/222/157 154/223/158 161/224/159 171/225/160
f 171/225/160 161/224/159 162/226/161 174/227/162
f 174/227/162 162/226/161 163/228/163 177/229/164
f 177/229/164 163/228/163 164/219/154 180/218/153
f 252/230/165 179/231/166 182/232/167 253/233/168
f 179/231/166 178/234/169 181/235/170 182/232/167
f 178/234/169 177/229/164 180/218/153 181/235/170
f 251/236/171 176/237/172 179/231/166 252/230/165
f 176/237/172 175/238/173 178/234/169 179/231/166
f 175/238/173 174/227/162 177/229/164 178/234/169
f 250/239/174 173/240/175 176/237/172 251/236/171
f 173/240/175 172/241/176 175/238/173 176/237/172
f 172/241/176 171/225/160 174/227/162 175/238/173
f 254/242/177 165/243/178 173/240/175 250/239/174
f 165/243/178 166/244/179 172/241/176 173/240/175
f 166/244/179 167/222/157 171/225/160 172/241/176
f 253/233/168 182/232/167 170/245/180 249/246/181
f 182/232/167 181/235/170 169/247/182 170/245/180
f 181/235/170 180/218/153 168/221/156 169/247/182
f 210/248/183 198/249/184 186/250/185 194/251/186
f 197/252/187 201/253/188 191/254/189 184/255/190
f 201/253/188 204/256/191 192/257/192 191/254/189
f 204/256/191 207/258/193 193/259/194 192/257/192
f 207/258/193 210/248/183 194/251/186 193/259/194
f 258/260/195 259/261/196 212/262/197 209/263/198
f 209/263/198 212/262/197 211/264/199 208/265/200
f 208/265/200 211/264/199 210/248/183 207/258/193
f 257/266/201 258/260/195 209/263/198 206/267/202
f 206/267/202 209/263/198 208/265/200 205/268/203
f 205/268/203 208/265/200 207/258/193 204/256/191
f 256/269/204 257/266/201 206/267/202 203/270/205
f 203/270/205 206/267/202 205/268/203 202/271/206
f 202/271/206 205/268/203 204/256/191 201/253/188
f 260/272/207 256/269/204 203/270/205 195/273/208
f 195/273/208 203/270/205 202/271/206 196/274/209
f 196/274/209 202/271/206 201/253/188 197/252/187
f 259/261/196 255/275/210 200/276/211 212/262/197
f 212/262/197 200/276/211 199/277/212 211/264/199
f 211/264/199 199/277/212 198/249/184 210/248/183
f 215/278/213 184/279/190 191/280/189 214/281/214
f 217/282/215 197/252/187 184/255/190 215/283/213
f 264/284/216 260/272/207 195/273/208 220/285/217
f 214/281/214 191/280/189 192/286/192 224/287/218
f 227/288/219 194/289/186 186/290/185 226/291/220
f 220/285/217 195/273/208 196/274/209 230/292/221
f 224/287/218 192/286/192 193/293/194 232/294/222
f 262/295/223 255/275/210 185/296/224 234/297/225
f 230/292/221 196/274/209 197/252/187 217/282/215
f 232/294/222 193/293/194 194/289/186 227/288/219
f 234/297/225 185/296/224 187/298/226 238/299/227
f 226/300/220 186/250/185 198/249/184 240/301/228
f 238/299/227 187/298/226 188/302/229 242/303/230
f 240/301/228 198/249/184 199/277/212 244/304/231
f 242/305/230 188/306/229 189/307/232 246/308/233
f 244/304/231 199/277/212 200/276/211 235/309/234
f 246/308/233 189/307/232 190/310/235 248/311/236
f 248/311/236 190/310/235 183/312/237 221/313/238
f 160/314/239 247/315/240 222/316/241 153/317/242
f 282/318/243 248/311/236 221/313/238 269/319/244
f 159/320/245 245/321/246 247/315/240 160/314/239
f 281/322/247 246/308/233 248/311/236 282/318/243
f 169/323/182 243/324/248 236/325/249 170/326/180
f 280/327/250 244/328/231 235/329/234 276/330/251
f 158/331/252 241/332/253 245/321/246 159/320/245
f 279/333/254 242/305/230 246/308/233 281/322/247
f 168/334/156 239/335/255 243/324/248 169/323/182
f 278/336/256 240/337/228 244/328/231 280/327/250
f 157/338/257 237/339/258 241/332/253 158/331/252
f 277/340/259 238/341/227 242/305/230 279/333/254
f 156/342/155 225/343/260 239/335/255 168/334/156
f 271/344/261 226/345/220 240/337/228 278/336/256
f 155/346/262 233/347/263 237/339/258 157/338/257
f 275/348/264 234/349/225 238/341/227 277/340/259
f 163/350/163 231/351/265 228/352/266 164/353/154
f 274/354/267 232/294/222 227/288/219 272/355/268
f 166/356/179 229/357/269 218/358/270 167/359/157
f 273/360/271 230/361/221 217/362/215 267/363/272
f 249/364/181 261/365/273 233/366/263 155/367/262
f 284/368/274 262/369/223 234/370/225 275/371/264
f 162/372/161 223/373/275 231/351/265 163/350/163
f 270/374/276 224/287/218 232/294/222 274/354/267
f 165/375/178 219/376/277 229/357/269 166/356/179
f 268/377/278 220/378/217 230/361/221 273/360/271
f 164/353/154 228/352/266 225/379/260 156/380/155
f 272/355/268 227/288/219 226/291/220 271/381/261
f 161/382/159 213/383/279 223/373/275 162/372/161
f 265/384/280 214/281/214 224/287/218 270/374/276
f 254/385/177 263/386/281 219/376/277 165/375/178
f 283/387/282 264/388/216 220/378/217 268/377/278
f 167/359/157 218/358/270 216/389/283 154/390/158
f 267/363/272 217/362/215 215/391/213 266/392/284
f 154/223/158 216/393/283 213/394/279 161/224/159
f 266/395/284 215/278/213 214/281/214 265/384/280
f 269/396/244 221/397/238 264/388/216 283/387/282
f 153/398/242 222/399/241 263/386/281 254/385/177
f 276/330/251 235/329/234 262/369/223 284/368/274
f 170/326/180 236/325/249 261/365/273 249/364/181
f 235/309/234 200/276/211 255/275/210 262/295/223
f 221/400/238 183/401/237 260/272/207 264/284/216
f 187/298/226 185/296/224 255/275/210 259/261/196
f 183/401/237 190/402/235 256/269/204 260/272/207
f 190/402/235 189/403/232 257/266/201 256/269/204
f 189/403/232 188/302/229 258/260/195 257/266/201
f 188/302/229 187/298/226 259/261/196 258/260/195
f 157/404/257 253/233/168 249/246/181 155/405/262
f 153/406/242 254/242/177 250/239/174 160/407/239
f 160/407/239 250/239/174 251/236/171 159/408/245
f 159/408/245 251/236/171 252/230/165 158/409/252
f 158/409/252 252/230/165 253/233/168 157/404/257
f 236/325/249 296/410/285 304/411/286 261/365/273
f 222/399/241 289/412/287 303/413/288 263/386/281
f 216/414/283 286/415/289 285/416/290 213/383/279
f 218/358/270 287/417/291 286/418/289 216/389/283
f 263/386/281 303/413/288 288/419/292 219/376/277
f 213/383/279 285/416/290 290/420/293 223/373/275
f 228/352/266 292/421/294 291/422/295 225/379/260
f 219/376/277 288/419/292 293/423/296 229/357/269
f 223/373/275 290/420/293 294/424/297 231/351/265
f 261/365/273 304/411/286 295/425/298 233/366/263
f 229/357/269 293/423/296 287/417/291 218/358/270
f 231/351/265 294/424/297 292/421/294 228/352/266
f 233/347/263 295/426/298 297/427/299 237/339/258
f 225/343/260 291/428/295 298/429/300 239/335/255
f 237/339/258 297/427/299 299/430/301 241/332/253
f 239/335/255 298/429/300 300/431/302 243/324/248
f 241/332/253 299/430/301 301/432/303 245/321/246
f 243/324/248 300/431/302 296/410/285 236/325/249
f 245/321/246 301/432/303 302/433/304 247/315/240
f 247/315/240 302/433/304 289/434/287 222/316/241
f 276/330/251 296/410/285 300/431/302 280/327/250
f 284/368/274 304/411/286 296/410/285 276/330/251
f 265/384/280 285/416/290 286/415/289 266/395/284
f 300/431/302 298/429/300 278/336/256 280/327/250
f 298/429/300 291/428/295 271/344/261 278/336/256
f 291/422/295 292/421/294 272/355/268 271/381/261
f 292/421/294 294/424/297 274/354/267 272/355/268
f 294/424/297 290/420/293 270/374/276 274/354/267
f 290/420/293 285/416/290 265/384/280 270/374/276
f 269/319/244 289/434/287 302/433/304 282/318/243
f 266/392/284 286/415/289 287/417/291 267/363/272
f 267/363/272 287/417/291 293/423/296 273/360/271
f 273/360/271 293/423/296 288/419/292 268/377/278
f 268/377/278 288/419/292 303/413/288 283/387/282
f 283/387/282 303/413/288 289/412/287 269/396/244
f 275/371/264 295/425/298 304/411/286 284/368/274
f 302/433/304 301/432/303 281/322/247 282/318/243
f 301/432/303 299/430/301 279/333/254 281/322/247
f 299/430/301 297/427/299 277/340/259 279/333/254
f 297/427/299 295/426/298 275/371/264 277/340/259
o Bomber_Tailwing_Left
v -4.349704 0.892591 -0.336197
v -3.530715 0.892404 -0.336520
v -4.441816 0.180604 -1.569394
v -3.967521 0.180456 -1.569650
v -4.368100 0.322689 -1.323295
v -4.355285 0.465233 -1.076402
v -4.355294 0.607940 -0.829226
v -4.353267 0.750489 -0.582324
v -3.551959 0.750467 -0.576940
v -3.613926 0.608121 -0.816952
v -3.687647 0.465330 -1.070834
v -3.787715 0.322639 -1.323383
v -4.135969 0.892727 -0.335960
v -3.856638 0.892741 -0.335936
v -3.657570 0.892631 -0.336127
v -4.030574 0.180429 -1.569696
v -4.106434 0.180440 -1.569677
v -4.299321 0.180493 -1.569587
v -3.688672 0.739211 -0.589550
v -3.862867 0.739170 -0.592930
v -4.130196 0.739164 -0.593477
v -3.728934 0.601786 -0.823103
v -3.873879 0.601715 -0.828949
v -4.130196 0.601683 -0.831600
v -3.768186 0.464237 -1.066616
v -3.884779 0.464208 -1.069298
v -4.130836 0.464203 -1.069724
v -3.868291 0.326722 -1.307847
v -3.972516 0.326722 -1.307847
v -4.184767 0.326722 -1.307847
v -4.349681 0.605953 -0.170726
v -3.530747 0.605767 -0.171049
v -4.441761 -0.106017 -1.403895
v -3.967500 -0.106164 -1.404149
v -4.368064 0.036065 -1.157801
v -4.355257 0.178606 -0.910913
v -4.355265 0.321309 -0.663744
v -4.353240 0.463854 -0.416848
v -3.551840 0.463855 -0.411424
v -3.613639 0.321509 -0.651437
v -3.687555 0.178695 -0.905359
v -3.787725 0.036015 -1.157888
v -4.135961 0.606090 -0.170489
v -3.856643 0.606103 -0.170466
v -3.657589 0.605994 -0.170656
v -4.030544 -0.106191 -1.404196
v -4.106398 -0.106180 -1.404177
v -4.299276 -0.106128 -1.404086
v -3.688672 0.459883 -0.428280
v -3.862867 0.459842 -0.431660
v -4.130196 0.459836 -0.432207
v -3.728934 0.322458 -0.661833
v -3.873879 0.322387 -0.667679
v -4.130196 0.322355 -0.670330
v -3.768162 0.184906 -0.905352
v -3.884779 0.184880 -0.908028
v -4.130836 0.184875 -0.908454
v -3.868282 0.047394 -1.146577
v -3.972505 0.047394 -1.146577
v -4.184757 0.047394 -1.146577
v -3.485401 0.726857 -0.525015
v -3.485346 0.518952 -0.404963
v -3.457205 0.673056 -0.145914
v -3.457187 0.880972 -0.265946
v -3.615140 0.673126 -0.145793
v -3.615129 0.881042 -0.265825
v -4.154540 0.881071 -0.265774
v -4.154535 0.673155 -0.145743
v -4.398926 0.673114 -0.145814
v -4.398939 0.881030 -0.265846
v -3.558371 0.572452 -0.782966
v -3.558251 0.364547 -0.662915
v -3.974097 0.113752 -1.594810
v -3.974094 -0.094157 -1.474765
v -3.765467 0.059227 -1.209098
v -3.765461 0.267137 -1.329140
v -3.844779 0.881075 -0.265767
v -3.844781 0.673159 -0.145736
v -3.642497 0.419868 -1.056768
v -3.642459 0.211953 -0.936734
v -4.523864 0.113796 -1.594733
v -4.523843 -0.094112 -1.474688
v -4.357691 -0.094146 -1.474746
v -4.357706 0.113763 -1.594791
v -4.431914 0.267151 -1.329115
v -4.431898 0.059241 -1.209073
v -4.057100 0.113744 -1.594824
v -4.057093 -0.094165 -1.474779
v -4.400886 0.420642 -1.063261
v -4.400874 0.212730 -0.943222
v -4.145443 0.113747 -1.594818
v -4.145433 -0.094162 -1.474774
v -4.400888 0.574178 -0.797329
v -4.400877 0.366265 -0.677292
v -4.400243 0.727670 -0.531473
v -4.400231 0.519755 -0.411439
v -4.375040 0.180548 -1.569490
v -4.246202 0.744826 -0.587901
v -4.247216 0.604812 -0.830413
v -4.247532 0.464718 -1.073063
v -4.280905 0.324705 -1.315571
v -4.247308 0.892659 -0.336078
v -4.374990 -0.106073 -1.403991
v -4.246189 0.461845 -0.424528
v -4.247201 0.321832 -0.667037
v -4.247518 0.181740 -0.909683
v -4.280882 0.041730 -1.152189
v -4.247293 0.606021 -0.170608
v -4.445256 0.113779 -1.594762
v -4.445239 -0.094129 -1.474717
v -4.281210 0.881050 -0.265810
v -4.281202 0.673134 -0.145779
v -3.464873 0.564321 -0.419979
v -3.434574 0.722414 -0.155783
v -3.602075 0.722449 -0.155723
v -4.160253 0.722463 -0.155697
v -4.414082 0.722443 -0.155733
v -3.541065 0.405851 -0.682846
v -3.973158 -0.060909 -1.512537
v -3.758035 0.095726 -1.241238
v -3.841130 0.722465 -0.155694
v -3.628438 0.250940 -0.962812
v -4.545382 -0.060887 -1.512499
v -4.372516 -0.060903 -1.512528
v -4.451685 0.095733 -1.241225
v -4.062443 -0.060913 -1.512544
v -4.415055 0.252421 -0.969834
v -4.154568 -0.060911 -1.512541
v -4.415057 0.409132 -0.698404
v -4.414734 0.565820 -0.427011
v -4.291638 0.722453 -0.155715
v -4.463420 -0.060895 -1.512513
v -3.464901 0.689968 -0.492531
v -3.434565 0.848067 -0.228325
v -3.602070 0.848102 -0.228264
v -4.160255 0.848117 -0.228239
v -4.414088 0.848096 -0.228275
v -3.541124 0.531499 -0.755397
v -3.973159 0.064741 -1.585085
v -3.758032 0.221376 -1.313785
v -3.841128 0.848119 -0.228236
v -3.628458 0.376592 -1.035355
v -4.545393 0.064763 -1.585047
v -4.372524 0.064746 -1.585076
v -4.451693 0.221384 -1.313772
v -4.062447 0.064737 -1.585092
v -4.415061 0.378072 -1.042380
v -4.154573 0.064738 -1.585089
v -4.415063 0.534784 -0.770948
v -4.414740 0.691473 -0.499554
v -4.291643 0.848106 -0.228257
v -4.463429 0.064755 -1.585061
vn -0.0158 0.8732 -0.4872
vn 0.4021 0.6817 -0.6113
vn 0.2991 0.5738 -0.7624
vn -0.0048 0.6535 -0.7569
vn -0.0019 0.9824 -0.1870
vn 0.2281 0.9392 -0.2567
vn 0.3328 0.7770 -0.5344
vn -0.0048 0.8603 -0.5097
vn 0.3472 0.7647 -0.5428
vn -0.0054 0.8672 -0.4979
vn 0.3731 0.7427 -0.5560
vn -0.0139 0.8719 -0.4894
vn 0.0198 0.8652 -0.5010
vn 0.0098 0.8659 -0.5001
vn 0.0081 0.8683 -0.4960
vn 0.0169 0.8663 -0.4993
vn 0.0065 0.8671 -0.4981
vn 0.0013 0.8697 -0.4936
vn 0.0189 0.8658 -0.4999
vn 0.0106 0.8660 -0.5000
vn 0.0091 0.8658 -0.5003
vn 0.0142 0.8641 -0.5031
vn 0.0077 0.8626 -0.5058
vn 0.0057 0.8607 -0.5091
vn 0.0048 0.9832 -0.1825
vn 0.0024 0.9828 -0.1847
vn 0.0015 0.9824 -0.1866
vn 0.0038 0.6509 -0.7591
vn 0.0066 0.6487 -0.7610
vn -0.0001 0.6526 -0.7577
vn -0.0228 -0.8598 0.5101
vn -0.0048 -0.9828 0.1848
vn 0.3004 -0.9471 0.1128
vn 0.3952 -0.8752 0.2789
vn -0.0061 -0.6462 0.7631
vn -0.0218 -0.8634 0.5041
vn 0.3117 -0.8468 0.4310
vn 0.2201 -0.6842 0.6953
vn -0.0338 -0.8629 0.5042
vn 0.3160 -0.8590 0.4027
vn -0.0364 -0.8642 0.5018
vn 0.3498 -0.8659 0.3576
vn 0.0197 -0.8665 0.4988
vn 0.0167 -0.8655 0.5006
vn 0.0079 -0.8637 0.5039
vn 0.0080 -0.8666 0.4989
vn -0.0013 -0.8627 0.5058
vn -0.0065 -0.8671 0.4981
vn 0.0187 -0.8659 0.4999
vn 0.0075 -0.8660 0.5000
vn -0.0091 -0.8658 0.5003
vn 0.0141 -0.8678 0.4968
vn 0.0059 -0.8687 0.4953
vn -0.0056 -0.8678 0.4969
vn 0.0047 -0.6475 0.7620
vn 0.0022 -0.6491 0.7607
vn -0.0012 -0.6490 0.7608
vn 0.0066 -0.9839 0.1785
vn 0.0037 -0.9834 0.1814
vn -0.0001 -0.9830 0.1835
vn 0.5421 -0.3080 0.7818
vn 0.7837 -0.5882 0.1995
vn 0.0007 -0.0787 0.9969
vn -0.0004 -0.0779 0.9970
vn -0.0002 -0.0773 0.9970
vn 0.7991 -0.5911 0.1093
vn 0.7995 -0.5789 -0.1602
vn 0.3945 -0.8246 -0.4055
vn 0.0002 -0.0773 0.9970
vn 0.8198 -0.5725 0.0128
vn -0.0005 -0.9031 -0.4294
vn -0.2557 -0.9244 0.2829
vn -0.6086 -0.7913 -0.0578
vn -0.3081 -0.8015 0.5125
vn -0.7986 -0.4254 0.4257
vn 0.0001 -0.9025 -0.4307
vn -0.3532 -0.8047 0.4771
vn -0.8402 -0.4488 0.3043
vn -0.0001 -0.9026 -0.4305
vn -0.3731 -0.8031 0.4645
vn -0.8578 -0.4445 0.2581
vn -0.0003 -0.9028 -0.4300
vn -0.3694 -0.8042 0.4656
vn -0.8516 -0.4522 0.2652
vn -0.2877 -0.6666 0.6877
vn -0.5668 -0.2375 0.7889
vn -0.3668 0.8062 -0.4642
vn -0.8496 0.4586 -0.2607
vn -0.5654 0.8035 0.1862
vn -0.2855 0.9289 -0.2360
vn -0.9889 -0.1276 0.0759
vn -0.6917 0.1785 0.6998
vn -0.3705 0.8048 -0.4638
vn -0.8559 0.4485 -0.2575
vn -0.9894 -0.1252 0.0730
vn -0.0001 0.0823 -0.9966
vn -0.0003 0.0829 -0.9966
vn -0.0001 -0.6337 -0.7736
vn -0.0002 -0.6338 -0.7735
vn -0.3506 0.8164 -0.4589
vn -0.8381 0.4907 -0.2382
vn -0.9863 -0.1059 0.1267
vn 0.0001 0.0821 -0.9966
vn -0.0000 -0.6337 -0.7736
vn -0.3057 0.8451 -0.4386
vn -0.7964 0.5839 -0.1575
vn -0.9649 -0.0403 0.2595
vn 0.3939 0.0645 -0.9169
vn 0.4464 -0.5699 -0.6899
vn -0.2534 0.7090 -0.6580
vn -0.6070 0.3483 -0.7143
vn -0.7809 -0.4879 -0.3901
vn 0.8302 0.2920 -0.4748
vn 0.8012 0.1538 -0.5783
vn 0.9378 -0.2808 -0.2043
vn 0.8732 -0.3381 -0.3511
vn 0.0002 0.9038 0.4280
vn 0.0007 0.9044 0.4267
vn 0.0001 0.3535 0.9354
vn 0.0004 0.3531 0.9356
vn -0.0005 0.0836 -0.9965
vn -0.0002 -0.6339 -0.7734
vn 0.8159 0.3634 -0.4498
vn 0.9546 -0.2680 -0.1300
vn -0.0002 0.9037 0.4281
vn -0.0001 0.3535 0.9354
vn 0.7930 0.4443 -0.4168
vn 0.9693 -0.2421 -0.0424
vn -0.0004 0.9040 0.4275
vn -0.0002 0.3534 0.9355
vn 0.5467 0.8290 0.1177
vn 0.7266 0.1257 0.6755
vn -0.0002 -0.3519 -0.9360
vn -0.0002 -0.3517 -0.9361
vn -0.6915 0.5177 0.5038
vn -0.0002 0.6344 0.7730
vn 0.7279 0.5227 0.4437
vn 0.9694 0.0766 -0.2333
vn 0.0004 0.6345 0.7729
vn -0.0001 0.6342 0.7732
vn 0.9561 0.0110 -0.2927
vn 0.8738 -0.1334 -0.4676
vn 0.4462 -0.3116 -0.8389
vn 0.0001 0.6342 0.7732
vn 0.9395 -0.0375 -0.3404
vn -0.7807 -0.0927 -0.6180
vn -0.9647 0.2458 0.0943
vn -0.0000 -0.3521 -0.9360
vn -0.9861 0.1635 -0.0289
vn -0.0001 -0.3520 -0.9360
vn -0.9893 0.1267 -0.0724
vn -0.9888 0.1304 -0.0730
vt 0.778854 0.129449
vt 0.716867 0.127384
vt 0.779865 0.011859
vt 0.834625 0.008296
vt 0.725006 0.573649
vt 0.645332 0.578625
vt 0.646571 0.469128
vt 0.729660 0.457268
vt 0.663708 0.358661
vt 0.738530 0.350492
vt 0.685131 0.243120
vt 0.746792 0.240349
vt 0.903594 0.228112
vt 0.861603 0.231861
vt 0.875710 0.123184
vt 0.909550 0.117977
vt 0.794526 0.236345
vt 0.821818 0.126670
vt 0.910545 0.337476
vt 0.868295 0.339193
vt 0.797261 0.344694
vt 0.917219 0.446795
vt 0.875237 0.446509
vt 0.799860 0.451572
vt 0.925025 0.560733
vt 0.885064 0.563371
vt 0.804992 0.568562
vt 0.912856 0.003285
vt 0.938921 0.001643
vt 0.866519 0.006241
vt 0.348405 0.156670
vt 0.294676 0.034613
vt 0.349366 0.039086
vt 0.410421 0.155640
vt 0.394859 0.601697
vt 0.392137 0.485261
vt 0.475074 0.498517
vt 0.474434 0.607997
vt 0.385045 0.378350
vt 0.459844 0.387783
vt 0.378625 0.268086
vt 0.440269 0.271880
vt 0.222049 0.253245
vt 0.217929 0.143028
vt 0.251667 0.148794
vt 0.263961 0.257691
vt 0.305494 0.153176
vt 0.330954 0.263291
vt 0.213281 0.362476
vt 0.255484 0.364897
vt 0.326417 0.371578
vt 0.204789 0.471668
vt 0.246759 0.472082
vt 0.322041 0.478398
vt 0.195096 0.585455
vt 0.235005 0.588758
vt 0.314974 0.595279
vt 0.190513 0.026225
vt 0.216545 0.028301
vt 0.262823 0.032028
vt 0.035580 0.644860
vt -0.000000 0.615003
vt 0.005955 0.510050
vt 0.041462 0.530789
vt 0.409531 0.624557
vt 0.501216 0.631967
vt 0.180003 0.605877
vt 0.225893 0.609629
vt 0.007301 0.399489
vt 0.042262 0.410804
vt 0.042959 0.153266
vt 0.009997 0.162753
vt 0.000000 0.033851
vt 0.030587 0.012169
vt 0.317727 0.617109
vt 0.010197 0.282707
vt 0.044840 0.284506
vt 0.164756 0.002482
vt 0.164481 0.024150
vt 0.134113 0.000000
vt 0.184192 0.137261
vt 0.160222 0.122478
vt 0.348418 0.017412
vt 0.285949 0.012320
vt 0.180137 0.248798
vt 0.162574 0.243129
vt 0.249229 0.009333
vt 0.597664 0.257012
vt 0.617497 0.263204
vt 0.617894 0.374572
vt 0.598090 0.376833
vt 0.195399 0.004963
vt 0.617941 0.485866
vt 0.598405 0.496635
vt 0.617724 0.596850
vt 0.598606 0.616350
vt 0.501660 0.482428
vt 0.537410 0.494831
vt 0.537612 0.614548
vt 0.501442 0.593414
vt 0.585658 0.499555
vt 0.585980 0.621801
vt 0.501613 0.371131
vt 0.537095 0.375028
vt 0.585279 0.377264
vt 0.715594 0.688962
vt 0.752845 0.704231
vt 0.752820 0.758241
vt 0.715558 0.735393
vt 0.800852 0.707820
vt 0.812961 0.704254
vt 0.812937 0.758262
vt 0.800829 0.764053
vt 0.501216 0.259760
vt 0.536669 0.255205
vt 0.584844 0.254965
vt 0.715609 0.657002
vt 0.752859 0.667388
vt 0.800866 0.669498
vt 0.812976 0.667413
vt 0.503022 0.148203
vt 0.541575 0.134661
vt 0.590703 0.131789
vt 0.602569 0.136468
vt 0.715619 0.602125
vt 0.752878 0.604710
vt 0.800887 0.604363
vt 0.812995 0.604736
vt 0.515294 0.035518
vt 0.556948 0.012735
vt 0.606367 0.007272
vt 0.617941 0.014544
vt 0.134113 0.280159
vt 0.109841 0.283171
vt 0.107965 0.151933
vt 0.133926 0.160211
vt 0.062698 0.284989
vt 0.060334 0.150460
vt 0.715333 0.808576
vt 0.678115 0.803928
vt 0.678153 0.711820
vt 0.715395 0.728428
vt 0.630104 0.802486
vt 0.617975 0.803909
vt 0.618012 0.711803
vt 0.630136 0.706699
vt 0.715529 0.761510
vt 0.752803 0.788985
vt 0.752786 0.819729
vt 0.715500 0.787627
vt 0.800815 0.796109
vt 0.812920 0.789005
vt 0.812903 0.819748
vt 0.800800 0.828166
vt 0.131198 0.396897
vt 0.107255 0.409451
vt 0.060231 0.414096
vt 0.715317 0.888817
vt 0.678092 0.896071
vt 0.630078 0.898290
vt 0.617951 0.896048
vt 0.095593 0.010834
vt 0.123925 0.031303
vt 0.047476 0.006085
vt 0.129870 0.507481
vt 0.106462 0.529444
vt 0.059593 0.536836
vt 0.715330 0.928865
vt 0.678087 0.942116
vt 0.630069 0.946179
vt 0.617946 0.942092
vt 0.678203 0.619832
vt 0.715500 0.648599
vt 0.618063 0.619818
vt 0.630175 0.610972
vt 0.617941 0.602125
vt 0.621340 0.483772
vt 0.053745 0.653565
vt 0.630060 0.994067
vt 0.617941 0.988135
vt 0.715344 0.968914
vt 0.678082 0.988160
vt 0.134113 0.602125
vt 0.155187 0.582153
vt 0.162819 0.471254
vt 0.171077 0.360055
vt 0.943390 0.112771
vt 0.964986 0.000000
vt 0.964986 0.558095
vt 0.959202 0.447082
vt 0.952795 0.335758
vt 0.945586 0.224363
vt 0.770771 0.764043
vt 0.770756 0.796099
vt 0.660130 0.994080
vt 0.660139 0.946191
vt 0.100587 0.643533
vt 0.086248 0.652901
vt 0.092093 0.536163
vt 0.660206 0.706707
vt 0.660245 0.610979
vt 0.660149 0.898301
vt 0.092728 0.413420
vt 0.092837 0.149794
vt 0.079979 0.005417
vt 0.660174 0.802495
vt 0.095198 0.284321
vt 0.770742 0.828156
vt 0.575871 0.006368
vt 0.560206 0.130885
vt 0.770829 0.604350
vt 0.770808 0.669486
vt 0.554347 0.254062
vt 0.770793 0.707808
vt 0.554782 0.376362
vt 0.555161 0.498653
vt 0.555483 0.620900
s 1
f 332/435/305 316/436/306 308/437/307 320/438/308
f 319/439/309 306/440/310 313/441/311 323/442/312
f 323/442/312 313/441/311 314/443/313 326/444/314
f 326/444/314 314/443/313 315/445/315 329/446/316
f 329/446/316 315/445/315 316/436/306 332/435/305
f 404/447/317 331/448/318 334/449/319 405/450/320
f 331/448/318 330/451/321 333/452/322 334/449/319
f 330/451/321 329/446/316 332/435/305 333/452/322
f 403/453/323 328/454/324 331/448/318 404/447/317
f 328/454/324 327/455/325 330/451/321 331/448/318
f 327/455/325 326/444/314 329/446/316 330/451/321
f 402/456/326 325/457/327 328/454/324 403/453/323
f 325/457/327 324/458/328 327/455/325 328/454/324
f 324/458/328 323/442/312 326/444/314 327/455/325
f 406/459/329 317/460/330 325/457/327 402/456/326
f 317/460/330 318/461/331 324/458/328 325/457/327
f 318/461/331 319/439/309 323/442/312 324/458/328
f 405/450/320 334/449/319 322/462/332 401/463/333
f 334/449/319 333/452/322 321/464/334 322/462/332
f 333/452/322 332/435/305 320/438/308 321/464/334
f 362/465/335 350/466/336 338/467/337 346/468/338
f 349/469/339 353/470/340 343/471/341 336/472/342
f 353/470/340 356/473/343 344/474/344 343/471/341
f 356/473/343 359/475/345 345/476/346 344/474/344
f 359/475/345 362/465/335 346/468/338 345/476/346
f 410/477/347 411/478/348 364/479/349 361/480/350
f 361/480/350 364/479/349 363/481/351 360/482/352
f 360/482/352 363/481/351 362/465/335 359/475/345
f 409/483/353 410/477/347 361/480/350 358/484/354
f 358/484/354 361/480/350 360/482/352 357/485/355
f 357/485/355 360/482/352 359/475/345 356/473/343
f 408/486/356 409/483/353 358/484/354 355/487/357
f 355/487/357 358/484/354 357/485/355 354/488/358
f 354/488/358 357/485/355 356/473/343 353/470/340
f 412/489/359 408/486/356 355/487/357 347/490/360
f 347/490/360 355/487/357 354/488/358 348/491/361
f 348/491/361 354/488/358 353/470/340 349/469/339
f 411/478/348 407/492/362 352/493/363 364/479/349
f 364/479/349 352/493/363 351/494/364 363/481/351
f 363/481/351 351/494/364 350/466/336 362/465/335
f 367/495/365 336/496/342 343/497/341 366/498/366
f 369/499/367 349/469/339 336/472/342 367/500/365
f 416/501/368 412/489/359 347/490/360 372/502/369
f 366/498/366 343/497/341 344/503/344 376/504/370
f 379/505/371 346/506/338 338/507/337 378/508/372
f 372/502/369 347/490/360 348/491/361 382/509/373
f 376/504/370 344/503/344 345/510/346 384/511/374
f 414/512/375 407/492/362 337/513/376 386/514/377
f 382/509/373 348/491/361 349/469/339 369/499/367
f 384/511/374 345/510/346 346/506/338 379/505/371
f 386/514/377 337/513/376 339/515/378 390/516/379
f 378/517/372 338/467/337 350/466/336 392/518/380
f 390/516/379 339/515/378 340/519/381 394/520/382
f 392/518/380 350/466/336 351/494/364 396/521/383
f 394/522/382 340/523/381 341/524/384 398/525/385
f 396/521/383 351/494/364 352/493/363 387/526/386
f 398/525/385 341/524/384 342/527/387 400/528/388
f 400/528/388 342/527/387 335/529/389 373/530/390
f 312/531/391 399/532/392 374/533/393 305/534/394
f 434/535/395 400/528/388 373/530/390 421/536/396
f 311/537/397 397/538/398 399/532/392 312/531/391
f 433/539/399 398/525/385 400/528/388 434/535/395
f 321/540/334 395/541/400 388/542/401 322/543/332
f 432/544/402 396/545/383 387/546/386 428/547/403
f 310/548/404 393/549/405 397/538/398 311/537/397
f 431/550/406 394/522/382 398/525/385 433/539/399
f 320/551/308 391/552/407 395/541/400 321/540/334
f 430/553/408 392/554/380 396/545/383 432/544/402
f 309/555/409 389/556/410 393/549/405 310/548/404
f 429/557/411 390/558/379 394/522/382 431/550/406
f 308/559/307 377/560/412 391/552/407 320/551/308
f 423/561/413 378/562/372 392/554/380 430/553/408
f 307/563/414 385/564/415 389/556/410 309/555/409
f 427/565/416 386/566/377 390/558/379 429/557/411
f 315/567/315 383/568/417 380/569/418 316/570/306
f 426/571/419 384/511/374 379/505/371 424/572/420
f 318/573/331 381/574/421 370/575/422 319/576/309
f 425/577/423 382/578/373 369/579/367 419/580/424
f 401/581/333 413/582/425 385/583/415 307/584/414
f 436/585/426 414/586/375 386/587/377 427/588/416
f 314/589/313 375/590/427 383/568/417 315/567/315
f 422/591/428 376/504/370 384/511/374 426/571/419
f 317/592/330 371/593/429 381/574/421 318/573/331
f 420/594/430 372/595/369 382/578/373 425/577/423
f 316/570/306 380/569/418 377/596/412 308/597/307
f 424/572/420 379/505/371 378/508/372 423/598/413
f 313/599/311 365/600/431 375/590/427 314/589/313
f 417/601/432 366/498/366 376/504/370 422/591/428
f 406/602/329 415/603/433 371/593/429 317/592/330
f 435/604/434 416/605/368 372/595/369 420/594/430
f 319/576/309 370/575/422 368/606/435 306/607/310
f 419/580/424 369/579/367 367/608/365 418/609/436
f 306/440/310 368/610/435 365/611/431 313/441/311
f 418/612/436 367/495/365 366/498/366 417/601/432
f 421/613/396 373/614/390 416/605/368 435/604/434
f 305/615/394 374/616/393 415/603/433 406/602/329
f 428/547/403 387/546/386 414/586/375 436/585/426
f 322/543/332 388/542/401 413/582/425 401/581/333
f 387/526/386 352/493/363 407/492/362 414/512/375
f 373/617/390 335/618/389 412/489/359 416/501/368
f 339/515/378 337/513/376 407/492/362 411/478/348
f 335/618/389 342/619/387 408/486/356 412/489/359
f 342/619/387 341/620/384 409/483/353 408/486/356
f 341/620/384 340/519/381 410/477/347 409/483/353
f 340/519/381 339/515/378 411/478/348 410/477/347
f 309/621/409 405/450/320 401/463/333 307/622/414
f 305/623/394 406/459/329 402/456/326 312/624/391
f 312/624/391 402/456/326 403/453/323 311/625/397
f 311/625/397 403/453/323 404/447/317 310/626/404
f 310/626/404 404/447/317 405/450/320 309/621/409
f 388/542/401 448/627/437 456/628/438 413/582/425
f 374/616/393 441/629/439 455/630/440 415/603/433
f 368/631/435 438/632/441 437/633/442 365/600/431
f 370/575/422 439/634/443 438/635/441 368/606/435
f 415/603/433 455/630/440 440/636/444 371/593/429
f 365/600/431 437/633/442 442/637/445 375/590/427
f 380/569/418 444/638/446 443/639/447 377/596/412
f 371/593/429 440/636/444 445/640/448 381/574/421
f 375/590/427 442/637/445 446/641/449 383/568/417
f 413/582/425 456/628/438 447/642/450 385/583/415
f 381/574/421 445/640/448 439/634/443 370/575/422
f 383/568/417 446/641/449 444/638/446 380/569/418
f 385/564/415 447/643/450 449/644/451 389/556/410
f 377/560/412 443/645/447 450/646/452 391/552/407
f 389/556/410 449/644/451 451/647/453 393/549/405
f 391/552/407 450/646/452 452/648/454 395/541/400
f 393/549/405 451/647/453 453/649/455 397/538/398
f 395/541/400 452/648/454 448/627/437 388/542/401
f 397/538/398 453/649/455 454/650/456 399/532/392
f 399/532/392 454/650/456 441/651/439 374/533/393
f 428/547/403 448/627/437 452/648/454 432/544/402
f 436/585/426 456/628/438 448/627/437 428/547/403
f 417/601/432 437/633/442 438/632/441 418/612/436
f 452/648/454 450/646/452 430/553/408 432/544/402
f 450/646/452 443/645/447 423/561/413 430/553/408
f 443/639/447 444/638/446 424/572/420 423/598/413
f 444/638/446 446/641/449 426/571/419 424/572/420
f 446/641/449 442/637/445 422/591/428 426/571/419
f 442/637/445 437/633/442 417/601/432 422/591/428
f 421/536/396 441/651/439 454/650/456 434/535/395
f 418/609/436 438/632/441 439/634/443 419/580/424
f 419/580/424 439/634/443 445/640/448 425/577/423
f 425/577/423 445/640/448 440/636/444 420/594/430
f 420/594/430 440/636/444 455/630/440 435/604/434
f 435/604/434 455/630/440 441/629/439 421/613/396
f 427/588/416 447/642/450 456/628/438 436/585/426
f 454/650/456 453/649/455 433/539/399 434/535/395
f 453/649/455 451/647/453 431/550/406 433/539/399
f 451/647/453 449/644/451 429/557/411 431/550/406
f 449/644/451 447/643/450 427/588/416 429/557/411
