# Blender 4.0.1
# www.blender.org
mtllib Bomber_Body.mtl
g Bomber_Body_Circle
v 2.294266 0.000000 -0.209142
v 2.294266 -0.040802 -0.205123
v 2.294266 -0.080035 -0.193222
v 2.294266 -0.116193 -0.173895
v 2.294266 -0.147886 -0.147886
v 2.294266 -0.173895 -0.116193
v 2.294266 -0.193222 -0.080035
v 2.294266 -0.205123 -0.040802
v 2.294266 -0.209142 0.000000
v 2.294266 -0.205123 0.040802
v 2.294266 -0.193222 0.080035
v 2.294266 -0.173895 0.116193
v 2.294266 -0.147886 0.147886
v 2.294266 -0.116193 0.173895
v 2.294266 -0.080035 0.193222
v 2.294266 -0.040802 0.205123
v 2.294266 0.000000 0.209142
v 2.294266 0.040802 0.205123
v 2.294266 0.080035 0.193222
v 2.294266 0.116193 0.173895
v 2.294266 0.147886 0.147886
v 2.294266 0.173895 0.116193
v 2.294266 0.193222 0.080035
v 2.294266 0.205123 0.040802
v 2.294266 0.209142 0.000000
v 2.294266 0.205123 -0.040802
v 2.294266 0.193222 -0.080035
v 2.294266 0.173895 -0.116193
v 2.294266 0.147886 -0.147886
v 2.294266 0.116193 -0.173895
v 2.294266 0.080035 -0.193222
v 2.294266 0.040802 -0.205123
v 1.709357 0.883356 -0.175710
v 0.954747 1.235242 -0.245705
v -0.372060 1.376415 -0.273786
v -1.904397 1.347098 -0.248877
v -1.904397 1.276978 -0.488189
v -0.372061 1.296555 -0.537051
v 0.954747 1.163572 -0.481968
v 1.709358 0.832103 -0.344668
v 1.709357 -0.636864 0.636864
v 0.954747 -0.890560 0.890560
v -0.372060 -0.901927 0.992340
v -1.904397 -0.589797 0.902056
v -1.904397 -0.431372 1.060705
v -0.372061 -0.708588 1.166869
v 0.954747 -0.699708 1.047188
v 1.709357 -0.500381 0.748873
v -1.904397 1.163699 -0.708741
v -0.372061 1.166869 -0.779677
v 0.954747 1.047187 -0.699708
v 1.709358 0.748873 -0.500381
v -1.904397 -0.245660 1.178592
v -0.372061 -0.484821 1.296555
v 0.954747 -0.481968 1.163572
v 1.709357 -0.344668 0.832103
v 1.709357 0.000000 -0.900662
v 0.954747 0.000000 -1.259442
v -0.372060 0.021527 -1.403381
v -1.904397 0.180710 -1.275699
v -1.904397 -0.039063 -1.251187
v -0.372061 -0.238428 -1.376415
v 0.954747 -0.245705 -1.235242
v 1.709357 -0.175710 -0.883356
v -1.904397 1.012429 -0.902056
v -0.372061 0.992347 -0.992340
v 0.954747 0.890560 -0.890560
v 1.709357 0.636864 -0.636864
v -1.904397 -0.039063 1.251187
v -0.372061 -0.238428 1.376415
v 0.954747 -0.245705 1.235242
v 1.709357 -0.175710 0.883356
v -1.904397 -0.245660 -1.178592
v -0.372061 -0.484821 -1.296555
v 0.954747 -0.481968 -1.163572
v 1.709357 -0.344668 -0.832103
v -1.904397 0.830000 -1.060705
v -0.372061 0.780754 -1.166869
v 0.954747 0.699708 -1.047188
v 1.709357 0.500381 -0.748873
v -1.904397 0.180710 1.275699
v -0.372061 0.021527 1.403381
v 0.954747 0.000000 1.259442
v 1.709357 0.000000 0.900662
v -1.904397 -0.431372 -1.060705
v -0.372061 -0.708588 -1.166869
v 0.954747 -0.699708 -1.047188
v 1.709357 -0.500381 -0.748873
v -1.904397 0.624531 -1.178592
v -0.372061 0.541638 -1.296555
v 0.954747 0.481968 -1.163572
v 1.709357 0.344668 -0.832103
v -1.904397 0.404987 1.251187
v -0.372061 0.285051 1.376415
v 0.954747 0.245705 1.235242
v 1.709357 0.175710 0.883356
v -1.904397 -0.589797 -0.902056
v -0.372061 -0.901927 -0.992340
v 0.954747 -0.890560 -0.890560
v 1.709357 -0.636864 -0.636864
v -1.904397 0.404987 -1.251187
v -0.372061 0.285051 -1.376415
v 0.954747 0.245705 -1.235242
v 1.709357 0.175710 -0.883356
v -1.904397 0.624531 1.178592
v -0.372061 0.541638 1.296555
v 0.954747 0.481968 1.163572
v 1.709357 0.344668 0.832103
v -1.904397 -0.716077 -0.708741
v -0.372061 -1.058507 -0.779677
v 0.954747 -1.047188 -0.699708
v 1.709357 -0.748873 -0.500381
v -1.904397 0.830000 1.060705
v -0.372061 0.780754 1.166869
v 0.954747 0.699708 1.047188
v 1.709357 0.500381 0.748873
v -1.904397 -0.807049 -0.488189
v -0.372061 -1.173556 -0.537051
v 0.954747 -1.163572 -0.481968
v 1.709357 -0.832103 -0.344668
v -1.904397 1.012429 0.902056
v -0.372061 0.992347 0.992340
v 0.954747 0.890560 0.890560
v 1.709357 0.636864 0.636864
v -1.904397 -0.861285 -0.248877
v -0.372061 -1.243821 -0.273786
v 0.954747 -1.235242 -0.245705
v 1.709357 -0.883356 -0.175710
v -1.904397 1.163699 0.708741
v -0.372061 1.166869 0.779677
v 0.954747 1.047187 0.699708
v 1.709358 0.748873 0.500381
v -1.904397 -0.879043 -0.000000
v -0.372061 -1.267443 -0.000000
v 0.954747 -1.259442 -0.000000
v 1.709357 -0.900662 0.000000
v -1.904397 1.276978 0.488189
v -0.372061 1.296555 0.537051
v 0.954747 1.163572 0.481968
v 1.709358 0.832103 0.344668
v -1.904397 -0.861285 0.248877
v -0.372061 -1.243821 0.273786
v 0.954747 -1.235242 0.245705
v 1.709357 -0.883356 0.175710
v -1.904397 1.347098 0.248877
v -0.372061 1.376415 0.273786
v 0.954747 1.235242 0.245705
v 1.709357 0.883356 0.175710
v -1.904397 -0.807049 0.488189
v -0.372061 -1.173556 0.537051
v 0.954747 -1.163572 0.481968
v 1.709357 -0.832103 0.344668
v -1.904397 1.370837 -0.000000
v -0.372061 1.403381 -0.000000
v 0.954747 1.259442 -0.000000
v 1.709358 0.900662 0.000000
v -1.904397 -0.716077 0.708741
v -0.372061 -1.058507 0.779677
v 0.954747 -1.047188 0.699708
v 1.709357 -0.748873 0.500381
v -3.230638 -0.111326 0.467863
v -3.230638 0.952902 0.700207
v -3.230638 0.359468 -0.825950
v -3.230638 -0.216681 0.164292
v -3.230638 0.812967 -0.778028
v -3.230638 0.510048 0.842131
v -3.230638 1.304684 -0.164292
v -3.230638 0.088703 0.700207
v -3.230638 0.088703 -0.700207
v -3.230638 -0.176784 -0.322270
v -3.230638 1.077054 -0.595477
v -3.230638 0.663267 -0.825950
v -3.230638 1.304684 0.164292
v -3.230638 0.359468 0.825950
v -3.230638 0.812967 0.778028
v -3.230638 -0.230079 -0.000000
v -3.230638 1.179957 -0.467863
v -3.230638 -0.216681 -0.164292
v -3.230638 -0.021988 0.595477
v -3.230638 0.217303 -0.778028
v -3.230638 -0.111326 -0.467863
v -3.230638 1.320826 -0.000000
v -3.230638 0.952902 -0.700207
v -3.230638 0.510048 -0.842131
v -3.230638 0.217303 0.778028
v -3.230638 1.077054 0.595477
v -3.230638 0.663267 0.825950
v -3.230638 1.257000 -0.322270
v -3.230638 1.179957 0.467863
v -3.230638 -0.176784 0.322270
v -3.230638 1.257000 0.322270
v -3.230638 -0.021988 -0.595477
v -4.120055 0.634828 -0.540773
v -4.120055 0.953394 -0.509397
v -4.120055 0.742395 0.551367
v -4.120055 1.132270 -0.389876
v -4.120055 0.849961 -0.540773
v -4.120055 1.200840 -0.306323
v -4.120055 0.354265 0.389876
v -4.120055 0.531396 -0.509397
v -4.120055 0.287291 -0.306323
v -4.120055 0.531396 0.509397
v -4.120055 0.849961 0.540773
v -4.120055 1.200840 0.306323
v -4.120055 0.354265 -0.389876
v -4.120055 0.287291 0.306323
v -4.120055 1.048718 0.458445
v -4.120055 0.207575 0.107566
v -4.120055 1.283168 -0.107566
v -4.120055 0.436573 0.458445
v -4.120055 0.436573 -0.458445
v -4.120055 0.237864 -0.210999
v -4.120055 1.283168 0.107566
v -4.120055 0.634828 0.540773
v -4.120055 0.953394 0.509397
v -4.120055 0.197373 -0.000000
v -4.120055 0.207575 -0.107566
v -4.120055 1.293762 -0.000000
v -4.120055 1.048718 -0.458445
v -4.120055 0.742395 -0.551367
v -4.120055 1.132270 0.389876
v -4.120055 1.251792 -0.210999
v -4.120055 0.237864 0.210999
v -4.120055 1.251792 0.210999
v -4.668105 1.140003 -0.053326
v -4.668105 1.124449 -0.104602
v -4.668105 1.099189 -0.151859
v -4.668105 0.720058 0.227272
v -4.668105 0.767315 0.252532
v -4.668105 0.871917 -0.273338
v -4.668105 0.818591 -0.268086
v -4.668105 1.065196 -0.193279
v -4.668105 0.818591 0.268086
v -4.668105 0.767315 -0.252532
v -4.668105 1.023775 -0.227273
v -4.668105 0.871917 0.273338
v -4.668105 0.720058 -0.227273
v -4.668105 0.976519 -0.252532
v -4.668105 0.925242 0.268086
v -4.668105 0.678637 -0.193279
v -4.668105 0.925242 -0.268086
v -4.668105 0.976519 0.252532
v -4.668105 0.644644 -0.151859
v -4.668105 1.023775 0.227272
v -4.668105 0.619385 -0.104602
v -4.668105 1.065196 0.193279
v -4.668105 0.603831 -0.053326
v -4.668105 1.099189 0.151859
v -4.668105 0.598578 -0.000000
v -4.668105 1.124448 0.104602
v -4.668105 0.603831 0.053326
v -4.668105 1.140003 0.053326
v -4.668105 0.619385 0.104602
v -4.668105 1.145255 -0.000000
v -4.668105 0.644644 0.151859
v -4.668105 0.678637 0.193279
v 2.001812 0.547947 -0.226967
v 2.001812 -0.329505 0.493139
v 2.001812 0.493139 -0.329505
v 2.001812 -0.226967 0.547947
v 2.001812 -0.115707 -0.581697
v 2.001812 0.419380 -0.419380
v 2.001812 -0.115707 0.581697
v 2.001812 -0.226967 -0.547947
v 2.001812 0.329505 -0.493139
v 2.001812 0.000000 0.593093
v 2.001812 -0.329505 -0.493139
v 2.001812 0.226967 -0.547947
v 2.001812 0.115707 0.581697
v 2.001812 -0.419380 -0.419380
v 2.001812 0.115707 -0.581697
v 2.001812 0.226967 0.547947
v 2.001812 -0.493139 -0.329505
v 2.001812 0.329505 0.493139
v 2.001812 -0.547947 -0.226967
v 2.001812 0.419380 0.419380
v 2.001812 -0.581697 -0.115707
v 2.001812 0.493139 0.329505
v 2.001812 -0.593093 0.000000
v 2.001812 0.547947 0.226967
v 2.001812 -0.581697 0.115707
v 2.001812 0.581697 0.115707
v 2.001812 -0.547947 0.226967
v 2.001812 0.593093 0.000000
v 2.001812 -0.493139 0.329505
v 2.001812 0.581697 -0.115707
v 2.001812 -0.419380 0.419380
v 2.001812 0.000000 -0.593093
v 2.148039 0.390651 -0.161813
v 2.148039 -0.234916 0.351577
v 2.148039 0.351577 -0.234916
v 2.148039 -0.161813 0.390651
v 2.148039 -0.082492 -0.414713
v 2.148039 0.298992 -0.298992
v 2.148039 -0.082492 0.414713
v 2.148039 -0.161813 -0.390651
v 2.148039 0.234916 -0.351577
v 2.148039 0.000000 0.422838
v 2.148039 -0.234916 -0.351577
v 2.148039 0.161813 -0.390651
v 2.148039 0.082492 0.414713
v 2.148039 -0.298992 -0.298992
v 2.148039 0.082492 -0.414713
v 2.148039 0.161813 0.390651
v 2.148039 -0.351577 -0.234916
v 2.148039 0.234916 0.351577
v 2.148039 -0.390651 -0.161813
v 2.148039 0.298992 0.298992
v 2.148039 -0.414713 -0.082492
v 2.148039 0.351577 0.234916
v 2.148039 -0.422838 0.000000
v 2.148039 0.390651 0.161813
v 2.148039 -0.414713 0.082492
v 2.148039 0.414713 0.082492
v 2.148039 -0.390651 0.161813
v 2.148039 0.422838 0.000000
v 2.148039 -0.351577 0.234916
v 2.148039 0.414713 -0.082492
v 2.148039 -0.298992 0.298992
v 2.148039 0.000000 -0.422838
v 1.328311 1.142279 -0.227213
v 1.328311 1.076003 -0.445695
v 1.328311 -0.823537 0.823537
v 1.328311 -0.647049 0.968377
v 1.328311 0.968377 -0.647049
v 1.328311 -0.445695 1.076003
v 1.328311 0.000000 -1.164658
v 1.328311 -0.227213 -1.142279
v 1.328311 0.823537 -0.823537
v 1.328311 -0.227213 1.142279
v 1.328311 -0.445695 -1.076003
v 1.328311 0.647049 -0.968377
v 1.328311 0.000000 1.164658
v 1.328311 -0.647049 -0.968377
v 1.328311 0.445695 -1.076003
v 1.328311 0.227213 1.142279
v 1.328311 -0.823537 -0.823537
v 1.328311 0.227213 -1.142279
v 1.328311 0.445695 1.076003
v 1.328311 -0.968377 -0.647049
v 1.328311 0.647049 0.968377
v 1.328311 -1.076003 -0.445695
v 1.328311 0.823537 0.823537
v 1.328311 -1.142279 -0.227213
v 1.328311 0.968377 0.647049
v 1.328311 -1.164657 0.000000
v 1.328311 1.076003 0.445695
v 1.328311 -1.142279 0.227213
v 1.328311 1.142279 0.227213
v 1.328311 -1.076003 0.445695
v 1.328311 1.164658 0.000000
v 1.328311 -0.968377 0.647049
v -4.523354 1.272630 -0.079707
v -4.523354 1.249380 -0.156350
v -4.523354 1.211625 -0.226986
v -4.523354 0.644931 0.339708
v -4.523354 0.715566 0.377463
v -4.523354 0.871917 -0.408563
v -4.523354 0.792210 -0.400713
v -4.523354 1.160815 -0.288898
v -4.523354 0.792210 0.400713
v -4.523354 0.715566 -0.377463
v -4.523354 1.098902 -0.339708
v -4.523354 0.871917 0.408563
v -4.523354 0.644931 -0.339708
v -4.523354 1.028267 -0.377463
v -4.523354 0.951623 0.400713
v -4.523354 0.583019 -0.288898
v -4.523354 0.951623 -0.400713
v -4.523354 1.028267 0.377463
v -4.523354 0.532209 -0.226986
v -4.523354 1.098902 0.339708
v -4.523354 0.494454 -0.156350
v -4.523354 1.160815 0.288898
v -4.523354 0.471204 -0.079707
v -4.523354 1.211625 0.226986
v -4.523354 0.463354 -0.000000
v -4.523354 1.249380 0.156350
v -4.523354 0.471204 0.079707
v -4.523354 1.272629 0.079707
v -4.523354 0.494454 0.156350
v -4.523354 1.280480 -0.000000
v -4.523354 0.532209 0.226986
v -4.523354 0.583019 0.288898
v -4.775899 0.949776 -0.015487
v -4.775899 0.945259 -0.030379
v -4.775899 0.937923 -0.044104
v -4.775899 0.827813 0.066006
v -4.775899 0.841537 0.073342
v -4.775899 0.871917 -0.079385
v -4.775899 0.856429 -0.077859
v -4.775899 0.928050 -0.056134
v -4.775899 0.856429 0.077859
v -4.775899 0.841537 -0.073342
v -4.775899 0.916020 -0.066006
v -4.775899 0.871917 0.079385
v -4.775899 0.827813 -0.066006
v -4.775899 0.902296 -0.073342
v -4.775899 0.887404 0.077859
v -4.775899 0.815783 -0.056134
v -4.775899 0.887404 -0.077859
v -4.775899 0.902296 0.073342
v -4.775899 0.805911 -0.044104
v -4.775899 0.916020 0.066006
v -4.775899 0.798575 -0.030379
v -4.775899 0.928050 0.056133
v -4.775899 0.794057 -0.015487
v -4.775899 0.937923 0.044104
v -4.775899 0.792532 -0.000000
v -4.775899 0.945259 0.030379
v -4.775899 0.794057 0.015487
v -4.775899 0.949776 0.015487
v -4.775899 0.798575 0.030379
v -4.775899 0.951301 -0.000000
v -4.775899 0.805911 0.044104
v -4.775899 0.815783 0.056133
v -4.595729 1.210293 -0.140160
v -4.595729 1.231135 -0.071453
v -4.595729 1.176447 -0.203481
v -4.595729 0.731757 0.338376
v -4.595729 0.668436 0.304530
v -4.595729 0.800464 -0.359218
v -4.595729 0.871917 -0.366256
v -4.595729 1.130899 -0.258982
v -4.595729 0.800464 0.359218
v -4.595729 0.731757 -0.338376
v -4.595729 1.075398 -0.304531
v -4.595729 0.871917 0.366256
v -4.595729 0.668436 -0.304531
v -4.595729 1.012077 -0.338376
v -4.595729 0.943370 0.359218
v -4.595729 0.612935 -0.258982
v -4.595729 0.943370 -0.359218
v -4.595729 1.012077 0.338376
v -4.595729 0.567386 -0.203481
v -4.595729 1.075398 0.304530
v -4.595729 0.533541 -0.140160
v -4.595729 1.130899 0.258982
v -4.595729 0.512699 -0.071453
v -4.595729 1.176447 0.203481
v -4.595729 0.505661 -0.000000
v -4.595729 1.210293 0.140160
v -4.595729 0.512699 0.071453
v -4.595729 1.231135 0.071453
v -4.595729 0.533541 0.140160
v -4.595729 1.238172 -0.000000
v -4.595729 0.567386 0.203481
v -4.595729 0.612935 0.258982
v -4.732508 0.969898 -0.146639
v -4.732508 0.996623 -0.124706
v -4.732508 1.018556 0.097981
v -4.732508 0.996623 0.124706
v -4.732508 0.871917 0.176362
v -4.732508 0.837510 0.172973
v -4.732508 0.695555 -0.000000
v -4.732508 0.698944 -0.034406
v -4.732508 0.773935 -0.146639
v -4.732508 0.804426 -0.162937
v -4.732508 1.034853 0.067491
v -4.732508 0.939407 -0.162937
v -4.732508 0.698944 0.034406
v -4.732508 0.906323 0.172973
v -4.732508 1.044889 0.034406
v -4.732508 0.747210 -0.124707
v -4.732508 0.708980 0.067491
v -4.732508 0.906323 -0.172973
v -4.732508 1.034853 -0.067491
v -4.732508 1.044890 -0.034406
v -4.732508 1.048278 -0.000000
v -4.732508 0.939407 0.162937
v -4.732508 1.018556 -0.097981
v -4.732508 0.725277 0.097981
v -4.732508 0.725277 -0.097981
v -4.732508 0.804426 0.162937
v -4.732508 0.773935 0.146639
v -4.732508 0.871917 -0.176362
v -4.732508 0.837510 -0.172973
v -4.732508 0.747210 0.124706
v -4.732508 0.969898 0.146639
v -4.732508 0.708980 -0.067491
vn 0.7411 -0.4747 0.4747
vn 0.6474 -0.5389 0.5389
vn 0.6474 -0.6337 0.4234
vn 0.7411 -0.5582 0.3730
vn 0.4102 -0.6449 0.6449
vn 0.1520 -0.7091 0.6885
vn 0.1425 -0.8310 0.5376
vn 0.4102 -0.7583 0.5067
vn -0.0657 -0.7407 0.6686
vn -0.0866 -0.8555 0.5105
vn -0.3099 -0.7252 0.6148
vn -0.3252 -0.8267 0.4590
vn 0.7411 0.6585 -0.1310
vn 0.6474 0.7475 -0.1487
vn 0.6474 0.7622 -0.0000
vn 0.7411 0.6714 -0.0000
vn 0.4102 0.8945 -0.1779
vn 0.1766 0.9654 -0.1920
vn 0.1766 0.9843 -0.0000
vn 0.4102 0.9120 -0.0000
vn 0.0430 0.9801 -0.1938
vn 0.0434 0.9991 -0.0000
vn -0.0328 0.9807 -0.1928
vn -0.0294 0.9996 -0.0000
vn 0.6474 -0.7042 0.2917
vn 0.7411 -0.6203 0.2569
vn 0.1342 -0.9200 0.3682
vn 0.4102 -0.8426 0.3490
vn -0.1037 -0.9339 0.3421
vn -0.3353 -0.8926 0.3013
vn 0.6474 0.7475 0.1487
vn 0.7411 0.6585 0.1310
vn 0.1766 0.9654 0.1920
vn 0.4102 0.8945 0.1779
vn 0.0430 0.9801 0.1938
vn -0.0328 0.9807 0.1928
vn 0.6474 -0.7475 0.1487
vn 0.7411 -0.6585 0.1310
vn 0.1285 -0.9739 0.1869
vn 0.4102 -0.8945 0.1779
vn -0.1149 -0.9786 0.1708
vn -0.3409 -0.9284 0.1479
vn 0.6474 0.7042 0.2917
vn 0.7411 0.6203 0.2569
vn 0.1766 0.9094 0.3767
vn 0.4102 0.8426 0.3490
vn 0.0421 0.9240 0.3802
vn -0.0425 0.9249 0.3777
vn 0.6474 -0.7622 -0.0000
vn 0.7411 -0.6714 -0.0000
vn 0.1265 -0.9920 -0.0000
vn 0.4102 -0.9120 -0.0000
vn -0.1189 -0.9929 -0.0000
vn -0.3427 -0.9395 -0.0000
vn 0.6474 0.6337 0.4234
vn 0.7411 0.5582 0.3730
vn 0.1766 0.8184 0.5468
vn 0.4102 0.7583 0.5067
vn 0.0404 0.8328 0.5522
vn -0.0582 0.8347 0.5477
vn 0.6474 -0.7475 -0.1487
vn 0.7411 -0.6585 -0.1310
vn 0.1285 -0.9739 -0.1869
vn 0.4102 -0.8945 -0.1779
vn -0.1149 -0.9786 -0.1708
vn -0.3409 -0.9284 -0.1479
vn 0.6474 0.5389 0.5389
vn 0.7411 0.4747 0.4747
vn 0.1766 0.6962 0.6958
vn 0.4102 0.6449 0.6449
vn 0.0381 0.7103 0.7029
vn -0.0789 0.7134 0.6963
vn 0.6474 -0.7042 -0.2917
vn 0.7411 -0.6203 -0.2569
vn 0.1342 -0.9200 -0.3682
vn 0.4102 -0.8426 -0.3490
vn -0.1037 -0.9339 -0.3421
vn -0.3353 -0.8926 -0.3013
vn 0.6474 0.4234 0.6337
vn 0.7411 0.3730 0.5582
vn 0.1769 0.5477 0.8177
vn 0.4102 0.5067 0.7583
vn 0.0347 0.5611 0.8270
vn -0.1040 0.5649 0.8186
vn 0.6474 -0.6337 -0.4234
vn 0.7411 -0.5582 -0.3730
vn 0.1425 -0.8310 -0.5376
vn 0.4102 -0.7583 -0.5067
vn -0.0866 -0.8555 -0.5105
vn -0.3252 -0.8267 -0.4590
vn 0.6474 0.2917 0.7042
vn 0.7411 0.2569 0.6203
vn 0.1773 0.3782 0.9086
vn 0.4102 0.3490 0.8426
vn 0.0297 0.3894 0.9206
vn -0.1330 0.3927 0.9100
vn 0.7411 -0.0000 -0.6714
vn 0.6474 -0.0000 -0.7622
vn 0.6474 0.1487 -0.7475
vn 0.7411 0.1310 -0.6585
vn 0.4102 -0.0000 -0.9120
vn 0.1764 -0.0007 -0.9843
vn 0.1773 0.1932 -0.9650
vn 0.4102 0.1779 -0.8945
vn 0.0115 -0.0036 -0.9999
vn 0.0223 0.1992 -0.9797
vn -0.1983 -0.0047 -0.9801
vn -0.1648 0.2007 -0.9657
vn 0.6474 -0.5389 -0.5389
vn 0.7411 -0.4747 -0.4747
vn 0.1520 -0.7091 -0.6885
vn 0.4102 -0.6449 -0.6449
vn -0.0657 -0.7407 -0.6686
vn -0.3099 -0.7252 -0.6148
vn 0.6474 0.1487 0.7475
vn 0.7411 0.1310 0.6585
vn 0.1773 0.1932 0.9650
vn 0.4102 0.1779 0.8945
vn 0.0223 0.1992 0.9797
vn -0.1648 0.2007 0.9657
vn 0.6474 0.2917 -0.7042
vn 0.7411 0.2569 -0.6203
vn 0.1773 0.3782 -0.9086
vn 0.4102 0.3490 -0.8426
vn 0.0297 0.3894 -0.9206
vn -0.1330 0.3927 -0.9100
vn 0.6474 -0.4234 -0.6337
vn 0.7411 -0.3730 -0.5582
vn 0.1611 -0.5583 -0.8139
vn 0.4102 -0.5067 -0.7583
vn -0.0433 -0.5904 -0.8060
vn -0.2888 -0.5857 -0.7574
vn 0.6474 -0.0000 0.7622
vn 0.7411 -0.0000 0.6714
vn 0.1764 -0.0007 0.9843
vn 0.4102 -0.0000 0.9120
vn 0.0115 -0.0036 0.9999
vn -0.1983 -0.0047 0.9801
vn 0.6474 0.4234 -0.6337
vn 0.7411 0.3730 -0.5582
vn 0.1769 0.5477 -0.8177
vn 0.4102 0.5067 -0.7583
vn 0.0347 0.5611 -0.8270
vn -0.1040 0.5649 -0.8186
vn 0.6474 -0.2917 -0.7042
vn 0.7411 -0.2569 -0.6203
vn 0.1685 -0.3847 -0.9075
vn 0.4102 -0.3490 -0.8426
vn -0.0219 -0.4101 -0.9118
vn -0.2623 -0.4116 -0.8728
vn 0.6474 -0.1487 0.7475
vn 0.7411 -0.1310 0.6585
vn 0.1736 -0.1960 0.9651
vn 0.4102 -0.1779 0.8945
vn -0.0033 -0.2104 0.9776
vn -0.2315 -0.2133 0.9492
vn 0.6474 0.5389 -0.5389
vn 0.7411 0.4747 -0.4747
vn 0.1766 0.6962 -0.6958
vn 0.4102 0.6449 -0.6449
vn 0.0381 0.7103 -0.7029
vn -0.0789 0.7134 -0.6963
vn 0.6474 -0.1487 -0.7475
vn 0.7411 -0.1310 -0.6585
vn 0.1736 -0.1960 -0.9651
vn 0.4102 -0.1779 -0.8945
vn -0.0033 -0.2104 -0.9776
vn -0.2315 -0.2133 -0.9492
vn 0.6474 -0.2917 0.7042
vn 0.7411 -0.2569 0.6203
vn 0.1685 -0.3847 0.9075
vn 0.4102 -0.3490 0.8426
vn -0.0219 -0.4101 0.9118
vn -0.2623 -0.4116 0.8728
vn 0.6474 0.6337 -0.4234
vn 0.7411 0.5582 -0.3730
vn 0.1766 0.8184 -0.5468
vn 0.4102 0.7583 -0.5067
vn 0.0404 0.8328 -0.5522
vn -0.0582 0.8347 -0.5477
vn 0.6474 -0.4234 0.6337
vn 0.7411 -0.3730 0.5582
vn 0.1611 -0.5583 0.8139
vn 0.4102 -0.5067 0.7583
vn -0.0433 -0.5904 0.8060
vn -0.2888 -0.5857 0.7574
vn 0.6474 0.7042 -0.2917
vn 0.7411 0.6203 -0.2569
vn 0.1766 0.9094 -0.3767
vn 0.4102 0.8426 -0.3490
vn 0.0421 0.9240 -0.3802
vn -0.0425 0.9249 -0.3777
vn -0.2711 0.1907 0.9435
vn -0.3899 0.1888 0.9013
vn -0.4163 0.0092 0.9092
vn -0.3223 -0.0005 0.9466
vn -0.1219 0.7039 0.6998
vn -0.3166 0.6758 0.6656
vn -0.3387 0.5296 0.7777
vn -0.1676 0.5511 0.8174
vn -0.4904 -0.8570 -0.1580
vn -0.5272 -0.8335 -0.1655
vn -0.5225 -0.7877 -0.3263
vn -0.4860 -0.8155 -0.3143
vn -0.4773 -0.7449 0.4661
vn -0.5142 -0.7125 0.4775
vn -0.5225 -0.7877 0.3263
vn -0.4860 -0.8155 0.3143
vn -0.0376 0.9801 -0.1948
vn -0.2761 0.9431 -0.1855
vn -0.2733 0.9619 -0.0000
vn -0.0317 0.9995 -0.0000
vn -0.0553 0.9227 -0.3816
vn -0.2846 0.8872 -0.3632
vn -0.4399 -0.5155 0.7353
vn -0.4854 -0.4810 0.7301
vn -0.5019 -0.6093 0.6139
vn -0.4625 -0.6447 0.6087
vn -0.4417 -0.1665 0.8816
vn -0.3690 -0.1871 0.9104
vn -0.4399 -0.5155 -0.7353
vn -0.4854 -0.4810 -0.7301
vn -0.4651 -0.3317 -0.8208
vn -0.4086 -0.3610 -0.8383
vn -0.3636 0.3648 0.8572
vn -0.2184 0.3775 0.8999
vn -0.5142 -0.7125 -0.4775
vn -0.4773 -0.7449 -0.4661
vn -0.5272 -0.8335 0.1655
vn -0.4904 -0.8570 0.1580
vn -0.2761 0.9431 0.1855
vn -0.0376 0.9801 0.1948
vn -0.4417 -0.1665 -0.8816
vn -0.3690 -0.1871 -0.9104
vn -0.1676 0.5511 -0.8174
vn -0.3387 0.5296 -0.7777
vn -0.3166 0.6758 -0.6656
vn -0.1219 0.7039 -0.6998
vn -0.5019 -0.6093 -0.6139
vn -0.4625 -0.6447 -0.6087
vn -0.3223 -0.0005 -0.9466
vn -0.4163 0.0092 -0.9092
vn -0.3899 0.1888 -0.9013
vn -0.2711 0.1907 -0.9435
vn -0.5287 -0.8488 -0.0000
vn -0.4917 -0.8708 -0.0000
vn -0.2846 0.8872 0.3632
vn -0.0553 0.9227 0.3816
vn -0.2982 0.7968 -0.5255
vn -0.0838 0.8294 -0.5523
vn -0.0838 0.8294 0.5523
vn -0.2982 0.7968 0.5255
vn -0.4651 -0.3317 0.8208
vn -0.4086 -0.3610 0.8383
vn -0.3636 0.3648 -0.8572
vn -0.2184 0.3775 -0.8999
vn -0.0570 0.9243 0.3773
vn -0.0845 0.8335 0.5461
vn -0.2126 0.3887 -0.8965
vn -0.1644 0.5614 -0.8111
vn -0.3875 -0.3848 0.8377
vn -0.4122 -0.5487 0.7273
vn -0.3531 -0.1983 -0.9143
vn -0.3104 0.0001 -0.9506
vn -0.0845 0.8335 -0.5461
vn -0.0570 0.9243 -0.3773
vn -0.4371 -0.8994 -0.0000
vn -0.4373 -0.8872 -0.1468
vn -0.2126 0.3887 0.8965
vn -0.2624 0.1991 0.9442
vn -0.4274 -0.6822 0.5933
vn -0.4348 -0.7819 0.4467
vn -0.2624 0.1991 -0.9442
vn -0.3531 -0.1983 0.9143
vn -0.1209 0.7111 0.6926
vn -0.1209 0.7111 -0.6926
vn -0.0400 0.9804 0.1927
vn -0.4274 -0.6822 -0.5933
vn -0.4122 -0.5487 -0.7273
vn -0.4373 -0.8872 0.1468
vn -0.4348 -0.7819 -0.4467
vn -0.3875 -0.3848 -0.8377
vn -0.0342 0.9994 -0.0000
vn -0.4373 -0.8492 0.2961
vn -0.4373 -0.8492 -0.2961
vn -0.1644 0.5614 0.8111
vn -0.3104 0.0001 0.9506
vn -0.0400 0.9804 -0.1927
vn 0.7915 0.5647 -0.2339
vn 0.7915 0.5994 -0.1192
vn 0.7915 -0.3396 0.5082
vn 0.7915 -0.4322 0.4322
vn 0.7915 0.5082 -0.3396
vn 0.7915 -0.2339 0.5647
vn 0.7915 -0.1192 -0.5994
vn 0.7915 -0.0000 -0.6112
vn 0.7915 0.4322 -0.4322
vn 0.7915 -0.1192 0.5994
vn 0.7915 -0.2339 -0.5647
vn 0.7915 0.3396 -0.5082
vn 0.7915 -0.0000 0.6112
vn 0.7915 -0.3396 -0.5082
vn 0.7915 0.2339 -0.5647
vn 0.7915 0.1192 0.5994
vn 0.7915 -0.4322 -0.4322
vn 0.7915 0.1192 -0.5994
vn 0.7915 0.2339 0.5647
vn 0.7915 -0.5082 -0.3396
vn 0.7915 0.3396 0.5082
vn 0.7915 -0.5647 -0.2339
vn 0.7915 0.4322 0.4322
vn 0.7915 -0.5994 -0.1192
vn 0.7915 0.5082 0.3396
vn 0.7915 -0.6112 -0.0000
vn 0.7915 0.5647 0.2339
vn 0.7915 -0.5994 0.1192
vn 0.7915 0.5994 0.1192
vn 0.7915 -0.5647 0.2339
vn 0.7915 0.6112 -0.0000
vn 0.7915 -0.5082 0.3396
vn 0.9500 -0.2208 0.2208
vn 0.9500 -0.2596 0.1735
vn 0.9500 0.3062 -0.0609
vn 0.9500 0.3122 -0.0000
vn 0.9500 -0.2885 0.1195
vn 0.9500 0.3062 0.0609
vn 0.9500 -0.3062 0.0609
vn 0.9500 0.2885 0.1195
vn 0.9500 -0.3122 -0.0000
vn 0.9500 0.2596 0.1735
vn 0.9500 -0.3062 -0.0609
vn 0.9500 0.2208 0.2208
vn 0.9500 -0.2885 -0.1195
vn 0.9500 0.1735 0.2596
vn 0.9500 -0.2596 -0.1735
vn 0.9500 0.1195 0.2885
vn 0.9500 -0.0000 -0.3122
vn 0.9500 0.0609 -0.3062
vn 0.9500 -0.2208 -0.2208
vn 0.9500 0.0609 0.3062
vn 0.9500 0.1195 -0.2885
vn 0.9500 -0.1735 -0.2596
vn 0.9500 -0.0000 0.3122
vn 0.9500 0.1735 -0.2596
vn 0.9500 -0.1195 -0.2885
vn 0.9500 -0.0609 0.3062
vn 0.9500 0.2208 -0.2208
vn 0.9500 -0.0609 -0.3062
vn 0.9500 -0.1195 0.2885
vn 0.9500 0.2596 -0.1735
vn 0.9500 -0.1735 0.2596
vn 0.9500 0.2885 -0.1195
vn -0.8737 0.3440 -0.3439
vn -0.8737 0.2702 -0.4044
vn -0.9752 0.1229 -0.1839
vn -0.9752 0.1564 -0.1564
vn -0.6529 0.6998 -0.2899
vn -0.6529 0.7429 -0.1478
vn -0.6529 0.6298 -0.4208
vn -0.6529 -0.2899 0.6998
vn -0.6529 -0.4208 0.6298
vn -0.6529 -0.1478 -0.7429
vn -0.6529 -0.0000 -0.7575
vn -0.6529 0.5356 -0.5356
vn -0.6529 -0.1478 0.7429
vn -0.6529 -0.2899 -0.6998
vn -0.6529 0.4208 -0.6298
vn -0.6529 -0.0000 0.7575
vn -0.6529 -0.4208 -0.6298
vn -0.6529 0.2899 -0.6998
vn -0.6529 0.1478 0.7429
vn -0.6529 -0.5356 -0.5356
vn -0.6529 0.1478 -0.7429
vn -0.6529 0.2899 0.6998
vn -0.6529 -0.6298 -0.4208
vn -0.6529 0.4208 0.6298
vn -0.6529 -0.6998 -0.2899
vn -0.6529 0.5356 0.5356
vn -0.6529 -0.7429 -0.1478
vn -0.6529 0.6298 0.4208
vn -0.6529 -0.7575 -0.0000
vn -0.6529 0.6998 0.2899
vn -0.6529 -0.7429 0.1478
vn -0.6529 0.7429 0.1478
vn -0.6529 -0.6998 0.2899
vn -0.6529 0.7575 -0.0000
vn -0.6529 -0.6298 0.4208
vn -0.6529 -0.5356 0.5356
vn -0.9752 0.2170 -0.0432
vn -0.9752 0.2044 -0.0847
vn -0.9752 0.1839 -0.1229
vn -0.9752 0.0847 -0.2044
vn -0.9752 0.0432 -0.2170
vn -0.9752 -0.0000 -0.2212
vn -0.9752 -0.0432 -0.2170
vn -0.9752 -0.0847 -0.2044
vn -0.9752 -0.1229 -0.1839
vn -0.9752 -0.1564 -0.1564
vn -0.9752 -0.1839 -0.1229
vn -0.9752 -0.2044 -0.0847
vn -0.9752 -0.2170 -0.0432
vn -0.9752 -0.2212 -0.0000
vn -0.9752 -0.2170 0.0432
vn -0.9752 -0.2044 0.0847
vn -0.9752 -0.1839 0.1229
vn -0.9752 -0.1564 0.1564
vn -0.9752 -0.1229 0.1839
vn -0.9752 -0.0847 0.2044
vn -0.9752 -0.0432 0.2170
vn -0.9752 -0.0000 0.2212
vn -0.9752 0.0432 0.2170
vn -0.9752 0.0847 0.2044
vn -0.9752 0.1229 0.1839
vn -0.9752 0.1564 0.1564
vn -0.9752 0.1839 0.1229
vn -0.9752 0.2044 0.0847
vn -0.9752 0.2170 0.0432
vn -0.9752 0.2212 -0.0000
vn -0.8737 0.3439 0.3439
vn -0.8737 0.4044 0.2702
vn -0.8737 -0.0949 0.4771
vn -0.8737 -0.0000 0.4864
vn -0.8737 -0.4771 -0.0949
vn -0.8737 -0.4864 -0.0000
vn -0.8737 -0.1861 -0.4494
vn -0.8737 -0.2702 -0.4044
vn -0.8737 0.4494 0.1861
vn -0.8737 0.1861 -0.4494
vn -0.8737 -0.4771 0.0949
vn -0.8737 0.0949 0.4771
vn -0.8737 0.4771 0.0949
vn -0.8737 -0.3439 -0.3439
vn -0.8737 -0.4494 0.1861
vn -0.8737 0.0949 -0.4771
vn -0.8737 0.4771 -0.0949
vn -0.8737 0.4494 -0.1861
vn -0.8737 0.4864 -0.0000
vn -0.8737 0.1861 0.4494
vn -0.8737 0.4044 -0.2702
vn -0.8737 -0.4044 0.2702
vn -0.8737 -0.4044 -0.2702
vn -0.8737 -0.2702 0.4044
vn -0.8737 -0.1861 0.4494
vn -0.8737 -0.0000 -0.4864
vn -0.8737 -0.0949 -0.4771
vn -0.8737 -0.3440 0.3439
vn -0.8737 0.2702 0.4044
vn -0.8737 -0.4494 -0.1861
vn -0.8104 -0.3255 0.4871
vn -0.8104 -0.4142 0.4142
vn -0.8104 -0.4871 0.3255
vn -0.8104 0.5746 -0.1143
vn -0.8104 0.5858 -0.0000
vn -0.8104 -0.5412 0.2242
vn -0.8104 0.5746 0.1143
vn -0.8104 -0.5746 0.1143
vn -0.8104 0.5412 0.2242
vn -0.8104 -0.5858 -0.0000
vn -0.8104 0.4871 0.3255
vn -0.8104 -0.5746 -0.1143
vn -0.8104 0.4142 0.4142
vn -0.8104 -0.5412 -0.2242
vn -0.8104 0.3255 0.4871
vn -0.8104 -0.4871 -0.3255
vn -0.8104 0.2242 0.5412
vn -0.8104 -0.0000 -0.5858
vn -0.8104 0.1143 -0.5746
vn -0.8104 -0.4142 -0.4142
vn -0.8104 0.1143 0.5746
vn -0.8104 0.2242 -0.5412
vn -0.8104 -0.3255 -0.4871
vn -0.8104 -0.0000 0.5858
vn -0.8104 0.3255 -0.4871
vn -0.8104 -0.2242 -0.5412
vn -0.8104 -0.1143 0.5746
vn -0.8104 0.4142 -0.4142
vn -0.8104 -0.1143 -0.5746
vn -0.8104 -0.2242 0.5412
vn -0.8104 0.4871 -0.3255
vn -0.8104 0.5412 -0.2242
vt 0.144464 0.825765
vt 0.173044 0.794653
vt 0.187465 0.795966
vt 0.153961 0.826630
vt 0.199495 0.752410
vt 0.212490 0.708951
vt 0.232656 0.710787
vt 0.218144 0.754108
vt 0.512891 0.722638
vt 0.489082 0.573444
vt 0.513335 0.578659
vt 0.534528 0.727976
vt 0.489082 0.386733
vt 0.511255 0.390819
vt 0.343474 0.796486
vt 0.335188 0.755991
vt 0.356048 0.756671
vt 0.357210 0.796934
vt 0.329017 0.705758
vt 0.328518 0.659545
vt 0.357687 0.660496
vt 0.355992 0.706638
vt 0.333263 0.498971
vt 0.365766 0.500032
vt 0.347664 0.317258
vt 0.377218 0.318236
vt 0.865945 0.438625
vt 0.828009 0.439967
vt 0.817827 0.426571
vt 0.859241 0.429804
vt 0.544709 0.766766
vt 0.559709 0.731524
vt 0.567995 0.770048
vt 0.541509 0.582017
vt 0.536975 0.393316
vt 0.377277 0.757966
vt 0.371190 0.797786
vt 0.387374 0.662307
vt 0.383444 0.708312
vt 0.398845 0.502049
vt 0.407279 0.320056
vt 0.811342 0.411261
vt 0.854970 0.419722
vt 0.587465 0.733148
vt 0.593662 0.771549
vt 0.572514 0.583434
vt 0.565235 0.394212
vt 0.398060 0.759825
vt 0.384876 0.799010
vt 0.416435 0.664906
vt 0.410318 0.710716
vt 0.431229 0.504945
vt 0.436690 0.322645
vt 0.808801 0.394628
vt 0.853297 0.408769
vt 0.616730 0.732784
vt 0.620724 0.771212
vt 0.605149 0.582892
vt 0.594931 0.393567
vt 0.417598 0.762176
vt 0.397742 0.800559
vt 0.443756 0.668194
vt 0.435583 0.713756
vt 0.461672 0.508609
vt 0.464314 0.325894
vt 0.810304 0.377309
vt 0.854287 0.397364
vt 0.646378 0.730446
vt 0.648142 0.769051
vt 0.638160 0.580424
vt 0.624909 0.391475
vt 0.435140 0.764930
vt 0.409293 0.802373
vt 0.468286 0.672045
vt 0.458267 0.717318
vt 0.489005 0.512900
vt 0.489082 0.329664
vt 0.815792 0.359970
vt 0.857900 0.385947
vt 0.675272 0.726224
vt 0.674861 0.765147
vt 0.670280 0.576111
vt 0.654029 0.387948
vt 0.450011 0.767981
vt 0.419086 0.804381
vt 0.489082 0.676311
vt 0.477497 0.721262
vt -0.000000 0.682289
vt 0.006666 0.522485
vt 0.030556 0.526118
vt 0.021554 0.685564
vt 0.027606 0.338832
vt 0.048139 0.341985
vt 0.825054 0.343278
vt 0.864000 0.374955
vt 0.702300 0.720281
vt 0.699854 0.759651
vt 0.700280 0.570086
vt 0.681192 0.383026
vt 0.054550 0.814752
vt 0.036501 0.777927
vt 0.054432 0.780480
vt 0.066357 0.816433
vt 0.022930 0.730782
vt 0.046628 0.689133
vt 0.046117 0.734083
vt 0.058077 0.530043
vt 0.071738 0.345375
vt 0.920823 0.339726
vt 0.911345 0.289781
vt 0.931920 0.287975
vt 0.934372 0.338537
vt 0.899400 0.237917
vt 0.888173 0.202920
vt 0.916944 0.200394
vt 0.926006 0.235582
vt 0.851383 0.096809
vt 0.882244 0.094198
vt 0.821896 0.854371
vt 0.814018 0.755057
vt 0.840713 0.755329
vt 0.853218 0.854884
vt 0.837734 0.327875
vt 0.872350 0.364811
vt 0.787815 0.307096
vt 0.767508 0.277728
vt 0.785239 0.256188
vt 0.804213 0.287177
vt 0.727018 0.562532
vt 0.726423 0.712845
vt 0.705370 0.376813
vt 0.074191 0.783146
vt 0.079369 0.818188
vt 0.074259 0.692861
vt 0.071668 0.737530
vt 0.088069 0.534096
vt 0.097367 0.348855
vt 0.951807 0.289582
vt 0.947468 0.339595
vt 0.944753 0.202641
vt 0.951721 0.237660
vt 0.912450 0.096835
vt 0.868040 0.750485
vt 0.885033 0.849746
vt 0.853346 0.314351
vt 0.882630 0.355906
vt 0.807069 0.237278
vt 0.824400 0.269690
vt 0.749476 0.553688
vt 0.746715 0.704202
vt 0.725647 0.369481
vt 0.095020 0.785822
vt 0.093085 0.819951
vt 0.103384 0.696603
vt 0.098601 0.740991
vt 0.119299 0.538113
vt 0.123933 0.352278
vt 0.970241 0.294541
vt 0.959606 0.342861
vt 0.970530 0.209576
vt 0.975559 0.244072
vt 0.940764 0.104631
vt 0.894842 0.740699
vt 0.916039 0.839147
vt 0.871288 0.303228
vt 0.894445 0.348581
vt 0.832159 0.221723
vt 0.847601 0.255305
vt 0.766799 0.134113
vt 0.792554 0.117154
vt 0.741254 0.361260
vt 0.766799 0.543851
vt 0.116116 0.788406
vt 0.106977 0.821652
vt 0.132885 0.700217
vt 0.125882 0.744333
vt 0.150521 0.541933
vt 0.150343 0.355502
vt 0.986514 0.302661
vt 0.970322 0.348208
vt 0.245533 0.710376
vt 0.238239 0.664539
vt 0.254962 0.662034
vt 0.260997 0.708060
vt 0.232655 0.504517
vt 0.251301 0.501745
vt 0.255950 0.321867
vt 0.273004 0.319523
vt 0.890872 0.294931
vt 0.907341 0.343118
vt 0.859545 0.210122
vt 0.872926 0.244577
vt 0.821098 0.104561
vt 0.775935 0.017822
vt 0.799852 0.006719
vt 0.136671 0.790799
vt 0.120512 0.823228
vt 0.161627 0.703563
vt 0.152461 0.747427
vt 0.180535 0.545408
vt 0.175553 0.358401
vt 1.000000 0.313630
vt 0.979203 0.355431
vt 0.276149 0.660329
vt 0.280590 0.706483
vt 0.274909 0.499845
vt 0.294543 0.317926
vt 0.825451 -0.000000
vt 0.155893 0.792908
vt 0.133170 0.824617
vt 0.188506 0.706512
vt 0.177317 0.750154
vt 0.208237 0.548412
vt 0.198623 0.360867
vt 0.318812 0.796855
vt 0.297737 0.756551
vt 0.315499 0.755950
vt 0.330509 0.796459
vt 0.300986 0.659488
vt 0.303557 0.705705
vt 0.302584 0.498908
vt 0.319750 0.317157
vt 0.232656 0.550841
vt 0.218753 0.362816
vt 0.082519 0.075533
vt 0.077434 0.025444
vt 0.086882 0.026658
vt 0.095269 0.077171
vt 0.050009 0.070905
vt 0.053344 0.022015
vt 0.060336 0.023077
vt 0.059445 0.072338
vt 0.597217 0.097817
vt 0.592468 0.041560
vt 0.601841 0.040191
vt 0.609858 0.096013
vt 0.548230 0.096842
vt 0.556184 0.040759
vt 0.564353 0.041910
vt 0.559266 0.098333
vt 0.381327 0.055487
vt 0.387699 0.007831
vt 0.397161 0.008140
vt 0.394097 0.055904
vt 0.369274 0.055462
vt 0.378767 0.007813
vt 0.132475 0.081502
vt 0.114496 0.029873
vt 0.122276 0.030664
vt 0.142826 0.082551
vt 0.096452 0.027831
vt 0.108184 0.078753
vt 0.821162 0.545254
vt 0.840547 0.512278
vt 0.847837 0.517146
vt 0.830942 0.551817
vt 0.068470 0.024235
vt 0.070422 0.073901
vt 0.610609 0.038263
vt 0.621678 0.093474
vt 0.573357 0.042436
vt 0.571426 0.099000
vt 0.406792 0.008727
vt 0.407093 0.056696
vt 0.856183 0.520565
vt 0.842204 0.556431
vt 0.892380 0.553033
vt 0.893363 0.518047
vt 0.901815 0.513490
vt 0.903786 0.546884
vt 0.618435 0.035850
vt 0.632226 0.090283
vt 0.854458 0.558912
vt 0.865263 0.522403
vt 0.874729 0.522590
vt 0.867233 0.559164
vt 0.582850 0.042318
vt 0.584240 0.098824
vt 0.625018 0.033046
vt 0.641100 0.086550
vt 0.416219 0.009571
vt 0.419816 0.057834
vt 0.349125 0.056577
vt 0.363837 0.008639
vt 0.370710 0.008086
vt 0.358400 0.055830
vt 0.431777 0.059274
vt 0.425082 0.010637
vt 0.433039 0.011887
vt 0.442515 0.060960
vt 0.105776 0.028916
vt 0.120767 0.080218
vt 0.884218 0.521119
vt 0.880038 0.557179
vt 0.538745 0.094571
vt 0.549165 0.039027
vt 0.426642 0.164222
vt 0.444902 0.166407
vt 0.874243 0.634670
vt 0.892436 0.628264
vt 0.143018 0.191920
vt 0.158963 0.193638
vt 0.789051 0.749687
vt 0.820304 0.633947
vt 0.837425 0.637562
vt 0.332830 0.161148
vt 0.349446 0.160600
vt 0.588569 0.216952
vt 0.608371 0.215502
vt 0.071954 0.183003
vt 0.089442 0.185372
vt 0.518830 0.211741
vt 0.533420 0.214682
vt 0.855649 0.637807
vt 0.125686 0.189920
vt 0.461284 0.168950
vt 0.318644 0.162256
vt 0.407212 0.162489
vt 0.661610 0.205193
vt 0.675044 0.200103
vt 0.568979 0.217309
vt 0.645601 0.209537
vt 0.909453 0.618829
vt 0.919964 0.726333
vt 0.766799 0.739427
vt 0.804941 0.627101
vt 0.387363 0.161279
vt 0.550356 0.216551
vt 0.627627 0.213007
vt 0.055863 0.180701
vt 0.685394 0.194431
vt 0.107596 0.187709
vt 0.172981 0.195015
vt 0.367858 0.160642
vt 0.041864 0.178564
vt 0.647961 0.082403
vt 0.338931 0.817019
vt 0.348174 0.817038
vt 0.120823 0.840297
vt 0.128875 0.841116
vt 0.967232 0.377487
vt 0.985908 0.364253
vt 0.972012 0.383776
vt 0.111799 0.839307
vt 0.915999 0.368708
vt 0.925611 0.366290
vt 0.960900 0.372337
vt 0.102149 0.838184
vt 0.906805 0.372603
vt 0.953261 0.368525
vt 0.092245 0.836971
vt 0.898381 0.377826
vt 0.944606 0.366197
vt 0.082467 0.835714
vt 0.891052 0.384175
vt 0.935270 0.365442
vt 0.073190 0.834463
vt 0.885099 0.391406
vt 0.064772 0.833264
vt 0.880751 0.399243
vt 0.395099 0.821235
vt 0.402081 0.822667
vt 0.878174 0.407383
vt 0.386864 0.819942
vt 0.877469 0.415513
vt 0.377691 0.818838
vt 0.878662 0.423322
vt 0.367934 0.817965
vt 0.881706 0.430510
vt 0.357968 0.817357
vt 0.886486 0.436799
vt 0.892818 0.441949
vt 0.874826 0.445849
vt 0.914307 0.434473
vt 0.911175 0.431926
vt 0.354344 0.838393
vt 0.359188 0.838551
vt 0.908811 0.428815
vt 0.364118 0.838852
vt 0.907305 0.425260
vt 0.368944 0.839284
vt 0.906715 0.421398
vt 0.373481 0.839830
vt 0.907064 0.417376
vt 0.377554 0.840469
vt 0.908338 0.413350
vt 0.381008 0.841177
vt 0.910489 0.409474
vt 0.078154 0.852042
vt 0.082317 0.852635
vt 0.930527 0.397052
vt 0.935304 0.396632
vt 0.913433 0.405897
vt 0.086906 0.853254
vt 0.939922 0.397005
vt 0.917059 0.402757
vt 0.091742 0.853875
vt 0.944203 0.398157
vt 0.921225 0.400174
vt 0.096641 0.854475
vt 0.947981 0.400042
vt 0.925773 0.398247
vt 0.101414 0.855031
vt 0.951113 0.402589
vt 0.105877 0.855521
vt 0.953477 0.405700
vt 0.918085 0.436359
vt 0.900458 0.445761
vt 0.975057 0.390964
vt 0.954983 0.409255
vt 0.282586 0.757771
vt 0.996601 0.254573
vt 0.775838 0.328680
vt 0.768742 0.351101
vt 0.766799 0.373496
vt 0.605199 0.803849
vt 0.626127 0.803589
vt 0.585350 0.802688
vt 0.567342 0.800151
vt 0.882716 0.482139
vt 0.879067 0.484105
vt 0.873944 0.472452
vt 0.875586 0.471567
vt 0.909831 0.494326
vt 0.913945 0.487365
vt 0.919964 0.492913
vt 0.915376 0.500677
vt 0.904338 0.500554
vt 0.909248 0.507625
vt 0.105217 0.019921
vt 0.113033 0.020778
vt 0.856768 0.512154
vt 0.864908 0.513802
vt 0.897675 0.505812
vt 0.096858 0.018948
vt 0.849286 0.509089
vt 0.890098 0.509897
vt 0.088279 0.017897
vt 0.842751 0.504726
vt 0.881899 0.512651
vt 0.079809 0.016809
vt 0.614458 0.026601
vt 0.620359 0.024087
vt 0.873394 0.513970
vt 0.071774 0.015725
vt 0.607442 0.028763
vt 0.064482 0.014686
vt 0.599582 0.030491
vt 0.058214 0.013734
vt 0.591180 0.031719
vt 0.423167 0.002515
vt 0.430300 0.003635
vt 0.582558 0.032399
vt 0.415222 0.001559
vt 0.574047 0.032505
vt 0.406770 0.000803
vt 0.565976 0.032033
vt 0.398137 0.000277
vt 0.558653 0.031001
vt 0.389654 0.000000
vt 0.552361 0.029449
vt 0.120008 0.021488
vt 0.879113 0.467569
vt 0.878221 0.469077
vt 0.877031 0.470427
vt 0.872167 0.473049
vt 0.870324 0.473335
vt 0.868484 0.473299
vt 0.866720 0.472942
vt 0.865098 0.472277
vt 0.863682 0.471331
vt 0.862525 0.470140
vt 0.861672 0.468750
vt 0.861156 0.467213
vt 0.860996 0.465590
vt 0.861199 0.463942
vt 0.861757 0.462333
vt 0.862649 0.460824
vt 0.863840 0.459474
vt 0.865284 0.458335
vt 0.866926 0.457449
vt 0.868703 0.456852
vt 0.870547 0.456566
vt 0.872386 0.456603
vt 0.874150 0.456960
vt 0.875772 0.457624
vt 0.877188 0.458570
vt 0.878345 0.459761
vt 0.879198 0.461152
vt 0.879714 0.462688
vt 0.879874 0.464311
vt 0.879671 0.465959
vt 0.888845 0.455911
vt 0.890740 0.459000
vt 0.871519 0.448813
vt 0.875605 0.448894
vt 0.850302 0.468860
vt 0.850753 0.465199
vt 0.859415 0.483717
vt 0.856269 0.481615
vt 0.891887 0.462413
vt 0.875120 0.485432
vt 0.582877 0.009170
vt 0.578779 0.009221
vt 0.581426 0.000326
vt 0.583270 0.000303
vt 0.879525 0.449688
vt 0.892241 0.466020
vt 0.853698 0.478969
vt 0.574893 0.008994
vt 0.579676 0.000224
vt 0.871024 0.486067
vt 0.890550 0.473256
vt 0.888570 0.476608
vt 0.891790 0.469681
vt 0.883127 0.451163
vt 0.885924 0.479607
vt 0.571367 0.008497
vt 0.578089 0.000000
vt 0.851803 0.475880
vt 0.863475 0.450775
vt 0.867423 0.449448
vt 0.866938 0.485986
vt 0.863018 0.485192
vt 0.856619 0.455273
vt 0.859827 0.452742
vt 0.886274 0.453265
vt 0.850656 0.472467
vt 0.556384 0.016712
vt 0.560131 0.018214
vt 0.547340 0.027436
vt 0.564827 0.019373
vt 0.902392 0.480149
vt 0.904314 0.474608
vt 0.916519 0.479941
vt 0.570292 0.020143
vt 0.905013 0.468934
vt 0.917456 0.472338
vt 0.576316 0.020495
vt 0.904464 0.463344
vt 0.916720 0.464848
vt 0.582667 0.020416
vt 0.902686 0.458054
vt 0.914338 0.457759
vt 0.589102 0.019909
vt 0.899749 0.453266
vt 0.910403 0.451344
vt 0.595372 0.018992
vt 0.895765 0.449165
vt 0.905065 0.445849
vt 0.601238 0.017703
vt 0.072309 0.006605
vt 0.077751 0.007379
vt 0.865796 0.499879
vt 0.872129 0.500004
vt 0.606474 0.016089
vt 0.083748 0.008188
vt 0.878477 0.499020
vt 0.845277 0.489004
vt 0.849260 0.493105
vt 0.837413 0.499231
vt 0.090069 0.009001
vt 0.884596 0.496964
vt 0.854137 0.496362
vt 0.096471 0.009785
vt 0.890250 0.493916
vt 0.859721 0.498649
vt 0.102709 0.010511
vt 0.895223 0.489992
vt 0.108543 0.011151
vt 0.899323 0.485344
vt 0.587029 0.008843
vt 0.591075 0.008252
vt 0.095903 0.001552
vt 0.099928 0.002020
vt 0.594860 0.007419
vt 0.565919 0.006780
vt 0.568337 0.007749
vt 0.890888 0.445908
vt 0.103692 0.002433
vt 0.842340 0.484216
vt 0.083825 -0.000000
vt 0.087694 0.000522
vt 0.091772 0.001046
vt 0.955573 0.413118
vt 0.955224 0.417139
vt 0.953950 0.421166
vt 0.951799 0.425042
vt 0.948855 0.428618
vt 0.945230 0.431759
vt 0.941063 0.434342
vt 0.936516 0.436268
vt 0.931762 0.437464
vt 0.926984 0.437884
vt 0.922366 0.437510
s 1
f 287/1/1 41/2/2 160/3/3 285/4/4
f 323/5/5 42/6/6 159/7/7 352/8/8
f 42/9/6 43/10/9 158/11/10 159/12/7
f 43/10/9 44/13/11 157/14/12 158/11/10
f 286/15/13 33/16/14 156/17/15 284/18/16
f 321/19/17 34/20/18 155/21/19 351/22/20
f 34/20/18 35/23/21 154/24/22 155/21/19
f 35/23/21 36/25/23 153/26/24 154/24/22
f 285/27/4 160/28/3 152/29/25 283/30/26
f 352/31/8 159/12/7 151/32/27 350/33/28
f 159/12/7 158/11/10 150/34/29 151/32/27
f 158/11/10 157/14/12 149/35/30 150/34/29
f 284/18/16 156/17/15 148/36/31 282/37/32
f 351/22/20 155/21/19 147/38/33 349/39/34
f 155/21/19 154/24/22 146/40/35 147/38/33
f 154/24/22 153/26/24 145/41/36 146/40/35
f 283/30/26 152/29/25 144/42/37 281/43/38
f 350/33/28 151/32/27 143/44/39 348/45/40
f 151/32/27 150/34/29 142/46/41 143/44/39
f 150/34/29 149/35/30 141/47/42 142/46/41
f 282/37/32 148/36/31 140/48/43 280/49/44
f 349/39/34 147/38/33 139/50/45 347/51/46
f 147/38/33 146/40/35 138/52/47 139/50/45
f 146/40/35 145/41/36 137/53/48 138/52/47
f 281/43/38 144/42/37 136/54/49 279/55/50
f 348/45/40 143/44/39 135/56/51 346/57/52
f 143/44/39 142/46/41 134/58/53 135/56/51
f 142/46/41 141/47/42 133/59/54 134/58/53
f 280/49/44 140/48/43 132/60/55 278/61/56
f 347/51/46 139/50/45 131/62/57 345/63/58
f 139/50/45 138/52/47 130/64/59 131/62/57
f 138/52/47 137/53/48 129/65/60 130/64/59
f 279/55/50 136/54/49 128/66/61 277/67/62
f 346/57/52 135/56/51 127/68/63 344/69/64
f 135/56/51 134/58/53 126/70/65 127/68/63
f 134/58/53 133/59/54 125/71/66 126/70/65
f 278/61/56 132/60/55 124/72/67 276/73/68
f 345/63/58 131/62/57 123/74/69 343/75/70
f 131/62/57 130/64/59 122/76/71 123/74/69
f 130/64/59 129/65/60 121/77/72 122/76/71
f 277/67/62 128/66/61 120/78/73 275/79/74
f 344/69/64 127/68/63 119/80/75 342/81/76
f 127/68/63 126/70/65 118/82/77 119/80/75
f 126/70/65 125/71/66 117/83/78 118/82/77
f 276/73/68 124/72/67 116/84/79 274/85/80
f 343/75/70 123/74/69 115/86/81 341/87/82
f 123/88/69 122/89/71 114/90/83 115/91/81
f 122/89/71 121/92/72 113/93/84 114/90/83
f 275/79/74 120/78/73 112/94/85 273/95/86
f 342/81/76 119/80/75 111/96/87 340/97/88
f 119/80/75 118/82/77 110/98/89 111/96/87
f 118/82/77 117/83/78 109/99/90 110/98/89
f 274/100/80 116/101/79 108/102/91 272/103/92
f 341/104/82 115/91/81 107/105/93 339/106/94
f 115/91/81 114/90/83 106/107/95 107/105/93
f 114/90/83 113/93/84 105/108/96 106/107/95
f 288/109/97 57/110/98 104/111/99 271/112/100
f 327/113/101 58/114/102 103/115/103 338/116/104
f 58/114/102 59/117/105 102/118/106 103/115/103
f 59/119/105 60/120/107 101/121/108 102/122/106
f 273/95/86 112/94/85 100/123/109 270/124/110
f 340/125/88 111/126/87 99/127/111 337/128/112
f 111/96/87 110/98/89 98/129/113 99/130/111
f 110/98/89 109/99/90 97/131/114 98/129/113
f 272/103/92 108/102/91 96/132/115 269/133/116
f 339/106/94 107/105/93 95/134/117 336/135/118
f 107/105/93 106/107/95 94/136/119 95/134/117
f 106/107/95 105/108/96 93/137/120 94/136/119
f 271/112/100 104/111/99 92/138/121 268/139/122
f 338/116/104 103/115/103 91/140/123 335/141/124
f 103/115/103 102/118/106 90/142/125 91/140/123
f 102/122/106 101/121/108 89/143/126 90/144/125
f 270/124/110 100/123/109 88/145/127 267/146/128
f 337/128/112 99/127/111 87/147/129 334/148/130
f 99/130/111 98/129/113 86/149/131 87/150/129
f 98/129/113 97/131/114 85/151/132 86/149/131
f 269/133/116 96/132/115 84/152/133 266/153/134
f 336/135/118 95/134/117 83/154/135 333/155/136
f 95/134/117 94/136/119 82/156/137 83/154/135
f 94/136/119 93/137/120 81/157/138 82/156/137
f 268/139/122 92/138/121 80/158/139 265/159/140
f 335/141/124 91/140/123 79/160/141 332/161/142
f 91/140/123 90/142/125 78/162/143 79/160/141
f 90/144/125 89/143/126 77/163/144 78/164/143
f 267/146/128 88/145/127 76/165/145 264/166/146
f 334/148/130 87/147/129 75/167/147 331/168/148
f 87/147/129 86/169/131 74/170/149 75/167/147
f 86/149/131 85/151/132 73/171/150 74/172/149
f 266/153/134 84/152/133 72/173/151 263/174/152
f 333/155/136 83/154/135 71/175/153 330/176/154
f 83/154/135 82/156/137 70/177/155 71/175/153
f 82/156/137 81/157/138 69/178/156 70/177/155
f 265/159/140 80/158/139 68/179/157 262/180/158
f 332/181/142 79/182/141 67/183/159 329/184/160
f 79/182/141 78/185/143 66/186/161 67/183/159
f 78/185/143 77/187/144 65/188/162 66/186/161
f 264/166/146 76/165/145 64/189/163 261/190/164
f 331/168/148 75/167/147 63/191/165 328/192/166
f 75/167/147 74/170/149 62/193/167 63/191/165
f 74/170/149 73/194/150 61/195/168 62/193/167
f 263/174/152 72/173/151 56/196/169 260/197/170
f 330/176/154 71/175/153 55/198/171 326/199/172
f 71/175/153 70/177/155 54/200/173 55/198/171
f 70/177/155 69/178/156 53/201/174 54/200/173
f 262/180/158 68/179/157 52/202/175 259/203/176
f 329/184/160 67/183/159 51/204/177 325/205/178
f 67/183/159 66/186/161 50/206/179 51/204/177
f 66/186/161 65/188/162 49/207/180 50/206/179
f 261/190/164 64/189/163 57/110/98 288/109/97
f 328/192/166 63/191/165 58/114/102 327/113/101
f 63/191/165 62/193/167 59/117/105 58/114/102
f 62/193/167 61/195/168 60/208/107 59/117/105
f 260/197/170 56/196/169 48/209/181 258/210/182
f 326/199/172 55/198/171 47/211/183 324/212/184
f 55/198/171 54/200/173 46/213/185 47/211/183
f 54/200/173 53/201/174 45/214/186 46/213/185
f 259/215/176 52/216/175 40/217/187 257/218/188
f 325/205/178 51/204/177 39/219/189 322/220/190
f 51/204/177 50/206/179 38/221/191 39/219/189
f 50/206/179 49/207/180 37/222/192 38/221/191
f 258/210/182 48/209/181 41/2/2 287/1/1
f 324/212/184 47/211/183 42/6/6 323/5/5
f 47/211/183 46/213/185 43/223/9 42/6/6
f 46/213/185 45/214/186 44/224/11 43/223/9
f 257/218/188 40/217/187 33/16/14 286/15/13
f 322/220/190 39/219/189 34/20/18 321/19/17
f 39/219/189 38/221/191 35/23/21 34/20/18
f 38/221/191 37/222/192 36/25/23 35/23/21
f 203/225/193 367/226/194 364/227/195 195/228/196
f 221/229/197 374/230/198 372/231/199 207/232/200
f 217/233/201 375/234/202 373/235/203 212/236/204
f 206/237/205 383/238/206 381/239/207 223/240/208
f 209/241/209 353/242/210 382/243/211 218/244/212
f 222/245/213 354/246/214 353/242/210 209/241/209
f 210/247/215 356/248/216 384/249/217 199/250/218
f 195/228/196 364/227/195 361/251/219 214/252/220
f 211/253/221 365/254/222 362/255/223 200/256/224
f 207/232/200 372/231/199 370/257/225 215/258/226
f 212/236/204 373/235/203 371/259/227 201/260/228
f 223/240/208 381/239/207 379/261/229 208/262/230
f 218/244/212 382/243/211 380/263/231 213/264/232
f 200/256/224 362/255/223 359/265/233 193/266/234
f 219/267/235 363/268/236 360/269/237 196/270/238
f 201/260/228 371/259/227 368/271/239 205/272/240
f 220/273/241 358/274/242 369/275/243 197/276/244
f 208/262/230 379/261/229 377/277/245 216/278/246
f 205/272/240 368/271/239 365/279/222 211/280/221
f 213/264/232 380/263/231 378/281/247 224/282/248
f 196/283/238 360/284/237 355/285/249 198/286/250
f 204/287/251 376/288/252 374/289/198 221/290/197
f 214/252/220 361/251/219 357/291/253 202/292/254
f 197/276/244 369/275/243 366/293/255 194/294/256
f 199/295/218 384/296/217 383/238/206 206/237/205
f 215/258/226 370/257/225 367/226/194 203/225/193
f 216/278/246 377/277/245 375/234/202 217/233/201
f 198/286/250 355/285/249 354/246/214 222/245/213
f 193/266/234 359/265/233 358/274/242 220/273/241
f 202/292/254 357/291/253 356/248/216 210/247/215
f 194/294/256 366/293/255 363/268/236 219/267/235
f 224/282/248 378/281/247 376/288/252 204/287/251
f 137/53/48 191/297/257 189/298/258 129/65/60
f 89/143/126 165/299/259 183/300/260 77/163/144
f 53/201/174 185/301/261 168/302/262 45/214/186
f 61/303/168 163/304/263 184/305/264 60/120/107
f 49/207/180 177/306/265 188/307/266 37/222/192
f 133/59/54 176/308/267 178/309/268 125/71/66
f 105/108/96 175/310/269 187/311/270 93/137/120
f 44/13/11 179/312/271 161/313/272 157/14/12
f 101/121/108 172/314/273 165/299/259 89/143/126
f 69/178/156 174/315/274 185/301/261 53/201/174
f 129/65/60 189/298/258 186/316/275 121/77/72
f 65/188/162 171/317/276 177/306/265 49/207/180
f 145/41/36 173/318/277 191/297/257 137/53/48
f 97/131/114 192/319/278 169/320/279 85/151/132
f 141/47/42 164/321/280 176/308/267 133/59/54
f 60/120/107 184/305/264 172/314/273 101/121/108
f 109/99/90 181/322/281 192/319/278 97/131/114
f 77/163/144 183/300/260 171/323/276 65/324/162
f 73/325/150 180/326/282 163/304/263 61/303/168
f 153/26/24 182/327/283 173/318/277 145/41/36
f 149/35/30 190/328/284 164/321/280 141/47/42
f 117/83/78 170/329/285 181/322/281 109/99/90
f 113/93/84 162/330/286 175/310/269 105/108/96
f 85/151/132 169/320/279 180/331/282 73/171/150
f 81/157/138 166/332/287 174/315/274 69/178/156
f 45/214/186 168/302/262 179/333/271 44/224/11
f 37/222/192 188/307/266 167/334/288 36/25/23
f 36/25/23 167/334/288 182/327/283 153/26/24
f 157/14/12 161/313/272 190/328/284 149/35/30
f 125/71/66 178/309/268 170/329/285 117/83/78
f 121/92/72 186/335/275 162/330/286 113/93/84
f 93/137/120 187/311/270 166/332/287 81/157/138
f 191/297/257 224/282/248 204/287/251 189/298/258
f 165/299/259 194/294/256 219/267/235 183/300/260
f 185/301/261 202/292/254 210/247/215 168/302/262
f 163/304/263 193/266/234 220/273/241 184/305/264
f 177/306/265 198/286/250 222/245/213 188/307/266
f 176/308/267 216/278/246 217/233/201 178/309/268
f 175/310/269 215/258/226 203/225/193 187/311/270
f 179/312/271 199/295/218 206/237/205 161/313/272
f 172/314/273 197/276/244 194/294/256 165/299/259
f 174/315/274 214/252/220 202/292/254 185/301/261
f 189/298/258 204/287/251 221/290/197 186/316/275
f 171/317/276 196/283/238 198/286/250 177/306/265
f 173/318/277 213/264/232 224/282/248 191/297/257
f 192/319/278 205/272/240 211/280/221 169/320/279
f 164/321/280 208/262/230 216/278/246 176/308/267
f 184/305/264 220/273/241 197/276/244 172/314/273
f 181/322/281 201/260/228 205/272/240 192/319/278
f 183/300/260 219/267/235 196/270/238 171/323/276
f 180/326/282 200/256/224 193/266/234 163/304/263
f 182/327/283 218/244/212 213/264/232 173/318/277
f 190/328/284 223/240/208 208/262/230 164/321/280
f 170/329/285 212/236/204 201/260/228 181/322/281
f 162/330/286 207/232/200 215/258/226 175/310/269
f 169/320/279 211/280/221 200/336/224 180/331/282
f 166/332/287 195/228/196 214/252/220 174/315/274
f 168/302/262 210/247/215 199/250/218 179/333/271
f 188/307/266 222/245/213 209/241/209 167/334/288
f 167/334/288 209/241/209 218/244/212 182/327/283
f 161/313/272 206/237/205 223/240/208 190/328/284
f 178/309/268 217/233/201 212/236/204 170/329/285
f 186/335/275 221/229/197 207/232/200 162/330/286
f 187/311/270 203/225/193 195/228/196 166/332/287
f 289/337/289 257/218/188 286/15/13 318/338/290
f 290/339/291 258/210/182 287/1/1 319/340/292
f 291/341/293 259/203/176 257/342/188 289/343/289
f 292/344/294 260/197/170 258/210/182 290/339/291
f 293/345/295 261/190/164 288/109/97 320/346/296
f 294/347/297 262/180/158 259/203/176 291/341/293
f 295/348/298 263/174/152 260/197/170 292/344/294
f 296/349/299 264/166/146 261/190/164 293/345/295
f 297/350/300 265/159/140 262/180/158 294/347/297
f 298/351/301 266/153/134 263/174/152 295/348/298
f 299/352/302 267/146/128 264/166/146 296/349/299
f 300/353/303 268/139/122 265/159/140 297/350/300
f 301/354/304 269/133/116 266/153/134 298/351/301
f 302/355/305 270/124/110 267/146/128 299/352/302
f 303/356/306 271/112/100 268/139/122 300/353/303
f 304/357/307 272/103/92 269/133/116 301/354/304
f 305/358/308 273/95/86 270/124/110 302/355/305
f 320/346/296 288/109/97 271/112/100 303/356/306
f 306/359/309 274/100/80 272/103/92 304/357/307
f 307/360/310 275/79/74 273/95/86 305/358/308
f 308/361/311 276/73/68 274/85/80 306/362/309
f 309/363/312 277/67/62 275/79/74 307/360/310
f 310/364/313 278/61/56 276/73/68 308/361/311
f 311/365/314 279/55/50 277/67/62 309/363/312
f 312/366/315 280/49/44 278/61/56 310/364/313
f 313/367/316 281/43/38 279/55/50 311/365/314
f 314/368/317 282/37/32 280/49/44 312/366/315
f 315/369/318 283/30/26 281/43/38 313/367/316
f 316/370/319 284/18/16 282/37/32 314/368/317
f 317/371/320 285/27/4 283/30/26 315/369/318
f 318/338/290 286/15/13 284/18/16 316/370/319
f 319/372/292 287/373/1 285/27/4 317/371/320
f 13/374/321 319/372/292 317/371/320 12/375/322
f 26/376/323 318/338/290 316/370/319 25/377/324
f 12/375/322 317/371/320 315/369/318 11/378/325
f 25/377/324 316/370/319 314/368/317 24/379/326
f 11/378/325 315/369/318 313/367/316 10/380/327
f 24/379/326 314/368/317 312/366/315 23/381/328
f 10/380/327 313/367/316 311/365/314 9/382/329
f 23/381/328 312/366/315 310/364/313 22/383/330
f 9/382/329 311/365/314 309/363/312 8/384/331
f 22/383/330 310/364/313 308/361/311 21/385/332
f 8/384/331 309/363/312 307/360/310 7/386/333
f 21/385/332 308/361/311 306/362/309 20/387/334
f 7/386/333 307/360/310 305/358/308 6/388/335
f 20/389/334 306/359/309 304/357/307 19/390/336
f 1/391/337 320/346/296 303/356/306 32/392/338
f 6/388/335 305/358/308 302/355/305 5/393/339
f 19/390/336 304/357/307 301/354/304 18/394/340
f 32/392/338 303/356/306 300/353/303 31/395/341
f 5/393/339 302/355/305 299/352/302 4/396/342
f 18/394/340 301/354/304 298/351/301 17/397/343
f 31/395/341 300/353/303 297/350/300 30/398/344
f 4/396/342 299/352/302 296/349/299 3/399/345
f 17/397/343 298/351/301 295/348/298 16/400/346
f 30/398/344 297/350/300 294/347/297 29/401/347
f 3/399/345 296/349/299 293/345/295 2/402/348
f 16/400/346 295/348/298 292/344/294 15/403/349
f 29/401/347 294/347/297 291/341/293 28/404/350
f 2/402/348 293/345/295 320/346/296 1/391/337
f 15/403/349 292/344/294 290/339/291 14/405/351
f 28/404/350 291/341/293 289/343/289 27/406/352
f 14/407/351 290/408/291 319/372/292 13/374/321
f 27/406/352 289/343/289 318/409/290 26/410/323
f 40/217/187 322/220/190 321/19/17 33/16/14
f 48/209/181 324/212/184 323/5/5 41/2/2
f 52/216/175 325/205/178 322/220/190 40/217/187
f 56/196/169 326/199/172 324/212/184 48/209/181
f 64/189/163 328/192/166 327/113/101 57/110/98
f 68/411/157 329/184/160 325/205/178 52/216/175
f 72/173/151 330/176/154 326/199/172 56/196/169
f 76/165/145 331/168/148 328/192/166 64/189/163
f 80/158/139 332/161/142 329/412/160 68/179/157
f 84/152/133 333/155/136 330/176/154 72/173/151
f 88/145/127 334/148/130 331/168/148 76/165/145
f 92/138/121 335/141/124 332/161/142 80/158/139
f 96/132/115 336/135/118 333/155/136 84/152/133
f 100/123/109 337/128/112 334/148/130 88/145/127
f 104/111/99 338/116/104 335/141/124 92/138/121
f 108/102/91 339/106/94 336/135/118 96/132/115
f 112/94/85 340/125/88 337/128/112 100/123/109
f 57/110/98 327/113/101 338/116/104 104/111/99
f 116/101/79 341/104/82 339/106/94 108/102/91
f 120/78/73 342/413/76 340/125/88 112/94/85
f 124/72/67 343/75/70 341/87/82 116/84/79
f 128/66/61 344/414/64 342/413/76 120/78/73
f 132/60/55 345/63/58 343/75/70 124/72/67
f 136/54/49 346/415/52 344/414/64 128/66/61
f 140/48/43 347/51/46 345/63/58 132/60/55
f 144/416/37 348/45/40 346/57/52 136/417/49
f 148/36/31 349/39/34 347/51/46 140/48/43
f 152/418/25 350/33/28 348/45/40 144/416/37
f 156/17/15 351/22/20 349/39/34 148/36/31
f 160/419/3 352/31/8 350/33/28 152/418/25
f 33/16/14 321/19/17 351/22/20 156/17/15
f 41/2/2 323/5/5 352/8/8 160/3/3
f 450/420/353 449/421/354 395/422/355 392/423/356
f 417/424/357 418/425/358 353/426/210 354/427/214
f 419/428/359 417/424/357 354/427/214 355/429/249
f 420/430/360 421/431/361 356/248/216 357/291/253
f 422/432/362 423/433/363 358/274/242 359/265/233
f 424/434/364 419/428/359 355/429/249 360/269/237
f 425/435/365 420/430/360 357/291/253 361/251/219
f 426/436/366 422/432/362 359/265/233 362/255/223
f 427/437/367 424/434/364 360/269/237 363/268/236
f 428/438/368 425/435/365 361/251/219 364/227/195
f 429/439/369 426/436/366 362/255/223 365/254/222
f 430/440/370 427/437/367 363/268/236 366/293/255
f 431/441/371 428/438/368 364/227/195 367/226/194
f 432/442/372 429/443/369 365/279/222 368/271/239
f 433/444/373 430/440/370 366/293/255 369/275/243
f 434/445/374 431/441/371 367/226/194 370/257/225
f 435/446/375 432/442/372 368/271/239 371/259/227
f 423/433/363 433/444/373 369/275/243 358/274/242
f 436/447/376 434/445/374 370/257/225 372/231/199
f 437/448/377 435/446/375 371/259/227 373/235/203
f 438/449/378 436/447/376 372/231/199 374/230/198
f 439/450/379 437/448/377 373/235/203 375/234/202
f 440/451/380 438/452/378 374/289/198 376/288/252
f 441/453/381 439/450/379 375/234/202 377/277/245
f 442/454/382 440/451/380 376/288/252 378/281/247
f 443/455/383 441/453/381 377/277/245 379/261/229
f 444/456/384 442/454/382 378/281/247 380/263/231
f 445/457/385 443/455/383 379/261/229 381/239/207
f 446/458/386 444/456/384 380/263/231 382/243/211
f 447/459/387 445/457/385 381/239/207 383/238/206
f 418/460/358 446/458/386 382/243/211 353/242/210
f 448/461/388 447/459/387 383/238/206 384/296/217
f 421/431/361 448/462/388 384/249/217 356/248/216
f 385/463/389 386/464/390 387/465/391 392/423/356 395/422/355 398/466/392 401/467/393 390/468/394 391/469/395 394/470/396 397/471/397 400/472/398 403/473/399 405/474/400 407/475/401 409/476/402 411/477/403 413/478/404 415/479/405 416/480/406 388/481/407 389/482/408 393/483/409 396/484/410 399/485/411 402/486/412 404/487/413 406/488/414 408/489/415 410/490/416 412/491/417 414/492/418
f 452/493/419 451/494/420 408/489/415 406/488/414
f 454/495/421 453/496/422 396/484/410 393/483/409
f 456/497/423 455/498/424 409/476/402 407/475/401
f 458/499/425 457/500/426 397/471/397 394/470/396
f 451/494/420 459/501/427 410/490/416 408/489/415
f 449/421/354 460/502/428 398/466/392 395/422/355
f 455/503/424 461/504/429 411/505/403 409/506/402
f 453/496/422 462/507/430 399/485/411 396/484/410
f 459/501/427 463/508/431 412/491/417 410/490/416
f 457/500/426 464/509/432 400/472/398 397/471/397
f 461/504/429 465/510/433 413/511/404 411/505/403
f 460/502/428 466/512/434 401/467/393 398/466/392
f 468/513/435 467/514/436 386/464/390 385/463/389
f 463/508/431 469/515/437 414/492/418 412/491/417
f 462/507/430 470/516/438 402/486/412 399/485/411
f 467/514/436 471/517/439 387/465/391 386/464/390
f 465/510/433 472/518/440 415/519/405 413/511/404
f 464/509/432 473/520/441 403/473/399 400/472/398
f 475/521/442 474/522/443 389/482/408 388/481/407
f 469/515/437 468/513/435 385/463/389 414/492/418
f 466/512/434 476/523/444 390/468/394 401/467/393
f 476/523/444 477/524/445 391/469/395 390/468/394
f 472/525/440 478/526/446 416/480/406 415/479/405
f 470/516/438 479/527/447 404/487/413 402/486/412
f 471/517/439 450/420/353 392/423/356 387/465/391
f 478/526/446 475/521/442 388/481/407 416/480/406
f 473/520/441 480/528/448 405/474/400 403/473/399
f 474/522/443 454/495/421 393/483/409 389/482/408
f 479/527/447 452/493/419 406/488/414 404/487/413
f 477/524/445 458/499/425 394/470/396 391/469/395
f 480/528/448 456/497/423 407/475/401 405/474/400
f 228/529/449 256/530/450 448/461/388 421/531/361
f 256/530/450 255/532/451 447/459/387 448/461/388
f 225/533/452 254/534/453 446/535/386 418/425/358
f 255/532/451 253/536/454 445/457/385 447/459/387
f 254/534/453 252/537/455 444/538/384 446/535/386
f 253/536/454 251/539/456 443/455/383 445/457/385
f 252/537/455 250/540/457 442/541/382 444/538/384
f 251/539/456 249/542/458 441/453/381 443/455/383
f 250/540/457 248/543/459 440/544/380 442/541/382
f 249/542/458 247/545/460 439/450/379 441/453/381
f 248/543/459 246/546/461 438/547/378 440/544/380
f 247/545/460 245/548/462 437/448/377 439/450/379
f 246/546/461 244/549/463 436/550/376 438/547/378
f 245/548/462 243/551/464 435/446/375 437/448/377
f 244/552/463 242/553/465 434/445/374 436/447/376
f 230/554/466 241/555/467 433/444/373 423/433/363
f 243/551/464 240/556/468 432/442/372 435/446/375
f 242/553/465 239/557/469 431/441/371 434/445/374
f 241/555/467 238/558/470 430/440/370 433/444/373
f 240/559/468 237/560/471 429/439/369 432/561/372
f 239/557/469 236/562/472 428/438/368 431/441/371
f 238/558/470 235/563/473 427/437/367 430/440/370
f 237/560/471 234/564/474 426/436/366 429/439/369
f 236/562/472 233/565/475 425/435/365 428/438/368
f 235/563/473 232/566/476 424/434/364 427/437/367
f 234/564/474 231/567/477 422/432/362 426/436/366
f 233/565/475 229/568/478 420/430/360 425/435/365
f 232/566/476 227/569/479 419/428/359 424/434/364
f 231/567/477 230/554/466 423/433/363 422/432/362
f 229/568/478 228/570/449 421/431/361 420/430/360
f 227/569/479 226/571/480 417/424/357 419/428/359
f 226/571/480 225/533/452 418/425/358 417/424/357
f 245/548/462 247/545/460 456/572/423 480/573/448
f 231/567/477 234/564/474 458/499/425 477/524/445
f 244/549/463 246/546/461 452/493/419 479/527/447
f 229/568/478 233/565/475 454/574/421 474/575/443
f 243/551/464 245/548/462 480/573/448 473/576/441
f 256/530/450 228/529/449 475/577/442 478/578/446
f 227/569/479 232/566/476 450/420/353 471/517/439
f 242/579/465 244/549/463 479/527/447 470/516/438
f 255/532/451 256/530/450 478/578/446 472/518/440
f 230/554/466 231/567/477 477/524/445 476/523/444
f 241/555/467 230/554/466 476/523/444 466/512/434
f 254/534/453 225/533/452 468/513/435 469/515/437
f 228/570/449 229/568/478 474/575/443 475/580/442
f 240/559/468 243/581/464 473/520/441 464/509/432
f 253/536/454 255/532/451 472/518/440 465/510/433
f 226/571/480 227/569/479 471/517/439 467/514/436
f 239/557/469 242/553/465 470/582/438 462/583/430
f 252/537/455 254/534/453 469/515/437 463/508/431
f 225/533/452 226/571/480 467/514/436 468/513/435
f 238/558/470 241/555/467 466/512/434 460/502/428
f 251/539/456 253/536/454 465/510/433 461/504/429
f 237/560/471 240/559/468 464/509/432 457/500/426
f 250/540/457 252/537/455 463/508/431 459/501/427
f 236/562/472 239/557/469 462/583/430 453/584/422
f 249/542/458 251/539/456 461/504/429 455/503/424
f 235/563/473 238/558/470 460/502/428 449/421/354
f 248/543/459 250/540/457 459/501/427 451/494/420
f 234/564/474 237/560/471 457/500/426 458/499/425
f 247/545/460 249/542/458 455/503/424 456/572/423
f 233/565/475 236/562/472 453/584/422 454/574/421
f 246/546/461 248/543/459 451/494/420 452/493/419
f 232/566/476 235/563/473 449/421/354 450/420/353
f 2/402/348 1/391/337 32/392/338 31/395/341 30/398/344 29/401/347 28/404/350 27/406/352 26/410/323 25/585/324 24/586/326 23/587/328 22/588/330 21/589/332 20/590/334 19/591/336 18/592/340 17/593/343 16/594/346 15/595/349 14/407/351 13/374/321 12/375/322 11/378/325 10/380/327 9/382/329 8/384/331 7/386/333 6/388/335 5/393/339 4/396/342 3/399/345
