# Blender 4.0.1
# www.blender.org
o Bomber_Wing_Trim_Glow_Left
v -0.363514 0.463797 -0.984716
v -0.779797 0.463858 -4.589231
v -0.375077 0.492225 -1.731871
v -0.403213 0.490331 -2.429722
v -0.431063 0.492334 -3.137222
v -0.628545 0.492717 -3.840710
v -0.363514 -0.071573 -0.984716
v -0.779797 -0.071634 -4.589231
v -0.375077 -0.100783 -1.731871
v -0.403213 -0.102678 -2.429722
v -0.431063 -0.100674 -3.137222
v -0.628545 -0.100291 -3.840710
v -0.353695 0.314102 -0.896386
v -0.348373 0.196000 -0.848502
v -0.353695 0.077985 -0.896386
v -0.790413 0.314109 -4.677844
v -0.796169 0.196000 -4.725881
v -0.790413 0.077978 -4.677844
v -0.750147 0.468056 -3.147814
v -0.864210 0.477225 -3.858122
v -0.235689 0.477997 -3.103808
v -0.466083 0.484440 -3.804852
v -0.748501 0.464964 -2.435726
v -0.136724 0.468175 -2.399420
v -0.748553 0.462159 -1.732179
v -0.034262 0.463391 -1.710008
v -0.755867 0.417692 -0.978759
v 0.029088 0.412084 -0.969941
v -0.961247 0.440745 -4.603341
v -0.695142 0.458400 -4.572623
v -0.750178 -0.076104 -3.147811
v -0.864212 -0.084887 -3.858120
v -0.235810 -0.089238 -3.103876
v -0.466117 -0.091652 -3.804870
v -0.748557 -0.073321 -2.435723
v -0.136883 -0.087508 -2.399423
v -0.748587 -0.070215 -1.732177
v -0.034372 -0.075774 -1.709938
v -0.755864 -0.025642 -0.978759
v 0.029152 -0.019617 -0.969925
v -0.961248 -0.048561 -4.603343
v -0.695142 -0.066190 -4.572618
v 0.066382 0.274254 -0.882690
v -0.771943 0.106271 -0.889075
v -0.987329 0.292028 -4.686884
v -0.695485 0.081483 -4.678837
v 0.066385 0.117726 -0.882686
v 0.081995 0.195959 -0.839052
v -0.771943 0.285704 -0.889072
v -0.779644 0.195957 -0.843922
v -0.987330 0.100018 -4.686887
v -0.999576 0.195984 -4.731913
v -0.695485 0.310580 -4.678842
v -0.695782 0.195991 -4.726208
v -0.757726 0.439202 -0.965097
v -0.363488 0.484587 -0.972338
v 0.030885 0.432964 -0.955328
v -0.692840 0.481363 -4.583586
v -0.779463 0.484345 -4.602112
v -0.962466 0.461412 -4.618314
v -0.031789 0.488813 -1.709389
v -0.374970 0.518234 -1.731292
v -0.750796 0.487602 -1.731528
v -0.134634 0.493638 -2.399494
v -0.403146 0.516226 -2.429701
v -0.750437 0.490440 -2.435632
v -0.233799 0.503476 -3.103930
v -0.430959 0.518357 -3.137188
v -0.752027 0.493534 -3.147442
v -0.464392 0.509923 -3.805564
v -0.628759 0.518760 -3.841178
v -0.866319 0.502687 -3.858289
v -0.757726 -0.047151 -0.965097
v -0.363528 -0.132663 -0.972319
v 0.030887 -0.040483 -0.955284
v -0.692818 -0.089154 -4.583574
v -0.779453 -0.132435 -4.602107
v -0.962462 -0.069233 -4.618309
v -0.032178 -0.101217 -1.709156
v -0.375168 -0.167151 -1.731180
v -0.750914 -0.095649 -1.731480
v -0.135283 -0.113007 -2.399427
v -0.403475 -0.169175 -2.429691
v -0.750653 -0.098784 -2.435628
v -0.234312 -0.114742 -3.104119
v -0.431171 -0.167045 -3.137259
v -0.752137 -0.101576 -3.147484
v -0.464528 -0.117142 -3.805604
v -0.628779 -0.166632 -3.841187
v -0.866320 -0.110349 -3.858292
v 0.006056 0.262178 -0.854322
v -0.711075 0.071265 -0.863375
v -0.353749 0.037295 -0.873926
v -0.926182 0.283090 -4.712898
v -0.755651 0.038841 -4.703799
v -0.789756 0.037758 -4.700528
v 0.006061 0.089472 -0.854308
v 0.019913 0.175791 -0.810064
v -0.711077 0.280381 -0.863364
v -0.718141 0.175789 -0.816788
v -0.353751 0.314461 -0.873921
v -0.348455 0.175835 -0.822953
v -0.926182 0.068630 -4.712898
v -0.937501 0.175819 -4.759101
v -0.755650 0.312889 -4.703815
v -0.757207 0.175824 -4.751529
v -0.789756 0.314001 -4.700531
v -0.795980 0.175835 -4.751430
v -0.690773 0.497362 -3.152364
v -0.805715 0.507491 -3.867109
v -0.293702 0.507785 -3.089932
v -0.522935 0.514565 -3.787421
v -0.689175 0.494094 -2.435666
v -0.195232 0.497826 -2.390662
v -0.689591 0.491857 -1.731036
v -0.092550 0.493531 -1.702090
v -0.696172 0.436211 -0.962291
v -0.030668 0.426331 -0.948404
v -0.901026 0.457436 -4.624638
v -0.754812 0.484353 -4.577283
v -0.690897 -0.145948 -3.152399
v -0.805716 -0.155456 -3.867107
v -0.294280 -0.158760 -3.090171
v -0.523091 -0.161903 -3.787486
v -0.689421 -0.143196 -2.435660
v -0.195967 -0.156985 -2.390594
v -0.689729 -0.140450 -1.730994
v -0.093005 -0.145728 -1.701797
v -0.696170 -0.084494 -0.962297
v -0.030636 -0.073960 -0.948323
v -0.901022 -0.105559 -4.624633
v -0.754786 -0.132501 -4.577272
v 0.066611 0.286114 -0.860061
v -0.772360 0.094346 -0.866484
v -0.987214 0.303303 -4.709811
v -0.694227 0.069680 -4.701461
v 0.066614 0.105854 -0.860063
v 0.081857 0.195955 -0.813503
v -0.772363 0.297622 -0.866476
v -0.779668 0.195953 -0.818372
v -0.987214 0.088735 -4.709810
v -0.999224 0.195981 -4.757460
v -0.694225 0.322375 -4.701471
v -0.695766 0.195987 -4.751757
vn -0.6281 -0.7769 0.0442
vn -0.6601 -0.7433 0.1086
vn 0.0084 -0.9998 0.0183
vn -0.0041 -1.0000 -0.0013
vn 0.6141 -0.7672 -0.1852
vn 0.6555 -0.7377 -0.1617
vn -0.6502 -0.7598 -0.0021
vn -0.0026 -1.0000 -0.0008
vn 0.6374 -0.7641 -0.0992
vn -0.6493 -0.7602 -0.0233
vn -0.0042 -0.9997 -0.0227
vn 0.6529 -0.7504 -0.1027
vn -0.7719 -0.5202 -0.3653
vn -0.0010 -0.8748 -0.4845
vn 0.7626 -0.4646 -0.4501
vn -0.7924 -0.4308 0.4318
vn -0.0131 -0.8635 0.5042
vn 0.7310 -0.6548 0.1920
vn -0.6256 0.7788 0.0453
vn 0.0043 1.0000 0.0015
vn 0.0091 0.9998 0.0187
vn -0.6598 0.7435 0.1087
vn 0.6655 0.7295 -0.1577
vn 0.6170 0.7650 -0.1844
vn -0.6461 0.7632 -0.0022
vn 0.0103 0.9999 -0.0012
vn 0.6532 0.7504 -0.1013
vn -0.6467 0.7623 -0.0246
vn 0.0036 0.9996 -0.0271
vn 0.6608 0.7429 -0.1075
vn -0.7715 0.5209 -0.3653
vn 0.0005 0.8744 -0.4852
vn 0.7636 0.4618 -0.4513
vn -0.0135 0.8636 0.5039
vn -0.7925 0.4308 0.4317
vn 0.7310 0.6548 0.1920
vn -0.7050 0.2808 -0.6512
vn 0.0021 0.4767 -0.8791
vn 0.6936 0.2139 -0.6879
vn 0.6985 0.3376 0.6310
vn -0.0257 0.4594 0.8878
vn -0.7112 0.2290 0.6647
vn -0.7111 -0.2289 0.6648
vn -0.0257 -0.4591 0.8880
vn -0.8289 -0.0000 0.5595
vn -0.0074 0.0001 1.0000
vn 0.6985 -0.3373 0.6311
vn 0.7947 0.0001 0.6071
vn 0.6932 -0.2139 -0.6882
vn 0.0022 -0.4763 -0.8793
vn 0.8364 0.0001 -0.5481
vn 0.0032 0.0001 -1.0000
vn -0.7050 -0.2806 -0.6513
vn -0.8210 0.0001 -0.5709
vn -0.0712 0.9974 0.0151
vn 0.0032 1.0000 0.0011
vn -0.0152 0.9996 -0.0220
vn -0.0716 0.9973 -0.0141
vn 0.0746 0.9972 -0.0045
vn 0.0645 0.9975 -0.0298
vn -0.0712 0.9975 0.0038
vn 0.0029 1.0000 0.0006
vn 0.0792 0.9969 -0.0019
vn -0.0679 0.9971 0.0329
vn 0.0056 0.9996 0.0273
vn 0.0717 0.9968 0.0352
vn -0.0314 0.8470 0.5307
vn 0.0025 0.8724 0.4888
vn 0.0283 0.8247 0.5649
vn 0.0835 0.8271 -0.5558
vn -0.0199 0.8118 -0.5836
vn 0.0852 0.9177 -0.3881
vn -0.3337 -0.9421 0.0342
vn -0.3467 -0.9376 0.0262
vn -0.0146 -0.9996 -0.0226
vn -0.0053 -1.0000 -0.0016
vn 0.3185 -0.9416 -0.1098
vn 0.3409 -0.9371 -0.0754
vn -0.3499 -0.9368 0.0038
vn -0.0115 -0.9999 0.0009
vn 0.3341 -0.9417 -0.0397
vn -0.3458 -0.9378 0.0307
vn -0.0029 -0.9995 0.0318
vn 0.3438 -0.9390 0.0072
vn -0.2765 -0.8297 0.4849
vn 0.0010 -0.8720 0.4895
vn 0.2682 -0.8212 0.5037
vn -0.2655 -0.8114 -0.5208
vn 0.0839 -0.8271 -0.5558
vn 0.2924 -0.8790 -0.3768
vn -0.1383 -0.4744 0.8694
vn -0.0040 -0.4516 0.8922
vn 0.1379 -0.4833 0.8645
vn 0.1935 -0.4610 -0.8661
vn 0.0773 -0.4357 -0.8968
vn -0.1134 -0.4393 -0.8912
vn 0.0775 0.4355 -0.8969
vn 0.0426 0.4183 -0.9073
vn -0.0054 -0.0001 -1.0000
vn -0.0219 -0.0465 -0.9987
vn 0.0310 0.4505 -0.8922
vn 0.0148 -0.0337 -0.9993
vn -0.0041 0.4512 0.8924
vn -0.0343 0.4550 0.8898
vn -0.0053 -0.0001 1.0000
vn 0.0425 -0.0554 0.9976
vn 0.0298 0.4564 0.8893
vn -0.0378 -0.0451 0.9983
vn -0.6780 0.3995 -0.6170
vn -0.6601 0.0566 -0.7490
vn 0.7666 -0.4674 -0.4404
vn 0.7717 -0.2760 -0.5730
vn -0.7409 0.6713 0.0206
vn -0.7549 0.6558 0.0034
vn -0.9090 -0.4168 0.0025
vn -0.9019 -0.4317 0.0120
vn 0.6734 0.3566 -0.6476
vn 0.5922 0.6673 -0.4517
vn 0.6470 0.0558 -0.7605
vn 0.7780 -0.4194 0.4677
vn 0.7840 -0.5467 0.2942
vn 0.7524 0.6508 -0.1022
vn 0.7401 0.6701 -0.0571
vn 0.8921 -0.4446 -0.0802
vn 0.8947 -0.4287 -0.1255
vn 0.6753 0.0627 0.7349
vn -0.6193 0.6930 0.3690
vn -0.7959 -0.5078 0.3297
vn 0.6744 0.4682 0.5709
vn -0.6741 0.4108 0.6139
vn 0.6036 0.7185 0.3455
vn -0.6534 0.0623 0.7544
vn -0.7293 0.6784 0.0891
vn -0.6184 0.6976 -0.3617
vn -0.7900 -0.5248 -0.3172
vn -0.8878 -0.4453 0.1165
vn -0.7777 -0.3470 0.5243
vn -0.7374 0.6723 0.0660
vn -0.9010 -0.4271 0.0764
vn 0.7217 0.6515 -0.2341
vn 0.8665 -0.4155 -0.2765
vn 0.7539 0.6352 -0.1680
vn 0.8851 -0.4182 -0.2044
vn -0.7708 -0.3557 -0.5286
vt 0.279904 0.405170
vt 0.261598 0.536864
vt 0.305058 0.532720
vt 0.338810 0.401953
vt 0.334950 0.525469
vt 0.374790 0.395026
vt 0.277441 0.273579
vt 0.341200 0.271107
vt 0.390347 0.264482
vt 0.274690 0.143574
vt 0.343679 0.142040
vt 0.406584 0.136695
vt 0.270272 0.004327
vt 0.342925 0.003947
vt 0.415689 -0.000407
vt 0.246598 0.674022
vt 0.280047 0.671648
vt 0.295723 0.670595
vt 0.658263 0.266455
vt 0.717241 0.268425
vt 0.680736 0.138400
vt 0.637189 0.135177
vt 0.753330 0.274581
vt 0.710767 0.145012
vt 0.658561 0.398070
vt 0.722392 0.399194
vt 0.771613 0.404784
vt 0.658569 0.528102
vt 0.727597 0.528178
vt 0.790564 0.532210
vt 0.657225 0.667423
vt 0.729741 0.666258
vt 0.802307 0.668506
vt 0.652780 0.000034
vt 0.619111 -0.002630
vt 0.668447 0.003084
vt 0.654268 0.683986
vt 0.731576 0.682497
vt 0.809240 0.685349
vt 0.565656 0.829897
vt 0.564684 0.812367
vt 0.532607 0.814915
vt 0.532189 0.830622
vt 0.568361 0.775898
vt 0.537047 0.781317
vt 0.242202 0.690784
vt 0.278540 0.688160
vt 0.603009 0.811634
vt 0.599296 0.775307
vt 0.587105 0.773292
vt 0.588065 0.810871
vt 0.296088 0.687967
vt 0.602799 0.829188
vt 0.588427 0.829422
vt 0.930554 0.199565
vt 0.938106 0.272354
vt 0.967967 0.280117
vt 0.962615 0.202293
vt 0.984295 0.283460
vt 0.985845 0.203938
vt 0.992457 0.280813
vt 1.000000 0.203354
vt 0.940481 0.127294
vt 0.969976 0.125167
vt 0.987928 0.124258
vt 0.998211 0.125969
vt 0.291168 0.405827
vt 0.272756 0.538182
vt 0.363766 0.392677
vt 0.324207 0.522376
vt 0.288694 0.273343
vt 0.379198 0.263089
vt 0.285932 0.143246
vt 0.395384 0.135622
vt 0.281497 0.003501
vt 0.404481 -0.001559
vt 0.257853 0.674462
vt 0.284764 0.670286
vt 0.669517 0.265562
vt 0.648318 0.133616
vt 0.700088 0.148256
vt 0.742339 0.277149
vt 0.669816 0.398069
vt 0.760472 0.406414
vt 0.669820 0.528188
vt 0.779376 0.533525
vt 0.668541 0.667897
vt 0.790994 0.669445
vt 0.630264 -0.003924
vt 0.657258 0.004480
vt 0.665571 0.684577
vt 0.798086 0.686511
vt 0.565179 0.818623
vt 0.530448 0.819709
vt 0.537917 0.792545
vt 0.569633 0.787126
vt 0.253451 0.691292
vt 0.587257 0.784699
vt 0.598898 0.786567
vt 0.284760 0.688223
vt 0.602838 0.817904
vt 0.588202 0.818048
vt 0.969906 0.268991
vt 0.939235 0.261063
vt 0.984834 0.272027
vt 0.992129 0.269623
vt 0.940134 0.138605
vt 0.970285 0.136494
vt 0.987548 0.135624
vt 0.997664 0.137271
s 1
f 19/1/1 20/2/2 6/3/3 5/4/4
f 5/4/4 6/3/3 22/5/5 21/6/6
f 23/7/7 19/1/1 5/4/4 4/8/8
f 4/8/8 5/4/4 21/6/6 24/9/9
f 25/10/10 23/7/7 4/8/8 3/11/11
f 3/11/11 4/8/8 24/9/9 26/12/12
f 27/13/13 25/10/10 3/11/11 1/14/14
f 1/14/14 3/11/11 26/12/12 28/15/15
f 20/2/2 29/16/16 2/17/17 6/3/3
f 6/3/3 2/17/17 30/18/18 22/5/5
f 31/19/19 11/20/20 12/21/21 32/22/22
f 11/20/20 33/23/23 34/24/24 12/21/21
f 35/25/25 10/26/26 11/20/20 31/19/19
f 10/26/26 36/27/27 33/23/23 11/20/20
f 37/28/28 9/29/29 10/26/26 35/25/25
f 9/29/29 38/30/30 36/27/27 10/26/26
f 39/31/31 7/32/32 9/29/29 37/28/28
f 7/32/32 40/33/33 38/30/30 9/29/29
f 32/22/22 12/21/21 8/34/34 41/35/35
f 12/21/21 34/24/24 42/36/36 8/34/34
f 44/37/37 15/38/38 7/32/32 39/31/31
f 15/38/38 47/39/39 40/33/33 7/32/32
f 46/40/40 18/41/41 8/42/34 42/43/36
f 18/41/41 51/44/42 41/45/35 8/42/34
f 2/17/17 29/16/16 45/46/43 16/47/44
f 16/48/44 45/49/43 52/50/45 17/51/46
f 17/51/46 52/50/45 51/44/42 18/41/41
f 30/18/18 2/17/17 16/47/44 53/52/47
f 53/53/47 16/48/44 17/51/46 54/54/48
f 54/54/48 17/51/46 18/41/41 46/40/40
f 1/55/14 28/56/15 43/57/49 13/58/50
f 13/58/50 43/57/49 48/59/51 14/60/52
f 14/60/52 48/59/51 47/61/39 15/62/38
f 27/63/13 1/55/14 13/58/50 49/64/53
f 49/64/53 13/58/50 14/60/52 50/65/54
f 50/65/54 14/60/52 15/62/38 44/66/37
f 109/67/55 68/4/56 71/3/57 110/68/58
f 68/4/56 111/69/59 112/70/60 71/3/57
f 113/71/61 65/8/62 68/4/56 109/67/55
f 65/8/62 114/72/63 111/69/59 68/4/56
f 115/73/64 62/11/65 65/8/62 113/71/61
f 62/11/65 116/74/66 114/72/63 65/8/62
f 117/75/67 56/14/68 62/11/65 115/73/64
f 56/14/68 118/76/69 116/74/66 62/11/65
f 110/68/58 71/3/57 59/17/70 119/77/71
f 71/3/57 112/70/60 120/78/72 59/17/70
f 121/79/73 122/80/74 89/21/75 86/20/76
f 86/20/76 89/21/75 124/81/77 123/82/78
f 125/83/79 121/79/73 86/20/76 83/26/80
f 83/26/80 86/20/76 123/82/78 126/84/81
f 127/85/82 125/83/79 83/26/80 80/29/83
f 80/29/83 83/26/80 126/84/81 128/86/84
f 129/87/85 127/85/82 80/29/83 74/32/86
f 74/32/86 80/29/83 128/86/84 130/88/87
f 122/80/74 131/89/88 77/34/89 89/21/75
f 89/21/75 77/34/89 132/90/90 124/81/77
f 92/91/91 129/87/85 74/32/86 93/38/92
f 93/38/92 74/32/86 130/88/87 97/92/93
f 95/93/94 132/94/90 77/42/89 96/41/95
f 96/41/95 77/42/89 131/95/88 103/96/96
f 59/17/70 107/47/97 94/97/98 119/77/71
f 107/48/97 108/51/99 104/98/100 94/99/98
f 108/51/99 96/41/95 103/96/96 104/98/100
f 120/78/72 105/100/101 107/47/97 59/17/70
f 105/101/101 106/102/102 108/51/99 107/48/97
f 106/102/102 95/93/94 96/41/95 108/51/99
f 56/55/68 101/58/103 91/103/104 118/104/69
f 101/58/103 102/60/105 98/105/106 91/103/104
f 102/60/105 93/62/92 97/106/93 98/105/106
f 117/107/67 99/108/107 101/58/103 56/55/68
f 99/108/107 100/109/108 102/60/105 101/58/103
f 100/109/108 92/110/91 93/62/92 102/60/105
f 52/50/45 45/49/43 135/49/109 142/50/110
f 46/40/40 42/43/36 76/43/111 136/40/112
f 23/7/7 25/10/10 63/10/113 66/7/114
f 37/28/28 35/25/25 84/25/115 81/28/116
f 30/18/18 53/52/47 143/52/117 58/18/118
f 53/53/47 54/54/48 144/54/119 143/53/117
f 40/33/33 47/39/39 137/39/120 75/33/121
f 26/12/12 24/9/9 64/9/122 61/12/123
f 36/27/27 38/30/30 79/30/124 82/27/125
f 54/54/48 46/40/40 136/40/112 144/54/119
f 47/61/39 48/59/51 138/59/126 137/61/120
f 25/10/10 27/13/13 55/13/127 63/10/113
f 39/31/31 37/28/28 81/28/116 73/31/128
f 48/59/51 43/57/49 133/57/129 138/59/126
f 27/63/13 49/64/53 139/64/130 55/63/127
f 28/15/15 26/12/12 61/12/123 57/15/131
f 38/30/30 40/33/33 75/33/121 79/30/124
f 49/64/53 50/65/54 140/65/132 139/64/130
f 29/16/16 20/2/2 72/2/133 60/16/134
f 32/22/22 41/35/35 78/35/135 90/22/136
f 50/65/54 44/66/37 134/66/137 140/65/132
f 20/2/2 19/1/1 69/1/138 72/2/133
f 31/19/19 32/22/22 90/22/136 87/19/139
f 22/5/5 30/18/18 58/18/118 70/5/140
f 42/36/36 34/24/24 88/24/141 76/36/111
f 43/57/49 28/56/15 57/56/131 133/57/129
f 21/6/6 22/5/5 70/5/140 67/6/142
f 34/24/24 33/23/23 85/23/143 88/24/141
f 44/37/37 39/31/31 73/31/128 134/37/137
f 19/1/1 23/7/7 66/7/114 69/1/138
f 35/25/25 31/19/19 87/19/139 84/25/115
f 41/45/35 51/44/42 141/44/144 78/45/135
f 51/44/42 52/50/45 142/50/110 141/44/144
f 45/46/43 29/16/16 60/16/134 135/46/109
f 24/9/9 21/6/6 67/6/142 64/9/122
f 33/23/23 36/27/27 82/27/125 85/23/143
f 109/67/55 110/68/58 72/2/133 69/1/138
f 112/70/60 111/69/59 67/6/142 70/5/140
f 113/71/61 109/67/55 69/1/138 66/7/114
f 111/69/59 114/72/63 64/9/122 67/6/142
f 115/73/64 113/71/61 66/7/114 63/10/113
f 114/72/63 116/74/66 61/12/123 64/9/122
f 117/75/67 115/73/64 63/10/113 55/13/127
f 116/74/66 118/76/69 57/15/131 61/12/123
f 110/68/58 119/77/71 60/16/134 72/2/133
f 120/78/72 112/70/60 70/5/140 58/18/118
f 122/80/74 121/79/73 87/19/139 90/22/136
f 123/82/78 124/81/77 88/24/141 85/23/143
f 121/79/73 125/83/79 84/25/115 87/19/139
f 126/84/81 123/82/78 85/23/143 82/27/125
f 125/83/79 127/85/82 81/28/116 84/25/115
f 128/86/84 126/84/81 82/27/125 79/30/124
f 127/85/82 129/87/85 73/31/128 81/28/116
f 130/88/87 128/86/84 79/30/124 75/33/121
f 131/89/88 122/80/74 90/22/136 78/35/135
f 124/81/77 132/90/90 76/36/111 88/24/141
f 118/104/69 91/103/104 133/57/129 57/56/131
f 129/87/85 92/91/91 134/37/137 73/31/128
f 119/77/71 94/97/98 135/46/109 60/16/134
f 132/94/90 95/93/94 136/40/112 76/43/111
f 97/92/93 130/88/87 75/33/121 137/39/120
f 98/105/106 97/106/93 137/61/120 138/59/126
f 91/103/104 98/105/106 138/59/126 133/57/129
f 99/108/107 117/107/67 55/63/127 139/64/130
f 100/109/108 99/108/107 139/64/130 140/65/132
f 92/110/91 100/109/108 140/65/132 134/66/137
f 103/96/96 131/95/88 78/45/135 141/44/144
f 104/98/100 103/96/96 141/44/144 142/50/110
f 94/99/98 104/98/100 142/50/110 135/49/109
f 105/100/101 120/78/72 58/18/118 143/52/117
f 106/102/102 105/101/101 143/53/117 144/54/119
f 95/93/94 106/102/102 144/54/119 136/40/112
