# Blender 4.0.1
# www.blender.org
mtllib Bomber_Nose.mtl
g Bomber_Nose_Bomber_Propeller_Cap
v 2.453421 0.000000 -0.233548
v 2.453421 -0.045563 -0.229061
v 2.453421 -0.089375 -0.215770
v 2.453421 -0.129752 -0.194188
v 2.453421 -0.165144 -0.165144
v 2.453421 -0.194188 -0.129752
v 2.453421 -0.215770 -0.089375
v 2.453421 -0.229061 -0.045563
v 2.453421 -0.233548 0.000000
v 2.453421 -0.229061 0.045563
v 2.453421 -0.215770 0.089375
v 2.453421 -0.194188 0.129752
v 2.453421 -0.165144 0.165144
v 2.453421 -0.129752 0.194188
v 2.453421 -0.089375 0.215770
v 2.453421 -0.045563 0.229061
v 2.453421 0.000000 0.233548
v 2.453421 0.045563 0.229061
v 2.453421 0.089375 0.215770
v 2.453421 0.129752 0.194188
v 2.453421 0.165144 0.165144
v 2.453421 0.194188 0.129752
v 2.453421 0.215770 0.089375
v 2.453421 0.229061 0.045563
v 2.453421 0.233548 0.000000
v 2.453421 0.229061 -0.045563
v 2.453421 0.215770 -0.089375
v 2.453421 0.194188 -0.129752
v 2.453421 0.165144 -0.165144
v 2.453421 0.129752 -0.194188
v 2.453421 0.089375 -0.215770
v 2.453421 0.045563 -0.229061
v 2.626173 -0.000000 -0.124109
v 2.626173 -0.024212 -0.121724
v 2.626173 -0.047494 -0.114662
v 2.626173 -0.068951 -0.103193
v 2.626173 -0.087758 -0.087758
v 2.626173 -0.103193 -0.068951
v 2.626173 -0.114662 -0.047494
v 2.626173 -0.121724 -0.024212
v 2.626173 -0.124109 -0.000000
v 2.626173 -0.121724 0.024212
v 2.626173 -0.114662 0.047494
v 2.626173 -0.103193 0.068951
v 2.626173 -0.087758 0.087758
v 2.626173 -0.068951 0.103193
v 2.626173 -0.047494 0.114662
v 2.626173 -0.024212 0.121724
v 2.626173 -0.000000 0.124109
v 2.626173 0.024212 0.121724
v 2.626173 0.047494 0.114662
v 2.626173 0.068951 0.103193
v 2.626173 0.087758 0.087758
v 2.626173 0.103193 0.068951
v 2.626173 0.114662 0.047494
v 2.626173 0.121724 0.024212
v 2.626173 0.124109 -0.000000
v 2.626173 0.121724 -0.024212
v 2.626173 0.114662 -0.047494
v 2.626173 0.103193 -0.068951
v 2.626173 0.087758 -0.087758
v 2.626173 0.068951 -0.103193
v 2.626173 0.047494 -0.114662
v 2.626173 0.024212 -0.121724
v 2.507860 -0.000000 -0.233548
v 2.507860 -0.045563 -0.229061
v 2.507860 -0.089375 -0.215770
v 2.507860 -0.129752 -0.194188
v 2.507860 -0.165144 -0.165144
v 2.507860 -0.194188 -0.129752
v 2.507860 -0.215770 -0.089375
v 2.507860 -0.229061 -0.045563
v 2.507860 -0.233548 0.000000
v 2.507860 -0.229061 0.045563
v 2.507860 -0.215770 0.089375
v 2.507860 -0.194188 0.129752
v 2.507860 -0.165144 0.165144
v 2.507860 -0.129752 0.194188
v 2.507860 -0.089375 0.215770
v 2.507860 -0.045563 0.229061
v 2.507860 -0.000000 0.233548
v 2.507860 0.045563 0.229061
v 2.507860 0.089375 0.215770
v 2.507860 0.129752 0.194188
v 2.507860 0.165144 0.165144
v 2.507860 0.194188 0.129752
v 2.507860 0.215770 0.089375
v 2.507860 0.229061 0.045563
v 2.507860 0.233548 0.000000
v 2.507860 0.229061 -0.045563
v 2.507860 0.215770 -0.089375
v 2.507860 0.194188 -0.129752
v 2.507860 0.165144 -0.165144
v 2.507860 0.129752 -0.194188
v 2.507860 0.089375 -0.215770
v 2.507860 0.045563 -0.229061
v 2.567017 -0.000000 -0.208966
v 2.567017 -0.040767 -0.204951
v 2.567017 -0.079968 -0.193059
v 2.567017 -0.116095 -0.173749
v 2.567017 -0.147761 -0.147761
v 2.567017 -0.173749 -0.116095
v 2.567017 -0.193059 -0.079968
v 2.567017 -0.204951 -0.040767
v 2.567017 -0.208966 0.000000
v 2.567017 -0.204951 0.040767
v 2.567017 -0.193059 0.079968
v 2.567017 -0.173749 0.116095
v 2.567017 -0.147761 0.147761
v 2.567017 -0.116095 0.173749
v 2.567017 -0.079968 0.193059
v 2.567017 -0.040767 0.204951
v 2.567017 -0.000000 0.208966
v 2.567017 0.040767 0.204951
v 2.567017 0.079968 0.193059
v 2.567017 0.116095 0.173749
v 2.567017 0.147761 0.147761
v 2.567017 0.173749 0.116095
v 2.567017 0.193059 0.079968
v 2.567017 0.204951 0.040767
v 2.567017 0.208966 0.000000
v 2.567017 0.204951 -0.040767
v 2.567017 0.193059 -0.079968
v 2.567017 0.173749 -0.116095
v 2.567017 0.147761 -0.147761
v 2.567017 0.116095 -0.173749
v 2.567017 0.079968 -0.193059
v 2.567017 0.040767 -0.204951
v 2.652583 -0.000000 -0.054660
v 2.652583 -0.010664 -0.053609
v 2.652583 -0.020917 -0.050499
v 2.652583 -0.030367 -0.045448
v 2.652583 -0.038650 -0.038650
v 2.652583 -0.045448 -0.030367
v 2.652583 -0.050499 -0.020917
v 2.652583 -0.053609 -0.010664
v 2.652583 -0.054660 -0.000000
v 2.652583 -0.053609 0.010664
v 2.652583 -0.050499 0.020917
v 2.652583 -0.045448 0.030367
v 2.652583 -0.038650 0.038650
v 2.652583 -0.030367 0.045448
v 2.652583 -0.020917 0.050499
v 2.652583 -0.010664 0.053609
v 2.652583 -0.000000 0.054660
v 2.652583 0.010664 0.053609
v 2.652583 0.020917 0.050499
v 2.652583 0.030367 0.045448
v 2.652583 0.038650 0.038650
v 2.652583 0.045448 0.030367
v 2.652583 0.050499 0.020917
v 2.652583 0.053609 0.010664
v 2.652583 0.054660 -0.000000
v 2.652583 0.053609 -0.010664
v 2.652583 0.050499 -0.020917
v 2.652583 0.045448 -0.030367
v 2.652583 0.038650 -0.038650
v 2.652583 0.030367 -0.045448
v 2.652583 0.020917 -0.050499
v 2.652583 0.010664 -0.053609
vn -0.6857 -0.0000 -0.7279
vn -0.6857 -0.1420 -0.7139
vn -0.6857 -0.2786 -0.6725
vn -0.6857 -0.4044 -0.6052
vn -0.6857 -0.5147 -0.5147
vn -0.6857 -0.6052 -0.4044
vn -0.6857 -0.6725 -0.2786
vn -0.6857 -0.7139 -0.1420
vn -0.6857 -0.7279 -0.0000
vn -0.6857 -0.7139 0.1420
vn -0.6857 -0.6725 0.2786
vn -0.6857 -0.6052 0.4044
vn -0.6857 -0.5147 0.5147
vn -0.6857 -0.4044 0.6052
vn -0.6857 -0.2786 0.6725
vn -0.6857 -0.1420 0.7139
vn -0.6857 -0.0000 0.7279
vn -0.6857 0.1420 0.7139
vn -0.6857 0.2786 0.6725
vn -0.6857 0.4044 0.6052
vn -0.6857 0.5147 0.5147
vn -0.6857 0.6052 0.4044
vn -0.6857 0.6725 0.2786
vn -0.6857 0.7139 0.1420
vn -0.6857 0.7279 -0.0000
vn -0.6857 0.7139 -0.1420
vn -0.6857 0.6725 -0.2786
vn -0.6857 0.6052 -0.4044
vn -0.6857 0.5147 -0.5147
vn -0.6857 0.4044 -0.6052
vn -0.6857 0.2786 -0.6725
vn -0.6857 0.1420 -0.7139
vn 0.8810 -0.0923 -0.4640
vn 0.8810 -0.0000 -0.4731
vn 0.9815 -0.0000 -0.1916
vn 0.9815 -0.0374 -0.1879
vn 0.1933 -0.9623 0.1914
vn 0.1933 -0.9064 0.3755
vn 0.1933 0.9623 0.1914
vn 0.1933 0.9811 -0.0000
vn 0.1933 -0.8158 0.5451
vn 0.1933 0.9623 -0.1914
vn 0.1933 -0.6938 0.6938
vn 0.1933 0.9064 -0.3755
vn 0.1933 -0.5451 0.8158
vn 0.1933 0.8158 -0.5451
vn 0.1933 -0.3755 0.9064
vn 0.1933 -0.0000 -0.9811
vn 0.1933 -0.1914 -0.9623
vn 0.1933 0.6938 -0.6938
vn 0.1933 -0.1914 0.9623
vn 0.1933 -0.3755 -0.9064
vn 0.1933 0.5451 -0.8158
vn 0.1933 -0.0000 0.9811
vn 0.1933 -0.5451 -0.8158
vn 0.1933 0.3755 -0.9064
vn 0.1933 0.1914 0.9623
vn 0.1933 -0.6938 -0.6938
vn 0.1933 0.1914 -0.9623
vn 0.1933 0.3755 0.9064
vn 0.1933 -0.8158 -0.5451
vn 0.1933 0.5451 0.8158
vn 0.1933 -0.9064 -0.3755
vn 0.1933 0.6938 0.6938
vn 0.1933 -0.9623 -0.1914
vn 0.1933 0.8158 0.5451
vn 0.1933 -0.9811 -0.0000
vn 0.1933 0.9064 0.3755
vn 0.6188 -0.0000 -0.7856
vn 0.6188 -0.1533 -0.7705
vn 0.6188 -0.3006 -0.7258
vn 0.6188 -0.4364 -0.6532
vn 0.6188 -0.5555 -0.5555
vn 0.6188 -0.6532 -0.4364
vn 0.6188 -0.7258 -0.3006
vn 0.6188 -0.7705 -0.1533
vn 0.6188 -0.7856 -0.0000
vn 0.6188 -0.7705 0.1533
vn 0.6188 -0.7258 0.3006
vn 0.6188 -0.6532 0.4364
vn 0.6188 -0.5555 0.5555
vn 0.6188 -0.4364 0.6532
vn 0.6188 -0.3006 0.7258
vn 0.6188 -0.1533 0.7705
vn 0.6188 -0.0000 0.7856
vn 0.6188 0.1533 0.7705
vn 0.6188 0.3006 0.7258
vn 0.6188 0.4364 0.6532
vn 0.6188 0.5555 0.5555
vn 0.6188 0.6532 0.4364
vn 0.6188 0.7258 0.3006
vn 0.6188 0.7705 0.1533
vn 0.6188 0.7856 -0.0000
vn 0.6188 0.7705 -0.1533
vn 0.6188 0.7258 -0.3006
vn 0.6188 0.6532 -0.4364
vn 0.6188 0.5555 -0.5555
vn 0.6188 0.4364 -0.6532
vn 0.6188 0.3006 -0.7258
vn 0.6188 0.1533 -0.7705
vn 0.8810 0.0923 -0.4640
vn 0.8810 0.1811 -0.4371
vn 0.8810 0.2628 -0.3934
vn 0.8810 0.3345 -0.3345
vn 0.8810 0.3934 -0.2628
vn 0.8810 0.4371 -0.1811
vn 0.8810 0.4640 -0.0923
vn 0.8810 0.4731 -0.0000
vn 0.8810 0.4640 0.0923
vn 0.8810 0.4371 0.1811
vn 0.8810 0.3934 0.2628
vn 0.8810 0.3345 0.3345
vn 0.8810 0.2628 0.3934
vn 0.8810 0.1811 0.4371
vn 0.8810 0.0923 0.4640
vn 0.8810 -0.0000 0.4731
vn 0.8810 -0.0923 0.4640
vn 0.8810 -0.1811 0.4371
vn 0.8810 -0.2628 0.3934
vn 0.8810 -0.3345 0.3345
vn 0.8810 -0.3934 0.2628
vn 0.8810 -0.4371 0.1811
vn 0.8810 -0.4640 0.0923
vn 0.8810 -0.4731 -0.0000
vn 0.8810 -0.4640 -0.0923
vn 0.8810 -0.4371 -0.1811
vn 0.8810 -0.3934 -0.2628
vn 0.8810 -0.3345 -0.3345
vn 0.8810 -0.2628 -0.3934
vn 0.8810 -0.1811 -0.4371
vn 0.9815 0.0374 -0.1879
vn 0.9815 0.0733 -0.1770
vn 0.9815 0.1064 -0.1593
vn 0.9815 0.1355 -0.1355
vn 0.9815 0.1593 -0.1064
vn 0.9815 0.1770 -0.0733
vn 0.9815 0.1879 -0.0374
vn 0.9815 0.1916 -0.0000
vn 0.9815 0.1879 0.0374
vn 0.9815 0.1770 0.0733
vn 0.9815 0.1593 0.1064
vn 0.9815 0.1355 0.1355
vn 0.9815 0.1064 0.1593
vn 0.9815 0.0733 0.1770
vn 0.9815 0.0374 0.1879
vn 0.9815 -0.0000 0.1916
vn 0.9815 -0.0374 0.1879
vn 0.9815 -0.0733 0.1770
vn 0.9815 -0.1064 0.1593
vn 0.9815 -0.1355 0.1355
vn 0.9815 -0.1593 0.1064
vn 0.9815 -0.1770 0.0733
vn 0.9815 -0.1879 0.0374
vn 0.9815 -0.1916 -0.0000
vn 0.9815 -0.1879 -0.0374
vn 0.9815 -0.1770 -0.0733
vn 0.9815 -0.1593 -0.1064
vn 0.9815 -0.1355 -0.1355
vn 0.9815 -0.1064 -0.1593
vn 0.9815 -0.0733 -0.1770
vt 0.340861 0.517635
vt 0.289879 0.527776
vt 0.237897 0.527776
vt 0.186915 0.517635
vt 0.138890 0.497742
vt 0.095669 0.468863
vt 0.058913 0.432107
vt 0.030033 0.388886
vt 0.010141 0.340861
vt -0.000000 0.289879
vt -0.000000 0.237897
vt 0.010141 0.186915
vt 0.030034 0.138890
vt 0.058913 0.095669
vt 0.095669 0.058913
vt 0.138890 0.030033
vt 0.186915 0.010141
vt 0.237897 -0.000000
vt 0.289879 -0.000000
vt 0.340861 0.010141
vt 0.388886 0.030033
vt 0.432107 0.058913
vt 0.468863 0.095669
vt 0.497743 0.138890
vt 0.517635 0.186915
vt 0.527776 0.237897
vt 0.527776 0.289879
vt 0.517635 0.340861
vt 0.497742 0.388886
vt 0.468863 0.432107
vt 0.432107 0.468863
vt 0.388886 0.497742
vt 0.904120 0.249924
vt 0.898731 0.277016
vt 0.823275 0.254127
vt 0.825648 0.242195
vt 0.674961 0.600226
vt 0.677012 0.651209
vt 0.616480 0.651209
vt 0.614429 0.600226
vt 0.823084 0.666158
vt 0.822049 0.717171
vt 0.761529 0.718377
vt 0.762564 0.667363
vt 0.670939 0.552201
vt 0.610407 0.552201
vt 0.822049 0.614187
vt 0.761529 0.615392
vt 0.665098 0.508981
vt 0.604566 0.508981
vt 0.818983 0.563255
vt 0.758463 0.564460
vt 0.276744 0.864214
vt 0.269311 0.900970
vt 0.208779 0.900970
vt 0.216212 0.864214
vt 0.814005 0.515320
vt 0.753485 0.516526
vt 0.282584 0.820993
vt 0.222052 0.820993
vt 0.001035 0.772723
vt -0.000000 0.721710
vt 0.060520 0.722915
vt 0.061555 0.773928
vt 0.807305 0.472224
vt 0.746785 0.473430
vt 0.286607 0.772968
vt 0.226075 0.772968
vt 0.004101 0.820818
vt 0.064621 0.822024
vt 0.009079 0.570872
vt 0.015779 0.527776
vt 0.076299 0.528981
vt 0.069599 0.572077
vt 0.288658 0.721986
vt 0.228126 0.721986
vt 0.009079 0.864147
vt 0.069599 0.865352
vt 0.004101 0.618807
vt 0.064621 0.620012
vt 0.288658 0.670004
vt 0.228126 0.670004
vt 0.015779 0.901044
vt 0.076299 0.902249
vt 0.001035 0.669739
vt 0.061555 0.670944
vt 0.286607 0.619022
vt 0.226075 0.619022
vt 0.665098 0.845418
vt 0.657665 0.882175
vt 0.597133 0.882174
vt 0.604566 0.845418
vt 0.282584 0.570997
vt 0.222052 0.570997
vt 0.670939 0.802197
vt 0.610407 0.802197
vt 0.276744 0.527776
vt 0.216212 0.527776
vt 0.674961 0.754173
vt 0.614429 0.754173
vt 0.814005 0.808595
vt 0.807305 0.845492
vt 0.746785 0.846698
vt 0.753485 0.809800
vt 0.677012 0.703190
vt 0.616480 0.703190
vt 0.818983 0.765266
vt 0.758463 0.766472
vt 0.131954 0.721602
vt 0.132880 0.767245
vt 0.135623 0.810278
vt 0.140078 0.849046
vt 0.146072 0.882060
vt 0.527776 0.860600
vt 0.534427 0.827712
vt 0.539652 0.789040
vt 0.543251 0.746071
vt 0.545086 0.700454
vt 0.545086 0.653944
vt 0.543251 0.608328
vt 0.539652 0.565358
vt 0.534427 0.526687
vt 0.527776 0.493799
vt 0.597133 0.472224
vt 0.146072 0.846507
vt 0.151297 0.807836
vt 0.154897 0.764866
vt 0.156732 0.719250
vt 0.156732 0.672740
vt 0.154897 0.627123
vt 0.151298 0.584154
vt 0.146072 0.545482
vt 0.677012 0.826508
vt 0.683007 0.793494
vt 0.687461 0.754726
vt 0.690204 0.711694
vt 0.691130 0.666050
vt 0.690204 0.619549
vt 0.687461 0.573978
vt 0.683007 0.531089
vt 0.677012 0.492529
vt 0.146072 0.548081
vt 0.140078 0.586641
vt 0.135623 0.629530
vt 0.132880 0.675101
vt 0.888160 0.302537
vt 0.990927 0.304983
vt 0.973128 0.347953
vt 0.872813 0.325504
vt 0.947288 0.386625
vt 0.853281 0.345037
vt 0.914401 0.419512
vt 0.830313 0.360384
vt 0.875729 0.445352
vt 0.804792 0.370955
vt 0.832759 0.463150
vt 0.777700 0.376344
vt 0.787143 0.472224
vt 0.750076 0.376344
vt 0.740633 0.472224
vt 0.722984 0.370955
vt 0.695017 0.463151
vt 0.697464 0.360384
vt 0.652047 0.445352
vt 0.674496 0.345037
vt 0.613375 0.419512
vt 0.654963 0.325505
vt 0.580488 0.386625
vt 0.639616 0.302537
vt 0.554648 0.347953
vt 0.629045 0.277016
vt 0.536850 0.304983
vt 0.623656 0.249924
vt 0.527776 0.259367
vt 0.623656 0.222300
vt 0.527776 0.212857
vt 0.629045 0.195208
vt 0.536850 0.167241
vt 0.639616 0.169688
vt 0.554648 0.124271
vt 0.654963 0.146720
vt 0.580488 0.085599
vt 0.674496 0.127187
vt 0.613375 0.052712
vt 0.697463 0.111840
vt 0.652047 0.026872
vt 0.722984 0.101269
vt 0.695017 0.009074
vt 0.750076 0.095880
vt 0.740633 -0.000000
vt 0.777700 0.095880
vt 0.787143 -0.000000
vt 0.804792 0.101269
vt 0.832759 0.009074
vt 0.830313 0.111840
vt 0.875729 0.026872
vt 0.853280 0.127187
vt 0.914401 0.052712
vt 0.872813 0.146720
vt 0.947288 0.085599
vt 0.888160 0.169687
vt 0.973128 0.124271
vt 0.898731 0.195208
vt 0.990926 0.167241
vt 0.904120 0.222300
vt 1.000000 0.212857
vt 1.000000 0.259367
vt 0.818619 0.265367
vt 0.811861 0.275482
vt 0.803258 0.284084
vt 0.793143 0.290843
vt 0.781903 0.295499
vt 0.769971 0.297872
vt 0.757805 0.297872
vt 0.745873 0.295499
vt 0.734634 0.290843
vt 0.724518 0.284085
vt 0.715916 0.275482
vt 0.709157 0.265367
vt 0.704501 0.254127
vt 0.702128 0.242195
vt 0.702128 0.230029
vt 0.704501 0.218097
vt 0.709157 0.206858
vt 0.715916 0.196742
vt 0.724518 0.188140
vt 0.734633 0.181381
vt 0.745873 0.176725
vt 0.757805 0.174352
vt 0.769971 0.174352
vt 0.781903 0.176725
vt 0.793143 0.181381
vt 0.803258 0.188140
vt 0.811861 0.196742
vt 0.818619 0.206857
vt 0.823275 0.218097
vt 0.825648 0.230029
s 1
f 1/1/1 2/2/2 3/3/3 4/4/4 5/5/5 6/6/6 7/7/7 8/8/8 9/9/9 10/10/10 11/11/11 12/12/12 13/13/13 14/14/14 15/15/15 16/16/16 17/17/17 18/18/18 19/19/19 20/20/20 21/21/21 22/22/22 23/23/23 24/24/24 25/25/25 26/26/26 27/27/27 28/28/28 29/29/29 30/30/30 31/31/31 32/32/32
f 34/33/33 33/34/34 129/35/35 130/36/36
f 11/37/11 10/38/10 74/39/37 75/40/38
f 25/41/25 24/42/24 88/43/39 89/44/40
f 12/45/12 11/37/11 75/40/38 76/46/41
f 26/47/26 25/41/25 89/44/40 90/48/42
f 13/49/13 12/45/12 76/46/41 77/50/43
f 27/51/27 26/47/26 90/48/42 91/52/44
f 14/53/14 13/54/13 77/55/43 78/56/45
f 28/57/28 27/51/27 91/52/44 92/58/46
f 15/59/15 14/53/14 78/56/45 79/60/47
f 2/61/2 1/62/1 65/63/48 66/64/49
f 29/65/29 28/57/28 92/58/46 93/66/50
f 16/67/16 15/59/15 79/60/47 80/68/51
f 3/69/3 2/61/2 66/64/49 67/70/52
f 30/71/30 29/72/29 93/73/50 94/74/53
f 17/75/17 16/67/16 80/68/51 81/76/54
f 4/77/4 3/69/3 67/70/52 68/78/55
f 31/79/31 30/71/30 94/74/53 95/80/56
f 18/81/18 17/75/17 81/76/54 82/82/57
f 5/83/5 4/77/4 68/78/55 69/84/58
f 32/85/32 31/79/31 95/80/56 96/86/59
f 19/87/19 18/81/18 82/82/57 83/88/60
f 6/89/6 5/90/5 69/91/58 70/92/61
f 1/62/1 32/85/32 96/86/59 65/63/48
f 20/93/20 19/87/19 83/88/60 84/94/62
f 7/95/7 6/89/6 70/92/61 71/96/63
f 21/97/21 20/93/20 84/94/62 85/98/64
f 8/99/8 7/95/7 71/96/63 72/100/65
f 22/101/22 21/102/21 85/103/64 86/104/66
f 9/105/9 8/99/8 72/100/65 73/106/67
f 23/107/23 22/101/22 86/104/66 87/108/68
f 10/38/10 9/105/9 73/106/67 74/39/37
f 24/42/24 23/107/23 87/108/68 88/43/39
f 97/109/69 98/110/70 66/64/49 65/63/48
f 98/110/70 99/111/71 67/70/52 66/64/49
f 99/111/71 100/112/72 68/78/55 67/70/52
f 100/112/72 101/113/73 69/84/58 68/78/55
f 101/114/73 102/115/74 70/92/61 69/91/58
f 102/115/74 103/116/75 71/96/63 70/92/61
f 103/116/75 104/117/76 72/100/65 71/96/63
f 104/117/76 105/118/77 73/106/67 72/100/65
f 105/118/77 106/119/78 74/39/37 73/106/67
f 106/119/78 107/120/79 75/40/38 74/39/37
f 107/120/79 108/121/80 76/46/41 75/40/38
f 108/121/80 109/122/81 77/50/43 76/46/41
f 109/122/81 110/123/82 78/124/45 77/50/43
f 110/125/82 111/126/83 79/60/47 78/56/45
f 111/126/83 112/127/84 80/68/51 79/60/47
f 112/127/84 113/128/85 81/76/54 80/68/51
f 113/128/85 114/129/86 82/82/57 81/76/54
f 114/129/86 115/130/87 83/88/60 82/82/57
f 115/130/87 116/131/88 84/94/62 83/88/60
f 116/131/88 117/132/89 85/98/64 84/94/62
f 117/133/89 118/134/90 86/104/66 85/103/64
f 118/134/90 119/135/91 87/108/68 86/104/66
f 119/135/91 120/136/92 88/43/39 87/108/68
f 120/136/92 121/137/93 89/44/40 88/43/39
f 121/137/93 122/138/94 90/48/42 89/44/40
f 122/138/94 123/139/95 91/52/44 90/48/42
f 123/139/95 124/140/96 92/58/46 91/52/44
f 124/140/96 125/141/97 93/66/50 92/58/46
f 125/142/97 126/143/98 94/74/53 93/73/50
f 126/143/98 127/144/99 95/80/56 94/74/53
f 127/144/99 128/145/100 96/86/59 95/80/56
f 128/145/100 97/109/69 65/63/48 96/86/59
f 64/146/101 33/34/34 97/147/69 128/148/100
f 63/149/102 64/146/101 128/148/100 127/150/99
f 62/151/103 63/149/102 127/150/99 126/152/98
f 61/153/104 62/151/103 126/152/98 125/154/97
f 60/155/105 61/153/104 125/154/97 124/156/96
f 59/157/106 60/155/105 124/156/96 123/158/95
f 58/159/107 59/157/106 123/158/95 122/160/94
f 57/161/108 58/159/107 122/160/94 121/162/93
f 56/163/109 57/161/108 121/162/93 120/164/92
f 55/165/110 56/163/109 120/164/92 119/166/91
f 54/167/111 55/165/110 119/166/91 118/168/90
f 53/169/112 54/167/111 118/168/90 117/170/89
f 52/171/113 53/169/112 117/170/89 116/172/88
f 51/173/114 52/171/113 116/172/88 115/174/87
f 50/175/115 51/173/114 115/174/87 114/176/86
f 49/177/116 50/175/115 114/176/86 113/178/85
f 48/179/117 49/177/116 113/178/85 112/180/84
f 47/181/118 48/179/117 112/180/84 111/182/83
f 46/183/119 47/181/118 111/182/83 110/184/82
f 45/185/120 46/183/119 110/184/82 109/186/81
f 44/187/121 45/185/120 109/186/81 108/188/80
f 43/189/122 44/187/121 108/188/80 107/190/79
f 42/191/123 43/189/122 107/190/79 106/192/78
f 41/193/124 42/191/123 106/192/78 105/194/77
f 40/195/125 41/193/124 105/194/77 104/196/76
f 39/197/126 40/195/125 104/196/76 103/198/75
f 38/199/127 39/197/126 103/198/75 102/200/74
f 37/201/128 38/199/127 102/200/74 101/202/73
f 36/203/129 37/201/128 101/202/73 100/204/72
f 35/205/130 36/203/129 100/204/72 99/206/71
f 34/33/33 35/205/130 99/206/71 98/207/70
f 33/34/34 34/33/33 98/207/70 97/147/69
f 129/35/35 160/208/131 159/209/132 158/210/133 157/211/134 156/212/135 155/213/136 154/214/137 153/215/138 152/216/139 151/217/140 150/218/141 149/219/142 148/220/143 147/221/144 146/222/145 145/223/146 144/224/147 143/225/148 142/226/149 141/227/150 140/228/151 139/229/152 138/230/153 137/231/154 136/232/155 135/233/156 134/234/157 133/235/158 132/236/159 131/237/160 130/36/36
f 61/153/104 60/155/105 156/212/135 157/211/134
f 48/179/117 47/181/118 143/225/148 144/224/147
f 35/205/130 34/33/33 130/36/36 131/237/160
f 62/151/103 61/153/104 157/211/134 158/210/133
f 49/177/116 48/179/117 144/224/147 145/223/146
f 36/203/129 35/205/130 131/237/160 132/236/159
f 63/149/102 62/151/103 158/210/133 159/209/132
f 50/175/115 49/177/116 145/223/146 146/222/145
f 37/201/128 36/203/129 132/236/159 133/235/158
f 64/146/101 63/149/102 159/209/132 160/208/131
f 51/173/114 50/175/115 146/222/145 147/221/144
f 38/199/127 37/201/128 133/235/158 134/234/157
f 33/34/34 64/146/101 160/208/131 129/35/35
f 52/171/113 51/173/114 147/221/144 148/220/143
f 39/197/126 38/199/127 134/234/157 135/233/156
f 53/169/112 52/171/113 148/220/143 149/219/142
f 40/195/125 39/197/126 135/233/156 136/232/155
f 54/167/111 53/169/112 149/219/142 150/218/141
f 41/193/124 40/195/125 136/232/155 137/231/154
f 55/165/110 54/167/111 150/218/141 151/217/140
f 42/191/123 41/193/124 137/231/154 138/230/153
f 56/163/109 55/165/110 151/217/140 152/216/139
f 43/189/122 42/191/123 138/230/153 139/229/152
f 57/161/108 56/163/109 152/216/139 153/215/138
f 44/187/121 43/189/122 139/229/152 140/228/151
f 58/159/107 57/161/108 153/215/138 154/214/137
f 45/185/120 44/187/121 140/228/151 141/227/150
f 59/157/106 58/159/107 154/214/137 155/213/136
f 46/183/119 45/185/120 141/227/150 142/226/149
f 60/155/105 59/157/106 155/213/136 156/212/135
f 47/181/118 46/183/119 142/226/149 143/225/148
