# Blender 4.0.1
# www.blender.org
o Bomber_Wheel_Trim_Left
v 0.543820 -0.999487 -0.554589
v 0.548595 -0.997604 -0.649378
v 0.487006 -1.021890 -0.745340
v 0.487006 -1.021890 -0.649378
v 0.487006 -1.021890 -0.546716
v 0.430192 -1.044293 -0.737813
v 0.425416 -1.046176 -0.649378
v 0.430192 -1.044293 -0.554589
v 0.382761 -1.062996 -0.732028
v 0.366194 -1.069529 -0.649378
v 0.384353 -1.062368 -0.561979
v 0.591251 -0.980785 -0.732028
v 0.607818 -0.974252 -0.649378
v 0.589659 -0.981412 -0.561979
v 0.543820 -0.999487 -0.737813
v 0.545498 -0.998826 -0.600572
v 0.487006 -1.021890 -0.598047
v 0.428514 -1.044955 -0.600572
v 0.372270 -1.067133 -0.600572
v 0.601742 -0.976648 -0.600572
v 0.487006 -1.021890 -0.697359
v 0.428168 -1.045091 -0.695166
v 0.371590 -1.067401 -0.695166
v 0.602421 -0.976380 -0.695166
v 0.545844 -0.998689 -0.695166
v 0.603956 -1.202325 -0.582709
v 0.607288 -1.201011 -0.648842
v 0.564318 -1.217955 -0.715793
v 0.564318 -1.217955 -0.648842
v 0.564318 -1.217955 -0.577216
v 0.524680 -1.233585 -0.710542
v 0.521348 -1.234899 -0.648842
v 0.524680 -1.233585 -0.582709
v 0.491588 -1.246634 -0.706505
v 0.480029 -1.251191 -0.648842
v 0.492699 -1.246196 -0.587865
v 0.637048 -1.189276 -0.706505
v 0.648607 -1.184718 -0.648842
v 0.635937 -1.189714 -0.587865
v 0.603956 -1.202325 -0.710542
v 0.605127 -1.201863 -0.614791
v 0.564318 -1.217955 -0.613029
v 0.523509 -1.234046 -0.614791
v 0.484269 -1.249520 -0.614791
v 0.644367 -1.186390 -0.614791
v 0.564318 -1.217955 -0.682317
v 0.523268 -1.234142 -0.680787
v 0.483795 -1.249707 -0.680787
v 0.644841 -1.186203 -0.680787
v 0.605368 -1.201768 -0.680787
v 0.489762 -1.195363 -0.554589
v 0.443922 -1.213438 -0.561979
v 0.431840 -1.218203 -0.600572
v 0.603390 -1.150557 -0.737813
v 0.650821 -1.131854 -0.732028
v 0.661991 -1.127450 -0.695166
v 0.667388 -1.125322 -0.649378
v 0.649229 -1.132482 -0.561979
v 0.603390 -1.150557 -0.554589
v 0.661312 -1.127717 -0.600572
v 0.546576 -1.172960 -0.546716
v 0.425763 -1.220599 -0.649378
v 0.546576 -1.172960 -0.745340
v 0.431160 -1.218471 -0.695166
v 0.442331 -1.214066 -0.732028
v 0.489762 -1.195363 -0.737813
vn -0.3668 0.9303 -0.0000
vn -0.9108 0.3785 0.1650
vn -0.9320 0.3626 0.0026
vn 0.4073 0.8982 0.1650
vn 0.4337 0.9011 0.0026
vn -0.1826 0.6893 -0.7011
vn -0.2497 0.6331 -0.7327
vn -0.3370 0.6284 -0.7011
vn -0.9119 0.3783 -0.1590
vn -0.6904 0.3762 -0.6179
vn 0.4083 0.8989 -0.1590
vn 0.2478 0.7462 -0.6179
vn -0.1674 0.6916 0.7026
vn 0.2527 0.7515 0.6094
vn -0.6976 0.3768 0.6094
vn -0.3497 0.6197 0.7026
vn -0.2492 0.6321 0.7337
vn 0.3668 -0.9303 -0.0000
vn -0.0800 -0.9918 0.0995
vn -0.1000 -0.9950 0.0020
vn 0.7522 -0.6590 0.0020
vn 0.7354 -0.6703 0.0995
vn 0.3140 -0.7962 -0.5172
vn 0.3737 -0.7897 -0.4865
vn 0.2659 -0.8323 -0.4865
vn -0.0793 -0.9923 -0.0954
vn 0.0284 -0.8978 -0.4394
vn 0.5920 -0.6756 -0.4394
vn 0.7352 -0.6711 -0.0954
vn 0.3823 -0.7886 0.4817
vn 0.6007 -0.6759 0.4269
vn 0.0223 -0.9040 0.4269
vn 0.2588 -0.8373 0.4817
vn 0.3151 -0.7991 0.5121
vn -0.4609 -0.5201 0.7191
vn -0.0226 -0.3062 0.9517
vn -0.7339 -0.6440 0.2161
vn 0.6843 -0.0675 -0.7261
vn 0.2036 -0.2086 -0.9566
vn 0.9990 0.0435 0.0030
vn 0.9776 0.0296 -0.2084
vn 0.2256 -0.2084 0.9517
vn 0.6918 -0.0656 0.7191
vn 0.9759 0.0303 0.2161
vn 0.0997 -0.2528 0.9624
vn -0.7599 -0.6501 0.0030
vn 0.0974 -0.2469 -0.9641
vn -0.4541 -0.5164 -0.7261
vn -0.7347 -0.6456 -0.2084
vn -0.0064 -0.2914 -0.9566
vt 0.000000 0.000000
s 1
f 17/1/1 16/1/1 2/1/1 4/1/1
f 18/1/1 17/1/1 4/1/1 7/1/1
f 19/1/2 18/1/1 7/1/1 10/1/3
f 16/1/1 20/1/4 13/1/5 2/1/1
f 21/1/1 25/1/1 15/1/6 3/1/7
f 22/1/1 21/1/1 3/1/7 6/1/8
f 23/1/9 22/1/1 6/1/8 9/1/10
f 25/1/1 24/1/11 12/1/12 15/1/6
f 1/1/13 14/1/14 20/1/4 16/1/1
f 11/1/15 8/1/16 18/1/1 19/1/2
f 8/1/16 5/1/17 17/1/1 18/1/1
f 5/1/17 1/1/13 16/1/1 17/1/1
f 2/1/1 13/1/5 24/1/11 25/1/1
f 10/1/3 7/1/1 22/1/1 23/1/9
f 7/1/1 4/1/1 21/1/1 22/1/1
f 4/1/1 2/1/1 25/1/1 21/1/1
f 42/1/18 29/1/18 27/1/18 41/1/18
f 43/1/18 32/1/18 29/1/18 42/1/18
f 44/1/19 35/1/20 32/1/18 43/1/18
f 41/1/18 27/1/18 38/1/21 45/1/22
f 46/1/18 28/1/23 40/1/24 50/1/18
f 47/1/18 31/1/25 28/1/23 46/1/18
f 48/1/26 34/1/27 31/1/25 47/1/18
f 50/1/18 40/1/24 37/1/28 49/1/29
f 26/1/30 41/1/18 45/1/22 39/1/31
f 36/1/32 44/1/19 43/1/18 33/1/33
f 33/1/33 43/1/18 42/1/18 30/1/34
f 30/1/34 42/1/18 41/1/18 26/1/30
f 27/1/18 50/1/18 49/1/29 38/1/21
f 35/1/20 48/1/26 47/1/18 32/1/18
f 32/1/18 47/1/18 46/1/18 29/1/18
f 29/1/18 46/1/18 50/1/18 27/1/18
f 52/1/35 36/1/32 33/1/33 51/1/36
f 53/1/37 44/1/19 36/1/32 52/1/35
f 55/1/38 37/1/28 40/1/24 54/1/39
f 57/1/40 38/1/21 49/1/29 56/1/41
f 59/1/42 26/1/30 39/1/31 58/1/43
f 58/1/43 39/1/31 45/1/22 60/1/44
f 61/1/45 30/1/34 26/1/30 59/1/42
f 62/1/46 35/1/20 44/1/19 53/1/37
f 54/1/39 40/1/24 28/1/23 63/1/47
f 65/1/48 34/1/27 48/1/26 64/1/49
f 51/1/36 33/1/33 30/1/34 61/1/45
f 60/1/44 45/1/22 38/1/21 57/1/40
f 63/1/47 28/1/23 31/1/25 66/1/50
f 56/1/41 49/1/29 37/1/28 55/1/38
f 64/1/49 48/1/26 35/1/20 62/1/46
f 66/1/50 31/1/25 34/1/27 65/1/48
f 6/1/8 66/1/50 65/1/48 9/1/10
f 23/1/9 64/1/49 62/1/46 10/1/3
f 24/1/11 56/1/41 55/1/38 12/1/12
f 3/1/7 63/1/47 66/1/50 6/1/8
f 20/1/4 60/1/44 57/1/40 13/1/5
f 8/1/16 51/1/36 61/1/45 5/1/17
f 9/1/10 65/1/48 64/1/49 23/1/9
f 15/1/6 54/1/39 63/1/47 3/1/7
f 10/1/3 62/1/46 53/1/37 19/1/2
f 5/1/17 61/1/45 59/1/42 1/1/13
f 14/1/14 58/1/43 60/1/44 20/1/4
f 1/1/13 59/1/42 58/1/43 14/1/14
f 13/1/5 57/1/40 56/1/41 24/1/11
f 12/1/12 55/1/38 54/1/39 15/1/6
f 19/1/2 53/1/37 52/1/35 11/1/15
f 11/1/15 52/1/35 51/1/36 8/1/16
o Bomber_Wheel_Trim_Right
v 0.543820 -0.999487 0.740621
v 0.548595 -0.997604 0.645832
v 0.487006 -1.021890 0.549869
v 0.487006 -1.021890 0.645832
v 0.487006 -1.021890 0.748494
v 0.430192 -1.044293 0.557397
v 0.425416 -1.046176 0.645832
v 0.430192 -1.044293 0.740621
v 0.382761 -1.062996 0.563182
v 0.366194 -1.069529 0.645832
v 0.384353 -1.062368 0.733231
v 0.591251 -0.980785 0.563182
v 0.607818 -0.974252 0.645832
v 0.589659 -0.981412 0.733231
v 0.543820 -0.999487 0.557397
v 0.545498 -0.998826 0.694638
v 0.487006 -1.021890 0.697163
v 0.428514 -1.044955 0.694638
v 0.372270 -1.067133 0.694638
v 0.601742 -0.976648 0.694638
v 0.487006 -1.021890 0.597851
v 0.428168 -1.045091 0.600044
v 0.371590 -1.067401 0.600044
v 0.602421 -0.976380 0.600044
v 0.545844 -0.998689 0.600044
v 0.603956 -1.202325 0.712501
v 0.607288 -1.201011 0.646368
v 0.564318 -1.217955 0.579417
v 0.564318 -1.217955 0.646368
v 0.564318 -1.217955 0.717994
v 0.524680 -1.233585 0.584668
v 0.521348 -1.234899 0.646368
v 0.524680 -1.233585 0.712501
v 0.491588 -1.246634 0.588705
v 0.480029 -1.251191 0.646368
v 0.492699 -1.246196 0.707345
v 0.637048 -1.189276 0.588705
v 0.648607 -1.184718 0.646368
v 0.635937 -1.189714 0.707345
v 0.603956 -1.202325 0.584668
v 0.605127 -1.201863 0.680419
v 0.564318 -1.217955 0.682181
v 0.523509 -1.234046 0.680419
v 0.484269 -1.249520 0.680419
v 0.644367 -1.186390 0.680419
v 0.564318 -1.217955 0.612892
v 0.523268 -1.234142 0.614423
v 0.483795 -1.249707 0.614423
v 0.644841 -1.186203 0.614423
v 0.605368 -1.201768 0.614423
v 0.489762 -1.195363 0.740621
v 0.443922 -1.213438 0.733231
v 0.431840 -1.218203 0.694638
v 0.603390 -1.150557 0.557397
v 0.650821 -1.131854 0.563182
v 0.661991 -1.127450 0.600044
v 0.667388 -1.125322 0.645832
v 0.649229 -1.132482 0.733231
v 0.603390 -1.150557 0.740621
v 0.661312 -1.127717 0.694638
v 0.546576 -1.172960 0.748494
v 0.425763 -1.220599 0.645832
v 0.546576 -1.172960 0.549869
v 0.431160 -1.218471 0.600044
v 0.442331 -1.214066 0.563182
v 0.489762 -1.195363 0.557397
vn -0.3668 0.9303 -0.0000
vn -0.9108 0.3785 0.1650
vn -0.9320 0.3626 0.0026
vn 0.4073 0.8982 0.1650
vn 0.4337 0.9011 0.0026
vn -0.1826 0.6893 -0.7011
vn -0.2497 0.6331 -0.7327
vn -0.3370 0.6284 -0.7011
vn -0.9119 0.3783 -0.1590
vn -0.6904 0.3762 -0.6179
vn 0.4083 0.8989 -0.1590
vn 0.2478 0.7462 -0.6179
vn -0.1674 0.6916 0.7026
vn 0.2527 0.7515 0.6094
vn -0.6976 0.3768 0.6094
vn -0.3497 0.6197 0.7026
vn -0.2492 0.6321 0.7337
vn 0.3668 -0.9303 -0.0000
vn -0.0800 -0.9918 0.0995
vn -0.1000 -0.9950 0.0020
vn 0.7522 -0.6590 0.0020
vn 0.7354 -0.6703 0.0995
vn 0.3140 -0.7962 -0.5172
vn 0.3737 -0.7897 -0.4865
vn 0.2659 -0.8323 -0.4865
vn -0.0793 -0.9923 -0.0954
vn 0.0284 -0.8978 -0.4394
vn 0.5920 -0.6756 -0.4394
vn 0.7352 -0.6711 -0.0954
vn 0.3823 -0.7886 0.4817
vn 0.6007 -0.6759 0.4269
vn 0.0223 -0.9040 0.4269
vn 0.2588 -0.8373 0.4817
vn 0.3151 -0.7991 0.5121
vn -0.4609 -0.5201 0.7191
vn -0.0226 -0.3062 0.9517
vn -0.7339 -0.6440 0.2161
vn 0.6843 -0.0675 -0.7261
vn 0.2036 -0.2086 -0.9566
vn 0.9990 0.0435 0.0030
vn 0.9776 0.0296 -0.2084
vn 0.2256 -0.2084 0.9517
vn 0.6918 -0.0656 0.7191
vn 0.9759 0.0303 0.2161
vn 0.0997 -0.2528 0.9624
vn -0.7599 -0.6501 0.0030
vn 0.0974 -0.2469 -0.9641
vn -0.4541 -0.5164 -0.7261
vn -0.7347 -0.6456 -0.2084
vn -0.0064 -0.2914 -0.9566
vt 0.000000 0.000000
s 1
f 83/2/51 82/2/51 68/2/51 70/2/51
f 84/2/51 83/2/51 70/2/51 73/2/51
f 85/2/52 84/2/51 73/2/51 76/2/53
f 82/2/51 86/2/54 79/2/55 68/2/51
f 87/2/51 91/2/51 81/2/56 69/2/57
f 88/2/51 87/2/51 69/2/57 72/2/58
f 89/2/59 88/2/51 72/2/58 75/2/60
f 91/2/51 90/2/61 78/2/62 81/2/56
f 67/2/63 80/2/64 86/2/54 82/2/51
f 77/2/65 74/2/66 84/2/51 85/2/52
f 74/2/66 71/2/67 83/2/51 84/2/51
f 71/2/67 67/2/63 82/2/51 83/2/51
f 68/2/51 79/2/55 90/2/61 91/2/51
f 76/2/53 73/2/51 88/2/51 89/2/59
f 73/2/51 70/2/51 87/2/51 88/2/51
f 70/2/51 68/2/51 91/2/51 87/2/51
f 108/2/68 95/2/68 93/2/68 107/2/68
f 109/2/68 98/2/68 95/2/68 108/2/68
f 110/2/69 101/2/70 98/2/68 109/2/68
f 107/2/68 93/2/68 104/2/71 111/2/72
f 112/2/68 94/2/73 106/2/74 116/2/68
f 113/2/68 97/2/75 94/2/73 112/2/68
f 114/2/76 100/2/77 97/2/75 113/2/68
f 116/2/68 106/2/74 103/2/78 115/2/79
f 92/2/80 107/2/68 111/2/72 105/2/81
f 102/2/82 110/2/69 109/2/68 99/2/83
f 99/2/83 109/2/68 108/2/68 96/2/84
f 96/2/84 108/2/68 107/2/68 92/2/80
f 93/2/68 116/2/68 115/2/79 104/2/71
f 101/2/70 114/2/76 113/2/68 98/2/68
f 98/2/68 113/2/68 112/2/68 95/2/68
f 95/2/68 112/2/68 116/2/68 93/2/68
f 118/2/85 102/2/82 99/2/83 117/2/86
f 119/2/87 110/2/69 102/2/82 118/2/85
f 121/2/88 103/2/78 106/2/74 120/2/89
f 123/2/90 104/2/71 115/2/79 122/2/91
f 125/2/92 92/2/80 105/2/81 124/2/93
f 124/2/93 105/2/81 111/2/72 126/2/94
f 127/2/95 96/2/84 92/2/80 125/2/92
f 128/2/96 101/2/70 110/2/69 119/2/87
f 120/2/89 106/2/74 94/2/73 129/2/97
f 131/2/98 100/2/77 114/2/76 130/2/99
f 117/2/86 99/2/83 96/2/84 127/2/95
f 126/2/94 111/2/72 104/2/71 123/2/90
f 129/2/97 94/2/73 97/2/75 132/2/100
f 122/2/91 115/2/79 103/2/78 121/2/88
f 130/2/99 114/2/76 101/2/70 128/2/96
f 132/2/100 97/2/75 100/2/77 131/2/98
f 72/2/58 132/2/100 131/2/98 75/2/60
f 89/2/59 130/2/99 128/2/96 76/2/53
f 90/2/61 122/2/91 121/2/88 78/2/62
f 69/2/57 129/2/97 132/2/100 72/2/58
f 86/2/54 126/2/94 123/2/90 79/2/55
f 74/2/66 117/2/86 127/2/95 71/2/67
f 75/2/60 131/2/98 130/2/99 89/2/59
f 81/2/56 120/2/89 129/2/97 69/2/57
f 76/2/53 128/2/96 119/2/87 85/2/52
f 71/2/67 127/2/95 125/2/92 67/2/63
f 80/2/64 124/2/93 126/2/94 86/2/54
f 67/2/63 125/2/92 124/2/93 80/2/64
f 79/2/55 123/2/90 122/2/91 90/2/61
f 78/2/62 121/2/88 120/2/89 81/2/56
f 85/2/52 119/2/87 118/2/85 77/2/65
f 77/2/65 118/2/85 117/2/86 74/2/66
o Bomber_Wheel_Trim_Back
v -3.586035 0.029131 -0.093016
v -3.590454 0.031743 0.001773
v -3.533456 -0.001937 0.097735
v -3.533457 -0.001937 0.001773
v -3.533457 -0.001937 -0.100889
v -3.480878 -0.033006 0.090208
v -3.476459 -0.035617 0.001772
v -3.480878 -0.033006 -0.093016
v -3.436983 -0.058943 0.084423
v -3.421651 -0.068002 0.001772
v -3.438457 -0.058072 -0.085626
v -3.629930 0.055068 0.084423
v -3.645262 0.064128 0.001773
v -3.628457 0.054198 -0.085626
v -3.586035 0.029131 0.090208
v -3.587588 0.030049 -0.047033
v -3.533457 -0.001937 -0.049558
v -3.479326 -0.033923 -0.047033
v -3.427274 -0.064680 -0.047033
v -3.639638 0.060805 -0.047033
v -3.533456 -0.001937 0.049754
v -3.479005 -0.034112 0.047561
v -3.426646 -0.065051 0.047561
v -3.640267 0.061177 0.047561
v -3.587908 0.030238 0.047561
v -3.677356 -0.161708 -0.064896
v -3.680439 -0.159886 0.001237
v -3.640673 -0.183384 0.068188
v -3.640673 -0.183384 0.001237
v -3.640673 -0.183384 -0.070389
v -3.603990 -0.205060 0.062937
v -3.600907 -0.206882 0.001237
v -3.603990 -0.205060 -0.064896
v -3.573365 -0.223156 0.058900
v -3.562668 -0.229477 0.001237
v -3.574393 -0.222549 -0.059740
v -3.707981 -0.143612 0.058900
v -3.718678 -0.137292 0.001237
v -3.706953 -0.144220 -0.059740
v -3.677356 -0.161708 0.062937
v -3.678439 -0.161068 -0.032814
v -3.640673 -0.183384 -0.034576
v -3.602907 -0.205700 -0.032814
v -3.566592 -0.227159 -0.032814
v -3.714754 -0.139610 -0.032814
v -3.640673 -0.183384 0.034712
v -3.602683 -0.205832 0.033182
v -3.566153 -0.227418 0.033182
v -3.715193 -0.139351 0.033182
v -3.678663 -0.160936 0.033182
v -3.563489 -0.172812 -0.093016
v -3.521068 -0.197879 -0.085626
v -3.509886 -0.204487 -0.047033
v -3.668646 -0.110676 0.090208
v -3.712541 -0.084738 0.084423
v -3.722879 -0.078630 0.047561
v -3.727873 -0.075679 0.001773
v -3.711068 -0.085609 -0.085626
v -3.668646 -0.110676 -0.093016
v -3.722250 -0.079001 -0.047033
v -3.616068 -0.141744 -0.100889
v -3.504263 -0.207809 0.001773
v -3.616068 -0.141744 0.097735
v -3.509257 -0.204858 0.047561
v -3.519595 -0.198750 0.084423
v -3.563489 -0.172812 0.090208
vn 0.5087 0.8609 -0.0000
vn 0.9590 0.2304 -0.1650
vn 0.9774 0.2113 -0.0026
vn -0.2608 0.9512 -0.1650
vn -0.2864 0.9581 -0.0026
vn 0.2888 0.6519 0.7011
vn 0.3462 0.5859 0.7327
vn 0.4317 0.5675 0.7011
vn 0.9601 0.2301 0.1590
vn 0.7410 0.2628 0.6179
vn -0.2616 0.9520 0.1590
vn -0.1272 0.7759 0.6179
vn 0.2742 0.6566 -0.7026
vn -0.1312 0.7819 -0.6094
vn 0.7482 0.2623 -0.6094
vn 0.4429 0.5569 -0.7026
vn 0.3456 0.5849 -0.7337
vn -0.5087 -0.8609 -0.0000
vn -0.0771 -0.9920 -0.0995
vn -0.0579 -0.9983 -0.0020
vn -0.8465 -0.5323 -0.0020
vn -0.8318 -0.5461 -0.0995
vn -0.4354 -0.7368 0.5172
vn -0.4934 -0.7210 0.4865
vn -0.3936 -0.7800 0.4865
vn -0.0779 -0.9924 0.0954
vn -0.1694 -0.8821 0.4394
vn -0.6910 -0.5740 0.4394
vn -0.8317 -0.5470 0.0954
vn -0.5017 -0.7185 -0.4817
vn -0.6997 -0.5729 -0.4269
vn -0.1643 -0.8893 -0.4269
vn -0.3874 -0.7861 -0.4817
vn -0.4370 -0.7395 -0.5121
vn 0.3732 -0.5862 -0.7191
vn -0.0258 -0.3060 -0.9517
vn 0.6234 -0.7515 -0.2161
vn -0.6864 0.0411 0.7261
vn -0.2339 -0.1740 0.9566
vn -0.9797 0.2003 -0.0030
vn -0.9607 0.1831 0.2084
vn -0.2556 -0.1703 -0.9517
vn -0.6935 0.0441 -0.7191
vn -0.9590 0.1835 -0.2161
vn -0.1383 -0.2340 -0.9624
vn 0.6481 -0.7616 -0.0030
vn -0.1350 -0.2285 0.9641
vn 0.3671 -0.5814 0.7261
vn 0.6239 -0.7532 0.2084
vn -0.0396 -0.2888 0.9566
vt 0.000000 0.000000
s 1
f 149/3/101 148/3/101 134/3/101 136/3/101
f 150/3/101 149/3/101 136/3/101 139/3/101
f 151/3/102 150/3/101 139/3/101 142/3/103
f 148/3/101 152/3/104 145/3/105 134/3/101
f 153/3/101 157/3/101 147/3/106 135/3/107
f 154/3/101 153/3/101 135/3/107 138/3/108
f 155/3/109 154/3/101 138/3/108 141/3/110
f 157/3/101 156/3/111 144/3/112 147/3/106
f 133/3/113 146/3/114 152/3/104 148/3/101
f 143/3/115 140/3/116 150/3/101 151/3/102
f 140/3/116 137/3/117 149/3/101 150/3/101
f 137/3/117 133/3/113 148/3/101 149/3/101
f 134/3/101 145/3/105 156/3/111 157/3/101
f 142/3/103 139/3/101 154/3/101 155/3/109
f 139/3/101 136/3/101 153/3/101 154/3/101
f 136/3/101 134/3/101 157/3/101 153/3/101
f 174/3/118 161/3/118 159/3/118 173/3/118
f 175/3/118 164/3/118 161/3/118 174/3/118
f 176/3/119 167/3/120 164/3/118 175/3/118
f 173/3/118 159/3/118 170/3/121 177/3/122
f 178/3/118 160/3/123 172/3/124 182/3/118
f 179/3/118 163/3/125 160/3/123 178/3/118
f 180/3/126 166/3/127 163/3/125 179/3/118
f 182/3/118 172/3/124 169/3/128 181/3/129
f 158/3/130 173/3/118 177/3/122 171/3/131
f 168/3/132 176/3/119 175/3/118 165/3/133
f 165/3/133 175/3/118 174/3/118 162/3/134
f 162/3/134 174/3/118 173/3/118 158/3/130
f 159/3/118 182/3/118 181/3/129 170/3/121
f 167/3/120 180/3/126 179/3/118 164/3/118
f 164/3/118 179/3/118 178/3/118 161/3/118
f 161/3/118 178/3/118 182/3/118 159/3/118
f 184/3/135 168/3/132 165/3/133 183/3/136
f 185/3/137 176/3/119 168/3/132 184/3/135
f 187/3/138 169/3/128 172/3/124 186/3/139
f 189/3/140 170/3/121 181/3/129 188/3/141
f 191/3/142 158/3/130 171/3/131 190/3/143
f 190/3/143 171/3/131 177/3/122 192/3/144
f 193/3/145 162/3/134 158/3/130 191/3/142
f 194/3/146 167/3/120 176/3/119 185/3/137
f 186/3/139 172/3/124 160/3/123 195/3/147
f 197/3/148 166/3/127 180/3/126 196/3/149
f 183/3/136 165/3/133 162/3/134 193/3/145
f 192/3/144 177/3/122 170/3/121 189/3/140
f 195/3/147 160/3/123 163/3/125 198/3/150
f 188/3/141 181/3/129 169/3/128 187/3/138
f 196/3/149 180/3/126 167/3/120 194/3/146
f 198/3/150 163/3/125 166/3/127 197/3/148
f 138/3/108 198/3/150 197/3/148 141/3/110
f 155/3/109 196/3/149 194/3/146 142/3/103
f 156/3/111 188/3/141 187/3/138 144/3/112
f 135/3/107 195/3/147 198/3/150 138/3/108
f 152/3/104 192/3/144 189/3/140 145/3/105
f 140/3/116 183/3/136 193/3/145 137/3/117
f 141/3/110 197/3/148 196/3/149 155/3/109
f 147/3/106 186/3/139 195/3/147 135/3/107
f 142/3/103 194/3/146 185/3/137 151/3/102
f 137/3/117 193/3/145 191/3/142 133/3/113
f 146/3/114 190/3/143 192/3/144 152/3/104
f 133/3/113 191/3/142 190/3/143 146/3/114
f 145/3/105 189/3/140 188/3/141 156/3/111
f 144/3/112 187/3/138 186/3/139 147/3/106
f 151/3/102 185/3/137 184/3/135 143/3/115
f 143/3/115 184/3/135 183/3/136 140/3/116
