# Blender 4.0.1
# www.blender.org
o Bomber_Propeller_Blade_Trim_Right
v 2.330207 -0.031288 0.326055
v 2.315463 -0.031431 0.330208
v 2.177573 -0.031258 1.883713
v 2.207087 -0.031246 1.549748
v 2.446313 -0.031275 1.197411
v 2.485182 -0.031246 1.549748
v 2.285886 -0.031355 0.844176
v 2.376806 -0.031431 0.330208
v 2.406383 -0.031355 0.844176
v 2.245956 -0.031275 1.197411
v 2.377668 -0.018799 0.330075
v 2.402302 -0.076340 0.832945
v 2.314601 -0.018799 0.330075
v 2.289967 -0.076340 0.832945
v 2.257826 -0.129811 1.177354
v 2.228391 -0.178854 1.520221
v 2.434443 -0.129811 1.177354
v 2.463878 -0.178854 1.520221
v 2.195215 -0.209356 1.848238
v 2.331339 -0.019028 0.327023
v 2.258531 -0.031083 2.035190
v 2.183696 -0.031295 1.999770
v 2.413458 -0.234920 2.012711
v 2.487275 -0.195405 1.973249
v 2.497054 -0.209356 1.848238
v 2.514696 -0.031258 1.883713
v 2.508573 -0.031295 1.999770
v 2.362062 -0.031288 0.326055
v 2.346134 -0.031288 0.324872
v 2.360930 -0.019028 0.327023
v 2.346134 -0.019240 0.325918
v 2.433738 -0.031083 2.035190
v 2.346134 -0.031224 2.077486
v 2.278811 -0.234920 2.012711
v 2.346134 -0.274458 2.046783
v 2.204994 -0.195405 1.973249
v 2.330207 0.030977 0.326055
v 2.315463 0.031120 0.330208
v 2.177573 0.030947 1.883713
v 2.207087 0.030935 1.549748
v 2.446313 0.030964 1.197411
v 2.485182 0.030935 1.549748
v 2.285886 0.031044 0.844176
v 2.376806 0.031120 0.330208
v 2.406383 0.031044 0.844176
v 2.245956 0.030964 1.197411
v 2.377668 0.018488 0.330075
v 2.402302 0.076029 0.832945
v 2.314601 0.018488 0.330075
v 2.289967 0.076029 0.832945
v 2.257826 0.129500 1.177354
v 2.228391 0.178543 1.520221
v 2.434443 0.129500 1.177354
v 2.463878 0.178543 1.520221
v 2.331339 0.018717 0.327023
v 2.258531 0.030772 2.035190
v 2.183696 0.030983 1.999770
v 2.413458 0.234609 2.012711
v 2.487275 0.195094 1.973249
v 2.195215 0.209045 1.848238
v 2.204994 0.195094 1.973249
v 2.514696 0.030947 1.883713
v 2.508573 0.030983 1.999770
v 2.497054 0.209045 1.848238
v 2.362062 0.030977 0.326055
v 2.346134 0.030977 0.324872
v 2.360930 0.018717 0.327023
v 2.346134 0.018929 0.325918
v 2.433738 0.030772 2.035190
v 2.346134 0.030913 2.077486
v 2.278811 0.234609 2.012711
v 2.346134 0.274147 2.046783
v 2.304653 -0.020291 0.342349
v 2.305521 -0.032923 0.342487
v 2.387616 -0.020291 0.342349
v 2.386748 -0.032923 0.342487
v 2.332627 -0.032229 0.341711
v 2.212694 -0.180533 1.518605
v 2.191387 -0.032905 1.548142
v 2.479575 -0.180533 1.518605
v 2.500882 -0.032905 1.548142
v 2.161808 -0.033073 1.883679
v 2.462010 -0.032876 1.195718
v 2.270133 -0.032675 0.842790
v 2.422136 -0.032675 0.842790
v 2.230258 -0.032876 1.195718
v 2.274204 -0.077646 0.831654
v 2.418065 -0.077646 0.831654
v 2.242125 -0.131377 1.175655
v 2.450144 -0.131377 1.175655
v 2.179448 -0.211114 1.847844
v 2.333647 -0.020007 0.342693
v 2.192049 -0.198074 1.982032
v 2.170665 -0.033957 2.008425
v 2.500220 -0.198074 1.982032
v 2.521604 -0.033957 2.008425
v 2.251043 -0.033427 2.048984
v 2.420907 -0.237148 2.026545
v 2.512821 -0.211114 1.847844
v 2.530461 -0.033073 1.883679
v 2.359642 -0.032229 0.341711
v 2.346134 -0.032652 0.340682
v 2.358622 -0.020007 0.342693
v 2.346134 -0.020605 0.341728
v 2.441226 -0.033427 2.048984
v 2.346134 -0.033470 2.093196
v 2.271362 -0.237148 2.026545
v 2.346134 -0.276704 2.062493
v 2.332627 0.031918 0.341711
v 2.305521 0.032612 0.342487
v 2.161808 0.032762 1.883679
v 2.191387 0.032594 1.548142
v 2.462010 0.032565 1.195718
v 2.500882 0.032594 1.548142
v 2.270133 0.032364 0.842790
v 2.386748 0.032612 0.342487
v 2.422136 0.032364 0.842790
v 2.230258 0.032565 1.195718
v 2.418065 0.077335 0.831654
v 2.304653 0.019980 0.342349
v 2.387616 0.019980 0.342349
v 2.212694 0.180222 1.518605
v 2.479575 0.180222 1.518605
v 2.274204 0.077335 0.831654
v 2.242125 0.131066 1.175655
v 2.450144 0.131066 1.175655
v 2.333647 0.019696 0.342693
v 2.251043 0.033116 2.048984
v 2.170665 0.033646 2.008425
v 2.192049 0.197763 1.982032
v 2.521604 0.033646 2.008425
v 2.500220 0.197763 1.982032
v 2.420907 0.236837 2.026545
v 2.179448 0.210803 1.847844
v 2.530461 0.032762 1.883679
v 2.512821 0.210803 1.847844
v 2.359642 0.031918 0.341711
v 2.346134 0.032341 0.340682
v 2.358622 0.019696 0.342693
v 2.346134 0.020294 0.341728
v 2.441226 0.033116 2.048984
v 2.346134 0.033159 2.093196
v 2.271362 0.236837 2.026545
v 2.346134 0.276393 2.062493
vn -0.7764 -0.6298 -0.0220
vn -0.7772 -0.6293 -0.0038
vn -0.6224 0.7801 0.0640
vn -0.6295 0.7741 0.0677
vn -0.4484 0.7579 -0.4738
vn -0.7728 -0.6339 -0.0309
vn -0.6433 0.7635 0.0567
vn -0.4339 -0.6366 -0.6376
vn 0.4339 -0.6365 -0.6376
vn 0.6433 0.7635 0.0567
vn 0.7728 -0.6339 -0.0309
vn 0.4484 0.7579 -0.4738
vn 0.6295 0.7741 0.0677
vn 0.6224 0.7801 0.0640
vn 0.7772 -0.6293 -0.0038
vn 0.7764 -0.6298 -0.0220
vn 0.5949 0.8038 0.0028
vn 0.3320 0.9183 -0.2157
vn 0.5590 -0.6504 -0.5143
vn 0.7546 -0.6559 0.0190
vn 0.1134 -0.6346 -0.7645
vn 0.0921 0.7448 -0.6609
vn -0.2856 0.8069 -0.5171
vn -0.3320 0.9183 -0.2157
vn -0.5590 -0.6504 -0.5143
vn -0.1177 -0.5253 -0.8427
vn -0.7546 -0.6559 0.0190
vn -0.5949 0.8038 0.0028
vn 0.2856 0.8069 -0.5171
vn -0.0000 0.9006 -0.4346
vn -0.0000 -0.7517 -0.6595
vn 0.1177 -0.5253 -0.8427
vn -0.1134 -0.6346 -0.7645
vn -0.0921 0.7448 -0.6609
vn -0.0000 0.7416 -0.6709
vn -0.0000 -0.6330 -0.7741
vn 0.0921 -0.7448 -0.6609
vn 0.1134 0.6346 -0.7645
vn -0.4339 0.6366 -0.6376
vn -0.4484 -0.7579 -0.4738
vn 0.7764 0.6298 -0.0220
vn 0.7772 0.6293 -0.0038
vn 0.6224 -0.7801 0.0640
vn 0.6295 -0.7741 0.0677
vn 0.4484 -0.7579 -0.4738
vn 0.7728 0.6339 -0.0309
vn 0.6433 -0.7635 0.0567
vn 0.4339 0.6366 -0.6376
vn -0.6433 -0.7635 0.0567
vn -0.7728 0.6339 -0.0309
vn -0.6295 -0.7741 0.0677
vn -0.6224 -0.7801 0.0640
vn -0.7772 0.6293 -0.0038
vn -0.7764 0.6298 -0.0220
vn -0.1177 0.5253 -0.8427
vn -0.5590 0.6504 -0.5143
vn -0.3320 -0.9183 -0.2157
vn -0.2856 -0.8069 -0.5171
vn 0.7546 0.6559 0.0190
vn 0.5590 0.6504 -0.5143
vn 0.3320 -0.9183 -0.2157
vn 0.5949 -0.8038 0.0028
vn -0.5949 -0.8038 0.0028
vn -0.7546 0.6559 0.0190
vn 0.1177 0.5253 -0.8427
vn -0.0000 0.7517 -0.6595
vn -0.0000 -0.9006 -0.4346
vn 0.2856 -0.8069 -0.5171
vn -0.0921 -0.7448 -0.6609
vn -0.1134 0.6346 -0.7645
vn -0.0000 0.6330 -0.7741
vn -0.0000 -0.7416 -0.6709
vn 0.6206 -0.7649 -0.1725
vn 0.7695 0.6332 -0.0832
vn 0.7755 0.6264 -0.0789
vn 0.6104 -0.7784 -0.1467
vn 0.5113 -0.7090 0.4856
vn 0.6669 0.5392 0.5142
vn 0.7616 0.6442 -0.0707
vn 0.6416 -0.7518 -0.1521
vn -0.6670 0.5392 0.5142
vn -0.5113 -0.7090 0.4856
vn -0.6416 -0.7518 -0.1521
vn -0.7616 0.6442 -0.0707
vn -0.7695 0.6332 -0.0832
vn -0.6206 -0.7649 -0.1725
vn -0.6104 -0.7784 -0.1467
vn -0.7755 0.6264 -0.0789
vn -0.8006 0.5991 0.0060
vn -0.6162 -0.7875 -0.0114
vn -0.6796 -0.6463 0.3472
vn -0.7233 0.4954 0.4811
vn -0.0242 -0.7428 0.6691
vn -0.0439 0.6529 0.7562
vn 0.3825 0.5874 0.7132
vn 0.5529 -0.7248 0.4111
vn 0.6796 -0.6463 0.3472
vn 0.7233 0.4954 0.4811
vn 0.6162 -0.7875 -0.0114
vn 0.8006 0.5991 0.0060
vn -0.3825 0.5874 0.7132
vn -0.5529 -0.7248 0.4111
vn -0.0000 -0.8210 0.5710
vn -0.0000 0.5291 0.8485
vn 0.0242 -0.7428 0.6691
vn -0.0000 -0.7833 0.6217
vn -0.0000 0.6542 0.7564
vn 0.0439 0.6529 0.7562
vn -0.0439 -0.6529 0.7562
vn 0.5113 0.7090 0.4856
vn 0.6670 -0.5392 0.5142
vn -0.0242 0.7428 0.6691
vn -0.6206 0.7649 -0.1725
vn -0.7695 -0.6332 -0.0832
vn -0.7755 -0.6264 -0.0789
vn -0.6104 0.7784 -0.1467
vn -0.5113 0.7090 0.4856
vn -0.6669 -0.5392 0.5142
vn -0.7616 -0.6442 -0.0707
vn -0.6416 0.7518 -0.1521
vn 0.6416 0.7518 -0.1521
vn 0.7616 -0.6442 -0.0707
vn 0.7695 -0.6332 -0.0832
vn 0.6206 0.7649 -0.1725
vn 0.6104 0.7784 -0.1467
vn 0.7755 -0.6264 -0.0789
vn 0.5529 0.7248 0.4111
vn 0.3825 -0.5874 0.7132
vn 0.7233 -0.4954 0.4811
vn 0.6796 0.6463 0.3472
vn -0.6162 0.7875 -0.0114
vn -0.8006 -0.5991 0.0060
vn -0.7233 -0.4954 0.4811
vn -0.6796 0.6463 0.3472
vn 0.8006 -0.5991 0.0060
vn 0.6162 0.7875 -0.0114
vn -0.5529 0.7248 0.4111
vn -0.3825 -0.5875 0.7132
vn -0.0000 -0.5291 0.8485
vn -0.0000 0.8210 0.5710
vn 0.0439 -0.6529 0.7562
vn -0.0000 -0.6542 0.7564
vn -0.0000 0.7833 0.6217
vn 0.0242 0.7428 0.6691
vt 0.447420 0.500000
vt 0.447420 0.500000
vt 0.447420 0.500000
vt 0.447420 0.500000
vt 0.447420 0.500000
vt 0.447420 0.500000
vt 0.447420 0.500000
vt 0.447420 0.500000
vt 0.447420 0.500000
vt 0.447420 0.500000
vt 0.447420 0.500000
vt 0.447420 0.500000
vt 0.447420 0.500000
vt 0.447420 0.500000
vt 0.447420 0.500000
s 1
f 17/1/1 18/1/2 6/2/3 5/3/4
f 11/1/5 12/4/6 9/5/7 8/1/8
f 2/5/9 7/1/10 14/1/11 13/6/12
f 10/7/13 4/1/14 16/3/15 15/2/16
f 3/8/17 22/1/18 36/9/19 19/5/20
f 28/10/21 30/2/22 11/1/5 8/1/8
f 32/11/23 27/1/24 24/2/25 23/1/26
f 25/8/27 24/2/25 27/1/24 26/1/28
f 21/2/29 33/5/30 35/3/31 34/1/32
f 1/1/33 20/1/34 31/2/35 29/1/36
f 33/5/30 32/11/23 23/1/26 35/3/31
f 29/1/36 31/2/35 30/2/22 28/10/21
f 2/5/9 13/6/12 20/1/34 1/1/33
f 22/1/18 21/2/29 34/1/32 36/9/19
f 18/1/2 25/8/27 26/1/28 6/2/3
f 4/1/14 3/8/17 19/5/20 16/3/15
f 7/1/10 10/7/13 15/2/16 14/1/11
f 12/4/6 17/1/1 5/3/4 9/5/7
f 67/11/37 65/1/38 44/9/39 47/8/40
f 51/1/41 52/5/42 40/12/43 46/5/44
f 49/13/45 50/3/46 43/1/47 38/5/48
f 44/9/39 45/1/49 48/2/50 47/8/40
f 41/1/51 42/2/52 54/1/53 53/1/54
f 58/1/55 59/1/56 63/2/57 69/1/58
f 60/2/59 61/2/60 57/1/61 39/2/62
f 62/5/63 63/2/57 59/1/56 64/1/64
f 71/1/65 72/14/66 70/2/67 56/13/68
f 55/5/69 37/1/70 66/15/71 68/11/72
f 72/14/66 58/1/55 69/1/58 70/2/67
f 68/11/72 66/15/71 65/1/38 67/11/37
f 49/13/45 38/5/48 37/1/70 55/5/69
f 61/2/60 71/1/65 56/13/68 57/1/61
f 42/2/52 62/5/63 64/1/64 54/1/53
f 52/5/42 60/2/59 39/2/62 40/12/43
f 45/1/49 41/1/51 53/1/54 48/2/50
f 50/3/46 51/1/41 46/5/44 43/1/47
f 90/1/73 83/3/74 81/2/75 80/1/76
f 75/1/77 76/1/78 85/5/79 88/4/80
f 74/5/81 73/6/82 87/1/83 84/1/84
f 86/7/85 89/2/86 78/3/87 79/1/88
f 82/8/89 91/5/90 93/9/91 94/1/92
f 101/10/93 76/1/78 75/1/77 103/2/94
f 105/11/95 98/1/96 95/2/97 96/1/98
f 99/8/99 100/1/100 96/1/98 95/2/97
f 97/2/101 107/1/102 108/3/103 106/5/104
f 77/1/105 102/1/106 104/2/107 92/1/108
f 106/5/104 108/3/103 98/1/96 105/11/95
f 102/1/106 101/10/93 103/2/94 104/2/107
f 74/5/81 77/1/105 92/1/108 73/6/82
f 94/1/92 93/9/91 107/1/102 97/2/101
f 80/1/76 81/2/75 100/1/100 99/8/99
f 79/1/88 78/3/87 91/5/90 82/8/89
f 84/1/84 87/1/83 89/2/86 86/7/85
f 88/4/80 85/5/79 83/3/74 90/1/73
f 139/11/109 121/8/110 116/9/111 137/1/112
f 125/1/113 118/5/114 112/12/115 122/5/116
f 120/13/117 110/5/118 115/1/119 124/3/120
f 116/9/111 121/8/110 119/2/121 117/1/122
f 113/1/123 126/1/124 123/1/125 114/2/126
f 133/1/127 141/1/128 131/2/129 132/1/130
f 134/2/131 111/2/132 129/1/133 130/2/134
f 135/5/135 136/1/136 132/1/130 131/2/129
f 143/1/137 128/13/138 142/2/139 144/14/140
f 127/5/141 140/11/142 138/15/143 109/1/144
f 144/14/140 142/2/139 141/1/128 133/1/127
f 140/11/142 139/11/109 137/1/112 138/15/143
f 120/13/117 127/5/141 109/1/144 110/5/118
f 130/2/134 129/1/133 128/13/138 143/1/137
f 114/2/126 123/1/125 136/1/136 135/5/135
f 122/5/116 112/12/115 111/2/132 134/2/131
f 117/1/122 119/2/121 126/1/124 113/1/123
f 124/3/120 115/1/119 118/5/114 125/1/113
f 1/1/33 29/1/36 102/1/106 77/1/105
f 31/2/35 20/1/34 92/1/108 104/2/107
f 66/15/71 37/1/70 109/1/144 138/15/143
f 33/5/30 21/2/29 97/2/101 106/5/104
f 12/4/6 11/1/5 75/1/77 88/4/80
f 55/5/69 68/11/72 140/11/142 127/5/141
f 36/9/19 34/1/32 107/1/102 93/9/91
f 13/6/12 14/1/11 87/1/83 73/6/82
f 56/13/68 70/2/67 142/2/139 128/13/138
f 47/8/40 48/2/50 119/2/121 121/8/110
f 15/2/16 16/3/15 78/3/87 89/2/86
f 71/1/65 61/2/60 130/2/134 143/1/137
f 50/3/46 49/13/45 120/13/117 124/3/120
f 18/1/2 17/1/1 90/1/73 80/1/76
f 52/5/42 51/1/41 125/1/113 122/5/116
f 22/1/18 3/8/17 82/8/89 94/1/92
f 16/3/15 19/5/20 91/5/90 78/3/87
f 53/1/54 54/1/53 123/1/125 126/1/124
f 19/5/20 36/9/19 93/9/91 91/5/90
f 20/1/34 13/6/12 73/6/82 92/1/108
f 39/2/62 57/1/61 129/1/133 111/2/132
f 49/13/45 55/5/69 127/5/141 120/13/117
f 25/8/27 18/1/2 80/1/76 99/8/99
f 60/2/59 52/5/42 122/5/116 134/2/131
f 57/1/61 56/13/68 128/13/138 129/1/133
f 6/2/3 26/1/28 100/1/100 81/2/75
f 62/5/63 42/2/52 114/2/126 135/5/135
f 21/2/29 22/1/18 94/1/92 97/2/101
f 54/1/53 64/1/64 136/1/136 123/1/125
f 23/1/26 24/2/25 95/2/97 98/1/96
f 59/1/56 58/1/55 133/1/127 132/1/130
f 9/5/7 5/3/4 83/3/74 85/5/79
f 24/2/25 25/8/27 99/8/99 95/2/97
f 61/2/60 60/2/59 134/2/131 130/2/134
f 4/1/14 10/7/13 86/7/85 79/1/88
f 26/1/28 27/1/24 96/1/98 100/1/100
f 41/1/51 45/1/49 117/1/122 113/1/123
f 63/2/57 62/5/63 135/5/135 131/2/129
f 14/1/11 15/2/16 89/2/86 87/1/83
f 29/1/36 28/10/21 101/10/93 102/1/106
f 46/5/44 40/12/43 112/12/115 118/5/114
f 64/1/64 59/1/56 132/1/130 136/1/136
f 17/1/1 12/4/6 88/4/80 90/1/73
f 30/2/22 31/2/35 104/2/107 103/2/94
f 51/1/41 50/3/46 124/3/120 125/1/113
f 65/1/38 66/15/71 138/15/143 137/1/112
f 32/11/23 33/5/30 106/5/104 105/11/95
f 48/2/50 53/1/54 126/1/124 119/2/121
f 68/11/72 67/11/37 139/11/109 140/11/142
f 34/1/32 35/3/31 108/3/103 107/1/102
f 70/2/67 69/1/58 141/1/128 142/2/139
f 37/1/70 38/5/48 110/5/118 109/1/144
f 2/5/9 1/1/33 77/1/105 74/5/81
f 72/14/66 71/1/65 143/1/137 144/14/140
f 40/12/43 39/2/62 111/2/132 112/12/115
f 42/2/52 41/1/51 113/1/123 114/2/126
f 35/3/31 23/1/26 98/1/96 108/3/103
f 38/5/48 43/1/47 115/1/119 110/5/118
f 28/10/21 8/1/8 76/1/78 101/10/93
f 3/8/17 4/1/14 79/1/88 82/8/89
f 58/1/55 72/14/66 144/14/140 133/1/127
f 45/1/49 44/9/39 116/9/111 117/1/122
f 11/1/5 30/2/22 103/2/94 75/1/77
f 5/3/4 6/2/3 81/2/75 83/3/74
f 44/9/39 65/1/38 137/1/112 116/9/111
f 43/1/47 46/5/44 118/5/114 115/1/119
f 27/1/24 32/11/23 105/11/95 96/1/98
f 7/1/10 2/5/9 74/5/81 84/1/84
f 67/11/37 47/8/40 121/8/110 139/11/109
f 8/1/8 9/5/7 85/5/79 76/1/78
f 69/1/58 63/2/57 131/2/129 141/1/128
f 10/7/13 7/1/10 84/1/84 86/7/85
