# Blender 4.0.1
# www.blender.org
o Bomber_Wheel_Connector_Left
v 0.529453 -1.032369 -0.593317
v 0.532240 -1.031270 -0.648639
v 0.496294 -1.045445 -0.704648
v 0.496294 -1.045445 -0.648639
v 0.496294 -1.045445 -0.588722
v 0.463135 -1.058520 -0.700254
v 0.460348 -1.059619 -0.648639
v 0.463135 -1.058520 -0.593317
v 0.435452 -1.069436 -0.696878
v 0.425783 -1.073249 -0.648639
v 0.436381 -1.069070 -0.597630
v 0.557136 -1.021454 -0.696878
v 0.566805 -1.017641 -0.648639
v 0.556207 -1.021820 -0.597630
v 0.529453 -1.032369 -0.700254
v 0.761071 -1.619756 -0.593317
v 0.763858 -1.618657 -0.648639
v 0.727912 -1.632832 -0.704647
v 0.727912 -1.632832 -0.648639
v 0.727912 -1.632832 -0.588722
v 0.694753 -1.645907 -0.700254
v 0.691966 -1.647006 -0.648639
v 0.694753 -1.645907 -0.593317
v 0.667070 -1.656823 -0.696878
v 0.657401 -1.660636 -0.648639
v 0.667999 -1.656457 -0.597630
v 0.788754 -1.608841 -0.696878
v 0.798423 -1.605028 -0.648639
v 0.787825 -1.609207 -0.597630
v 0.761071 -1.619756 -0.700254
v 0.530432 -1.031983 -0.620155
v 0.496294 -1.045445 -0.618681
v 0.462156 -1.058906 -0.620155
v 0.429329 -1.071850 -0.620155
v 0.563259 -1.019039 -0.620155
v 0.762050 -1.619370 -0.620155
v 0.727912 -1.632832 -0.618681
v 0.693773 -1.646293 -0.620155
v 0.660947 -1.659237 -0.620155
v 0.794877 -1.606426 -0.620155
v 0.496294 -1.045445 -0.676643
v 0.461953 -1.058986 -0.675363
v 0.428932 -1.072007 -0.675363
v 0.563655 -1.018883 -0.675363
v 0.530634 -1.031904 -0.675363
v 0.727912 -1.632832 -0.676643
v 0.693571 -1.646373 -0.675363
v 0.660550 -1.659394 -0.675363
v 0.795273 -1.606270 -0.675363
v 0.762252 -1.619291 -0.675363
vn -0.3668 0.9303 -0.0000
vn -0.9108 0.3785 0.1650
vn -0.9320 0.3626 0.0026
vn 0.4073 0.8982 0.1650
vn 0.4337 0.9011 0.0026
vn -0.1826 0.6893 -0.7011
vn -0.2497 0.6331 -0.7327
vn -0.3370 0.6284 -0.7011
vn -0.9119 0.3783 -0.1590
vn -0.6904 0.3762 -0.6179
vn 0.4083 0.8989 -0.1590
vn 0.2478 0.7462 -0.6179
vn 0.3668 -0.9303 -0.0000
vn -0.4073 -0.8982 0.1650
vn -0.4337 -0.9011 0.0026
vn 0.9320 -0.3626 0.0026
vn 0.9108 -0.3785 0.1650
vn 0.2497 -0.6331 -0.7327
vn 0.3370 -0.6284 -0.7011
vn 0.1826 -0.6893 -0.7011
vn -0.4083 -0.8989 -0.1590
vn -0.2478 -0.7462 -0.6179
vn 0.6904 -0.3762 -0.6179
vn 0.9119 -0.3783 -0.1590
vn -0.1674 0.6916 0.7026
vn -0.2492 0.6321 0.7337
vn 0.2492 -0.6321 0.7337
vn 0.3497 -0.6197 0.7026
vn -0.3497 0.6197 0.7026
vn -0.6976 0.3768 0.6094
vn -0.2527 -0.7515 0.6094
vn 0.1674 -0.6916 0.7026
vn 0.2527 0.7515 0.6094
vn 0.6976 -0.3768 0.6094
vt 0.000000 0.000000
s 1
f 32/1/1 31/1/1 2/1/1 4/1/1
f 33/1/1 32/1/1 4/1/1 7/1/1
f 34/1/2 33/1/1 7/1/1 10/1/3
f 31/1/1 35/1/4 13/1/5 2/1/1
f 41/1/1 45/1/1 15/1/6 3/1/7
f 42/1/1 41/1/1 3/1/7 6/1/8
f 43/1/9 42/1/1 6/1/8 9/1/10
f 45/1/1 44/1/11 12/1/12 15/1/6
f 37/1/13 19/1/13 17/1/13 36/1/13
f 38/1/13 22/1/13 19/1/13 37/1/13
f 39/1/14 25/1/15 22/1/13 38/1/13
f 36/1/13 17/1/13 28/1/16 40/1/17
f 46/1/13 18/1/18 30/1/19 50/1/13
f 47/1/13 21/1/20 18/1/18 46/1/13
f 48/1/21 24/1/22 21/1/20 47/1/13
f 50/1/13 30/1/19 27/1/23 49/1/24
f 6/1/8 3/1/7 18/1/18 21/1/20
f 1/1/25 5/1/26 20/1/27 16/1/28
f 34/1/2 10/1/3 25/1/15 39/1/14
f 8/1/29 11/1/30 26/1/31 23/1/32
f 9/1/10 6/1/8 21/1/20 24/1/22
f 44/1/11 13/1/5 28/1/16 49/1/24
f 15/1/6 12/1/12 27/1/23 30/1/19
f 5/1/26 8/1/29 23/1/32 20/1/27
f 3/1/7 15/1/6 30/1/19 18/1/18
f 35/1/4 14/1/33 29/1/34 40/1/17
f 14/1/33 1/1/25 16/1/28 29/1/34
f 43/1/9 9/1/10 24/1/22 48/1/21
f 13/1/5 35/1/4 40/1/17 28/1/16
f 11/1/30 34/1/2 39/1/14 26/1/31
f 16/1/28 36/1/13 40/1/17 29/1/34
f 26/1/31 39/1/14 38/1/13 23/1/32
f 23/1/32 38/1/13 37/1/13 20/1/27
f 20/1/27 37/1/13 36/1/13 16/1/28
f 1/1/25 14/1/33 35/1/4 31/1/1
f 11/1/30 8/1/29 33/1/1 34/1/2
f 8/1/29 5/1/26 32/1/1 33/1/1
f 5/1/26 1/1/25 31/1/1 32/1/1
f 10/1/3 43/1/9 48/1/21 25/1/15
f 12/1/12 44/1/11 49/1/24 27/1/23
f 17/1/13 50/1/13 49/1/24 28/1/16
f 25/1/15 48/1/21 47/1/13 22/1/13
f 22/1/13 47/1/13 46/1/13 19/1/13
f 19/1/13 46/1/13 50/1/13 17/1/13
f 2/1/1 13/1/5 44/1/11 45/1/1
f 10/1/3 7/1/1 42/1/1 43/1/9
f 7/1/1 4/1/1 41/1/1 42/1/1
f 4/1/1 2/1/1 45/1/1 41/1/1
o Bomber_Wheel_Connector_Right
v 0.529453 -1.032369 0.701893
v 0.532240 -1.031270 0.646571
v 0.496294 -1.045445 0.590562
v 0.496294 -1.045445 0.646571
v 0.496294 -1.045445 0.706488
v 0.463135 -1.058520 0.594956
v 0.460348 -1.059619 0.646571
v 0.463135 -1.058520 0.701893
v 0.435452 -1.069436 0.598332
v 0.425783 -1.073249 0.646571
v 0.436381 -1.069070 0.697580
v 0.557136 -1.021454 0.598332
v 0.566805 -1.017641 0.646571
v 0.556207 -1.021820 0.697580
v 0.529453 -1.032369 0.594956
v 0.761071 -1.619756 0.701893
v 0.763858 -1.618657 0.646571
v 0.727912 -1.632832 0.590562
v 0.727912 -1.632832 0.646571
v 0.727912 -1.632832 0.706488
v 0.694753 -1.645907 0.594956
v 0.691966 -1.647006 0.646571
v 0.694753 -1.645907 0.701893
v 0.667070 -1.656823 0.598332
v 0.657401 -1.660636 0.646571
v 0.667999 -1.656457 0.697580
v 0.788754 -1.608841 0.598332
v 0.798423 -1.605028 0.646571
v 0.787825 -1.609207 0.697580
v 0.761071 -1.619756 0.594956
v 0.530432 -1.031983 0.675055
v 0.496294 -1.045445 0.676529
v 0.462156 -1.058906 0.675055
v 0.429329 -1.071850 0.675055
v 0.563259 -1.019039 0.675055
v 0.762050 -1.619370 0.675055
v 0.727912 -1.632832 0.676529
v 0.693773 -1.646293 0.675055
v 0.660947 -1.659237 0.675055
v 0.794877 -1.606426 0.675055
v 0.496294 -1.045445 0.618566
v 0.461953 -1.058986 0.619847
v 0.428932 -1.072007 0.619847
v 0.563655 -1.018883 0.619847
v 0.530634 -1.031904 0.619847
v 0.727912 -1.632832 0.618566
v 0.693571 -1.646373 0.619847
v 0.660550 -1.659394 0.619847
v 0.795273 -1.606270 0.619847
v 0.762252 -1.619291 0.619847
vn -0.3668 0.9303 -0.0000
vn -0.9108 0.3785 0.1650
vn -0.9320 0.3626 0.0026
vn 0.4073 0.8982 0.1650
vn 0.4337 0.9011 0.0026
vn -0.1826 0.6893 -0.7011
vn -0.2497 0.6331 -0.7327
vn -0.3370 0.6284 -0.7011
vn -0.9119 0.3783 -0.1590
vn -0.6904 0.3762 -0.6179
vn 0.4083 0.8989 -0.1590
vn 0.2478 0.7462 -0.6179
vn 0.3668 -0.9303 -0.0000
vn -0.4073 -0.8982 0.1650
vn -0.4337 -0.9011 0.0026
vn 0.9320 -0.3626 0.0026
vn 0.9108 -0.3785 0.1650
vn 0.2497 -0.6331 -0.7327
vn 0.3370 -0.6284 -0.7011
vn 0.1826 -0.6893 -0.7011
vn -0.4083 -0.8989 -0.1590
vn -0.2478 -0.7462 -0.6179
vn 0.6904 -0.3762 -0.6179
vn 0.9119 -0.3783 -0.1590
vn -0.1674 0.6916 0.7026
vn -0.2492 0.6321 0.7337
vn 0.2492 -0.6321 0.7337
vn 0.3497 -0.6197 0.7026
vn -0.3497 0.6197 0.7026
vn -0.6976 0.3768 0.6094
vn -0.2527 -0.7515 0.6094
vn 0.1674 -0.6916 0.7026
vn 0.2527 0.7515 0.6094
vn 0.6976 -0.3768 0.6094
vt 0.000000 0.000000
s 1
f 82/2/35 81/2/35 52/2/35 54/2/35
f 83/2/35 82/2/35 54/2/35 57/2/35
f 84/2/36 83/2/35 57/2/35 60/2/37
f 81/2/35 85/2/38 63/2/39 52/2/35
f 91/2/35 95/2/35 65/2/40 53/2/41
f 92/2/35 91/2/35 53/2/41 56/2/42
f 93/2/43 92/2/35 56/2/42 59/2/44
f 95/2/35 94/2/45 62/2/46 65/2/40
f 87/2/47 69/2/47 67/2/47 86/2/47
f 88/2/47 72/2/47 69/2/47 87/2/47
f 89/2/48 75/2/49 72/2/47 88/2/47
f 86/2/47 67/2/47 78/2/50 90/2/51
f 96/2/47 68/2/52 80/2/53 100/2/47
f 97/2/47 71/2/54 68/2/52 96/2/47
f 98/2/55 74/2/56 71/2/54 97/2/47
f 100/2/47 80/2/53 77/2/57 99/2/58
f 56/2/42 53/2/41 68/2/52 71/2/54
f 51/2/59 55/2/60 70/2/61 66/2/62
f 84/2/36 60/2/37 75/2/49 89/2/48
f 58/2/63 61/2/64 76/2/65 73/2/66
f 59/2/44 56/2/42 71/2/54 74/2/56
f 94/2/45 63/2/39 78/2/50 99/2/58
f 65/2/40 62/2/46 77/2/57 80/2/53
f 55/2/60 58/2/63 73/2/66 70/2/61
f 53/2/41 65/2/40 80/2/53 68/2/52
f 85/2/38 64/2/67 79/2/68 90/2/51
f 64/2/67 51/2/59 66/2/62 79/2/68
f 93/2/43 59/2/44 74/2/56 98/2/55
f 63/2/39 85/2/38 90/2/51 78/2/50
f 61/2/64 84/2/36 89/2/48 76/2/65
f 66/2/62 86/2/47 90/2/51 79/2/68
f 76/2/65 89/2/48 88/2/47 73/2/66
f 73/2/66 88/2/47 87/2/47 70/2/61
f 70/2/61 87/2/47 86/2/47 66/2/62
f 51/2/59 64/2/67 85/2/38 81/2/35
f 61/2/64 58/2/63 83/2/35 84/2/36
f 58/2/63 55/2/60 82/2/35 83/2/35
f 55/2/60 51/2/59 81/2/35 82/2/35
f 60/2/37 93/2/43 98/2/55 75/2/49
f 62/2/46 94/2/45 99/2/58 77/2/57
f 67/2/47 100/2/47 99/2/58 78/2/50
f 75/2/49 98/2/55 97/2/47 72/2/47
f 72/2/47 97/2/47 96/2/47 69/2/47
f 69/2/47 96/2/47 100/2/47 67/2/47
f 52/2/35 63/2/39 94/2/45 95/2/35
f 60/2/37 57/2/35 92/2/35 93/2/43
f 57/2/35 54/2/35 91/2/35 92/2/35
f 54/2/35 52/2/35 95/2/35 91/2/35
o Bomber_Wheel_Connector_Back
v -3.577024 -0.005603 -0.054288
v -3.579603 -0.004079 0.001034
v -3.546337 -0.023735 0.057042
v -3.546337 -0.023735 0.001034
v -3.546337 -0.023735 -0.058883
v -3.515650 -0.041868 0.052649
v -3.513071 -0.043392 0.001034
v -3.515650 -0.041868 -0.054288
v -3.490031 -0.057006 0.049273
v -3.481083 -0.062294 0.001034
v -3.490891 -0.056498 -0.049975
v -3.602643 0.009535 0.049273
v -3.611591 0.014823 0.001034
v -3.601783 0.009027 -0.049975
v -3.577024 -0.005603 0.052649
v -3.898232 -0.549198 -0.054288
v -3.900812 -0.547674 0.001035
v -3.867545 -0.567330 0.057043
v -3.867545 -0.567330 0.001035
v -3.867546 -0.567330 -0.058883
v -3.836859 -0.585463 0.052649
v -3.834279 -0.586987 0.001034
v -3.836859 -0.585463 -0.054288
v -3.811240 -0.600601 0.049273
v -3.802291 -0.605889 0.001035
v -3.812099 -0.600093 -0.049975
v -3.923851 -0.534060 0.049273
v -3.932800 -0.528772 0.001035
v -3.922992 -0.534568 -0.049975
v -3.898232 -0.549198 0.052649
v -3.577930 -0.005067 -0.027450
v -3.546337 -0.023735 -0.028924
v -3.514744 -0.042404 -0.027451
v -3.484365 -0.060355 -0.027451
v -3.608309 0.012884 -0.027450
v -3.899139 -0.548662 -0.027450
v -3.867546 -0.567330 -0.028924
v -3.835952 -0.585999 -0.027450
v -3.805573 -0.603950 -0.027450
v -3.929518 -0.530711 -0.027450
v -3.546337 -0.023735 0.029038
v -3.514557 -0.042514 0.027758
v -3.483998 -0.060572 0.027758
v -3.608676 0.013101 0.027758
v -3.578117 -0.004957 0.027758
v -3.867545 -0.567330 0.029039
v -3.835765 -0.586109 0.027758
v -3.805206 -0.604167 0.027758
v -3.929885 -0.530494 0.027759
v -3.899326 -0.548552 0.027759
vn 0.5087 0.8609 -0.0000
vn 0.9590 0.2304 -0.1650
vn 0.9774 0.2113 -0.0026
vn -0.2608 0.9512 -0.1650
vn -0.2864 0.9581 -0.0026
vn 0.2888 0.6519 0.7011
vn 0.3462 0.5859 0.7327
vn 0.4317 0.5675 0.7011
vn 0.9601 0.2301 0.1590
vn 0.7410 0.2628 0.6179
vn -0.2616 0.9520 0.1590
vn -0.1272 0.7759 0.6179
vn -0.5087 -0.8609 -0.0000
vn 0.2608 -0.9512 -0.1650
vn 0.2864 -0.9581 -0.0026
vn -0.9774 -0.2113 -0.0026
vn -0.9590 -0.2304 -0.1650
vn -0.3462 -0.5859 0.7327
vn -0.4317 -0.5675 0.7011
vn -0.2888 -0.6519 0.7011
vn 0.2616 -0.9520 0.1590
vn 0.1272 -0.7759 0.6179
vn -0.7410 -0.2628 0.6179
vn -0.9601 -0.2301 0.1590
vn 0.2742 0.6566 -0.7026
vn 0.3456 0.5849 -0.7337
vn -0.3456 -0.5849 -0.7337
vn -0.4429 -0.5569 -0.7026
vn 0.4429 0.5569 -0.7026
vn 0.7482 0.2623 -0.6094
vn 0.1312 -0.7819 -0.6094
vn -0.2742 -0.6566 -0.7026
vn -0.1312 0.7819 -0.6094
vn -0.7482 -0.2623 -0.6094
vt 0.000000 0.000000
s 1
f 132/3/69 131/3/69 102/3/69 104/3/69
f 133/3/69 132/3/69 104/3/69 107/3/69
f 134/3/70 133/3/69 107/3/69 110/3/71
f 131/3/69 135/3/72 113/3/73 102/3/69
f 141/3/69 145/3/69 115/3/74 103/3/75
f 142/3/69 141/3/69 103/3/75 106/3/76
f 143/3/77 142/3/69 106/3/76 109/3/78
f 145/3/69 144/3/79 112/3/80 115/3/74
f 137/3/81 119/3/81 117/3/81 136/3/81
f 138/3/81 122/3/81 119/3/81 137/3/81
f 139/3/82 125/3/83 122/3/81 138/3/81
f 136/3/81 117/3/81 128/3/84 140/3/85
f 146/3/81 118/3/86 130/3/87 150/3/81
f 147/3/81 121/3/88 118/3/86 146/3/81
f 148/3/89 124/3/90 121/3/88 147/3/81
f 150/3/81 130/3/87 127/3/91 149/3/92
f 106/3/76 103/3/75 118/3/86 121/3/88
f 101/3/93 105/3/94 120/3/95 116/3/96
f 134/3/70 110/3/71 125/3/83 139/3/82
f 108/3/97 111/3/98 126/3/99 123/3/100
f 109/3/78 106/3/76 121/3/88 124/3/90
f 144/3/79 113/3/73 128/3/84 149/3/92
f 115/3/74 112/3/80 127/3/91 130/3/87
f 105/3/94 108/3/97 123/3/100 120/3/95
f 103/3/75 115/3/74 130/3/87 118/3/86
f 135/3/72 114/3/101 129/3/102 140/3/85
f 114/3/101 101/3/93 116/3/96 129/3/102
f 143/3/77 109/3/78 124/3/90 148/3/89
f 113/3/73 135/3/72 140/3/85 128/3/84
f 111/3/98 134/3/70 139/3/82 126/3/99
f 116/3/96 136/3/81 140/3/85 129/3/102
f 126/3/99 139/3/82 138/3/81 123/3/100
f 123/3/100 138/3/81 137/3/81 120/3/95
f 120/3/95 137/3/81 136/3/81 116/3/96
f 101/3/93 114/3/101 135/3/72 131/3/69
f 111/3/98 108/3/97 133/3/69 134/3/70
f 108/3/97 105/3/94 132/3/69 133/3/69
f 105/3/94 101/3/93 131/3/69 132/3/69
f 110/3/71 143/3/77 148/3/89 125/3/83
f 112/3/80 144/3/79 149/3/92 127/3/91
f 117/3/81 150/3/81 149/3/92 128/3/84
f 125/3/83 148/3/89 147/3/81 122/3/81
f 122/3/81 147/3/81 146/3/81 119/3/81
f 119/3/81 146/3/81 150/3/81 117/3/81
f 102/3/69 113/3/73 144/3/79 145/3/69
f 110/3/71 107/3/69 142/3/69 143/3/77
f 107/3/69 104/3/69 141/3/69 142/3/69
f 104/3/69 102/3/69 145/3/69 141/3/69
