# Blender 4.0.1
# www.blender.org
o Bomber_Wheel_Axel_Left
v 0.740986 -1.584790 -0.920931
v 0.712200 -1.592987 -0.920931
v 0.874303 -1.844808 -0.920931
v 0.893683 -1.822000 -0.920931
v 0.618996 -1.702678 -0.920931
v 0.615553 -1.732409 -0.920931
v 0.908241 -1.795849 -0.920931
v 0.617977 -1.762240 -0.920931
v 0.917417 -1.767361 -0.920931
v 0.626174 -1.791026 -0.920931
v 0.920860 -1.737630 -0.920931
v 0.639829 -1.817659 -0.920931
v 0.918436 -1.707799 -0.920931
v 0.658418 -1.841116 -0.920931
v 0.910239 -1.679014 -0.920931
v 0.681226 -1.860496 -0.920931
v 0.896583 -1.652381 -0.920931
v 0.707377 -1.875054 -0.920931
v 0.877995 -1.628923 -0.920931
v 0.735865 -1.884230 -0.920931
v 0.855187 -1.609543 -0.920931
v 0.765596 -1.887673 -0.920931
v 0.685567 -1.606643 -0.920931
v 0.829036 -1.594985 -0.920931
v 0.795427 -1.885249 -0.920931
v 0.662110 -1.625232 -0.920931
v 0.800548 -1.585809 -0.920931
v 0.824212 -1.877052 -0.920931
v 0.642730 -1.648039 -0.920931
v 0.770817 -1.582366 -0.920931
v 0.850846 -1.863397 -0.920931
v 0.628172 -1.674190 -0.920931
v 0.756939 -1.672838 -0.920931
v 0.745025 -1.676231 -0.920931
v 0.812121 -1.780462 -0.920931
v 0.820142 -1.771021 -0.920931
v 0.706447 -1.721633 -0.920931
v 0.705022 -1.733939 -0.920931
v 0.826168 -1.760198 -0.920931
v 0.706025 -1.746287 -0.920931
v 0.829966 -1.748406 -0.920931
v 0.709418 -1.758201 -0.920931
v 0.831391 -1.736100 -0.920931
v 0.715070 -1.769225 -0.920931
v 0.830388 -1.723753 -0.920931
v 0.722764 -1.778934 -0.920931
v 0.826995 -1.711838 -0.920931
v 0.732205 -1.786955 -0.920931
v 0.821343 -1.700815 -0.920931
v 0.743029 -1.792981 -0.920931
v 0.813649 -1.691105 -0.920931
v 0.754820 -1.796779 -0.920931
v 0.804208 -1.683084 -0.920931
v 0.767126 -1.798204 -0.920931
v 0.734001 -1.681883 -0.920931
v 0.793385 -1.677058 -0.920931
v 0.779473 -1.797201 -0.920931
v 0.724292 -1.689577 -0.920931
v 0.781593 -1.673260 -0.920931
v 0.791388 -1.793808 -0.920931
v 0.716271 -1.699018 -0.920931
v 0.769287 -1.671835 -0.920931
v 0.802412 -1.788156 -0.920931
v 0.710245 -1.709842 -0.920931
v 0.723142 -1.620735 -0.931778
v 0.734084 -1.648483 -0.931778
v 0.751622 -1.643489 -0.931778
v 0.746304 -1.614140 -0.931778
v 0.871503 -1.668525 -0.931778
v 0.846423 -1.684670 -0.931778
v 0.854743 -1.700897 -0.931778
v 0.882491 -1.689955 -0.931778
v 0.770307 -1.612189 -0.931778
v 0.769797 -1.642012 -0.931778
v 0.787911 -1.644109 -0.931778
v 0.794230 -1.614959 -0.931778
v 0.698219 -1.835982 -0.931778
v 0.715212 -1.811469 -0.931778
v 0.701315 -1.799661 -0.931778
v 0.679867 -1.820389 -0.931778
v 0.667244 -1.665032 -0.931778
v 0.691757 -1.682025 -0.931778
v 0.703565 -1.668129 -0.931778
v 0.682838 -1.646680 -0.931778
v 0.859737 -1.718435 -0.931778
v 0.889086 -1.713117 -0.931778
v 0.813271 -1.849304 -0.931778
v 0.802329 -1.821556 -0.931778
v 0.784791 -1.826550 -0.931778
v 0.790109 -1.855900 -0.931778
v 0.689990 -1.785369 -0.931778
v 0.664910 -1.801514 -0.931778
v 0.805268 -1.649701 -0.931778
v 0.817152 -1.622343 -0.931778
v 0.861214 -1.736610 -0.931778
v 0.891037 -1.737120 -0.931778
v 0.717857 -1.656803 -0.931778
v 0.701712 -1.631723 -0.931778
v 0.681670 -1.769143 -0.931778
v 0.653922 -1.780084 -0.931778
v 0.766616 -1.828027 -0.931778
v 0.766106 -1.857850 -0.931778
v 0.859117 -1.754725 -0.931778
v 0.888267 -1.761043 -0.931778
v 0.821201 -1.658570 -0.931778
v 0.838194 -1.634057 -0.931778
v 0.676676 -1.751604 -0.931778
v 0.647326 -1.756922 -0.931778
v 0.853526 -1.772081 -0.931778
v 0.880883 -1.783965 -0.931778
v 0.748502 -1.825930 -0.931778
v 0.742183 -1.855080 -0.931778
v 0.648146 -1.708996 -0.931778
v 0.677296 -1.715315 -0.931778
v 0.682887 -1.697958 -0.931778
v 0.655530 -1.686074 -0.931778
v 0.675199 -1.733429 -0.931778
v 0.645376 -1.732919 -0.931778
v 0.835097 -1.670378 -0.931778
v 0.856546 -1.649651 -0.931778
v 0.853575 -1.823359 -0.931778
v 0.832848 -1.801911 -0.931778
v 0.818556 -1.813236 -0.931778
v 0.834701 -1.838316 -0.931778
v 0.844656 -1.788014 -0.931778
v 0.869169 -1.805007 -0.931778
v 0.731145 -1.820339 -0.931778
v 0.719261 -1.847696 -0.931778
v 0.740986 -1.584790 -0.374160
v 0.712200 -1.592987 -0.374160
v 0.874303 -1.844808 -0.374160
v 0.893683 -1.822000 -0.374160
v 0.618996 -1.702678 -0.374160
v 0.615553 -1.732409 -0.374160
v 0.908241 -1.795849 -0.374160
v 0.617977 -1.762240 -0.374160
v 0.917417 -1.767361 -0.374160
v 0.626174 -1.791026 -0.374160
v 0.920860 -1.737630 -0.374160
v 0.639829 -1.817659 -0.374160
v 0.918436 -1.707799 -0.374160
v 0.658418 -1.841116 -0.374160
v 0.910239 -1.679014 -0.374160
v 0.681226 -1.860496 -0.374160
v 0.896583 -1.652381 -0.374160
v 0.707377 -1.875054 -0.374160
v 0.877995 -1.628923 -0.374160
v 0.735865 -1.884230 -0.374160
v 0.855187 -1.609543 -0.374160
v 0.765596 -1.887673 -0.374160
v 0.685567 -1.606643 -0.374160
v 0.829036 -1.594985 -0.374160
v 0.795427 -1.885249 -0.374160
v 0.662110 -1.625232 -0.374160
v 0.800548 -1.585809 -0.374160
v 0.824212 -1.877052 -0.374160
v 0.642730 -1.648039 -0.374160
v 0.770817 -1.582366 -0.374160
v 0.850846 -1.863397 -0.374160
v 0.628172 -1.674190 -0.374160
v 0.756939 -1.672838 -0.374160
v 0.745025 -1.676231 -0.374160
v 0.812121 -1.780462 -0.374160
v 0.820142 -1.771022 -0.374160
v 0.706447 -1.721633 -0.374160
v 0.705022 -1.733939 -0.374160
v 0.826168 -1.760198 -0.374160
v 0.706025 -1.746287 -0.374160
v 0.829966 -1.748406 -0.374160
v 0.709418 -1.758201 -0.374160
v 0.831391 -1.736100 -0.374160
v 0.715070 -1.769225 -0.374160
v 0.830388 -1.723753 -0.374160
v 0.722764 -1.778934 -0.374160
v 0.826995 -1.711838 -0.374160
v 0.732204 -1.786955 -0.374160
v 0.821343 -1.700815 -0.374160
v 0.743029 -1.792981 -0.374160
v 0.813649 -1.691105 -0.374160
v 0.754820 -1.796779 -0.374160
v 0.804208 -1.683084 -0.374160
v 0.767126 -1.798204 -0.374160
v 0.734001 -1.681883 -0.374160
v 0.793385 -1.677058 -0.374160
v 0.779473 -1.797201 -0.374160
v 0.724292 -1.689577 -0.374160
v 0.781593 -1.673260 -0.374160
v 0.791388 -1.793808 -0.374160
v 0.716271 -1.699018 -0.374160
v 0.769287 -1.671835 -0.374160
v 0.802412 -1.788156 -0.374160
v 0.710245 -1.709842 -0.374160
v 0.882491 -1.689955 -0.363313
v 0.854743 -1.700897 -0.363313
v 0.846423 -1.684670 -0.363313
v 0.871503 -1.668525 -0.363313
v 0.794230 -1.614959 -0.363313
v 0.787911 -1.644109 -0.363313
v 0.769797 -1.642012 -0.363313
v 0.770307 -1.612189 -0.363313
v 0.679867 -1.820388 -0.363313
v 0.701315 -1.799661 -0.363313
v 0.715212 -1.811469 -0.363313
v 0.698219 -1.835982 -0.363313
v 0.682838 -1.646680 -0.363313
v 0.703565 -1.668129 -0.363313
v 0.691757 -1.682025 -0.363313
v 0.667244 -1.665032 -0.363313
v 0.889086 -1.713117 -0.363313
v 0.859737 -1.718435 -0.363313
v 0.790109 -1.855900 -0.363313
v 0.784791 -1.826550 -0.363313
v 0.802329 -1.821556 -0.363313
v 0.813271 -1.849304 -0.363313
v 0.664910 -1.801514 -0.363313
v 0.689990 -1.785369 -0.363313
v 0.817152 -1.622343 -0.363313
v 0.805268 -1.649701 -0.363313
v 0.891037 -1.737120 -0.363313
v 0.861214 -1.736610 -0.363313
v 0.701712 -1.631723 -0.363313
v 0.717857 -1.656803 -0.363313
v 0.653922 -1.780084 -0.363313
v 0.681670 -1.769143 -0.363313
v 0.766106 -1.857850 -0.363313
v 0.766616 -1.828027 -0.363313
v 0.888267 -1.761043 -0.363313
v 0.859117 -1.754725 -0.363313
v 0.838194 -1.634057 -0.363313
v 0.821201 -1.658570 -0.363313
v 0.647326 -1.756922 -0.363313
v 0.676676 -1.751604 -0.363313
v 0.723142 -1.620735 -0.363313
v 0.734083 -1.648483 -0.363313
v 0.880883 -1.783965 -0.363313
v 0.853526 -1.772081 -0.363313
v 0.742183 -1.855080 -0.363313
v 0.748502 -1.825930 -0.363313
v 0.655530 -1.686074 -0.363313
v 0.682887 -1.697958 -0.363313
v 0.677296 -1.715315 -0.363313
v 0.648146 -1.708996 -0.363313
v 0.645376 -1.732919 -0.363313
v 0.675199 -1.733429 -0.363313
v 0.856546 -1.649651 -0.363313
v 0.835097 -1.670378 -0.363313
v 0.834701 -1.838316 -0.363313
v 0.818556 -1.813236 -0.363313
v 0.832848 -1.801911 -0.363313
v 0.853575 -1.823359 -0.363313
v 0.869169 -1.805007 -0.363313
v 0.844656 -1.788014 -0.363313
v 0.719261 -1.847696 -0.363313
v 0.731145 -1.820339 -0.363313
v 0.751622 -1.643489 -0.363313
v 0.746304 -1.614140 -0.363313
vn -0.5605 0.5800 -0.5911
vn -0.4366 0.6782 -0.5911
vn -0.4366 0.6782 0.5911
vn -0.5605 0.5800 0.5911
vn -0.6629 0.4595 -0.5911
vn -0.6629 0.4595 0.5911
vn -0.7398 0.3214 -0.5911
vn -0.7398 0.3214 0.5911
vn -0.7883 0.1709 -0.5911
vn -0.7883 0.1709 0.5911
vn -0.8064 0.0138 -0.5911
vn -0.8065 0.0138 0.5911
vn -0.7936 -0.1438 -0.5911
vn -0.7937 -0.1438 0.5911
vn -0.7503 -0.2959 -0.5911
vn -0.7503 -0.2959 0.5911
vn -0.6782 -0.4366 -0.5911
vn -0.6782 -0.4366 0.5911
vn -0.5800 -0.5605 -0.5911
vn -0.5800 -0.5605 0.5911
vn -0.4595 -0.6629 -0.5911
vn -0.4595 -0.6629 0.5911
vn -0.3214 -0.7398 -0.5911
vn -0.3214 -0.7398 0.5911
vn -0.1709 -0.7883 -0.5911
vn -0.1709 -0.7883 0.5911
vn -0.0138 -0.8064 -0.5911
vn -0.0138 -0.8065 0.5911
vn 0.1438 -0.7936 -0.5911
vn 0.1438 -0.7937 0.5911
vn 0.2959 -0.7503 -0.5911
vn 0.2959 -0.7503 0.5911
vn 0.4366 -0.6782 -0.5911
vn 0.4366 -0.6782 0.5911
vn 0.5605 -0.5800 -0.5911
vn 0.5605 -0.5800 0.5911
vn 0.6629 -0.4595 -0.5911
vn 0.6629 -0.4595 0.5911
vn 0.7398 -0.3214 -0.5911
vn 0.7398 -0.3214 0.5911
vn 0.7883 -0.1709 -0.5911
vn 0.7883 -0.1709 0.5911
vn 0.8064 -0.0138 -0.5911
vn 0.8065 -0.0138 0.5911
vn 0.7936 0.1438 -0.5911
vn 0.7936 0.1438 0.5911
vn 0.7503 0.2959 -0.5911
vn 0.7503 0.2959 0.5911
vn 0.6782 0.4366 -0.5911
vn 0.6782 0.4366 0.5911
vn 0.5800 0.5605 -0.5911
vn 0.5800 0.5605 0.5911
vn 0.4595 0.6629 -0.5911
vn 0.4595 0.6629 0.5911
vn 0.3214 0.7398 -0.5911
vn 0.3214 0.7398 0.5911
vn 0.1709 0.7883 -0.5911
vn 0.1709 0.7883 0.5911
vn 0.0138 0.8064 -0.5911
vn 0.0138 0.8065 0.5911
vn -0.1438 0.7936 -0.5911
vn -0.1438 0.7936 0.5911
vn -0.2959 0.7503 -0.5911
vn -0.2959 0.7503 0.5911
vn 0.0291 -0.1603 -0.9866
vn 0.0598 -0.1516 -0.9866
vn -0.1516 -0.0598 -0.9866
vn -0.1370 -0.0882 -0.9866
vn -0.0345 -0.1593 -0.9866
vn -0.0028 -0.1629 -0.9866
vn 0.1172 0.1132 -0.9866
vn 0.0928 0.1339 -0.9866
vn 0.1132 -0.1172 -0.9866
vn 0.1339 -0.0928 -0.9866
vn -0.1603 -0.0291 -0.9866
vn -0.0291 0.1603 -0.9866
vn -0.0598 0.1516 -0.9866
vn 0.1370 0.0882 -0.9866
vn -0.0649 -0.1495 -0.9866
vn -0.1629 0.0028 -0.9866
vn 0.0882 -0.1370 -0.9866
vn 0.1516 0.0598 -0.9866
vn 0.0028 0.1629 -0.9866
vn -0.1593 0.0345 -0.9866
vn -0.0928 -0.1339 -0.9866
vn 0.1603 0.0291 -0.9866
vn -0.1495 0.0649 -0.9866
vn 0.0345 0.1593 -0.9866
vn 0.1495 -0.0649 -0.9866
vn 0.1593 -0.0345 -0.9866
vn 0.1629 -0.0028 -0.9866
vn -0.1172 -0.1132 -0.9866
vn -0.0882 0.1370 -0.9866
vn -0.1132 0.1172 -0.9866
vn -0.1339 0.0928 -0.9866
vn 0.0649 0.1495 -0.9866
vn 0.3045 -0.7723 -0.5575
vn 0.0675 -0.1712 -0.9829
vn 0.0996 -0.1547 -0.9829
vn 0.4494 -0.6981 -0.5575
vn -0.4730 -0.6823 -0.5575
vn -0.1048 -0.1512 -0.9829
vn -0.0733 -0.1688 -0.9829
vn -0.3308 -0.7615 -0.5575
vn 0.5769 -0.5970 -0.5575
vn 0.1279 -0.1323 -0.9829
vn 0.1512 -0.1048 -0.9829
vn 0.6823 -0.4730 -0.5575
vn -0.6823 0.4730 -0.5575
vn -0.1512 0.1048 -0.9829
vn -0.1688 0.0733 -0.9829
vn -0.7615 0.3308 -0.5575
vn 0.6981 0.4494 -0.5575
vn 0.1547 0.0996 -0.9829
vn 0.1323 0.1279 -0.9829
vn 0.5970 0.5769 -0.5575
vn -0.8114 0.1759 -0.5575
vn -0.1798 0.0390 -0.9829
vn -0.1840 0.0031 -0.9829
vn -0.8301 0.0142 -0.5575
vn 0.0142 0.8301 -0.5575
vn 0.0031 0.1840 -0.9829
vn -0.0328 0.1810 -0.9829
vn -0.1480 0.8169 -0.5575
vn -0.0390 -0.1798 -0.9829
vn -0.1759 -0.8114 -0.5575
vn 0.1688 -0.0733 -0.9829
vn 0.7615 -0.3308 -0.5575
vn 0.1048 0.1512 -0.9829
vn 0.4730 0.6823 -0.5575
vn -0.1810 -0.0328 -0.9829
vn -0.8169 -0.1480 -0.5575
vn -0.0031 -0.1840 -0.9829
vn -0.0142 -0.8301 -0.5575
vn 0.1798 -0.0390 -0.9829
vn 0.8114 -0.1759 -0.5575
vn -0.3045 0.7723 -0.5575
vn -0.0675 0.1712 -0.9829
vn -0.0996 0.1547 -0.9829
vn -0.4494 0.6981 -0.5575
vn -0.1712 -0.0675 -0.9829
vn -0.7723 -0.3045 -0.5575
vn 0.0733 0.1688 -0.9829
vn 0.3308 0.7615 -0.5575
vn 0.1840 -0.0031 -0.9829
vn 0.8301 -0.0142 -0.5575
vn 0.0328 -0.1810 -0.9829
vn 0.1480 -0.8169 -0.5575
vn -0.1547 -0.0996 -0.9829
vn -0.6981 -0.4494 -0.5575
vn -0.1279 0.1323 -0.9829
vn -0.5769 0.5970 -0.5575
vn 0.1810 0.0328 -0.9829
vn 0.8169 0.1480 -0.5575
vn 0.0390 0.1798 -0.9829
vn 0.1759 0.8114 -0.5575
vn -0.1323 -0.1279 -0.9829
vn -0.5970 -0.5769 -0.5575
vn 0.1712 0.0675 -0.9829
vn 0.7723 0.3045 -0.5575
vn 0.0142 0.8301 0.5574
vn 0.1759 0.8114 0.5574
vn 0.8301 -0.0142 0.5574
vn 0.8114 -0.1759 0.5574
vn 0.3045 -0.7723 0.5574
vn 0.1480 -0.8169 0.5574
vn 0.7615 -0.3308 0.5574
vn 0.6823 -0.4730 0.5574
vn -0.0142 -0.8301 0.5574
vn -0.1759 -0.8114 0.5574
vn -0.3308 -0.7615 0.5574
vn -0.4730 -0.6823 0.5574
vn -0.5970 -0.5769 0.5574
vn -0.6981 -0.4494 0.5574
vn -0.8301 0.0142 0.5574
vn -0.8114 0.1759 0.5574
vn -0.7615 0.3308 0.5574
vn -0.6823 0.4730 0.5574
vn -0.1480 0.8169 0.5574
vn 0.3308 0.7615 0.5574
vn 0.4730 0.6823 0.5574
vn 0.6981 0.4494 0.5574
vn 0.7723 0.3045 0.5574
vn 0.8169 0.1480 0.5574
vn 0.5769 -0.5970 0.5574
vn 0.4494 -0.6981 0.5574
vn 0.5970 0.5769 0.5574
vn -0.7723 -0.3045 0.5574
vn -0.8169 -0.1480 0.5574
vn -0.3045 0.7723 0.5574
vn -0.5769 0.5970 0.5574
vn -0.4494 0.6981 0.5574
vn -0.1370 -0.0882 0.9866
vn -0.1516 -0.0598 0.9866
vn -0.0028 -0.1629 0.9866
vn -0.0345 -0.1593 0.9866
vn 0.0928 0.1339 0.9866
vn 0.1172 0.1132 0.9866
vn 0.1339 -0.0928 0.9866
vn 0.1132 -0.1172 0.9866
vn -0.1604 -0.0291 0.9866
vn -0.0598 0.1516 0.9866
vn -0.0291 0.1603 0.9866
vn 0.1370 0.0882 0.9866
vn -0.0649 -0.1495 0.9866
vn -0.1629 0.0028 0.9866
vn 0.0882 -0.1370 0.9866
vn 0.1516 0.0598 0.9866
vn 0.0028 0.1629 0.9866
vn -0.1593 0.0345 0.9866
vn -0.0928 -0.1339 0.9866
vn 0.1603 0.0291 0.9866
vn 0.0598 -0.1516 0.9866
vn -0.1495 0.0649 0.9866
vn 0.0345 0.1593 0.9866
vn 0.1593 -0.0345 0.9866
vn 0.1495 -0.0649 0.9866
vn 0.1629 -0.0028 0.9866
vn -0.1172 -0.1132 0.9866
vn -0.1132 0.1172 0.9866
vn -0.0882 0.1370 0.9866
vn -0.1339 0.0928 0.9866
vn 0.0649 0.1495 0.9866
vn 0.0291 -0.1603 0.9866
vn -0.0675 0.1712 0.9829
vn -0.0328 0.1810 0.9829
vn 0.0996 -0.1547 0.9829
vn 0.0675 -0.1712 0.9829
vn -0.0733 -0.1688 0.9829
vn -0.1048 -0.1512 0.9829
vn 0.1512 -0.1048 0.9829
vn 0.1279 -0.1323 0.9829
vn -0.1688 0.0733 0.9829
vn -0.1512 0.1048 0.9829
vn 0.1323 0.1279 0.9829
vn 0.1547 0.0996 0.9829
vn -0.1840 0.0031 0.9829
vn -0.1798 0.0390 0.9829
vn 0.0031 0.1840 0.9829
vn -0.0390 -0.1798 0.9829
vn 0.1688 -0.0733 0.9829
vn 0.1048 0.1512 0.9829
vn -0.1810 -0.0328 0.9829
vn -0.0031 -0.1840 0.9829
vn 0.1798 -0.0390 0.9829
vn -0.0996 0.1547 0.9829
vn -0.1712 -0.0675 0.9829
vn 0.0733 0.1688 0.9829
vn 0.1840 -0.0031 0.9829
vn 0.0328 -0.1810 0.9829
vn -0.1547 -0.0996 0.9829
vn -0.1279 0.1323 0.9829
vn 0.1810 0.0328 0.9829
vn 0.0390 0.1798 0.9829
vn -0.1323 -0.1279 0.9829
vn 0.1712 0.0675 0.9829
vt 0.000000 0.000000
s 1
f 35/1/1 63/1/2 191/1/3 163/1/4
f 36/1/5 35/1/1 163/1/4 164/1/6
f 39/1/7 36/1/5 164/1/6 167/1/8
f 41/1/9 39/1/7 167/1/8 169/1/10
f 43/1/11 41/1/9 169/1/10 171/1/12
f 45/1/13 43/1/11 171/1/12 173/1/14
f 47/1/15 45/1/13 173/1/14 175/1/16
f 49/1/17 47/1/15 175/1/16 177/1/18
f 51/1/19 49/1/17 177/1/18 179/1/20
f 53/1/21 51/1/19 179/1/20 181/1/22
f 56/1/23 53/1/21 181/1/22 184/1/24
f 59/1/25 56/1/23 184/1/24 187/1/26
f 62/1/27 59/1/25 187/1/26 190/1/28
f 33/1/29 62/1/27 190/1/28 161/1/30
f 34/1/31 33/1/29 161/1/30 162/1/32
f 55/1/33 34/1/31 162/1/32 183/1/34
f 58/1/35 55/1/33 183/1/34 186/1/36
f 61/1/37 58/1/35 186/1/36 189/1/38
f 64/1/39 61/1/37 189/1/38 192/1/40
f 37/1/41 64/1/39 192/1/40 165/1/42
f 38/1/43 37/1/41 165/1/42 166/1/44
f 40/1/45 38/1/43 166/1/44 168/1/46
f 42/1/47 40/1/45 168/1/46 170/1/48
f 44/1/49 42/1/47 170/1/48 172/1/50
f 46/1/51 44/1/49 172/1/50 174/1/52
f 48/1/53 46/1/51 174/1/52 176/1/54
f 50/1/55 48/1/53 176/1/54 178/1/56
f 52/1/57 50/1/55 178/1/56 180/1/58
f 54/1/59 52/1/57 180/1/58 182/1/60
f 57/1/61 54/1/59 182/1/60 185/1/62
f 60/1/63 57/1/61 185/1/62 188/1/64
f 63/1/2 60/1/63 188/1/64 191/1/3
f 67/1/65 33/1/29 34/1/31 66/1/66
f 71/1/67 47/1/15 49/1/17 70/1/68
f 75/1/69 59/1/25 62/1/27 74/1/70
f 79/1/71 46/1/51 48/1/53 78/1/72
f 83/1/73 58/1/35 61/1/37 82/1/74
f 85/1/75 45/1/13 47/1/15 71/1/67
f 89/1/76 57/1/61 60/1/63 88/1/77
f 91/1/78 44/1/49 46/1/51 79/1/71
f 93/1/79 56/1/23 59/1/25 75/1/69
f 95/1/80 43/1/11 45/1/13 85/1/75
f 97/1/81 55/1/33 58/1/35 83/1/73
f 99/1/82 42/1/47 44/1/49 91/1/78
f 101/1/83 54/1/59 57/1/61 89/1/76
f 103/1/84 41/1/9 43/1/11 95/1/80
f 105/1/85 53/1/21 56/1/23 93/1/79
f 107/1/86 40/1/45 42/1/47 99/1/82
f 66/1/66 34/1/31 55/1/33 97/1/81
f 109/1/87 39/1/7 41/1/9 103/1/84
f 111/1/88 52/1/57 54/1/59 101/1/83
f 115/1/89 64/1/39 37/1/41 114/1/90
f 117/1/91 38/1/43 40/1/45 107/1/86
f 119/1/92 51/1/19 53/1/21 105/1/85
f 123/1/93 63/1/2 35/1/1 122/1/94
f 125/1/95 36/1/5 39/1/7 109/1/87
f 127/1/96 50/1/55 52/1/57 111/1/88
f 74/1/70 62/1/27 33/1/29 67/1/65
f 114/1/90 37/1/41 38/1/43 117/1/91
f 70/1/68 49/1/17 51/1/19 119/1/92
f 82/1/74 61/1/37 64/1/39 115/1/89
f 122/1/94 35/1/1 36/1/5 125/1/95
f 78/1/72 48/1/53 50/1/55 127/1/96
f 88/1/77 60/1/63 63/1/2 123/1/93
f 28/1/97 87/1/98 124/1/99 31/1/100
f 87/1/98 88/1/77 123/1/93 124/1/99
f 16/1/101 77/1/102 128/1/103 18/1/104
f 77/1/102 78/1/72 127/1/96 128/1/103
f 3/1/105 121/1/106 126/1/107 4/1/108
f 121/1/106 122/1/94 125/1/95 126/1/107
f 29/1/109 81/1/110 116/1/111 32/1/112
f 81/1/110 82/1/74 115/1/89 116/1/111
f 17/1/113 69/1/114 120/1/115 19/1/116
f 69/1/114 70/1/68 119/1/92 120/1/115
f 5/1/117 113/1/118 118/1/119 6/1/120
f 113/1/118 114/1/90 117/1/91 118/1/119
f 30/1/121 73/1/122 68/1/123 1/1/124
f 73/1/122 74/1/70 67/1/65 68/1/123
f 18/1/104 128/1/103 112/1/125 20/1/126
f 128/1/103 127/1/96 111/1/88 112/1/125
f 4/1/108 126/1/107 110/1/127 7/1/128
f 126/1/107 125/1/95 109/1/87 110/1/127
f 31/1/100 124/1/99 121/1/106 3/1/105
f 124/1/99 123/1/93 122/1/94 121/1/106
f 19/1/116 120/1/115 106/1/129 21/1/130
f 120/1/115 119/1/92 105/1/85 106/1/129
f 6/1/120 118/1/119 108/1/131 8/1/132
f 118/1/119 117/1/91 107/1/86 108/1/131
f 32/1/112 116/1/111 113/1/118 5/1/117
f 116/1/111 115/1/89 114/1/90 113/1/118
f 20/1/126 112/1/125 102/1/133 22/1/134
f 112/1/125 111/1/88 101/1/83 102/1/133
f 7/1/128 110/1/127 104/1/135 9/1/136
f 110/1/127 109/1/87 103/1/84 104/1/135
f 2/1/137 65/1/138 98/1/139 23/1/140
f 65/1/138 66/1/66 97/1/81 98/1/139
f 8/1/132 108/1/131 100/1/141 10/1/142
f 108/1/131 107/1/86 99/1/82 100/1/141
f 21/1/130 106/1/129 94/1/143 24/1/144
f 106/1/129 105/1/85 93/1/79 94/1/143
f 9/1/136 104/1/135 96/1/145 11/1/146
f 104/1/135 103/1/84 95/1/80 96/1/145
f 22/1/134 102/1/133 90/1/147 25/1/148
f 102/1/133 101/1/83 89/1/76 90/1/147
f 10/1/142 100/1/141 92/1/149 12/1/150
f 100/1/141 99/1/82 91/1/78 92/1/149
f 23/1/140 98/1/139 84/1/151 26/1/152
f 98/1/139 97/1/81 83/1/73 84/1/151
f 11/1/146 96/1/145 86/1/153 13/1/154
f 96/1/145 95/1/80 85/1/75 86/1/153
f 24/1/144 94/1/143 76/1/155 27/1/156
f 94/1/143 93/1/79 75/1/69 76/1/155
f 12/1/150 92/1/149 80/1/157 14/1/158
f 92/1/149 91/1/78 79/1/71 80/1/157
f 25/1/148 90/1/147 87/1/98 28/1/97
f 90/1/147 89/1/76 88/1/77 87/1/98
f 13/1/154 86/1/153 72/1/159 15/1/160
f 86/1/153 85/1/75 71/1/67 72/1/159
f 26/1/152 84/1/151 81/1/110 29/1/109
f 84/1/151 83/1/73 82/1/74 81/1/110
f 14/1/158 80/1/157 77/1/102 16/1/101
f 80/1/157 79/1/71 78/1/72 77/1/102
f 27/1/156 76/1/155 73/1/122 30/1/121
f 76/1/155 75/1/69 74/1/70 73/1/122
f 15/1/160 72/1/159 69/1/114 17/1/113
f 72/1/159 71/1/67 70/1/68 69/1/114
f 1/1/124 68/1/123 65/1/138 2/1/137
f 68/1/123 67/1/65 66/1/66 65/1/138
f 27/1/156 30/1/121 158/1/161 155/1/162
f 9/1/136 11/1/146 139/1/163 137/1/164
f 25/1/148 28/1/97 156/1/165 153/1/166
f 4/1/108 7/1/128 135/1/167 132/1/168
f 20/1/126 22/1/134 150/1/169 148/1/170
f 16/1/101 18/1/104 146/1/171 144/1/172
f 12/1/150 14/1/158 142/1/173 140/1/174
f 5/1/117 6/1/120 134/1/175 133/1/176
f 32/1/112 5/1/117 133/1/176 160/1/177
f 29/1/109 32/1/112 160/1/177 157/1/178
f 30/1/121 1/1/124 129/1/179 158/1/161
f 21/1/130 24/1/144 152/1/180 149/1/181
f 15/1/160 17/1/113 145/1/182 143/1/183
f 11/1/146 13/1/154 141/1/184 139/1/163
f 7/1/128 9/1/136 137/1/164 135/1/167
f 3/1/105 4/1/108 132/1/168 131/1/185
f 28/1/97 31/1/100 159/1/186 156/1/165
f 22/1/134 25/1/148 153/1/166 150/1/169
f 18/1/104 20/1/126 148/1/170 146/1/171
f 19/1/116 21/1/130 149/1/181 147/1/187
f 14/1/158 16/1/101 144/1/172 142/1/173
f 10/1/142 12/1/150 140/1/174 138/1/188
f 8/1/132 10/1/142 138/1/188 136/1/189
f 6/1/120 8/1/132 136/1/189 134/1/175
f 130/1/190 129/1/179 1/1/124 2/1/137
f 24/1/144 27/1/156 155/1/162 152/1/180
f 17/1/113 19/1/116 147/1/187 145/1/182
f 26/1/152 29/1/109 157/1/178 154/1/191
f 23/1/140 26/1/152 154/1/191 151/1/192
f 2/1/137 23/1/140 151/1/192 130/1/190
f 13/1/154 15/1/160 143/1/183 141/1/184
f 31/1/100 3/1/105 131/1/185 159/1/186
f 195/1/193 177/1/18 175/1/16 194/1/194
f 199/1/195 190/1/28 187/1/26 198/1/196
f 203/1/197 176/1/54 174/1/52 202/1/198
f 207/1/199 189/1/38 186/1/36 206/1/200
f 194/1/194 175/1/16 173/1/14 210/1/201
f 213/1/202 188/1/64 185/1/62 212/1/203
f 202/1/198 174/1/52 172/1/50 216/1/204
f 198/1/196 187/1/26 184/1/24 218/1/205
f 210/1/201 173/1/14 171/1/12 220/1/206
f 206/1/200 186/1/36 183/1/34 222/1/207
f 216/1/204 172/1/50 170/1/48 224/1/208
f 212/1/203 185/1/62 182/1/60 226/1/209
f 220/1/206 171/1/12 169/1/10 228/1/210
f 218/1/205 184/1/24 181/1/22 230/1/211
f 224/1/208 170/1/48 168/1/46 232/1/212
f 222/1/207 183/1/34 162/1/32 234/1/213
f 228/1/210 169/1/10 167/1/8 236/1/214
f 226/1/209 182/1/60 180/1/58 238/1/215
f 241/1/216 165/1/42 192/1/40 240/1/217
f 232/1/212 168/1/46 166/1/44 244/1/218
f 230/1/211 181/1/22 179/1/20 246/1/219
f 249/1/220 163/1/4 191/1/3 248/1/221
f 236/1/214 167/1/8 164/1/6 252/1/222
f 238/1/215 180/1/58 178/1/56 254/1/223
f 255/1/224 161/1/30 190/1/28 199/1/195
f 244/1/218 166/1/44 165/1/42 241/1/216
f 246/1/219 179/1/20 177/1/18 195/1/193
f 240/1/217 192/1/40 189/1/38 207/1/199
f 252/1/222 164/1/6 163/1/4 249/1/220
f 254/1/223 178/1/56 176/1/54 203/1/197
f 248/1/221 191/1/3 188/1/64 213/1/202
f 234/1/213 162/1/32 161/1/30 255/1/224
f 130/1/190 233/1/225 256/1/226 129/1/179
f 233/1/225 234/1/213 255/1/224 256/1/226
f 159/1/186 247/1/227 214/1/228 156/1/165
f 247/1/227 248/1/221 213/1/202 214/1/228
f 146/1/171 253/1/229 204/1/230 144/1/172
f 253/1/229 254/1/223 203/1/197 204/1/230
f 132/1/168 251/1/231 250/1/232 131/1/185
f 251/1/231 252/1/222 249/1/220 250/1/232
f 160/1/177 239/1/233 208/1/234 157/1/178
f 239/1/233 240/1/217 207/1/199 208/1/234
f 147/1/187 245/1/235 196/1/236 145/1/182
f 245/1/235 246/1/219 195/1/193 196/1/236
f 134/1/175 243/1/237 242/1/238 133/1/176
f 243/1/237 244/1/218 241/1/216 242/1/238
f 129/1/179 256/1/226 200/1/239 158/1/161
f 256/1/226 255/1/224 199/1/195 200/1/239
f 148/1/170 237/1/240 253/1/229 146/1/171
f 237/1/240 238/1/215 254/1/223 253/1/229
f 135/1/167 235/1/241 251/1/231 132/1/168
f 235/1/241 236/1/214 252/1/222 251/1/231
f 131/1/185 250/1/232 247/1/227 159/1/186
f 250/1/232 249/1/220 248/1/221 247/1/227
f 149/1/181 229/1/242 245/1/235 147/1/187
f 229/1/242 230/1/211 246/1/219 245/1/235
f 136/1/189 231/1/243 243/1/237 134/1/175
f 231/1/243 232/1/212 244/1/218 243/1/237
f 133/1/176 242/1/238 239/1/233 160/1/177
f 242/1/238 241/1/216 240/1/217 239/1/233
f 150/1/169 225/1/244 237/1/240 148/1/170
f 225/1/244 226/1/209 238/1/215 237/1/240
f 137/1/164 227/1/245 235/1/241 135/1/167
f 227/1/245 228/1/210 236/1/214 235/1/241
f 151/1/192 221/1/246 233/1/225 130/1/190
f 221/1/246 222/1/207 234/1/213 233/1/225
f 138/1/188 223/1/247 231/1/243 136/1/189
f 223/1/247 224/1/208 232/1/212 231/1/243
f 152/1/180 217/1/248 229/1/242 149/1/181
f 217/1/248 218/1/205 230/1/211 229/1/242
f 139/1/163 219/1/249 227/1/245 137/1/164
f 219/1/249 220/1/206 228/1/210 227/1/245
f 153/1/166 211/1/250 225/1/244 150/1/169
f 211/1/250 212/1/203 226/1/209 225/1/244
f 140/1/174 215/1/251 223/1/247 138/1/188
f 215/1/251 216/1/204 224/1/208 223/1/247
f 154/1/191 205/1/252 221/1/246 151/1/192
f 205/1/252 206/1/200 222/1/207 221/1/246
f 141/1/184 209/1/253 219/1/249 139/1/163
f 209/1/253 210/1/201 220/1/206 219/1/249
f 155/1/162 197/1/254 217/1/248 152/1/180
f 197/1/254 198/1/196 218/1/205 217/1/248
f 142/1/173 201/1/255 215/1/251 140/1/174
f 201/1/255 202/1/198 216/1/204 215/1/251
f 156/1/165 214/1/228 211/1/250 153/1/166
f 214/1/228 213/1/202 212/1/203 211/1/250
f 143/1/183 193/1/256 209/1/253 141/1/184
f 193/1/256 194/1/194 210/1/201 209/1/253
f 157/1/178 208/1/234 205/1/252 154/1/191
f 208/1/234 207/1/199 206/1/200 205/1/252
f 144/1/172 204/1/230 201/1/255 142/1/173
f 204/1/230 203/1/197 202/1/198 201/1/255
f 158/1/161 200/1/239 197/1/254 155/1/162
f 200/1/239 199/1/195 198/1/196 197/1/254
f 145/1/182 196/1/236 193/1/256 143/1/183
f 196/1/236 195/1/193 194/1/194 193/1/256
o Bomber_Wheel_Axel_Right
v 0.700478 -1.600763 0.920931
v 0.727111 -1.587108 0.920931
v 0.780506 -1.881794 0.920931
v 0.750775 -1.878351 0.920931
v 0.870097 -1.603664 0.920931
v 0.892905 -1.623044 0.920931
v 0.722287 -1.869175 0.920931
v 0.911494 -1.646501 0.920931
v 0.696137 -1.854617 0.920931
v 0.925149 -1.673134 0.920931
v 0.673329 -1.835237 0.920931
v 0.933347 -1.701920 0.920931
v 0.654740 -1.811779 0.920931
v 0.935770 -1.731751 0.920931
v 0.641085 -1.785146 0.920931
v 0.932328 -1.761482 0.920931
v 0.632888 -1.756361 0.920931
v 0.923151 -1.789970 0.920931
v 0.630464 -1.726530 0.920931
v 0.908593 -1.816121 0.920931
v 0.633906 -1.696799 0.920931
v 0.889213 -1.838929 0.920931
v 0.755896 -1.578911 0.920931
v 0.643083 -1.668311 0.920931
v 0.865756 -1.857517 0.920931
v 0.785728 -1.576487 0.920931
v 0.657641 -1.642160 0.920931
v 0.839123 -1.871173 0.920931
v 0.815459 -1.579930 0.920931
v 0.677021 -1.619352 0.920931
v 0.810338 -1.879370 0.920931
v 0.843947 -1.589106 0.920931
v 0.748912 -1.676004 0.920931
v 0.759936 -1.670352 0.920931
v 0.782037 -1.792325 0.920931
v 0.769731 -1.790900 0.920931
v 0.819119 -1.677205 0.920931
v 0.828559 -1.685226 0.920931
v 0.757939 -1.787102 0.920931
v 0.836254 -1.694935 0.920931
v 0.747115 -1.781076 0.920931
v 0.841906 -1.705959 0.920931
v 0.737675 -1.773055 0.920931
v 0.845298 -1.717874 0.920931
v 0.729981 -1.763345 0.920931
v 0.846302 -1.730221 0.920931
v 0.724329 -1.752322 0.920931
v 0.844877 -1.742527 0.920931
v 0.720936 -1.740407 0.920931
v 0.841079 -1.754318 0.920931
v 0.719932 -1.728060 0.920931
v 0.835053 -1.765142 0.920931
v 0.721357 -1.715754 0.920931
v 0.827031 -1.774583 0.920931
v 0.771850 -1.666959 0.920931
v 0.725155 -1.703962 0.920931
v 0.817322 -1.782277 0.920931
v 0.784198 -1.665956 0.920931
v 0.731181 -1.693138 0.920931
v 0.806298 -1.787929 0.920931
v 0.796504 -1.667381 0.920931
v 0.739203 -1.683698 0.920931
v 0.794384 -1.791322 0.920931
v 0.808295 -1.671179 0.920931
v 0.738053 -1.614856 0.931778
v 0.748994 -1.642604 0.931778
v 0.732767 -1.650924 0.931778
v 0.716623 -1.625844 0.931778
v 0.662237 -1.751043 0.931778
v 0.691586 -1.745725 0.931778
v 0.696581 -1.763263 0.931778
v 0.668833 -1.774205 0.931778
v 0.697748 -1.640801 0.931778
v 0.718475 -1.662249 0.931778
v 0.706668 -1.676146 0.931778
v 0.682154 -1.659153 0.931778
v 0.903177 -1.755164 0.931778
v 0.874027 -1.748845 0.931778
v 0.876125 -1.730731 0.931778
v 0.905948 -1.731241 0.931778
v 0.809140 -1.609080 0.931778
v 0.802822 -1.638230 0.931778
v 0.784708 -1.636133 0.931778
v 0.785218 -1.606310 0.931778
v 0.704900 -1.779490 0.931778
v 0.679820 -1.795635 0.931778
v 0.828182 -1.843425 0.931778
v 0.817240 -1.815677 0.931778
v 0.833467 -1.807357 0.931778
v 0.849611 -1.832437 0.931778
v 0.874648 -1.712556 0.931778
v 0.903997 -1.707238 0.931778
v 0.697798 -1.692079 0.931778
v 0.670440 -1.680195 0.931778
v 0.716226 -1.793782 0.931778
v 0.694778 -1.814509 0.931778
v 0.766532 -1.637610 0.931778
v 0.761214 -1.608260 0.931778
v 0.869653 -1.695017 0.931778
v 0.897401 -1.684076 0.931778
v 0.847759 -1.796031 0.931778
v 0.868486 -1.817480 0.931778
v 0.730122 -1.805590 0.931778
v 0.713130 -1.830103 0.931778
v 0.692207 -1.709435 0.931778
v 0.663057 -1.703117 0.931778
v 0.861334 -1.678791 0.931778
v 0.886414 -1.662646 0.931778
v 0.746055 -1.814460 0.931778
v 0.734171 -1.841817 0.931778
v 0.859566 -1.782135 0.931778
v 0.884080 -1.799128 0.931778
v 0.853105 -1.628178 0.931778
v 0.836112 -1.652691 0.931778
v 0.820179 -1.643821 0.931778
v 0.832063 -1.616464 0.931778
v 0.850008 -1.664499 0.931778
v 0.871457 -1.643772 0.931778
v 0.690109 -1.727550 0.931778
v 0.660287 -1.727040 0.931778
v 0.781016 -1.851971 0.931778
v 0.781527 -1.822148 0.931778
v 0.799702 -1.820671 0.931778
v 0.805020 -1.850021 0.931778
v 0.763412 -1.820051 0.931778
v 0.757094 -1.849201 0.931778
v 0.868436 -1.766202 0.931778
v 0.895794 -1.778086 0.931778
v 0.700478 -1.600764 0.374160
v 0.727111 -1.587108 0.374160
v 0.780506 -1.881794 0.374160
v 0.750775 -1.878351 0.374160
v 0.870097 -1.603664 0.374160
v 0.892905 -1.623044 0.374160
v 0.722287 -1.869175 0.374160
v 0.911494 -1.646501 0.374160
v 0.696136 -1.854617 0.374160
v 0.925149 -1.673134 0.374160
v 0.673329 -1.835237 0.374160
v 0.933346 -1.701920 0.374160
v 0.654740 -1.811779 0.374160
v 0.935770 -1.731751 0.374160
v 0.641084 -1.785147 0.374160
v 0.932328 -1.761482 0.374160
v 0.632887 -1.756361 0.374160
v 0.923151 -1.789970 0.374160
v 0.630463 -1.726530 0.374160
v 0.908593 -1.816121 0.374160
v 0.633906 -1.696799 0.374160
v 0.889213 -1.838929 0.374160
v 0.755896 -1.578911 0.374160
v 0.643082 -1.668311 0.374160
v 0.865756 -1.857517 0.374160
v 0.785727 -1.576487 0.374160
v 0.657641 -1.642160 0.374160
v 0.839123 -1.871173 0.374160
v 0.815458 -1.579930 0.374160
v 0.677020 -1.619352 0.374160
v 0.810338 -1.879370 0.374160
v 0.843947 -1.589106 0.374160
v 0.748912 -1.676004 0.374160
v 0.759935 -1.670352 0.374160
v 0.782036 -1.792325 0.374160
v 0.769730 -1.790900 0.374160
v 0.819119 -1.677205 0.374160
v 0.828559 -1.685226 0.374160
v 0.757939 -1.787102 0.374160
v 0.836253 -1.694935 0.374160
v 0.747115 -1.781076 0.374160
v 0.841905 -1.705959 0.374160
v 0.737674 -1.773055 0.374160
v 0.845298 -1.717874 0.374160
v 0.729980 -1.763345 0.374160
v 0.846301 -1.730221 0.374160
v 0.724328 -1.752322 0.374160
v 0.844877 -1.742527 0.374160
v 0.720935 -1.740407 0.374160
v 0.841078 -1.754319 0.374160
v 0.719932 -1.728060 0.374160
v 0.835053 -1.765142 0.374160
v 0.721357 -1.715754 0.374160
v 0.827031 -1.774583 0.374160
v 0.771850 -1.666959 0.374160
v 0.725155 -1.703963 0.374160
v 0.817322 -1.782277 0.374160
v 0.784197 -1.665956 0.374160
v 0.731181 -1.693139 0.374160
v 0.806298 -1.787929 0.374160
v 0.796503 -1.667381 0.374160
v 0.739203 -1.683698 0.374160
v 0.794384 -1.791322 0.374160
v 0.808295 -1.671179 0.374160
v 0.668832 -1.774205 0.363313
v 0.696580 -1.763263 0.363313
v 0.691586 -1.745725 0.363313
v 0.662237 -1.751043 0.363313
v 0.682154 -1.659153 0.363313
v 0.706667 -1.676146 0.363313
v 0.718475 -1.662250 0.363313
v 0.697748 -1.640801 0.363313
v 0.905947 -1.731241 0.363313
v 0.876124 -1.730731 0.363313
v 0.874027 -1.748845 0.363313
v 0.903177 -1.755164 0.363313
v 0.785217 -1.606310 0.363313
v 0.784707 -1.636133 0.363313
v 0.802822 -1.638230 0.363313
v 0.809140 -1.609080 0.363313
v 0.679820 -1.795635 0.363313
v 0.704900 -1.779490 0.363313
v 0.849611 -1.832437 0.363313
v 0.833467 -1.807357 0.363313
v 0.817240 -1.815677 0.363313
v 0.828181 -1.843425 0.363313
v 0.903997 -1.707238 0.363313
v 0.874648 -1.712556 0.363313
v 0.670440 -1.680195 0.363313
v 0.697798 -1.692079 0.363313
v 0.694777 -1.814510 0.363313
v 0.716226 -1.793782 0.363313
v 0.761214 -1.608260 0.363313
v 0.766532 -1.637610 0.363313
v 0.897401 -1.684076 0.363313
v 0.869653 -1.695018 0.363313
v 0.868486 -1.817480 0.363313
v 0.847758 -1.796031 0.363313
v 0.713129 -1.830103 0.363313
v 0.730122 -1.805590 0.363313
v 0.663056 -1.703117 0.363313
v 0.692207 -1.709436 0.363313
v 0.886414 -1.662646 0.363313
v 0.861333 -1.678791 0.363313
v 0.738052 -1.614856 0.363313
v 0.748994 -1.642604 0.363313
v 0.734171 -1.841817 0.363313
v 0.746055 -1.814460 0.363313
v 0.884080 -1.799128 0.363313
v 0.859566 -1.782135 0.363313
v 0.832063 -1.616464 0.363313
v 0.820179 -1.643821 0.363313
v 0.836111 -1.652691 0.363313
v 0.853104 -1.628178 0.363313
v 0.871456 -1.643772 0.363313
v 0.850008 -1.664499 0.363313
v 0.660286 -1.727040 0.363313
v 0.690109 -1.727550 0.363313
v 0.805020 -1.850021 0.363313
v 0.799702 -1.820671 0.363313
v 0.781526 -1.822148 0.363313
v 0.781016 -1.851971 0.363313
v 0.757093 -1.849201 0.363313
v 0.763412 -1.820051 0.363313
v 0.895793 -1.778086 0.363313
v 0.868436 -1.766202 0.363313
v 0.732767 -1.650924 0.363313
v 0.716622 -1.625844 0.363313
vn 0.0138 0.8064 0.5911
vn -0.1438 0.7936 0.5911
vn -0.1438 0.7936 -0.5911
vn 0.0138 0.8065 -0.5911
vn 0.1709 0.7883 0.5911
vn 0.1709 0.7883 -0.5911
vn 0.3214 0.7398 0.5911
vn 0.3214 0.7398 -0.5911
vn 0.4595 0.6629 0.5911
vn 0.4595 0.6629 -0.5911
vn 0.5800 0.5605 0.5911
vn 0.5800 0.5605 -0.5911
vn 0.6782 0.4366 0.5911
vn 0.6782 0.4366 -0.5911
vn 0.7503 0.2959 0.5911
vn 0.7503 0.2959 -0.5911
vn 0.7936 0.1438 0.5911
vn 0.7936 0.1438 -0.5911
vn 0.8064 -0.0138 0.5911
vn 0.8065 -0.0138 -0.5911
vn 0.7883 -0.1709 0.5911
vn 0.7883 -0.1709 -0.5911
vn 0.7398 -0.3214 0.5911
vn 0.7398 -0.3214 -0.5911
vn 0.6629 -0.4595 0.5911
vn 0.6629 -0.4595 -0.5911
vn 0.5605 -0.5800 0.5911
vn 0.5605 -0.5800 -0.5911
vn 0.4366 -0.6782 0.5911
vn 0.4366 -0.6782 -0.5911
vn 0.2959 -0.7503 0.5911
vn 0.2959 -0.7503 -0.5911
vn 0.1438 -0.7936 0.5911
vn 0.1438 -0.7937 -0.5911
vn -0.0138 -0.8064 0.5911
vn -0.0138 -0.8065 -0.5911
vn -0.1709 -0.7883 0.5911
vn -0.1709 -0.7883 -0.5911
vn -0.3214 -0.7398 0.5911
vn -0.3214 -0.7398 -0.5911
vn -0.4595 -0.6629 0.5911
vn -0.4595 -0.6629 -0.5911
vn -0.5800 -0.5605 0.5911
vn -0.5800 -0.5605 -0.5911
vn -0.6782 -0.4366 0.5911
vn -0.6782 -0.4366 -0.5911
vn -0.7503 -0.2959 0.5911
vn -0.7503 -0.2959 -0.5911
vn -0.7936 -0.1438 0.5911
vn -0.7936 -0.1438 -0.5911
vn -0.8064 0.0138 0.5911
vn -0.8065 0.0138 -0.5911
vn -0.7883 0.1709 0.5911
vn -0.7883 0.1709 -0.5911
vn -0.7398 0.3214 0.5911
vn -0.7398 0.3214 -0.5911
vn -0.6629 0.4595 0.5911
vn -0.6629 0.4595 -0.5911
vn -0.5605 0.5800 0.5911
vn -0.5605 0.5800 -0.5911
vn -0.4366 0.6782 0.5911
vn -0.4366 0.6782 -0.5911
vn -0.2959 0.7503 0.5911
vn -0.2959 0.7503 -0.5911
vn 0.0882 -0.1370 0.9866
vn 0.0598 -0.1516 0.9866
vn 0.1516 0.0598 0.9866
vn 0.1603 0.0291 0.9866
vn 0.1339 -0.0928 0.9866
vn 0.1132 -0.1172 0.9866
vn -0.1629 0.0028 0.9866
vn -0.1593 0.0345 0.9866
vn -0.0028 -0.1629 0.9866
vn -0.0345 -0.1593 0.9866
vn 0.1370 0.0882 0.9866
vn -0.0882 0.1370 0.9866
vn -0.0598 0.1516 0.9866
vn -0.1603 -0.0291 0.9866
vn 0.1495 -0.0649 0.9866
vn 0.1172 0.1132 0.9866
vn 0.0291 -0.1603 0.9866
vn -0.1516 -0.0598 0.9866
vn -0.1132 0.1172 0.9866
vn 0.0928 0.1339 0.9866
vn 0.1593 -0.0345 0.9866
vn -0.1370 -0.0882 0.9866
vn 0.0649 0.1495 0.9866
vn -0.1339 0.0928 0.9866
vn -0.0649 -0.1495 0.9866
vn -0.0928 -0.1339 0.9866
vn -0.1172 -0.1132 0.9866
vn 0.1629 -0.0028 0.9866
vn -0.0291 0.1603 0.9866
vn 0.0028 0.1629 0.9866
vn 0.0345 0.1593 0.9866
vn -0.1495 0.0649 0.9866
vn 0.3045 -0.7723 0.5575
vn 0.0675 -0.1712 0.9829
vn 0.0328 -0.1810 0.9829
vn 0.1480 -0.8169 0.5575
vn 0.8114 -0.1759 0.5575
vn 0.1798 -0.0390 0.9829
vn 0.1688 -0.0733 0.9829
vn 0.7615 -0.3308 0.5575
vn -0.0142 -0.8301 0.5575
vn -0.0031 -0.1840 0.9829
vn -0.0390 -0.1798 0.9829
vn -0.1759 -0.8114 0.5575
vn 0.1759 0.8114 0.5575
vn 0.0390 0.1798 0.9829
vn 0.0733 0.1688 0.9829
vn 0.3308 0.7615 0.5575
vn -0.8169 -0.1480 0.5575
vn -0.1810 -0.0328 0.9829
vn -0.1840 0.0031 0.9829
vn -0.8301 0.0142 0.5575
vn 0.4730 0.6823 0.5575
vn 0.1048 0.1512 0.9829
vn 0.1323 0.1279 0.9829
vn 0.5970 0.5769 0.5575
vn -0.5769 0.5970 0.5575
vn -0.1279 0.1323 0.9829
vn -0.0996 0.1547 0.9829
vn -0.4494 0.6981 0.5575
vn 0.1512 -0.1048 0.9829
vn 0.6823 -0.4730 0.5574
vn -0.0733 -0.1688 0.9829
vn -0.3308 -0.7615 0.5575
vn -0.1798 0.0390 0.9829
vn -0.8114 0.1759 0.5575
vn 0.1547 0.0996 0.9829
vn 0.6981 0.4494 0.5575
vn 0.1279 -0.1323 0.9829
vn 0.5769 -0.5970 0.5575
vn -0.1048 -0.1512 0.9829
vn -0.4730 -0.6823 0.5575
vn -0.3045 0.7723 0.5575
vn -0.0675 0.1712 0.9829
vn -0.0328 0.1810 0.9829
vn -0.1480 0.8169 0.5575
vn 0.1712 0.0675 0.9829
vn 0.7723 0.3045 0.5575
vn -0.1688 0.0733 0.9829
vn -0.7615 0.3308 0.5575
vn -0.1323 -0.1279 0.9829
vn -0.5970 -0.5769 0.5575
vn 0.0996 -0.1547 0.9829
vn 0.4494 -0.6981 0.5575
vn 0.1810 0.0328 0.9829
vn 0.8169 0.1480 0.5575
vn 0.0031 0.1840 0.9829
vn 0.0142 0.8301 0.5575
vn -0.1547 -0.0996 0.9829
vn -0.6981 -0.4494 0.5575
vn -0.1512 0.1048 0.9829
vn -0.6823 0.4730 0.5575
vn 0.1840 -0.0031 0.9829
vn 0.8301 -0.0142 0.5575
vn -0.1712 -0.0675 0.9829
vn -0.7723 -0.3045 0.5575
vn -0.5769 0.5970 -0.5574
vn -0.6823 0.4730 -0.5574
vn -0.5970 -0.5769 -0.5574
vn -0.4730 -0.6823 -0.5574
vn 0.3045 -0.7723 -0.5574
vn 0.4494 -0.6981 -0.5574
vn -0.3308 -0.7615 -0.5574
vn -0.1759 -0.8114 -0.5574
vn 0.5769 -0.5970 -0.5574
vn 0.6823 -0.4730 -0.5574
vn 0.7615 -0.3308 -0.5574
vn 0.8114 -0.1759 -0.5574
vn 0.8301 -0.0142 -0.5574
vn 0.8169 0.1480 -0.5574
vn 0.5970 0.5769 -0.5574
vn 0.4730 0.6823 -0.5574
vn 0.3308 0.7615 -0.5574
vn 0.1759 0.8114 -0.5574
vn -0.4494 0.6981 -0.5574
vn -0.7615 0.3308 -0.5574
vn -0.8114 0.1759 -0.5574
vn -0.8169 -0.1480 -0.5574
vn -0.7723 -0.3045 -0.5574
vn -0.6981 -0.4494 -0.5574
vn -0.0142 -0.8301 -0.5574
vn 0.1480 -0.8169 -0.5574
vn -0.8301 0.0142 -0.5574
vn 0.7723 0.3045 -0.5574
vn 0.6981 0.4494 -0.5574
vn -0.3045 0.7723 -0.5574
vn 0.0142 0.8301 -0.5574
vn -0.1480 0.8169 -0.5574
vn 0.1603 0.0291 -0.9866
vn 0.1516 0.0598 -0.9866
vn 0.1132 -0.1172 -0.9866
vn 0.1339 -0.0928 -0.9866
vn -0.1593 0.0345 -0.9866
vn -0.1629 0.0028 -0.9866
vn -0.0345 -0.1593 -0.9866
vn -0.0028 -0.1629 -0.9866
vn 0.1370 0.0882 -0.9866
vn -0.0598 0.1516 -0.9866
vn -0.0882 0.1370 -0.9866
vn -0.1603 -0.0291 -0.9866
vn 0.1495 -0.0649 -0.9866
vn 0.1172 0.1132 -0.9866
vn 0.0291 -0.1603 -0.9866
vn -0.1516 -0.0598 -0.9866
vn -0.1132 0.1172 -0.9866
vn 0.0928 0.1339 -0.9866
vn 0.1593 -0.0345 -0.9866
vn -0.1370 -0.0882 -0.9866
vn 0.0598 -0.1516 -0.9866
vn 0.0649 0.1495 -0.9866
vn -0.1339 0.0928 -0.9866
vn -0.0928 -0.1339 -0.9866
vn -0.0649 -0.1495 -0.9866
vn -0.1172 -0.1132 -0.9866
vn 0.1629 -0.0028 -0.9866
vn 0.0028 0.1629 -0.9866
vn -0.0291 0.1603 -0.9866
vn 0.0345 0.1593 -0.9866
vn -0.1495 0.0649 -0.9866
vn 0.0882 -0.1370 -0.9866
vn -0.0675 0.1712 -0.9829
vn -0.0996 0.1547 -0.9829
vn 0.0328 -0.1810 -0.9829
vn 0.0675 -0.1712 -0.9829
vn 0.1688 -0.0733 -0.9829
vn 0.1798 -0.0390 -0.9829
vn -0.0390 -0.1798 -0.9829
vn -0.0031 -0.1840 -0.9829
vn 0.0733 0.1688 -0.9829
vn 0.0390 0.1798 -0.9829
vn -0.1840 0.0031 -0.9829
vn -0.1810 -0.0328 -0.9829
vn 0.1323 0.1279 -0.9829
vn 0.1048 0.1512 -0.9829
vn -0.1279 0.1323 -0.9829
vn 0.1512 -0.1048 -0.9829
vn -0.0733 -0.1688 -0.9829
vn -0.1798 0.0390 -0.9829
vn 0.1547 0.0996 -0.9829
vn 0.1279 -0.1323 -0.9829
vn -0.1048 -0.1512 -0.9829
vn -0.0328 0.1810 -0.9829
vn 0.1712 0.0675 -0.9829
vn -0.1688 0.0733 -0.9829
vn -0.1323 -0.1279 -0.9829
vn 0.0996 -0.1547 -0.9829
vn 0.1810 0.0328 -0.9829
vn 0.0031 0.1840 -0.9829
vn -0.1547 -0.0996 -0.9829
vn -0.1512 0.1048 -0.9829
vn 0.1840 -0.0031 -0.9829
vn -0.1712 -0.0675 -0.9829
vt 0.000000 0.000000
s 1
f 291/2/257 319/2/258 447/2/259 419/2/260
f 292/2/261 291/2/257 419/2/260 420/2/262
f 295/2/263 292/2/261 420/2/262 423/2/264
f 297/2/265 295/2/263 423/2/264 425/2/266
f 299/2/267 297/2/265 425/2/266 427/2/268
f 301/2/269 299/2/267 427/2/268 429/2/270
f 303/2/271 301/2/269 429/2/270 431/2/272
f 305/2/273 303/2/271 431/2/272 433/2/274
f 307/2/275 305/2/273 433/2/274 435/2/276
f 309/2/277 307/2/275 435/2/276 437/2/278
f 312/2/279 309/2/277 437/2/278 440/2/280
f 315/2/281 312/2/279 440/2/280 443/2/282
f 318/2/283 315/2/281 443/2/282 446/2/284
f 289/2/285 318/2/283 446/2/284 417/2/286
f 290/2/287 289/2/285 417/2/286 418/2/288
f 311/2/289 290/2/287 418/2/288 439/2/290
f 314/2/291 311/2/289 439/2/290 442/2/292
f 317/2/293 314/2/291 442/2/292 445/2/294
f 320/2/295 317/2/293 445/2/294 448/2/296
f 293/2/297 320/2/295 448/2/296 421/2/298
f 294/2/299 293/2/297 421/2/298 422/2/300
f 296/2/301 294/2/299 422/2/300 424/2/302
f 298/2/303 296/2/301 424/2/302 426/2/304
f 300/2/305 298/2/303 426/2/304 428/2/306
f 302/2/307 300/2/305 428/2/306 430/2/308
f 304/2/309 302/2/307 430/2/308 432/2/310
f 306/2/311 304/2/309 432/2/310 434/2/312
f 308/2/313 306/2/311 434/2/312 436/2/314
f 310/2/315 308/2/313 436/2/314 438/2/316
f 313/2/317 310/2/315 438/2/316 441/2/318
f 316/2/319 313/2/317 441/2/318 444/2/320
f 319/2/258 316/2/319 444/2/320 447/2/259
f 323/2/321 289/2/285 290/2/287 322/2/322
f 327/2/323 303/2/271 305/2/273 326/2/324
f 331/2/325 315/2/281 318/2/283 330/2/326
f 335/2/327 302/2/307 304/2/309 334/2/328
f 339/2/329 314/2/291 317/2/293 338/2/330
f 341/2/331 301/2/269 303/2/271 327/2/323
f 345/2/332 313/2/317 316/2/319 344/2/333
f 347/2/334 300/2/305 302/2/307 335/2/327
f 349/2/335 312/2/279 315/2/281 331/2/325
f 351/2/336 299/2/267 301/2/269 341/2/331
f 353/2/337 311/2/289 314/2/291 339/2/329
f 355/2/338 298/2/303 300/2/305 347/2/334
f 357/2/339 310/2/315 313/2/317 345/2/332
f 359/2/340 297/2/265 299/2/267 351/2/336
f 361/2/341 309/2/277 312/2/279 349/2/335
f 363/2/342 296/2/301 298/2/303 355/2/338
f 322/2/322 290/2/287 311/2/289 353/2/337
f 365/2/343 295/2/263 297/2/265 359/2/340
f 367/2/344 308/2/313 310/2/315 357/2/339
f 371/2/345 320/2/295 293/2/297 370/2/346
f 373/2/347 294/2/299 296/2/301 363/2/342
f 375/2/348 307/2/275 309/2/277 361/2/341
f 379/2/349 319/2/258 291/2/257 378/2/350
f 381/2/351 292/2/261 295/2/263 365/2/343
f 383/2/352 306/2/311 308/2/313 367/2/344
f 330/2/326 318/2/283 289/2/285 323/2/321
f 370/2/346 293/2/297 294/2/299 373/2/347
f 326/2/324 305/2/273 307/2/275 375/2/348
f 338/2/330 317/2/293 320/2/295 371/2/345
f 378/2/350 291/2/257 292/2/261 381/2/351
f 334/2/328 304/2/309 306/2/311 383/2/352
f 344/2/333 316/2/319 319/2/258 379/2/349
f 284/2/353 343/2/354 380/2/355 287/2/356
f 343/2/354 344/2/333 379/2/349 380/2/355
f 272/2/357 333/2/358 384/2/359 274/2/360
f 333/2/358 334/2/328 383/2/352 384/2/359
f 259/2/361 377/2/362 382/2/363 260/2/364
f 377/2/362 378/2/350 381/2/351 382/2/363
f 285/2/365 337/2/366 372/2/367 288/2/368
f 337/2/366 338/2/330 371/2/345 372/2/367
f 273/2/369 325/2/370 376/2/371 275/2/372
f 325/2/370 326/2/324 375/2/348 376/2/371
f 261/2/373 369/2/374 374/2/375 262/2/376
f 369/2/374 370/2/346 373/2/347 374/2/375
f 286/2/377 329/2/378 324/2/379 257/2/380
f 329/2/378 330/2/326 323/2/321 324/2/379
f 274/2/360 384/2/359 368/2/381 276/2/382
f 384/2/359 383/2/352 367/2/344 368/2/381
f 260/2/364 382/2/363 366/2/383 263/2/384
f 382/2/363 381/2/351 365/2/343 366/2/383
f 287/2/356 380/2/355 377/2/362 259/2/361
f 380/2/355 379/2/349 378/2/350 377/2/362
f 275/2/372 376/2/371 362/2/385 277/2/386
f 376/2/371 375/2/348 361/2/341 362/2/385
f 262/2/376 374/2/375 364/2/387 264/2/388
f 374/2/375 373/2/347 363/2/342 364/2/387
f 288/2/368 372/2/367 369/2/374 261/2/373
f 372/2/367 371/2/345 370/2/346 369/2/374
f 276/2/382 368/2/381 358/2/389 278/2/390
f 368/2/381 367/2/344 357/2/339 358/2/389
f 263/2/384 366/2/383 360/2/391 265/2/392
f 366/2/383 365/2/343 359/2/340 360/2/391
f 258/2/393 321/2/394 354/2/395 279/2/396
f 321/2/394 322/2/322 353/2/337 354/2/395
f 264/2/388 364/2/387 356/2/397 266/2/398
f 364/2/387 363/2/342 355/2/338 356/2/397
f 277/2/386 362/2/385 350/2/399 280/2/400
f 362/2/385 361/2/341 349/2/335 350/2/399
f 265/2/392 360/2/391 352/2/401 267/2/402
f 360/2/391 359/2/340 351/2/336 352/2/401
f 278/2/390 358/2/389 346/2/403 281/2/404
f 358/2/389 357/2/339 345/2/332 346/2/403
f 266/2/398 356/2/397 348/2/405 268/2/406
f 356/2/397 355/2/338 347/2/334 348/2/405
f 279/2/396 354/2/395 340/2/407 282/2/408
f 354/2/395 353/2/337 339/2/329 340/2/407
f 267/2/402 352/2/401 342/2/409 269/2/410
f 352/2/401 351/2/336 341/2/331 342/2/409
f 280/2/400 350/2/399 332/2/411 283/2/412
f 350/2/399 349/2/335 331/2/325 332/2/411
f 268/2/406 348/2/405 336/2/413 270/2/414
f 348/2/405 347/2/334 335/2/327 336/2/413
f 281/2/404 346/2/403 343/2/354 284/2/353
f 346/2/403 345/2/332 344/2/333 343/2/354
f 269/2/410 342/2/409 328/2/415 271/2/416
f 342/2/409 341/2/331 327/2/323 328/2/415
f 282/2/408 340/2/407 337/2/366 285/2/365
f 340/2/407 339/2/329 338/2/330 337/2/366
f 270/2/414 336/2/413 333/2/358 272/2/357
f 336/2/413 335/2/327 334/2/328 333/2/358
f 283/2/412 332/2/411 329/2/378 286/2/377
f 332/2/411 331/2/325 330/2/326 329/2/378
f 271/2/416 328/2/415 325/2/370 273/2/369
f 328/2/415 327/2/323 326/2/324 325/2/370
f 257/2/380 324/2/379 321/2/394 258/2/393
f 324/2/379 323/2/321 322/2/322 321/2/394
f 283/2/412 286/2/377 414/2/417 411/2/418
f 265/2/392 267/2/402 395/2/419 393/2/420
f 281/2/404 284/2/353 412/2/421 409/2/422
f 260/2/364 263/2/384 391/2/423 388/2/424
f 276/2/382 278/2/390 406/2/425 404/2/426
f 272/2/357 274/2/360 402/2/427 400/2/428
f 268/2/406 270/2/414 398/2/429 396/2/430
f 261/2/373 262/2/376 390/2/431 389/2/432
f 288/2/368 261/2/373 389/2/432 416/2/433
f 285/2/365 288/2/368 416/2/433 413/2/434
f 286/2/377 257/2/380 385/2/435 414/2/417
f 277/2/386 280/2/400 408/2/436 405/2/437
f 271/2/416 273/2/369 401/2/438 399/2/439
f 267/2/402 269/2/410 397/2/440 395/2/419
f 263/2/384 265/2/392 393/2/420 391/2/423
f 259/2/361 260/2/364 388/2/424 387/2/441
f 284/2/353 287/2/356 415/2/442 412/2/421
f 278/2/390 281/2/404 409/2/422 406/2/425
f 274/2/360 276/2/382 404/2/426 402/2/427
f 275/2/372 277/2/386 405/2/437 403/2/443
f 270/2/414 272/2/357 400/2/428 398/2/429
f 266/2/398 268/2/406 396/2/430 394/2/444
f 264/2/388 266/2/398 394/2/444 392/2/445
f 262/2/376 264/2/388 392/2/445 390/2/431
f 386/2/446 385/2/435 257/2/380 258/2/393
f 280/2/400 283/2/412 411/2/418 408/2/436
f 273/2/369 275/2/372 403/2/443 401/2/438
f 282/2/408 285/2/365 413/2/434 410/2/447
f 279/2/396 282/2/408 410/2/447 407/2/448
f 258/2/393 279/2/396 407/2/448 386/2/446
f 269/2/410 271/2/416 399/2/439 397/2/440
f 287/2/356 259/2/361 387/2/441 415/2/442
f 451/2/449 433/2/274 431/2/272 450/2/450
f 455/2/451 446/2/284 443/2/282 454/2/452
f 459/2/453 432/2/310 430/2/308 458/2/454
f 463/2/455 445/2/294 442/2/292 462/2/456
f 450/2/450 431/2/272 429/2/270 466/2/457
f 469/2/458 444/2/320 441/2/318 468/2/459
f 458/2/454 430/2/308 428/2/306 472/2/460
f 454/2/452 443/2/282 440/2/280 474/2/461
f 466/2/457 429/2/270 427/2/268 476/2/462
f 462/2/456 442/2/292 439/2/290 478/2/463
f 472/2/460 428/2/306 426/2/304 480/2/464
f 468/2/459 441/2/318 438/2/316 482/2/465
f 476/2/462 427/2/268 425/2/266 484/2/466
f 474/2/461 440/2/280 437/2/278 486/2/467
f 480/2/464 426/2/304 424/2/302 488/2/468
f 478/2/463 439/2/290 418/2/288 490/2/469
f 484/2/466 425/2/266 423/2/264 492/2/470
f 482/2/465 438/2/316 436/2/314 494/2/471
f 497/2/472 421/2/298 448/2/296 496/2/473
f 488/2/468 424/2/302 422/2/300 500/2/474
f 486/2/467 437/2/278 435/2/276 502/2/475
f 505/2/476 419/2/260 447/2/259 504/2/477
f 492/2/470 423/2/264 420/2/262 508/2/478
f 494/2/471 436/2/314 434/2/312 510/2/479
f 511/2/480 417/2/286 446/2/284 455/2/451
f 500/2/474 422/2/300 421/2/298 497/2/472
f 502/2/475 435/2/276 433/2/274 451/2/449
f 496/2/473 448/2/296 445/2/294 463/2/455
f 508/2/478 420/2/262 419/2/260 505/2/476
f 510/2/479 434/2/312 432/2/310 459/2/453
f 504/2/477 447/2/259 444/2/320 469/2/458
f 490/2/469 418/2/288 417/2/286 511/2/480
f 386/2/446 489/2/481 512/2/482 385/2/435
f 489/2/481 490/2/469 511/2/480 512/2/482
f 415/2/442 503/2/483 470/2/484 412/2/421
f 503/2/483 504/2/477 469/2/458 470/2/484
f 402/2/427 509/2/485 460/2/486 400/2/428
f 509/2/485 510/2/479 459/2/453 460/2/486
f 388/2/424 507/2/487 506/2/488 387/2/441
f 507/2/487 508/2/478 505/2/476 506/2/488
f 416/2/433 495/2/489 464/2/490 413/2/434
f 495/2/489 496/2/473 463/2/455 464/2/490
f 403/2/443 501/2/491 452/2/492 401/2/438
f 501/2/491 502/2/475 451/2/449 452/2/492
f 390/2/431 499/2/493 498/2/494 389/2/432
f 499/2/493 500/2/474 497/2/472 498/2/494
f 385/2/435 512/2/482 456/2/495 414/2/417
f 512/2/482 511/2/480 455/2/451 456/2/495
f 404/2/426 493/2/496 509/2/485 402/2/427
f 493/2/496 494/2/471 510/2/479 509/2/485
f 391/2/423 491/2/497 507/2/487 388/2/424
f 491/2/497 492/2/470 508/2/478 507/2/487
f 387/2/441 506/2/488 503/2/483 415/2/442
f 506/2/488 505/2/476 504/2/477 503/2/483
f 405/2/437 485/2/498 501/2/491 403/2/443
f 485/2/498 486/2/467 502/2/475 501/2/491
f 392/2/445 487/2/499 499/2/493 390/2/431
f 487/2/499 488/2/468 500/2/474 499/2/493
f 389/2/432 498/2/494 495/2/489 416/2/433
f 498/2/494 497/2/472 496/2/473 495/2/489
f 406/2/425 481/2/500 493/2/496 404/2/426
f 481/2/500 482/2/465 494/2/471 493/2/496
f 393/2/420 483/2/501 491/2/497 391/2/423
f 483/2/501 484/2/466 492/2/470 491/2/497
f 407/2/448 477/2/502 489/2/481 386/2/446
f 477/2/502 478/2/463 490/2/469 489/2/481
f 394/2/444 479/2/503 487/2/499 392/2/445
f 479/2/503 480/2/464 488/2/468 487/2/499
f 408/2/436 473/2/504 485/2/498 405/2/437
f 473/2/504 474/2/461 486/2/467 485/2/498
f 395/2/419 475/2/505 483/2/501 393/2/420
f 475/2/505 476/2/462 484/2/466 483/2/501
f 409/2/422 467/2/506 481/2/500 406/2/425
f 467/2/506 468/2/459 482/2/465 481/2/500
f 396/2/430 471/2/507 479/2/503 394/2/444
f 471/2/507 472/2/460 480/2/464 479/2/503
f 410/2/447 461/2/508 477/2/502 407/2/448
f 461/2/508 462/2/456 478/2/463 477/2/502
f 397/2/440 465/2/509 475/2/505 395/2/419
f 465/2/509 466/2/457 476/2/462 475/2/505
f 411/2/418 453/2/510 473/2/504 408/2/436
f 453/2/510 454/2/452 474/2/461 473/2/504
f 398/2/429 457/2/511 471/2/507 396/2/430
f 457/2/511 458/2/454 472/2/460 471/2/507
f 412/2/421 470/2/484 467/2/506 409/2/422
f 470/2/484 469/2/458 468/2/459 467/2/506
f 399/2/439 449/2/512 465/2/509 397/2/440
f 449/2/512 450/2/450 466/2/457 465/2/509
f 413/2/434 464/2/490 461/2/508 410/2/447
f 464/2/490 463/2/455 462/2/456 461/2/508
f 400/2/428 460/2/486 457/2/511 398/2/429
f 460/2/486 459/2/453 458/2/454 457/2/511
f 414/2/417 456/2/495 453/2/510 411/2/418
f 456/2/495 455/2/451 454/2/452 453/2/510
f 401/2/438 452/2/492 449/2/512 399/2/439
f 452/2/492 451/2/449 450/2/450 449/2/512
o Bomber_Wheel_Axel_Back
v -3.835405 -0.539981 -0.273385
v -3.859556 -0.522303 -0.273385
v -3.958681 -0.804907 -0.273385
v -3.928779 -0.806188 -0.273385
v -4.003366 -0.516141 -0.273385
v -4.028940 -0.531688 -0.273385
v -3.899201 -0.801611 -0.273385
v -4.050990 -0.551926 -0.273385
v -3.871085 -0.791352 -0.273385
v -4.068668 -0.576077 -0.273385
v -3.845510 -0.775805 -0.273385
v -4.081295 -0.603213 -0.273385
v -3.823460 -0.755567 -0.273385
v -4.088386 -0.632290 -0.273385
v -3.805782 -0.731416 -0.273385
v -4.089667 -0.662193 -0.273385
v -3.793155 -0.704280 -0.273385
v -4.085090 -0.691770 -0.273385
v -3.786065 -0.675202 -0.273385
v -4.074831 -0.719887 -0.273385
v -3.784783 -0.645300 -0.273385
v -4.059283 -0.745461 -0.273385
v -3.886691 -0.509676 -0.273385
v -3.789360 -0.615723 -0.273385
v -4.039045 -0.767511 -0.273385
v -3.915769 -0.502586 -0.273385
v -3.799619 -0.587606 -0.273385
v -4.014894 -0.785190 -0.273385
v -3.945671 -0.501305 -0.273385
v -3.815167 -0.562031 -0.273385
v -3.987759 -0.797817 -0.273385
v -3.975249 -0.505881 -0.273385
v -3.895081 -0.606658 -0.273385
v -3.905077 -0.599341 -0.273385
v -3.946106 -0.716313 -0.273385
v -3.933729 -0.716844 -0.273385
v -3.964601 -0.596790 -0.273385
v -3.975187 -0.603225 -0.273385
v -3.921487 -0.714949 -0.273385
v -3.984313 -0.611602 -0.273385
v -3.909849 -0.710703 -0.273385
v -3.991631 -0.621598 -0.273385
v -3.899264 -0.704268 -0.273385
v -3.996857 -0.632830 -0.273385
v -3.890137 -0.695891 -0.273385
v -3.999792 -0.644865 -0.273385
v -3.882819 -0.685894 -0.273385
v -4.000322 -0.657242 -0.273385
v -3.877593 -0.674663 -0.273385
v -3.998428 -0.669485 -0.273385
v -3.874658 -0.662627 -0.273385
v -3.994181 -0.681122 -0.273385
v -3.874128 -0.650250 -0.273385
v -3.987746 -0.691708 -0.273385
v -3.916309 -0.594114 -0.273385
v -3.876022 -0.638008 -0.273385
v -3.979370 -0.700835 -0.273385
v -3.928344 -0.591180 -0.273385
v -3.880269 -0.626370 -0.273385
v -3.969373 -0.708152 -0.273385
v -3.940721 -0.590649 -0.273385
v -3.886704 -0.615785 -0.273385
v -3.958142 -0.713378 -0.273385
v -3.952964 -0.592544 -0.273385
v -3.874729 -0.547982 -0.284232
v -3.889903 -0.573662 -0.284232
v -3.875189 -0.584432 -0.284232
v -3.855297 -0.562207 -0.284232
v -3.821301 -0.694408 -0.284232
v -3.849447 -0.684535 -0.284232
v -3.857140 -0.701068 -0.284232
v -3.831461 -0.716242 -0.284232
v -3.839013 -0.579949 -0.284232
v -3.862858 -0.597867 -0.284232
v -3.853386 -0.613449 -0.284232
v -3.826503 -0.600528 -0.284232
v -4.059886 -0.660543 -0.284232
v -4.030104 -0.658892 -0.284232
v -4.029323 -0.640674 -0.284232
v -4.058855 -0.636482 -0.284232
v -3.944021 -0.531086 -0.284232
v -3.942371 -0.560868 -0.284232
v -3.924153 -0.561648 -0.284232
v -3.919961 -0.532117 -0.284232
v -3.867911 -0.715783 -0.284232
v -3.845686 -0.735675 -0.284232
v -3.999721 -0.759510 -0.284232
v -3.984547 -0.733831 -0.284232
v -3.999262 -0.723060 -0.284232
v -4.019154 -0.745286 -0.284232
v -4.025003 -0.622958 -0.284232
v -4.053149 -0.613085 -0.284232
v -3.847135 -0.630580 -0.284232
v -3.818248 -0.623151 -0.284232
v -3.881346 -0.728113 -0.284232
v -3.863428 -0.751959 -0.284232
v -3.906436 -0.565968 -0.284232
v -3.896564 -0.537822 -0.284232
v -4.017310 -0.606425 -0.284232
v -4.042989 -0.591251 -0.284232
v -4.011592 -0.709626 -0.284232
v -4.035438 -0.727544 -0.284232
v -3.896928 -0.737586 -0.284232
v -3.884006 -0.764469 -0.284232
v -3.844347 -0.648600 -0.284232
v -3.814565 -0.646950 -0.284232
v -4.006539 -0.591710 -0.284232
v -4.028765 -0.571818 -0.284232
v -3.914058 -0.743837 -0.284232
v -3.906630 -0.772724 -0.284232
v -4.021065 -0.694044 -0.284232
v -4.047948 -0.706965 -0.284232
v -3.990444 -0.543024 -0.284232
v -3.977523 -0.569907 -0.284232
v -3.960392 -0.563656 -0.284232
v -3.967820 -0.534769 -0.284232
v -3.993105 -0.579380 -0.284232
v -4.011023 -0.555534 -0.284232
v -3.845127 -0.666819 -0.284232
v -3.815596 -0.671011 -0.284232
v -3.954489 -0.775376 -0.284232
v -3.950298 -0.745844 -0.284232
v -3.968014 -0.741524 -0.284232
v -3.977886 -0.769671 -0.284232
v -3.932079 -0.746625 -0.284232
v -3.930429 -0.776407 -0.284232
v -4.027315 -0.676913 -0.284232
v -4.056203 -0.684342 -0.284232
v -3.835405 -0.539981 0.273386
v -3.859555 -0.522303 0.273386
v -3.958681 -0.804907 0.273386
v -3.928779 -0.806188 0.273386
v -4.003365 -0.516141 0.273386
v -4.028940 -0.531688 0.273386
v -3.899201 -0.801611 0.273386
v -4.050990 -0.551926 0.273386
v -3.871084 -0.791352 0.273386
v -4.068668 -0.576077 0.273386
v -3.845510 -0.775805 0.273386
v -4.081295 -0.603213 0.273386
v -3.823460 -0.755567 0.273386
v -4.088386 -0.632290 0.273386
v -3.805782 -0.731416 0.273386
v -4.089667 -0.662193 0.273386
v -3.793155 -0.704280 0.273386
v -4.085090 -0.691770 0.273386
v -3.786064 -0.675202 0.273386
v -4.074831 -0.719887 0.273386
v -3.784783 -0.645300 0.273386
v -4.059283 -0.745461 0.273386
v -3.886691 -0.509676 0.273386
v -3.789360 -0.615723 0.273386
v -4.039045 -0.767512 0.273386
v -3.915769 -0.502586 0.273386
v -3.799619 -0.587606 0.273386
v -4.014894 -0.785190 0.273386
v -3.945671 -0.501305 0.273386
v -3.815166 -0.562032 0.273386
v -3.987758 -0.797817 0.273386
v -3.975249 -0.505882 0.273386
v -3.895081 -0.606658 0.273386
v -3.905077 -0.599341 0.273386
v -3.946106 -0.716313 0.273386
v -3.933729 -0.716844 0.273386
v -3.964601 -0.596790 0.273386
v -3.975187 -0.603226 0.273386
v -3.921486 -0.714949 0.273386
v -3.984313 -0.611602 0.273386
v -3.909849 -0.710703 0.273386
v -3.991630 -0.621598 0.273386
v -3.899263 -0.704268 0.273386
v -3.996857 -0.632830 0.273386
v -3.890136 -0.695891 0.273386
v -3.999792 -0.644866 0.273386
v -3.882819 -0.685895 0.273386
v -4.000322 -0.657242 0.273386
v -3.877593 -0.674663 0.273386
v -3.998427 -0.669485 0.273386
v -3.874658 -0.662627 0.273386
v -3.994181 -0.681123 0.273386
v -3.874128 -0.650250 0.273386
v -3.987746 -0.691708 0.273386
v -3.916308 -0.594115 0.273386
v -3.876022 -0.638008 0.273386
v -3.979369 -0.700835 0.273386
v -3.928344 -0.591180 0.273386
v -3.880269 -0.626370 0.273386
v -3.969373 -0.708152 0.273386
v -3.940721 -0.590649 0.273386
v -3.886704 -0.615785 0.273386
v -3.958141 -0.713379 0.273386
v -3.952963 -0.592544 0.273386
v -3.831461 -0.716242 0.284233
v -3.857140 -0.701068 0.284233
v -3.849447 -0.684535 0.284233
v -3.821301 -0.694408 0.284233
v -3.826502 -0.600528 0.284233
v -3.853385 -0.613449 0.284233
v -3.862858 -0.597867 0.284233
v -3.839012 -0.579949 0.284233
v -4.058854 -0.636482 0.284233
v -4.029323 -0.640674 0.284233
v -4.030104 -0.658893 0.284233
v -4.059885 -0.660543 0.284233
v -3.919960 -0.532117 0.284233
v -3.924152 -0.561648 0.284233
v -3.942371 -0.560868 0.284233
v -3.944021 -0.531086 0.284233
v -3.845685 -0.735675 0.284233
v -3.867911 -0.715783 0.284233
v -4.019153 -0.745286 0.284233
v -3.999261 -0.723060 0.284233
v -3.984547 -0.733831 0.284233
v -3.999720 -0.759511 0.284233
v -4.053149 -0.613085 0.284233
v -4.025003 -0.622958 0.284233
v -3.818247 -0.623151 0.284233
v -3.847135 -0.630580 0.284233
v -3.863428 -0.751959 0.284233
v -3.881346 -0.728113 0.284233
v -3.896564 -0.537822 0.284233
v -3.906436 -0.565969 0.284233
v -4.042989 -0.591251 0.284233
v -4.017310 -0.606425 0.284233
v -4.035438 -0.727544 0.284233
v -4.011591 -0.709626 0.284233
v -3.884006 -0.764469 0.284233
v -3.896927 -0.737586 0.284233
v -3.814564 -0.646950 0.284233
v -3.844346 -0.648600 0.284233
v -4.028764 -0.571818 0.284233
v -4.006539 -0.591710 0.284233
v -3.874729 -0.547982 0.284233
v -3.889903 -0.573662 0.284233
v -3.906629 -0.772724 0.284233
v -3.914058 -0.743837 0.284233
v -4.047947 -0.706965 0.284233
v -4.021064 -0.694044 0.284233
v -3.967820 -0.534769 0.284233
v -3.960392 -0.563656 0.284233
v -3.977522 -0.569907 0.284233
v -3.990444 -0.543024 0.284233
v -4.011022 -0.555534 0.284233
v -3.993104 -0.579380 0.284233
v -3.815596 -0.671011 0.284233
v -3.845127 -0.666819 0.284233
v -3.977886 -0.769671 0.284233
v -3.968014 -0.741525 0.284233
v -3.950297 -0.745844 0.284233
v -3.954489 -0.775376 0.284233
v -3.930429 -0.776407 0.284233
v -3.932079 -0.746625 0.284233
v -4.056202 -0.684342 0.284233
v -4.027315 -0.676913 0.284233
v -3.875189 -0.584432 0.284233
v -3.855297 -0.562207 0.284233
vn 0.1133 0.7986 -0.5911
vn 0.2670 0.7611 -0.5911
vn 0.2670 0.7611 0.5911
vn 0.1133 0.7986 0.5911
vn -0.0446 0.8053 -0.5911
vn -0.0446 0.8053 0.5911
vn -0.2009 0.7812 -0.5911
vn -0.2009 0.7812 0.5911
vn -0.3494 0.7270 -0.5911
vn -0.3494 0.7270 0.5911
vn -0.4845 0.6448 -0.5911
vn -0.4845 0.6448 0.5911
vn -0.6010 0.5379 -0.5911
vn -0.6010 0.5379 0.5911
vn -0.6944 0.4103 -0.5911
vn -0.6944 0.4103 0.5911
vn -0.7611 0.2670 -0.5911
vn -0.7611 0.2670 0.5911
vn -0.7986 0.1134 -0.5911
vn -0.7986 0.1134 0.5911
vn -0.8053 -0.0446 -0.5911
vn -0.8053 -0.0446 0.5911
vn -0.7812 -0.2009 -0.5911
vn -0.7812 -0.2009 0.5911
vn -0.7270 -0.3494 -0.5911
vn -0.7270 -0.3494 0.5911
vn -0.6448 -0.4845 -0.5911
vn -0.6448 -0.4845 0.5911
vn -0.5379 -0.6010 -0.5911
vn -0.5379 -0.6010 0.5911
vn -0.4103 -0.6944 -0.5911
vn -0.4103 -0.6944 0.5911
vn -0.2670 -0.7611 -0.5911
vn -0.2670 -0.7611 0.5911
vn -0.1134 -0.7986 -0.5911
vn -0.1133 -0.7986 0.5911
vn 0.0446 -0.8053 -0.5911
vn 0.0446 -0.8053 0.5911
vn 0.2009 -0.7812 -0.5911
vn 0.2009 -0.7812 0.5911
vn 0.3494 -0.7270 -0.5911
vn 0.3494 -0.7270 0.5911
vn 0.4845 -0.6448 -0.5911
vn 0.4845 -0.6448 0.5911
vn 0.6010 -0.5379 -0.5911
vn 0.6010 -0.5379 0.5911
vn 0.6944 -0.4103 -0.5911
vn 0.6944 -0.4103 0.5911
vn 0.7611 -0.2670 -0.5911
vn 0.7611 -0.2670 0.5911
vn 0.7986 -0.1133 -0.5911
vn 0.7986 -0.1133 0.5911
vn 0.8053 0.0446 -0.5911
vn 0.8053 0.0446 0.5911
vn 0.7812 0.2009 -0.5911
vn 0.7812 0.2009 0.5911
vn 0.7270 0.3494 -0.5911
vn 0.7270 0.3494 0.5911
vn 0.6448 0.4845 -0.5911
vn 0.6448 0.4845 0.5911
vn 0.5379 0.6010 -0.5911
vn 0.5379 0.6010 0.5911
vn 0.4103 0.6944 -0.5911
vn 0.4103 0.6944 0.5911
vn -0.1087 -0.1214 -0.9866
vn -0.0829 -0.1403 -0.9866
vn -0.1403 0.0829 -0.9866
vn -0.1538 0.0539 -0.9866
vn -0.1469 -0.0706 -0.9866
vn -0.1303 -0.0979 -0.9866
vn 0.1613 -0.0229 -0.9866
vn 0.1627 0.0090 -0.9866
vn -0.0229 -0.1613 -0.9866
vn 0.0090 -0.1627 -0.9866
vn -0.1214 0.1087 -0.9866
vn 0.1087 0.1214 -0.9866
vn 0.0829 0.1403 -0.9866
vn 0.1538 -0.0539 -0.9866
vn -0.1578 -0.0406 -0.9866
vn -0.0979 0.1303 -0.9866
vn -0.0539 -0.1538 -0.9866
vn 0.1403 -0.0829 -0.9866
vn 0.1303 0.0979 -0.9866
vn -0.0706 0.1469 -0.9866
vn -0.1627 -0.0090 -0.9866
vn 0.1214 -0.1087 -0.9866
vn -0.0406 0.1578 -0.9866
vn 0.1469 0.0706 -0.9866
vn 0.0406 -0.1578 -0.9866
vn 0.0706 -0.1469 -0.9866
vn 0.0979 -0.1303 -0.9866
vn -0.1613 0.0229 -0.9866
vn 0.0539 0.1538 -0.9866
vn 0.0229 0.1613 -0.9866
vn -0.0090 0.1627 -0.9866
vn 0.1578 0.0406 -0.9866
vn -0.4223 -0.7148 -0.5575
vn -0.0936 -0.1584 -0.9829
vn -0.0609 -0.1736 -0.9829
vn -0.2748 -0.7834 -0.5575
vn -0.8289 -0.0459 -0.5575
vn -0.1837 -0.0102 -0.9829
vn -0.1782 -0.0458 -0.9829
vn -0.8041 -0.2068 -0.5575
vn -0.1167 -0.8220 -0.5575
vn -0.0259 -0.1822 -0.9829
vn 0.0102 -0.1837 -0.9829
vn 0.0459 -0.8289 -0.5575
vn -0.0459 0.8289 -0.5575
vn -0.0102 0.1837 -0.9829
vn -0.0458 0.1782 -0.9829
vn -0.2068 0.8041 -0.5575
vn 0.7834 -0.2748 -0.5575
vn 0.1736 -0.0609 -0.9829
vn 0.1822 -0.0259 -0.9829
vn 0.8220 -0.1167 -0.5575
vn -0.3597 0.7483 -0.5575
vn -0.0797 0.1658 -0.9829
vn -0.1105 0.1471 -0.9829
vn -0.4987 0.6637 -0.5575
vn 0.6637 0.4987 -0.5575
vn 0.1471 0.1105 -0.9829
vn 0.1227 0.1371 -0.9829
vn 0.5537 0.6186 -0.5575
vn -0.1658 -0.0797 -0.9829
vn -0.7483 -0.3597 -0.5574
vn 0.0458 -0.1782 -0.9829
vn 0.2068 -0.8041 -0.5575
vn 0.1837 0.0102 -0.9829
vn 0.8289 0.0459 -0.5575
vn -0.1371 0.1227 -0.9829
vn -0.6186 0.5537 -0.5575
vn -0.1471 -0.1105 -0.9829
vn -0.6637 -0.4987 -0.5575
vn 0.0797 -0.1658 -0.9829
vn 0.3597 -0.7483 -0.5575
vn 0.4223 0.7148 -0.5575
vn 0.0936 0.1584 -0.9829
vn 0.0609 0.1736 -0.9829
vn 0.2748 0.7834 -0.5575
vn -0.1584 0.0936 -0.9829
vn -0.7148 0.4223 -0.5575
vn 0.1782 0.0458 -0.9829
vn 0.8041 0.2068 -0.5575
vn 0.1105 -0.1471 -0.9829
vn 0.4987 -0.6637 -0.5575
vn -0.1227 -0.1371 -0.9829
vn -0.5537 -0.6186 -0.5575
vn -0.1736 0.0609 -0.9829
vn -0.7834 0.2748 -0.5575
vn 0.0259 0.1822 -0.9829
vn 0.1167 0.8220 -0.5575
vn 0.1371 -0.1227 -0.9829
vn 0.6186 -0.5537 -0.5575
vn 0.1658 0.0797 -0.9829
vn 0.7483 0.3597 -0.5575
vn -0.1822 0.0259 -0.9829
vn -0.8220 0.1167 -0.5575
vn 0.1584 -0.0936 -0.9829
vn 0.7148 -0.4223 -0.5575
vn 0.6637 0.4987 0.5574
vn 0.7483 0.3597 0.5574
vn 0.4987 -0.6637 0.5574
vn 0.3597 -0.7483 0.5574
vn -0.4223 -0.7148 0.5574
vn -0.5537 -0.6186 0.5574
vn 0.2068 -0.8041 0.5574
vn 0.0459 -0.8289 0.5574
vn -0.6637 -0.4987 0.5574
vn -0.7483 -0.3597 0.5574
vn -0.8041 -0.2068 0.5574
vn -0.8289 -0.0459 0.5574
vn -0.8220 0.1167 0.5574
vn -0.7834 0.2748 0.5574
vn -0.4987 0.6637 0.5574
vn -0.3597 0.7483 0.5574
vn -0.2068 0.8041 0.5574
vn -0.0459 0.8289 0.5574
vn 0.5537 0.6186 0.5574
vn 0.8041 0.2068 0.5574
vn 0.8289 0.0459 0.5574
vn 0.7834 -0.2748 0.5574
vn 0.7148 -0.4223 0.5574
vn 0.6186 -0.5537 0.5574
vn -0.1167 -0.8220 0.5574
vn -0.2748 -0.7834 0.5574
vn 0.8220 -0.1167 0.5574
vn -0.7148 0.4223 0.5574
vn -0.6186 0.5537 0.5574
vn 0.4223 0.7148 0.5574
vn 0.1167 0.8220 0.5574
vn 0.2748 0.7834 0.5574
vn -0.1538 0.0539 0.9866
vn -0.1403 0.0829 0.9866
vn -0.1303 -0.0979 0.9866
vn -0.1469 -0.0706 0.9866
vn 0.1627 0.0090 0.9866
vn 0.1613 -0.0229 0.9866
vn 0.0090 -0.1627 0.9866
vn -0.0229 -0.1613 0.9866
vn -0.1214 0.1087 0.9866
vn 0.0829 0.1403 0.9866
vn 0.1087 0.1214 0.9866
vn 0.1538 -0.0539 0.9866
vn -0.1578 -0.0406 0.9866
vn -0.0979 0.1303 0.9866
vn -0.0539 -0.1538 0.9866
vn 0.1403 -0.0829 0.9866
vn 0.1303 0.0979 0.9866
vn -0.0706 0.1469 0.9866
vn -0.1627 -0.0090 0.9866
vn 0.1214 -0.1087 0.9866
vn -0.0829 -0.1403 0.9866
vn -0.0406 0.1578 0.9866
vn 0.1469 0.0706 0.9866
vn 0.0706 -0.1469 0.9866
vn 0.0406 -0.1578 0.9866
vn 0.0979 -0.1303 0.9866
vn -0.1613 0.0229 0.9866
vn 0.0229 0.1613 0.9866
vn 0.0539 0.1538 0.9866
vn -0.0090 0.1627 0.9866
vn 0.1578 0.0406 0.9866
vn -0.1087 -0.1214 0.9866
vn 0.0936 0.1584 0.9829
vn 0.1227 0.1371 0.9829
vn -0.0609 -0.1736 0.9829
vn -0.0936 -0.1584 0.9829
vn -0.1782 -0.0458 0.9829
vn -0.1837 -0.0102 0.9829
vn 0.0102 -0.1837 0.9829
vn -0.0259 -0.1822 0.9829
vn -0.0458 0.1782 0.9829
vn -0.0102 0.1837 0.9829
vn 0.1822 -0.0259 0.9829
vn 0.1736 -0.0609 0.9829
vn -0.1105 0.1471 0.9829
vn -0.0797 0.1658 0.9829
vn 0.1471 0.1105 0.9829
vn -0.1658 -0.0797 0.9829
vn 0.0458 -0.1782 0.9829
vn 0.1837 0.0102 0.9829
vn -0.1371 0.1227 0.9829
vn -0.1471 -0.1105 0.9829
vn 0.0797 -0.1658 0.9829
vn 0.0609 0.1736 0.9829
vn -0.1584 0.0936 0.9829
vn 0.1782 0.0458 0.9829
vn 0.1105 -0.1471 0.9829
vn -0.1227 -0.1371 0.9829
vn -0.1736 0.0609 0.9829
vn 0.0259 0.1822 0.9829
vn 0.1371 -0.1227 0.9829
vn 0.1658 0.0797 0.9829
vn -0.1822 0.0259 0.9829
vn 0.1584 -0.0936 0.9829
vt 0.000000 0.000000
s 1
f 547/3/513 575/3/514 703/3/515 675/3/516
f 548/3/517 547/3/513 675/3/516 676/3/518
f 551/3/519 548/3/517 676/3/518 679/3/520
f 553/3/521 551/3/519 679/3/520 681/3/522
f 555/3/523 553/3/521 681/3/522 683/3/524
f 557/3/525 555/3/523 683/3/524 685/3/526
f 559/3/527 557/3/525 685/3/526 687/3/528
f 561/3/529 559/3/527 687/3/528 689/3/530
f 563/3/531 561/3/529 689/3/530 691/3/532
f 565/3/533 563/3/531 691/3/532 693/3/534
f 568/3/535 565/3/533 693/3/534 696/3/536
f 571/3/537 568/3/535 696/3/536 699/3/538
f 574/3/539 571/3/537 699/3/538 702/3/540
f 545/3/541 574/3/539 702/3/540 673/3/542
f 546/3/543 545/3/541 673/3/542 674/3/544
f 567/3/545 546/3/543 674/3/544 695/3/546
f 570/3/547 567/3/545 695/3/546 698/3/548
f 573/3/549 570/3/547 698/3/548 701/3/550
f 576/3/551 573/3/549 701/3/550 704/3/552
f 549/3/553 576/3/551 704/3/552 677/3/554
f 550/3/555 549/3/553 677/3/554 678/3/556
f 552/3/557 550/3/555 678/3/556 680/3/558
f 554/3/559 552/3/557 680/3/558 682/3/560
f 556/3/561 554/3/559 682/3/560 684/3/562
f 558/3/563 556/3/561 684/3/562 686/3/564
f 560/3/565 558/3/563 686/3/564 688/3/566
f 562/3/567 560/3/565 688/3/566 690/3/568
f 564/3/569 562/3/567 690/3/568 692/3/570
f 566/3/571 564/3/569 692/3/570 694/3/572
f 569/3/573 566/3/571 694/3/572 697/3/574
f 572/3/575 569/3/573 697/3/574 700/3/576
f 575/3/514 572/3/575 700/3/576 703/3/515
f 579/3/577 545/3/541 546/3/543 578/3/578
f 583/3/579 559/3/527 561/3/529 582/3/580
f 587/3/581 571/3/537 574/3/539 586/3/582
f 591/3/583 558/3/563 560/3/565 590/3/584
f 595/3/585 570/3/547 573/3/549 594/3/586
f 597/3/587 557/3/525 559/3/527 583/3/579
f 601/3/588 569/3/573 572/3/575 600/3/589
f 603/3/590 556/3/561 558/3/563 591/3/583
f 605/3/591 568/3/535 571/3/537 587/3/581
f 607/3/592 555/3/523 557/3/525 597/3/587
f 609/3/593 567/3/545 570/3/547 595/3/585
f 611/3/594 554/3/559 556/3/561 603/3/590
f 613/3/595 566/3/571 569/3/573 601/3/588
f 615/3/596 553/3/521 555/3/523 607/3/592
f 617/3/597 565/3/533 568/3/535 605/3/591
f 619/3/598 552/3/557 554/3/559 611/3/594
f 578/3/578 546/3/543 567/3/545 609/3/593
f 621/3/599 551/3/519 553/3/521 615/3/596
f 623/3/600 564/3/569 566/3/571 613/3/595
f 627/3/601 576/3/551 549/3/553 626/3/602
f 629/3/603 550/3/555 552/3/557 619/3/598
f 631/3/604 563/3/531 565/3/533 617/3/597
f 635/3/605 575/3/514 547/3/513 634/3/606
f 637/3/607 548/3/517 551/3/519 621/3/599
f 639/3/608 562/3/567 564/3/569 623/3/600
f 586/3/582 574/3/539 545/3/541 579/3/577
f 626/3/602 549/3/553 550/3/555 629/3/603
f 582/3/580 561/3/529 563/3/531 631/3/604
f 594/3/586 573/3/549 576/3/551 627/3/601
f 634/3/606 547/3/513 548/3/517 637/3/607
f 590/3/584 560/3/565 562/3/567 639/3/608
f 600/3/589 572/3/575 575/3/514 635/3/605
f 540/3/609 599/3/610 636/3/611 543/3/612
f 599/3/610 600/3/589 635/3/605 636/3/611
f 528/3/613 589/3/614 640/3/615 530/3/616
f 589/3/614 590/3/584 639/3/608 640/3/615
f 515/3/617 633/3/618 638/3/619 516/3/620
f 633/3/618 634/3/606 637/3/607 638/3/619
f 541/3/621 593/3/622 628/3/623 544/3/624
f 593/3/622 594/3/586 627/3/601 628/3/623
f 529/3/625 581/3/626 632/3/627 531/3/628
f 581/3/626 582/3/580 631/3/604 632/3/627
f 517/3/629 625/3/630 630/3/631 518/3/632
f 625/3/630 626/3/602 629/3/603 630/3/631
f 542/3/633 585/3/634 580/3/635 513/3/636
f 585/3/634 586/3/582 579/3/577 580/3/635
f 530/3/616 640/3/615 624/3/637 532/3/638
f 640/3/615 639/3/608 623/3/600 624/3/637
f 516/3/620 638/3/619 622/3/639 519/3/640
f 638/3/619 637/3/607 621/3/599 622/3/639
f 543/3/612 636/3/611 633/3/618 515/3/617
f 636/3/611 635/3/605 634/3/606 633/3/618
f 531/3/628 632/3/627 618/3/641 533/3/642
f 632/3/627 631/3/604 617/3/597 618/3/641
f 518/3/632 630/3/631 620/3/643 520/3/644
f 630/3/631 629/3/603 619/3/598 620/3/643
f 544/3/624 628/3/623 625/3/630 517/3/629
f 628/3/623 627/3/601 626/3/602 625/3/630
f 532/3/638 624/3/637 614/3/645 534/3/646
f 624/3/637 623/3/600 613/3/595 614/3/645
f 519/3/640 622/3/639 616/3/647 521/3/648
f 622/3/639 621/3/599 615/3/596 616/3/647
f 514/3/649 577/3/650 610/3/651 535/3/652
f 577/3/650 578/3/578 609/3/593 610/3/651
f 520/3/644 620/3/643 612/3/653 522/3/654
f 620/3/643 619/3/598 611/3/594 612/3/653
f 533/3/642 618/3/641 606/3/655 536/3/656
f 618/3/641 617/3/597 605/3/591 606/3/655
f 521/3/648 616/3/647 608/3/657 523/3/658
f 616/3/647 615/3/596 607/3/592 608/3/657
f 534/3/646 614/3/645 602/3/659 537/3/660
f 614/3/645 613/3/595 601/3/588 602/3/659
f 522/3/654 612/3/653 604/3/661 524/3/662
f 612/3/653 611/3/594 603/3/590 604/3/661
f 535/3/652 610/3/651 596/3/663 538/3/664
f 610/3/651 609/3/593 595/3/585 596/3/663
f 523/3/658 608/3/657 598/3/665 525/3/666
f 608/3/657 607/3/592 597/3/587 598/3/665
f 536/3/656 606/3/655 588/3/667 539/3/668
f 606/3/655 605/3/591 587/3/581 588/3/667
f 524/3/662 604/3/661 592/3/669 526/3/670
f 604/3/661 603/3/590 591/3/583 592/3/669
f 537/3/660 602/3/659 599/3/610 540/3/609
f 602/3/659 601/3/588 600/3/589 599/3/610
f 525/3/666 598/3/665 584/3/671 527/3/672
f 598/3/665 597/3/587 583/3/579 584/3/671
f 538/3/664 596/3/663 593/3/622 541/3/621
f 596/3/663 595/3/585 594/3/586 593/3/622
f 526/3/670 592/3/669 589/3/614 528/3/613
f 592/3/669 591/3/583 590/3/584 589/3/614
f 539/3/668 588/3/667 585/3/634 542/3/633
f 588/3/667 587/3/581 586/3/582 585/3/634
f 527/3/672 584/3/671 581/3/626 529/3/625
f 584/3/671 583/3/579 582/3/580 581/3/626
f 513/3/636 580/3/635 577/3/650 514/3/649
f 580/3/635 579/3/577 578/3/578 577/3/650
f 539/3/668 542/3/633 670/3/673 667/3/674
f 521/3/648 523/3/658 651/3/675 649/3/676
f 537/3/660 540/3/609 668/3/677 665/3/678
f 516/3/620 519/3/640 647/3/679 644/3/680
f 532/3/638 534/3/646 662/3/681 660/3/682
f 528/3/613 530/3/616 658/3/683 656/3/684
f 524/3/662 526/3/670 654/3/685 652/3/686
f 517/3/629 518/3/632 646/3/687 645/3/688
f 544/3/624 517/3/629 645/3/688 672/3/689
f 541/3/621 544/3/624 672/3/689 669/3/690
f 542/3/633 513/3/636 641/3/691 670/3/673
f 533/3/642 536/3/656 664/3/692 661/3/693
f 527/3/672 529/3/625 657/3/694 655/3/695
f 523/3/658 525/3/666 653/3/696 651/3/675
f 519/3/640 521/3/648 649/3/676 647/3/679
f 515/3/617 516/3/620 644/3/680 643/3/697
f 540/3/609 543/3/612 671/3/698 668/3/677
f 534/3/646 537/3/660 665/3/678 662/3/681
f 530/3/616 532/3/638 660/3/682 658/3/683
f 531/3/628 533/3/642 661/3/693 659/3/699
f 526/3/670 528/3/613 656/3/684 654/3/685
f 522/3/654 524/3/662 652/3/686 650/3/700
f 520/3/644 522/3/654 650/3/700 648/3/701
f 518/3/632 520/3/644 648/3/701 646/3/687
f 642/3/702 641/3/691 513/3/636 514/3/649
f 536/3/656 539/3/668 667/3/674 664/3/692
f 529/3/625 531/3/628 659/3/699 657/3/694
f 538/3/664 541/3/621 669/3/690 666/3/703
f 535/3/652 538/3/664 666/3/703 663/3/704
f 514/3/649 535/3/652 663/3/704 642/3/702
f 525/3/666 527/3/672 655/3/695 653/3/696
f 543/3/612 515/3/617 643/3/697 671/3/698
f 707/3/705 689/3/530 687/3/528 706/3/706
f 711/3/707 702/3/540 699/3/538 710/3/708
f 715/3/709 688/3/566 686/3/564 714/3/710
f 719/3/711 701/3/550 698/3/548 718/3/712
f 706/3/706 687/3/528 685/3/526 722/3/713
f 725/3/714 700/3/576 697/3/574 724/3/715
f 714/3/710 686/3/564 684/3/562 728/3/716
f 710/3/708 699/3/538 696/3/536 730/3/717
f 722/3/713 685/3/526 683/3/524 732/3/718
f 718/3/712 698/3/548 695/3/546 734/3/719
f 728/3/716 684/3/562 682/3/560 736/3/720
f 724/3/715 697/3/574 694/3/572 738/3/721
f 732/3/718 683/3/524 681/3/522 740/3/722
f 730/3/717 696/3/536 693/3/534 742/3/723
f 736/3/720 682/3/560 680/3/558 744/3/724
f 734/3/719 695/3/546 674/3/544 746/3/725
f 740/3/722 681/3/522 679/3/520 748/3/726
f 738/3/721 694/3/572 692/3/570 750/3/727
f 753/3/728 677/3/554 704/3/552 752/3/729
f 744/3/724 680/3/558 678/3/556 756/3/730
f 742/3/723 693/3/534 691/3/532 758/3/731
f 761/3/732 675/3/516 703/3/515 760/3/733
f 748/3/726 679/3/520 676/3/518 764/3/734
f 750/3/727 692/3/570 690/3/568 766/3/735
f 767/3/736 673/3/542 702/3/540 711/3/707
f 756/3/730 678/3/556 677/3/554 753/3/728
f 758/3/731 691/3/532 689/3/530 707/3/705
f 752/3/729 704/3/552 701/3/550 719/3/711
f 764/3/734 676/3/518 675/3/516 761/3/732
f 766/3/735 690/3/568 688/3/566 715/3/709
f 760/3/733 703/3/515 700/3/576 725/3/714
f 746/3/725 674/3/544 673/3/542 767/3/736
f 642/3/702 745/3/737 768/3/738 641/3/691
f 745/3/737 746/3/725 767/3/736 768/3/738
f 671/3/698 759/3/739 726/3/740 668/3/677
f 759/3/739 760/3/733 725/3/714 726/3/740
f 658/3/683 765/3/741 716/3/742 656/3/684
f 765/3/741 766/3/735 715/3/709 716/3/742
f 644/3/680 763/3/743 762/3/744 643/3/697
f 763/3/743 764/3/734 761/3/732 762/3/744
f 672/3/689 751/3/745 720/3/746 669/3/690
f 751/3/745 752/3/729 719/3/711 720/3/746
f 659/3/699 757/3/747 708/3/748 657/3/694
f 757/3/747 758/3/731 707/3/705 708/3/748
f 646/3/687 755/3/749 754/3/750 645/3/688
f 755/3/749 756/3/730 753/3/728 754/3/750
f 641/3/691 768/3/738 712/3/751 670/3/673
f 768/3/738 767/3/736 711/3/707 712/3/751
f 660/3/682 749/3/752 765/3/741 658/3/683
f 749/3/752 750/3/727 766/3/735 765/3/741
f 647/3/679 747/3/753 763/3/743 644/3/680
f 747/3/753 748/3/726 764/3/734 763/3/743
f 643/3/697 762/3/744 759/3/739 671/3/698
f 762/3/744 761/3/732 760/3/733 759/3/739
f 661/3/693 741/3/754 757/3/747 659/3/699
f 741/3/754 742/3/723 758/3/731 757/3/747
f 648/3/701 743/3/755 755/3/749 646/3/687
f 743/3/755 744/3/724 756/3/730 755/3/749
f 645/3/688 754/3/750 751/3/745 672/3/689
f 754/3/750 753/3/728 752/3/729 751/3/745
f 662/3/681 737/3/756 749/3/752 660/3/682
f 737/3/756 738/3/721 750/3/727 749/3/752
f 649/3/676 739/3/757 747/3/753 647/3/679
f 739/3/757 740/3/722 748/3/726 747/3/753
f 663/3/704 733/3/758 745/3/737 642/3/702
f 733/3/758 734/3/719 746/3/725 745/3/737
f 650/3/700 735/3/759 743/3/755 648/3/701
f 735/3/759 736/3/720 744/3/724 743/3/755
f 664/3/692 729/3/760 741/3/754 661/3/693
f 729/3/760 730/3/717 742/3/723 741/3/754
f 651/3/675 731/3/761 739/3/757 649/3/676
f 731/3/761 732/3/718 740/3/722 739/3/757
f 665/3/678 723/3/762 737/3/756 662/3/681
f 723/3/762 724/3/715 738/3/721 737/3/756
f 652/3/686 727/3/763 735/3/759 650/3/700
f 727/3/763 728/3/716 736/3/720 735/3/759
f 666/3/703 717/3/764 733/3/758 663/3/704
f 717/3/764 718/3/712 734/3/719 733/3/758
f 653/3/696 721/3/765 731/3/761 651/3/675
f 721/3/765 722/3/713 732/3/718 731/3/761
f 667/3/674 709/3/766 729/3/760 664/3/692
f 709/3/766 710/3/708 730/3/717 729/3/760
f 654/3/685 713/3/767 727/3/763 652/3/686
f 713/3/767 714/3/710 728/3/716 727/3/763
f 668/3/677 726/3/740 723/3/762 665/3/678
f 726/3/740 725/3/714 724/3/715 723/3/762
f 655/3/695 705/3/768 721/3/765 653/3/696
f 705/3/768 706/3/706 722/3/713 721/3/765
f 669/3/690 720/3/746 717/3/764 666/3/703
f 720/3/746 719/3/711 718/3/712 717/3/764
f 656/3/684 716/3/742 713/3/767 654/3/685
f 716/3/742 715/3/709 714/3/710 713/3/767
f 670/3/673 712/3/751 709/3/766 667/3/674
f 712/3/751 711/3/707 710/3/708 709/3/766
f 657/3/694 708/3/748 705/3/768 655/3/695
f 708/3/748 707/3/705 706/3/706 705/3/768
