# Blender 4.0.1
# www.blender.org
o Bomber_Cockpit_Glass
v -0.288369 1.418902 -0.817870
v -0.447927 1.418902 -0.802155
v -0.601354 1.418902 -0.755613
v -0.742753 1.418902 -0.680034
v -0.866690 1.418902 -0.578321
v -0.968403 1.418902 -0.454384
v -1.043982 1.418902 -0.312985
v -1.090524 1.418902 -0.159559
v -1.106239 1.418902 -0.000000
v -1.090524 1.418902 0.159559
v -1.043982 1.418902 0.312985
v -0.968403 1.418902 0.454384
v -0.866690 1.418902 0.578321
v -0.742753 1.418902 0.680034
v -0.601354 1.418902 0.755613
v -0.447927 1.418902 0.802155
v -0.288369 1.418902 0.817870
v -0.128810 1.418902 0.802155
v 0.024616 1.418902 0.755613
v 0.166015 1.418902 0.680034
v 0.289953 1.418902 0.578321
v 0.391665 1.418902 0.454384
v 0.467244 1.418902 0.312985
v 0.513786 1.418902 0.159559
v 0.529501 1.418902 -0.000000
v 0.513786 1.418902 -0.159559
v 0.467244 1.418902 -0.312985
v 0.391665 1.418902 -0.454384
v 0.289953 1.418902 -0.578321
v 0.166015 1.418902 -0.680034
v 0.024616 1.418902 -0.755613
v -0.128810 1.418902 -0.802155
v -0.438112 2.667753 -0.752058
v -0.288477 2.667753 -0.766796
v -0.581930 2.667844 -0.708194
v -0.713656 2.668611 -0.635684
v -0.828507 2.669371 -0.539126
v -0.922503 2.669925 -0.422610
v -0.992544 2.670127 -0.290614
v -1.036286 2.669926 -0.147865
v -1.052062 2.669376 0.000665
v -1.038938 2.668621 0.149702
v -0.996885 2.667856 0.293660
v -0.926214 2.667750 0.426326
v -0.830828 2.667749 0.542555
v -0.714600 2.667749 0.637941
v -0.581995 2.667749 0.708819
v -0.438112 2.667749 0.752466
v -0.288477 2.667750 0.767204
v -0.138897 2.667841 0.752289
v 0.004172 2.668603 0.707278
v 0.135387 2.669361 0.635383
v 0.250116 2.669917 0.539734
v 0.344491 2.670127 0.424046
v 0.415309 2.669934 0.292471
v 0.459950 2.669387 0.149585
v 0.476419 2.668629 0.000452
v 0.463530 2.667860 -0.149352
v 0.420138 2.667753 -0.293314
v 0.349260 2.667753 -0.425918
v 0.253874 2.667753 -0.542147
v 0.137645 2.667753 -0.637533
v 0.005041 2.667753 -0.708412
v -0.138843 2.667753 -0.752058
v -0.272563 3.199579 -0.079915
v -0.257226 3.199579 -0.075262
v -0.243092 3.199579 -0.067707
v -0.230703 3.199579 -0.057540
v -0.220535 3.199578 -0.045151
v -0.212980 3.199577 -0.031017
v -0.208355 3.199543 -0.015671
v -0.206981 3.199319 0.000296
v -0.208737 3.199112 0.016193
v -0.213495 3.198975 0.031423
v -0.221044 3.198940 0.045448
v -0.231103 3.199010 0.057779
v -0.243332 3.199162 0.067975
v -0.257319 3.199354 0.075638
v -0.272569 3.199537 0.080436
v -0.288512 3.199557 0.082026
v -0.304462 3.199556 0.080455
v -0.319799 3.199556 0.075802
v -0.333933 3.199556 0.068247
v -0.346322 3.199556 0.058080
v -0.356490 3.199557 0.045691
v -0.364023 3.199533 0.031550
v -0.368505 3.199349 0.016205
v -0.369904 3.199158 0.000319
v -0.368222 3.199008 -0.015513
v -0.363560 3.198940 -0.030729
v -0.356094 3.198977 -0.044798
v -0.346075 3.199116 -0.057218
v -0.333833 3.199324 -0.067510
v -0.319792 3.199548 -0.075239
v -0.288512 3.199578 -0.081486
v -0.304462 3.199577 -0.079915
v -0.342072 3.152480 -0.269061
v -0.288503 3.152481 -0.274337
v -0.393560 3.152490 -0.253357
v -0.440718 3.152570 -0.227399
v -0.481835 3.152652 -0.192830
v -0.515486 3.152714 -0.151117
v -0.540561 3.152741 -0.103862
v -0.556221 3.152725 -0.052758
v -0.561869 3.152666 0.000417
v -0.557170 3.152580 0.053772
v -0.542115 3.152489 0.105310
v -0.516815 3.152475 0.152805
v -0.482666 3.152475 0.194415
v -0.441056 3.152475 0.228563
v -0.393583 3.152475 0.253938
v -0.342072 3.152475 0.269564
v -0.288503 3.152475 0.274840
v -0.234952 3.152487 0.269500
v -0.183733 3.152578 0.253386
v -0.136758 3.152665 0.227648
v -0.095684 3.152723 0.193405
v -0.061898 3.152741 0.151988
v -0.036545 3.152716 0.104884
v -0.020563 3.152654 0.053730
v -0.014667 3.152572 0.000340
v -0.019281 3.152491 -0.053290
v -0.034816 3.152480 -0.104829
v -0.060190 3.152481 -0.152302
v -0.094339 3.152481 -0.193912
v -0.135949 3.152481 -0.228061
v -0.183422 3.152481 -0.253435
v -0.234933 3.152481 -0.269061
v -0.175067 3.015539 -0.569975
v -0.066007 3.015539 -0.536892
v 0.034504 3.015539 -0.483168
v 0.122602 3.015539 -0.410868
v 0.194903 3.015539 -0.322769
v 0.248627 3.015539 -0.222258
v 0.281518 3.015587 -0.113138
v 0.291287 3.015928 0.000410
v 0.278803 3.016260 0.113449
v 0.244967 3.016499 0.221753
v 0.191288 3.016584 0.321484
v 0.119754 3.016495 0.409173
v 0.032793 3.016253 0.481672
v -0.066665 3.015920 0.536167
v -0.175109 3.015580 0.570284
v -0.288487 3.015539 0.581590
v -0.401906 3.015539 0.570419
v -0.510967 3.015539 0.537336
v -0.611477 3.015539 0.483612
v -0.699576 3.015539 0.411311
v -0.771877 3.015539 0.323212
v -0.825443 3.015587 0.222654
v -0.857318 3.015928 0.113538
v -0.867266 3.016260 0.000571
v -0.855308 3.016499 -0.112011
v -0.822153 3.016584 -0.220211
v -0.769064 3.016495 -0.320261
v -0.697817 3.016253 -0.408577
v -0.610762 3.015920 -0.481766
v -0.510917 3.015580 -0.536727
v -0.288487 3.015539 -0.581146
v -0.401906 3.015539 -0.569975
v -0.961034 2.892252 0.134190
v -0.972796 2.892645 0.000625
v -0.958658 2.892927 -0.132486
v -0.919457 2.893028 -0.260416
v -0.856687 2.892923 -0.378708
v -0.154381 2.891793 -0.673956
v -0.154430 2.891842 0.674220
v -0.669521 2.892243 -0.569663
v 0.093404 2.891793 -0.571320
v -0.422582 2.891793 0.674379
v -0.422582 2.891793 -0.673956
v -0.551528 2.891793 0.635263
v -0.670367 2.891793 0.571743
v -0.774529 2.891793 0.486259
v 0.397009 2.892252 0.000434
v 0.283050 2.891793 -0.381674
v -0.288481 2.891793 -0.687164
v 0.346571 2.891793 -0.262836
v 0.382249 2.892645 0.134085
v 0.385458 2.891850 -0.133819
v 0.342242 2.892927 0.262138
v -0.860013 2.891793 0.382097
v 0.278776 2.893028 0.380053
v -0.923347 2.891850 0.263203
v 0.194198 2.892923 0.483731
v 0.091381 2.892637 0.569450
v -0.026213 2.892243 0.633882
v -0.772449 2.892637 -0.483129
v -0.025434 2.891793 -0.634840
v -0.288481 2.891793 0.687587
v -0.551470 2.891842 -0.634645
v 0.197566 2.891793 -0.485836
v 0.457866 2.432753 -0.309023
v 0.503700 2.432786 -0.157449
v -0.737199 2.432753 0.671742
v -0.859606 2.432753 0.571284
v 0.383220 2.432753 -0.448677
v -0.597545 2.432753 0.746388
v -0.446012 2.432753 -0.792155
v -0.288422 2.432753 -0.807677
v 0.282762 2.432753 -0.571084
v -0.446011 2.432753 0.792355
v -0.597511 2.432781 -0.746074
v 0.160355 2.432753 -0.671542
v -0.288422 2.432753 0.807877
v -0.736707 2.433015 -0.670575
v 0.020701 2.432753 -0.746188
v -0.130861 2.432781 0.792263
v -0.858395 2.433244 -0.569505
v -0.130833 2.432753 -0.792155
v 0.020247 2.433015 0.745584
v -0.958126 2.433411 -0.446946
v 0.159175 2.433244 0.670407
v -1.032335 2.433472 -0.307610
v 0.280798 2.433411 0.569813
v -1.078352 2.433414 -0.156670
v 0.380727 2.433472 0.447687
v -1.094416 2.433249 0.000342
v 0.455342 2.433414 0.308571
v -1.079737 2.433020 0.157619
v 0.501830 2.433249 0.157559
v -1.034602 2.432786 0.309190
v 0.518256 2.433020 0.000231
v -0.960064 2.432753 0.448877
v 0.512865 2.205531 -0.159324
v -0.866120 2.205514 0.577775
v -0.288395 2.205514 -0.816976
v 0.466438 2.205514 -0.312613
v -0.742311 2.205514 0.679382
v 0.390937 2.205514 -0.453866
v -0.601058 2.205514 0.754884
v -0.447789 2.205514 -0.801277
v 0.289329 2.205514 -0.577675
v -0.447789 2.205514 0.801377
v -0.601041 2.205529 -0.754727
v 0.165520 2.205514 -0.679283
v -0.288395 2.205514 0.817076
v -0.742062 2.205647 -0.678794
v 0.024267 2.205514 -0.754784
v -0.129016 2.205529 0.801330
v -0.865508 2.205763 -0.576877
v -0.129001 2.205514 -0.801277
v 0.024038 2.205647 0.754478
v -0.966749 2.205847 -0.452991
v 0.164924 2.205763 0.678708
v -1.042029 2.205878 -0.311899
v 0.288337 2.205847 0.577031
v -1.088548 2.205848 -0.158930
v 0.389678 2.205878 0.453364
v -1.104521 2.205765 0.000172
v 0.465163 2.205848 0.312383
v -1.089248 2.205649 0.159408
v 0.511920 2.205765 0.159378
v -1.043174 2.205531 0.312696
v 0.528076 2.205649 0.000116
v -0.967728 2.205514 0.453965
vn -0.1421 -0.6853 -0.7143
vn -0.0000 -0.6853 -0.7283
vn 0.1421 -0.6853 -0.7143
vn 0.2787 -0.6853 -0.6728
vn 0.4046 -0.6853 -0.6055
vn 0.5150 -0.6853 -0.5150
vn 0.6055 -0.6853 -0.4046
vn 0.6729 -0.6853 -0.2786
vn 0.7145 -0.6852 -0.1415
vn 0.7285 -0.6850 0.0011
vn 0.7145 -0.6848 0.1430
vn 0.6731 -0.6847 0.2794
vn 0.6060 -0.6847 0.4049
vn 0.5157 -0.6848 0.5150
vn 0.4055 -0.6849 0.6054
vn 0.2796 -0.6851 0.6726
vn 0.1426 -0.6853 0.7142
vn 0.0001 -0.6853 0.7282
vn -0.1421 -0.6853 0.7142
vn -0.2787 -0.6853 0.6728
vn -0.4046 -0.6853 0.6055
vn -0.5149 -0.6853 0.5149
vn -0.6055 -0.6853 0.4045
vn -0.6730 -0.6853 0.2782
vn -0.7146 -0.6851 0.1412
vn -0.7286 -0.6849 -0.0008
vn -0.7147 -0.6848 -0.1426
vn -0.6734 -0.6847 -0.2789
vn -0.6063 -0.6847 -0.4045
vn -0.5159 -0.6848 -0.5146
vn -0.4056 -0.6850 -0.6051
vn -0.2793 -0.6852 -0.6726
vn 0.2329 0.9448 0.2306
vn 0.2725 0.9448 0.1819
vn 0.1041 0.9921 0.0697
vn 0.0894 0.9921 0.0880
vn 0.9759 0.1068 -0.1904
vn 0.9189 0.1060 -0.3801
vn 0.8941 0.2528 -0.3696
vn 0.9499 0.2532 -0.1835
vn -0.7032 0.1053 0.7032
vn -0.5525 0.1053 0.8269
vn -0.5376 0.2523 0.8046
vn -0.6842 0.2523 0.6842
vn 0.8268 0.1059 -0.5524
vn 0.8045 0.2528 -0.5375
vn -0.3806 0.1053 0.9187
vn -0.3703 0.2523 0.8940
vn -0.0000 0.1059 -0.9944
vn -0.1944 0.1060 -0.9752
vn -0.1893 0.2528 -0.9488
vn -0.0000 0.2528 -0.9675
vn 0.7031 0.1060 -0.7031
vn 0.6841 0.2528 -0.6841
vn -0.1940 0.1053 0.9753
vn -0.1888 0.2523 0.9491
vn -0.3838 0.1067 -0.9172
vn -0.3751 0.2531 -0.8918
vn 0.5524 0.1060 -0.8268
vn 0.5375 0.2528 -0.8045
vn 0.0003 0.1054 0.9944
vn 0.0004 0.2523 0.9676
vn -0.5575 0.1087 -0.8230
vn -0.5449 0.2543 -0.7990
vn 0.3805 0.1060 -0.9187
vn 0.3703 0.2528 -0.8939
vn 0.1969 0.1061 0.9747
vn 0.1929 0.2527 0.9481
vn -0.7065 0.1109 -0.6990
vn -0.6890 0.2555 -0.6782
vn 0.1940 0.1060 -0.9753
vn 0.1887 0.2528 -0.9489
vn 0.3854 0.1079 0.9164
vn 0.3772 0.2538 0.8907
vn -0.8278 0.1123 -0.5496
vn -0.8061 0.2564 -0.5334
vn 0.5561 0.1101 0.8238
vn 0.5427 0.2551 0.8002
vn -0.9180 0.1127 -0.3802
vn -0.8930 0.2566 -0.3697
vn 0.7046 0.1118 0.7007
vn 0.6863 0.2561 0.6808
vn -0.9741 0.1118 -0.1965
vn -0.9473 0.2561 -0.1923
vn 0.8262 0.1127 0.5520
vn 0.8036 0.2566 0.5370
vn -0.9939 0.1101 -0.0047
vn -0.9669 0.2551 -0.0066
vn 0.9169 0.1123 0.3829
vn 0.8914 0.2564 0.3738
vn -0.9761 0.1079 0.1887
vn -0.9501 0.2538 0.1812
vn 0.9737 0.1109 0.1990
vn 0.9467 0.2556 0.1961
vn -0.9198 0.1061 0.3777
vn -0.8955 0.2527 0.3663
vn 0.9940 0.1087 0.0063
vn 0.9671 0.2543 0.0091
vn -0.8270 0.1054 0.5522
vn -0.8048 0.2524 0.5372
vn -0.1258 0.9444 0.3037
vn -0.0641 0.9444 0.3224
vn -0.0249 0.9919 0.1246
vn -0.0486 0.9919 0.1174
vn -0.1184 0.7948 0.5952
vn 0.0002 0.7948 0.6069
vn 0.0002 0.9444 0.3288
vn -0.1826 0.9444 0.2734
vn -0.0706 0.9919 0.1056
vn 0.2322 0.7949 -0.5606
vn 0.1184 0.7949 -0.5951
vn 0.0641 0.9444 -0.3224
vn 0.1258 0.9444 -0.3037
vn 0.0656 0.9444 0.3222
vn 0.0257 0.9919 0.1244
vn -0.0000 0.9919 0.1270
vn -0.3418 0.7945 -0.5020
vn -0.4327 0.7943 -0.4265
vn -0.2341 0.9447 -0.2299
vn -0.1855 0.9445 -0.2710
vn -0.0644 0.9444 -0.3224
vn -0.1278 0.9444 -0.3029
vn -0.0501 0.9919 -0.1165
vn -0.0250 0.9919 -0.1242
vn 0.1208 0.7945 0.5952
vn 0.2362 0.7945 0.5594
vn 0.1283 0.9445 0.3023
vn 0.0246 0.9920 -0.1242
vn 0.0484 0.9920 -0.1170
vn 0.3406 0.7944 0.5030
vn 0.1844 0.9447 0.2713
vn 0.3212 0.9447 0.0669
vn 0.3284 0.9445 0.0037
vn 0.1261 0.9920 0.0028
vn 0.1228 0.9921 0.0267
vn 0.4312 0.7942 0.4281
vn -0.0724 0.9920 -0.1034
vn 0.5053 0.7941 0.3376
vn -0.3226 0.9445 0.0613
vn -0.3043 0.9444 0.1244
vn -0.1177 0.9919 0.0477
vn -0.1244 0.9920 0.0228
vn 0.2733 0.9444 -0.1826
vn 0.2325 0.9444 -0.2325
vn 0.0896 0.9920 -0.0895
vn 0.1053 0.9920 -0.0702
vn 0.5605 0.7942 0.2348
vn 0.3022 0.9448 0.1269
vn 0.3229 0.9444 -0.0620
vn 0.3038 0.9444 -0.1255
vn 0.1172 0.9919 -0.0481
vn 0.1246 0.9919 -0.0230
vn -0.0000 0.9444 -0.3287
vn -0.0001 0.9920 -0.1266
vn 0.5950 0.7943 0.1228
vn 0.5963 0.7944 -0.1154
vn 0.5608 0.7948 -0.2319
vn 0.1826 0.9444 -0.2733
vn 0.0704 0.9920 -0.1052
vn 0.6073 0.7945 0.0053
vn 0.3371 0.7949 -0.5045
vn -0.3371 0.7948 0.5045
vn -0.2322 0.7948 0.5606
vn 0.5045 0.7949 -0.3371
vn 0.4290 0.7949 -0.4290
vn 0.1153 0.9921 0.0491
vn -0.1187 0.7948 -0.5951
vn -0.2353 0.7944 -0.5599
vn -0.6194 0.4954 -0.6090
vn -0.7247 0.4951 -0.4792
vn -0.5066 0.7942 -0.3356
vn -0.0000 0.7949 -0.6067
vn -0.2735 0.9444 0.1825
vn -0.2325 0.9444 0.2325
vn -0.0898 0.9919 0.0899
vn -0.1056 0.9919 0.0706
vn -0.2734 0.9448 -0.1808
vn -0.5615 0.7941 -0.2325
vn -0.3027 0.9448 -0.1255
vn -0.5955 0.7942 -0.1207
vn -0.3211 0.9448 -0.0655
vn -0.3280 0.9447 -0.0026
vn -0.1259 0.9920 -0.0017
vn -0.0905 0.9921 -0.0873
vn -0.1050 0.9921 -0.0686
vn -0.1158 0.9921 -0.0479
vn -0.1229 0.9921 -0.0254
vn 0.0501 0.9920 0.1161
vn 0.0714 0.9920 0.1037
vn -0.6074 0.7944 -0.0037
vn -0.5963 0.7945 0.1143
vn -0.5620 0.7945 0.2302
vn -0.4291 0.7948 0.4291
vn -0.5048 0.7948 0.3369
vn -0.8039 0.4959 0.3285
vn -0.7222 0.4962 0.4819
vn 0.8023 0.4962 -0.3316
vn 0.7218 0.4963 -0.4823
vn 0.1734 0.4959 0.8509
vn 0.3391 0.4958 0.7995
vn -0.6139 0.4962 0.6139
vn -0.4823 0.4962 0.7219
vn 0.3322 0.4963 -0.8021
vn 0.1694 0.4963 -0.8515
vn 0.8505 0.4954 0.1766
vn 0.8684 0.4957 0.0088
vn 0.8527 0.4959 -0.1643
vn -0.4898 0.4957 -0.7172
vn 0.8011 0.4951 0.3362
vn 0.0004 0.4962 0.8682
vn -0.8686 0.4955 -0.0064
vn -0.8531 0.4958 0.1623
vn 0.4823 0.4963 -0.7218
vn 0.7224 0.4951 0.4827
vn -0.3370 0.4959 -0.8003
vn -0.8513 0.4952 -0.1731
vn -0.1694 0.4962 0.8515
vn 0.6170 0.4952 0.6116
vn 0.6139 0.4963 -0.6139
vn -0.8027 0.4951 -0.3324
vn -0.1699 0.4962 -0.8514
vn 0.4879 0.4955 0.7186
vn -0.3322 0.4962 0.8021
vn -0.0000 0.4963 -0.8682
vn -0.8314 0.0207 0.5553
vn -0.7070 0.0207 0.7070
vn 0.9997 0.0224 0.0029
vn 0.9809 0.0214 -0.1934
vn -0.9242 0.0211 0.3813
vn 0.9800 0.0236 0.1974
vn -0.9810 0.0221 0.1926
vn 0.9231 0.0243 0.3838
vn -0.9997 0.0232 -0.0022
vn 0.8312 0.0245 0.5554
vn -0.9802 0.0241 -0.1963
vn 0.7078 0.0241 0.7060
vn -0.9236 0.0245 -0.3826
vn 0.5573 0.0232 0.8300
vn -0.8320 0.0243 -0.5543
vn 0.3849 0.0220 0.9227
vn 0.1950 0.0210 -0.9806
vn -0.0000 0.0210 -0.9998
vn -0.7086 0.0235 -0.7052
vn 0.1964 0.0211 0.9803
vn 0.3826 0.0210 -0.9237
vn -0.5579 0.0224 -0.8296
vn 0.0002 0.0207 0.9998
vn 0.5554 0.0210 -0.8313
vn -0.3842 0.0214 -0.9230
vn -0.1950 0.0207 0.9806
vn 0.7069 0.0210 -0.7070
vn -0.1952 0.0210 -0.9805
vn -0.3826 0.0207 0.9237
vn 0.8313 0.0210 -0.5555
vn -0.5555 0.0207 0.8313
vn 0.9238 0.0210 -0.3824
vt 0.404465 0.182314
vt 0.404465 0.222151
vt 0.396693 0.261221
vt 0.381448 0.298025
vt 0.359316 0.331148
vt 0.331148 0.359316
vt 0.298025 0.381448
vt 0.261221 0.396693
vt 0.222150 0.404465
vt 0.182314 0.404465
vt 0.143243 0.396693
vt 0.106439 0.381448
vt 0.073317 0.359316
vt 0.045148 0.331148
vt 0.023016 0.298025
vt 0.007772 0.261221
vt 0.000000 0.222150
vt 0.000000 0.182314
vt 0.007772 0.143243
vt 0.023016 0.106439
vt 0.045148 0.073317
vt 0.073317 0.045148
vt 0.106439 0.023016
vt 0.143243 0.007772
vt 0.182314 0.000000
vt 0.222151 0.000000
vt 0.261221 0.007772
vt 0.298025 0.023016
vt 0.331148 0.045148
vt 0.359316 0.073317
vt 0.381448 0.106439
vt 0.396693 0.143243
vt 0.924263 0.142754
vt 0.923233 0.155994
vt 0.876351 0.147848
vt 0.876658 0.143906
vt 0.284037 0.550011
vt 0.256240 0.554002
vt 0.249813 0.495089
vt 0.276183 0.491277
vt 0.541785 0.551432
vt 0.503205 0.550329
vt 0.506146 0.491159
vt 0.542778 0.492206
vt 0.223526 0.557129
vt 0.218750 0.498059
vt 0.466873 0.548171
vt 0.471648 0.489110
vt 0.034305 0.557129
vt 0.001591 0.554002
vt 0.008018 0.495089
vt 0.039081 0.498059
vt 0.187177 0.559283
vt 0.184236 0.500104
vt 0.434184 0.545043
vt 0.440609 0.486139
vt 0.946637 0.545057
vt 0.913980 0.548248
vt 0.909130 0.489163
vt 0.940155 0.486153
vt 0.148588 0.560381
vt 0.147595 0.501146
vt 0.406394 0.541063
vt 0.414222 0.482360
vt 0.877588 0.550370
vt 0.874487 0.491013
vt 0.109243 0.560381
vt 0.110236 0.501146
vt 0.711199 0.149743
vt 0.678539 0.152927
vt 0.673756 0.093845
vt 0.704776 0.090841
vt 0.839020 0.551417
vt 0.837861 0.491840
vt 0.070655 0.559283
vt 0.073596 0.500104
vt 0.642201 0.155045
vt 0.639222 0.095695
vt 0.799761 0.551371
vt 0.800666 0.491677
vt 0.603689 0.156090
vt 0.602708 0.096524
vt 0.761276 0.550251
vt 0.764250 0.490573
vt 0.564474 0.156043
vt 0.565595 0.096361
vt 0.724983 0.548104
vt 0.729891 0.488585
vt 0.526009 0.154923
vt 0.529213 0.095256
vt 0.692222 0.545004
vt 0.698809 0.485765
vt 0.489708 0.152777
vt 0.494832 0.093265
vt 0.688505 0.544918
vt 0.655960 0.548109
vt 0.651060 0.488872
vt 0.681777 0.485695
vt 0.456914 0.149677
vt 0.463678 0.090444
vt 0.619716 0.550336
vt 0.616765 0.491143
vt 0.428882 0.145726
vt 0.436934 0.086852
vt 0.581130 0.551438
vt 0.580137 0.492212
vt 0.406731 0.141053
vt 0.415709 0.082569
vt 0.881097 0.080775
vt 0.893037 0.086802
vt 0.867360 0.127247
vt 0.863805 0.125452
vt 0.933887 0.022458
vt 0.956190 0.039905
vt 0.903572 0.095042
vt 0.868211 0.077193
vt 0.859969 0.124386
vt 0.804332 0.279120
vt 0.779053 0.266360
vt 0.819907 0.202000
vt 0.831847 0.208027
vt 0.912282 0.105187
vt 0.873090 0.132721
vt 0.870497 0.129700
vt 0.715864 0.175770
vt 0.712770 0.147682
vt 0.788600 0.145947
vt 0.790062 0.159213
vt 0.800648 0.183623
vt 0.794086 0.171969
vt 0.837899 0.152604
vt 0.839852 0.156074
vt 0.974632 0.061384
vt 0.988273 0.086118
vt 0.918725 0.116869
vt 0.845587 0.161546
vt 0.849141 0.163340
vt 0.996804 0.112974
vt 0.922754 0.129554
vt 0.913809 0.180747
vt 0.905711 0.191355
vt 0.871134 0.158376
vt 0.873545 0.155218
vt 1.000000 0.140922
vt 0.836701 0.148806
vt 0.997818 0.168955
vt 0.817358 0.088696
vt 0.828904 0.082015
vt 0.848265 0.125821
vt 0.844828 0.127811
vt 0.871345 0.210985
vt 0.858070 0.212608
vt 0.856949 0.164704
vt 0.860902 0.164221
vt 0.990360 0.196089
vt 0.919710 0.168810
vt 0.895682 0.200204
vt 0.884050 0.206804
vt 0.864684 0.162976
vt 0.868148 0.161011
vt 0.809372 0.193760
vt 0.842450 0.159092
vt 0.977865 0.221362
vt 0.939487 0.262558
vt 0.914858 0.276531
vt 0.844733 0.211609
vt 0.852978 0.164406
vt 0.960720 0.243822
vt 0.831615 0.286703
vt 0.881325 0.002115
vt 0.908608 0.009698
vt 0.887960 0.285384
vt 0.859852 0.288818
vt 0.875302 0.151664
vt 0.738277 0.227451
vt 0.724385 0.202776
vt 0.835877 0.434105
vt 0.802543 0.434010
vt 0.805042 0.399839
vt 0.833235 0.399919
vt 0.756749 0.248914
vt 0.841599 0.077817
vt 0.854874 0.076195
vt 0.855998 0.124088
vt 0.852045 0.124571
vt 0.715111 0.119586
vt 0.789706 0.132677
vt 0.722729 0.092495
vt 0.793305 0.119881
vt 0.735329 0.067358
vt 0.799255 0.108009
vt 0.807361 0.097482
vt 0.841851 0.130426
vt 0.836265 0.144856
vt 0.836595 0.140905
vt 0.837666 0.137096
vt 0.839438 0.133561
vt 0.875008 0.136199
vt 0.876208 0.139975
vt 0.752490 0.045070
vt 0.773656 0.026469
vt 0.798102 0.012323
vt 0.853087 0.000000
vt 0.824979 0.003435
vt 0.611045 0.433355
vt 0.578219 0.434303
vt 0.575666 0.400127
vt 0.603429 0.399325
vt 0.237262 0.437808
vt 0.209424 0.440469
vt 0.197008 0.406715
vt 0.220553 0.404465
vt 0.664384 0.036247
vt 0.633435 0.037975
vt 0.625731 0.003918
vt 0.651907 0.002457
vt 0.544739 0.434298
vt 0.511910 0.433359
vt 0.519583 0.399328
vt 0.547349 0.400122
vt 0.112176 0.443236
vt 0.079339 0.442302
vt 0.086984 0.408265
vt 0.114757 0.409056
vt 1.000000 0.235396
vt 0.979728 0.261952
vt 0.954624 0.284104
vt 0.925504 0.300625
vt 0.868700 0.433293
vt 0.860996 0.399232
vt 0.504035 0.035922
vt 0.476115 0.033343
vt 0.492673 0.000000
vt 0.516287 0.002182
vt 0.692184 0.033547
vt 0.675420 0.000173
vt 0.669307 0.428612
vt 0.641779 0.431390
vt 0.629424 0.397662
vt 0.652707 0.395313
vt 0.145656 0.443236
vt 0.143074 0.409056
vt 0.534847 0.037724
vt 0.542347 0.003706
vt 0.899747 0.431565
vt 0.887255 0.397770
vt 0.739115 0.431238
vt 0.711260 0.428659
vt 0.727836 0.395313
vt 0.751396 0.397494
vt 0.948002 0.000224
vt 0.974373 0.020852
vt 0.567452 0.038694
vt 0.569923 0.004526
vt 0.178493 0.442302
vt 0.170847 0.408265
vt 0.769907 0.433040
vt 0.777439 0.399018
vt 0.927551 0.428859
vt 0.910771 0.395482
vt 0.600711 0.038787
vt 0.598054 0.004605
vt 0.480992 0.431523
vt 0.453176 0.428861
vt 0.469907 0.395524
vt 0.493434 0.397776
vt 0.048407 0.440469
vt 0.020569 0.437808
vt 0.037278 0.404465
vt 0.060823 0.406715
vt 0.429528 0.425474
vt 0.433125 0.026144
vt 0.452147 0.030053
vt 0.260895 0.434401
vt 0.581358 0.607644
vt 0.541563 0.607638
vt 0.426982 0.201841
vt 0.404678 0.197076
vt 0.620392 0.606535
vt 0.455269 0.205880
vt 0.657113 0.604324
vt 0.488429 0.209049
vt 0.690129 0.601133
vt 0.525192 0.211235
vt 0.723818 0.604380
vt 0.690669 0.601209
vt 0.564171 0.212358
vt 0.760581 0.606567
vt 0.603901 0.212373
vt 0.799571 0.607689
vt 0.642881 0.211272
vt 0.069987 0.615480
vt 0.033222 0.613301
vt 0.839323 0.607703
vt 0.679619 0.209085
vt 0.109018 0.616590
vt 0.878330 0.606598
vt 0.712649 0.205860
vt 0.148813 0.616590
vt 0.915092 0.604406
vt 0.432729 0.601175
vt 0.404622 0.597150
vt 0.187844 0.615480
vt 0.948115 0.601174
vt 0.465793 0.604340
vt 0.224610 0.613301
vt 0.000133 0.610138
vt 0.502541 0.606522
vt 0.257698 0.610138
vt 0.285825 0.606107
vt 0.286000 0.788999
vt 0.257831 0.793029
vt 0.541547 0.790536
vt 0.502486 0.789419
vt 0.224709 0.796195
vt 0.465699 0.787235
vt 0.033123 0.796195
vt 0.000000 0.793029
vt 0.187905 0.798376
vt 0.432601 0.784067
vt 0.948262 0.783991
vt 0.915213 0.787233
vt 0.148834 0.799488
vt 0.404465 0.780037
vt 0.878461 0.789472
vt 0.108997 0.799488
vt 0.712770 0.388683
vt 0.679710 0.391917
vt 0.839416 0.790624
vt 0.069927 0.798376
vt 0.642950 0.394150
vt 0.799580 0.790643
vt 0.603901 0.395297
vt 0.760483 0.789530
vt 0.564065 0.395313
vt 0.723629 0.787326
vt 0.524972 0.394199
vt 0.690432 0.784117
vt 0.488125 0.391996
vt 0.690432 0.784108
vt 0.657285 0.787266
vt 0.454940 0.388790
vt 0.620463 0.789438
vt 0.426691 0.384704
vt 0.581384 0.790542
vt 0.404465 0.379895
s 1
f 2/1/1 1/2/2 32/3/3 31/4/4 30/5/5 29/6/6 28/7/7 27/8/8 26/9/9 25/10/10 24/11/11 23/12/12 22/13/13 21/14/14 20/15/15 19/16/16 18/17/17 17/18/18 16/19/19 15/20/20 14/21/21 13/22/22 12/23/23 11/24/24 10/25/25 9/26/26 8/27/27 7/28/28 6/29/29 5/30/30 4/31/31 3/32/32
f 117/33/33 118/34/34 75/35/35 76/36/36
f 194/37/37 193/38/38 59/39/39 58/40/40
f 196/41/41 195/42/42 46/43/43 45/44/44
f 193/38/38 197/45/45 60/46/46 59/39/39
f 195/42/42 198/47/47 47/48/48 46/43/43
f 200/49/49 199/50/50 33/51/51 34/52/52
f 197/45/45 201/53/53 61/54/54 60/46/46
f 198/47/47 202/55/55 48/56/56 47/48/48
f 199/57/50 203/58/57 35/59/58 33/60/51
f 201/53/53 204/61/59 62/62/60 61/54/54
f 202/55/55 205/63/61 49/64/62 48/56/56
f 203/58/57 206/65/63 36/66/64 35/59/58
f 204/61/59 207/67/65 63/68/66 62/62/60
f 205/69/61 208/70/67 50/71/68 49/72/62
f 206/65/63 209/73/69 37/74/70 36/66/64
f 207/67/65 210/75/71 64/76/72 63/68/66
f 208/70/67 211/77/73 51/78/74 50/71/68
f 209/73/69 212/79/75 38/80/76 37/74/70
f 210/75/71 200/49/49 34/52/52 64/76/72
f 211/77/73 213/81/77 52/82/78 51/78/74
f 212/79/75 214/83/79 39/84/80 38/80/76
f 213/81/77 215/85/81 53/86/82 52/82/78
f 214/83/79 216/87/83 40/88/84 39/84/80
f 215/85/81 217/89/85 54/90/86 53/86/82
f 216/87/83 218/91/87 41/92/88 40/88/84
f 217/89/85 219/93/89 55/94/90 54/90/86
f 218/95/87 220/96/91 42/97/92 41/98/88
f 219/93/89 221/99/93 56/100/94 55/94/90
f 220/96/91 222/101/95 43/102/96 42/97/92
f 221/99/93 223/103/97 57/104/98 56/100/94
f 222/101/95 224/105/99 44/106/100 43/102/96
f 223/103/97 194/107/37 58/108/40 57/104/98
f 224/105/99 196/41/41 45/44/44 44/106/100
f 111/109/101 112/110/102 81/111/103 82/112/104
f 145/113/105 144/114/106 113/115/107 112/110/102
f 110/116/108 111/109/101 82/112/104 83/117/109
f 130/118/110 129/119/111 128/120/112 127/121/113
f 113/115/107 114/122/114 79/123/115 80/124/116
f 157/125/117 156/126/118 101/127/119 100/128/120
f 97/129/121 99/130/122 94/131/123 96/132/124
f 143/133/125 142/134/126 115/135/127 114/122/114
f 127/121/113 128/120/112 65/136/128 66/137/129
f 142/134/126 141/138/130 116/139/131 115/135/127
f 120/140/132 121/141/133 72/142/134 73/143/135
f 141/138/130 140/144/136 117/33/33 116/139/131
f 99/130/122 100/128/120 93/145/137 94/131/123
f 140/144/136 139/146/138 118/34/34 117/33/33
f 106/147/139 107/148/140 86/149/141 87/150/142
f 124/151/143 125/152/144 68/153/145 69/154/146
f 139/146/138 138/155/147 119/156/148 118/34/34
f 122/157/149 123/158/150 70/159/151 71/160/152
f 128/120/112 98/161/153 95/162/154 65/136/128
f 138/155/147 137/163/155 120/140/132 119/156/148
f 135/164/156 134/165/157 123/158/150 122/157/149
f 125/152/144 126/166/158 67/167/159 68/153/145
f 137/163/155 136/168/160 121/141/133 120/140/132
f 131/169/161 130/118/110 127/121/113 126/166/158
f 123/158/150 124/151/143 69/154/146 70/159/151
f 136/168/160 135/164/156 122/157/149 121/141/133
f 147/170/162 146/171/163 111/109/101 110/116/108
f 121/141/133 122/157/149 71/160/152 72/142/134
f 98/161/153 97/129/121 96/132/124 95/162/154
f 133/172/164 132/173/165 125/152/144 124/151/143
f 119/156/148 120/140/132 73/143/135 74/174/166
f 160/175/167 158/176/168 99/130/122 97/129/121
f 188/177/169 165/178/170 155/179/171 156/180/118
f 129/119/111 159/181/172 98/161/153 128/120/112
f 108/182/173 109/183/174 84/184/175 85/185/176
f 156/126/118 155/186/171 102/187/177 101/127/119
f 109/183/174 110/116/108 83/117/109 84/184/175
f 155/186/171 154/188/178 103/189/179 102/187/177
f 107/148/140 108/182/173 85/185/176 86/149/141
f 154/188/178 153/190/180 104/191/181 103/189/179
f 105/192/182 106/147/139 87/150/142 88/193/183
f 76/36/36 75/35/35 74/174/166 73/143/135 72/142/134 71/160/152 70/159/151 69/154/146 68/153/145 67/167/159 66/137/129 65/136/128 95/162/154 96/132/124 94/131/123 93/145/137 92/194/184 91/195/185 90/196/186 89/197/187 88/193/183 87/150/142 86/149/141 85/185/176 84/184/175 83/117/109 82/112/104 81/111/103 80/124/116 79/123/115 78/198/188 77/199/189
f 153/190/180 152/200/190 105/192/182 104/191/181
f 118/34/34 119/156/148 74/174/166 75/35/35
f 101/127/119 102/187/177 91/195/185 92/194/184
f 152/200/190 151/201/191 106/147/139 105/192/182
f 103/189/179 104/191/181 89/197/187 90/196/186
f 104/191/181 105/192/182 88/193/183 89/197/187
f 151/201/191 150/202/192 107/148/140 106/147/139
f 148/203/193 147/170/162 110/116/108 109/183/174
f 126/166/158 127/121/113 66/137/129 67/167/159
f 150/202/192 149/204/194 108/182/173 107/148/140
f 134/165/157 133/172/164 124/151/143 123/158/150
f 114/122/114 115/135/127 78/198/188 79/123/115
f 116/139/131 117/33/33 76/36/36 77/199/189
f 159/181/172 160/175/167 97/129/121 98/161/153
f 102/187/177 103/189/179 90/196/186 91/195/185
f 146/171/163 145/113/105 112/110/102 111/109/101
f 112/110/102 113/115/107 80/124/116 81/111/103
f 132/173/165 131/169/161 126/166/158 125/152/144
f 115/135/127 116/139/131 77/199/189 78/198/188
f 158/176/168 157/125/117 100/128/120 99/130/122
f 100/128/120 101/127/119 92/194/184 93/145/137
f 144/114/106 143/133/125 114/122/114 113/115/107
f 184/205/195 182/206/196 149/207/194 150/208/192
f 178/209/197 176/210/198 133/211/164 134/212/157
f 167/213/199 187/214/200 142/215/126 143/216/125
f 149/204/194 148/203/193 109/183/174 108/182/173
f 174/217/201 173/218/202 147/219/162 148/220/193
f 189/221/203 166/222/204 129/223/111 130/224/110
f 179/225/205 175/226/206 136/168/160 137/163/155
f 180/227/207 178/228/197 134/165/157 135/164/156
f 168/229/208 188/177/169 156/180/118 157/230/117
f 181/231/209 179/232/205 137/233/155 138/234/147
f 182/206/196 174/217/201 148/220/193 149/207/194
f 190/235/210 167/213/199 143/216/125 144/236/106
f 162/237/211 161/238/212 151/239/191 152/240/190
f 175/226/206 180/227/207 135/164/156 136/168/160
f 169/241/213 189/221/203 130/224/110 131/242/161
f 183/243/214 181/231/209 138/234/147 139/244/138
f 161/238/212 184/205/195 150/208/192 151/239/191
f 191/245/215 168/229/208 157/230/117 158/246/168
f 163/247/216 162/248/211 152/249/190 153/250/180
f 170/251/217 190/252/210 144/114/106 145/113/105
f 185/253/218 183/243/214 139/244/138 140/254/136
f 192/255/219 169/241/213 131/242/161 132/256/165
f 164/257/220 163/247/216 153/250/180 154/258/178
f 171/259/221 191/245/215 158/246/168 160/260/167
f 186/261/222 185/253/218 140/254/136 141/262/130
f 172/263/223 170/264/217 145/265/105 146/266/163
f 165/178/170 164/257/220 154/258/178 155/179/171
f 176/210/198 192/255/219 132/256/165 133/211/164
f 187/214/200 186/261/222 141/262/130 142/215/126
f 177/267/224 171/268/221 160/269/167 159/270/172
f 166/222/204 177/267/224 159/270/172 129/223/111
f 173/218/202 172/263/223 146/266/163 147/219/162
f 46/43/43 47/48/48 172/263/223 173/218/202
f 64/76/72 34/52/52 177/267/224 166/222/204
f 34/52/52 33/51/51 171/268/221 177/267/224
f 51/78/74 52/82/78 186/261/222 187/214/200
f 60/46/46 61/54/54 192/255/219 176/210/198
f 38/80/76 39/84/80 164/257/220 165/178/170
f 47/48/48 48/56/56 170/264/217 172/263/223
f 52/82/78 53/86/82 185/253/218 186/261/222
f 33/60/51 35/59/58 191/245/215 171/259/221
f 39/84/80 40/88/84 163/247/216 164/257/220
f 61/54/54 62/62/60 169/241/213 192/255/219
f 53/86/82 54/90/86 183/243/214 185/253/218
f 48/56/56 49/64/62 190/271/210 170/264/217
f 40/88/84 41/92/88 162/248/211 163/247/216
f 35/59/58 36/66/64 168/229/208 191/245/215
f 42/97/92 43/102/96 184/205/195 161/238/212
f 54/90/86 55/94/90 181/231/209 183/243/214
f 62/62/60 63/68/66 189/221/203 169/241/213
f 57/104/98 58/108/40 180/272/207 175/273/206
f 41/98/88 42/97/92 161/238/212 162/237/211
f 49/72/62 50/71/68 167/213/199 190/235/210
f 44/106/100 45/44/44 174/217/201 182/206/196
f 55/94/90 56/100/94 179/232/205 181/231/209
f 36/66/64 37/74/70 188/177/169 168/229/208
f 58/40/40 59/39/39 178/209/197 180/274/207
f 56/100/94 57/104/98 175/273/206 179/232/205
f 63/68/66 64/76/72 166/222/204 189/221/203
f 45/44/44 46/43/43 173/218/202 174/217/201
f 50/71/68 51/78/74 187/214/200 167/213/199
f 59/39/39 60/46/46 176/210/198 178/209/197
f 43/102/96 44/106/100 182/206/196 184/205/195
f 37/74/70 38/80/76 165/178/170 188/177/169
f 256/275/225 226/276/226 196/41/41 224/105/99
f 255/277/227 225/278/228 194/107/37 223/103/97
f 254/279/229 256/275/225 224/105/99 222/101/95
f 253/280/230 255/277/227 223/103/97 221/99/93
f 252/281/231 254/279/229 222/101/95 220/96/91
f 251/282/232 253/280/230 221/99/93 219/93/89
f 250/283/233 252/281/231 220/96/91 218/95/87
f 249/284/234 251/282/232 219/93/89 217/89/85
f 248/285/235 250/286/233 218/91/87 216/87/83
f 247/287/236 249/284/234 217/89/85 215/85/81
f 246/288/237 248/285/235 216/87/83 214/83/79
f 245/289/238 247/287/236 215/85/81 213/81/77
f 244/290/239 246/288/237 214/83/79 212/79/75
f 243/291/240 245/289/238 213/81/77 211/77/73
f 242/292/241 227/293/242 200/49/49 210/75/71
f 241/294/243 244/290/239 212/79/75 209/73/69
f 240/295/244 243/291/240 211/77/73 208/70/67
f 239/296/245 242/292/241 210/75/71 207/67/65
f 238/297/246 241/294/243 209/73/69 206/65/63
f 237/298/247 240/295/244 208/70/67 205/69/61
f 236/299/248 239/296/245 207/67/65 204/61/59
f 235/300/249 238/297/246 206/65/63 203/58/57
f 234/301/250 237/302/247 205/63/61 202/55/55
f 233/303/251 236/299/248 204/61/59 201/53/53
f 232/304/252 235/300/249 203/58/57 199/57/50
f 231/305/253 234/301/250 202/55/55 198/47/47
f 230/306/254 233/303/251 201/53/53 197/45/45
f 227/293/242 232/307/252 199/50/50 200/49/49
f 229/308/255 231/305/253 198/47/47 195/42/42
f 228/309/256 230/306/254 197/45/45 193/38/38
f 226/276/226 229/308/255 195/42/42 196/41/41
f 225/310/228 228/309/256 193/38/38 194/37/37
f 26/311/9 27/312/8 228/309/256 225/310/228
f 13/313/22 14/314/21 229/308/255 226/276/226
f 27/312/8 28/315/7 230/306/254 228/309/256
f 14/314/21 15/316/20 231/305/253 229/308/255
f 1/317/2 2/318/1 232/307/252 227/293/242
f 28/315/7 29/319/6 233/303/251 230/306/254
f 15/316/20 16/320/19 234/301/250 231/305/253
f 2/321/1 3/322/32 235/300/249 232/304/252
f 29/319/6 30/323/5 236/299/248 233/303/251
f 16/320/19 17/324/18 237/302/247 234/301/250
f 3/322/32 4/325/31 238/297/246 235/300/249
f 30/323/5 31/326/4 239/296/245 236/299/248
f 17/327/18 18/328/17 240/295/244 237/298/247
f 4/325/31 5/329/30 241/294/243 238/297/246
f 31/326/4 32/330/3 242/292/241 239/296/245
f 18/328/17 19/331/16 243/291/240 240/295/244
f 5/329/30 6/332/29 244/290/239 241/294/243
f 32/330/3 1/317/2 227/293/242 242/292/241
f 19/331/16 20/333/15 245/289/238 243/291/240
f 6/332/29 7/334/28 246/288/237 244/290/239
f 20/333/15 21/335/14 247/287/236 245/289/238
f 7/334/28 8/336/27 248/285/235 246/288/237
f 21/335/14 22/337/13 249/284/234 247/287/236
f 8/336/27 9/338/26 250/286/233 248/285/235
f 22/337/13 23/339/12 251/282/232 249/284/234
f 9/340/26 10/341/25 252/281/231 250/283/233
f 23/339/12 24/342/11 253/280/230 251/282/232
f 10/341/25 11/343/24 254/279/229 252/281/231
f 24/342/11 25/344/10 255/277/227 253/280/230
f 11/343/24 12/345/23 256/275/225 254/279/229
f 25/344/10 26/346/9 225/278/228 255/277/227
f 12/345/23 13/313/22 226/276/226 256/275/225
