# Blender 4.0.1
# www.blender.org
o Bomber_Tailwing_Trim_Top
v -3.929529 1.157699 0.186344
v -3.754108 1.157672 0.186344
v -3.549183 1.157892 0.186344
v -3.922188 2.582295 0.186343
v -4.003904 2.582273 0.186343
v -4.092881 2.582169 0.186343
v -3.580285 1.454073 0.180190
v -3.760337 1.457020 0.181844
v -3.923756 1.457497 0.182112
v -3.620547 1.725049 0.177952
v -3.771349 1.730147 0.180814
v -3.923756 1.732459 0.182112
v -3.659800 2.004711 0.180588
v -3.782249 2.007049 0.181904
v -3.924396 2.007420 0.182112
v -3.759905 2.282382 0.182112
v -3.869985 2.282381 0.182112
v -3.978327 2.282381 0.182112
v -3.929521 1.157716 -0.144627
v -3.754113 1.157689 -0.144627
v -3.549202 1.157909 -0.144627
v -3.922157 2.582278 -0.144627
v -4.003868 2.582256 -0.144627
v -4.092836 2.582152 -0.144627
v -3.580285 1.454073 -0.142350
v -3.760337 1.457020 -0.140696
v -3.923756 1.457497 -0.140428
v -3.620547 1.725049 -0.144588
v -3.771349 1.730147 -0.141726
v -3.923756 1.732459 -0.140428
v -3.659775 2.004718 -0.141952
v -3.782249 2.007049 -0.140636
v -3.924396 2.007420 -0.140428
v -3.759896 2.282381 -0.140428
v -3.869975 2.282381 -0.140428
v -3.978317 2.282381 -0.140428
v -3.299760 1.404361 0.104849
v -3.299705 1.404346 -0.068760
v -3.271564 1.102951 -0.065915
v -3.271546 1.102943 0.107694
v -3.506753 1.102811 -0.065915
v -3.506743 1.102803 0.107694
v -3.948100 1.102745 0.107694
v -3.948095 1.102753 -0.065915
v -4.213285 1.102835 -0.065915
v -4.213297 1.102828 0.107694
v -3.372730 1.704955 0.101420
v -3.372610 1.704941 -0.072189
v -3.788455 2.637383 0.107694
v -3.788453 2.637376 -0.065915
v -3.579825 2.330609 -0.065915
v -3.579819 2.330614 0.107694
v -3.742248 1.102737 0.107694
v -3.742251 1.102745 -0.065915
v -3.456855 2.018367 0.104861
v -3.456817 2.018372 -0.068748
v -4.338223 2.637295 0.107694
v -4.338202 2.637287 -0.065915
v -4.151251 2.637354 -0.065915
v -4.151266 2.637362 0.107694
v -4.246273 2.330585 0.107694
v -4.246257 2.330581 -0.065915
v -3.948714 2.637400 0.107694
v -3.948707 2.637392 -0.065915
v -4.215244 2.023604 0.107694
v -4.215232 2.023602 -0.065915
v -4.042913 2.637393 0.107694
v -4.042903 2.637385 -0.065915
v -4.215247 1.716531 0.107694
v -4.215235 1.716533 -0.065915
v -4.214602 1.409547 0.107694
v -4.214590 1.409552 -0.065915
v -4.189398 2.582057 0.186343
v -4.060561 1.449837 0.184228
v -4.061574 1.729866 0.184228
v -4.061890 2.010054 0.184228
v -4.095263 2.290079 0.184228
v -4.061666 1.157836 0.186344
v -4.189349 2.582041 -0.144627
v -4.060547 1.449842 -0.142528
v -4.061560 1.729868 -0.142528
v -4.061876 2.010052 -0.142528
v -4.095240 2.290073 -0.142528
v -4.061651 1.157853 -0.144627
v -4.259615 2.637328 0.107694
v -4.259597 2.637321 -0.065915
v -4.095569 1.102786 0.107694
v -4.095560 1.102794 -0.065915
v -3.279232 1.394665 -0.012761
v -3.248932 1.086819 -0.010677
v -3.493689 1.086748 -0.010677
v -3.953813 1.086720 -0.010677
v -4.228440 1.086761 -0.010677
v -3.355423 1.701550 -0.015275
v -3.787516 2.653463 -0.010677
v -3.572393 2.340193 -0.010677
v -3.738600 1.086715 -0.010677
v -3.442797 2.021463 -0.012752
v -4.359741 2.653419 -0.010677
v -4.166076 2.653452 -0.010677
v -4.266044 2.340179 -0.010677
v -3.954057 2.653471 -0.010677
v -4.229414 2.026803 -0.010677
v -4.052038 2.653468 -0.010677
v -4.229415 1.713382 -0.010677
v -4.229093 1.400005 -0.010677
v -4.105997 1.086740 -0.010677
v -4.277779 2.653435 -0.010677
v -3.279259 1.394673 0.050053
v -3.248923 1.086815 0.052138
v -3.493684 1.086745 0.052138
v -3.953815 1.086716 0.052138
v -4.228446 1.086757 0.052138
v -3.355483 1.701557 0.047540
v -3.787518 2.653467 0.052138
v -3.572390 2.340196 0.052138
v -3.738598 1.086712 0.052138
v -3.442816 2.021461 0.050062
v -4.359751 2.653422 0.052138
v -4.166084 2.653456 0.052138
v -4.266052 2.340181 0.052138
v -3.954060 2.653475 0.052138
v -4.229420 2.026804 0.052138
v -4.052043 2.653472 0.052138
v -4.229421 1.713382 0.052138
v -4.229098 1.400003 0.052138
v -4.106001 1.086736 0.052138
v -4.277788 2.653439 0.052138
v -4.061593 1.147431 0.204239
v -3.929440 1.148923 0.205092
v -3.754048 1.148739 0.205018
v -3.549132 1.147056 0.203982
v -3.922189 2.589453 0.205768
v -4.003906 2.594116 0.203323
v -3.580105 1.454347 0.200889
v -3.760145 1.457281 0.202543
v -3.620249 1.725084 0.198651
v -3.771049 1.730161 0.201513
v -3.659567 2.004636 0.201288
v -3.782045 2.006986 0.202604
v -3.759830 2.282260 0.202813
v -3.869940 2.282193 0.202812
v -3.938190 2.007146 0.204459
v -3.992104 2.281753 0.204320
v -3.937560 1.731377 0.204447
v -3.937639 1.454530 0.204372
v -4.107478 2.589752 0.210201
v -4.061578 1.147444 -0.162521
v -3.929432 1.148937 -0.163374
v -3.754159 1.148674 -0.163263
v -3.549237 1.147013 -0.162229
v -3.922158 2.589439 -0.164051
v -4.003870 2.594103 -0.161604
v -3.580463 1.454119 -0.163051
v -3.760527 1.457045 -0.161396
v -3.620845 1.725013 -0.165287
v -3.771650 1.730132 -0.162425
v -3.660008 2.004793 -0.162652
v -3.782453 2.007112 -0.161337
v -3.759970 2.282293 -0.161129
v -3.870020 2.282213 -0.161129
v -3.938192 2.007146 -0.162767
v -3.992097 2.281754 -0.162628
v -3.937563 1.731377 -0.162754
v -3.937641 1.454529 -0.162680
v -4.107435 2.589738 -0.168477
v -3.513308 1.072234 0.102725
v -3.964792 1.074522 -0.061058
v -3.725549 1.074145 -0.061092
v -4.175180 2.662872 0.102559
v -3.966470 2.665376 -0.061288
v -4.034110 2.667779 -0.061006
v -3.259845 1.397704 -0.019355
v -3.280330 1.407796 -0.075182
v -3.234849 1.074661 0.061235
v -3.258214 1.089945 0.116742
v -3.513307 1.072224 -0.060973
v -3.493678 1.066408 0.056008
v -3.964795 1.074533 0.102821
v -3.953815 1.066386 -0.014560
v -4.242008 1.073071 0.059710
v -4.226995 1.089277 0.115263
v -3.336128 1.706503 -0.020904
v -3.353313 1.709944 -0.077772
v -3.778769 2.671391 -0.016208
v -3.778454 2.654681 -0.071310
v -3.554562 2.349833 0.056358
v -3.561885 2.340038 0.111946
v -3.725562 1.074148 0.102856
v -3.738597 1.066382 -0.014560
v -3.423735 2.027870 -0.017664
v -3.437761 2.024805 -0.073650
v -4.374654 2.664535 -0.019764
v -4.353132 2.648381 -0.075002
v -4.175177 2.662896 -0.060794
v -4.166088 2.673791 0.056012
v -4.285460 2.335984 -0.016505
v -4.265775 2.326897 -0.071748
v -3.966473 2.665363 0.103051
v -3.954057 2.673803 -0.014570
v -4.249337 2.025677 -0.016185
v -4.235169 2.022571 -0.071394
v -4.034118 2.667780 0.102764
v -4.052040 2.673800 -0.014571
v -4.249459 1.713366 -0.015855
v -4.235279 1.716518 -0.071091
v -4.249103 1.399957 -0.015979
v -4.234605 1.409506 -0.071199
v -4.240778 1.405819 0.100170
v -4.231489 1.081039 -0.060357
v -4.241362 1.715325 0.100036
v -4.241449 2.023583 0.100390
v -4.272510 2.329814 0.100818
v -3.776514 2.663578 0.100024
v -4.359042 2.656179 0.103485
v -3.430996 2.027066 0.097027
v -3.556760 2.344960 -0.057177
v -4.259622 2.656718 0.114944
v -4.259604 2.656702 -0.073188
v -3.345407 1.709630 0.094483
v -3.271099 1.404767 0.098890
v -4.086703 1.072339 0.102783
v -4.086697 1.072338 -0.061022
v -3.250490 1.082026 -0.061731
v -4.189325 2.594035 0.203228
v -4.060326 1.449951 0.204927
v -4.061256 1.729867 0.204927
v -4.061557 2.010083 0.204926
v -4.095002 2.290013 0.204927
v -4.189277 2.594021 -0.161510
v -4.060314 1.449956 -0.163227
v -4.061244 1.729869 -0.163227
v -4.061545 2.010081 -0.163226
v -4.094981 2.290008 -0.163227
v -4.106005 1.066399 0.056002
v -4.277793 2.673774 0.056017
v -3.234945 1.074547 -0.019750
v -3.493683 1.066416 -0.014569
v -4.241991 1.073086 -0.018289
v -3.554583 2.349867 -0.014891
v -4.166080 2.673783 -0.014575
v -4.106001 1.066407 -0.014564
v -4.277784 2.673766 -0.014579
v -3.259925 1.397830 0.056744
v -3.953818 1.066378 0.055998
v -3.336249 1.706510 0.053378
v -3.778763 2.671402 0.057638
v -3.738596 1.066373 0.055998
v -3.423755 2.027768 0.055104
v -4.374681 2.664552 0.061179
v -4.285478 2.335986 0.057932
v -3.954060 2.673811 0.056008
v -4.249352 2.025678 0.057614
v -4.052045 2.673808 0.056009
v -4.249472 1.713366 0.057285
v -4.249117 1.399954 0.057410
v -3.924065 2.007445 0.202811
v -3.978037 2.282357 0.202811
v -3.767231 2.010501 0.203882
v -3.856591 2.290297 0.204315
v -3.671297 2.002307 0.202832
v -3.771519 2.279815 0.204148
v -3.923437 1.732459 0.202811
v -3.756075 1.729630 0.202721
v -3.631867 1.721962 0.200242
v -3.923514 1.457603 0.202812
v -3.745080 1.454485 0.203813
v -3.591452 1.449389 0.202453
v -3.943595 1.144118 0.207517
v -3.738933 1.143689 0.207013
v -3.560204 1.139196 0.203359
v -4.092740 2.588598 0.206020
v -3.991274 2.603974 0.202832
v -3.935880 2.590745 0.208501
v -3.924067 2.007445 -0.161127
v -3.978029 2.282357 -0.161127
v -3.767641 2.010617 -0.162894
v -3.856670 2.290309 -0.162694
v -3.671744 2.002476 -0.163942
v -3.771663 2.279856 -0.162390
v -3.923440 1.732459 -0.161127
v -3.756681 1.729602 -0.164052
v -3.632468 1.721890 -0.166531
v -3.923516 1.457603 -0.161128
v -3.745465 1.454259 -0.162922
v -3.591811 1.449147 -0.164367
v -3.943587 1.144131 -0.165792
v -3.739051 1.143634 -0.165318
v -3.560289 1.139147 -0.161529
v -4.092697 2.588584 -0.164303
v -3.991237 2.603959 -0.161104
v -3.935849 2.590734 -0.166778
v -3.506736 1.083498 0.115168
v -3.948100 1.083685 -0.073974
v -3.742246 1.083653 -0.073918
v -4.151274 2.656307 0.116036
v -3.948708 2.656427 -0.074053
v -4.042906 2.656667 -0.073451
v -3.506746 1.083514 -0.073411
v -3.948105 1.083670 0.115735
v -3.742243 1.083638 0.115679
v -4.151258 2.656293 -0.074274
v -3.948715 2.656442 0.115814
v -4.042916 2.656682 0.115208
v -4.231499 1.081032 0.102102
v -4.234625 1.409502 0.112948
v -4.226972 1.089296 -0.073524
v -4.240778 1.405823 -0.058420
v -4.235298 1.716516 0.112839
v -4.241362 1.715326 -0.058285
v -4.235189 2.022572 0.113141
v -4.241450 2.023582 -0.058641
v -4.265800 2.326899 0.113493
v -4.272506 2.329809 -0.059073
v -3.778457 2.654698 0.113058
v -3.776505 2.663577 -0.058271
v -4.353170 2.648401 0.116735
v -4.359018 2.656169 -0.061745
v -3.556781 2.345046 0.098974
v -3.437805 2.024726 0.109881
v -3.561900 2.340055 -0.070161
v -3.430955 2.026884 -0.060812
v -3.353490 1.709942 0.107210
v -3.345363 1.709603 -0.065096
v -3.280445 1.407904 0.111402
v -3.271107 1.404896 -0.062671
v -4.095575 1.083512 0.115246
v -4.095567 1.083528 -0.073488
v -3.250492 1.081892 0.103565
v -3.258192 1.089984 -0.074949
v -4.254924 2.668593 0.102483
v -4.254910 2.668591 -0.060724
v -4.048883 1.140547 0.203919
v -4.178316 2.604156 0.201379
v -4.178266 2.604141 -0.159653
v -4.048869 1.140561 -0.162194
v -4.082768 2.296203 -0.164570
v -4.047582 1.446681 -0.164519
v -4.048520 1.728811 -0.164444
v -4.048825 2.012013 -0.164432
v -4.082789 2.296209 0.206276
v -4.047594 1.446676 0.206225
v -4.048532 1.728809 0.206149
v -4.048837 2.012015 0.206138
v -4.242455 1.069038 -0.032439
v -4.093623 1.063997 -0.027683
v -3.232529 1.070225 -0.033987
v -3.259218 1.393338 -0.032920
v -3.504462 1.063969 -0.027872
v -3.335383 1.704316 -0.034668
v -3.554342 2.352330 -0.028856
v -3.778959 2.674857 -0.030218
v -3.968176 1.064032 -0.028237
v -3.723360 1.064028 -0.028237
v -3.423172 2.028177 -0.031532
v -4.266743 2.676178 -0.027158
v -4.375718 2.669038 -0.034006
v -4.284545 2.340300 -0.030184
v -3.968419 2.676147 -0.028056
v -4.248353 2.027105 -0.029939
v -4.248671 1.712146 -0.029655
v -4.039242 2.676150 -0.028244
v -4.182093 2.676131 -0.028249
v -4.248217 1.396390 -0.029756
v -4.242485 1.069010 0.073866
v -4.093629 1.063969 0.069135
v -3.232453 1.070401 0.075452
v -3.259410 1.393628 0.070249
v -3.504455 1.063924 0.069323
v -3.335641 1.704291 0.067038
v -3.554296 2.352223 0.070323
v -3.778947 2.674884 0.071655
v -3.968179 1.064003 0.069686
v -3.723357 1.063999 0.069687
v -3.423217 2.027881 0.068927
v -4.266755 2.676207 0.068612
v -4.375762 2.669065 0.075427
v -4.284585 2.340297 0.071623
v -3.968424 2.676177 0.069506
v -4.248388 2.027104 0.071379
v -4.248704 1.712145 0.071096
v -4.039249 2.676179 0.069694
v -4.182104 2.676159 0.069698
v -4.248251 1.396387 0.071197
vn -0.7035 -0.0425 -0.7095
vn -0.6925 -0.1450 -0.7067
vn 0.6769 0.1967 -0.7093
vn 0.7134 0.0704 -0.6972
vn -0.6715 -0.1148 -0.7321
vn -0.6701 -0.2456 -0.7005
vn 0.6427 0.2912 -0.7087
vn 0.7008 0.1781 -0.6908
vn -0.7179 -0.0016 -0.6962
vn 0.6967 0.0007 -0.7174
vn -0.7151 -0.0286 -0.6984
vn 0.6874 0.0996 -0.7194
vn -0.7134 -0.0037 -0.7007
vn 0.6989 -0.0105 -0.7152
vn -0.7090 -0.0301 -0.7046
vn 0.7042 0.0799 -0.7055
vn -0.8070 0.3959 -0.4382
vn 0.8233 0.1661 -0.5427
vn -0.8303 0.1919 -0.5233
vn 0.7898 0.4639 -0.4012
vn -0.7242 -0.6221 -0.2976
vn 0.7226 0.1239 -0.6801
vn -0.7555 -0.5820 -0.3009
vn 0.7450 0.0488 -0.6653
vn -0.7034 -0.0425 0.7095
vn 0.7135 0.0704 0.6971
vn 0.6770 0.1966 0.7092
vn -0.6925 -0.1449 0.7068
vn -0.6560 -0.1185 0.7454
vn 0.7145 0.1725 0.6780
vn 0.6472 0.2898 0.7051
vn -0.6660 -0.2458 0.7043
vn -0.7178 -0.0016 0.6962
vn 0.6968 0.0007 0.7173
vn -0.6981 -0.0277 0.7155
vn 0.7101 0.1023 0.6966
vn -0.7134 -0.0037 0.7008
vn 0.6990 -0.0105 0.7151
vn -0.6954 -0.0224 0.7183
vn 0.7156 0.0878 0.6929
vn -0.8070 0.3960 0.4381
vn 0.8234 0.1662 0.5426
vn -0.8262 0.1949 0.5286
vn 0.7912 0.4661 0.3959
vn 0.7227 0.1239 0.6800
vn -0.7241 -0.6222 0.2975
vn 0.7457 0.0488 0.6645
vn -0.7553 -0.5819 0.3015
vn -0.3164 0.9472 -0.0517
vn 0.3363 0.9329 0.1286
vn -0.3395 0.9347 0.1053
vn 0.3043 0.9498 -0.0723
vn 0.3370 -0.9294 0.1503
vn -0.3160 -0.9458 -0.0750
vn 0.4806 -0.0012 0.8769
vn 0.0766 0.1055 0.9915
vn 0.5252 0.5503 -0.6491
vn 0.8769 0.0047 -0.4807
vn 0.5051 0.0006 0.8631
vn 0.8626 0.0006 -0.5058
vn -0.3363 -0.8202 0.4627
vn 0.3365 -0.8200 0.4629
vn 0.2974 -0.9240 0.2406
vn 0.5117 0.0287 0.8587
vn 0.8735 0.0448 -0.4848
vn -0.3161 -0.9457 0.0760
vn 0.3373 -0.9295 -0.1494
vn 0.3427 -0.8160 0.4656
vn 0.4689 0.1025 0.8773
vn 0.8870 0.1709 -0.4291
vn -0.1335 -0.2983 0.9451
vn -0.3659 -0.6987 -0.6148
vn 0.0038 -0.0475 0.9989
vn 0.5957 -0.4499 -0.6654
vn -0.4705 -0.1643 0.8669
vn -0.4366 -0.2384 0.8675
vn -0.7347 -0.3856 -0.5582
vn -0.8061 -0.2625 -0.5303
vn 0.3043 0.9498 0.0727
vn -0.3400 0.9347 -0.1037
vn -0.3364 0.8204 0.4623
vn 0.3581 0.8067 0.4702
vn -0.3664 -0.8038 0.4686
vn -0.2629 -0.9541 -0.1437
vn -0.4687 -0.1207 0.8751
vn -0.8415 -0.2165 -0.4950
vn 0.3364 0.8204 0.4623
vn -0.3907 -0.0593 0.9186
vn -0.8856 -0.1539 -0.4383
vn 0.3366 0.9329 -0.1277
vn -0.3167 0.9471 0.0529
vn -0.3543 0.8096 0.4680
vn -0.0316 0.0580 0.9978
vn -0.5778 0.5473 -0.6055
vn -0.2631 -0.9538 0.1450
vn 0.2976 -0.9241 -0.2398
vn -0.3660 -0.8045 -0.4678
vn 0.3364 -0.8206 -0.4620
vn 0.5240 0.5493 0.6509
vn -0.3540 0.8102 -0.4672
vn 0.0778 0.1066 -0.9913
vn -0.5731 0.5504 0.6071
vn -0.8891 -0.1450 0.4342
vn -0.3849 -0.0725 -0.9201
vn -0.0339 0.0505 -0.9981
vn 0.3582 0.8071 -0.4694
vn 0.3362 0.8210 -0.4614
vn -0.8499 -0.2184 0.4796
vn -0.4581 -0.1186 -0.8810
vn -0.7314 -0.3894 0.5599
vn -0.3655 -0.6979 0.6159
vn -0.1340 -0.2993 -0.9447
vn -0.4394 -0.2337 -0.8674
vn -0.3362 0.8210 -0.4614
vn -0.8052 -0.2734 0.5263
vn -0.4697 -0.1509 -0.8698
vn 0.5939 -0.4489 0.6676
vn 0.0052 -0.0483 -0.9988
vn 0.8862 0.1708 0.4306
vn 0.4704 0.1027 -0.8765
vn 0.3425 -0.8166 -0.4646
vn 0.8727 0.0448 0.4861
vn 0.5130 0.0288 -0.8579
vn -0.3361 -0.8208 -0.4619
vn 0.8619 0.0006 0.5071
vn 0.5064 0.0006 -0.8623
vn 0.8761 0.0047 0.4822
vn 0.4821 -0.0012 -0.8761
vn -0.0379 -0.0023 0.9993
vn 0.0678 0.0068 0.9977
vn 0.0817 0.0206 0.9964
vn -0.0269 -0.0033 0.9996
vn -0.0330 -0.0099 0.9994
vn 0.0711 0.0107 0.9974
vn 0.0674 0.0249 0.9974
vn -0.0401 -0.0179 0.9990
vn -0.0408 -0.0001 0.9992
vn 0.0649 -0.0000 0.9979
vn -0.0337 -0.0013 0.9994
vn 0.0718 0.0103 0.9974
vn -0.0306 -0.0010 0.9995
vn 0.0663 0.0021 0.9978
vn -0.0401 0.0059 0.9992
vn 0.0445 0.0123 0.9989
vn -0.0813 -0.5116 0.8554
vn 0.0975 -0.4919 0.8652
vn -0.0843 -0.4917 0.8667
vn 0.0984 -0.5124 0.8531
vn 0.0476 0.4370 0.8982
vn -0.0572 0.5618 0.8253
vn 0.0538 0.4354 0.8986
vn -0.0831 0.5501 0.8310
vn -0.0378 -0.0023 -0.9993
vn -0.0268 -0.0032 -0.9996
vn 0.0814 0.0205 -0.9965
vn 0.0674 0.0067 -0.9977
vn -0.0515 -0.0055 -0.9987
vn -0.0445 -0.0177 -0.9989
vn 0.0599 0.0265 -0.9979
vn 0.0488 0.0193 -0.9986
vn -0.0406 -0.0001 -0.9992
vn 0.0645 -0.0000 -0.9979
vn -0.0605 -0.0025 -0.9982
vn 0.0451 0.0067 -0.9990
vn -0.0304 -0.0011 -0.9995
vn 0.0660 0.0020 -0.9978
vn -0.0577 -0.0025 -0.9983
vn 0.0300 -0.0009 -0.9996
vn -0.0814 -0.5116 -0.8554
vn 0.0975 -0.4920 -0.8651
vn -0.0897 -0.4937 -0.8650
vn 0.0947 -0.5165 -0.8511
vn -0.0572 0.5618 -0.8253
vn 0.0477 0.4371 -0.8981
vn -0.0834 0.5500 -0.8310
vn 0.0539 0.4354 -0.8986
vn -0.0451 -0.8933 -0.4472
vn 0.0250 -0.9033 -0.4283
vn -0.0250 -0.9036 -0.4276
vn 0.0440 -0.8925 -0.4490
vn 0.0403 0.9000 -0.4340
vn -0.0308 0.8969 -0.4413
vn -0.9869 -0.0122 -0.1611
vn -0.9394 -0.0110 -0.3426
vn -0.6128 -0.6065 -0.5065
vn -0.6768 -0.7248 -0.1289
vn -0.9880 -0.0006 -0.1544
vn -0.9401 -0.0009 -0.3410
vn -0.0232 0.9913 -0.1294
vn 0.0312 0.9050 -0.4243
vn 0.0259 0.9905 -0.1350
vn -0.9829 -0.0588 -0.1743
vn -0.9341 -0.0481 -0.3537
vn 0.0403 0.9005 0.4331
vn -0.0308 0.8973 0.4403
vn 0.0295 0.9911 -0.1302
vn -0.9569 -0.2006 -0.2102
vn -0.9210 -0.1711 -0.3500
vn 0.4212 0.9050 -0.0606
vn 0.4539 0.7909 -0.4105
vn -0.7683 0.6138 -0.1814
vn -0.6717 0.4756 -0.5680
vn 0.9434 0.3173 -0.0966
vn 0.8828 0.2987 -0.3624
vn 0.8309 0.4438 -0.3355
vn 0.8729 0.4851 -0.0511
vn -0.0249 -0.9039 0.4270
vn 0.0440 -0.8931 0.4478
vn -0.0223 -0.9921 -0.1234
vn 0.0359 -0.9924 -0.1174
vn -0.0544 0.9901 -0.1295
vn -0.0498 0.8844 -0.4640
vn 0.9601 0.2462 -0.1326
vn 0.8887 0.2292 -0.3971
vn 0.0234 -0.9920 -0.1239
vn 0.9760 0.1382 -0.1684
vn 0.8881 0.1415 -0.4372
vn -0.0451 -0.8938 0.4462
vn 0.0249 -0.9037 0.4274
vn -0.0396 -0.9916 -0.1230
vn 0.5752 -0.5702 -0.5865
vn 0.7312 -0.6689 -0.1338
vn 0.0312 0.9053 0.4235
vn -0.0498 0.8849 0.4631
vn 0.0259 0.9907 0.1339
vn -0.0543 0.9903 0.1281
vn -0.6135 -0.6073 0.5048
vn -0.6771 -0.7248 0.1270
vn -0.0396 -0.9918 0.1217
vn 0.5751 -0.5698 0.5871
vn 0.7330 -0.6663 0.1370
vn 0.9746 0.1415 0.1735
vn 0.8846 0.1488 0.4419
vn 0.0360 -0.9927 0.1150
vn 0.0234 -0.9922 0.1227
vn 0.9587 0.2466 0.1415
vn 0.8860 0.2292 0.4031
vn 0.8316 0.4419 0.3362
vn 0.8735 0.4841 0.0519
vn 0.4216 0.9049 0.0590
vn 0.4537 0.7916 0.4092
vn -0.0223 -0.9922 0.1223
vn 0.9435 0.3148 0.1032
vn 0.8829 0.2925 0.3673
vn -0.7688 0.6138 0.1792
vn -0.6729 0.4764 0.5659
vn -0.9573 -0.2006 0.2082
vn -0.9216 -0.1713 0.3484
vn 0.0295 0.9912 0.1289
vn -0.9832 -0.0588 0.1728
vn -0.9346 -0.0482 0.3524
vn -0.0231 0.9915 0.1282
vn -0.9882 -0.0006 0.1530
vn -0.9405 -0.0009 0.3397
vn -0.9871 -0.0122 0.1594
vn -0.9399 -0.0111 0.3413
vn 0.7356 0.0984 0.6703
vn 0.6057 -0.1506 0.7813
vn -0.4577 0.1746 -0.8718
vn -0.3536 0.3478 -0.8683
vn -0.6292 0.0850 0.7726
vn -0.3713 0.4484 0.8131
vn 0.6404 0.5098 0.5745
vn 0.7571 0.2132 0.6175
vn -0.6530 -0.2449 0.7167
vn 0.5989 0.4981 0.6271
vn 0.7166 0.3139 0.6229
vn -0.3586 -0.4622 0.8111
vn -0.6098 -0.2128 0.7634
vn -0.4118 -0.0037 0.9113
vn -0.4143 -0.2780 0.8666
vn -0.4136 -0.2775 -0.8672
vn -0.4105 -0.0037 -0.9119
vn -0.5442 0.0709 0.8360
vn -0.3534 0.3484 0.8682
vn -0.4204 -0.0006 0.9073
vn -0.5441 0.0709 -0.8360
vn -0.4192 -0.0006 -0.9079
vn -0.6098 -0.2128 -0.7634
vn -0.3589 -0.4617 -0.8112
vn 0.2094 0.7095 0.6729
vn -0.3435 -0.8767 -0.3367
vn -0.6357 -0.5342 -0.5572
vn -0.6703 -0.1369 -0.7294
vn 0.2099 0.7092 -0.6730
vn -0.3715 0.4477 -0.8134
vn 0.8187 0.1353 -0.5581
vn 0.6387 -0.5031 -0.5823
vn -0.7280 -0.0013 -0.6856
vn -0.3948 -0.0185 0.9186
vn 0.3467 -0.8767 -0.3336
vn 0.7642 0.0747 -0.6407
vn 0.7569 0.2132 -0.6177
vn -0.7357 -0.0016 -0.6773
vn -0.3935 -0.0185 -0.9191
vn -0.6579 -0.2455 -0.7120
vn -0.7079 -0.1221 -0.6957
vn -0.7222 -0.0433 -0.6903
vn 0.7744 0.2006 -0.6001
vn 0.7360 0.1868 -0.6507
vn 0.7116 0.3158 -0.6277
vn 0.3901 0.6822 -0.6185
vn 0.6829 0.3658 -0.6323
vn 0.7512 0.0008 -0.6601
vn -0.6704 -0.1370 0.7292
vn -0.3547 -0.0531 0.9335
vn -0.3110 -0.8835 -0.3502
vn 0.3154 -0.8824 -0.3492
vn -0.7464 -0.0296 -0.6649
vn -0.7281 -0.0013 0.6854
vn -0.3532 -0.0528 -0.9341
vn 0.7428 0.2533 -0.6197
vn 0.7293 0.1062 -0.6759
vn -0.7358 -0.0016 0.6771
vn 0.2718 0.4063 0.8724
vn 0.2730 0.6581 0.7017
vn -0.7376 0.4180 -0.5303
vn -0.3722 0.8705 -0.3220
vn 0.7560 -0.0049 -0.6545
vn -0.7223 -0.0433 0.6902
vn 0.2735 0.6578 -0.7018
vn 0.2719 0.4059 -0.8725
vn -0.7476 -0.0225 -0.6637
vn -0.4587 0.1750 0.8712
vn 0.7257 0.0875 -0.6824
vn -0.8224 -0.1545 -0.5476
vn 0.6991 -0.3254 -0.6366
vn 0.3958 0.1244 0.9099
vn 0.3978 0.2011 0.8952
vn 0.3175 0.8803 -0.3524
vn -0.6868 -0.3169 -0.6541
vn 0.3970 0.2091 -0.8937
vn 0.3947 0.1419 -0.9078
vn -0.8083 -0.0442 -0.5871
vn 0.6027 -0.1560 -0.7826
vn 0.6404 0.5098 -0.5744
vn -0.8101 -0.0001 -0.5863
vn -0.6300 0.0847 -0.7720
vn 0.3071 0.8846 -0.3509
vn -0.3248 0.8799 -0.3469
vn 0.5980 0.4975 -0.6284
vn -0.8192 -0.0082 -0.5734
vn 0.3693 -0.4162 0.8309
vn 0.3560 0.0936 0.9298
vn 0.3191 -0.6280 -0.7098
vn -0.6362 -0.5347 0.5562
vn -0.3433 -0.8771 0.3359
vn 0.3584 0.0943 -0.9288
vn -0.3246 0.8803 0.3461
vn -0.3207 -0.6102 -0.7244
vn 0.6363 -0.5011 0.5865
vn 0.8148 0.1421 0.5620
vn 0.3185 -0.6285 0.7096
vn -0.3196 -0.6106 0.7246
vn 0.3069 0.8850 0.3502
vn 0.3463 -0.8767 0.3339
vn -0.3721 0.8709 0.3212
vn 0.3173 0.8807 0.3517
vn 0.7727 0.2001 0.6024
vn 0.6825 0.3618 0.6350
vn 0.3900 0.6825 0.6181
vn 0.3342 0.0739 0.9396
vn -0.3108 -0.8839 0.3494
vn 0.3152 -0.8828 0.3484
vn 0.3400 0.0560 -0.9387
vn 0.3695 -0.4169 -0.8305
vn 0.7418 0.2445 0.6244
vn -0.7381 0.4184 0.5293
vn 0.6991 -0.3254 0.6366
vn 0.3358 -0.2565 0.9063
vn 0.3357 -0.2637 -0.9043
vn -0.8233 -0.1547 0.5461
vn -0.8093 -0.0442 0.5858
vn 0.7644 0.0748 0.6404
vn -0.6939 -0.1240 0.7093
vn -0.6816 -0.3158 0.6601
vn -0.8110 -0.0001 0.5850
vn 0.7489 0.1804 0.6377
vn 0.7514 0.0008 0.6598
vn -0.8201 -0.0082 0.5722
vn -0.7318 -0.0293 0.6809
vn 0.7494 0.1074 0.6534
vn 0.7563 -0.0049 0.6543
vn -0.7349 -0.0180 0.6780
vt 0.903594 0.228112
vt 0.909550 0.117977
vt 0.875710 0.123184
vt 0.861603 0.231861
vt 0.794526 0.236345
vt 0.821818 0.126670
vt 0.778854 0.129449
vt 0.746792 0.240349
vt 0.910545 0.337476
vt 0.868295 0.339193
vt 0.797261 0.344694
vt 0.738530 0.350492
vt 0.917219 0.446795
vt 0.875237 0.446509
vt 0.799860 0.451572
vt 0.729660 0.457268
vt 0.925025 0.560733
vt 0.885064 0.563371
vt 0.804992 0.568562
vt 0.725006 0.573649
vt 0.938921 0.001643
vt 0.912856 0.003285
vt 0.866519 0.006241
vt 0.834625 0.008296
vt 0.222049 0.253245
vt 0.263961 0.257691
vt 0.251667 0.148794
vt 0.217929 0.143028
vt 0.330954 0.263291
vt 0.378625 0.268086
vt 0.348405 0.156670
vt 0.305494 0.153176
vt 0.213281 0.362476
vt 0.255484 0.364897
vt 0.326417 0.371578
vt 0.385045 0.378350
vt 0.204789 0.471668
vt 0.246759 0.472082
vt 0.322041 0.478398
vt 0.392137 0.485261
vt 0.195096 0.585455
vt 0.235005 0.588758
vt 0.314974 0.595279
vt 0.394859 0.601697
vt 0.216545 0.028301
vt 0.190513 0.026225
vt 0.294676 0.034613
vt 0.262823 0.032028
vt 0.180003 0.605877
vt 0.225893 0.609629
vt 0.317727 0.617109
vt 0.409531 0.624557
vt 0.285949 0.012320
vt 0.249229 0.009333
vt 0.585658 0.499555
vt 0.585980 0.621801
vt 0.598606 0.616350
vt 0.598405 0.496635
vt 0.585279 0.377264
vt 0.598090 0.376833
vt 0.800852 0.707820
vt 0.800829 0.764053
vt 0.812937 0.758262
vt 0.812961 0.704254
vt 0.584844 0.254965
vt 0.597664 0.257012
vt 0.715609 0.657002
vt 0.715594 0.688962
vt 0.752845 0.704231
vt 0.752859 0.667388
vt 0.800866 0.669498
vt 0.812976 0.667413
vt 0.590703 0.131789
vt 0.602569 0.136468
vt 0.800887 0.604363
vt 0.812995 0.604736
vt 0.606367 0.007272
vt 0.617941 0.014544
vt 0.062698 0.284989
vt 0.060334 0.150460
vt 0.042959 0.153266
vt 0.044840 0.284506
vt 0.715333 0.808576
vt 0.715395 0.728428
vt 0.678153 0.711820
vt 0.678115 0.803928
vt 0.630104 0.802486
vt 0.630136 0.706699
vt 0.618012 0.711803
vt 0.617975 0.803909
vt 0.800815 0.796109
vt 0.800800 0.828166
vt 0.812903 0.819748
vt 0.812920 0.789005
vt 0.060231 0.414096
vt 0.042262 0.410804
vt 0.630078 0.898290
vt 0.617951 0.896048
vt 0.047476 0.006085
vt 0.030587 0.012169
vt 0.059593 0.536836
vt 0.041462 0.530789
vt 0.715330 0.928865
vt 0.715317 0.888817
vt 0.678092 0.896071
vt 0.678087 0.942116
vt 0.630069 0.946179
vt 0.617946 0.942092
vt 0.630175 0.610972
vt 0.618063 0.619818
vt 0.053745 0.653565
vt 0.035580 0.644860
vt 0.630060 0.994067
vt 0.617941 0.988135
vt 0.715558 0.735393
vt 0.715529 0.761510
vt 0.752803 0.788985
vt 0.752820 0.758241
vt 0.195399 0.004963
vt 0.164756 0.002482
vt 0.770756 0.796099
vt 0.770771 0.764043
vt 0.678082 0.988160
vt 0.660139 0.946191
vt 0.660130 0.994080
vt 0.100587 0.643533
vt 0.106462 0.529444
vt 0.092093 0.536163
vt 0.086248 0.652901
vt 0.678203 0.619832
vt 0.660245 0.610979
vt 0.660206 0.706707
vt 0.660149 0.898301
vt 0.107255 0.409451
vt 0.092728 0.413420
vt 0.107965 0.151933
vt 0.095593 0.010834
vt 0.079979 0.005417
vt 0.092837 0.149794
vt 0.660174 0.802495
vt 0.109841 0.283171
vt 0.095198 0.284321
vt 0.752786 0.819729
vt 0.770742 0.828156
vt 0.556948 0.012735
vt 0.541575 0.134661
vt 0.560206 0.130885
vt 0.575871 0.006368
vt 0.752878 0.604710
vt 0.770808 0.669486
vt 0.770829 0.604350
vt 0.536669 0.255205
vt 0.554347 0.254062
vt 0.770793 0.707808
vt 0.537095 0.375028
vt 0.554782 0.376362
vt 0.537410 0.494831
vt 0.555161 0.498653
vt 0.537612 0.614548
vt 0.555483 0.620900
vt 0.899351 0.228060
vt 0.865874 0.232119
vt 0.879527 0.124370
vt 0.905574 0.117100
vt 0.789092 0.235745
vt 0.752152 0.241318
vt 0.783948 0.131255
vt 0.816628 0.125163
vt 0.906304 0.337738
vt 0.872535 0.338924
vt 0.791845 0.344829
vt 0.743930 0.350919
vt 0.912988 0.447071
vt 0.879465 0.446194
vt 0.794445 0.451769
vt 0.735068 0.457562
vt 0.920873 0.561538
vt 0.889226 0.562734
vt 0.799571 0.568653
vt 0.730410 0.574179
vt 0.916319 0.005057
vt 0.935459 -0.000135
vt 0.839985 0.009907
vt 0.861210 0.004674
vt 0.226292 0.253264
vt 0.221918 0.142217
vt 0.247831 0.149916
vt 0.259687 0.257877
vt 0.336399 0.262787
vt 0.310711 0.151760
vt 0.343278 0.158387
vt 0.373247 0.268959
vt 0.217516 0.362809
vt 0.251250 0.364557
vt 0.331831 0.371801
vt 0.379638 0.378688
vt 0.209014 0.472014
vt 0.242537 0.471697
vt 0.327452 0.478681
vt 0.386725 0.485470
vt 0.199235 0.586329
vt 0.230875 0.588136
vt 0.320388 0.595526
vt 0.389466 0.601884
vt 0.194005 0.024505
vt 0.213297 0.029147
vt 0.268073 0.031506
vt 0.289391 0.035037
vt 0.182701 0.608775
vt 0.220404 0.611675
vt 0.323480 0.620102
vt 0.405563 0.626930
vt 0.279428 0.009347
vt 0.253273 0.006988
vt 0.588747 0.499678
vt 0.595310 0.496478
vt 0.595560 0.617025
vt 0.589027 0.621137
vt 0.588392 0.377459
vt 0.594977 0.376637
vt 0.806517 0.702404
vt 0.810222 0.699169
vt 0.810261 0.768718
vt 0.806490 0.768031
vt 0.587959 0.255084
vt 0.594525 0.256871
vt 0.714134 0.662240
vt 0.756773 0.673801
vt 0.756891 0.699149
vt 0.717234 0.683766
vt 0.806448 0.674919
vt 0.810323 0.674165
vt 0.810201 0.700415
vt 0.593577 0.131754
vt 0.599590 0.136425
vt 0.803798 0.604910
vt 0.810079 0.604251
vt 0.810318 0.673824
vt 0.609268 0.007992
vt 0.615040 0.013836
vt 0.058415 0.284971
vt 0.049122 0.284553
vt 0.047265 0.153076
vt 0.056040 0.150646
vt 0.715642 0.803160
vt 0.674115 0.797140
vt 0.674152 0.715311
vt 0.714345 0.733793
vt 0.624437 0.797066
vt 0.620692 0.797914
vt 0.620779 0.715547
vt 0.624625 0.712116
vt 0.806016 0.792135
vt 0.810240 0.786783
vt 0.810045 0.820899
vt 0.803644 0.826939
vt 0.056004 0.414006
vt 0.046487 0.410903
vt 0.624409 0.902647
vt 0.620664 0.903210
vt 0.620695 0.797116
vt 0.034830 0.011302
vt 0.043232 0.006917
vt 0.055286 0.536603
vt 0.045762 0.531099
vt 0.714546 0.924722
vt 0.673482 0.939175
vt 0.674094 0.903230
vt 0.715801 0.892985
vt 0.624638 0.941817
vt 0.620714 0.939054
vt 0.620658 0.901222
vt 0.620725 0.715292
vt 0.620969 0.618757
vt 0.627276 0.612070
vt 0.049475 0.652230
vt 0.039849 0.646197
vt 0.627168 0.993124
vt 0.620844 0.989012
vt 0.620645 0.938560
vt 0.810303 0.764808
vt 0.810099 0.787337
vt 0.713652 0.738569
vt 0.756758 0.768696
vt 0.757608 0.787788
vt 0.717609 0.758388
vt 0.188679 0.002134
vt 0.166159 -0.000195
vt 0.765104 0.768016
vt 0.765553 0.792122
vt 0.673805 0.989030
vt 0.664391 0.993145
vt 0.665576 0.941833
vt 0.097310 0.645058
vt 0.089528 0.651390
vt 0.095545 0.535695
vt 0.103098 0.530010
vt 0.665717 0.712127
vt 0.664524 0.612075
vt 0.673912 0.618773
vt 0.665819 0.902663
vt 0.096305 0.413158
vt 0.103679 0.409722
vt 0.104314 0.151867
vt 0.096535 0.149847
vt 0.083767 0.006081
vt 0.091801 0.010135
vt 0.665846 0.797079
vt 0.098789 0.284210
vt 0.106261 0.283283
vt 0.766544 0.826934
vt 0.757007 0.820877
vt 0.561326 0.012246
vt 0.571491 0.006869
vt 0.555848 0.130637
vt 0.545881 0.134833
vt 0.757179 0.604232
vt 0.766536 0.604890
vt 0.765219 0.674902
vt 0.550072 0.253962
vt 0.540938 0.255284
vt 0.765130 0.702388
vt 0.550509 0.376338
vt 0.541368 0.375051
vt 0.550887 0.498558
vt 0.541692 0.494892
vt 0.551197 0.620023
vt 0.541897 0.615435
s 1
f 76/1/1 77/2/2 18/3/3 15/4/4
f 14/5/5 17/6/6 16/7/7 13/8/8
f 75/9/9 76/1/1 15/4/4 12/10/10
f 11/11/11 14/5/5 13/8/8 10/12/12
f 74/13/13 75/9/9 12/10/10 9/14/14
f 8/15/15 11/11/11 10/12/12 7/16/16
f 78/17/17 74/13/13 9/14/14 1/18/18
f 2/19/19 8/15/15 7/16/16 3/20/20
f 77/2/2 73/21/21 6/22/22 18/3/3
f 17/6/6 5/23/23 4/24/24 16/7/7
f 82/25/25 33/26/26 36/27/27 83/28/28
f 32/29/29 31/30/30 34/31/31 35/32/32
f 81/33/33 30/34/34 33/26/26 82/25/25
f 29/35/35 28/36/36 31/30/30 32/29/29
f 80/37/37 27/38/38 30/34/34 81/33/33
f 26/39/39 25/40/40 28/36/36 29/35/35
f 84/41/41 19/42/42 27/38/38 80/37/37
f 20/43/43 21/44/44 25/40/40 26/39/39
f 83/28/28 36/27/27 24/45/45 79/46/46
f 35/32/32 34/31/31 22/47/47 23/48/48
f 88/49/49 44/50/50 19/42/42 84/41/41
f 54/51/51 41/52/52 21/44/44 20/43/43
f 64/53/53 68/54/54 23/48/48 22/47/47
f 106/55/55 93/56/56 45/57/57 72/58/58
f 105/59/59 106/55/55 72/58/58 70/60/60
f 104/61/61 100/62/62 59/63/63 68/64/54
f 103/65/64 105/59/59 70/60/60 66/66/65
f 4/67/24 5/68/23 67/69/66 63/70/67
f 102/71/68 104/61/61 68/64/54 64/72/53
f 101/73/69 103/65/64 66/66/65 62/74/70
f 95/75/71 102/71/68 64/72/53 50/76/72
f 99/77/73 101/73/69 62/74/70 58/78/74
f 98/79/75 96/80/76 51/81/77 56/82/78
f 2/83/19 3/84/20 42/85/79 53/86/80
f 97/87/81 91/88/82 41/89/52 54/90/51
f 108/91/83 99/92/73 58/93/74 86/94/84
f 94/95/85 98/79/75 56/82/78 48/96/86
f 92/97/87 97/87/81 54/90/51 44/98/50
f 96/80/76 95/99/71 50/100/72 51/81/77
f 89/101/88 94/95/85 48/96/86 38/102/89
f 78/103/17 1/104/18 43/105/90 87/106/91
f 107/107/92 92/97/87 44/98/50 88/108/49
f 91/88/82 90/109/93 39/110/94 41/89/52
f 90/111/93 89/101/88 38/102/89 39/112/94
f 93/113/56 107/107/92 88/108/49 45/114/57
f 100/62/62 108/91/83 86/94/84 59/63/63
f 6/115/22 73/116/21 85/117/95 60/118/96
f 59/119/63 86/120/84 79/46/46 24/45/45
f 60/118/96 85/117/95 128/121/97 120/122/98
f 46/123/99 87/106/91 127/124/100 113/125/101
f 40/126/102 37/127/103 109/128/104 110/129/105
f 42/85/79 40/130/102 110/131/105 111/132/106
f 87/106/91 43/105/90 112/133/107 127/124/100
f 37/127/103 47/134/108 114/135/109 109/128/104
f 52/136/110 49/137/111 115/138/112 116/139/113
f 43/105/90 53/86/80 117/140/114 112/133/107
f 47/134/108 55/141/115 118/142/116 114/135/109
f 85/117/95 57/143/117 119/144/118 128/121/97
f 53/86/80 42/85/79 111/132/106 117/140/114
f 55/141/115 52/136/110 116/139/113 118/142/116
f 57/145/117 61/146/119 121/147/120 119/148/118
f 49/149/111 63/70/67 122/150/121 115/151/112
f 61/146/119 65/152/122 123/153/123 121/147/120
f 63/70/67 67/69/66 124/154/124 122/150/121
f 65/152/122 69/155/125 125/156/126 123/153/123
f 67/69/66 60/118/96 120/122/98 124/154/124
f 69/155/125 71/157/127 126/158/128 125/156/126
f 71/157/127 46/159/99 113/160/101 126/158/128
f 108/91/83 100/62/62 120/122/98 128/121/97
f 124/154/124 104/61/61 102/71/68 122/150/121
f 91/88/82 97/87/81 117/140/114 111/132/106
f 92/97/87 107/107/92 127/124/100 112/133/107
f 344/161/129 143/162/130 144/163/131 341/164/132
f 259/165/133 261/166/134 262/167/135 260/168/136
f 343/169/137 145/170/138 143/162/130 344/161/129
f 264/171/139 265/172/140 261/166/134 259/165/133
f 342/173/141 146/174/142 145/170/138 343/169/137
f 267/175/143 268/176/144 265/172/140 264/171/139
f 333/177/145 269/178/146 146/174/142 342/173/141
f 270/179/147 271/180/148 268/176/144 267/175/143
f 341/164/132 144/163/131 147/181/149 334/182/150
f 260/168/136 262/167/135 274/183/151 273/184/152
f 340/185/153 337/186/154 163/187/155 162/188/156
f 277/189/157 278/190/158 280/191/159 279/192/160
f 339/193/161 340/185/153 162/188/156 164/194/162
f 282/195/163 277/189/157 279/192/160 283/196/164
f 338/197/165 339/193/161 164/194/162 165/198/166
f 285/199/167 282/195/163 283/196/164 286/200/168
f 336/201/169 338/197/165 165/198/166 287/202/170
f 288/203/171 285/199/167 286/200/168 289/204/172
f 337/186/154 335/205/173 166/206/174 163/187/155
f 278/190/158 291/207/175 292/208/176 280/191/159
f 223/209/177 336/201/169 287/202/170 168/210/178
f 169/211/179 288/203/171 289/204/172 177/212/180
f 171/213/181 292/208/176 291/207/175 172/214/182
f 364/215/183 308/216/184 210/217/185 345/218/186
f 361/219/187 310/220/188 308/216/184 364/215/183
f 362/221/189 172/222/182 195/223/190 363/224/191
f 360/225/192 312/226/193 310/220/188 361/219/187
f 274/227/151 199/228/194 203/229/195 273/230/152
f 359/231/196 171/232/181 172/233/182 362/221/189
f 358/234/197 314/235/198 312/226/193 360/225/192
f 352/236/199 316/237/200 171/238/181 359/231/196
f 357/239/201 318/240/202 314/235/198 358/234/197
f 355/241/203 322/242/204 217/243/205 351/244/206
f 270/245/147 189/246/207 167/247/208 271/248/148
f 354/249/209 169/250/179 177/251/180 349/252/210
f 356/253/211 332/254/212 318/255/202 357/256/201
f 350/257/213 324/258/214 322/242/204 355/241/203
f 353/259/215 168/260/178 169/261/179 354/249/209
f 351/244/206 217/243/205 316/262/200 352/263/199
f 348/264/216 326/265/217 324/258/214 350/257/213
f 333/266/145 222/267/218 179/268/219 269/269/146
f 346/270/220 223/271/177 168/272/178 353/259/215
f 349/252/210 177/273/180 224/274/221 347/275/222
f 347/276/222 224/277/221 326/265/217 348/264/216
f 345/278/186 210/279/185 223/280/177 346/270/220
f 363/224/191 195/281/190 332/282/212 356/253/211
f 147/283/149 170/284/223 331/285/224 334/286/150
f 195/287/190 166/206/174 335/205/173 332/288/212
f 170/284/223 383/289/225 376/290/226 331/285/224
f 305/291/227 365/292/228 366/293/229 222/267/218
f 329/294/230 367/295/231 368/296/232 221/297/233
f 167/247/208 369/298/234 367/299/231 329/300/230
f 222/267/218 366/293/229 373/301/235 179/268/219
f 221/297/233 368/296/232 370/302/236 220/303/237
f 319/304/238 371/305/239 372/306/240 214/307/241
f 179/268/219 373/301/235 374/308/242 189/246/207
f 220/303/237 370/302/236 375/309/243 216/310/244
f 331/285/224 376/290/226 377/311/245 215/312/246
f 189/246/207 374/308/242 369/298/234 167/247/208
f 216/310/244 375/309/243 371/305/239 319/304/238
f 215/313/246 377/314/245 378/315/247 213/316/248
f 214/317/241 372/318/240 379/319/249 199/228/194
f 213/316/248 378/315/247 380/320/250 212/321/251
f 199/228/194 379/319/249 382/322/252 203/229/195
f 212/321/251 380/320/250 381/323/253 211/324/254
f 203/229/195 382/322/252 383/289/225 170/284/223
f 211/324/254 381/323/253 384/325/255 209/326/256
f 209/326/256 384/325/255 365/327/228 305/328/227
f 356/253/211 376/290/226 383/289/225 363/224/191
f 382/322/252 379/319/249 359/231/196 362/221/189
f 349/252/210 369/298/234 374/308/242 354/249/209
f 353/259/215 373/301/235 366/293/229 346/270/220
f 3/20/20 7/16/16 135/16/257 132/20/258
f 86/94/84 58/93/74 194/93/259 219/94/260
f 67/69/66 5/68/23 134/68/261 304/69/262
f 18/3/3 6/22/22 272/22/263 258/3/264
f 5/23/23 17/6/6 142/6/265 134/23/261
f 16/7/7 4/24/24 133/24/266 141/7/267
f 78/103/17 87/106/91 327/106/268 129/103/269
f 46/159/99 71/157/127 306/157/270 182/159/271
f 72/58/58 45/57/57 307/57/272 208/58/273
f 85/117/95 73/116/21 225/116/274 218/117/275
f 71/157/127 69/155/125 309/155/276 306/157/270
f 79/46/46 86/120/84 219/120/260 230/46/277
f 70/60/60 72/58/58 208/58/273 206/60/278
f 88/49/49 84/41/41 148/41/279 328/49/280
f 60/118/96 67/69/66 304/69/262 296/118/281
f 113/125/101 127/124/100 235/124/282 181/125/283
f 83/28/28 79/46/46 230/46/277 234/28/284
f 68/64/54 59/63/63 302/63/285 298/64/286
f 110/129/105 109/128/104 244/128/287 175/129/288
f 84/41/41 80/37/37 231/37/289 148/41/279
f 69/155/125 65/152/122 311/152/290 309/155/276
f 111/132/106 110/131/105 175/131/288 178/132/291
f 36/27/27 33/26/26 275/26/292 276/27/293
f 80/37/37 81/33/33 232/33/294 231/37/289
f 66/66/65 70/60/60 206/60/278 202/66/295
f 32/29/29 35/32/32 161/32/296 159/29/297
f 81/33/33 82/25/25 233/25/298 232/33/294
f 109/128/104 114/135/109 246/135/299 244/128/287
f 34/31/31 31/30/30 158/30/300 160/31/301
f 82/25/25 83/28/28 234/28/284 233/25/298
f 116/139/113 115/138/112 247/138/302 187/139/303
f 33/26/26 30/34/34 281/34/304 275/26/292
f 73/21/21 77/2/2 229/2/305 225/21/274
f 65/152/122 61/146/119 313/146/306 311/152/290
f 112/133/107 117/140/114 248/140/307 245/133/308
f 29/35/35 32/29/29 159/29/297 157/35/309
f 74/13/13 78/17/17 129/17/269 226/13/310
f 62/74/70 66/66/65 202/66/295 198/74/311
f 114/135/109 118/142/116 249/142/312 246/135/299
f 31/30/30 28/36/36 156/36/313 158/30/300
f 75/9/9 74/13/13 226/13/310 227/9/314
f 63/70/67 49/149/111 315/149/315 303/70/316
f 128/121/97 119/144/118 250/144/317 236/121/318
f 30/34/34 27/38/38 284/38/319 281/34/304
f 76/1/1 75/9/9 227/9/314 228/1/320
f 50/76/72 64/72/53 297/72/321 186/76/322
f 26/39/39 29/35/35 157/35/309 155/39/323
f 77/2/2 76/1/1 228/1/320 229/2/305
f 61/146/119 57/145/117 317/145/324 313/146/306
f 118/142/116 116/139/113 187/139/303 249/142/312
f 28/36/36 25/40/40 154/40/325 156/36/313
f 58/78/74 62/74/70 198/74/311 194/78/259
f 119/148/118 121/147/120 251/147/326 250/148/317
f 27/38/38 19/42/42 149/42/327 284/38/319
f 52/136/110 55/141/115 320/141/328 188/136/329
f 115/151/112 122/150/121 252/150/330 247/151/302
f 20/43/43 26/39/39 155/39/323 150/43/331
f 56/82/78 51/81/77 321/81/332 192/82/333
f 121/147/120 123/153/123 253/153/334 251/147/326
f 25/40/40 21/44/44 151/44/335 154/40/325
f 24/45/45 36/27/27 276/27/293 290/45/336
f 123/153/123 125/156/126 255/156/337 253/153/334
f 35/32/32 23/48/48 153/48/338 161/32/296
f 124/154/124 120/122/98 196/122/339 254/154/340
f 22/47/47 34/31/31 160/31/301 152/47/341
f 125/156/126 126/158/128 256/158/342 255/156/337
f 42/85/79 3/84/20 132/84/258 293/85/343
f 55/141/115 47/134/108 323/134/344 320/141/328
f 126/158/128 113/160/101 181/160/283 256/158/342
f 19/42/42 44/50/50 294/50/345 149/42/327
f 107/107/92 93/113/56 239/113/346 242/107/347
f 48/96/86 56/82/78 192/82/333 184/96/348
f 104/61/61 124/154/124 254/154/340 204/61/349
f 54/51/51 20/43/43 150/43/331 295/51/350
f 89/101/88 90/111/93 237/111/351 173/101/352
f 53/86/80 43/105/90 300/105/353 301/86/354
f 120/122/98 100/62/62 241/62/355 196/122/339
f 6/115/22 60/118/96 296/118/281 272/115/263
f 90/109/93 91/88/82 238/88/356 237/109/351
f 44/98/50 54/90/51 295/90/350 294/98/345
f 108/91/83 128/121/97 236/121/318 243/91/357
f 64/53/53 22/47/47 152/47/341 297/53/321
f 49/137/111 52/136/110 188/136/329 315/137/315
f 122/150/121 102/71/68 200/71/358 252/150/330
f 23/48/48 68/54/54 298/54/286 153/48/338
f 94/95/85 89/101/88 173/101/352 183/95/359
f 51/81/77 50/100/72 186/100/322 321/81/332
f 91/88/82 111/132/106 178/132/291 238/88/356
f 95/99/71 96/80/76 240/80/360 185/99/361
f 47/134/108 37/127/103 325/127/362 323/134/344
f 117/140/114 97/87/81 190/87/363 248/140/307
f 97/87/81 92/97/87 180/97/364 190/87/363
f 38/102/89 48/96/86 184/96/348 174/102/365
f 92/97/87 112/133/107 245/133/308 180/97/364
f 21/44/44 41/52/52 299/52/366 151/44/335
f 98/79/75 94/95/85 183/95/359 191/79/367
f 87/106/91 46/123/99 182/123/271 327/106/268
f 127/124/100 107/107/92 242/107/347 235/124/282
f 99/92/73 108/91/83 243/91/357 193/92/368
f 45/114/57 88/108/49 328/108/280 307/114/272
f 43/105/90 1/104/18 130/104/369 300/105/353
f 40/130/102 42/85/79 293/85/343 176/130/370
f 96/80/76 98/79/75 191/79/367 240/80/360
f 41/89/52 39/110/94 330/110/371 299/89/366
f 101/73/69 99/77/73 193/77/368 197/73/372
f 37/127/103 40/126/102 176/126/370 325/127/362
f 102/71/68 95/75/71 185/75/361 200/71/358
f 39/112/94 38/102/89 174/102/365 330/112/371
f 103/65/64 101/73/69 197/73/372 201/65/373
f 15/4/4 18/3/3 258/3/264 257/4/374
f 17/6/6 14/5/5 140/5/375 142/6/265
f 2/83/19 53/86/80 301/86/354 131/83/376
f 105/59/59 103/65/64 201/65/373 205/59/377
f 13/8/8 16/7/7 141/7/267 139/8/378
f 100/62/62 104/61/61 204/61/349 241/62/355
f 12/10/10 15/4/4 257/4/374 263/10/379
f 106/55/55 105/59/59 205/59/377 207/55/380
f 14/5/5 11/11/11 138/11/381 140/5/375
f 93/56/56 106/55/55 207/55/380 239/56/346
f 10/12/12 13/8/8 139/8/378 137/12/382
f 59/119/63 24/45/45 290/45/336 302/119/285
f 9/14/14 12/10/10 263/10/379 266/14/383
f 11/11/11 8/15/15 136/15/384 138/11/381
f 7/16/16 10/12/12 137/12/382 135/16/257
f 4/67/24 63/70/67 303/70/316 133/67/266
f 1/18/18 9/14/14 266/14/383 130/18/369
f 8/15/15 2/19/19 131/19/376 136/15/384
f 57/143/117 85/117/95 218/117/275 317/143/324
f 144/163/131 143/162/130 257/4/374 258/3/264
f 259/165/133 260/168/136 142/6/265 140/5/375
f 262/167/135 261/166/134 139/8/378 141/7/267
f 143/162/130 145/170/138 263/10/379 257/4/374
f 264/171/139 259/165/133 140/5/375 138/11/381
f 261/166/134 265/172/140 137/12/382 139/8/378
f 145/170/138 146/174/142 266/14/383 263/10/379
f 267/175/143 264/171/139 138/11/381 136/15/384
f 265/172/140 268/176/144 135/16/257 137/12/382
f 146/174/142 269/178/146 130/18/369 266/14/383
f 270/179/147 267/175/143 136/15/384 131/19/376
f 268/176/144 271/180/148 132/20/258 135/16/257
f 147/181/149 144/163/131 258/3/264 272/22/263
f 260/168/136 273/184/152 134/23/261 142/6/265
f 274/183/151 262/167/135 141/7/267 133/24/266
f 162/188/156 163/187/155 276/27/293 275/26/292
f 278/190/158 277/189/157 159/29/297 161/32/296
f 279/192/160 280/191/159 160/31/301 158/30/300
f 164/194/162 162/188/156 275/26/292 281/34/304
f 277/189/157 282/195/163 157/35/309 159/29/297
f 283/196/164 279/192/160 158/30/300 156/36/313
f 165/198/166 164/194/162 281/34/304 284/38/319
f 282/195/163 285/199/167 155/39/323 157/35/309
f 286/200/168 283/196/164 156/36/313 154/40/325
f 287/202/170 165/198/166 284/38/319 149/42/327
f 285/199/167 288/203/171 150/43/331 155/39/323
f 289/204/172 286/200/168 154/40/325 151/44/335
f 163/187/155 166/206/174 290/45/336 276/27/293
f 291/207/175 278/190/158 161/32/296 153/48/338
f 280/191/159 292/208/176 152/47/341 160/31/301
f 271/248/148 167/247/208 293/85/343 132/84/258
f 168/210/178 287/202/170 149/42/327 294/50/345
f 288/203/171 169/211/179 295/51/350 150/43/331
f 170/284/223 147/283/149 272/115/263 296/118/281
f 292/208/176 171/213/181 297/53/321 152/47/341
f 172/214/182 291/207/175 153/48/338 298/54/286
f 177/212/180 289/204/172 151/44/335 299/52/366
f 269/269/146 179/268/219 300/105/353 130/104/369
f 189/246/207 270/245/147 131/83/376 301/86/354
f 166/206/174 195/287/190 302/119/285 290/45/336
f 199/228/194 274/227/151 133/67/266 303/70/316
f 273/230/152 203/229/195 304/69/262 134/68/261
f 209/326/256 305/328/227 182/159/271 306/157/270
f 210/217/185 308/216/184 208/58/273 307/57/272
f 211/324/254 209/326/256 306/157/270 309/155/276
f 308/216/184 310/220/188 206/60/278 208/58/273
f 203/229/195 170/284/223 296/118/281 304/69/262
f 195/223/190 172/222/182 298/64/286 302/63/285
f 212/321/251 211/324/254 309/155/276 311/152/290
f 310/220/188 312/226/193 202/66/295 206/60/278
f 213/316/248 212/321/251 311/152/290 313/146/306
f 312/226/193 314/235/198 198/74/311 202/66/295
f 214/317/241 199/228/194 303/70/316 315/149/315
f 171/238/181 316/237/200 186/76/322 297/72/321
f 215/313/246 213/316/248 313/146/306 317/145/324
f 314/235/198 318/240/202 194/78/259 198/74/311
f 216/310/244 319/304/238 188/136/329 320/141/328
f 217/243/205 322/242/204 192/82/333 321/81/332
f 220/303/237 216/310/244 320/141/328 323/134/344
f 322/242/204 324/258/214 184/96/348 192/82/333
f 179/268/219 189/246/207 301/86/354 300/105/353
f 169/261/179 168/260/178 294/98/345 295/90/350
f 319/304/238 214/307/241 315/137/315 188/136/329
f 316/262/200 217/243/205 321/81/332 186/100/322
f 221/297/233 220/303/237 323/134/344 325/127/362
f 324/258/214 326/265/217 174/102/365 184/96/348
f 305/291/227 222/267/218 327/106/268 182/123/271
f 223/280/177 210/279/185 307/114/272 328/108/280
f 167/247/208 329/300/230 176/130/370 293/85/343
f 224/274/221 177/273/180 299/89/366 330/110/371
f 329/294/230 221/297/233 325/127/362 176/126/370
f 326/265/217 224/277/221 330/112/371 174/102/365
f 331/285/224 215/312/246 317/143/324 218/117/275
f 318/255/202 332/254/212 219/94/260 194/93/259
f 222/267/218 333/266/145 129/103/269 327/106/268
f 334/286/150 331/285/224 218/117/275 225/116/274
f 332/288/212 335/205/173 230/46/277 219/120/260
f 336/201/169 223/209/177 328/49/280 148/41/279
f 335/205/173 337/186/154 234/28/284 230/46/277
f 338/197/165 336/201/169 148/41/279 231/37/289
f 339/193/161 338/197/165 231/37/289 232/33/294
f 340/185/153 339/193/161 232/33/294 233/25/298
f 337/186/154 340/185/153 233/25/298 234/28/284
f 341/164/132 334/182/150 225/21/274 229/2/305
f 333/177/145 342/173/141 226/13/310 129/17/269
f 342/173/141 343/169/137 227/9/314 226/13/310
f 343/169/137 344/161/129 228/1/320 227/9/314
f 344/161/129 341/164/132 229/2/305 228/1/320
f 345/278/186 346/270/220 242/107/347 239/113/346
f 347/276/222 348/264/216 173/101/352 237/111/351
f 349/252/210 347/275/222 237/109/351 238/88/356
f 348/264/216 350/257/213 183/95/359 173/101/352
f 351/244/206 352/263/199 185/99/361 240/80/360
f 353/259/215 354/249/209 190/87/363 180/97/364
f 350/257/213 355/241/203 191/79/367 183/95/359
f 356/253/211 357/256/201 193/92/368 243/91/357
f 355/241/203 351/244/206 240/80/360 191/79/367
f 357/239/201 358/234/197 197/73/372 193/77/368
f 352/236/199 359/231/196 200/71/358 185/75/361
f 358/234/197 360/225/192 201/65/373 197/73/372
f 360/225/192 361/219/187 205/59/377 201/65/373
f 362/221/189 363/224/191 241/62/355 204/61/349
f 361/219/187 364/215/183 207/55/380 205/59/377
f 364/215/183 345/218/186 239/56/346 207/55/380
f 366/293/229 365/292/228 181/125/283 235/124/282
f 368/296/232 367/295/231 175/129/288 244/128/287
f 367/299/231 369/298/234 178/132/291 175/131/288
f 370/302/236 368/296/232 244/128/287 246/135/299
f 372/306/240 371/305/239 187/139/303 247/138/302
f 374/308/242 373/301/235 245/133/308 248/140/307
f 375/309/243 370/302/236 246/135/299 249/142/312
f 377/311/245 376/290/226 236/121/318 250/144/317
f 371/305/239 375/309/243 249/142/312 187/139/303
f 378/315/247 377/314/245 250/148/317 251/147/326
f 379/319/249 372/318/240 247/151/302 252/150/330
f 380/320/250 378/315/247 251/147/326 253/153/334
f 381/323/253 380/320/250 253/153/334 255/156/337
f 383/289/225 382/322/252 254/154/340 196/122/339
f 384/325/255 381/323/253 255/156/337 256/158/342
f 365/327/228 384/325/255 256/158/342 181/160/283
f 382/322/252 362/221/189 204/61/349 254/154/340
f 363/224/191 383/289/225 196/122/339 241/62/355
f 376/290/226 356/253/211 243/91/357 236/121/318
f 359/231/196 379/319/249 252/150/330 200/71/358
f 369/298/234 349/252/210 238/88/356 178/132/291
f 354/249/209 374/308/242 248/140/307 190/87/363
f 373/301/235 353/259/215 180/97/364 245/133/308
f 346/270/220 366/293/229 235/124/282 242/107/347
