# Blender 4.0.1
# www.blender.org
o Bomber_Swizzle
v 1.772618 -0.694086 0.463774
v 1.772618 -0.590272 0.590272
v 1.772619 0.834771 -0.000000
v 1.772619 0.818731 -0.162856
v 1.772618 -0.771228 0.319453
v 1.772619 0.818731 0.162856
v 1.772618 -0.818731 0.162856
v 1.772619 0.771227 0.319453
v 1.772619 -0.834771 0.000000
v 1.772619 0.694086 0.463774
v 1.772618 -0.818731 -0.162856
v 1.772619 0.590272 0.590272
v 1.772618 -0.771228 -0.319453
v 1.772619 0.463774 0.694086
v 1.772618 -0.694086 -0.463774
v 1.772618 0.319453 0.771227
v 1.772618 0.162856 -0.818731
v 1.772618 0.000000 -0.834771
v 1.772618 -0.590272 -0.590272
v 1.772618 0.162856 0.818731
v 1.772618 0.319453 -0.771227
v 1.772618 -0.463774 -0.694086
v 1.772618 0.000000 0.834771
v 1.772619 0.463774 -0.694086
v 1.772619 -0.319453 -0.771227
v 1.772618 -0.162856 0.818731
v 1.772619 0.590272 -0.590272
v 1.772618 -0.162856 -0.818731
v 1.772619 -0.319453 0.771227
v 1.772619 0.694086 -0.463774
v 1.772618 -0.463774 0.694086
v 1.772619 0.771227 -0.319453
v 1.938551 0.608822 -0.252183
v 1.938551 0.646322 -0.128562
v 1.938551 -0.366112 0.547926
v 1.938551 -0.465972 0.465973
v 1.938551 0.547926 -0.366112
v 1.938551 -0.252182 0.608822
v 1.938551 -0.128562 -0.646322
v 1.938551 -0.000000 -0.658985
v 1.938551 0.465972 -0.465972
v 1.938551 -0.128562 0.646322
v 1.938551 -0.252182 -0.608822
v 1.938551 0.366112 -0.547926
v 1.938551 -0.000000 0.658985
v 1.938551 -0.366112 -0.547926
v 1.938551 0.252183 -0.608822
v 1.938551 0.128562 0.646322
v 1.938551 -0.465972 -0.465973
v 1.938551 0.128562 -0.646322
v 1.938551 0.252183 0.608822
v 1.938551 -0.547926 -0.366112
v 1.938551 0.366112 0.547926
v 1.938551 -0.608822 -0.252183
v 1.938551 0.465972 0.465972
v 1.938551 -0.646322 -0.128561
v 1.938551 0.547926 0.366112
v 1.938551 -0.658985 0.000000
v 1.938551 0.608822 0.252182
v 1.938551 -0.646322 0.128561
v 1.938551 0.646322 0.128562
v 1.938551 -0.608822 0.252183
v 1.938551 0.658985 0.000000
v 1.938551 -0.547926 0.366112
v 1.953460 0.660125 -0.131307
v 1.787527 0.832534 -0.165601
v 1.953460 -0.475924 0.475924
v 1.787527 -0.600223 0.600223
v 1.953460 -0.000000 -0.673058
v 1.787527 0.000000 -0.848844
v 1.818082 -0.692793 0.453782
v 1.818083 0.833215 -0.000000
v 1.818082 -0.769791 0.312570
v 1.818082 0.817205 0.159347
v 1.818082 -0.817205 0.159347
v 1.818082 0.769791 0.312570
v 1.818082 -0.833215 0.000000
v 1.818082 0.692793 0.453782
v 1.818082 -0.817205 -0.159347
v 1.818082 0.589172 0.577554
v 1.818082 -0.769791 -0.312570
v 1.818082 0.462910 0.679132
v 1.818082 -0.692793 -0.453782
v 1.818082 0.318858 0.754611
v 1.818082 0.162552 -0.801091
v 1.818082 -0.589172 -0.577554
v 1.818082 0.162552 0.801091
v 1.818082 0.318858 -0.754611
v 1.818082 -0.462910 -0.679132
v 1.818082 0.000000 0.816785
v 1.818082 0.462910 -0.679132
v 1.818082 -0.318858 -0.754611
v 1.818082 -0.162552 0.801091
v 1.818082 0.589172 -0.577554
v 1.818082 -0.162552 -0.801091
v 1.818082 -0.318858 0.754611
v 1.818082 0.692793 -0.453782
v 1.818082 -0.462910 0.679132
v 1.818082 0.769791 -0.312570
v 1.953460 0.621824 -0.257568
v 1.953460 -0.373931 0.559627
v 1.953460 0.559627 -0.373931
v 1.953460 -0.257568 0.621824
v 1.953460 -0.131307 -0.660125
v 1.953460 0.475924 -0.475924
v 1.953460 -0.131307 0.660125
v 1.953460 -0.257568 -0.621824
v 1.953460 0.373931 -0.559627
v 1.953460 -0.000000 0.673058
v 1.953460 -0.373931 -0.559627
v 1.953460 0.257568 -0.621824
v 1.953460 0.131307 0.660125
v 1.953460 -0.475924 -0.475924
v 1.953460 0.131307 -0.660125
v 1.953460 0.257568 0.621824
v 1.953460 -0.559627 -0.373931
v 1.953460 0.373931 0.559627
v 1.953460 -0.621824 -0.257568
v 1.953460 0.475924 0.475924
v 1.953460 -0.660125 -0.131307
v 1.953460 0.559627 0.373931
v 1.953460 -0.673058 0.000000
v 1.953460 0.621824 0.257568
v 1.953460 -0.660125 0.131307
v 1.953460 0.660125 0.131307
v 1.953460 -0.621824 0.257568
v 1.953460 0.673058 0.000000
v 1.953460 -0.559627 0.373931
v 1.020578 -1.033433 0.690518
v 1.020578 -0.878862 0.878862
v 1.020578 1.242899 -0.000000
v 1.020578 1.219017 -0.242478
v 1.020578 -1.148289 0.475637
v 1.020578 1.219017 0.242478
v 1.020578 -1.219017 0.242478
v 1.020578 1.148289 0.475637
v 1.020578 -1.242899 0.000000
v 1.020578 1.033433 0.690518
v 1.020578 -1.219017 -0.242478
v 1.020578 0.878862 0.878862
v 1.020578 -1.148289 -0.475637
v 1.020578 0.690518 1.033433
v 1.020578 -1.033433 -0.690518
v 1.020578 0.475637 1.148289
v 1.020578 0.242478 -1.219017
v 1.020578 0.000000 -1.242899
v 1.020578 -0.878862 -0.878862
v 1.020578 0.242478 1.219017
v 1.020578 0.475637 -1.148289
v 1.020578 -0.690518 -1.033433
v 1.020578 0.000000 1.242899
v 1.020578 0.690518 -1.033433
v 1.020578 -0.475637 -1.148289
v 1.020578 -0.242478 1.219017
v 1.020578 0.878862 -0.878862
v 1.020578 -0.242478 -1.219017
v 1.020578 -0.475637 1.148289
v 1.020578 1.033433 -0.690518
v 1.020578 -0.690518 1.033433
v 1.020578 1.148289 -0.475637
v 1.262480 1.091287 -0.452026
v 1.262480 1.158504 -0.230441
v 1.262480 -0.656240 0.982132
v 1.262480 -0.835235 0.835235
v 1.262480 0.982132 -0.656240
v 1.262480 -0.452026 1.091287
v 1.262480 -0.230441 -1.158504
v 1.262480 0.000000 -1.181200
v 1.262480 0.835235 -0.835235
v 1.262480 -0.230441 1.158504
v 1.262480 -0.452026 -1.091287
v 1.262480 0.656240 -0.982132
v 1.262480 0.000000 1.181200
v 1.262480 -0.656240 -0.982132
v 1.262480 0.452026 -1.091287
v 1.262480 0.230441 1.158504
v 1.262480 -0.835235 -0.835235
v 1.262480 0.230441 -1.158504
v 1.262480 0.452026 1.091287
v 1.262480 -0.982132 -0.656240
v 1.262480 0.656240 0.982132
v 1.262480 -1.091287 -0.452026
v 1.262480 0.835235 0.835235
v 1.262480 -1.158504 -0.230441
v 1.262480 0.982132 0.656240
v 1.262480 -1.181200 0.000000
v 1.262480 1.091287 0.452026
v 1.262480 -1.158504 0.230441
v 1.262480 1.158504 0.230441
v 1.262480 -1.091287 0.452026
v 1.262480 1.181200 0.000000
v 1.262480 -0.982132 0.656240
v 1.267547 1.177988 -0.234316
v 1.025645 1.238501 -0.246353
v 1.267547 -0.849282 0.849282
v 1.025644 -0.892910 0.892910
v 1.267547 0.000000 -1.201066
v 1.025645 0.000000 -1.262765
v 1.068487 -1.061892 0.695542
v 1.068487 1.277126 -0.000000
v 1.068487 -1.179911 0.479098
v 1.068487 1.252587 0.244242
v 1.068487 -1.252587 0.244242
v 1.068487 1.179911 0.479098
v 1.068487 -1.277126 -0.000000
v 1.068487 1.061892 0.695542
v 1.068487 -1.252587 -0.244242
v 1.068487 0.903065 0.885257
v 1.068487 -1.179911 -0.479098
v 1.068487 0.709533 1.040952
v 1.068487 -1.061892 -0.695542
v 1.068487 0.488735 1.156644
v 1.068487 0.249155 -1.227887
v 1.068487 -0.903065 -0.885257
v 1.068487 0.249155 1.227887
v 1.068487 0.488735 -1.156644
v 1.068487 -0.709533 -1.040952
v 1.068487 -0.000000 1.251943
v 1.068487 0.709533 -1.040952
v 1.068487 -0.488735 -1.156644
v 1.068487 -0.249155 1.227887
v 1.068487 0.903065 -0.885257
v 1.068487 -0.249155 -1.227887
v 1.068487 -0.488735 1.156644
v 1.068487 1.061892 -0.695542
v 1.068487 -0.709533 1.040952
v 1.068487 1.179911 -0.479098
v 1.267547 1.109640 -0.459628
v 1.267547 -0.667277 0.998650
v 1.267547 0.998650 -0.667277
v 1.267547 -0.459628 1.109640
v 1.267547 -0.234316 -1.177988
v 1.267547 0.849282 -0.849282
v 1.267547 -0.234316 1.177988
v 1.267547 -0.459628 -1.109640
v 1.267547 0.667277 -0.998650
v 1.267547 0.000000 1.201066
v 1.267547 -0.667277 -0.998650
v 1.267547 0.459628 -1.109640
v 1.267547 0.234316 1.177988
v 1.267547 -0.849282 -0.849282
v 1.267547 0.234316 -1.177988
v 1.267547 0.459628 1.109640
v 1.267547 -0.998650 -0.667277
v 1.267547 0.667277 0.998650
v 1.267547 -1.109640 -0.459628
v 1.267547 0.849282 0.849282
v 1.267547 -1.177988 -0.234316
v 1.267547 0.998650 0.667277
v 1.267547 -1.201066 0.000000
v 1.267547 1.109640 0.459628
v 1.267547 -1.177988 0.234316
v 1.267547 1.177988 0.234316
v 1.267547 -1.109640 0.459628
v 1.267547 1.201066 0.000000
v 1.267547 -0.998650 0.667277
v 1.787527 -0.705788 0.471592
v 1.818082 -0.589172 0.577554
v 1.787527 0.848844 -0.000000
v 1.818082 0.817205 -0.159347
v 1.787527 -0.784229 0.324839
v 1.787527 0.832533 0.165601
v 1.787527 -0.832534 0.165601
v 1.787527 0.784229 0.324839
v 1.787527 -0.848844 0.000000
v 1.787527 0.705788 0.471592
v 1.787527 -0.832534 -0.165601
v 1.787527 0.600223 0.600223
v 1.787527 -0.784229 -0.324839
v 1.787527 0.471592 0.705788
v 1.787527 -0.705788 -0.471592
v 1.787527 0.324838 0.784229
v 1.787527 0.165601 -0.832534
v 1.818082 0.000000 -0.816785
v 1.787527 -0.600223 -0.600223
v 1.787527 0.165601 0.832534
v 1.787527 0.324838 -0.784229
v 1.787527 -0.471592 -0.705788
v 1.787527 0.000000 0.848844
v 1.787527 0.471592 -0.705788
v 1.787527 -0.324838 -0.784229
v 1.787527 -0.165601 0.832534
v 1.787527 0.600223 -0.600223
v 1.787527 -0.165601 -0.832534
v 1.787527 -0.324838 0.784229
v 1.787527 0.705788 -0.471592
v 1.787527 -0.471592 0.705788
v 1.787527 0.784229 -0.324838
v 1.922905 0.664547 -0.269836
v 1.922905 0.705479 -0.137561
v 1.922905 -0.399622 0.586283
v 1.922904 -0.508622 0.498593
v 1.922905 0.598076 -0.391742
v 1.922905 -0.275264 0.651442
v 1.922905 -0.140329 -0.691568
v 1.922904 -0.000000 -0.705116
v 1.922905 0.508622 -0.498592
v 1.922905 -0.140329 0.691568
v 1.922905 -0.275264 -0.651442
v 1.922905 0.399622 -0.586283
v 1.922905 -0.000000 0.705116
v 1.922905 -0.399622 -0.586283
v 1.922905 0.275264 -0.651442
v 1.922905 0.140329 0.691568
v 1.922905 -0.508622 -0.498593
v 1.922905 0.140329 -0.691568
v 1.922905 0.275264 0.651442
v 1.922904 -0.598076 -0.391742
v 1.922905 0.399622 0.586283
v 1.922904 -0.664547 -0.269836
v 1.922905 0.508622 0.498592
v 1.922904 -0.705479 -0.137561
v 1.922905 0.598076 0.391742
v 1.922905 -0.719300 0.000000
v 1.922905 0.664547 0.269836
v 1.922904 -0.705479 0.137561
v 1.922905 0.705479 0.137561
v 1.922904 -0.664547 0.269836
v 1.922905 0.719300 0.000000
v 1.922904 -0.598076 0.391742
v 1.025644 -1.049951 0.701555
v 1.068487 -0.903065 0.885257
v 1.025645 1.262765 0.000000
v 1.068487 1.252587 -0.244242
v 1.025644 -1.166643 0.483239
v 1.025645 1.238501 0.246353
v 1.025645 -1.238502 0.246353
v 1.025645 1.166643 0.483239
v 1.025645 -1.262765 -0.000000
v 1.025645 1.049951 0.701555
v 1.025645 -1.238502 -0.246353
v 1.025645 0.892910 0.892910
v 1.025644 -1.166643 -0.483239
v 1.025645 0.701555 1.049951
v 1.025644 -1.049951 -0.701555
v 1.025645 0.483239 1.166643
v 1.025645 0.246353 -1.238501
v 1.068487 -0.000000 -1.251943
v 1.025644 -0.892910 -0.892910
v 1.025645 0.246353 1.238501
v 1.025645 0.483239 -1.166643
v 1.025645 -0.701555 -1.049951
v 1.025645 0.000000 1.262765
v 1.025645 0.701555 -1.049951
v 1.025645 -0.483239 -1.166643
v 1.025645 -0.246353 1.238501
v 1.025645 0.892910 -0.892910
v 1.025645 -0.246353 -1.238501
v 1.025645 -0.483239 1.166643
v 1.025645 1.049951 -0.701555
v 1.025645 -0.701555 1.049951
v 1.025645 1.166643 -0.483239
v 1.224705 1.142161 -0.463770
v 1.224705 1.212512 -0.236428
v 1.224705 -0.686833 1.007648
v 1.224705 -0.874172 0.856935
v 1.224705 1.027918 -0.673289
v 1.224705 -0.473099 1.119639
v 1.224705 -0.241184 -1.188602
v 1.224705 0.000000 -1.211888
v 1.224705 0.874172 -0.856935
v 1.224705 -0.241184 1.188602
v 1.224705 -0.473099 -1.119639
v 1.224705 0.686833 -1.007648
v 1.224705 0.000000 1.211888
v 1.224705 -0.686833 -1.007648
v 1.224705 0.473099 -1.119639
v 1.224705 0.241184 1.188602
v 1.224705 -0.874172 -0.856935
v 1.224705 0.241184 -1.188602
v 1.224705 0.473099 1.119639
v 1.224705 -1.027918 -0.673289
v 1.224705 0.686833 1.007648
v 1.224705 -1.142161 -0.463770
v 1.224705 0.874172 0.856935
v 1.224705 -1.212512 -0.236428
v 1.224705 1.027918 0.673289
v 1.224705 -1.236266 0.000000
v 1.224705 1.142161 0.463770
v 1.224705 -1.212512 0.236428
v 1.224705 1.212512 0.236428
v 1.224705 -1.142161 0.463770
v 1.224705 1.236266 0.000000
v 1.224705 -1.027918 0.673289
vn -0.0302 0.7068 -0.7068
vn -0.0302 0.8311 -0.5553
vn -0.9973 -0.0605 0.0404
vn -0.9973 -0.0515 0.0515
vn -0.0302 -0.9803 0.1950
vn -0.0302 -0.9995 -0.0000
vn -0.9973 0.0728 -0.0000
vn -0.9973 0.0714 -0.0142
vn -0.0302 0.9235 -0.3825
vn -0.9973 -0.0673 0.0279
vn -0.0302 -0.9803 -0.1950
vn -0.9973 0.0714 0.0142
vn -0.0302 0.9803 -0.1950
vn -0.9973 -0.0714 0.0142
vn -0.0302 -0.9235 -0.3825
vn -0.9973 0.0673 0.0279
vn -0.0302 0.9995 -0.0000
vn -0.9973 -0.0728 -0.0000
vn -0.0302 -0.8311 -0.5553
vn -0.9973 0.0605 0.0404
vn -0.0302 0.9803 0.1950
vn -0.9973 -0.0714 -0.0142
vn -0.0302 -0.7068 -0.7068
vn -0.9973 0.0515 0.0515
vn -0.0302 0.9235 0.3825
vn -0.9973 -0.0673 -0.0279
vn -0.0302 -0.5553 -0.8311
vn -0.9973 0.0404 0.0605
vn -0.0302 0.8311 0.5553
vn -0.9973 -0.0605 -0.0404
vn -0.0302 -0.3825 -0.9235
vn -0.9973 0.0279 0.0673
vn -0.0302 -0.0000 0.9995
vn -0.0302 -0.1950 0.9803
vn -0.9973 0.0142 -0.0714
vn -0.9973 -0.0000 -0.0728
vn -0.0302 0.7068 0.7068
vn -0.9973 -0.0515 -0.0515
vn -0.0302 -0.1950 -0.9803
vn -0.9973 0.0142 0.0714
vn -0.0302 -0.3825 0.9235
vn -0.9973 0.0279 -0.0673
vn -0.0302 0.5553 0.8311
vn -0.9973 -0.0404 -0.0605
vn -0.0302 -0.0000 -0.9995
vn -0.9973 -0.0000 0.0728
vn -0.0302 -0.5553 0.8311
vn -0.9973 0.0404 -0.0605
vn -0.0302 0.3825 0.9235
vn -0.9973 -0.0279 -0.0673
vn -0.0302 0.1950 -0.9803
vn -0.9973 -0.0142 0.0714
vn -0.0302 -0.7068 0.7068
vn -0.9973 0.0515 -0.0515
vn -0.0302 0.1950 0.9803
vn -0.9973 -0.0142 -0.0714
vn -0.0302 0.3825 -0.9235
vn -0.9973 -0.0279 0.0673
vn -0.0302 -0.8311 0.5553
vn -0.9973 0.0605 -0.0404
vn -0.0302 0.5553 -0.8311
vn -0.9973 -0.0404 0.0605
vn -0.0302 -0.9235 0.3825
vn -0.9973 0.0673 -0.0279
vn 0.7601 -0.4574 0.4617
vn 0.6719 -0.5245 0.5229
vn 0.6470 -0.6348 0.4224
vn 0.7703 -0.5286 0.3567
vn 0.7831 0.6097 -0.1226
vn 0.6074 0.7793 -0.1541
vn 0.6015 0.7989 -0.0000
vn 0.7848 0.6198 -0.0000
vn 0.6239 -0.7226 0.2977
vn 0.7782 -0.5793 0.2425
vn 0.6074 0.7793 0.1541
vn 0.7831 0.6097 0.1226
vn 0.6074 -0.7793 0.1541
vn 0.7831 -0.6097 0.1226
vn 0.6239 0.7226 0.2977
vn 0.7782 0.5793 0.2425
vn 0.6015 -0.7989 -0.0000
vn 0.7848 -0.6198 -0.0000
vn 0.6470 0.6348 0.4224
vn 0.7703 0.5286 0.3567
vn 0.6074 -0.7793 -0.1541
vn 0.7831 -0.6097 -0.1226
vn 0.6719 0.5245 0.5229
vn 0.7601 0.4574 0.4617
vn 0.6239 -0.7226 -0.2977
vn 0.7782 -0.5793 -0.2425
vn 0.6944 0.4004 0.5980
vn 0.7487 0.3661 0.5527
vn 0.6470 -0.6348 -0.4224
vn 0.7703 -0.5286 -0.3567
vn 0.7115 0.2692 0.6491
vn 0.7379 0.2565 0.6242
vn 0.7273 -0.0000 -0.6863
vn 0.7255 -0.0000 -0.6882
vn 0.7220 0.1351 -0.6786
vn 0.7301 0.1323 -0.6704
vn 0.6719 -0.5245 -0.5229
vn 0.7601 -0.4574 -0.4617
vn 0.7220 0.1351 0.6786
vn 0.7301 0.1323 0.6704
vn 0.7115 0.2692 -0.6491
vn 0.7379 0.2565 -0.6242
vn 0.6944 -0.4004 -0.5980
vn 0.7487 -0.3661 -0.5527
vn 0.7255 -0.0000 0.6882
vn 0.7273 -0.0000 0.6863
vn 0.6944 0.4004 -0.5980
vn 0.7487 0.3661 -0.5527
vn 0.7115 -0.2692 -0.6491
vn 0.7379 -0.2565 -0.6242
vn 0.7220 -0.1351 0.6786
vn 0.7301 -0.1323 0.6704
vn 0.6719 0.5245 -0.5229
vn 0.7601 0.4574 -0.4617
vn 0.7220 -0.1351 -0.6786
vn 0.7301 -0.1323 -0.6704
vn 0.7115 -0.2692 0.6491
vn 0.7379 -0.2565 0.6242
vn 0.6470 0.6348 -0.4224
vn 0.7703 0.5286 -0.3567
vn 0.6944 -0.4004 0.5980
vn 0.7487 -0.3661 0.5527
vn 0.6239 0.7226 -0.2977
vn 0.7782 0.5793 -0.2425
vn 0.9988 0.0443 -0.0226
vn 0.9980 0.0596 -0.0201
vn 1.0000 0.0046 0.0036
vn 0.9999 0.0138 -0.0083
vn -0.0748 -0.8245 -0.5608
vn -0.1048 -0.9162 -0.3867
vn 0.9975 -0.0703 0.0118
vn 0.9972 -0.0742 -0.0000
vn 0.9999 0.0006 -0.0131
vn 0.9999 -0.0000 -0.0168
vn 0.0065 0.3779 0.9258
vn -0.0150 0.5495 0.8353
vn 0.9994 0.0278 -0.0182
vn 0.9994 -0.0278 0.0182
vn 0.9988 -0.0443 0.0226
vn 0.0197 0.1924 -0.9811
vn 0.0241 -0.0000 -0.9997
vn 0.9999 0.0006 0.0131
vn -0.0431 -0.7006 -0.7123
vn 1.0000 0.0046 -0.0036
vn 0.0197 0.1924 0.9811
vn 0.9999 -0.0138 0.0083
vn 0.0065 0.3779 -0.9258
vn 0.9999 -0.0000 0.0168
vn -0.0150 -0.5495 -0.8353
vn 0.9999 0.0138 0.0083
vn 0.0241 -0.0000 0.9997
vn 1.0000 -0.0046 -0.0036
vn -0.0150 0.5495 -0.8353
vn 0.9999 -0.0006 0.0131
vn 0.0065 -0.3779 -0.9258
vn 0.9994 0.0278 0.0182
vn 0.0197 -0.1924 0.9811
vn 0.9999 -0.0006 -0.0131
vn -0.0431 0.7006 -0.7123
vn 1.0000 -0.0046 0.0036
vn 0.0197 -0.1924 -0.9811
vn 0.9988 0.0443 0.0226
vn 0.0065 -0.3779 0.9258
vn -0.0748 0.8245 -0.5608
vn -0.0748 -0.8245 0.5608
vn -0.0431 -0.7006 0.7123
vn 0.9999 -0.0138 -0.0083
vn -0.1346 0.9909 -0.0000
vn -0.1266 0.9722 -0.1972
vn 0.9980 0.0596 0.0201
vn -0.0150 -0.5495 0.8353
vn -0.1048 -0.9162 0.3867
vn 0.9994 -0.0278 -0.0182
vn -0.1048 0.9162 -0.3867
vn -0.1266 0.9722 0.1972
vn 0.9975 0.0703 0.0118
vn -0.1266 -0.9722 0.1972
vn 0.9988 -0.0443 -0.0226
vn -0.1048 0.9162 0.3867
vn 0.9972 0.0742 -0.0000
vn -0.1346 -0.9909 -0.0000
vn 0.9980 -0.0596 -0.0201
vn -0.0748 0.8245 0.5608
vn 0.9975 0.0703 -0.0118
vn -0.1266 -0.9722 -0.1972
vn 0.9975 -0.0703 -0.0118
vn 0.9980 -0.0596 0.0201
vn -0.0431 0.7006 0.7123
vn 0.5308 0.5993 -0.5993
vn 0.5308 0.7047 -0.4709
vn -0.8793 0.3960 -0.2646
vn -0.8793 0.3368 -0.3368
vn 0.5308 -0.8312 0.1653
vn 0.5308 -0.8475 -0.0000
vn -0.8793 -0.4763 -0.0000
vn -0.8793 -0.4671 0.0929
vn 0.5308 0.7830 -0.3243
vn -0.8793 0.4400 -0.1823
vn 0.5308 -0.8312 -0.1653
vn -0.8793 -0.4671 -0.0929
vn 0.5308 0.8312 -0.1653
vn -0.8793 0.4671 -0.0929
vn 0.5308 -0.7830 -0.3243
vn -0.8793 -0.4400 -0.1823
vn 0.5308 0.8475 -0.0000
vn -0.8793 0.4763 -0.0000
vn 0.5308 -0.7047 -0.4709
vn -0.8793 -0.3960 -0.2646
vn 0.5308 0.8312 0.1653
vn -0.8793 0.4671 0.0929
vn 0.5308 -0.5993 -0.5993
vn -0.8793 -0.3368 -0.3368
vn 0.5308 0.7830 0.3243
vn -0.8793 0.4400 0.1823
vn 0.5308 -0.4709 -0.7047
vn -0.8793 -0.2646 -0.3960
vn 0.5308 0.7047 0.4709
vn -0.8793 0.3960 0.2646
vn 0.5308 -0.3243 -0.7830
vn -0.8793 -0.1823 -0.4400
vn 0.5308 -0.0000 0.8475
vn 0.5308 -0.1653 0.8312
vn -0.8793 -0.0929 0.4671
vn -0.8793 -0.0000 0.4763
vn 0.5308 0.5993 0.5993
vn -0.8793 0.3368 0.3368
vn 0.5308 -0.1653 -0.8312
vn -0.8793 -0.0929 -0.4671
vn 0.5308 -0.3243 0.7830
vn -0.8793 -0.1823 0.4400
vn 0.5308 0.4709 0.7047
vn -0.8793 0.2646 0.3960
vn 0.5308 -0.0000 -0.8475
vn -0.8793 -0.0000 -0.4763
vn 0.5308 -0.4709 0.7047
vn -0.8793 -0.2646 0.3960
vn 0.5308 0.3243 0.7830
vn -0.8793 0.1823 0.4400
vn 0.5308 0.1653 -0.8312
vn -0.8793 0.0929 -0.4671
vn 0.5308 -0.5993 0.5993
vn -0.8793 -0.3368 0.3368
vn 0.5308 0.1653 0.8312
vn -0.8793 0.0929 0.4671
vn 0.5308 0.3243 -0.7830
vn -0.8793 0.1823 -0.4400
vn 0.5308 -0.7047 0.4709
vn -0.8793 -0.3960 0.2646
vn 0.5308 0.4708 -0.7047
vn -0.8793 0.2646 -0.3960
vn 0.5308 -0.7830 0.3243
vn -0.8793 -0.4400 0.1823
vn 0.3643 -0.6577 0.6593
vn 0.1006 -0.7049 0.7022
vn 0.0478 -0.8313 0.5537
vn 0.3995 -0.7614 0.5106
vn 0.4422 0.8795 -0.1758
vn -0.0215 0.9806 -0.1947
vn -0.0307 0.9995 -0.0000
vn 0.4477 0.8942 -0.0000
vn 0.0054 -0.9242 0.3819
vn 0.4260 -0.8353 0.3476
vn -0.0215 0.9806 0.1947
vn 0.4422 0.8795 0.1758
vn -0.0215 -0.9806 0.1947
vn 0.4422 -0.8795 0.1758
vn 0.0054 0.9242 0.3819
vn 0.4260 0.8353 0.3476
vn -0.0307 -0.9995 -0.0000
vn 0.4477 -0.8942 -0.0000
vn 0.0478 0.8313 0.5537
vn 0.3995 0.7614 0.5106
vn -0.0215 -0.9806 -0.1947
vn 0.4422 -0.8795 -0.1758
vn 0.1006 0.7049 0.7022
vn 0.3643 0.6577 0.6593
vn 0.0054 -0.9242 -0.3819
vn 0.4260 -0.8353 -0.3476
vn 0.1553 0.5505 0.8203
vn 0.3243 0.5251 0.7868
vn 0.0478 -0.8313 -0.5537
vn 0.3995 -0.7614 -0.5106
vn 0.2022 0.3762 0.9042
vn 0.2865 0.3666 0.8852
vn 0.2491 -0.0000 -0.9685
vn 0.2440 -0.0000 -0.9698
vn 0.2332 0.1906 -0.9536
vn 0.2591 0.1886 -0.9473
vn 0.1006 -0.7049 -0.7022
vn 0.3643 -0.6577 -0.6593
vn 0.2332 0.1906 0.9536
vn 0.2591 0.1886 0.9473
vn 0.2022 0.3762 -0.9042
vn 0.2865 0.3666 -0.8852
vn 0.1553 -0.5505 -0.8203
vn 0.3243 -0.5251 -0.7868
vn 0.2440 -0.0000 0.9698
vn 0.2491 -0.0000 0.9685
vn 0.1553 0.5505 -0.8203
vn 0.3243 0.5251 -0.7868
vn 0.2022 -0.3762 -0.9042
vn 0.2865 -0.3666 -0.8852
vn 0.2332 -0.1906 0.9536
vn 0.2591 -0.1886 0.9473
vn 0.1006 0.7049 -0.7022
vn 0.3643 0.6577 -0.6593
vn 0.2332 -0.1906 -0.9536
vn 0.2591 -0.1886 -0.9473
vn 0.2022 -0.3762 0.9042
vn 0.2865 -0.3666 0.8852
vn 0.0478 0.8313 -0.5537
vn 0.3995 0.7614 -0.5106
vn 0.1553 -0.5505 0.8203
vn 0.3243 -0.5251 0.7868
vn 0.0054 0.9242 -0.3819
vn 0.4260 0.8353 -0.3476
vn -0.6507 0.6239 -0.4328
vn -0.6076 0.5511 -0.5720
vn -0.6507 -0.6239 0.4328
vn -0.6076 -0.5511 0.5720
vn 0.8791 0.2538 0.4034
vn 0.8600 0.1852 0.4754
vn -0.4953 -0.0000 -0.8687
vn -0.5035 -0.1629 -0.8485
vn -0.7162 0.6979 -0.0000
vn -0.7085 0.6911 -0.1428
vn 0.9294 -0.3379 -0.1483
vn 0.9167 -0.3261 -0.2310
vn -0.5639 -0.4472 0.6942
vn -0.5274 -0.3153 0.7889
vn -0.6860 -0.6684 0.2875
vn 0.8992 0.3001 0.3184
vn -0.6860 0.6684 -0.2875
vn -0.7085 0.6911 0.1428
vn 0.9370 -0.3418 -0.0720
vn -0.7085 -0.6911 0.1428
vn 0.9167 0.3261 0.2310
vn -0.6860 0.6684 0.2875
vn 0.9395 -0.3426 -0.0000
vn -0.7162 -0.6979 -0.0000
vn 0.9294 0.3379 0.1483
vn -0.6507 0.6239 0.4328
vn 0.9370 -0.3418 0.0720
vn -0.7085 -0.6911 -0.1428
vn 0.9370 0.3418 0.0720
vn 0.9294 0.3379 -0.1483
vn 0.9370 0.3418 -0.0720
vn -0.6076 0.5511 0.5720
vn 0.9294 -0.3379 0.1483
vn 0.8791 -0.2538 0.4034
vn 0.8992 -0.3001 0.3184
vn -0.6860 -0.6684 -0.2875
vn 0.9395 0.3426 -0.0000
vn 0.9167 0.3261 -0.2310
vn -0.5639 0.4472 0.6942
vn 0.9167 -0.3261 0.2310
vn 0.8600 -0.1852 0.4754
vn -0.6507 -0.6239 -0.4328
vn 0.8464 -0.0979 -0.5235
vn 0.8414 -0.0000 -0.5404
vn -0.5274 0.3153 0.7889
vn 0.8992 0.3001 -0.3184
vn -0.5035 0.1629 -0.8485
vn 0.8464 -0.0979 0.5235
vn -0.6076 -0.5511 -0.5720
vn 0.8600 -0.1852 -0.4754
vn -0.5035 0.1629 0.8485
vn 0.8791 0.2538 -0.4034
vn -0.5274 0.3153 -0.7889
vn 0.8414 -0.0000 0.5404
vn -0.5639 -0.4472 -0.6942
vn 0.8791 -0.2538 -0.4034
vn -0.4953 -0.0000 0.8687
vn 0.8600 0.1852 -0.4754
vn -0.5639 0.4472 -0.6942
vn 0.8464 0.0979 0.5235
vn -0.5274 -0.3153 -0.7889
vn 0.8992 -0.3001 -0.3184
vn -0.5035 -0.1629 0.8485
vn 0.8464 0.0979 -0.5235
vt 0.150618 0.819069
vt 0.161169 0.820030
vt 0.180257 0.802565
vt 0.166896 0.801349
vt 0.341694 0.787770
vt 0.356957 0.788268
vt 0.356294 0.765337
vt 0.336974 0.764706
vt 0.857779 0.438912
vt 0.850329 0.429110
vt 0.826742 0.427269
vt 0.836175 0.439681
vt 0.372497 0.789216
vt 0.375963 0.766536
vt 0.845581 0.417904
vt 0.820732 0.413085
vt 0.387710 0.790576
vt 0.395219 0.768258
vt 0.843721 0.405728
vt 0.818378 0.397674
vt 0.402012 0.792298
vt 0.413321 0.770437
vt 0.844820 0.393051
vt 0.819769 0.381628
vt 0.414853 0.794314
vt 0.429574 0.772988
vt 0.848837 0.380359
vt 0.824853 0.365564
vt 0.425740 0.796547
vt 0.443358 0.775816
vt 0.855616 0.368140
vt 0.833434 0.350099
vt 0.050668 0.806827
vt 0.063788 0.808694
vt 0.056995 0.788217
vt 0.040382 0.785853
vt 0.918787 0.328977
vt 0.933841 0.327655
vt 0.932445 0.298857
vt 0.913388 0.300530
vt 0.864897 0.356864
vt 0.845182 0.335827
vt 0.078251 0.810646
vt 0.075302 0.790687
vt 0.948398 0.328831
vt 0.950870 0.300345
vt 0.876325 0.346965
vt 0.859645 0.323297
vt 0.093498 0.812605
vt 0.094600 0.793167
vt 0.961892 0.332460
vt 0.967949 0.304939
vt 0.889458 0.338822
vt 0.876269 0.312990
vt 0.108941 0.814497
vt 0.114146 0.795561
vt 0.973804 0.338404
vt 0.983027 0.312462
vt 0.903793 0.332748
vt 0.894413 0.305303
vt 0.123987 0.816248
vt 0.133190 0.797778
vt 0.983677 0.346433
vt 0.995526 0.322628
vt 0.138057 0.817792
vt 0.150999 0.799732
vt 0.314280 0.788180
vt 0.327275 0.787741
vt 0.318726 0.764669
vt 0.302270 0.765226
vt 0.153601 0.815823
vt 0.163915 0.804596
vt 0.176761 0.805765
vt 0.164665 0.816830
vt 0.340831 0.783545
vt 0.337841 0.768932
vt 0.356414 0.769538
vt 0.356834 0.784067
vt 0.853820 0.439052
vt 0.840134 0.439541
vt 0.831064 0.427608
vt 0.846009 0.428774
vt 0.375327 0.770691
vt 0.373130 0.785061
vt 0.825285 0.413969
vt 0.841029 0.417022
vt 0.393842 0.772347
vt 0.389084 0.786487
vt 0.823021 0.399151
vt 0.839078 0.404254
vt 0.411248 0.774442
vt 0.404082 0.788292
vt 0.824358 0.383722
vt 0.840231 0.390959
vt 0.426876 0.776895
vt 0.417549 0.790406
vt 0.829246 0.368276
vt 0.844442 0.377650
vt 0.440131 0.779614
vt 0.428966 0.792748
vt 0.837497 0.353405
vt 0.851551 0.364836
vt 0.048785 0.802984
vt 0.042265 0.789695
vt 0.058238 0.791969
vt 0.062542 0.804943
vt 0.917799 0.323765
vt 0.914379 0.305741
vt 0.932699 0.304133
vt 0.933583 0.322379
vt 0.848793 0.339682
vt 0.861284 0.353011
vt 0.075841 0.794344
vt 0.077710 0.806989
vt 0.950416 0.305564
vt 0.948849 0.323612
vt 0.862700 0.327634
vt 0.873267 0.342630
vt 0.094396 0.796728
vt 0.093698 0.809043
vt 0.966838 0.309981
vt 0.963000 0.327418
vt 0.878684 0.317724
vt 0.887040 0.334090
vt 0.113191 0.799030
vt 0.109893 0.811027
vt 0.981336 0.317214
vt 0.975493 0.333650
vt 0.896130 0.310332
vt 0.902073 0.327721
vt 0.131502 0.801162
vt 0.125671 0.812864
vt 0.993356 0.326991
vt 0.985847 0.342071
vt 0.148627 0.803041
vt 0.140427 0.814483
vt 0.312081 0.783975
vt 0.304469 0.769431
vt 0.320290 0.768896
vt 0.325707 0.783514
vt 0.201785 0.744756
vt 0.220698 0.746478
vt 0.230101 0.718417
vt 0.210203 0.716606
vt 0.328931 0.697619
vt 0.356289 0.698511
vt 0.357387 0.668623
vt 0.328607 0.667684
vt 0.542918 0.759935
vt 0.566534 0.763263
vt 0.561167 0.738309
vt 0.536320 0.734807
vt 0.384134 0.700209
vt 0.386680 0.670409
vt 0.592569 0.764786
vt 0.588555 0.739911
vt 0.411394 0.702647
vt 0.415356 0.672974
vt 0.620019 0.764444
vt 0.617431 0.739552
vt 0.437021 0.705732
vt 0.442315 0.676219
vt 0.647829 0.762252
vt 0.646687 0.737245
vt 0.460030 0.709344
vt 0.466520 0.680018
vt 0.674931 0.758292
vt 0.675198 0.733080
vt 0.479536 0.713345
vt 0.487043 0.684228
vt 0.700283 0.752718
vt 0.701871 0.727215
vt 0.022689 0.722819
vt 0.046205 0.726166
vt 0.046537 0.697050
vt 0.021795 0.693527
vt 0.897424 0.231753
vt 0.924408 0.229384
vt 0.918539 0.206591
vt 0.890152 0.209083
vt 0.784240 0.301922
vt 0.800870 0.281720
vt 0.788580 0.261647
vt 0.771083 0.282902
vt 0.072123 0.729663
vt 0.073801 0.700728
vt 0.950492 0.231492
vt 0.945979 0.208808
vt 0.821346 0.263982
vt 0.810120 0.242987
vt 0.099442 0.733173
vt 0.102540 0.704421
vt 0.974671 0.237996
vt 0.971417 0.215652
vt 0.844880 0.249392
vt 0.834877 0.227638
vt 0.127113 0.736563
vt 0.131650 0.707987
vt 0.244250 0.702303
vt 0.259933 0.699954
vt 0.256024 0.670140
vt 0.239523 0.672612
vt 0.870567 0.238509
vt 0.861900 0.216190
vt 0.154073 0.739701
vt 0.160011 0.711288
vt 0.279806 0.698354
vt 0.276929 0.668457
vt 0.179286 0.742468
vt 0.186534 0.714198
vt 0.303103 0.697565
vt 0.301437 0.667628
vt 0.203276 0.739773
vt 0.208714 0.721588
vt 0.228437 0.723384
vt 0.222362 0.741511
vt 0.328875 0.692320
vt 0.328666 0.672982
vt 0.357192 0.673913
vt 0.356482 0.693221
vt 0.541751 0.755487
vt 0.537487 0.739255
vt 0.562116 0.742726
vt 0.565583 0.758846
vt 0.386228 0.675684
vt 0.384584 0.694935
vt 0.589264 0.744314
vt 0.591857 0.760383
vt 0.414654 0.678226
vt 0.412094 0.697395
vt 0.617888 0.743958
vt 0.619560 0.760038
vt 0.441377 0.681442
vt 0.437957 0.700508
vt 0.646888 0.741671
vt 0.647626 0.757825
vt 0.465370 0.685209
vt 0.461178 0.704153
vt 0.675150 0.737543
vt 0.674977 0.753830
vt 0.485715 0.689382
vt 0.480864 0.708191
vt 0.701591 0.731729
vt 0.700563 0.748204
vt 0.022532 0.717634
vt 0.021952 0.698712
vt 0.046477 0.702203
vt 0.046263 0.721012
vt 0.896138 0.227741
vt 0.891440 0.213095
vt 0.919577 0.210625
vt 0.923368 0.225350
vt 0.781912 0.298555
vt 0.773411 0.286269
vt 0.790754 0.265201
vt 0.798694 0.278168
vt 0.073503 0.705849
vt 0.072419 0.724541
vt 0.946777 0.212823
vt 0.949692 0.227477
vt 0.812106 0.246704
vt 0.819358 0.260267
vt 0.101991 0.709510
vt 0.099989 0.728084
vt 0.971994 0.219607
vt 0.974094 0.234041
vt 0.836647 0.231489
vt 0.843109 0.245542
vt 0.130846 0.713044
vt 0.127915 0.731505
vt 0.243414 0.697048
vt 0.240359 0.677868
vt 0.256715 0.675417
vt 0.259241 0.694677
vt 0.863433 0.220141
vt 0.869032 0.234559
vt 0.158959 0.716317
vt 0.155123 0.734672
vt 0.277438 0.673749
vt 0.279296 0.693062
vt 0.185250 0.719202
vt 0.180568 0.737464
vt 0.301731 0.672927
vt 0.302807 0.692267
s 1
f 36/1/1 64/2/2 1/3/3 2/4/4
f 34/5/5 63/6/6 3/7/7 4/8/8
f 64/9/2 62/10/9 5/11/10 1/12/3
f 63/6/6 61/13/11 6/14/12 3/7/7
f 62/10/9 60/15/13 7/16/14 5/11/10
f 61/13/11 59/17/15 8/18/16 6/14/12
f 60/15/13 58/19/17 9/20/18 7/16/14
f 59/17/15 57/21/19 10/22/20 8/18/16
f 58/19/17 56/23/21 11/24/22 9/20/18
f 57/21/19 55/25/23 12/26/24 10/22/20
f 56/23/21 54/27/25 13/28/26 11/24/22
f 55/25/23 53/29/27 14/30/28 12/26/24
f 54/27/25 52/31/29 15/32/30 13/28/26
f 53/33/27 51/34/31 16/35/32 14/36/28
f 40/37/33 50/38/34 17/39/35 18/40/36
f 52/31/29 49/41/37 19/42/38 15/32/30
f 51/34/31 48/43/39 20/44/40 16/35/32
f 50/38/34 47/45/41 21/46/42 17/39/35
f 49/41/37 46/47/43 22/48/44 19/42/38
f 48/43/39 45/49/45 23/50/46 20/44/40
f 47/45/41 44/51/47 24/52/48 21/46/42
f 46/47/43 43/53/49 25/54/50 22/48/44
f 45/49/45 42/55/51 26/56/52 23/50/46
f 44/51/47 41/57/53 27/58/54 24/52/48
f 43/53/49 39/59/55 28/60/56 25/54/50
f 42/55/51 38/61/57 29/62/58 26/56/52
f 41/57/53 37/63/59 30/64/60 27/58/54
f 39/59/55 40/37/33 18/40/36 28/60/56
f 38/61/57 35/65/61 31/66/62 29/62/58
f 37/67/59 33/68/63 32/69/64 30/70/60
f 35/65/61 36/1/1 2/4/4 31/66/62
f 33/68/63 34/5/5 4/8/8 32/69/64
f 292/71/65 258/72/66 71/73/67 320/74/68
f 290/75/69 260/76/70 72/77/71 319/78/72
f 320/79/68 71/80/67 73/81/73 318/82/74
f 319/78/72 72/77/71 74/83/75 317/84/76
f 318/82/74 73/81/73 75/85/77 316/86/78
f 317/84/76 74/83/75 76/87/79 315/88/80
f 316/86/78 75/85/77 77/89/81 314/90/82
f 315/88/80 76/87/79 78/91/83 313/92/84
f 314/90/82 77/89/81 79/93/85 312/94/86
f 313/92/84 78/91/83 80/95/87 311/96/88
f 312/94/86 79/93/85 81/97/89 310/98/90
f 311/96/88 80/95/87 82/99/91 309/100/92
f 310/98/90 81/97/89 83/101/93 308/102/94
f 309/103/92 82/104/91 84/105/95 307/106/96
f 296/107/97 274/108/98 85/109/99 306/110/100
f 308/102/94 83/101/93 86/111/101 305/112/102
f 307/106/96 84/105/95 87/113/103 304/114/104
f 306/110/100 85/109/99 88/115/105 303/116/106
f 305/112/102 86/111/101 89/117/107 302/118/108
f 304/114/104 87/113/103 90/119/109 301/120/110
f 303/116/106 88/115/105 91/121/111 300/122/112
f 302/118/108 89/117/107 92/123/113 299/124/114
f 301/120/110 90/119/109 93/125/115 298/126/116
f 300/122/112 91/121/111 94/127/117 297/128/118
f 299/124/114 92/123/113 95/129/119 295/130/120
f 298/126/116 93/125/115 96/131/121 294/132/122
f 297/128/118 94/127/117 97/133/123 293/134/124
f 295/130/120 95/129/119 274/108/98 296/107/97
f 294/132/122 96/131/121 98/135/125 291/136/126
f 293/137/124 97/138/123 99/139/127 289/140/128
f 291/136/126 98/135/125 258/72/66 292/71/65
f 289/140/128 99/139/127 260/76/70 290/75/69
f 62/10/9 64/9/2 128/9/129 126/10/130
f 35/65/61 38/61/57 103/61/131 101/65/132
f 13/28/26 15/32/30 271/32/133 269/28/134
f 63/6/6 34/5/5 65/5/135 127/6/136
f 40/37/33 39/59/55 104/59/137 69/37/138
f 14/36/28 16/35/32 272/35/139 270/36/140
f 64/2/2 36/1/1 67/1/141 128/2/129
f 37/63/59 41/57/53 105/57/142 102/63/143
f 18/40/36 17/39/35 273/39/144 70/40/145
f 38/61/57 42/55/51 106/55/146 103/61/131
f 15/32/30 19/42/38 275/42/147 271/32/133
f 39/59/55 43/53/49 107/53/148 104/59/137
f 16/35/32 20/44/40 276/44/149 272/35/139
f 41/57/53 44/51/47 108/51/150 105/57/142
f 17/39/35 21/46/42 277/46/151 273/39/144
f 42/55/51 45/49/45 109/49/152 106/55/146
f 19/42/38 22/48/44 278/48/153 275/42/147
f 43/53/49 46/47/43 110/47/154 107/53/148
f 20/44/40 23/50/46 279/50/155 276/44/149
f 44/51/47 47/45/41 111/45/156 108/51/150
f 21/46/42 24/52/48 280/52/157 277/46/151
f 45/49/45 48/43/39 112/43/158 109/49/152
f 22/48/44 25/54/50 281/54/159 278/48/153
f 46/47/43 49/41/37 113/41/160 110/47/154
f 23/50/46 26/56/52 282/56/161 279/50/155
f 47/45/41 50/38/34 114/38/162 111/45/156
f 24/52/48 27/58/54 283/58/163 280/52/157
f 48/43/39 51/34/31 115/34/164 112/43/158
f 25/54/50 28/60/56 284/60/165 281/54/159
f 49/41/37 52/31/29 116/31/166 113/41/160
f 26/56/52 29/62/58 285/62/167 282/56/161
f 50/38/34 40/37/33 69/37/138 114/38/162
f 27/58/54 30/64/60 286/64/168 283/58/163
f 2/4/4 1/3/3 257/3/169 68/4/170
f 51/34/31 53/33/27 117/33/171 115/34/164
f 28/60/56 18/40/36 70/40/145 284/60/165
f 4/8/8 3/7/7 259/7/172 66/8/173
f 52/31/29 54/27/25 118/27/174 116/31/166
f 29/62/58 31/66/62 287/66/175 285/62/167
f 1/12/3 5/11/10 261/11/176 257/12/169
f 53/29/27 55/25/23 119/25/177 117/29/171
f 30/70/60 32/69/64 288/69/178 286/70/168
f 3/7/7 6/14/12 262/14/179 259/7/172
f 54/27/25 56/23/21 120/23/180 118/27/174
f 31/66/62 2/4/4 68/4/170 287/66/175
f 5/11/10 7/16/14 263/16/181 261/11/176
f 55/25/23 57/21/19 121/21/182 119/25/177
f 32/69/64 4/8/8 66/8/173 288/69/178
f 6/14/12 8/18/16 264/18/183 262/14/179
f 56/23/21 58/19/17 122/19/184 120/23/180
f 7/16/14 9/20/18 265/20/185 263/16/181
f 57/21/19 59/17/15 123/17/186 121/21/182
f 8/18/16 10/22/20 266/22/187 264/18/183
f 58/19/17 60/15/13 124/15/188 122/19/184
f 9/20/18 11/24/22 267/24/189 265/20/185
f 59/17/15 61/13/11 125/13/190 123/17/186
f 34/5/5 33/68/63 100/68/191 65/5/135
f 10/22/20 12/26/24 268/26/192 266/22/187
f 60/15/13 62/10/9 126/10/130 124/15/188
f 36/1/1 35/65/61 101/65/132 67/1/141
f 11/24/22 13/28/26 269/28/134 267/24/189
f 61/13/11 63/6/6 127/6/136 125/13/190
f 33/68/63 37/67/59 102/67/143 100/68/191
f 12/26/24 14/30/28 270/30/140 268/26/192
f 164/141/193 192/142/194 129/143/195 130/144/196
f 162/145/197 191/146/198 131/147/199 132/148/200
f 192/149/194 190/150/201 133/151/202 129/152/195
f 191/146/198 189/153/203 134/154/204 131/147/199
f 190/150/201 188/155/205 135/156/206 133/151/202
f 189/153/203 187/157/207 136/158/208 134/154/204
f 188/155/205 186/159/209 137/160/210 135/156/206
f 187/157/207 185/161/211 138/162/212 136/158/208
f 186/159/209 184/163/213 139/164/214 137/160/210
f 185/161/211 183/165/215 140/166/216 138/162/212
f 184/163/213 182/167/217 141/168/218 139/164/214
f 183/165/215 181/169/219 142/170/220 140/166/216
f 182/167/217 180/171/221 143/172/222 141/168/218
f 181/173/219 179/174/223 144/175/224 142/176/220
f 168/177/225 178/178/226 145/179/227 146/180/228
f 180/181/221 177/182/229 147/183/230 143/184/222
f 179/174/223 176/185/231 148/186/232 144/175/224
f 178/178/226 175/187/233 149/188/234 145/179/227
f 177/182/229 174/189/235 150/190/236 147/183/230
f 176/185/231 173/191/237 151/192/238 148/186/232
f 175/187/233 172/193/239 152/194/240 149/188/234
f 174/189/235 171/195/241 153/196/242 150/190/236
f 173/191/237 170/197/243 154/198/244 151/192/238
f 172/199/239 169/200/245 155/201/246 152/202/240
f 171/195/241 167/203/247 156/204/248 153/196/242
f 170/197/243 166/205/249 157/206/250 154/198/244
f 169/200/245 165/207/251 158/208/252 155/201/246
f 167/203/247 168/177/225 146/180/228 156/204/248
f 166/205/249 163/209/253 159/210/254 157/206/250
f 165/207/251 161/211/255 160/212/256 158/208/252
f 163/209/253 164/141/193 130/144/196 159/210/254
f 161/211/255 162/145/197 132/148/200 160/212/256
f 356/213/257 322/214/258 199/215/259 384/216/260
f 354/217/261 324/218/262 200/219/263 383/220/264
f 384/221/260 199/222/259 201/223/265 382/224/266
f 383/220/264 200/219/263 202/225/267 381/226/268
f 382/224/266 201/223/265 203/227/269 380/228/270
f 381/226/268 202/225/267 204/229/271 379/230/272
f 380/228/270 203/227/269 205/231/273 378/232/274
f 379/230/272 204/229/271 206/233/275 377/234/276
f 378/232/274 205/231/273 207/235/277 376/236/278
f 377/234/276 206/233/275 208/237/279 375/238/280
f 376/236/278 207/235/277 209/239/281 374/240/282
f 375/238/280 208/237/279 210/241/283 373/242/284
f 374/240/282 209/239/281 211/243/285 372/244/286
f 373/245/284 210/246/283 212/247/287 371/248/288
f 360/249/289 338/250/290 213/251/291 370/252/292
f 372/253/286 211/254/285 214/255/293 369/256/294
f 371/248/288 212/247/287 215/257/295 368/258/296
f 370/252/292 213/251/291 216/259/297 367/260/298
f 369/256/294 214/255/293 217/261/299 366/262/300
f 368/258/296 215/257/295 218/263/301 365/264/302
f 367/260/298 216/259/297 219/265/303 364/266/304
f 366/262/300 217/261/299 220/267/305 363/268/306
f 365/264/302 218/263/301 221/269/307 362/270/308
f 364/271/304 219/272/303 222/273/309 361/274/310
f 363/268/306 220/267/305 223/275/311 359/276/312
f 362/270/308 221/269/307 224/277/313 358/278/314
f 361/274/310 222/273/309 225/279/315 357/280/316
f 359/276/312 223/275/311 338/250/290 360/249/289
f 358/278/314 224/277/313 226/281/317 355/282/318
f 357/280/316 225/279/315 227/283/319 353/284/320
f 355/282/318 226/281/317 322/214/258 356/213/257
f 353/284/320 227/283/319 324/218/262 354/217/261
f 155/201/246 158/208/252 350/208/321 347/201/322
f 130/144/196 129/143/195 321/143/323 196/144/324
f 179/174/223 181/173/219 245/173/325 243/174/326
f 156/204/248 146/180/228 198/180/327 348/204/328
f 132/148/200 131/147/199 323/147/329 194/148/330
f 180/171/221 182/167/217 246/167/331 244/171/332
f 157/206/250 159/210/254 351/210/333 349/206/334
f 129/152/195 133/151/202 325/151/335 321/152/323
f 181/169/219 183/165/215 247/165/336 245/169/325
f 158/208/252 160/212/256 352/212/337 350/208/321
f 131/147/199 134/154/204 326/154/338 323/147/329
f 182/167/217 184/163/213 248/163/339 246/167/331
f 159/210/254 130/144/196 196/144/324 351/210/333
f 133/151/202 135/156/206 327/156/340 325/151/335
f 183/165/215 185/161/211 249/161/341 247/165/336
f 160/212/256 132/148/200 194/148/330 352/212/337
f 134/154/204 136/158/208 328/158/342 326/154/338
f 184/163/213 186/159/209 250/159/343 248/163/339
f 135/156/206 137/160/210 329/160/344 327/156/340
f 185/161/211 187/157/207 251/157/345 249/161/341
f 136/158/208 138/162/212 330/162/346 328/158/342
f 186/159/209 188/155/205 252/155/347 250/159/343
f 137/160/210 139/164/214 331/164/348 329/160/344
f 187/157/207 189/153/203 253/153/349 251/157/345
f 162/145/197 161/211/255 228/211/350 193/145/351
f 138/162/212 140/166/216 332/166/352 330/162/346
f 188/155/205 190/150/201 254/150/353 252/155/347
f 164/141/193 163/209/253 229/209/354 195/141/355
f 139/164/214 141/168/218 333/168/356 331/164/348
f 189/153/203 191/146/198 255/146/357 253/153/349
f 161/211/255 165/207/251 230/207/358 228/211/350
f 140/166/216 142/170/220 334/170/359 332/166/352
f 190/150/201 192/149/194 256/149/360 254/150/353
f 163/209/253 166/205/249 231/205/361 229/209/354
f 141/168/218 143/172/222 335/172/362 333/168/356
f 191/146/198 162/145/197 193/145/351 255/146/357
f 168/177/225 167/203/247 232/203/363 197/177/364
f 142/176/220 144/175/224 336/175/365 334/176/359
f 192/142/194 164/141/193 195/141/355 256/142/360
f 165/207/251 169/200/245 233/200/366 230/207/358
f 146/180/228 145/179/227 337/179/367 198/180/327
f 166/205/249 170/197/243 234/197/368 231/205/361
f 143/184/222 147/183/230 339/183/369 335/184/362
f 167/203/247 171/195/241 235/195/370 232/203/363
f 144/175/224 148/186/232 340/186/371 336/175/365
f 169/200/245 172/199/239 236/199/372 233/200/366
f 145/179/227 149/188/234 341/188/373 337/179/367
f 170/197/243 173/191/237 237/191/374 234/197/368
f 147/183/230 150/190/236 342/190/375 339/183/369
f 171/195/241 174/189/235 238/189/376 235/195/370
f 148/186/232 151/192/238 343/192/377 340/186/371
f 172/193/239 175/187/233 239/187/378 236/193/372
f 149/188/234 152/194/240 344/194/379 341/188/373
f 173/191/237 176/185/231 240/185/380 237/191/374
f 150/190/236 153/196/242 345/196/381 342/190/375
f 174/189/235 177/182/229 241/182/382 238/189/376
f 151/192/238 154/198/244 346/198/383 343/192/377
f 175/187/233 178/178/226 242/178/384 239/187/378
f 152/202/240 155/201/246 347/201/322 344/202/379
f 176/185/231 179/174/223 243/174/326 240/185/380
f 153/196/242 156/204/248 348/204/328 345/196/381
f 177/182/229 180/181/221 244/181/332 241/182/382
f 154/198/244 157/206/250 349/206/334 346/198/383
f 178/178/226 168/177/225 197/177/364 242/178/384
f 71/73/67 258/72/66 68/4/170 257/3/169
f 72/77/71 260/76/70 66/8/173 259/7/172
f 73/81/73 71/80/67 257/12/169 261/11/176
f 74/83/75 72/77/71 259/7/172 262/14/179
f 75/85/77 73/81/73 261/11/176 263/16/181
f 76/87/79 74/83/75 262/14/179 264/18/183
f 77/89/81 75/85/77 263/16/181 265/20/185
f 78/91/83 76/87/79 264/18/183 266/22/187
f 79/93/85 77/89/81 265/20/185 267/24/189
f 80/95/87 78/91/83 266/22/187 268/26/192
f 81/97/89 79/93/85 267/24/189 269/28/134
f 82/99/91 80/95/87 268/26/192 270/30/140
f 83/101/93 81/97/89 269/28/134 271/32/133
f 84/105/95 82/104/91 270/36/140 272/35/139
f 85/109/99 274/108/98 70/40/145 273/39/144
f 86/111/101 83/101/93 271/32/133 275/42/147
f 87/113/103 84/105/95 272/35/139 276/44/149
f 88/115/105 85/109/99 273/39/144 277/46/151
f 89/117/107 86/111/101 275/42/147 278/48/153
f 90/119/109 87/113/103 276/44/149 279/50/155
f 91/121/111 88/115/105 277/46/151 280/52/157
f 92/123/113 89/117/107 278/48/153 281/54/159
f 93/125/115 90/119/109 279/50/155 282/56/161
f 94/127/117 91/121/111 280/52/157 283/58/163
f 95/129/119 92/123/113 281/54/159 284/60/165
f 96/131/121 93/125/115 282/56/161 285/62/167
f 97/133/123 94/127/117 283/58/163 286/64/168
f 274/108/98 95/129/119 284/60/165 70/40/145
f 98/135/125 96/131/121 285/62/167 287/66/175
f 99/139/127 97/138/123 286/70/168 288/69/178
f 258/72/66 98/135/125 287/66/175 68/4/170
f 260/76/70 99/139/127 288/69/178 66/8/173
f 289/140/128 290/75/69 65/5/135 100/68/191
f 291/136/126 292/71/65 67/1/141 101/65/132
f 293/137/124 289/140/128 100/68/191 102/67/143
f 294/132/122 291/136/126 101/65/132 103/61/131
f 295/130/120 296/107/97 69/37/138 104/59/137
f 297/128/118 293/134/124 102/63/143 105/57/142
f 298/126/116 294/132/122 103/61/131 106/55/146
f 299/124/114 295/130/120 104/59/137 107/53/148
f 300/122/112 297/128/118 105/57/142 108/51/150
f 301/120/110 298/126/116 106/55/146 109/49/152
f 302/118/108 299/124/114 107/53/148 110/47/154
f 303/116/106 300/122/112 108/51/150 111/45/156
f 304/114/104 301/120/110 109/49/152 112/43/158
f 305/112/102 302/118/108 110/47/154 113/41/160
f 306/110/100 303/116/106 111/45/156 114/38/162
f 307/106/96 304/114/104 112/43/158 115/34/164
f 308/102/94 305/112/102 113/41/160 116/31/166
f 296/107/97 306/110/100 114/38/162 69/37/138
f 309/103/92 307/106/96 115/34/164 117/33/171
f 310/98/90 308/102/94 116/31/166 118/27/174
f 311/96/88 309/100/92 117/29/171 119/25/177
f 312/94/86 310/98/90 118/27/174 120/23/180
f 313/92/84 311/96/88 119/25/177 121/21/182
f 314/90/82 312/94/86 120/23/180 122/19/184
f 315/88/80 313/92/84 121/21/182 123/17/186
f 316/86/78 314/90/82 122/19/184 124/15/188
f 317/84/76 315/88/80 123/17/186 125/13/190
f 318/82/74 316/86/78 124/15/188 126/10/130
f 319/78/72 317/84/76 125/13/190 127/6/136
f 320/79/68 318/82/74 126/10/130 128/9/129
f 290/75/69 319/78/72 127/6/136 65/5/135
f 292/71/65 320/74/68 128/2/129 67/1/141
f 199/215/259 322/214/258 196/144/324 321/143/323
f 200/219/263 324/218/262 194/148/330 323/147/329
f 201/223/265 199/222/259 321/152/323 325/151/335
f 202/225/267 200/219/263 323/147/329 326/154/338
f 203/227/269 201/223/265 325/151/335 327/156/340
f 204/229/271 202/225/267 326/154/338 328/158/342
f 205/231/273 203/227/269 327/156/340 329/160/344
f 206/233/275 204/229/271 328/158/342 330/162/346
f 207/235/277 205/231/273 329/160/344 331/164/348
f 208/237/279 206/233/275 330/162/346 332/166/352
f 209/239/281 207/235/277 331/164/348 333/168/356
f 210/241/283 208/237/279 332/166/352 334/170/359
f 211/243/285 209/239/281 333/168/356 335/172/362
f 212/247/287 210/246/283 334/176/359 336/175/365
f 213/251/291 338/250/290 198/180/327 337/179/367
f 214/255/293 211/254/285 335/184/362 339/183/369
f 215/257/295 212/247/287 336/175/365 340/186/371
f 216/259/297 213/251/291 337/179/367 341/188/373
f 217/261/299 214/255/293 339/183/369 342/190/375
f 218/263/301 215/257/295 340/186/371 343/192/377
f 219/265/303 216/259/297 341/188/373 344/194/379
f 220/267/305 217/261/299 342/190/375 345/196/381
f 221/269/307 218/263/301 343/192/377 346/198/383
f 222/273/309 219/272/303 344/202/379 347/201/322
f 223/275/311 220/267/305 345/196/381 348/204/328
f 224/277/313 221/269/307 346/198/383 349/206/334
f 225/279/315 222/273/309 347/201/322 350/208/321
f 338/250/290 223/275/311 348/204/328 198/180/327
f 226/281/317 224/277/313 349/206/334 351/210/333
f 227/283/319 225/279/315 350/208/321 352/212/337
f 322/214/258 226/281/317 351/210/333 196/144/324
f 324/218/262 227/283/319 352/212/337 194/148/330
f 353/284/320 354/217/261 193/145/351 228/211/350
f 355/282/318 356/213/257 195/141/355 229/209/354
f 357/280/316 353/284/320 228/211/350 230/207/358
f 358/278/314 355/282/318 229/209/354 231/205/361
f 359/276/312 360/249/289 197/177/364 232/203/363
f 361/274/310 357/280/316 230/207/358 233/200/366
f 362/270/308 358/278/314 231/205/361 234/197/368
f 363/268/306 359/276/312 232/203/363 235/195/370
f 364/271/304 361/274/310 233/200/366 236/199/372
f 365/264/302 362/270/308 234/197/368 237/191/374
f 366/262/300 363/268/306 235/195/370 238/189/376
f 367/260/298 364/266/304 236/193/372 239/187/378
f 368/258/296 365/264/302 237/191/374 240/185/380
f 369/256/294 366/262/300 238/189/376 241/182/382
f 370/252/292 367/260/298 239/187/378 242/178/384
f 371/248/288 368/258/296 240/185/380 243/174/326
f 372/253/286 369/256/294 241/182/382 244/181/332
f 360/249/289 370/252/292 242/178/384 197/177/364
f 373/245/284 371/248/288 243/174/326 245/173/325
f 374/240/282 372/244/286 244/171/332 246/167/331
f 375/238/280 373/242/284 245/169/325 247/165/336
f 376/236/278 374/240/282 246/167/331 248/163/339
f 377/234/276 375/238/280 247/165/336 249/161/341
f 378/232/274 376/236/278 248/163/339 250/159/343
f 379/230/272 377/234/276 249/161/341 251/157/345
f 380/228/270 378/232/274 250/159/343 252/155/347
f 381/226/268 379/230/272 251/157/345 253/153/349
f 382/224/266 380/228/270 252/155/347 254/150/353
f 383/220/264 381/226/268 253/153/349 255/146/357
f 384/221/260 382/224/266 254/150/353 256/149/360
f 354/217/261 383/220/264 255/146/357 193/145/351
f 356/213/257 384/216/260 256/142/360 195/141/355
