# Blender 4.0.1
# www.blender.org
mtllib Bomber_Cockpit_Base_Cage.mtl
o Bomber_Cockpit_Base_Cage
v -0.288369 0.836017 -1.026388
v -0.488607 0.836017 -1.006666
v -0.681151 0.836017 -0.948259
v -0.858600 0.836017 -0.853411
v -1.014135 0.836017 -0.725766
v -1.141779 0.836017 -0.570231
v -1.236628 0.836017 -0.392782
v -1.295035 0.836017 -0.200238
v -1.314757 0.836017 0.000000
v -1.295035 0.836017 0.200238
v -1.236628 0.836017 0.392782
v -1.141779 0.836017 0.570231
v -1.014135 0.836017 0.725766
v -0.858600 0.836017 0.853411
v -0.681151 0.836017 0.948259
v -0.488607 0.836017 1.006666
v -0.288369 0.836017 1.026388
v -0.088130 0.836017 1.006666
v 0.104413 0.836017 0.948259
v 0.281862 0.836017 0.853411
v 0.437397 0.836017 0.725766
v 0.565042 0.836017 0.570231
v 0.659890 0.836017 0.392782
v 0.718298 0.836017 0.200238
v 0.738019 0.836017 0.000000
v 0.718298 0.836017 -0.200238
v 0.659890 0.836017 -0.392782
v 0.565042 0.836017 -0.570231
v 0.437397 0.836017 -0.725766
v 0.281862 0.836017 -0.853411
v 0.104413 0.836017 -0.948259
v -0.088130 0.836017 -1.006666
v -0.288369 1.445002 -0.816634
v -0.447686 1.445002 -0.800943
v -0.600881 1.445002 -0.754471
v -0.865816 1.445002 -0.577447
v -0.967375 1.445002 -0.453698
v -1.042840 1.445002 -0.312512
v -1.089311 1.445002 -0.159317
v -1.105003 1.445002 -0.000000
v -1.089311 1.445002 0.159317
v -1.042840 1.445002 0.312512
v -0.865816 1.445002 0.577447
v -0.742066 1.445002 0.679006
v -0.600881 1.445002 0.754471
v -0.447686 1.445002 0.800943
v -0.288369 1.445002 0.816634
v -0.129052 1.445002 0.800943
v 0.024143 1.445002 0.754471
v 0.165329 1.445002 0.679006
v 0.289079 1.445002 0.577447
v 0.390637 1.445002 0.453698
v 0.466103 1.445002 0.312512
v 0.512574 1.445002 0.159317
v 0.528265 1.445002 -0.000000
v 0.512574 1.445002 -0.159317
v 0.466103 1.445002 -0.312512
v 0.390637 1.445002 -0.453698
v 0.289079 1.445002 -0.577447
v 0.165329 1.445002 -0.679006
v 0.024143 1.445002 -0.754471
v -0.129052 1.445002 -0.800943
v -1.343248 1.137045 0.209828
v -1.282043 1.137045 0.411593
v 0.766510 1.137045 0.209828
v 0.787176 1.137045 0.000000
v -1.182652 1.137045 0.597541
v 0.766510 1.137045 -0.209828
v -1.048894 1.137045 0.760525
v 0.705305 1.137045 -0.411593
v -0.885910 1.137045 0.894283
v 0.605914 1.137045 -0.597541
v -0.699962 1.137045 0.993674
v -0.288369 1.137045 -1.075545
v -0.498197 1.137045 -1.054879
v 0.472156 1.137045 -0.760525
v -0.498197 1.137045 1.054879
v -0.699962 1.137045 -0.993674
v 0.309172 1.137045 -0.894283
v -0.288369 1.137045 1.075545
v -0.885910 1.137045 -0.894283
v 0.123224 1.137045 -0.993674
v -0.078540 1.137045 1.054879
v -1.048894 1.137045 -0.760525
v -0.078540 1.137045 -1.054879
v 0.123224 1.137045 0.993674
v -1.182652 1.137045 -0.597541
v 0.309172 1.137045 0.894283
v -1.282043 1.137045 -0.411593
v 0.472156 1.137045 0.760525
v -1.343248 1.137045 -0.209828
v 0.605914 1.137045 0.597541
v -1.363914 1.137045 0.000000
v 0.705305 1.137045 0.411593
v -0.468470 1.419499 -0.905429
v -0.288369 1.419499 -0.923167
v -0.641650 1.419499 -0.852895
v -0.801253 1.419499 -0.767586
v -0.941147 1.419499 -0.652778
v -1.055954 1.419499 -0.512884
v -1.141264 1.419499 -0.353281
v -1.193798 1.419499 -0.180101
v -1.211536 1.419499 -0.000000
v -1.193798 1.419499 0.180101
v -1.141264 1.419499 0.353281
v -1.055954 1.419499 0.512884
v -0.941147 1.419499 0.652778
v -0.801253 1.419499 0.767586
v -0.641650 1.419499 0.852895
v -0.468470 1.419499 0.905429
v -0.288369 1.419499 0.923167
v -0.108268 1.419499 0.905429
v 0.064912 1.419499 0.852895
v 0.224515 1.419499 0.767586
v 0.364409 1.419499 0.652778
v 0.479217 1.419499 0.512884
v 0.564527 1.419499 0.353281
v 0.617060 1.419499 0.180101
v 0.634798 1.419499 -0.000000
v 0.617060 1.419499 -0.180101
v 0.564527 1.419499 -0.353281
v 0.479217 1.419499 -0.512884
v 0.364409 1.419499 -0.652778
v 0.224515 1.419499 -0.767586
v 0.064912 1.419499 -0.852895
v -0.108268 1.419499 -0.905429
v -1.132532 1.283069 0.564052
v -1.006271 1.283069 0.717902
v -0.852421 1.283069 0.844163
v 0.555794 1.283069 -0.564052
v 0.429533 1.283069 -0.717902
v 0.275683 1.283069 -0.844163
v -0.852421 1.283069 -0.844163
v -1.006271 1.283069 -0.717902
v -1.132532 1.283069 -0.564052
v 0.275683 1.283069 0.844163
v 0.429533 1.283069 0.717902
v 0.555794 1.283069 0.564052
v -0.742753 1.445716 -0.680034
v -0.968403 1.445716 0.454384
v -0.713656 2.668611 -0.635684
v -0.828507 2.669371 -0.539126
v -0.922503 2.669925 -0.422610
v -0.926214 2.667750 0.426326
v -0.830828 2.667749 0.542555
v -0.714600 2.667749 0.637941
v 0.135387 2.669361 0.635383
v 0.250116 2.669917 0.539734
v 0.344491 2.670127 0.424046
v 0.349260 2.667753 -0.425918
v 0.253874 2.667753 -0.542147
v 0.137645 2.667753 -0.637533
v -0.272563 3.199579 -0.079915
v -0.257226 3.199579 -0.075262
v -0.243092 3.199579 -0.067707
v -0.230703 3.199579 -0.057540
v -0.220535 3.199578 -0.045151
v -0.212980 3.199577 -0.031017
v -0.208355 3.199543 -0.015671
v -0.206981 3.199319 0.000296
v -0.208737 3.199112 0.016193
v -0.213495 3.198975 0.031423
v -0.221044 3.198940 0.045448
v -0.231103 3.199010 0.057779
v -0.243332 3.199162 0.067975
v -0.257319 3.199354 0.075638
v -0.272569 3.199537 0.080436
v -0.288512 3.199557 0.082026
v -0.304462 3.199556 0.080455
v -0.319799 3.199556 0.075802
v -0.333933 3.199556 0.068247
v -0.346322 3.199556 0.058080
v -0.356490 3.199557 0.045691
v -0.364023 3.199533 0.031550
v -0.368505 3.199349 0.016205
v -0.369904 3.199158 0.000319
v -0.368222 3.199008 -0.015513
v -0.363560 3.198940 -0.030729
v -0.356094 3.198977 -0.044798
v -0.346075 3.199116 -0.057218
v -0.333833 3.199324 -0.067510
v -0.319792 3.199548 -0.075239
v -0.288512 3.199578 -0.081486
v -0.304462 3.199577 -0.079915
v -0.440718 3.152570 -0.227399
v -0.481835 3.152652 -0.192830
v -0.515486 3.152714 -0.151117
v -0.516815 3.152475 0.152805
v -0.482666 3.152475 0.194415
v -0.441056 3.152475 0.228563
v -0.136758 3.152665 0.227648
v -0.095684 3.152723 0.193405
v -0.061898 3.152741 0.151988
v -0.060190 3.152481 -0.152302
v -0.094339 3.152481 -0.193912
v -0.135949 3.152481 -0.228061
v -0.175067 3.015539 -0.569975
v -0.066007 3.015539 -0.536892
v 0.034504 3.015539 -0.483168
v 0.122602 3.015539 -0.410868
v 0.194903 3.015539 -0.322769
v 0.248627 3.015539 -0.222258
v 0.281518 3.015587 -0.113138
v 0.291287 3.015928 0.000410
v 0.278803 3.016260 0.113449
v 0.244967 3.016499 0.221753
v 0.191288 3.016584 0.321484
v 0.119754 3.016495 0.409173
v 0.032793 3.016253 0.481672
v -0.066665 3.015920 0.536167
v -0.175109 3.015580 0.570284
v -0.288487 3.015539 0.581590
v -0.401906 3.015539 0.570419
v -0.510967 3.015539 0.537336
v -0.611477 3.015539 0.483612
v -0.699576 3.015539 0.411311
v -0.771877 3.015539 0.323212
v -0.825443 3.015587 0.222654
v -0.857318 3.015928 0.113538
v -0.867266 3.016260 0.000571
v -0.855308 3.016499 -0.112011
v -0.822153 3.016584 -0.220211
v -0.769064 3.016495 -0.320261
v -0.697817 3.016253 -0.408577
v -0.610762 3.015920 -0.481766
v -0.510917 3.015580 -0.536727
v -0.288487 3.015539 -0.581146
v -0.401906 3.015539 -0.569975
v -0.961034 2.892252 0.134190
v -0.972796 2.892645 0.000625
v -0.958658 2.892927 -0.132486
v -0.919457 2.893028 -0.260416
v -0.856687 2.892923 -0.378708
v -0.154381 2.891793 -0.673956
v -0.154430 2.891842 0.674220
v -0.669521 2.892243 -0.569663
v 0.093404 2.891793 -0.571320
v -0.422582 2.891793 0.674379
v -0.422582 2.891793 -0.673956
v -0.551528 2.891793 0.635263
v -0.670367 2.891793 0.571743
v -0.774529 2.891793 0.486259
v 0.397009 2.892252 0.000434
v 0.283050 2.891793 -0.381674
v -0.288481 2.891793 -0.687164
v 0.346571 2.891793 -0.262836
v 0.382249 2.892645 0.134085
v 0.385458 2.891850 -0.133819
v 0.342242 2.892927 0.262138
v -0.860013 2.891793 0.382097
v 0.278776 2.893028 0.380053
v -0.923347 2.891850 0.263203
v 0.194198 2.892923 0.483731
v 0.091381 2.892637 0.569450
v -0.026213 2.892243 0.633882
v -0.772449 2.892637 -0.483129
v -0.025434 2.891793 -0.634840
v -0.288481 2.891793 0.687587
v -0.551470 2.891842 -0.634645
v 0.197566 2.891793 -0.485836
v -0.737199 2.432753 0.671742
v -0.859606 2.432753 0.571284
v 0.383220 2.432753 -0.448677
v 0.282762 2.432753 -0.571084
v 0.160355 2.432753 -0.671542
v -0.736707 2.433015 -0.670575
v -0.858395 2.433244 -0.569505
v -0.958126 2.433411 -0.446946
v 0.159175 2.433244 0.670407
v 0.280798 2.433411 0.569813
v 0.380727 2.433472 0.447687
v -0.960064 2.432753 0.448877
v -0.866120 2.205514 0.577775
v -0.742311 2.205514 0.679382
v 0.390937 2.205514 -0.453866
v 0.289329 2.205514 -0.577675
v 0.165520 2.205514 -0.679283
v -0.742062 2.205647 -0.678794
v -0.865508 2.205763 -0.576877
v -0.966749 2.205847 -0.452991
v 0.164924 2.205763 0.678708
v 0.288337 2.205847 0.577031
v 0.389678 2.205878 0.453364
v -0.967728 2.205514 0.453965
v -0.288368 0.830427 -1.068494
v -0.496821 0.830427 -1.047963
v -0.697261 0.830428 -0.987156
v -0.881983 0.830429 -0.888409
v -1.043893 0.830430 -0.755525
v -1.176777 0.830429 -0.593615
v -1.275524 0.830428 -0.408893
v -1.336330 0.830427 -0.208453
v -1.356861 0.830427 -0.000001
v -1.336330 0.830427 0.208452
v -1.275524 0.830428 0.408892
v -1.176777 0.830429 0.593614
v -1.043893 0.830430 0.755524
v -0.881983 0.830429 0.888408
v -0.697261 0.830428 0.987155
v -0.496821 0.830427 1.047961
v -0.288368 0.830427 1.068492
v -0.079916 0.830427 1.047961
v 0.120524 0.830428 0.987155
v 0.305246 0.830429 0.888408
v 0.467156 0.830430 0.755524
v 0.600040 0.830429 0.593614
v 0.698787 0.830428 0.408892
v 0.759594 0.830427 0.208452
v 0.780125 0.830427 -0.000001
v 0.759594 0.830427 -0.208453
v 0.698787 0.830428 -0.408893
v 0.600040 0.830429 -0.593615
v 0.467156 0.830430 -0.755525
v 0.305246 0.830429 -0.888409
v 0.120524 0.830428 -0.987156
v -0.079916 0.830427 -1.047963
v -0.288368 1.474835 -0.836249
v -0.451510 1.474835 -0.820181
v -0.608082 1.474840 -0.772783
v -0.888558 1.464476 -0.600045
v -0.983993 1.473958 -0.466438
v -1.061053 1.474875 -0.319749
v -1.108548 1.474835 -0.163145
v -1.124617 1.474835 -0.000001
v -1.108548 1.474835 0.163141
v -1.061151 1.474840 0.319713
v -0.888443 1.464458 0.600180
v -0.754824 1.473952 0.695623
v -0.608117 1.474875 0.772684
v -0.451512 1.474835 0.820179
v -0.288368 1.474835 0.836248
v -0.125224 1.474835 0.820179
v 0.031380 1.474875 0.772684
v 0.191579 1.468540 0.701925
v 0.311736 1.464516 0.600082
v 0.407246 1.473962 0.466442
v 0.484316 1.474875 0.319748
v 0.531812 1.474835 0.163143
v 0.547880 1.474835 -0.000001
v 0.531812 1.474835 -0.163145
v 0.484316 1.474875 -0.319749
v 0.413577 1.468536 -0.479935
v 0.311737 1.464497 -0.600106
v 0.178086 1.473952 -0.695622
v 0.031380 1.474875 -0.772685
v -0.125224 1.474835 -0.820181
v -1.377838 1.131286 0.216709
v -1.314626 1.131286 0.425090
v 0.801100 1.131286 0.216709
v 0.822444 1.131286 0.000000
v -1.211727 1.137715 0.618305
v 0.801100 1.131286 -0.216709
v -1.078231 1.135985 0.789862
v 0.737888 1.131286 -0.425090
v -0.906674 1.137715 0.923358
v 0.634989 1.137715 -0.618305
v -0.713459 1.131286 1.026257
v -0.288369 1.131286 -1.110813
v -0.505078 1.131286 -1.089469
v 0.501494 1.135985 -0.789864
v -0.505078 1.131286 1.089469
v -0.713459 1.131286 -1.026257
v 0.329936 1.137715 -0.923358
v -0.288369 1.131286 1.110813
v -0.906674 1.137715 -0.923358
v 0.136721 1.131286 -1.026257
v -0.071660 1.131286 1.089469
v -1.078231 1.135985 -0.789864
v -0.071660 1.131286 -1.089469
v 0.136721 1.131286 1.026257
v -1.211727 1.137715 -0.618305
v 0.329936 1.137715 0.923358
v -1.314626 1.131286 -0.425090
v 0.501494 1.135985 0.789862
v -1.377838 1.131286 -0.216709
v 0.634989 1.137715 0.618305
v -1.399182 1.131286 0.000000
v 0.737888 1.131286 0.425090
v -0.469736 1.452508 -0.911787
v -0.288368 1.452508 -0.929650
v -0.644285 1.452470 -0.858924
v -0.816626 1.448636 -0.776604
v -0.959549 1.445040 -0.671149
v -1.069405 1.450959 -0.523197
v -1.147195 1.452474 -0.355923
v -1.200155 1.452508 -0.181366
v -1.218018 1.452508 -0.000001
v -1.200154 1.452508 0.181367
v -1.147291 1.452470 0.355916
v -1.064972 1.448636 0.528257
v -0.959517 1.445040 0.671180
v -0.811566 1.450959 0.781036
v -0.644290 1.452474 0.858826
v -0.469734 1.452508 0.911785
v -0.288368 1.452508 0.929648
v -0.107003 1.452508 0.911785
v 0.067554 1.452474 0.858826
v 0.239838 1.448657 0.776525
v 0.382773 1.445063 0.671141
v 0.492667 1.450959 0.523197
v 0.570458 1.452474 0.355921
v 0.623418 1.452508 0.181365
v 0.641281 1.452508 -0.000001
v 0.623418 1.452508 -0.181366
v 0.570458 1.452474 -0.355923
v 0.488157 1.448657 -0.528207
v 0.382773 1.445063 -0.671142
v 0.234828 1.450959 -0.781036
v 0.067554 1.452474 -0.858827
v -0.107003 1.452508 -0.911787
v -1.157296 1.295306 0.592752
v -1.032554 1.295646 0.744186
v -0.881121 1.295306 0.868928
v 0.580560 1.295306 -0.592753
v 0.455818 1.295646 -0.744187
v 0.304384 1.295306 -0.868929
v -0.881121 1.295306 -0.868929
v -1.032554 1.295646 -0.744187
v -1.157297 1.295306 -0.592753
v 0.304384 1.295306 0.868928
v 0.455818 1.295646 0.744186
v 0.580560 1.295306 0.592752
v -0.755606 1.474615 -0.696666
v -0.991401 1.469126 0.480767
v -0.735833 2.677666 -0.662201
v -0.856169 2.681694 -0.566395
v -0.949355 2.679046 -0.444353
v -0.952952 2.676725 0.448269
v -0.858331 2.679948 0.570058
v -0.736543 2.676724 0.664679
v 0.157471 2.678446 0.661967
v 0.277672 2.682263 0.567097
v 0.371248 2.679251 0.445904
v 0.375994 2.676746 -0.447859
v 0.281373 2.679969 -0.569646
v 0.159585 2.676746 -0.664268
v -0.273861 3.241500 -0.073413
v -0.259155 3.241500 -0.068952
v -0.241132 3.235180 -0.070092
v -0.227173 3.241214 -0.061065
v -0.218146 3.235179 -0.047106
v -0.219284 3.241498 -0.029085
v -0.214862 3.241465 -0.014413
v -0.213602 3.241241 0.000228
v -0.215217 3.241032 0.014850
v -0.219787 3.240896 0.029478
v -0.218675 3.234544 0.047383
v -0.227581 3.240648 0.061252
v -0.241356 3.234764 0.070335
v -0.259321 3.241279 0.069383
v -0.273907 3.241464 0.073972
v -0.288525 3.241485 0.075430
v -0.303181 3.241484 0.073986
v -0.317885 3.241484 0.069526
v -0.339007 3.241242 0.062747
v -0.349859 3.241190 0.061621
v -0.350991 3.241242 0.050776
v -0.357726 3.241460 0.029683
v -0.362014 3.241275 0.015003
v -0.363300 3.241082 0.000400
v -0.361752 3.240930 -0.014170
v -0.357273 3.240861 -0.028788
v -0.358489 3.234581 -0.046698
v -0.349636 3.240752 -0.060662
v -0.338899 3.240982 -0.061886
v -0.317830 3.241470 -0.068944
v -0.288521 3.241499 -0.074857
v -0.303176 3.241498 -0.073413
v -0.454947 3.192015 -0.233745
v -0.491286 3.192335 -0.202127
v -0.521945 3.192214 -0.165159
v -0.523252 3.191943 0.166943
v -0.492063 3.192148 0.203813
v -0.455193 3.191943 0.235001
v -0.122573 3.192124 0.234014
v -0.086278 3.192411 0.202730
v -0.055484 3.192236 0.166065
v -0.053755 3.191949 -0.166437
v -0.084942 3.192155 -0.203308
v -0.121813 3.191949 -0.234496
v -0.169773 3.038789 -0.596591
v -0.052495 3.038544 -0.569136
v 0.048054 3.042275 -0.502624
v 0.140230 3.049104 -0.428494
v 0.216968 3.041818 -0.346352
v 0.280882 3.038543 -0.235746
v 0.315849 3.038597 -0.119760
v 0.326260 3.038913 0.000757
v 0.313058 3.039220 0.120558
v 0.277172 3.039430 0.235426
v 0.213348 3.042838 0.345070
v 0.137445 3.050040 0.426755
v 0.056491 3.042531 0.503638
v -0.052884 3.038896 0.568309
v -0.169690 3.038825 0.596880
v -0.288470 3.038554 0.616556
v -0.407201 3.038786 0.597037
v -0.521353 3.038786 0.562410
v -0.635062 3.041816 0.505679
v -0.717205 3.049102 0.428941
v -0.793955 3.041808 0.346791
v -0.857752 3.038581 0.236016
v -0.884000 3.039151 0.118613
v -0.894444 3.039461 0.000371
v -0.881955 3.039683 -0.117432
v -0.847283 3.039761 -0.230619
v -0.788609 3.043201 -0.333741
v -0.715566 3.049800 -0.426100
v -0.624519 3.042617 -0.501131
v -0.524612 3.038576 -0.568894
v -0.288487 3.038558 -0.616110
v -0.407218 3.038789 -0.596588
v -0.987710 2.915475 0.139295
v -0.999974 2.915847 0.000452
v -0.985308 2.916112 -0.137890
v -0.944587 2.916205 -0.270822
v -0.880973 2.912501 -0.396140
v -0.149087 2.915043 -0.700572
v -0.149028 2.915086 0.700819
v -0.687316 2.911831 -0.593675
v 0.110954 2.911417 -0.595484
v -0.427876 2.915040 0.700997
v -0.427891 2.915043 -0.700569
v -0.561914 2.915040 0.660337
v -0.687918 2.911414 0.595908
v -0.799202 2.913961 0.510933
v 0.424171 2.915471 0.000678
v 0.307214 2.911417 -0.399224
v -0.288481 2.915043 -0.714301
v 0.371649 2.915043 -0.273204
v 0.408870 2.915841 0.139586
v 0.412105 2.915095 -0.138975
v 0.367325 2.916108 0.272649
v -0.884184 2.911413 0.399641
v 0.302987 2.912601 0.397596
v -0.948465 2.915094 0.273487
v 0.218964 2.915061 0.508309
v 0.109105 2.912217 0.593522
v -0.015638 2.915466 0.658898
v -0.797309 2.914779 -0.507611
v -0.015049 2.915043 -0.659912
v -0.288470 2.915040 0.714726
v -0.561984 2.915087 -0.659666
v 0.222238 2.913964 -0.510508
v -0.767708 2.438314 0.698527
v -0.887945 2.438403 0.599623
v 0.410004 2.438340 -0.479185
v 0.311099 2.438428 -0.599421
v 0.190863 2.438339 -0.698326
v -0.767348 2.438725 -0.697168
v -0.886844 2.439099 -0.597686
v -0.985004 2.439227 -0.477327
v 0.189758 2.439015 0.697055
v 0.309179 2.439300 0.598054
v 0.407523 2.439281 0.478139
v -0.986849 2.438314 0.479386
v -0.894605 2.206882 0.606309
v -0.773009 2.206852 0.706404
v 0.417960 2.206864 -0.484564
v 0.317840 2.206885 -0.606185
v 0.196218 2.206863 -0.706305
v -0.772870 2.207078 -0.705676
v -0.894100 2.207234 -0.605295
v -0.993822 2.207312 -0.483636
v 0.195662 2.207210 0.705671
v 0.316874 2.207330 0.605501
v 0.416712 2.207344 0.484040
v -0.994695 2.206867 0.484707
v -0.495488 0.830258 -1.041256
v -0.288369 0.830258 -1.061656
v -0.694647 0.830258 -0.980842
v -0.878193 0.830258 -0.882735
v -1.039073 0.830258 -0.750704
v -1.171103 0.830258 -0.589824
v -1.269211 0.830258 -0.406278
v -1.329625 0.830258 -0.207119
v -1.350025 0.830258 0.000000
v -1.329625 0.830258 0.207119
v -1.269211 0.830258 0.406278
v -1.171103 0.830258 0.589824
v -1.039073 0.830258 0.750704
v -0.878193 0.830258 0.882735
v -0.694647 0.830258 0.980842
v -0.495488 0.830258 1.041256
v -0.288369 0.830258 1.061656
v -0.081250 0.830258 1.041256
v 0.117909 0.830258 0.980842
v 0.301456 0.830258 0.882735
v 0.462335 0.830258 0.750704
v 0.594366 0.830258 0.589824
v 0.692473 0.830258 0.406278
v 0.752888 0.830258 0.207119
v 0.773287 0.830258 0.000000
v 0.752888 0.830258 -0.207119
v 0.692473 0.830258 -0.406278
v 0.594366 0.830258 -0.589824
v 0.462335 0.830258 -0.750704
v 0.301456 0.830258 -0.882735
v 0.117909 0.830258 -0.980842
v -0.081250 0.830258 -1.041256
v -0.470093 1.454252 -0.913588
v -0.288369 1.454252 -0.931487
v -0.644825 1.454232 -0.860675
v -0.811614 1.450911 -0.781110
v -1.148950 1.454252 -0.356465
v -1.064894 1.448657 -0.528207
v -1.201957 1.454252 -0.181724
v -1.219856 1.454252 -0.000000
v -1.201957 1.454252 0.181724
v -1.149044 1.454232 0.356456
v -1.069479 1.450911 0.523245
v -0.644833 1.454252 0.860581
v -0.816575 1.448657 0.776525
v -0.470093 1.454252 0.913588
v -0.288369 1.454252 0.931487
v -0.106645 1.454252 0.913588
v 0.068096 1.454252 0.860581
v 0.234828 1.450959 0.781036
v 0.572213 1.454252 0.356465
v 0.488157 1.448657 0.528206
v 0.625219 1.454252 0.181724
v 0.643118 1.454252 -0.000000
v 0.625219 1.454252 -0.181724
v 0.572213 1.454252 -0.356465
v 0.492667 1.450959 -0.523197
v 0.068096 1.454252 -0.860581
v 0.239838 1.448657 -0.776527
v -0.106645 1.454252 -0.913588
v -1.156935 1.299814 0.584079
v -0.872448 1.299814 0.868566
v 0.580197 1.299814 -0.584079
v 0.295710 1.299814 -0.868566
v -0.872448 1.299814 -0.868566
v -1.156935 1.299814 -0.584079
v 0.295710 1.299814 0.868566
v 0.580197 1.299814 0.584079
v 0.805867 1.119218 0.217656
v 0.742335 1.119220 0.427041
v -1.382604 1.119218 0.217656
v -1.404042 1.119218 -0.000001
v 0.635029 1.126035 0.626326
v -1.382604 1.119218 -0.217658
v -1.319072 1.119220 -0.427043
v -1.211766 1.126035 -0.626327
v 0.337958 1.126035 0.923396
v 0.138674 1.119220 1.030702
v -0.288368 1.119218 -1.115674
v -0.070711 1.119218 -1.094236
v -0.070711 1.119218 1.094235
v 0.138674 1.119220 -1.030704
v -0.288368 1.119218 1.115673
v 0.337958 1.126035 -0.923398
v -0.914695 1.126035 -0.923398
v -0.715410 1.119220 -1.030704
v -0.506025 1.119218 1.094235
v -0.506025 1.119218 -1.094236
v -0.715410 1.119220 1.030702
v -0.914695 1.126035 0.923396
v 0.635029 1.126035 -0.626327
v 0.742335 1.119220 -0.427043
v 0.805867 1.119218 -0.217658
v 0.827305 1.119218 -0.000001
v -1.211766 1.126035 0.626326
v -1.319072 1.119220 0.427041
v -0.449309 1.479754 -0.809102
v -0.288369 1.479754 -0.824953
v -0.604055 1.479735 -0.762251
v -1.050526 1.479754 -0.315696
v -0.990320 1.468548 -0.479910
v -1.097471 1.479754 -0.160940
v -1.113322 1.479754 -0.000000
v -1.097471 1.479754 0.160940
v -1.050620 1.479735 0.315686
v -0.604065 1.479754 0.762157
v -0.768302 1.468536 0.701946
v -0.449309 1.479754 0.809102
v -0.288369 1.479754 0.824953
v -0.127429 1.479754 0.809102
v 0.027327 1.479754 0.762157
v 0.178092 1.473958 0.695607
v 0.473789 1.479754 0.315696
v 0.413569 1.468543 0.479916
v 0.520733 1.479754 0.160940
v 0.536584 1.479754 -0.000000
v 0.520733 1.479754 -0.160940
v 0.473789 1.479754 -0.315696
v 0.407253 1.473952 -0.466455
v 0.027327 1.479754 -0.762157
v 0.191566 1.468536 -0.701945
v -0.127429 1.479754 -0.809102
v -0.759744 2.436496 0.699213
v -0.744403 2.679770 0.663834
v 0.410689 2.436521 -0.471220
v 0.375149 2.679792 -0.455719
v 0.182898 2.436522 -0.699011
v 0.167446 2.679791 -0.663422
v -0.759412 2.436920 -0.697892
v -0.743652 2.680695 -0.661299
v -0.985677 2.437393 -0.469353
v -0.948523 2.682118 -0.452221
v 0.181816 2.437196 0.697770
v 0.165296 2.681492 0.661078
v 0.408211 2.437472 0.470173
v 0.370391 2.682306 0.453762
v -0.987535 2.436497 0.471422
v -0.952107 2.679770 0.456130
v -0.448541 3.186206 0.237684
v -0.335904 3.235155 0.070652
v -0.319807 3.235291 0.075818
v -0.369912 3.234893 0.000335
v -0.368231 3.234743 -0.015497
v -0.319800 3.235282 -0.075223
v -0.304471 3.235312 -0.079899
v -0.208745 3.234847 0.016209
v -0.213503 3.234710 0.031439
v -0.272577 3.235272 0.080452
v -0.288521 3.235292 0.082041
v -0.358890 3.235157 0.047667
v -0.364031 3.235268 0.031566
v -0.129218 3.186400 0.236705
v 0.046499 3.042946 0.501079
v -0.350591 3.240678 -0.049815
v -0.524627 3.186460 -0.158508
v -0.525935 3.186206 0.160290
v -0.625029 3.042273 0.503070
v -0.288521 3.235313 -0.081470
v -0.206989 3.235054 0.000312
v -0.257327 3.235089 0.075654
v -0.363568 3.234674 -0.030713
v -0.272571 3.235314 -0.079899
v -0.257234 3.235314 -0.075246
v -0.238027 3.241261 -0.062188
v -0.128465 3.186212 -0.237181
v -0.052788 3.186487 0.159418
v 0.210784 3.043282 0.335054
v -0.335843 3.234926 -0.069849
v -0.226049 3.241261 -0.050210
v -0.212989 3.235312 -0.031001
v -0.304471 3.235291 0.080471
v -0.368513 3.235084 0.016221
v -0.226597 3.240633 0.050474
v -0.448303 3.186300 -0.236442
v -0.634514 3.042201 -0.503686
v -0.791206 3.042738 -0.343762
v -0.208363 3.235278 -0.015656
v -0.051070 3.186212 -0.159786
v -0.238291 3.240830 0.062380
v -0.791342 3.042273 0.336756
v 0.214359 3.042275 -0.336319
v 0.058088 3.041818 -0.505233
v -0.288487 3.038789 -0.608284
v -0.168246 3.038558 -0.604267
v -0.055622 3.038789 -0.561964
v 0.273707 3.038789 -0.232624
v 0.308168 3.038832 -0.118273
v 0.318449 3.039147 0.000687
v 0.305419 3.039455 0.118977
v 0.270044 3.039679 0.232278
v -0.056062 3.039143 0.561172
v -0.168130 3.038590 0.604546
v -0.288474 3.038786 0.608729
v -0.408728 3.038555 0.604713
v -0.524479 3.038540 0.569583
v -0.850568 3.038831 0.232922
v -0.891675 3.038917 0.120079
v -0.902247 3.039227 0.000321
v -0.889596 3.039448 -0.118979
v -0.854425 3.039511 -0.233731
v -0.521451 3.038826 -0.561740
v -0.408749 3.038557 -0.604263
v -0.876684 2.921543 -0.401416
v -0.692486 2.920853 -0.589306
v 0.116200 2.920428 -0.591180
v -0.693164 2.920426 0.591606
v 0.302911 2.920428 -0.404469
v -0.879885 2.920420 0.404891
v 0.298666 2.921648 0.402842
v 0.114291 2.921251 0.589165
v -0.561746 2.924857 0.659645
v -0.288481 2.924870 -0.713598
v -0.149224 2.924870 -0.699882
v -0.427750 2.924871 -0.699880
v -0.015862 2.925290 0.658225
v -0.943885 2.926039 -0.270646
v -0.427739 2.924868 0.700309
v -0.561782 2.924909 -0.658988
v -0.984616 2.925954 -0.137719
v -0.288474 2.924869 0.714025
v -0.999264 2.925685 0.000506
v -0.947761 2.924914 0.273351
v -0.987006 2.925309 0.139217
v 0.366633 2.925940 0.272451
v -0.015218 2.924860 -0.659219
v 0.411410 2.924927 -0.138875
v 0.423464 2.925306 0.000613
v -0.149197 2.924918 0.700138
v 0.408184 2.925680 0.139396
v 0.370955 2.924860 -0.273040
v -0.764976 2.206222 0.707000
v 0.418555 2.206233 -0.476531
v 0.188185 2.206234 -0.706900
v -0.764860 2.206453 -0.706301
v -0.994411 2.206676 -0.475598
v 0.187640 2.206578 0.706281
v 0.417310 2.206718 0.476008
v -0.995302 2.206237 0.476684
v -0.769158 1.469126 -0.703006
v -0.985055 1.474609 0.467226
vn 0.0250 -0.2936 -0.9556
vn -0.2002 -0.8725 -0.4458
vn 0.4135 -0.8107 -0.4144
vn 0.6240 -0.4703 -0.6240
vn 0.4448 -0.8724 0.2029
vn 0.9556 -0.2936 -0.0250
vn -0.0250 -0.2936 0.9556
vn 0.2029 -0.8724 0.4448
vn -0.4133 -0.8114 0.4133
vn -0.6240 -0.4703 0.6240
vn -0.4448 -0.8724 -0.2029
vn -0.9556 -0.2936 0.0250
vn 0.9556 -0.2936 0.0250
vn 0.4458 -0.8725 -0.2002
vn 0.4144 -0.8107 0.4135
vn 0.6240 -0.4703 0.6240
vn -0.2029 -0.8724 0.4448
vn 0.0250 -0.2936 0.9556
vn -0.9556 -0.2936 -0.0250
vn -0.4448 -0.8724 0.2029
vn -0.4133 -0.8114 -0.4133
vn -0.6240 -0.4703 -0.6240
vn 0.2029 -0.8724 -0.4448
vn -0.0250 -0.2936 -0.9556
vn -0.7351 -0.6058 -0.3045
vn -0.5263 0.8193 -0.2272
vn -0.5426 0.8330 -0.1079
vn -0.7804 -0.6058 -0.1552
vn 0.7956 -0.6058 -0.0000
vn 0.5533 0.8330 -0.0000
vn 0.5426 0.8330 -0.1079
vn 0.7804 -0.6058 -0.1552
vn -0.6616 -0.6058 -0.4420
vn -0.4678 0.3319 -0.8192
vn 0.7804 -0.6058 0.1552
vn 0.5426 0.8330 0.1079
vn -0.5626 -0.6058 -0.5626
vn -0.7026 -0.1127 -0.7026
vn 0.7351 -0.6058 0.3045
vn 0.5263 0.8193 0.2272
vn -0.4420 -0.6058 -0.6616
vn -0.8192 0.3319 -0.4678
vn 0.6616 -0.6058 0.4420
vn 0.4678 0.3319 0.8192
vn -0.3045 -0.6058 -0.7351
vn -0.2272 0.8193 -0.5263
vn -0.1552 -0.6058 0.7804
vn -0.1079 0.8330 0.5426
vn -0.0000 0.8330 0.5533
vn -0.0000 -0.6058 0.7956
vn 0.5626 -0.6058 0.5626
vn 0.7026 -0.1127 0.7026
vn -0.1552 -0.6058 -0.7804
vn -0.1079 0.8330 -0.5426
vn -0.3045 -0.6058 0.7351
vn -0.2272 0.8193 0.5263
vn 0.4420 -0.6058 0.6616
vn 0.8192 0.3319 0.4678
vn -0.0000 -0.6058 -0.7956
vn -0.0000 0.8330 -0.5533
vn -0.4420 -0.6058 0.6616
vn -0.8192 0.3319 0.4678
vn 0.3045 -0.6058 0.7351
vn 0.2272 0.8193 0.5263
vn 0.1552 -0.6058 -0.7804
vn 0.1079 0.8330 -0.5426
vn -0.5626 -0.6058 0.5626
vn -0.7026 -0.1127 0.7026
vn 0.1552 -0.6058 0.7804
vn 0.1079 0.8330 0.5426
vn 0.3045 -0.6058 -0.7351
vn 0.2272 0.8193 -0.5263
vn -0.6616 -0.6058 0.4420
vn -0.4678 0.3319 0.8192
vn 0.4420 -0.6058 -0.6616
vn 0.8192 0.3319 -0.4678
vn -0.7351 -0.6058 0.3045
vn -0.5263 0.8193 0.2272
vn 0.5626 -0.6058 -0.5626
vn 0.7026 -0.1127 -0.7026
vn -0.7804 -0.6058 0.1552
vn -0.5426 0.8330 0.1079
vn 0.6616 -0.6058 -0.4420
vn 0.4678 0.3319 -0.8192
vn -0.7956 -0.6058 -0.0000
vn -0.5533 0.8330 -0.0000
vn 0.7351 -0.6058 -0.3045
vn 0.5263 0.8193 -0.2272
vn 0.1637 -0.5435 0.8233
vn -0.1079 -0.8329 -0.5428
vn -0.0000 -0.8327 -0.5537
vn -0.0000 -0.5437 0.8393
vn 0.3114 -0.5047 0.8052
vn -0.1915 -0.8522 -0.4869
vn 0.5592 -0.5529 0.6178
vn 0.5465 -0.6381 0.5424
vn 0.6168 -0.5550 0.5581
vn 0.8031 -0.5065 0.3137
vn -0.4888 -0.8511 -0.1915
vn 0.8231 -0.5437 0.1637
vn -0.5431 -0.8327 -0.1080
vn 0.8393 -0.5437 -0.0000
vn -0.5537 -0.8327 -0.0000
vn 0.8233 -0.5435 -0.1637
vn -0.5428 -0.8329 0.1079
vn 0.8052 -0.5047 -0.3113
vn -0.4869 -0.8522 0.1915
vn 0.6184 -0.5525 -0.5589
vn 0.5433 -0.6376 -0.5462
vn 0.5583 -0.5546 -0.6170
vn 0.3137 -0.5065 -0.8031
vn -0.1915 -0.8511 0.4888
vn 0.1637 -0.5437 -0.8231
vn -0.1080 -0.8327 0.5431
vn -0.0000 -0.5437 -0.8393
vn -0.0000 -0.8327 0.5537
vn -0.1637 -0.5437 -0.8231
vn 0.1080 -0.8327 0.5431
vn -0.3137 -0.5066 -0.8031
vn 0.1915 -0.8511 0.4888
vn -0.5585 -0.5550 -0.6164
vn -0.5441 -0.6392 -0.5435
vn -0.6166 -0.5551 -0.5583
vn -0.8031 -0.5066 -0.3137
vn 0.4888 -0.8511 0.1915
vn -0.8231 -0.5437 -0.1637
vn 0.5431 -0.8327 0.1080
vn -0.8393 -0.5437 -0.0000
vn 0.5537 -0.8327 -0.0000
vn -0.8231 -0.5437 0.1637
vn 0.5431 -0.8327 -0.1080
vn -0.8031 -0.5065 0.3137
vn 0.4888 -0.8511 -0.1915
vn -0.6169 -0.5547 0.5583
vn -0.5441 -0.6387 0.5441
vn -0.5583 -0.5547 0.6169
vn -0.3137 -0.5065 0.8031
vn 0.1915 -0.8511 -0.4888
vn -0.1637 -0.5437 0.8231
vn 0.1080 -0.8327 -0.5431
vn -0.2329 -0.9448 -0.2306
vn -0.0894 -0.9921 -0.0880
vn 0.4099 -0.8891 -0.2038
vn 0.2342 -0.6290 -0.7413
vn 0.7032 -0.1053 -0.7032
vn 0.6842 -0.2523 -0.6842
vn 0.9854 -0.1586 -0.0611
vn 0.9952 -0.0650 -0.0727
vn -0.0726 -0.0656 0.9952
vn -0.0611 -0.1590 0.9854
vn -0.6841 -0.2528 0.6841
vn -0.7031 -0.1060 0.7031
vn -0.9854 -0.1589 0.0612
vn -0.9952 -0.0654 0.0726
vn 0.9956 -0.0667 0.0657
vn 0.9860 -0.1582 0.0533
vn 0.6890 -0.2555 0.6782
vn 0.7065 -0.1109 0.6990
vn 0.0678 -0.1631 0.9843
vn 0.0762 -0.0706 0.9946
vn -0.9953 -0.0689 -0.0680
vn -0.9855 -0.1600 -0.0561
vn -0.6863 -0.2561 -0.6808
vn -0.7046 -0.1118 -0.7007
vn -0.0647 -0.1614 -0.9848
vn -0.0733 -0.0684 -0.9950
vn 0.0724 -0.0649 -0.9953
vn 0.0612 -0.1586 -0.9855
vn 0.7639 -0.4355 0.4762
vn 0.7436 -0.6256 -0.2360
vn 0.2341 -0.9447 0.2299
vn 0.4327 -0.7943 0.4265
vn -0.7627 -0.4360 -0.4778
vn -0.7432 -0.6264 0.2351
vn -0.4312 -0.7942 -0.4281
vn -0.4820 -0.4390 -0.7582
vn 0.2334 -0.6284 0.7421
vn 0.4106 -0.8884 0.2055
vn -0.0896 -0.9920 0.0895
vn -0.2325 -0.9444 0.2325
vn -0.2056 -0.8883 -0.4107
vn -0.7421 -0.6283 -0.2333
vn -0.4825 -0.4402 0.7572
vn -0.4290 -0.7949 0.4290
vn 0.6194 -0.4954 0.6090
vn 0.4853 -0.4404 0.7553
vn 0.2131 -0.7466 0.6302
vn -0.2333 -0.6283 -0.7422
vn -0.4107 -0.8882 -0.2060
vn 0.0898 -0.9919 -0.0899
vn 0.2325 -0.9444 -0.2325
vn -0.2323 -0.6297 0.7412
vn 0.2056 -0.8886 0.4101
vn 0.7421 -0.6283 0.2334
vn -0.2039 -0.8900 0.4078
vn 0.2522 -0.6927 0.6757
vn 0.1470 -0.6838 0.7147
vn 0.0006 -0.6857 0.7279
vn -0.1418 -0.6860 0.7136
vn -0.2447 -0.6929 0.6783
vn -0.6819 -0.6906 0.2411
vn -0.7153 -0.6859 0.1338
vn -0.7272 -0.6864 -0.0073
vn -0.7119 -0.6869 -0.1462
vn -0.6772 -0.6939 -0.2448
vn -0.4102 -0.8888 0.2046
vn 0.0905 -0.9921 0.0873
vn 0.2043 -0.8897 -0.4084
vn -0.2503 -0.6897 -0.6795
vn -0.1425 -0.6851 -0.7144
vn 0.0002 -0.6854 -0.7282
vn 0.1422 -0.6854 -0.7142
vn 0.2449 -0.6922 -0.6789
vn 0.6794 -0.6919 -0.2446
vn 0.7174 -0.6830 -0.1373
vn 0.7278 -0.6857 0.0091
vn 0.7117 -0.6865 0.1492
vn 0.6762 -0.6937 0.2481
vn 0.4291 -0.7948 -0.4291
vn 0.7573 -0.4401 -0.4825
vn -0.7572 -0.4402 0.4825
vn 0.0406 -0.9988 -0.0267
vn 0.9209 0.0628 -0.3848
vn 0.4831 -0.4402 -0.7568
vn 0.2077 -0.7473 -0.6312
vn -0.0422 -0.9988 0.0259
vn -0.9189 0.0628 0.3894
vn -0.2078 -0.7473 0.6311
vn -0.0045 -0.9995 -0.0308
vn -0.2003 0.0805 -0.9764
vn -0.4000 0.0639 -0.9143
vn -0.0238 -0.9987 -0.0444
vn 0.6139 -0.4962 -0.6139
vn 0.6312 -0.7473 -0.2079
vn -0.0258 -0.9988 0.0426
vn -0.3903 0.0629 0.9185
vn -0.1945 0.0805 0.9776
vn -0.0064 -0.9995 0.0321
vn -0.0353 -0.9994 -0.0047
vn -0.9754 0.0827 -0.2045
vn -0.9966 0.0817 -0.0124
vn -0.0340 -0.9994 0.0027
vn -0.0299 -0.9995 0.0075
vn -0.9790 0.0805 0.1873
vn 0.6334 -0.7463 0.2045
vn -0.0463 -0.9986 -0.0260
vn -0.9161 0.0655 -0.3956
vn 0.0002 -0.9995 -0.0326
vn -0.0006 0.0806 -0.9967
vn 0.0351 -0.9994 -0.0023
vn 0.9965 0.0825 0.0093
vn 0.9795 0.0816 -0.1840
vn 0.0326 -0.9994 -0.0093
vn -0.6311 -0.7473 0.2078
vn -0.2112 -0.7465 -0.6310
vn 0.0238 -0.9989 0.0412
vn 0.3968 0.0629 0.9157
vn 0.0358 -0.9993 0.0058
vn 0.9763 0.0832 0.1997
vn 0.0064 -0.9995 -0.0322
vn 0.1945 0.0807 -0.9776
vn -0.6170 -0.4952 -0.6116
vn -0.6139 -0.4963 0.6139
vn 0.0461 -0.9986 0.0272
vn 0.9184 0.0657 0.3902
vn 0.0062 -0.9995 0.0319
vn 0.1952 0.0805 0.9774
vn -0.6326 -0.7463 -0.2069
vn 0.0259 -0.9988 -0.0427
vn 0.3903 0.0630 -0.9185
vn -0.0000 -0.9995 0.0328
vn -0.0000 0.0805 0.9968
vn 0.0925 -0.0125 -0.9956
vn 0.7063 -0.0201 -0.7076
vn -0.7078 -0.0233 -0.7060
vn -0.0939 -0.0141 -0.9955
vn -0.9957 -0.0144 -0.0914
vn 0.7093 -0.0230 0.7045
vn 0.0955 -0.0150 0.9953
vn 0.9959 -0.0137 0.0890
vn -0.7070 -0.0202 0.7070
vn -0.9955 -0.0125 0.0939
vn -0.0939 -0.0125 0.9955
vn 0.9955 -0.0123 -0.0939
vn -0.7619 0.4498 0.4661
vn -0.6228 0.4733 0.6229
vn -0.4049 0.8194 0.4057
vn -0.4005 0.8576 0.3228
vn -0.4662 0.4498 0.7618
vn -0.3220 0.8589 0.3983
vn 0.7618 0.4498 -0.4662
vn 0.6229 0.4734 -0.6229
vn 0.4047 0.8201 -0.4047
vn 0.3984 0.8588 -0.3220
vn 0.4662 0.4498 -0.7618
vn 0.3220 0.8588 -0.3984
vn -0.4661 0.4497 -0.7619
vn -0.6229 0.4733 -0.6228
vn -0.4057 0.8194 -0.4049
vn -0.3228 0.8575 -0.4005
vn -0.7618 0.4498 -0.4662
vn -0.3984 0.8588 -0.3220
vn 0.4662 0.4498 0.7618
vn 0.6229 0.4734 0.6229
vn 0.4047 0.8200 0.4047
vn 0.3220 0.8588 0.3984
vn 0.7618 0.4498 0.4662
vn 0.3984 0.8588 0.3220
vn 0.6268 -0.7341 0.2611
vn 0.6655 -0.7346 0.1324
vn 0.9750 0.1083 0.1940
vn 0.9197 0.0981 0.3802
vn -0.6785 -0.7346 -0.0000
vn -0.6655 -0.7346 0.1324
vn -0.9750 0.1083 0.1940
vn -0.9941 0.1084 -0.0000
vn 0.5644 -0.7335 0.3786
vn 0.8344 0.0988 0.5423
vn -0.6655 -0.7346 -0.1324
vn -0.9750 0.1083 -0.1940
vn 0.4806 -0.7335 0.4806
vn 0.7026 0.1122 0.7026
vn -0.6268 -0.7341 -0.2611
vn -0.9197 0.0981 -0.3802
vn 0.3786 -0.7335 0.5645
vn 0.5423 0.0988 0.8344
vn -0.5645 -0.7335 -0.3786
vn -0.8344 0.0988 -0.5423
vn 0.2611 -0.7341 0.6268
vn 0.3802 0.0981 0.9197
vn 0.1324 -0.7346 -0.6655
vn -0.0000 -0.7346 -0.6785
vn -0.0000 0.1085 -0.9941
vn 0.1940 0.1083 -0.9750
vn -0.4806 -0.7335 -0.4806
vn -0.7026 0.1122 -0.7026
vn 0.1324 -0.7346 0.6655
vn 0.1940 0.1083 0.9750
vn 0.2611 -0.7341 -0.6268
vn 0.3802 0.0981 -0.9197
vn -0.3786 -0.7335 -0.5644
vn -0.5423 0.0988 -0.8344
vn -0.0000 -0.7346 0.6785
vn -0.0000 0.1084 0.9941
vn 0.3786 -0.7335 -0.5644
vn 0.5423 0.0988 -0.8344
vn -0.2611 -0.7341 -0.6268
vn -0.3802 0.0981 -0.9197
vn -0.1324 -0.7346 0.6655
vn -0.1940 0.1083 0.9750
vn 0.4806 -0.7335 -0.4806
vn 0.7026 0.1122 -0.7026
vn -0.1324 -0.7346 -0.6655
vn -0.1940 0.1083 -0.9750
vn -0.2611 -0.7341 0.6268
vn -0.3802 0.0981 0.9197
vn 0.5644 -0.7335 -0.3786
vn 0.8344 0.0988 -0.5423
vn -0.3786 -0.7335 0.5645
vn -0.5423 0.0988 0.8344
vn 0.6268 -0.7341 -0.2611
vn 0.9197 0.0981 -0.3802
vn -0.4806 -0.7335 0.4806
vn -0.7026 0.1122 0.7026
vn 0.6655 -0.7346 -0.1324
vn 0.9750 0.1083 -0.1940
vn -0.5645 -0.7335 0.3786
vn -0.8344 0.0988 0.5423
vn 0.6785 -0.7346 -0.0000
vn 0.9941 0.1085 -0.0000
vn -0.6268 -0.7341 0.2611
vn -0.9197 0.0981 0.3802
vn -0.0608 0.9501 -0.3060
vn -0.0000 0.9500 -0.3122
vn -0.0000 0.9580 0.2868
vn 0.0559 0.9579 0.2817
vn -0.1224 0.9488 -0.2914
vn 0.0992 0.9552 0.2789
vn -0.2451 0.7558 -0.6072
vn -0.5401 0.6488 -0.5360
vn -0.6068 0.7570 -0.2425
vn -0.2881 0.9496 -0.1234
vn 0.2813 0.9544 0.0997
vn -0.3059 0.9501 -0.0608
vn 0.2820 0.9578 0.0562
vn -0.3122 0.9500 -0.0000
vn 0.2866 0.9580 -0.0000
vn -0.3060 0.9501 0.0608
vn 0.2815 0.9579 -0.0559
vn -0.2913 0.9488 0.1224
vn 0.2788 0.9552 -0.0991
vn -0.6077 0.7556 0.2446
vn -0.5368 0.6484 0.5398
vn -0.2428 0.7566 0.6071
vn -0.1234 0.9496 0.2881
vn 0.0996 0.9545 -0.2812
vn -0.0608 0.9501 0.3059
vn 0.0561 0.9578 -0.2819
vn -0.0000 0.9500 0.3122
vn -0.0000 0.9581 -0.2866
vn 0.0608 0.9501 0.3059
vn -0.0561 0.9578 -0.2819
vn 0.1234 0.9496 0.2881
vn -0.0997 0.9544 -0.2813
vn 0.2432 0.7569 0.6066
vn 0.5377 0.6500 0.5371
vn 0.6065 0.7571 0.2427
vn 0.2882 0.9496 0.1234
vn -0.2814 0.9544 -0.0997
vn 0.3059 0.9501 0.0608
vn -0.2821 0.9577 -0.0562
vn 0.3122 0.9500 -0.0000
vn -0.2868 0.9580 -0.0000
vn 0.3059 0.9501 -0.0608
vn -0.2821 0.9577 0.0562
vn 0.2881 0.9496 -0.1234
vn -0.2814 0.9544 0.0997
vn 0.6071 0.7567 -0.2428
vn 0.5377 0.6495 -0.5377
vn 0.2428 0.7567 -0.6071
vn 0.1234 0.9496 -0.2881
vn -0.0997 0.9544 0.2815
vn 0.0608 0.9501 -0.3059
vn -0.0562 0.9577 0.2821
vn 0.2325 0.9450 0.2301
vn 0.4229 0.9039 -0.0644
vn 0.2401 0.9707 -0.0026
vn 0.1180 0.9862 0.1158
vn -0.7032 0.1056 0.7031
vn -0.3665 0.1064 0.9243
vn -0.3632 0.2568 0.8956
vn -0.6836 0.2558 0.6836
vn 0.9243 0.1071 -0.3664
vn 0.7031 0.1063 -0.7031
vn 0.6835 0.2563 -0.6835
vn 0.8956 0.2572 -0.3631
vn 0.3664 0.1072 -0.9243
vn 0.3631 0.2572 -0.8955
vn -0.3712 0.1109 -0.9219
vn -0.7064 0.1112 -0.6990
vn -0.6883 0.2591 -0.6776
vn -0.3703 0.2594 -0.8920
vn -0.9250 0.1127 -0.3629
vn -0.8968 0.2599 -0.3580
vn 0.3695 0.1117 0.9225
vn 0.7046 0.1121 0.7007
vn 0.6856 0.2596 0.6801
vn 0.3675 0.2598 0.8930
vn 0.9240 0.1140 0.3649
vn 0.8951 0.2607 0.3617
vn -0.9243 0.1065 0.3666
vn -0.8956 0.2568 0.3632
vn -0.2699 0.8138 -0.5146
vn -0.4273 0.8001 -0.4211
vn -0.2337 0.9449 -0.2293
vn 0.0611 0.9046 -0.4220
vn 0.2687 0.8136 0.5156
vn 0.4258 0.8000 0.4227
vn -0.0624 0.9044 0.4220
vn 0.5179 0.8129 0.2664
vn 0.4232 0.9038 0.0633
vn 0.2320 0.9446 -0.2320
vn 0.1176 0.9861 -0.1176
vn 0.2399 0.9708 0.0027
vn -0.0633 0.9038 -0.4232
vn -0.0026 0.9708 -0.2398
vn 0.5167 0.8137 -0.2663
vn 0.4237 0.8006 -0.4237
vn -0.6206 0.4925 -0.6101
vn -0.7604 0.4680 -0.4503
vn -0.5190 0.8128 -0.2647
vn -0.4232 0.9038 -0.0633
vn -0.2320 0.9446 0.2320
vn -0.1178 0.9860 0.1178
vn -0.2402 0.9707 -0.0025
vn -0.4231 0.9037 0.0656
vn 0.0633 0.9038 0.4233
vn 0.0022 0.9707 0.2403
vn 0.3503 0.9295 0.1159
vn 0.3775 0.9222 0.0838
vn 0.3865 0.9222 0.0105
vn 0.3806 0.9222 -0.0694
vn 0.3521 0.9294 -0.1108
vn 0.1115 0.9295 -0.3517
vn 0.0753 0.9223 -0.3791
vn -0.0002 0.9223 -0.3866
vn -0.0763 0.9222 -0.3790
vn -0.1175 0.9289 -0.3513
vn -0.0023 0.9713 -0.2380
vn -0.1190 0.9862 -0.1148
vn -0.2409 0.9705 0.0049
vn -0.3515 0.9295 -0.1118
vn -0.3784 0.9222 -0.0799
vn -0.3868 0.9221 -0.0077
vn -0.3811 0.9221 0.0671
vn -0.3542 0.9289 0.1078
vn -0.1121 0.9291 0.3524
vn -0.0757 0.9219 0.3798
vn 0.0003 0.9220 0.3873
vn 0.0801 0.9219 0.3791
vn 0.1197 0.9290 0.3503
vn 0.0008 0.9710 0.2390
vn -0.4237 0.8006 0.4237
vn -0.2663 0.8137 0.5167
vn 0.2663 0.8137 -0.5167
vn -0.8545 0.3854 0.3483
vn -0.7581 0.4689 0.4533
vn -0.5169 0.8135 0.2663
vn -0.4302 0.8858 0.1740
vn 0.8529 0.3858 -0.3517
vn 0.7578 0.4690 -0.4536
vn 0.4289 0.8863 -0.1746
vn 0.1854 0.3731 0.9091
vn 0.3597 0.3856 0.8496
vn 0.1772 0.8863 0.4279
vn 0.0897 0.8917 0.4437
vn -0.6151 0.4934 0.6151
vn -0.4537 0.4690 0.7578
vn 0.3524 0.3860 -0.8526
vn 0.1810 0.3738 -0.9097
vn 0.0882 0.8923 -0.4428
vn 0.1748 0.8865 -0.4285
vn 0.9082 0.3734 0.1888
vn 0.9277 0.3733 0.0096
vn 0.4519 0.8921 0.0033
vn 0.4430 0.8919 0.0909
vn 0.9110 0.3731 -0.1756
vn 0.4445 0.8916 -0.0865
vn -0.4617 0.4686 -0.7531
vn 0.8511 0.3853 0.3565
vn 0.4288 0.8860 0.1764
vn 0.0005 0.3734 0.9277
vn 0.0002 0.8923 0.4515
vn -0.9277 0.3733 -0.0070
vn -0.9113 0.3734 0.1732
vn -0.4439 0.8920 0.0859
vn -0.4520 0.8920 -0.0022
vn 0.4536 0.4691 -0.7578
vn 0.7582 0.4680 0.4540
vn -0.3575 0.3855 -0.8507
vn -0.1771 0.8859 -0.4287
vn -0.9090 0.3734 -0.1850
vn -0.4433 0.8919 -0.0896
vn -0.1810 0.3737 0.9097
vn -0.0882 0.8923 0.4428
vn 0.6182 0.4924 0.6127
vn 0.6150 0.4934 -0.6150
vn -0.8529 0.3853 -0.3524
vn -0.4295 0.8860 -0.1750
vn -0.1816 0.3736 -0.9096
vn -0.0884 0.8922 -0.4429
vn 0.4596 0.4684 0.7545
vn -0.3524 0.3859 0.8526
vn -0.1748 0.8864 0.4286
vn -0.0000 0.3736 -0.9276
vn -0.0000 0.8924 -0.4513
vn -0.9526 0.0169 0.3039
vn -0.7063 0.0155 0.7078
vn 0.7079 0.0187 0.7060
vn 0.9531 0.0204 0.3021
vn 0.3044 0.0191 0.9524
vn -0.7095 0.0184 -0.7045
vn -0.9534 0.0196 -0.3011
vn -0.3063 0.0192 -0.9518
vn 0.7070 0.0156 -0.7070
vn 0.3026 0.0167 -0.9530
vn 0.9530 0.0166 -0.3026
vn -0.3026 0.0164 0.9530
vn 0.1808 -0.3755 -0.9090
vn 0.3457 -0.3772 -0.8592
vn -0.6296 0.4692 0.6193
vn -0.1662 0.5578 0.8132
vn -0.0000 0.3894 -0.9211
vn 0.1797 0.3895 -0.9033
vn 0.3554 -0.3774 0.8552
vn 0.1865 -0.3757 0.9078
vn 0.9048 0.3904 -0.1702
vn 0.9210 0.3892 0.0163
vn -0.8343 0.5334 0.1397
vn -0.8983 0.3920 -0.1985
vn 0.9950 -0.0270 -0.0957
vn 0.8595 -0.3772 -0.3448
vn 0.3121 0.3876 0.8674
vn -0.9951 -0.0270 0.0948
vn -0.8614 -0.3773 0.3401
vn -0.2281 0.9030 -0.3642
vn -0.6198 0.4676 -0.6303
vn 0.1979 0.3924 0.8983
vn -0.1397 0.5334 0.8343
vn 0.8343 0.5334 -0.1396
vn 0.8982 0.3923 0.1980
vn 0.3849 0.0550 0.9213
vn 0.4728 0.0083 0.8811
vn -0.9022 0.3887 -0.1870
vn -0.8717 0.3879 -0.2995
vn 0.6286 0.4698 -0.6198
vn 0.1641 0.5585 -0.8131
vn -0.1980 0.3923 -0.8982
vn 0.1396 0.5334 -0.8343
vn 0.8811 0.0084 0.4728
vn 0.9213 0.0552 0.3849
vn 0.2988 0.3886 -0.8716
vn -0.1742 0.5563 -0.8125
vn -0.1397 0.5334 -0.8343
vn 0.1985 0.3920 -0.8983
vn 0.2280 0.9027 0.3648
vn 0.6198 0.4675 0.6302
vn -0.3850 0.0554 -0.9213
vn -0.4728 0.0085 -0.8811
vn 0.8128 0.5563 -0.1728
vn 0.6200 0.4674 -0.6302
vn -0.8983 0.3924 0.1980
vn -0.8343 0.5334 -0.1397
vn 0.4696 0.0100 -0.8828
vn 0.3799 0.0582 -0.9232
vn -0.6302 0.4676 -0.6198
vn -0.3648 0.9027 -0.2280
vn 0.1397 0.5334 0.8343
vn -0.1980 0.3924 0.8983
vn -0.0609 0.9500 0.3064
vn -0.0000 0.9499 0.3126
vn 0.0122 -0.9980 0.0615
vn -0.0000 -0.9980 0.0627
vn -0.9200 0.0573 0.3878
vn -0.8806 0.0095 0.4738
vn -0.1333 0.9483 0.2879
vn 0.8982 0.3924 -0.1980
vn 0.8343 0.5334 0.1396
vn 0.0240 -0.9980 0.0579
vn -0.4708 0.0094 0.8822
vn -0.3816 0.0575 0.9225
vn 0.0347 -0.9980 0.0520
vn 0.0442 -0.9980 0.0442
vn 0.9205 0.0603 -0.3860
vn 0.8811 0.0109 -0.4729
vn -0.2878 0.9484 0.1328
vn 0.5913 0.7714 0.2353
vn 0.6306 0.7659 0.1254
vn 0.0520 -0.9980 0.0347
vn -0.8815 0.0087 -0.4721
vn -0.9215 0.0551 -0.3845
vn -0.3056 0.9504 0.0571
vn -0.6428 0.7660 -0.0000
vn -0.6306 0.7659 0.1254
vn 0.0579 -0.9980 0.0240
vn -0.3119 0.9501 -0.0062
vn 0.0615 -0.9980 0.0122
vn -0.3046 0.9502 -0.0659
vn -0.6306 0.7659 -0.1254
vn 0.0627 -0.9980 -0.0000
vn -0.2860 0.9485 -0.1360
vn 0.0615 -0.9980 -0.0122
vn 0.2287 0.9025 -0.3650
vn -0.5913 0.7714 -0.2353
vn 0.0579 -0.9980 -0.0240
vn 0.0520 -0.9980 -0.0347
vn 0.0442 -0.9980 -0.0442
vn -0.1387 0.9483 -0.2853
vn -0.3672 0.9016 0.2288
vn 0.2353 0.7714 0.5913
vn 0.0347 -0.9980 -0.0520
vn -0.0638 0.9504 -0.3045
vn 0.1254 0.7659 -0.6305
vn -0.0000 0.7660 -0.6428
vn 0.0240 -0.9980 -0.0579
vn -0.0003 0.9500 -0.3124
vn 0.0122 -0.9980 -0.0615
vn 0.1265 0.9275 0.3517
vn 0.5400 0.5512 -0.6361
vn 0.0609 0.9500 -0.3063
vn 0.1254 0.7659 0.6306
vn -0.0000 -0.9980 -0.0627
vn 0.1333 0.9484 -0.2879
vn 0.2353 0.7714 -0.5913
vn -0.0122 -0.9980 -0.0615
vn -0.6351 0.5510 -0.5414
vn 0.3648 0.9027 0.2280
vn -0.0240 -0.9980 -0.0579
vn -0.0000 0.7660 0.6428
vn -0.0347 -0.9980 -0.0520
vn 0.3853 0.1355 0.9128
vn -0.0442 -0.9980 -0.0442
vn 0.2879 0.9488 -0.1297
vn 0.9127 0.1357 0.3855
vn -0.2353 0.7714 -0.5913
vn -0.0520 -0.9980 -0.0347
vn 0.3068 0.9502 -0.0552
vn -0.1254 0.7659 0.6306
vn -0.0579 -0.9980 -0.0240
vn 0.3118 0.9501 0.0049
vn -0.3855 0.1359 -0.9127
vn -0.0615 -0.9980 -0.0122
vn 0.3050 0.9502 0.0635
vn 0.3793 0.1388 -0.9148
vn -0.1254 0.7659 -0.6306
vn -0.0627 -0.9980 -0.0000
vn 0.2871 0.9486 0.1332
vn -0.2353 0.7714 0.5913
vn -0.0615 -0.9980 0.0122
vn -0.2277 0.9031 0.3642
vn -0.9104 0.1363 0.3907
vn -0.0579 -0.9980 0.0240
vn -0.5436 0.5523 0.6320
vn -0.3818 0.1378 0.9139
vn -0.0520 -0.9980 0.0347
vn -0.0442 -0.9980 0.0442
vn 0.6311 0.5522 0.5447
vn 0.1362 0.9487 0.2853
vn 0.3669 0.9016 -0.2291
vn 0.9114 0.1387 -0.3874
vn 0.5913 0.7714 -0.2353
vn -0.0347 -0.9980 0.0520
vn 0.3517 0.9275 -0.1265
vn 0.0612 0.9500 0.3061
vn -0.9127 0.1356 -0.3854
vn -0.0240 -0.9980 0.0579
vn 0.6305 0.7659 -0.1254
vn -0.0122 -0.9980 0.0615
vn 0.1740 0.5559 0.8128
vn 0.6303 0.4675 0.6198
vn 0.6428 0.7660 -0.0000
vn -0.1057 0.8405 -0.5314
vn -0.0000 0.8404 -0.5420
vn -0.2991 0.3878 0.8718
vn -0.5913 0.7714 0.2353
vn -0.2259 0.8362 -0.4998
vn 0.5447 0.5522 0.6311
vn -0.9212 0.3888 -0.0124
vn 0.1692 0.8951 -0.4125
vn -0.3074 0.3889 -0.8685
vn -0.1807 0.3895 -0.9031
vn -0.5447 0.5523 -0.6311
vn -0.0000 0.9138 0.4063
vn 0.0793 0.9137 0.3985
vn -0.4982 0.8374 -0.2251
vn -0.4110 0.8957 0.1696
vn -0.6305 0.5524 0.5453
vn 0.9009 0.3889 0.1929
vn 0.8695 0.3878 0.3059
vn -0.5311 0.8407 -0.1055
vn 0.6308 0.5528 -0.5446
vn 0.1872 0.3896 0.9017
vn 0.0008 0.3889 0.9213
vn 0.3525 0.9273 0.1262
vn -0.5421 0.8403 -0.0000
vn -0.8126 0.5559 -0.1751
vn -0.8740 0.3888 0.2915
vn 0.3988 0.9136 0.0794
vn -0.5315 0.8404 0.1058
vn 0.4062 0.9138 -0.0000
vn -0.4999 0.8361 0.2259
vn 0.3985 0.9137 -0.0793
vn -0.4126 0.8951 -0.1690
vn -0.8124 0.5554 0.1774
vn -0.6190 0.4668 0.6316
vn 0.1262 0.9273 -0.3524
vn -0.2251 0.8373 0.4982
vn 0.1695 0.8957 0.4111
vn 0.0794 0.9136 -0.3988
vn -0.1054 0.8407 0.5311
vn -0.0000 0.9138 -0.4062
vn -0.0000 0.8403 0.5421
vn -0.0794 0.9136 -0.3988
vn 0.1055 0.8407 0.5311
vn -0.1262 0.9273 -0.3524
vn 0.2251 0.8373 0.4982
vn -0.1696 0.8957 0.4110
vn -0.9954 -0.0284 -0.0920
vn -0.1063 -0.0255 -0.9940
vn 0.0957 -0.0270 -0.9950
vn -0.3524 0.9273 -0.1262
vn 0.4981 0.8374 0.2250
vn 0.4110 0.8957 -0.1697
vn -0.0957 -0.0271 0.9950
vn -0.3988 0.9136 -0.0794
vn 0.5310 0.8408 0.1054
vn -0.4063 0.9138 -0.0000
vn 0.5420 0.8404 -0.0000
vn -0.3988 0.9136 0.0794
vn 0.5310 0.8408 -0.1054
vn -0.3525 0.9273 0.1262
vn 0.4980 0.8374 -0.2251
vn 0.4109 0.8957 0.1699
vn 0.8126 0.5562 0.1742
vn 0.8720 0.3887 -0.2976
vn 0.9949 -0.0279 0.0973
vn -0.1262 0.9273 0.3525
vn 0.2251 0.8374 -0.4980
vn -0.1699 0.8957 -0.4109
vn -0.1798 0.3887 0.9037
vn -0.0794 0.9136 0.3988
vn 0.1054 0.8408 -0.5309
vn 0.1040 -0.0261 0.9942
vn -0.9061 0.3890 0.1660
vn -0.3457 -0.3773 0.8592
vn -0.0000 -0.3756 -0.9268
vn -0.1816 -0.3755 -0.9089
vn -0.8589 -0.3781 -0.3455
vn -0.1808 -0.3756 0.9090
vn -0.3521 -0.3771 -0.8567
vn -0.9077 -0.3761 -0.1860
vn 0.0006 -0.3758 0.9267
vn -0.9265 -0.3761 -0.0091
vn -0.9109 -0.3758 0.1705
vn 0.8568 -0.3780 0.3508
vn 0.9103 -0.3756 -0.1739
vn 0.9266 -0.3760 0.0121
vn 0.9068 -0.3760 0.1907
vt 0.789113 0.056874
vt 0.749411 0.074613
vt 0.747146 0.120297
vt 0.786622 0.107116
vt 0.745585 0.171058
vt 0.784906 0.162941
vt 0.599809 0.716999
vt 0.560548 0.719453
vt 0.560147 0.774396
vt 0.599367 0.777423
vt 0.560548 0.828288
vt 0.599809 0.836692
vt 0.601117 0.162566
vt 0.561737 0.170396
vt 0.560548 0.224277
vt 0.599809 0.221823
vt 0.560147 0.279219
vt 0.599367 0.282246
vt 0.824854 0.611953
vt 0.776731 0.625134
vt 0.786411 0.675895
vt 0.835500 0.667778
vt 0.791346 0.729783
vt 0.840927 0.727042
vt 0.962961 0.787799
vt 0.888668 0.789262
vt 0.882918 0.852045
vt 0.957474 0.847712
vt 0.738380 0.450741
vt 0.646316 0.459536
vt 0.649344 0.504823
vt 0.741269 0.493958
vt 0.962961 0.726712
vt 0.888668 0.725249
vt 0.736233 0.399931
vt 0.644066 0.406293
vt 0.957474 0.666798
vt 0.882918 0.662466
vt 0.734911 0.343483
vt 0.642681 0.347141
vt 0.946711 0.610361
vt 0.871640 0.603326
vt 0.734464 0.283565
vt 0.642213 0.284353
vt 0.924272 0.450105
vt 0.832275 0.459573
vt 0.835633 0.504837
vt 0.927477 0.493300
vt 0.738380 0.945917
vt 0.646316 0.954713
vt 0.649344 1.000000
vt 0.741269 0.989135
vt 0.734911 0.222479
vt 0.642681 0.220342
vt 0.921754 0.399313
vt 0.829636 0.406348
vt 0.736233 0.895108
vt 0.644066 0.901470
vt 0.736233 0.162574
vt 0.644066 0.157568
vt 0.920019 0.342875
vt 0.827818 0.347208
vt 0.734911 0.838660
vt 0.642681 0.842318
vt 0.738380 0.106151
vt 0.646316 0.098442
vt 0.919135 0.282962
vt 0.826891 0.284425
vt 0.734465 0.778741
vt 0.642213 0.779530
vt 0.741269 0.055378
vt 0.649344 0.045238
vt 0.919135 0.221875
vt 0.826891 0.220412
vt 0.734911 0.717656
vt 0.642681 0.715519
vt 0.744790 0.012207
vt 0.653033 0.000000
vt 0.920019 0.161961
vt 0.827818 0.157629
vt 0.736233 0.657750
vt 0.644066 0.652744
vt 0.921754 0.105524
vt 0.829636 0.098489
vt 0.738380 0.601327
vt 0.646316 0.593619
vt 0.924272 0.054732
vt 0.832275 0.045264
vt 0.741269 0.550555
vt 0.649344 0.540415
vt 0.927477 0.011537
vt 0.835633 -0.000000
vt 0.871640 0.911185
vt 0.946711 0.904150
vt 0.653033 0.540415
vt 0.744790 0.527923
vt 0.122298 0.450360
vt 0.089584 0.485668
vt 0.133354 0.518880
vt 0.158551 0.477868
vt 0.092108 0.416307
vt 0.053135 0.444555
vt 0.069142 0.377019
vt 0.025407 0.397121
vt 0.054282 0.334006
vt 0.007465 0.345189
vt 0.048099 0.288920
vt -0.000000 0.290754
vt 0.050830 0.243494
vt 0.003298 0.235909
vt 0.062371 0.199474
vt 0.017232 0.182762
vt 0.082279 0.158551
vt 0.041267 0.133354
vt 0.109787 0.122298
vt 0.074479 0.089584
vt 0.143840 0.092108
vt 0.115592 0.053135
vt 0.183127 0.069142
vt 0.163026 0.025407
vt 0.226141 0.054282
vt 0.214958 0.007465
vt 0.271227 0.048099
vt 0.269393 0.000000
vt 0.316653 0.050830
vt 0.324237 0.003298
vt 0.360673 0.062371
vt 0.377385 0.017232
vt 0.401596 0.082279
vt 0.426793 0.041267
vt 0.437849 0.109787
vt 0.470563 0.074479
vt 0.468039 0.143840
vt 0.507012 0.115592
vt 0.491005 0.183127
vt 0.534740 0.163026
vt 0.505865 0.226141
vt 0.552682 0.214958
vt 0.512048 0.271227
vt 0.560147 0.269393
vt 0.509317 0.316653
vt 0.556849 0.324237
vt 0.497776 0.360673
vt 0.542915 0.377385
vt 0.477868 0.401596
vt 0.518880 0.426793
vt 0.450360 0.437849
vt 0.485668 0.470563
vt 0.416307 0.468039
vt 0.444555 0.507012
vt 0.377019 0.491005
vt 0.397121 0.534740
vt 0.334006 0.505865
vt 0.345189 0.552682
vt 0.288920 0.512048
vt 0.290754 0.560147
vt 0.243494 0.509317
vt 0.235909 0.556849
vt 0.199474 0.497776
vt 0.182762 0.542915
vt 0.924263 0.142754
vt 0.876658 0.143906
vt 0.876351 0.147848
vt 0.923233 0.155994
vt 0.541785 0.551432
vt 0.542778 0.492206
vt 0.506146 0.491159
vt 0.503205 0.550329
vt 0.223526 0.557129
vt 0.218750 0.498059
vt 0.184236 0.500104
vt 0.187177 0.559283
vt 0.147595 0.501146
vt 0.148588 0.560381
vt 0.877588 0.550370
vt 0.874487 0.491013
vt 0.837861 0.491840
vt 0.839020 0.551417
vt 0.800666 0.491677
vt 0.799761 0.551371
vt 0.603689 0.156090
vt 0.602708 0.096524
vt 0.565595 0.096361
vt 0.564474 0.156043
vt 0.529213 0.095256
vt 0.526009 0.154923
vt 0.581130 0.551438
vt 0.580137 0.492212
vt 0.715864 0.175770
vt 0.790062 0.159213
vt 0.788600 0.145947
vt 0.712770 0.147682
vt 0.996804 0.112974
vt 0.922754 0.129554
vt 1.000000 0.140922
vt 0.997818 0.168955
vt 0.871345 0.210985
vt 0.860902 0.164221
vt 0.856949 0.164704
vt 0.858070 0.212608
vt 0.852978 0.164406
vt 0.844733 0.211609
vt 0.887960 0.285384
vt 0.859852 0.288818
vt 0.835877 0.434105
vt 0.833235 0.399919
vt 0.805042 0.399839
vt 0.802543 0.434010
vt 0.841599 0.077817
vt 0.852045 0.124571
vt 0.855998 0.124088
vt 0.854874 0.076195
vt 0.789706 0.132677
vt 0.715111 0.119586
vt 0.859969 0.124386
vt 0.868211 0.077193
vt 0.876208 0.139975
vt 0.875008 0.136199
vt 0.873090 0.132721
vt 0.870497 0.129700
vt 0.867360 0.127247
vt 0.863805 0.125452
vt 0.848265 0.125821
vt 0.844828 0.127811
vt 0.841851 0.130426
vt 0.839438 0.133561
vt 0.837666 0.137096
vt 0.836595 0.140905
vt 0.836265 0.144856
vt 0.836701 0.148806
vt 0.837899 0.152604
vt 0.839852 0.156074
vt 0.842450 0.159092
vt 0.845587 0.161546
vt 0.849141 0.163340
vt 0.864684 0.162976
vt 0.868148 0.161011
vt 0.871134 0.158376
vt 0.873545 0.155218
vt 0.875302 0.151664
vt 0.853087 0.000000
vt 0.881325 0.002115
vt 0.831615 0.286703
vt 0.611045 0.433355
vt 0.603429 0.399325
vt 0.575666 0.400127
vt 0.578219 0.434303
vt 0.237262 0.437808
vt 0.220553 0.404465
vt 0.197008 0.406715
vt 0.209424 0.440469
vt 0.664384 0.036247
vt 0.651907 0.002457
vt 0.625731 0.003918
vt 0.633435 0.037975
vt 0.824979 0.003435
vt 0.544739 0.434298
vt 0.547349 0.400122
vt 0.519583 0.399328
vt 0.511910 0.433359
vt 0.112176 0.443236
vt 0.114757 0.409056
vt 0.086984 0.408265
vt 0.079339 0.442302
vt 1.000000 0.235396
vt 0.977865 0.221362
vt 0.960720 0.243822
vt 0.979728 0.261952
vt 0.954624 0.284104
vt 0.939487 0.262558
vt 0.914858 0.276531
vt 0.925504 0.300625
vt 0.868700 0.433293
vt 0.860996 0.399232
vt 0.504035 0.035922
vt 0.516287 0.002182
vt 0.492673 0.000000
vt 0.476115 0.033343
vt 0.692184 0.033547
vt 0.675420 0.000173
vt 0.669307 0.428612
vt 0.652707 0.395313
vt 0.629424 0.397662
vt 0.641779 0.431390
vt 0.145656 0.443236
vt 0.143074 0.409056
vt 0.534847 0.037724
vt 0.542347 0.003706
vt 0.899747 0.431565
vt 0.887255 0.397770
vt 0.739115 0.431238
vt 0.751396 0.397494
vt 0.727836 0.395313
vt 0.711260 0.428659
vt 0.948002 0.000224
vt 0.933887 0.022458
vt 0.956190 0.039905
vt 0.974373 0.020852
vt 0.567452 0.038694
vt 0.569923 0.004526
vt 0.178493 0.442302
vt 0.170847 0.408265
vt 0.769907 0.433040
vt 0.777439 0.399018
vt 0.927551 0.428859
vt 0.910771 0.395482
vt 0.600711 0.038787
vt 0.598054 0.004605
vt 0.480992 0.431523
vt 0.493434 0.397776
vt 0.469907 0.395524
vt 0.453176 0.428861
vt 0.048407 0.440469
vt 0.060823 0.406715
vt 0.037278 0.404465
vt 0.020569 0.437808
vt 0.581358 0.607644
vt 0.541563 0.607638
vt 0.564171 0.212358
vt 0.525192 0.211235
vt 0.603901 0.212373
vt 0.839323 0.607703
vt 0.799571 0.607689
vt 0.878330 0.606598
vt 0.187844 0.615480
vt 0.148813 0.616590
vt 0.224610 0.613301
vt 0.502541 0.606522
vt 0.541547 0.790536
vt 0.502486 0.789419
vt 0.224709 0.796195
vt 0.187905 0.798376
vt 0.148834 0.799488
vt 0.878461 0.789472
vt 0.839416 0.790624
vt 0.799580 0.790643
vt 0.603901 0.395297
vt 0.564065 0.395313
vt 0.524972 0.394199
vt 0.581384 0.790542
vt 0.789107 0.058589
vt 0.748429 0.076749
vt 0.785046 0.161002
vt 0.744761 0.169310
vt 0.599873 0.719086
vt 0.559651 0.721597
vt 0.599873 0.834654
vt 0.559651 0.826050
vt 0.601151 0.164606
vt 0.560804 0.172621
vt 0.599462 0.280161
vt 0.559281 0.277062
vt 0.825309 0.613866
vt 0.776018 0.627360
vt 0.840828 0.724990
vt 0.790045 0.727796
vt 0.961260 0.787833
vt 0.955767 0.847812
vt 0.884625 0.851945
vt 0.890368 0.789199
vt 0.736273 0.450942
vt 0.739165 0.494207
vt 0.651448 0.504574
vt 0.648423 0.459335
vt 0.961295 0.726686
vt 0.890101 0.723170
vt 0.734123 0.400077
vt 0.646176 0.406148
vt 0.955820 0.666702
vt 0.732800 0.343567
vt 0.644791 0.347029
vt 0.945027 0.610197
vt 0.873594 0.605287
vt 0.732396 0.283590
vt 0.643680 0.282368
vt 0.922166 0.450322
vt 0.925418 0.493553
vt 0.837777 0.505939
vt 0.834382 0.459381
vt 0.736273 0.946119
vt 0.739165 0.989383
vt 0.651448 0.999751
vt 0.648423 0.954512
vt 0.732865 0.222432
vt 0.919645 0.399474
vt 0.831744 0.406187
vt 0.734123 0.895254
vt 0.646175 0.901297
vt 0.734167 0.162454
vt 0.645477 0.159416
vt 0.917909 0.342975
vt 0.829929 0.347109
vt 0.732843 0.838749
vt 0.644119 0.840491
vt 0.736273 0.105974
vt 0.648422 0.098644
vt 0.917023 0.282996
vt 0.829003 0.284392
vt 0.732418 0.778759
vt 0.739165 0.055146
vt 0.651448 0.045471
vt 0.917023 0.221842
vt 0.829003 0.220416
vt 0.732843 0.717601
vt 0.644119 0.717526
vt 0.742690 0.011928
vt 0.655133 0.000279
vt 0.917952 0.161872
vt 0.829331 0.155548
vt 0.734123 0.657636
vt 0.646175 0.652887
vt 0.919710 0.105368
vt 0.736273 0.601151
vt 0.648423 0.593796
vt 0.922210 0.054514
vt 0.833653 0.046581
vt 0.739165 0.550323
vt 0.651448 0.540647
vt 0.925375 0.011273
vt 0.837734 0.000285
vt 0.944993 0.904310
vt 0.873358 0.911024
vt 0.742690 0.528209
vt 0.655135 0.540146
vt 0.120204 0.452620
vt 0.156938 0.480494
vt 0.134967 0.516254
vt 0.091678 0.483407
vt 0.089670 0.418182
vt 0.055597 0.442709
vt 0.064945 0.376478
vt 0.027448 0.394076
vt 0.064645 0.376678
vt 0.027136 0.394182
vt 0.044331 0.291235
vt 0.002850 0.292596
vt 0.047808 0.242929
vt 0.044651 0.291279
vt 0.003157 0.292553
vt 0.006328 0.236443
vt 0.059482 0.198404
vt 0.020122 0.183832
vt 0.079653 0.156938
vt 0.043892 0.134967
vt 0.107527 0.120204
vt 0.076740 0.091678
vt 0.141965 0.089670
vt 0.117438 0.055597
vt 0.183665 0.064947
vt 0.166072 0.027449
vt 0.183465 0.064647
vt 0.165965 0.027136
vt 0.268909 0.044330
vt 0.267551 0.002850
vt 0.317218 0.047808
vt 0.268865 0.044650
vt 0.267595 0.003157
vt 0.323704 0.006328
vt 0.361743 0.059482
vt 0.376315 0.020122
vt 0.403209 0.079653
vt 0.425180 0.043892
vt 0.439943 0.107527
vt 0.468468 0.076739
vt 0.470481 0.141971
vt 0.504550 0.117437
vt 0.495150 0.183679
vt 0.532737 0.166056
vt 0.495417 0.183494
vt 0.533031 0.165956
vt 0.515817 0.268911
vt 0.557298 0.267551
vt 0.512339 0.317218
vt 0.515496 0.268866
vt 0.556990 0.267594
vt 0.553819 0.323704
vt 0.500665 0.361743
vt 0.540025 0.376315
vt 0.480494 0.403209
vt 0.516254 0.425180
vt 0.452620 0.439943
vt 0.483407 0.468468
vt 0.418176 0.470480
vt 0.442709 0.504550
vt 0.376471 0.495149
vt 0.394090 0.532737
vt 0.376656 0.495415
vt 0.394190 0.533031
vt 0.291237 0.515818
vt 0.292596 0.557298
vt 0.242929 0.512339
vt 0.291282 0.515497
vt 0.292552 0.556990
vt 0.236443 0.553819
vt 0.198404 0.500665
vt 0.183832 0.540025
vt 0.873588 0.604934
vt 0.923508 0.154319
vt 0.875314 0.145968
vt 0.504869 0.550394
vt 0.507807 0.491240
vt 0.221959 0.557240
vt 0.217188 0.498185
vt 0.150253 0.560352
vt 0.149260 0.501133
vt 0.875923 0.550439
vt 0.872824 0.491099
vt 0.801458 0.551386
vt 0.802362 0.491708
vt 0.601992 0.156108
vt 0.601011 0.096559
vt 0.527674 0.154992
vt 0.530874 0.095339
vt 0.579433 0.551455
vt 0.578441 0.492246
vt 0.714155 0.174434
vt 0.789709 0.157552
vt 0.998515 0.114309
vt 0.923108 0.131214
vt 0.999474 0.167541
vt 0.869683 0.211330
vt 0.858979 0.163277
vt 0.846409 0.211875
vt 0.854858 0.163364
vt 0.886628 0.287109
vt 0.804205 0.432694
vt 0.806574 0.401363
vt 0.843260 0.077472
vt 0.853968 0.125513
vt 0.713448 0.120996
vt 0.789438 0.134353
vt 0.866535 0.076927
vt 0.858089 0.125429
vt 0.873604 0.150892
vt 0.872039 0.154291
vt 0.869847 0.157176
vt 0.867128 0.159566
vt 0.863825 0.161319
vt 0.849922 0.161644
vt 0.846527 0.160048
vt 0.843665 0.157819
vt 0.841305 0.155065
vt 0.839562 0.151759
vt 0.837664 0.146880
vt 0.837634 0.142789
vt 0.839360 0.137876
vt 0.840939 0.134494
vt 0.843135 0.131630
vt 0.845852 0.129252
vt 0.849132 0.127474
vt 0.863026 0.127147
vt 0.866419 0.128744
vt 0.869281 0.130972
vt 0.871633 0.133722
vt 0.873343 0.137038
vt 0.875241 0.141906
vt 0.879914 0.000454
vt 0.833026 0.288365
vt 0.610686 0.431898
vt 0.576562 0.432989
vt 0.574188 0.401517
vt 0.603734 0.400788
vt 0.236524 0.436381
vt 0.207611 0.439253
vt 0.196157 0.408171
vt 0.221245 0.405903
vt 0.663856 0.034795
vt 0.633093 0.036512
vt 0.626018 0.005383
vt 0.652436 0.003908
vt 0.826311 0.001708
vt 0.513681 0.432094
vt 0.520851 0.400890
vt 0.112312 0.441770
vt 0.079666 0.440841
vt 0.086657 0.409727
vt 0.114681 0.410527
vt 0.999040 0.234802
vt 0.978900 0.261186
vt 0.961548 0.244589
vt 0.978825 0.221956
vt 0.953966 0.283183
vt 0.925023 0.299605
vt 0.915287 0.277581
vt 0.940145 0.263477
vt 0.866929 0.432020
vt 0.859728 0.400791
vt 0.504579 0.034471
vt 0.476816 0.031906
vt 0.491971 0.001437
vt 0.515796 0.003642
vt 0.574139 0.401650
vt 0.691466 0.032114
vt 0.676138 0.001606
vt 0.668583 0.427181
vt 0.641235 0.429940
vt 0.629968 0.399112
vt 0.653431 0.396744
vt 0.147141 0.441878
vt 0.144787 0.410400
vt 0.536619 0.036454
vt 0.543545 0.005135
vt 0.899197 0.430117
vt 0.859809 0.400657
vt 0.887756 0.399225
vt 0.739638 0.429785
vt 0.711962 0.427223
vt 0.727134 0.396750
vt 0.750875 0.398948
vt 0.947396 0.001178
vt 0.973592 0.021670
vt 0.956971 0.039087
vt 0.934493 0.021504
vt 0.543625 0.005266
vt 0.144799 0.410532
vt 0.770255 0.431575
vt 0.777149 0.400489
vt 0.926832 0.427426
vt 0.911490 0.396915
vt 0.599051 0.037465
vt 0.596531 0.006123
vt 0.481549 0.430077
vt 0.453894 0.427430
vt 0.469189 0.396955
vt 0.492930 0.399231
vt 0.806526 0.401234
vt 0.196044 0.408308
vt 0.596577 0.005992
vt 0.048941 0.439020
vt 0.021287 0.436377
vt 0.036561 0.405896
vt 0.060290 0.408164
vt 0.520769 0.400755
vt 0.579660 0.607648
vt 0.526858 0.211288
vt 0.602203 0.212378
vt 0.801269 0.607692
vt 0.876665 0.606652
vt 0.150478 0.616547
vt 0.223041 0.613398
vt 0.504206 0.606574
vt 0.504153 0.789891
vt 0.223138 0.796713
vt 0.150501 0.799866
vt 0.876796 0.789962
vt 0.801281 0.791069
vt 0.602201 0.395726
vt 0.526641 0.394676
vt 0.579685 0.790979
s 1
f 127/1/1 106/2/2 107/3/3 128/4/4
f 128/4/4 107/3/3 108/5/5 129/6/6
f 130/7/7 122/8/8 123/9/9 131/10/10
f 131/10/10 123/9/9 124/11/11 132/12/12
f 133/13/13 98/14/14 99/15/15 134/16/16
f 134/16/16 99/15/15 100/17/17 135/18/18
f 136/19/19 114/20/20 115/21/21 137/22/22
f 137/22/22 115/21/21 116/23/23 138/24/24
f 23/25/25 94/26/26 65/27/27 24/28/28
f 9/29/29 93/30/30 63/31/31 10/32/32
f 22/33/33 92/34/34 94/26/26 23/25/25
f 8/35/35 91/36/36 93/30/30 9/29/29
f 21/37/37 90/38/38 92/34/34 22/33/33
f 7/39/39 89/40/40 91/36/36 8/35/35
f 20/41/41 88/42/42 90/38/38 21/37/37
f 6/43/43 87/44/44 89/40/40 7/39/39
f 19/45/45 86/46/46 88/47/42 20/48/41
f 32/49/47 85/50/48 74/51/49 1/52/50
f 5/53/51 84/54/52 87/44/44 6/43/43
f 18/55/53 83/56/54 86/46/46 19/45/45
f 31/57/55 82/58/56 85/50/48 32/49/47
f 4/59/57 81/60/58 84/54/52 5/53/51
f 17/61/59 80/62/60 83/56/54 18/55/53
f 30/63/61 79/64/62 82/58/56 31/57/55
f 3/65/63 78/66/64 81/60/58 4/59/57
f 16/67/65 77/68/66 80/62/60 17/61/59
f 29/69/67 76/70/68 79/64/62 30/63/61
f 2/71/69 75/72/70 78/66/64 3/65/63
f 15/73/71 73/74/72 77/68/66 16/67/65
f 28/75/73 72/76/74 76/70/68 29/69/67
f 1/77/50 74/78/49 75/72/70 2/71/69
f 14/79/75 71/80/76 73/74/72 15/73/71
f 27/81/77 70/82/78 72/76/74 28/75/73
f 13/83/79 69/84/80 71/80/76 14/79/75
f 26/85/81 68/86/82 70/82/78 27/81/77
f 12/87/83 67/88/84 69/84/80 13/83/79
f 25/89/85 66/90/86 68/86/82 26/85/81
f 11/91/87 64/92/88 67/88/84 12/87/83
f 24/28/28 65/27/27 66/93/86 25/94/85
f 10/32/32 63/31/31 64/95/88 11/96/87
f 34/97/89 95/98/90 96/99/91 33/100/92
f 35/101/93 97/102/94 95/98/90 34/97/89
f 139/103/95 98/104/14 97/102/94 35/101/93
f 36/105/96 99/106/15 98/104/14 139/103/95
f 37/107/97 100/108/17 99/106/15 36/105/96
f 38/109/98 101/110/99 100/108/17 37/107/97
f 39/111/100 102/112/101 101/110/99 38/109/98
f 40/113/102 103/114/103 102/112/101 39/111/100
f 41/115/104 104/116/105 103/114/103 40/113/102
f 42/117/106 105/118/107 104/116/105 41/115/104
f 140/119/108 106/120/2 105/118/107 42/117/106
f 43/121/109 107/122/3 106/120/2 140/119/108
f 44/123/110 108/124/5 107/122/3 43/121/109
f 45/125/111 109/126/112 108/124/5 44/123/110
f 46/127/113 110/128/114 109/126/112 45/125/111
f 47/129/115 111/130/116 110/128/114 46/127/113
f 48/131/117 112/132/118 111/130/116 47/129/115
f 49/133/119 113/134/120 112/132/118 48/131/117
f 50/135/121 114/136/20 113/134/120 49/133/119
f 51/137/122 115/138/21 114/136/20 50/135/121
f 52/139/123 116/140/23 115/138/21 51/137/122
f 53/141/124 117/142/125 116/140/23 52/139/123
f 54/143/126 118/144/127 117/142/125 53/141/124
f 55/145/128 119/146/129 118/144/127 54/143/126
f 56/147/130 120/148/131 119/146/129 55/145/128
f 57/149/132 121/150/133 120/148/131 56/147/130
f 58/151/134 122/152/8 121/150/133 57/149/132
f 59/153/135 123/154/9 122/152/8 58/151/134
f 60/155/136 124/156/11 123/154/9 59/153/135
f 61/157/137 125/158/138 124/156/11 60/155/136
f 62/159/139 126/160/140 125/158/138 61/157/137
f 33/100/92 96/99/91 126/160/140 62/159/139
f 90/38/38 137/22/22 138/24/24 92/34/34
f 88/42/42 136/19/19 137/22/22 90/38/38
f 84/54/52 134/16/16 135/18/18 87/44/44
f 81/60/58 133/13/13 134/16/16 84/54/52
f 76/70/68 131/10/10 132/12/12 79/64/62
f 72/76/74 130/7/7 131/10/10 76/70/68
f 69/84/80 128/4/4 129/6/6 71/80/76
f 67/88/84 127/1/1 128/4/4 69/84/80
f 192/161/141 164/162/142 163/163/143 193/164/144
f 262/165/145 145/166/146 146/167/147 261/168/148
f 263/169/149 150/170/150 151/171/151 264/172/152
f 264/172/152 151/171/151 152/173/153 265/174/154
f 266/175/155 141/176/156 142/177/157 267/178/158
f 267/178/158 142/177/157 143/179/159 268/180/160
f 269/181/161 147/182/162 148/183/163 270/184/164
f 270/184/164 148/183/163 149/185/165 271/186/166
f 272/187/167 144/188/168 145/166/146 262/165/145
f 225/189/169 185/190/170 186/191/171 224/192/172
f 209/193/173 191/194/174 192/161/141 208/195/175
f 208/195/175 192/161/141 193/164/144 207/196/176
f 194/197/177 157/198/178 156/199/179 195/200/180
f 195/200/180 156/199/179 155/201/181 196/202/182
f 201/203/183 194/197/177 195/200/180 200/204/184
f 256/205/185 224/206/172 223/207/186 233/208/187
f 188/209/188 173/210/189 172/211/190 189/212/191
f 224/192/172 186/191/171 187/213/192 223/214/186
f 189/212/191 172/211/190 171/215/193 190/216/194
f 164/162/142 165/217/195 166/218/196 167/219/197 168/220/198 169/221/199 170/222/200 171/215/193 172/211/190 173/210/189 174/223/201 175/224/202 176/225/203 177/226/204 178/227/205 179/228/206 180/229/207 181/230/208 182/231/209 184/232/210 183/233/211 153/234/212 154/235/213 155/201/181 156/199/179 157/198/178 158/236/214 159/237/215 160/238/216 161/239/217 162/240/218 163/163/143
f 186/191/171 180/229/207 179/228/206 187/213/192
f 216/241/219 189/212/191 190/216/194 215/242/220
f 191/194/174 165/217/195 164/162/142 192/161/141
f 200/204/184 195/200/180 196/202/182 199/243/221
f 185/190/170 181/230/208 180/229/207 186/191/171
f 252/244/222 218/245/223 217/246/224 250/247/225
f 246/248/226 202/249/227 201/250/183 244/251/228
f 235/252/229 211/253/230 210/254/231 255/255/232
f 217/256/224 188/209/188 189/212/191 216/241/219
f 242/257/233 216/258/219 215/259/220 241/260/234
f 257/261/235 198/262/236 197/263/237 234/264/238
f 247/265/239 205/266/240 204/267/241 243/268/242
f 248/269/243 203/270/244 202/271/227 246/272/226
f 236/273/245 225/274/169 224/206/172 256/205/185
f 249/275/246 206/276/247 205/277/240 247/278/239
f 250/247/225 217/246/224 216/258/219 242/257/233
f 258/279/248 212/280/249 211/253/230 235/252/229
f 230/281/250 220/282/251 219/283/252 229/284/253
f 243/268/242 204/267/241 203/270/244 248/269/243
f 237/285/254 199/286/221 198/262/236 257/261/235
f 251/287/255 207/288/176 206/276/247 249/275/246
f 229/284/253 219/283/252 218/245/223 252/244/222
f 259/289/256 226/290/257 225/274/169 236/273/245
f 231/291/258 221/292/259 220/293/251 230/294/250
f 238/295/260 213/296/261 212/297/249 258/298/248
f 253/299/262 208/300/175 207/288/176 251/287/255
f 260/301/263 200/302/184 199/286/221 237/285/254
f 232/303/264 222/304/265 221/292/259 231/291/258
f 239/305/266 228/306/267 226/290/257 259/289/256
f 254/307/268 209/308/173 208/300/175 253/299/262
f 240/309/269 214/310/270 213/311/261 238/312/260
f 233/208/187 223/207/186 222/304/265 232/303/264
f 244/251/228 201/250/183 200/302/184 260/301/263
f 255/255/232 210/254/231 209/308/173 254/307/268
f 245/313/271 227/314/272 228/315/267 239/316/266
f 234/264/238 197/263/237 227/314/272 245/313/271
f 241/260/234 215/259/220 214/310/270 240/309/269
f 150/170/150 244/251/228 260/301/263 151/171/151
f 147/182/162 254/307/268 253/299/262 148/183/163
f 151/171/151 260/301/263 237/285/254 152/173/153
f 148/183/163 253/299/262 251/287/255 149/185/165
f 144/188/168 250/247/225 242/257/233 145/166/146
f 141/176/156 236/273/245 256/205/185 142/177/157
f 145/166/146 242/257/233 241/260/234 146/167/147
f 142/177/157 256/205/185 233/208/187 143/179/159
f 284/317/273 272/187/167 262/165/145 273/318/274
f 282/319/275 270/184/164 271/186/166 283/320/276
f 281/321/277 269/181/161 270/184/164 282/319/275
f 279/322/278 267/178/158 268/180/160 280/323/279
f 278/324/280 266/175/155 267/178/158 279/322/278
f 276/325/281 264/172/152 265/174/154 277/326/282
f 275/327/283 263/169/149 264/172/152 276/325/281
f 273/318/274 262/165/145 261/168/148 274/328/284
f 43/329/109 273/318/274 274/328/284 44/330/110
f 58/331/134 275/327/283 276/325/281 59/332/135
f 59/332/135 276/325/281 277/326/282 60/333/136
f 139/334/95 278/324/280 279/322/278 36/335/96
f 36/335/96 279/322/278 280/323/279 37/336/97
f 50/337/121 281/321/277 282/319/275 51/338/122
f 51/338/122 282/319/275 283/320/276 52/339/123
f 140/340/108 284/317/273 273/318/274 43/329/109
f 411/341/285 412/4/286 391/3/287 390/342/288
f 412/4/286 413/343/289 613/344/290 391/3/287
f 414/345/291 415/10/292 407/9/293 406/346/294
f 415/10/292 416/347/295 627/348/296 407/9/293
f 417/349/297 418/16/298 383/15/299 382/350/300
f 418/16/298 419/351/301 606/352/302 383/15/299
f 420/353/303 421/22/304 399/21/305 398/354/306
f 421/22/304 422/355/307 620/356/308 399/21/305
f 307/357/309 308/358/310 637/359/311 638/360/312
f 293/361/313 294/362/314 639/363/315 640/364/316
f 306/365/317 307/357/309 638/360/312 641/366/318
f 292/367/319 293/361/313 640/364/316 642/368/320
f 305/369/321 306/365/317 641/366/318 374/38/322
f 291/370/323 292/367/319 642/368/320 643/371/324
f 304/372/325 305/369/321 374/38/322 645/373/326
f 290/374/327 291/370/323 643/371/324 644/375/328
f 303/376/329 304/377/325 645/378/326 646/379/330
f 316/380/331 285/381/332 647/382/333 648/383/334
f 289/384/335 290/374/327 644/375/328 368/54/336
f 302/385/337 303/376/329 646/379/330 649/386/338
f 315/387/339 316/380/331 648/383/334 650/388/340
f 288/389/341 289/384/335 368/54/336 653/390/342
f 301/391/343 302/385/337 649/386/338 651/392/344
f 314/393/345 315/387/339 650/388/340 652/394/346
f 287/395/347 288/389/341 653/390/342 654/396/348
f 300/397/349 301/391/343 651/392/344 655/398/350
f 313/399/351 314/393/345 652/394/346 360/70/352
f 286/400/353 287/395/347 654/396/348 656/401/354
f 299/402/355 300/397/349 655/398/350 657/403/356
f 312/404/357 313/399/351 360/70/352 659/405/358
f 285/406/332 286/400/353 656/401/354 647/407/333
f 298/408/359 299/402/355 657/403/356 658/409/360
f 311/410/361 312/404/357 659/405/358 660/411/362
f 297/412/363 298/408/359 658/409/360 353/84/364
f 310/413/365 311/410/361 660/411/362 661/414/366
f 296/415/367 297/412/363 353/84/364 663/416/368
f 309/417/369 310/413/365 661/414/366 662/418/370
f 295/419/371 296/415/367 663/416/368 664/420/372
f 308/358/310 309/421/369 662/422/370 637/359/311
f 294/362/314 295/423/371 664/424/372 639/363/315
f 318/425/373 317/426/374 380/427/375 379/428/376
f 319/429/377 318/425/373 379/428/376 381/430/378
f 807/431/379 319/429/377 381/430/378 382/432/300
f 320/105/380 807/433/379 382/434/300 383/106/299
f 669/435/381 320/105/380 383/106/299 606/436/302
f 322/437/382 669/438/381 606/439/302 385/440/383
f 323/441/384 322/437/382 385/440/383 386/442/385
f 324/443/386 323/441/384 386/442/385 387/444/387
f 325/445/388 324/443/386 387/444/387 388/446/389
f 326/447/390 325/445/388 388/446/389 389/448/391
f 424/449/392 326/447/390 389/448/391 390/450/288
f 327/121/393 424/451/392 390/452/288 391/122/287
f 675/453/394 327/121/393 391/122/287 613/454/290
f 329/455/395 675/456/394 613/457/290 393/458/396
f 330/459/397 329/455/395 393/458/396 394/460/398
f 331/461/399 330/459/397 394/460/398 395/462/400
f 332/463/401 331/461/399 395/462/400 396/464/402
f 333/465/403 332/463/401 396/464/402 397/466/404
f 334/467/405 333/465/403 397/466/404 398/468/306
f 335/137/406 334/469/405 398/470/306 399/138/305
f 682/471/407 335/137/406 399/138/305 620/472/308
f 337/473/408 682/474/407 620/475/308 401/476/409
f 338/477/410 337/473/408 401/476/409 402/478/411
f 339/479/412 338/477/410 402/478/411 403/480/413
f 340/481/414 339/479/412 403/480/413 404/482/415
f 341/483/416 340/481/414 404/482/415 405/484/417
f 342/485/418 341/483/416 405/484/417 406/486/294
f 343/153/419 342/487/418 406/488/294 407/154/293
f 689/489/420 343/153/419 407/154/293 627/490/296
f 345/491/421 689/492/420 627/493/296 409/494/422
f 346/495/423 345/491/421 409/494/422 410/496/424
f 317/426/374 346/495/423 410/496/424 380/427/375
f 374/38/322 641/366/318 422/355/307 421/22/304
f 645/497/326 374/38/322 421/22/304 420/353/303
f 368/54/336 644/375/328 419/351/301 418/16/298
f 653/390/342 368/54/336 418/16/298 417/349/297
f 360/70/352 652/394/346 416/347/295 415/10/292
f 659/405/358 360/70/352 415/10/292 414/345/291
f 353/84/364 658/409/360 413/343/289 412/4/286
f 663/416/368 353/84/364 412/4/286 411/341/285
f 476/161/425 477/498/426 741/499/427 448/162/428
f 546/165/429 545/500/430 692/501/431 429/166/432
f 547/502/433 548/172/434 435/171/435 694/503/436
f 548/172/434 549/504/437 696/505/438 435/171/435
f 550/506/439 551/178/440 426/177/441 698/507/442
f 551/178/440 552/508/443 700/509/444 426/177/441
f 553/510/445 554/184/446 432/183/447 702/511/448
f 554/184/446 555/512/449 704/513/450 432/183/447
f 556/514/451 546/165/429 429/166/432 706/515/452
f 743/516/453 508/192/454 470/191/455 469/517/456
f 493/518/457 492/195/458 476/161/425 475/519/459
f 492/195/458 491/520/460 477/498/426 476/161/425
f 478/521/461 479/200/462 440/199/463 737/522/464
f 479/200/462 480/523/465 732/524/466 440/199/463
f 485/525/467 484/204/468 479/200/462 478/521/461
f 540/205/469 771/526/470 744/527/471 508/206/454
f 472/528/472 473/212/473 456/211/474 457/529/475
f 508/192/454 744/530/471 471/531/476 470/191/455
f 473/212/473 474/532/477 455/533/478 456/211/474
f 448/162/428 741/499/427 446/534/479 445/535/480 444/536/481 443/537/482 442/538/483 737/522/464 440/199/463 732/524/466 438/539/484 437/540/485 467/541/486 468/542/487 466/543/488 465/544/489 464/229/490 722/545/491 462/546/492 461/547/493 460/548/494 459/549/495 458/550/496 457/529/475 456/211/474 455/533/478 454/551/497 453/552/498 452/553/499 451/554/500 450/555/501 747/556/502
f 470/191/455 471/531/476 722/545/491 464/229/490
f 500/241/503 499/557/504 474/532/477 473/212/473
f 475/519/459 476/161/425 448/162/428 747/556/502
f 484/204/468 750/558/505 480/523/465 479/200/462
f 469/517/456 470/191/455 464/229/490 465/544/489
f 790/559/506 776/560/507 501/561/508 502/562/509
f 798/563/510 775/564/511 485/565/467 486/566/512
f 796/567/513 783/568/514 494/569/515 760/570/516
f 501/571/508 500/241/503 473/212/473 472/528/472
f 526/257/517 774/572/518 499/573/504 500/258/503
f 793/574/519 781/575/520 752/576/521 482/577/522
f 797/578/523 795/579/524 488/580/525 489/581/526
f 794/582/527 798/583/510 486/584/512 487/585/528
f 772/586/529 540/205/469 508/206/454 743/587/453
f 792/588/530 797/589/523 489/590/526 490/591/531
f 776/560/507 526/257/517 500/258/503 501/592/508
f 788/593/532 796/567/513 760/570/516 496/594/533
f 789/595/534 791/596/535 765/597/536 766/598/537
f 795/579/524 794/582/527 487/585/528 488/580/525
f 773/599/538 793/574/519 482/577/522 750/600/505
f 777/601/539 792/588/530 490/591/531 491/602/460
f 791/596/535 790/559/506 502/562/509 765/597/536
f 786/603/540 772/586/529 743/604/453 510/605/541
f 787/606/542 789/607/534 766/608/537 767/609/543
f 785/610/544 788/611/532 496/612/533 762/613/545
f 537/299/546 777/601/539 491/614/460 492/300/458
f 544/301/547 773/599/538 750/615/505 484/302/468
f 784/616/548 787/606/542 767/609/543 768/617/549
f 782/618/550 786/603/540 510/605/541 770/619/551
f 778/620/552 537/299/546 492/300/458 493/621/457
f 779/622/553 785/623/544 762/624/545 763/625/554
f 771/526/470 784/616/548 768/617/549 744/626/471
f 775/564/511 544/301/547 484/302/468 485/627/467
f 783/568/514 778/620/552 493/628/457 494/569/515
f 780/629/555 782/630/550 770/631/551 511/632/556
f 781/575/520 780/629/555 511/632/556 752/576/521
f 774/572/518 779/622/553 763/625/554 499/633/504
f 694/503/436 435/171/435 544/301/547 775/564/511
f 702/511/448 432/183/447 537/299/546 778/620/552
f 435/171/435 696/505/438 773/599/538 544/301/547
f 432/183/447 704/513/450 777/601/539 537/299/546
f 706/515/452 429/166/432 526/257/517 776/560/507
f 698/507/442 426/177/441 540/205/469 772/586/529
f 429/166/432 692/501/431 774/572/518 526/257/517
f 426/177/441 700/509/444 771/526/470 540/205/469
f 568/634/557 557/318/558 546/165/429 556/514/451
f 566/319/559 567/635/560 555/512/449 554/184/446
f 565/636/561 566/319/559 554/184/446 553/510/445
f 563/322/562 564/637/563 552/508/443 551/178/440
f 562/638/564 563/322/562 551/178/440 550/506/439
f 560/325/565 561/639/566 549/504/437 548/172/434
f 559/640/567 560/325/565 548/172/434 547/502/433
f 557/318/558 558/641/568 545/500/430 546/165/429
f 327/329/393 675/642/394 558/641/568 557/318/558
f 342/643/418 343/332/419 560/325/565 559/640/567
f 343/332/419 689/644/420 561/639/566 560/325/565
f 807/645/379 320/335/380 563/322/562 562/638/564
f 320/335/380 669/646/381 564/637/563 563/322/562
f 334/647/405 335/338/406 566/319/559 565/636/561
f 335/338/406 682/648/407 567/635/560 566/319/559
f 424/649/392 327/329/393 557/318/558 568/634/557
f 257/261/235 234/264/238 518/264/569 541/261/570
f 165/217/195 191/194/174 720/194/571 449/217/572
f 153/234/212 183/233/211 726/233/573 730/234/574
f 235/252/229 255/255/232 539/255/575 519/252/576
f 160/238/216 159/237/215 745/237/577 727/238/578
f 127/1/1 67/88/84 351/88/579 629/1/580
f 246/248/226 244/251/228 528/251/581 530/248/582
f 166/218/196 165/217/195 449/217/572 728/218/583
f 252/244/222 250/247/225 534/247/584 536/244/585
f 188/209/188 217/256/224 748/256/586 724/209/587
f 71/80/76 129/6/6 630/6/588 355/80/589
f 130/7/7 72/76/74 356/76/590 631/7/591
f 274/328/284 261/168/148 691/168/592 799/328/593
f 178/227/205 177/226/204 711/226/594 729/227/595
f 181/230/208 185/190/170 742/190/596 736/230/597
f 79/64/62 132/12/12 632/12/598 363/64/599
f 263/169/149 275/327/283 800/327/600 693/169/601
f 155/201/181 154/235/213 731/235/602 439/201/603
f 133/13/13 81/60/58 365/60/604 633/13/605
f 194/197/177 201/203/183 749/203/606 746/197/607
f 277/326/282 265/174/154 695/174/608 801/326/609
f 193/164/144 163/163/143 447/163/610 734/164/611
f 87/44/44 135/18/18 634/18/612 371/44/613
f 266/175/155 278/324/280 802/324/614 697/175/615
f 199/243/221 196/202/182 733/202/616 483/243/617
f 136/19/19 88/42/42 372/42/618 635/19/619
f 227/314/272 197/263/237 481/263/620 751/314/621
f 1/77/50 2/71/69 569/71/622 570/77/623
f 280/323/279 268/180/160 699/180/624 803/323/625
f 197/263/237 198/262/236 753/262/626 481/263/620
f 92/34/34 138/24/24 636/24/627 376/34/628
f 2/71/69 3/65/63 571/65/629 569/71/622
f 269/181/161 281/321/277 804/321/630 701/181/631
f 3/65/63 4/59/57 572/59/632 571/65/629
f 4/59/57 5/53/51 573/53/633 572/59/632
f 283/320/276 271/186/166 703/186/634 805/320/635
f 201/250/183 202/249/227 754/249/636 749/250/606
f 65/27/27 94/26/26 378/26/637 349/27/638
f 5/53/51 6/43/43 574/43/639 573/53/633
f 272/187/167 284/317/273 806/317/640 705/187/641
f 202/271/227 203/270/244 755/270/642 754/271/636
f 63/31/31 93/30/30 377/30/643 347/31/644
f 6/43/43 7/39/39 575/39/645 574/43/639
f 203/270/244 204/267/241 756/267/646 755/270/642
f 94/26/26 92/34/34 376/34/628 378/26/637
f 7/39/39 8/35/35 576/35/647 575/39/645
f 204/267/241 205/266/240 757/266/648 756/267/646
f 93/30/30 91/36/36 375/36/649 377/30/643
f 8/35/35 9/29/29 577/29/650 576/35/647
f 205/277/240 206/276/247 758/276/651 757/277/648
f 9/29/29 10/32/32 578/32/652 577/29/650
f 206/276/247 207/288/176 735/288/653 758/276/651
f 91/36/36 89/40/40 373/40/654 375/36/649
f 10/32/32 11/96/87 579/96/655 578/32/652
f 11/91/87 12/87/83 580/87/656 579/91/655
f 89/40/40 87/44/44 371/44/613 373/40/654
f 12/87/83 13/83/79 581/83/657 580/87/656
f 209/308/173 210/254/231 759/254/658 721/308/659
f 88/47/42 86/46/46 370/46/660 372/47/618
f 13/83/79 14/79/75 582/79/661 581/83/657
f 210/254/231 211/253/230 495/253/662 759/254/658
f 74/51/49 85/50/48 369/50/663 358/51/664
f 14/79/75 15/73/71 583/73/665 582/79/661
f 211/253/230 212/280/249 761/280/666 495/253/662
f 15/73/71 16/67/65 584/67/667 583/73/665
f 139/103/95 35/101/93 667/101/668 423/103/669
f 212/297/249 213/296/261 497/296/670 761/297/666
f 86/46/46 83/56/54 367/56/671 370/46/660
f 16/67/65 17/61/59 585/61/672 584/67/667
f 278/324/280 139/334/95 423/334/669 802/324/614
f 213/311/261 214/310/270 498/310/673 497/311/670
f 85/50/48 82/58/56 366/58/674 369/50/663
f 17/61/59 18/55/53 586/55/675 585/61/672
f 284/317/273 140/340/108 808/340/676 806/317/640
f 214/310/270 215/259/220 725/259/677 498/310/673
f 18/55/53 19/45/45 587/45/678 586/55/675
f 83/56/54 80/62/60 364/62/679 367/56/671
f 19/45/45 20/48/41 588/48/680 587/45/678
f 261/168/148 146/167/147 430/167/681 691/168/592
f 82/58/56 79/64/62 363/64/599 366/58/674
f 20/41/41 21/37/37 589/37/682 588/41/680
f 217/246/224 218/245/223 764/245/683 748/246/586
f 150/170/150 263/169/149 693/169/601 434/170/684
f 81/60/58 78/66/64 362/66/685 365/60/604
f 21/37/37 22/33/33 590/33/686 589/37/682
f 218/245/223 219/283/252 503/283/687 764/245/683
f 80/62/60 77/68/66 361/68/688 364/62/679
f 22/33/33 23/25/25 591/25/689 590/33/686
f 219/283/252 220/282/251 504/282/690 503/283/687
f 265/174/154 152/173/153 436/173/691 695/174/608
f 23/25/25 24/28/28 592/28/692 591/25/689
f 220/293/251 221/292/259 505/292/693 504/293/690
f 141/176/156 266/175/155 697/175/615 425/176/694
f 78/66/64 75/72/70 359/72/695 362/66/685
f 24/28/28 25/94/85 593/94/696 592/28/692
f 221/292/259 222/304/265 506/304/697 505/292/693
f 77/68/66 73/74/72 357/74/698 361/68/688
f 25/89/85 26/85/81 594/85/699 593/89/696
f 222/304/265 223/207/186 507/207/700 506/304/697
f 268/180/160 143/179/159 427/179/701 699/180/624
f 26/85/81 27/81/77 595/81/702 594/85/699
f 281/321/277 50/337/121 680/337/703 804/321/630
f 147/182/162 269/181/161 701/181/631 431/182/704
f 75/72/70 74/78/49 358/78/664 359/72/695
f 27/81/77 28/75/73 596/75/705 595/81/702
f 73/74/72 71/80/76 355/80/589 357/74/698
f 28/75/73 29/69/67 597/69/706 596/75/705
f 275/327/283 58/331/134 687/331/707 800/327/600
f 225/274/169 226/290/257 769/290/708 509/274/709
f 271/186/166 149/185/165 433/185/710 703/186/634
f 72/76/74 70/82/78 354/82/711 356/76/590
f 29/69/67 30/63/61 598/63/712 597/69/706
f 140/119/108 42/117/106 673/117/713 808/119/676
f 226/290/257 228/306/267 512/306/714 769/290/708
f 144/188/168 272/187/167 705/187/641 428/188/715
f 30/63/61 31/57/55 599/57/716 598/63/712
f 228/315/267 227/314/272 751/314/621 512/315/714
f 70/82/78 68/86/82 352/86/717 354/82/711
f 31/57/55 32/49/47 600/49/718 599/57/716
f 198/262/236 199/286/221 483/286/617 753/262/626
f 190/216/194 171/215/193 708/215/719 707/216/720
f 32/49/47 1/52/50 570/52/623 600/49/718
f 68/86/82 66/90/86 350/90/721 352/86/717
f 96/99/91 95/98/90 601/98/722 602/99/723
f 171/215/193 170/222/200 709/222/724 708/215/719
f 67/88/84 64/92/88 348/92/725 351/88/579
f 95/98/90 97/102/94 603/102/726 601/98/722
f 44/330/110 274/328/284 799/328/593 328/330/727
f 177/226/204 176/225/203 710/225/728 711/226/594
f 66/93/86 65/27/27 349/27/638 350/93/721
f 97/102/94 98/104/14 604/104/729 603/102/726
f 184/232/210 182/231/209 712/231/730 713/232/731
f 64/95/88 63/31/31 347/31/644 348/95/725
f 60/333/136 277/326/282 801/326/609 344/333/732
f 34/97/89 33/100/92 666/100/733 665/97/734
f 35/101/93 34/97/89 665/97/734 667/101/668
f 100/108/17 101/110/99 605/110/735 384/108/736
f 37/336/97 280/323/279 803/323/625 321/336/737
f 162/240/218 161/239/217 714/239/738 715/240/739
f 101/110/99 102/112/101 607/112/740 605/110/735
f 52/339/123 283/320/276 805/320/635 336/339/741
f 168/220/198 167/219/197 716/219/742 717/220/743
f 38/109/98 37/107/97 321/107/737 668/109/744
f 102/112/101 103/114/103 608/114/745 607/112/740
f 174/223/201 173/210/189 718/210/746 719/223/747
f 39/111/100 38/109/98 668/109/744 670/111/748
f 103/114/103 104/116/105 609/116/749 608/114/745
f 40/113/102 39/111/100 670/111/748 671/113/750
f 104/116/105 105/118/107 610/118/751 609/116/749
f 41/115/104 40/113/102 671/113/750 672/115/752
f 105/118/107 106/120/2 611/120/753 610/118/751
f 42/117/106 41/115/104 672/115/752 673/117/713
f 191/194/174 209/193/173 721/193/659 720/194/571
f 187/213/192 179/228/206 463/228/754 723/213/755
f 45/125/111 44/123/110 328/123/727 674/125/756
f 108/124/5 109/126/112 612/126/757 392/124/758
f 173/210/189 188/209/188 724/209/587 718/210/746
f 46/127/113 45/125/111 674/125/756 676/127/759
f 109/126/112 110/128/114 614/128/760 612/126/757
f 215/242/220 190/216/194 707/216/720 725/242/677
f 47/129/115 46/127/113 676/127/759 677/129/761
f 110/128/114 111/130/116 615/130/762 614/128/760
f 183/233/211 184/232/210 713/232/731 726/233/573
f 48/131/117 47/129/115 677/129/761 678/131/763
f 111/130/116 112/132/118 616/132/764 615/130/762
f 161/239/217 160/238/216 727/238/578 714/239/738
f 49/133/119 48/131/117 678/131/763 679/133/765
f 112/132/118 113/134/120 617/134/766 616/132/764
f 167/219/197 166/218/196 728/218/583 716/219/742
f 50/135/121 49/133/119 679/133/765 680/135/703
f 113/134/120 114/136/20 618/136/767 617/134/766
f 143/179/159 233/208/187 517/208/768 427/179/701
f 236/273/245 141/176/156 425/176/694 520/273/769
f 179/228/206 178/227/205 729/227/595 463/228/754
f 152/173/153 237/285/254 521/285/770 436/173/691
f 154/235/213 153/234/212 730/234/574 731/235/602
f 53/141/124 52/139/123 336/139/741 681/141/771
f 116/140/23 117/142/125 619/142/772 400/140/773
f 146/167/147 241/260/234 525/260/774 430/167/681
f 196/202/182 155/201/181 439/201/603 733/202/616
f 54/143/126 53/141/124 681/141/771 683/143/775
f 117/142/125 118/144/127 621/144/776 619/142/772
f 55/145/128 54/143/126 683/143/775 684/145/777
f 118/144/127 119/146/129 622/146/778 621/144/776
f 207/196/176 193/164/144 734/164/611 735/196/653
f 56/147/130 55/145/128 684/145/777 685/147/779
f 119/146/129 120/148/131 623/148/780 622/146/778
f 244/251/228 150/170/150 434/170/684 528/251/581
f 182/231/209 181/230/208 736/230/597 712/231/730
f 57/149/132 56/147/130 685/147/779 686/149/781
f 120/148/131 121/150/133 624/150/782 623/148/780
f 58/151/134 57/149/132 686/149/781 687/151/707
f 121/150/133 122/152/8 625/152/783 624/150/782
f 250/247/225 144/188/168 428/188/715 534/247/584
f 158/236/214 157/198/178 441/198/784 738/236/785
f 149/185/165 251/287/255 535/287/786 433/185/710
f 61/157/137 60/155/136 344/155/732 688/157/787
f 124/156/11 125/158/138 626/158/788 408/156/789
f 170/222/200 169/221/199 739/221/790 709/222/724
f 62/159/139 61/157/137 688/157/787 690/159/791
f 125/158/138 126/160/140 628/160/792 626/158/788
f 254/307/268 147/182/162 431/182/704 538/307/793
f 33/100/92 62/159/139 690/159/791 666/100/733
f 126/160/140 96/99/91 602/99/723 628/160/792
f 176/225/203 175/224/202 740/224/794 710/225/728
f 241/260/234 240/309/269 524/309/795 525/260/774
f 106/2/2 127/1/1 629/1/580 611/2/753
f 234/264/238 245/313/271 529/313/796 518/264/569
f 245/313/271 239/316/266 523/316/797 529/313/796
f 129/6/6 108/5/5 392/5/758 630/6/588
f 255/255/232 254/307/268 538/307/793 539/255/575
f 122/8/8 130/7/7 631/7/591 625/8/783
f 233/208/187 232/303/264 516/303/798 517/208/768
f 240/309/269 238/312/260 522/312/799 524/309/795
f 132/12/12 124/11/11 408/11/789 632/12/598
f 98/14/14 133/13/13 633/13/605 604/14/729
f 239/305/266 259/289/256 543/289/800 523/305/797
f 232/303/264 231/291/258 515/291/801 516/303/798
f 135/18/18 100/17/17 384/17/736 634/18/612
f 114/20/20 136/19/19 635/19/619 618/20/767
f 238/295/260 258/298/248 542/298/802 522/295/799
f 138/24/24 116/23/23 400/23/773 636/24/627
f 231/291/258 230/294/250 514/294/803 515/291/801
f 259/289/256 236/273/245 520/273/769 543/289/800
f 229/284/253 252/244/222 536/244/585 513/284/804
f 251/287/255 249/275/246 533/275/805 535/287/786
f 237/285/254 257/261/235 541/261/570 521/285/770
f 163/163/143 162/240/218 715/240/739 447/163/610
f 243/268/242 248/269/243 532/269/806 527/268/807
f 185/190/170 225/189/169 509/189/709 742/190/596
f 230/281/250 229/284/253 513/284/804 514/281/803
f 169/221/199 168/220/198 717/220/743 739/221/790
f 258/279/248 235/252/229 519/252/576 542/279/802
f 175/224/202 174/223/201 719/223/747 740/224/794
f 223/214/186 187/213/192 723/213/755 507/214/700
f 249/275/246 247/278/239 531/278/808 533/275/805
f 248/269/243 246/272/226 530/272/582 532/269/806
f 159/237/215 158/236/214 738/236/785 745/237/577
f 247/265/239 243/268/242 527/268/807 531/265/808
f 157/198/178 194/197/177 746/197/607 441/198/784
f 286/400/353 285/406/332 570/77/623 569/71/622
f 287/395/347 286/400/353 569/71/622 571/65/629
f 288/389/341 287/395/347 571/65/629 572/59/632
f 289/384/335 288/389/341 572/59/632 573/53/633
f 290/374/327 289/384/335 573/53/633 574/43/639
f 291/370/323 290/374/327 574/43/639 575/39/645
f 292/367/319 291/370/323 575/39/645 576/35/647
f 293/361/313 292/367/319 576/35/647 577/29/650
f 294/362/314 293/361/313 577/29/650 578/32/652
f 295/423/371 294/362/314 578/32/652 579/96/655
f 296/415/367 295/419/371 579/91/655 580/87/656
f 297/412/363 296/415/367 580/87/656 581/83/657
f 298/408/359 297/412/363 581/83/657 582/79/661
f 299/402/355 298/408/359 582/79/661 583/73/665
f 300/397/349 299/402/355 583/73/665 584/67/667
f 301/391/343 300/397/349 584/67/667 585/61/672
f 302/385/337 301/391/343 585/61/672 586/55/675
f 303/376/329 302/385/337 586/55/675 587/45/678
f 304/377/325 303/376/329 587/45/678 588/48/680
f 305/369/321 304/372/325 588/41/680 589/37/682
f 306/365/317 305/369/321 589/37/682 590/33/686
f 307/357/309 306/365/317 590/33/686 591/25/689
f 308/358/310 307/357/309 591/25/689 592/28/692
f 309/421/369 308/358/310 592/28/692 593/94/696
f 310/413/365 309/417/369 593/89/696 594/85/699
f 311/410/361 310/413/365 594/85/699 595/81/702
f 312/404/357 311/410/361 595/81/702 596/75/705
f 313/399/351 312/404/357 596/75/705 597/69/706
f 314/393/345 313/399/351 597/69/706 598/63/712
f 315/387/339 314/393/345 598/63/712 599/57/716
f 316/380/331 315/387/339 599/57/716 600/49/718
f 285/381/332 316/380/331 600/49/718 570/52/623
f 379/428/376 380/427/375 602/99/723 601/98/722
f 381/430/378 379/428/376 601/98/722 603/102/726
f 382/432/300 381/430/378 603/102/726 604/104/729
f 385/440/383 606/439/302 384/108/736 605/110/735
f 386/442/385 385/440/383 605/110/735 607/112/740
f 387/444/387 386/442/385 607/112/740 608/114/745
f 388/446/389 387/444/387 608/114/745 609/116/749
f 389/448/391 388/446/389 609/116/749 610/118/751
f 390/450/288 389/448/391 610/118/751 611/120/753
f 393/458/396 613/457/290 392/124/758 612/126/757
f 394/460/398 393/458/396 612/126/757 614/128/760
f 395/462/400 394/460/398 614/128/760 615/130/762
f 396/464/402 395/462/400 615/130/762 616/132/764
f 397/466/404 396/464/402 616/132/764 617/134/766
f 398/468/306 397/466/404 617/134/766 618/136/767
f 401/476/409 620/475/308 400/140/773 619/142/772
f 402/478/411 401/476/409 619/142/772 621/144/776
f 403/480/413 402/478/411 621/144/776 622/146/778
f 404/482/415 403/480/413 622/146/778 623/148/780
f 405/484/417 404/482/415 623/148/780 624/150/782
f 406/486/294 405/484/417 624/150/782 625/152/783
f 409/494/422 627/493/296 408/156/789 626/158/788
f 410/496/424 409/494/422 626/158/788 628/160/792
f 380/427/375 410/496/424 628/160/792 602/99/723
f 411/341/285 390/342/288 611/2/753 629/1/580
f 613/344/290 413/343/289 630/6/588 392/5/758
f 414/345/291 406/346/294 625/8/783 631/7/591
f 627/348/296 416/347/295 632/12/598 408/11/789
f 417/349/297 382/350/300 604/14/729 633/13/605
f 606/352/302 419/351/301 634/18/612 384/17/736
f 420/353/303 398/354/306 618/20/767 635/19/619
f 620/356/308 422/355/307 636/24/627 400/23/773
f 638/360/312 637/359/311 349/27/638 378/26/637
f 640/364/316 639/363/315 347/31/644 377/30/643
f 641/366/318 638/360/312 378/26/637 376/34/628
f 642/368/320 640/364/316 377/30/643 375/36/649
f 643/371/324 642/368/320 375/36/649 373/40/654
f 644/375/328 643/371/324 373/40/654 371/44/613
f 646/379/330 645/378/326 372/47/618 370/46/660
f 648/383/334 647/382/333 358/51/664 369/50/663
f 649/386/338 646/379/330 370/46/660 367/56/671
f 650/388/340 648/383/334 369/50/663 366/58/674
f 651/392/344 649/386/338 367/56/671 364/62/679
f 652/394/346 650/388/340 366/58/674 363/64/599
f 654/396/348 653/390/342 365/60/604 362/66/685
f 655/398/350 651/392/344 364/62/679 361/68/688
f 656/401/354 654/396/348 362/66/685 359/72/695
f 657/403/356 655/398/350 361/68/688 357/74/698
f 647/407/333 656/401/354 359/72/695 358/78/664
f 658/409/360 657/403/356 357/74/698 355/80/589
f 660/411/362 659/405/358 356/76/590 354/82/711
f 661/414/366 660/411/362 354/82/711 352/86/717
f 662/418/370 661/414/366 352/86/717 350/90/721
f 664/420/372 663/416/368 351/88/579 348/92/725
f 637/359/311 662/422/370 350/93/721 349/27/638
f 639/363/315 664/424/372 348/95/725 347/31/644
f 317/426/374 318/425/373 665/97/734 666/100/733
f 318/425/373 319/429/377 667/101/668 665/97/734
f 669/438/381 322/437/382 668/109/744 321/107/737
f 322/437/382 323/441/384 670/111/748 668/109/744
f 323/441/384 324/443/386 671/113/750 670/111/748
f 324/443/386 325/445/388 672/115/752 671/113/750
f 325/445/388 326/447/390 673/117/713 672/115/752
f 675/456/394 329/455/395 674/125/756 328/123/727
f 329/455/395 330/459/397 676/127/759 674/125/756
f 330/459/397 331/461/399 677/129/761 676/127/759
f 331/461/399 332/463/401 678/131/763 677/129/761
f 332/463/401 333/465/403 679/133/765 678/131/763
f 333/465/403 334/467/405 680/135/703 679/133/765
f 682/474/407 337/473/408 681/141/771 336/139/741
f 337/473/408 338/477/410 683/143/775 681/141/771
f 338/477/410 339/479/412 684/145/777 683/143/775
f 339/479/412 340/481/414 685/147/779 684/145/777
f 340/481/414 341/483/416 686/149/781 685/147/779
f 341/483/416 342/485/418 687/151/707 686/149/781
f 689/492/420 345/491/421 688/157/787 344/155/732
f 345/491/421 346/495/423 690/159/791 688/157/787
f 346/495/423 317/426/374 666/100/733 690/159/791
f 663/416/368 411/341/285 629/1/580 351/88/579
f 413/343/289 658/409/360 355/80/589 630/6/588
f 659/405/358 414/345/291 631/7/591 356/76/590
f 416/347/295 652/394/346 363/64/599 632/12/598
f 653/390/342 417/349/297 633/13/605 365/60/604
f 419/351/301 644/375/328 371/44/613 634/18/612
f 645/497/326 420/353/303 635/19/619 372/42/618
f 422/355/307 641/366/318 376/34/628 636/24/627
f 692/501/431 545/500/430 691/168/592 430/167/681
f 547/502/433 694/503/436 434/170/684 693/169/601
f 696/505/438 549/504/437 695/174/608 436/173/691
f 550/506/439 698/507/442 425/176/694 697/175/615
f 700/509/444 552/508/443 699/180/624 427/179/701
f 553/510/445 702/511/448 431/182/704 701/181/631
f 704/513/450 555/512/449 703/186/634 433/185/710
f 556/514/451 706/515/452 428/188/715 705/187/641
f 455/533/478 474/532/477 707/216/720 708/215/719
f 454/551/497 455/533/478 708/215/719 709/222/724
f 460/548/494 461/547/493 711/226/594 710/225/728
f 466/543/488 468/542/487 713/232/731 712/231/730
f 445/535/480 446/534/479 715/240/739 714/239/738
f 451/554/500 452/553/499 717/220/743 716/219/742
f 457/529/475 458/550/496 719/223/747 718/210/746
f 493/518/457 475/519/459 720/194/571 721/193/659
f 722/545/491 471/531/476 723/213/755 463/228/754
f 472/528/472 457/529/475 718/210/746 724/209/587
f 474/532/477 499/557/504 725/242/677 707/216/720
f 468/542/487 467/541/486 726/233/573 713/232/731
f 444/536/481 445/535/480 714/239/738 727/238/578
f 450/555/501 451/554/500 716/219/742 728/218/583
f 462/546/492 722/545/491 463/228/754 729/227/595
f 437/540/485 438/539/484 731/235/602 730/234/574
f 732/524/466 480/523/465 733/202/616 439/201/603
f 477/498/426 491/520/460 735/196/653 734/164/611
f 465/544/489 466/543/488 712/231/730 736/230/597
f 737/522/464 442/538/483 738/236/785 441/198/784
f 453/552/498 454/551/497 709/222/724 739/221/790
f 459/549/495 460/548/494 710/225/728 740/224/794
f 446/534/479 741/499/427 447/163/610 715/240/739
f 743/516/453 469/517/456 742/190/596 509/189/709
f 452/553/499 453/552/498 739/221/790 717/220/743
f 458/550/496 459/549/495 740/224/794 719/223/747
f 471/531/476 744/530/471 507/214/700 723/213/755
f 442/538/483 443/537/482 745/237/577 738/236/785
f 478/521/461 737/522/464 441/198/784 746/197/607
f 475/519/459 747/556/502 449/217/572 720/194/571
f 467/541/486 437/540/485 730/234/574 726/233/573
f 443/537/482 444/536/481 727/238/578 745/237/577
f 747/556/502 450/555/501 728/218/583 449/217/572
f 501/571/508 472/528/472 724/209/587 748/256/586
f 461/547/493 462/546/492 729/227/595 711/226/594
f 469/517/456 465/544/489 736/230/597 742/190/596
f 438/539/484 732/524/466 439/201/603 731/235/602
f 485/525/467 478/521/461 746/197/607 749/203/606
f 741/499/427 477/498/426 734/164/611 447/163/610
f 480/523/465 750/558/505 483/243/617 733/202/616
f 752/576/521 511/632/556 751/314/621 481/263/620
f 482/577/522 752/576/521 481/263/620 753/262/626
f 486/566/512 485/565/467 749/250/606 754/249/636
f 487/585/528 486/584/512 754/271/636 755/270/642
f 488/580/525 487/585/528 755/270/642 756/267/646
f 489/581/526 488/580/525 756/267/646 757/266/648
f 490/591/531 489/590/526 757/277/648 758/276/651
f 491/602/460 490/591/531 758/276/651 735/288/653
f 494/569/515 493/628/457 721/308/659 759/254/658
f 760/570/516 494/569/515 759/254/658 495/253/662
f 496/594/533 760/570/516 495/253/662 761/280/666
f 762/613/545 496/612/533 761/297/666 497/296/670
f 763/625/554 762/624/545 497/311/670 498/310/673
f 499/633/504 763/625/554 498/310/673 725/259/677
f 502/562/509 501/561/508 748/246/586 764/245/683
f 765/597/536 502/562/509 764/245/683 503/283/687
f 766/598/537 765/597/536 503/283/687 504/282/690
f 767/609/543 766/608/537 504/293/690 505/292/693
f 768/617/549 767/609/543 505/292/693 506/304/697
f 744/626/471 768/617/549 506/304/697 507/207/700
f 510/605/541 743/604/453 509/274/709 769/290/708
f 770/619/551 510/605/541 769/290/708 512/306/714
f 511/632/556 770/631/551 512/315/714 751/314/621
f 750/600/505 482/577/522 753/262/626 483/286/617
f 771/526/470 700/509/444 427/179/701 517/208/768
f 698/507/442 772/586/529 520/273/769 425/176/694
f 773/599/538 696/505/438 436/173/691 521/285/770
f 774/572/518 692/501/431 430/167/681 525/260/774
f 694/503/436 775/564/511 528/251/581 434/170/684
f 706/515/452 776/560/507 534/247/584 428/188/715
f 777/601/539 704/513/450 433/185/710 535/287/786
f 702/511/448 778/620/552 538/307/793 431/182/704
f 779/622/553 774/572/518 525/260/774 524/309/795
f 780/629/555 781/575/520 518/264/569 529/313/796
f 782/630/550 780/629/555 529/313/796 523/316/797
f 778/620/552 783/568/514 539/255/575 538/307/793
f 784/616/548 771/526/470 517/208/768 516/303/798
f 785/623/544 779/622/553 524/309/795 522/312/799
f 786/603/540 782/618/550 523/305/797 543/289/800
f 787/606/542 784/616/548 516/303/798 515/291/801
f 788/611/532 785/610/544 522/295/799 542/298/802
f 789/607/534 787/606/542 515/291/801 514/294/803
f 772/586/529 786/603/540 543/289/800 520/273/769
f 790/559/506 791/596/535 513/284/804 536/244/585
f 792/588/530 777/601/539 535/287/786 533/275/805
f 793/574/519 773/599/538 521/285/770 541/261/570
f 794/582/527 795/579/524 527/268/807 532/269/806
f 791/596/535 789/595/534 514/281/803 513/284/804
f 796/567/513 788/593/532 542/279/802 519/252/576
f 797/589/523 792/588/530 533/275/805 531/278/808
f 798/583/510 794/582/527 532/269/806 530/272/582
f 795/579/524 797/578/523 531/265/808 527/268/807
f 781/575/520 793/574/519 541/261/570 518/264/569
f 783/568/514 796/567/513 519/252/576 539/255/575
f 775/564/511 798/563/510 530/248/582 528/251/581
f 776/560/507 790/559/506 536/244/585 534/247/584
f 545/500/430 558/641/568 799/328/593 691/168/592
f 559/640/567 547/502/433 693/169/601 800/327/600
f 549/504/437 561/639/566 801/326/609 695/174/608
f 562/638/564 550/506/439 697/175/615 802/324/614
f 552/508/443 564/637/563 803/323/625 699/180/624
f 565/636/561 553/510/445 701/181/631 804/321/630
f 555/512/449 567/635/560 805/320/635 703/186/634
f 568/634/557 556/514/451 705/187/641 806/317/640
f 319/429/377 807/431/379 423/103/669 667/101/668
f 807/645/379 562/638/564 802/324/614 423/334/669
f 424/649/392 568/634/557 806/317/640 808/340/676
f 334/647/405 565/636/561 804/321/630 680/337/703
f 342/643/418 559/640/567 800/327/600 687/331/707
f 326/447/390 424/449/392 808/119/676 673/117/713
f 558/641/568 675/642/394 328/330/727 799/328/593
f 561/639/566 689/644/420 344/333/732 801/326/609
f 564/637/563 669/646/381 321/336/737 803/323/625
f 567/635/560 682/648/407 336/339/741 805/320/635
