# Blender 4.0.1
# www.blender.org
mtllib Bomber_Wings.mtl
o Bomber_Wing_Left
v -1.389652 0.376479 -0.984716
v 0.662624 0.378157 -0.984716
v -1.425576 0.400978 -4.589231
v -0.225838 0.411092 -4.589231
v -1.397902 0.383243 -3.868328
v -1.389652 0.370068 -3.147425
v -1.389652 0.369694 -2.426522
v -1.389652 0.372010 -1.705619
v 0.597143 0.370847 -1.693278
v 0.436806 0.369616 -2.399302
v 0.254151 0.386080 -3.135137
v 0.039792 0.392792 -3.868328
v -0.876583 0.416393 -0.984716
v -0.363514 0.463797 -0.984716
v 0.149555 0.417297 -0.984716
v -0.574494 0.453528 -4.589231
v -0.779797 0.463858 -4.589231
v -1.081335 0.444054 -4.589231
v 0.084965 0.453345 -1.724341
v -0.375077 0.492225 -1.731871
v -0.868609 0.452328 -1.733090
v -0.017906 0.458480 -2.416697
v -0.403213 0.490331 -2.429722
v -0.868609 0.455793 -2.435630
v -0.118244 0.469129 -3.131235
v -0.431063 0.492334 -3.137222
v -0.870245 0.459007 -3.138170
v -0.351362 0.476290 -3.840710
v -0.628545 0.492717 -3.840710
v -0.983128 0.468981 -3.840710
v -1.389652 0.015498 -0.984716
v 0.662624 0.013834 -0.984716
v -1.425576 -0.008925 -4.589231
v -0.225838 -0.019016 -4.589231
v -1.397902 0.008737 -3.868328
v -1.389652 0.021858 -3.147425
v -1.389652 0.022230 -2.426522
v -1.389652 0.019933 -1.705619
v 0.597143 0.015375 -1.693278
v 0.436806 0.009479 -2.399302
v 0.254151 -0.000336 -3.135137
v 0.039792 -0.000786 -3.868328
v -0.876583 -0.024302 -0.984716
v -0.363514 -0.071573 -0.984716
v 0.149555 -0.025200 -0.984716
v -0.574494 -0.061333 -4.589231
v -0.779797 -0.071634 -4.589231
v -1.081335 -0.051883 -4.589231
v 0.084965 -0.067203 -1.724341
v -0.375077 -0.100783 -1.731871
v -0.868609 -0.059990 -1.733090
v -0.017906 -0.080003 -2.416697
v -0.403213 -0.102678 -2.429722
v -0.868609 -0.063447 -2.435630
v -0.118244 -0.081848 -3.131235
v -0.431063 -0.100674 -3.137222
v -0.870245 -0.066654 -3.138170
v -0.351362 -0.083905 -3.840710
v -0.628545 -0.100291 -3.840710
v -0.983128 -0.076607 -3.840710
v 0.654119 0.275184 -1.639731
v 0.685006 0.193321 -1.610703
v 0.654119 0.111332 -1.639731
v 0.722815 0.113580 -0.896386
v 0.755445 0.195918 -0.848502
v 0.722815 0.278299 -0.896386
v 0.184560 0.098286 -0.896386
v 0.203536 0.195953 -0.848502
v 0.184560 0.293682 -0.896386
v -0.891950 0.293591 -0.896386
v -0.900281 0.195953 -0.848502
v -0.891950 0.098376 -0.896386
v -1.430206 0.113740 -0.896386
v -1.452190 0.195918 -0.848502
v -1.430206 0.278137 -0.896386
v 0.485912 0.272643 -2.380413
v 0.512532 0.190168 -2.370173
v 0.485912 0.107271 -2.380413
v -0.209261 0.291331 -4.677844
v -0.200274 0.195948 -4.725881
v -0.209261 0.100622 -4.677844
v 0.069409 0.107171 -3.921552
v 0.085464 0.195931 -3.950405
v 0.069409 0.284742 -3.921552
v -0.353695 0.314102 -0.896386
v -0.348373 0.196000 -0.848502
v -0.353695 0.077985 -0.896386
v 0.294290 0.280750 -3.152370
v 0.316050 0.193216 -3.161711
v 0.294290 0.105400 -3.152370
v -1.467893 0.286700 -4.677844
v -1.490833 0.195937 -4.725881
v -1.467893 0.105227 -4.677844
v -1.106753 0.086731 -4.677844
v -1.120533 0.195980 -4.725881
v -1.106753 0.305305 -4.677844
v -1.438860 0.280672 -3.921552
v -1.461064 0.195922 -3.950405
v -1.438860 0.111216 -3.921552
v -0.575033 0.309617 -4.677844
v -0.575324 0.195990 -4.725881
v -0.575033 0.082444 -4.677844
v -1.430206 0.277516 -3.165260
v -1.452190 0.195918 -3.174929
v -1.430206 0.114351 -3.165260
v -0.790413 0.314109 -4.677844
v -0.796169 0.196000 -4.725881
v -0.790413 0.077978 -4.677844
v -1.430206 0.277515 -2.408969
v -1.452190 0.195918 -2.399453
v -1.430206 0.114352 -2.408969
v -1.430206 0.277724 -1.652677
v -1.452190 0.195918 -1.623978
v -1.430206 0.114147 -1.652677
vn 0.1232 0.9915 -0.0428
vn 0.6170 0.7628 -0.1937
vn 0.4599 0.7576 -0.4631
vn 0.0750 0.8632 -0.4992
vn 0.0766 0.8802 0.4684
vn 0.4804 0.8220 0.3057
vn 0.5970 0.7961 -0.0996
vn 0.1184 0.9930 0.0026
vn 0.6131 0.7785 -0.1348
vn 0.1365 0.9905 -0.0138
vn 0.6229 0.7669 -0.1543
vn 0.1448 0.9892 -0.0242
vn -0.6227 0.7823 0.0137
vn -0.1217 0.9924 0.0154
vn -0.1237 0.9923 0.0096
vn -0.6322 0.7744 0.0255
vn 0.0048 1.0000 0.0021
vn -0.0061 0.9999 -0.0153
vn -0.6139 0.7894 0.0008
vn -0.1191 0.9929 0.0029
vn 0.0024 1.0000 0.0011
vn -0.6059 0.7955 0.0058
vn -0.1095 0.9939 0.0167
vn 0.0023 0.9998 0.0196
vn -0.5072 0.7950 0.3326
vn -0.0753 0.8789 0.4709
vn -0.0001 0.8755 0.4832
vn -0.0894 0.8765 -0.4730
vn -0.5479 0.7665 -0.3352
vn -0.0088 0.8675 -0.4973
vn 0.1202 -0.9917 -0.0447
vn 0.0748 -0.8634 -0.4989
vn 0.4597 -0.7579 -0.4629
vn 0.6163 -0.7625 -0.1970
vn 0.0749 -0.8789 0.4710
vn 0.1131 -0.9935 0.0108
vn 0.5976 -0.7964 -0.0927
vn 0.4799 -0.8211 0.3088
vn 0.1272 -0.9918 -0.0133
vn 0.6123 -0.7792 -0.1338
vn 0.1371 -0.9901 -0.0309
vn 0.6219 -0.7664 -0.1610
vn -0.6223 -0.7827 0.0136
vn -0.6318 -0.7747 0.0254
vn -0.1234 -0.9923 0.0096
vn -0.1230 -0.9923 0.0146
vn -0.0078 -0.9998 -0.0157
vn -0.0036 -1.0000 -0.0010
vn -0.6135 -0.7897 0.0008
vn -0.1216 -0.9926 0.0029
vn -0.0097 -1.0000 0.0016
vn -0.6056 -0.7958 0.0058
vn -0.1108 -0.9937 0.0174
vn -0.0052 -0.9997 0.0241
vn -0.5070 -0.7953 0.3324
vn -0.0753 -0.8790 0.4708
vn -0.0020 -0.8750 0.4842
vn -0.5476 -0.7668 -0.3350
vn -0.0891 -0.8767 -0.4728
vn -0.0088 -0.8677 -0.4970
vn 0.6176 -0.5969 0.5122
vn 0.9167 -0.3730 -0.1429
vn 0.0203 -0.5172 0.8556
vn -0.6230 -0.5474 0.5588
vn -0.0206 -0.5158 0.8564
vn 0.9163 -0.3372 -0.2159
vn 0.9009 -0.3171 -0.2964
vn 0.5314 -0.4621 -0.7100
vn 0.0004 -0.4792 0.8777
vn 0.9139 -0.3225 -0.2466
vn -0.0237 -0.4863 -0.8735
vn -0.6512 -0.5104 -0.5616
vn -0.9538 -0.2992 0.0271
vn 0.0202 -0.4716 -0.8816
vn -0.9458 -0.3248 0.0068
vn -0.0023 -0.4561 -0.8899
vn -0.9436 -0.3311 -0.0002
vn -0.9453 -0.3263 -0.0006
vn -0.9453 0.3261 -0.0006
vn -0.6231 0.5472 0.5589
vn -1.0000 -0.0001 -0.0001
vn -0.6563 -0.0001 0.7545
vn -0.9436 0.3310 -0.0002
vn -1.0000 -0.0000 -0.0000
vn -0.0023 0.4558 -0.8901
vn -0.0238 0.4860 -0.8736
vn -0.0009 -0.0001 -1.0000
vn -0.0092 -0.0001 -1.0000
vn -0.9458 0.3246 0.0068
vn -1.0000 -0.0001 0.0064
vn 0.0203 0.4713 -0.8818
vn 0.0078 -0.0001 -1.0000
vn -0.9539 0.2990 0.0272
vn -0.9996 -0.0001 0.0285
vn 0.5315 0.4618 -0.7101
vn 0.5253 -0.0001 -0.8509
vn -0.6514 0.5101 -0.5617
vn -0.6738 -0.0001 -0.7389
vn 0.9142 0.3233 -0.2442
vn 0.9012 0.3171 -0.2954
vn 0.9654 0.0004 -0.2608
vn 0.9482 0.0002 -0.3176
vn 0.0004 0.4789 0.8779
vn 0.0204 0.5169 0.8558
vn 0.0002 -0.0001 1.0000
vn 0.0079 -0.0001 1.0000
vn 0.9160 0.3379 -0.2162
vn 0.9733 -0.0004 -0.2296
vn -0.0207 0.5155 0.8566
vn -0.0079 -0.0001 1.0000
vn 0.9165 0.3724 -0.1458
vn 0.9899 -0.0002 -0.1420
vn 0.6184 0.5969 0.5112
vn 0.7028 0.0004 0.7114
vt 0.356291 0.531650
vt 0.428741 0.535281
vt 0.382451 0.669521
vt 0.317992 0.670854
vt 0.437769 0.001976
vt 0.532607 0.000000
vt 0.523273 0.131195
vt 0.428689 0.138880
vt 0.496397 0.262287
vt 0.412374 0.267218
vt 0.465500 0.398964
vt 0.396609 0.399642
vt 0.161802 0.407655
vt 0.257682 0.403862
vt 0.239552 0.534118
vt 0.163077 0.540894
vt 0.338810 0.401953
vt 0.305058 0.532720
vt 0.158993 0.274439
vt 0.255249 0.274036
vt 0.341200 0.271107
vt 0.156182 0.141222
vt 0.252513 0.144216
vt 0.343679 0.142040
vt 0.153369 0.008004
vt 0.248150 0.005978
vt 0.342925 0.003947
vt 0.224340 0.672836
vt 0.160760 0.674206
vt 0.280047 0.671648
vt 0.731971 0.138389
vt 0.690728 0.000027
vt 0.755176 0.000000
vt 0.804279 0.133233
vt 0.824579 0.666228
vt 0.812631 0.529548
vt 0.907309 0.535238
vt 0.919416 0.666203
vt 0.793612 0.401587
vt 0.877669 0.404747
vt 0.775062 0.269519
vt 0.843903 0.268749
vt 0.540079 0.266472
vt 0.538549 0.133235
vt 0.615201 0.138388
vt 0.636070 0.268232
vt 0.680736 0.138400
vt 0.717241 0.268425
vt 0.540083 0.399718
vt 0.636377 0.398082
vt 0.722392 0.399194
vt 0.540086 0.532964
vt 0.636381 0.527931
vt 0.727597 0.528178
vt 0.540090 0.666212
vt 0.634916 0.666233
vt 0.729741 0.666258
vt 0.533427 0.000000
vt 0.597049 0.000024
vt 0.652780 0.000034
vt 0.059074 0.010180
vt 0.078270 0.028889
vt 0.073431 0.158756
vt 0.054701 0.146427
vt 0.831066 0.682482
vt 0.930554 0.682470
vt 0.532607 0.682481
vt 0.632092 0.682487
vt 0.072909 0.292528
vt 0.053767 0.286763
vt 0.052364 0.581801
vt 0.073423 0.573774
vt 0.078270 0.715057
vt 0.055161 0.730002
vt 0.731576 0.682497
vt 0.073514 0.432667
vt 0.052869 0.433770
vt 0.565034 0.753880
vt 0.534792 0.759130
vt 0.540599 0.695380
vt 0.566813 0.687084
vt 0.133576 0.009034
vt 0.153369 0.025631
vt 0.148736 0.158896
vt 0.131013 0.148856
vt 0.570327 0.919694
vt 0.543022 0.917124
vt 0.534974 0.852823
vt 0.566138 0.852156
vt 0.145408 0.292131
vt 0.129470 0.288645
vt 0.532607 0.814915
vt 0.564684 0.812367
vt 0.144617 0.425367
vt 0.128712 0.428422
vt 0.144316 0.558606
vt 0.127991 0.568199
vt 0.144406 0.691848
vt 0.127308 0.707976
vt 0.079811 0.558165
vt 0.098022 0.567994
vt 0.097189 0.707770
vt 0.078270 0.691396
vt 0.113517 0.573360
vt 0.112740 0.716683
vt 0.080958 0.424931
vt 0.098818 0.428217
vt 0.114295 0.430038
vt 0.278540 0.688160
vt 0.220090 0.689399
vt 0.603009 0.811634
vt 0.588065 0.810871
vt 0.586964 0.750928
vt 0.600510 0.753202
vt 0.081612 0.291694
vt 0.099576 0.288440
vt 0.115072 0.286715
vt 0.318344 0.687323
vt 0.603009 0.851451
vt 0.588811 0.851683
vt 0.080122 0.158426
vt 0.099967 0.148644
vt 0.116064 0.143377
vt 0.385948 0.685908
vt 0.601280 0.919103
vt 0.590074 0.920993
vt 0.078270 0.025117
vt 0.100329 0.008806
vt 0.117565 -0.000000
vt 0.003195 0.432151
vt 0.020959 0.433536
vt 0.020050 0.581564
vt 0.001800 0.573248
vt 0.036127 0.434328
vt 0.035446 0.586112
vt 0.930554 0.199565
vt 0.962615 0.202293
vt 0.963017 0.301831
vt 0.935219 0.294567
vt 0.985845 0.203938
vt 0.982950 0.305907
vt 1.000000 0.203354
vt 0.993955 0.302710
vt 0.153369 0.690819
vt 0.585703 0.682496
vt 0.596267 0.686521
vt 0.007372 0.292047
vt 0.023673 0.286542
vt 0.037952 0.283598
vt 0.940758 0.104985
vt 0.968693 0.102939
vt 0.988755 0.101969
vt 0.999602 0.103816
vt 0.020456 0.729747
vt -0.000000 0.714482
vt 0.037089 0.738063
vt 0.008743 0.158281
vt 0.024884 0.146208
vt 0.039094 0.139703
vt 0.949776 0.010371
vt 0.973970 0.003561
vt 0.991663 -0.000000
vt 1.000000 0.004300
vt 0.962622 0.401347
vt 0.938718 0.389536
vt 0.980054 0.407876
vt 0.988703 0.402087
vt 0.011972 0.028402
vt 0.029099 0.009960
vt 0.043525 -0.000000
s 1
f 28/1/1 12/2/2 4/3/3 16/4/4
f 15/5/5 2/6/6 9/7/7 19/8/8
f 19/8/8 9/7/7 10/9/9 22/10/10
f 22/10/10 10/9/9 11/11/11 25/12/12
f 25/12/12 11/11/11 12/2/2 28/1/1
f 6/13/13 27/14/14 30/15/15 5/16/16
f 27/14/14 26/17/17 29/18/18 30/15/15
f 26/17/17 25/12/12 28/1/1 29/18/18
f 7/19/19 24/20/20 27/14/14 6/13/13
f 24/20/20 23/21/21 26/17/17 27/14/14
f 23/21/21 22/10/10 25/12/12 26/17/17
f 8/22/22 21/23/23 24/20/20 7/19/19
f 21/23/23 20/24/24 23/21/21 24/20/20
f 20/24/24 19/8/8 22/10/10 23/21/21
f 1/25/25 13/26/26 21/23/23 8/22/22
f 13/26/26 14/27/27 20/24/24 21/23/23
f 14/27/27 15/5/5 19/8/8 20/24/24
f 5/16/16 30/15/15 18/28/28 3/29/29
f 30/15/15 29/18/18 17/30/30 18/28/28
f 29/18/18 28/1/1 16/4/4 17/30/30
f 58/31/31 46/32/32 34/33/33 42/34/34
f 45/35/35 49/36/36 39/37/37 32/38/38
f 49/36/36 52/39/39 40/40/40 39/37/37
f 52/39/39 55/41/41 41/42/42 40/40/40
f 55/41/41 58/31/31 42/34/34 41/42/42
f 36/43/43 35/44/44 60/45/45 57/46/46
f 57/46/46 60/45/45 59/47/47 56/48/48
f 56/48/48 59/47/47 58/31/31 55/41/41
f 37/49/49 36/43/43 57/46/46 54/50/50
f 54/50/50 57/46/46 56/48/48 53/51/51
f 53/51/51 56/48/48 55/41/41 52/39/39
f 38/52/52 37/49/49 54/50/50 51/53/53
f 51/53/53 54/50/50 53/51/51 50/54/54
f 50/54/54 53/51/51 52/39/39 49/36/36
f 31/55/55 38/52/52 51/53/53 43/56/56
f 43/56/56 51/53/53 50/54/54 44/57/57
f 44/57/57 50/54/54 49/36/36 45/35/35
f 35/44/44 33/58/58 48/59/59 60/45/45
f 60/45/45 48/59/59 47/60/60 59/47/47
f 59/47/47 47/60/60 46/32/32 58/31/31
f 64/61/61 32/62/38 39/63/37 63/64/62
f 67/65/63 45/35/35 32/38/38 64/66/61
f 73/67/64 31/55/55 43/56/56 72/68/65
f 63/64/62 39/63/37 40/69/40 78/70/66
f 82/71/67 42/72/34 34/73/33 81/74/68
f 72/68/65 43/56/56 44/57/57 87/75/69
f 78/70/66 40/69/40 41/76/42 90/77/70
f 94/78/71 48/79/59 33/80/58 93/81/72
f 87/75/69 44/57/57 45/35/35 67/65/63
f 90/77/70 41/76/42 42/72/34 82/71/67
f 93/82/72 33/83/58 35/84/44 99/85/73
f 81/86/68 34/87/33 46/88/32 102/89/74
f 99/85/73 35/84/44 36/90/43 105/91/75
f 102/89/74 46/88/32 47/92/60 108/93/76
f 105/91/75 36/90/43 37/94/49 111/95/77
f 108/93/76 47/92/60 48/79/59 94/78/71
f 111/95/77 37/94/49 38/96/52 114/97/78
f 114/97/78 38/96/52 31/98/55 73/99/64
f 8/100/22 112/101/79 75/102/80 1/103/25
f 112/101/79 113/104/81 74/105/82 75/102/80
f 113/104/81 114/97/78 73/99/64 74/105/82
f 7/106/19 109/107/83 112/101/79 8/100/22
f 109/107/83 110/108/84 113/104/81 112/101/79
f 110/108/84 111/95/77 114/97/78 113/104/81
f 17/30/30 106/109/85 96/110/86 18/28/28
f 106/111/85 107/112/87 95/113/88 96/114/86
f 107/112/87 108/93/76 94/78/71 95/113/88
f 6/115/13 103/116/89 109/107/83 7/106/19
f 103/116/89 104/117/90 110/108/84 109/107/83
f 104/117/90 105/91/75 111/95/77 110/108/84
f 16/4/4 100/118/91 106/109/85 17/30/30
f 100/119/91 101/120/92 107/112/87 106/111/85
f 101/120/92 102/89/74 108/93/76 107/112/87
f 5/121/16 97/122/93 103/116/89 6/115/13
f 97/122/93 98/123/94 104/117/90 103/116/89
f 98/123/94 99/85/73 105/91/75 104/117/90
f 4/3/3 79/124/95 100/118/91 16/4/4
f 79/125/95 80/126/96 101/120/92 100/119/91
f 80/126/96 81/86/68 102/89/74 101/120/92
f 3/127/29 91/128/97 97/122/93 5/121/16
f 91/128/97 92/129/98 98/123/94 97/122/93
f 92/129/98 93/82/72 99/85/73 98/123/94
f 11/130/11 88/131/99 84/132/100 12/133/2
f 88/131/99 89/134/101 83/135/102 84/132/100
f 89/134/101 90/77/70 82/71/67 83/135/102
f 14/136/27 85/137/103 69/138/104 15/139/5
f 85/137/103 86/140/105 68/141/106 69/138/104
f 86/140/105 87/142/69 67/143/63 68/141/106
f 18/28/28 96/110/86 91/144/97 3/29/29
f 96/114/86 95/113/88 92/145/98 91/146/97
f 95/113/88 94/78/71 93/81/72 92/145/98
f 10/147/9 76/148/107 88/131/99 11/130/11
f 76/148/107 77/149/108 89/134/101 88/131/99
f 77/149/108 78/70/66 90/77/70 89/134/101
f 13/150/26 70/151/109 85/137/103 14/136/27
f 70/151/109 71/152/110 86/140/105 85/137/103
f 71/152/110 72/153/65 87/142/69 86/140/105
f 12/133/2 84/132/100 79/154/95 4/155/3
f 84/132/100 83/135/102 80/156/96 79/154/95
f 83/135/102 82/71/67 81/74/68 80/156/96
f 9/157/7 61/158/111 76/148/107 10/147/9
f 61/158/111 62/159/112 77/149/108 76/148/107
f 62/159/112 63/64/62 78/70/66 77/149/108
f 1/160/25 75/161/80 70/151/109 13/150/26
f 75/161/80 74/162/82 71/152/110 70/151/109
f 74/162/82 73/163/64 72/153/65 71/152/110
f 15/139/5 69/138/104 66/164/113 2/165/6
f 69/138/104 68/141/106 65/166/114 66/164/113
f 68/141/106 67/143/63 64/167/61 65/166/114
f 2/168/6 66/169/113 61/158/111 9/157/7
f 66/169/113 65/170/114 62/159/112 61/158/111
f 65/170/114 64/61/61 63/64/62 62/159/112
o Bomber_Wing_Right
v -1.389652 0.015938 0.984716
v 0.662624 0.014260 0.984716
v -1.425576 -0.008562 4.589231
v -0.225838 -0.018677 4.589231
v -1.397902 0.009173 3.868328
v -1.389652 0.022348 3.147425
v -1.389652 0.022722 2.426522
v -1.389652 0.020407 1.705619
v 0.597143 0.021570 1.693278
v 0.436806 0.022800 2.399302
v 0.254151 0.006336 3.135137
v 0.039792 -0.000376 3.868328
v -0.876583 -0.023976 0.984716
v -0.363514 -0.071381 0.984716
v 0.149555 -0.024880 0.984716
v -0.574494 -0.061113 4.589231
v -0.779797 -0.071443 4.589231
v -1.081335 -0.051638 4.589231
v 0.084965 -0.060929 1.724341
v -0.375077 -0.099808 1.731871
v -0.868609 -0.059912 1.733090
v -0.017906 -0.066064 2.416697
v -0.403213 -0.097915 2.429722
v -0.868609 -0.063377 2.435630
v -0.118244 -0.076713 3.131235
v -0.431063 -0.099918 3.137222
v -0.870245 -0.066591 3.138170
v -0.351362 -0.083874 3.840710
v -0.628545 -0.100302 3.840710
v -0.983128 -0.076566 3.840710
v -1.389652 0.376918 0.984716
v 0.662624 0.378583 0.984716
v -1.425576 0.401341 4.589231
v -0.225838 0.411432 4.589231
v -1.397902 0.383679 3.868328
v -1.389652 0.370558 3.147425
v -1.389652 0.370186 2.426522
v -1.389652 0.372484 1.705619
v 0.597143 0.377042 1.693278
v 0.436806 0.382937 2.399302
v 0.254151 0.392752 3.135137
v 0.039792 0.393201 3.868328
v -0.876583 0.416719 0.984716
v -0.363514 0.463990 0.984716
v 0.149555 0.417616 0.984716
v -0.574494 0.453748 4.589231
v -0.779797 0.464049 4.589231
v -1.081335 0.444298 4.589231
v 0.084965 0.459619 1.724341
v -0.375077 0.493200 1.731871
v -0.868609 0.452406 1.733090
v -0.017906 0.472419 2.416697
v -0.403213 0.495094 2.429722
v -0.868609 0.455864 2.435630
v -0.118244 0.474264 3.131235
v -0.431063 0.493090 3.137222
v -0.870245 0.459070 3.138170
v -0.351362 0.476321 3.840710
v -0.628545 0.492707 3.840710
v -0.983128 0.469023 3.840710
v 0.654119 0.117233 1.639731
v 0.685006 0.199096 1.610703
v 0.654119 0.281084 1.639731
v 0.722815 0.278837 0.896386
v 0.755445 0.196498 0.848502
v 0.722815 0.114118 0.896386
v 0.184560 0.294131 0.896386
v 0.203536 0.196464 0.848502
v 0.184560 0.098735 0.896386
v -0.891950 0.098826 0.896386
v -0.900281 0.196464 0.848502
v -0.891950 0.294041 0.896386
v -1.430206 0.278677 0.896386
v -1.452190 0.196498 0.848502
v -1.430206 0.114280 0.896386
v 0.485912 0.119773 2.380413
v 0.512532 0.202249 2.370173
v 0.485912 0.285145 2.380413
v -0.209261 0.101084 4.677844
v -0.200274 0.196468 4.725881
v -0.209261 0.291793 4.677844
v 0.069409 0.285245 3.921552
v 0.085464 0.196485 3.950405
v 0.069409 0.107673 3.921552
v -0.353695 0.078314 0.896386
v -0.348373 0.196416 0.848502
v -0.353695 0.314432 0.896386
v 0.294290 0.111666 3.152370
v 0.316050 0.199200 3.161711
v 0.294290 0.287016 3.152370
v -1.467893 0.105715 4.677844
v -1.490833 0.196479 4.725881
v -1.467893 0.287188 4.677844
v -1.106753 0.305684 4.677844
v -1.120533 0.196435 4.725881
v -1.106753 0.087111 4.677844
v -1.438860 0.111743 3.921552
v -1.461064 0.196493 3.950405
v -1.438860 0.281199 3.921552
v -0.575033 0.082799 4.677844
v -0.575324 0.196425 4.725881
v -0.575033 0.309972 4.677844
v -1.430206 0.114900 3.165260
v -1.452190 0.196498 3.174929
v -1.430206 0.278065 3.165260
v -0.790413 0.078306 4.677844
v -0.796169 0.196415 4.725881
v -0.790413 0.314437 4.677844
v -1.430206 0.114901 2.408969
v -1.452190 0.196498 2.399453
v -1.430206 0.278064 2.408969
v -1.430206 0.114693 1.652677
v -1.452190 0.196498 1.623978
v -1.430206 0.278270 1.652677
vn 0.1232 -0.9915 0.0428
vn 0.6170 -0.7628 0.1937
vn 0.4599 -0.7576 0.4631
vn 0.0750 -0.8632 0.4992
vn 0.0766 -0.8802 -0.4684
vn 0.4804 -0.8220 -0.3057
vn 0.5970 -0.7961 0.0996
vn 0.1184 -0.9930 -0.0026
vn 0.6131 -0.7785 0.1348
vn 0.1365 -0.9905 0.0138
vn 0.6229 -0.7669 0.1543
vn 0.1448 -0.9892 0.0242
vn -0.6227 -0.7823 -0.0137
vn -0.1217 -0.9924 -0.0154
vn -0.1237 -0.9923 -0.0096
vn -0.6322 -0.7744 -0.0255
vn 0.0048 -1.0000 -0.0021
vn -0.0061 -0.9999 0.0153
vn -0.6139 -0.7894 -0.0008
vn -0.1191 -0.9929 -0.0029
vn 0.0024 -1.0000 -0.0011
vn -0.6059 -0.7955 -0.0058
vn -0.1095 -0.9939 -0.0167
vn 0.0023 -0.9998 -0.0196
vn -0.5072 -0.7950 -0.3326
vn -0.0753 -0.8789 -0.4709
vn -0.0001 -0.8755 -0.4832
vn -0.0894 -0.8765 0.4730
vn -0.5479 -0.7665 0.3352
vn -0.0088 -0.8675 0.4973
vn 0.1202 0.9917 0.0447
vn 0.0748 0.8634 0.4989
vn 0.4597 0.7579 0.4629
vn 0.6163 0.7625 0.1970
vn 0.0749 0.8789 -0.4710
vn 0.1131 0.9935 -0.0108
vn 0.5976 0.7964 0.0927
vn 0.4799 0.8211 -0.3088
vn 0.1272 0.9918 0.0133
vn 0.6123 0.7792 0.1338
vn 0.1371 0.9901 0.0309
vn 0.6219 0.7664 0.1610
vn -0.6223 0.7827 -0.0136
vn -0.6318 0.7747 -0.0254
vn -0.1234 0.9923 -0.0096
vn -0.1230 0.9923 -0.0146
vn -0.0078 0.9998 0.0157
vn -0.0036 1.0000 0.0010
vn -0.6135 0.7897 -0.0008
vn -0.1216 0.9926 -0.0029
vn -0.0097 1.0000 -0.0016
vn -0.6056 0.7958 -0.0058
vn -0.1108 0.9937 -0.0174
vn -0.0052 0.9997 -0.0241
vn -0.5070 0.7953 -0.3324
vn -0.0753 0.8790 -0.4708
vn -0.0020 0.8750 -0.4842
vn -0.5476 0.7668 0.3350
vn -0.0891 0.8767 0.4728
vn -0.0088 0.8677 0.4970
vn 0.6176 0.5969 -0.5122
vn 0.9167 0.3730 0.1429
vn 0.0203 0.5172 -0.8556
vn -0.6230 0.5474 -0.5588
vn -0.0206 0.5158 -0.8564
vn 0.9163 0.3372 0.2159
vn 0.9009 0.3171 0.2964
vn 0.5314 0.4621 0.7100
vn 0.0004 0.4792 -0.8777
vn 0.9139 0.3225 0.2466
vn -0.0237 0.4863 0.8735
vn -0.6512 0.5104 0.5616
vn -0.9538 0.2992 -0.0271
vn 0.0202 0.4716 0.8816
vn -0.9458 0.3248 -0.0068
vn -0.0023 0.4561 0.8899
vn -0.9436 0.3311 0.0002
vn -0.9453 0.3263 0.0006
vn -0.9453 -0.3261 0.0006
vn -0.6231 -0.5472 -0.5589
vn -1.0000 0.0001 0.0001
vn -0.6563 0.0001 -0.7545
vn -0.9436 -0.3310 0.0002
vn -1.0000 -0.0000 -0.0000
vn -0.0023 -0.4558 0.8901
vn -0.0238 -0.4860 0.8736
vn -0.0009 0.0001 1.0000
vn -0.0092 0.0001 1.0000
vn -0.9458 -0.3246 -0.0068
vn -1.0000 0.0001 -0.0064
vn 0.0203 -0.4713 0.8818
vn 0.0078 0.0001 1.0000
vn -0.9539 -0.2990 -0.0272
vn -0.9996 0.0001 -0.0285
vn 0.5315 -0.4618 0.7101
vn 0.5253 0.0001 0.8509
vn -0.6514 -0.5101 0.5617
vn -0.6738 0.0001 0.7389
vn 0.9142 -0.3233 0.2442
vn 0.9012 -0.3171 0.2954
vn 0.9654 -0.0004 0.2608
vn 0.9482 -0.0002 0.3176
vn 0.0004 -0.4789 -0.8779
vn 0.0204 -0.5169 -0.8558
vn 0.0002 0.0001 -1.0000
vn 0.0079 0.0001 -1.0000
vn 0.9160 -0.3379 0.2162
vn 0.9733 0.0004 0.2296
vn -0.0207 -0.5155 -0.8566
vn -0.0079 0.0001 -1.0000
vn 0.9165 -0.3724 0.1458
vn 0.9899 0.0002 0.1420
vn 0.6184 -0.5969 -0.5112
vn 0.7028 -0.0004 -0.7114
vt 0.356291 0.531650
vt 0.428741 0.535281
vt 0.382451 0.669521
vt 0.317992 0.670854
vt 0.437769 0.001976
vt 0.532607 0.000000
vt 0.523273 0.131195
vt 0.428689 0.138880
vt 0.496397 0.262287
vt 0.412374 0.267218
vt 0.465500 0.398964
vt 0.396609 0.399642
vt 0.161802 0.407655
vt 0.257682 0.403862
vt 0.239552 0.534118
vt 0.163077 0.540894
vt 0.338810 0.401953
vt 0.305058 0.532720
vt 0.158993 0.274439
vt 0.255249 0.274036
vt 0.341200 0.271107
vt 0.156182 0.141222
vt 0.252513 0.144216
vt 0.343679 0.142040
vt 0.153369 0.008004
vt 0.248150 0.005978
vt 0.342925 0.003947
vt 0.224340 0.672836
vt 0.160760 0.674206
vt 0.280047 0.671648
vt 0.731971 0.138389
vt 0.690728 0.000027
vt 0.755176 0.000000
vt 0.804279 0.133233
vt 0.824579 0.666228
vt 0.812631 0.529548
vt 0.907309 0.535238
vt 0.919416 0.666203
vt 0.793612 0.401587
vt 0.877669 0.404747
vt 0.775062 0.269519
vt 0.843903 0.268749
vt 0.540079 0.266472
vt 0.538549 0.133235
vt 0.615201 0.138388
vt 0.636070 0.268232
vt 0.680736 0.138400
vt 0.717241 0.268425
vt 0.540083 0.399718
vt 0.636377 0.398082
vt 0.722392 0.399194
vt 0.540086 0.532964
vt 0.636381 0.527931
vt 0.727597 0.528178
vt 0.540090 0.666212
vt 0.634916 0.666233
vt 0.729741 0.666258
vt 0.533427 0.000000
vt 0.597049 0.000024
vt 0.652780 0.000034
vt 0.059074 0.010180
vt 0.078270 0.028889
vt 0.073431 0.158756
vt 0.054701 0.146427
vt 0.831066 0.682482
vt 0.930554 0.682470
vt 0.532607 0.682481
vt 0.632092 0.682487
vt 0.072909 0.292528
vt 0.053767 0.286763
vt 0.052364 0.581801
vt 0.073423 0.573774
vt 0.078270 0.715057
vt 0.055161 0.730002
vt 0.731576 0.682497
vt 0.073514 0.432667
vt 0.052869 0.433770
vt 0.565034 0.753880
vt 0.534792 0.759130
vt 0.540599 0.695380
vt 0.566813 0.687084
vt 0.133576 0.009034
vt 0.153369 0.025631
vt 0.148736 0.158896
vt 0.131013 0.148856
vt 0.570327 0.919694
vt 0.543022 0.917124
vt 0.534974 0.852823
vt 0.566138 0.852156
vt 0.145408 0.292131
vt 0.129470 0.288645
vt 0.532607 0.814915
vt 0.564684 0.812367
vt 0.144617 0.425367
vt 0.128712 0.428422
vt 0.144316 0.558606
vt 0.127991 0.568199
vt 0.144406 0.691848
vt 0.127308 0.707976
vt 0.079811 0.558165
vt 0.098022 0.567994
vt 0.097189 0.707770
vt 0.078270 0.691396
vt 0.113517 0.573360
vt 0.112740 0.716683
vt 0.080958 0.424931
vt 0.098818 0.428217
vt 0.114295 0.430038
vt 0.278540 0.688160
vt 0.220090 0.689399
vt 0.603009 0.811634
vt 0.588065 0.810871
vt 0.586964 0.750928
vt 0.600510 0.753202
vt 0.081612 0.291694
vt 0.099576 0.288440
vt 0.115072 0.286715
vt 0.318344 0.687323
vt 0.603009 0.851451
vt 0.588811 0.851683
vt 0.080122 0.158426
vt 0.099967 0.148644
vt 0.116064 0.143377
vt 0.385948 0.685908
vt 0.601280 0.919103
vt 0.590074 0.920993
vt 0.078270 0.025117
vt 0.100329 0.008806
vt 0.117565 -0.000000
vt 0.003195 0.432151
vt 0.020959 0.433536
vt 0.020050 0.581564
vt 0.001800 0.573248
vt 0.036127 0.434328
vt 0.035446 0.586112
vt 0.930554 0.199565
vt 0.962615 0.202293
vt 0.963017 0.301831
vt 0.935219 0.294567
vt 0.985845 0.203938
vt 0.982950 0.305907
vt 1.000000 0.203354
vt 0.993955 0.302710
vt 0.153369 0.690819
vt 0.585703 0.682496
vt 0.596267 0.686521
vt 0.007372 0.292047
vt 0.023673 0.286542
vt 0.037952 0.283598
vt 0.940758 0.104985
vt 0.968693 0.102939
vt 0.988755 0.101969
vt 0.999602 0.103816
vt 0.020456 0.729747
vt -0.000000 0.714482
vt 0.037089 0.738063
vt 0.008743 0.158281
vt 0.024884 0.146208
vt 0.039094 0.139703
vt 0.949776 0.010371
vt 0.973970 0.003561
vt 0.991663 -0.000000
vt 1.000000 0.004300
vt 0.962622 0.401347
vt 0.938718 0.389536
vt 0.980054 0.407876
vt 0.988703 0.402087
vt 0.011972 0.028402
vt 0.029099 0.009960
vt 0.043525 -0.000000
s 1
f 142/171/115 126/172/116 118/173/117 130/174/118
f 129/175/119 116/176/120 123/177/121 133/178/122
f 133/178/122 123/177/121 124/179/123 136/180/124
f 136/180/124 124/179/123 125/181/125 139/182/126
f 139/182/126 125/181/125 126/172/116 142/171/115
f 120/183/127 141/184/128 144/185/129 119/186/130
f 141/184/128 140/187/131 143/188/132 144/185/129
f 140/187/131 139/182/126 142/171/115 143/188/132
f 121/189/133 138/190/134 141/184/128 120/183/127
f 138/190/134 137/191/135 140/187/131 141/184/128
f 137/191/135 136/180/124 139/182/126 140/187/131
f 122/192/136 135/193/137 138/190/134 121/189/133
f 135/193/137 134/194/138 137/191/135 138/190/134
f 134/194/138 133/178/122 136/180/124 137/191/135
f 115/195/139 127/196/140 135/193/137 122/192/136
f 127/196/140 128/197/141 134/194/138 135/193/137
f 128/197/141 129/175/119 133/178/122 134/194/138
f 119/186/130 144/185/129 132/198/142 117/199/143
f 144/185/129 143/188/132 131/200/144 132/198/142
f 143/188/132 142/171/115 130/174/118 131/200/144
f 172/201/145 160/202/146 148/203/147 156/204/148
f 159/205/149 163/206/150 153/207/151 146/208/152
f 163/206/150 166/209/153 154/210/154 153/207/151
f 166/209/153 169/211/155 155/212/156 154/210/154
f 169/211/155 172/201/145 156/204/148 155/212/156
f 150/213/157 149/214/158 174/215/159 171/216/160
f 171/216/160 174/215/159 173/217/161 170/218/162
f 170/218/162 173/217/161 172/201/145 169/211/155
f 151/219/163 150/213/157 171/216/160 168/220/164
f 168/220/164 171/216/160 170/218/162 167/221/165
f 167/221/165 170/218/162 169/211/155 166/209/153
f 152/222/166 151/219/163 168/220/164 165/223/167
f 165/223/167 168/220/164 167/221/165 164/224/168
f 164/224/168 167/221/165 166/209/153 163/206/150
f 145/225/169 152/222/166 165/223/167 157/226/170
f 157/226/170 165/223/167 164/224/168 158/227/171
f 158/227/171 164/224/168 163/206/150 159/205/149
f 149/214/158 147/228/172 162/229/173 174/215/159
f 174/215/159 162/229/173 161/230/174 173/217/161
f 173/217/161 161/230/174 160/202/146 172/201/145
f 178/231/175 146/232/152 153/233/151 177/234/176
f 181/235/177 159/205/149 146/208/152 178/236/175
f 187/237/178 145/225/169 157/226/170 186/238/179
f 177/234/176 153/233/151 154/239/154 192/240/180
f 196/241/181 156/242/148 148/243/147 195/244/182
f 186/238/179 157/226/170 158/227/171 201/245/183
f 192/240/180 154/239/154 155/246/156 204/247/184
f 208/248/185 162/249/173 147/250/172 207/251/186
f 201/245/183 158/227/171 159/205/149 181/235/177
f 204/247/184 155/246/156 156/242/148 196/241/181
f 207/252/186 147/253/172 149/254/158 213/255/187
f 195/256/182 148/257/147 160/258/146 216/259/188
f 213/255/187 149/254/158 150/260/157 219/261/189
f 216/259/188 160/258/146 161/262/174 222/263/190
f 219/261/189 150/260/157 151/264/163 225/265/191
f 222/263/190 161/262/174 162/249/173 208/248/185
f 225/265/191 151/264/163 152/266/166 228/267/192
f 228/267/192 152/266/166 145/268/169 187/269/178
f 122/270/136 226/271/193 189/272/194 115/273/139
f 226/271/193 227/274/195 188/275/196 189/272/194
f 227/274/195 228/267/192 187/269/178 188/275/196
f 121/276/133 223/277/197 226/271/193 122/270/136
f 223/277/197 224/278/198 227/274/195 226/271/193
f 224/278/198 225/265/191 228/267/192 227/274/195
f 131/200/144 220/279/199 210/280/200 132/198/142
f 220/281/199 221/282/201 209/283/202 210/284/200
f 221/282/201 222/263/190 208/248/185 209/283/202
f 120/285/127 217/286/203 223/277/197 121/276/133
f 217/286/203 218/287/204 224/278/198 223/277/197
f 218/287/204 219/261/189 225/265/191 224/278/198
f 130/174/118 214/288/205 220/279/199 131/200/144
f 214/289/205 215/290/206 221/282/201 220/281/199
f 215/290/206 216/259/188 222/263/190 221/282/201
f 119/291/130 211/292/207 217/286/203 120/285/127
f 211/292/207 212/293/208 218/287/204 217/286/203
f 212/293/208 213/255/187 219/261/189 218/287/204
f 118/173/117 193/294/209 214/288/205 130/174/118
f 193/295/209 194/296/210 215/290/206 214/289/205
f 194/296/210 195/256/182 216/259/188 215/290/206
f 117/297/143 205/298/211 211/292/207 119/291/130
f 205/298/211 206/299/212 212/293/208 211/292/207
f 206/299/212 207/252/186 213/255/187 212/293/208
f 125/300/125 202/301/213 198/302/214 126/303/116
f 202/301/213 203/304/215 197/305/216 198/302/214
f 203/304/215 204/247/184 196/241/181 197/305/216
f 128/306/141 199/307/217 183/308/218 129/309/119
f 199/307/217 200/310/219 182/311/220 183/308/218
f 200/310/219 201/312/183 181/313/177 182/311/220
f 132/198/142 210/280/200 205/314/211 117/199/143
f 210/284/200 209/283/202 206/315/212 205/316/211
f 209/283/202 208/248/185 207/251/186 206/315/212
f 124/317/123 190/318/221 202/301/213 125/300/125
f 190/318/221 191/319/222 203/304/215 202/301/213
f 191/319/222 192/240/180 204/247/184 203/304/215
f 127/320/140 184/321/223 199/307/217 128/306/141
f 184/321/223 185/322/224 200/310/219 199/307/217
f 185/322/224 186/323/179 201/312/183 200/310/219
f 126/303/116 198/302/214 193/324/209 118/325/117
f 198/302/214 197/305/216 194/326/210 193/324/209
f 197/305/216 196/241/181 195/244/182 194/326/210
f 123/327/121 175/328/225 190/318/221 124/317/123
f 175/328/225 176/329/226 191/319/222 190/318/221
f 176/329/226 177/234/176 192/240/180 191/319/222
f 115/330/139 189/331/194 184/321/223 127/320/140
f 189/331/194 188/332/196 185/322/224 184/321/223
f 188/332/196 187/333/178 186/323/179 185/322/224
f 129/309/119 183/308/218 180/334/227 116/335/120
f 183/308/218 182/311/220 179/336/228 180/334/227
f 182/311/220 181/313/177 178/337/175 179/336/228
f 116/338/120 180/339/227 175/328/225 123/327/121
f 180/339/227 179/340/228 176/329/226 175/328/225
f 179/340/228 178/231/175 177/234/176 176/329/226
