# Blender 4.0.1
# www.blender.org
o Bomber_Tailwing_Trim_Glow_Top
v -4.092175 2.011125 0.182048
v -4.147424 2.292810 0.182200
v -3.921260 2.000467 0.181966
v -4.006809 2.268935 0.182010
v -4.091526 1.732503 0.181999
v -3.910560 1.728646 0.180927
v -4.091526 1.457134 0.182051
v -3.899562 1.455869 0.181918
v -4.097372 1.153601 0.183273
v -3.893300 1.154871 0.184379
v -4.264385 2.599008 0.178467
v -4.140046 2.567218 0.192107
v -4.092175 2.011124 -0.140492
v -4.147414 2.292808 -0.140530
v -3.921260 2.000468 -0.140574
v -4.006799 2.268936 -0.140314
v -4.091526 1.732503 -0.140541
v -3.910560 1.728646 -0.141613
v -4.091526 1.457135 -0.140498
v -3.899562 1.455870 -0.140634
v -4.097360 1.153652 -0.141567
v -3.893304 1.154910 -0.142639
v -4.264313 2.598921 -0.136717
v -4.140034 2.567253 -0.150414
v -4.116328 1.098399 -0.093837
v -3.881301 1.099930 -0.095643
v -4.322263 2.648934 0.127822
v -4.180691 2.629096 -0.108153
v -4.116336 1.098350 0.136068
v -4.121583 1.086038 -0.049217
v -3.881296 1.099895 0.137876
v -3.877841 1.086281 -0.049945
v -4.322224 2.648830 -0.085586
v -4.333854 2.655221 0.088671
v -4.180689 2.629032 0.150387
v -4.191279 2.652380 -0.054456
v -4.333847 2.655194 -0.046090
v -4.121585 1.086025 0.091814
v -3.877839 1.086271 0.092547
v -4.191284 2.652369 0.097081
v -4.097420 1.143246 0.209127
v -3.893349 1.144836 0.210359
v -4.141121 2.571535 0.219600
v -4.264378 2.612539 0.202810
v -3.899553 1.455983 0.209768
v -4.091515 1.457247 0.209902
v -3.910470 1.728649 0.208777
v -4.091436 1.732503 0.209850
v -3.921198 2.000435 0.209817
v -4.092121 2.011099 0.209898
v -4.007316 2.268621 0.209854
v -4.148440 2.292199 0.210025
v -4.097414 1.143214 -0.167388
v -3.893360 1.144791 -0.168586
v -4.141106 2.571623 -0.177899
v -4.264298 2.612548 -0.161006
v -3.899650 1.455916 -0.168485
v -4.091614 1.457179 -0.168349
v -3.910650 1.728644 -0.169464
v -4.091616 1.732503 -0.168391
v -3.921306 2.000505 -0.168424
v -4.092207 2.011156 -0.168343
v -4.007314 2.268636 -0.168158
v -4.148435 2.292205 -0.168356
v -4.102472 1.065676 -0.107591
v -3.893797 1.067902 -0.110383
v -4.309893 2.684869 0.136232
v -4.194865 2.656241 -0.129863
v -4.102482 1.065658 0.149900
v -4.107646 1.050692 -0.053014
v -3.893793 1.067907 0.152697
v -3.890331 1.050967 -0.054051
v -4.309857 2.684766 -0.093926
v -4.321080 2.690494 0.091175
v -4.194868 2.656074 0.172204
v -4.205809 2.687577 -0.060834
v -4.321078 2.690466 -0.048573
v -4.107648 1.050680 0.095636
v -3.890329 1.050959 0.096678
v -4.205808 2.687561 0.103502
v -4.077956 2.013869 0.211638
v -4.135291 2.300042 0.212349
v -3.934050 1.999141 0.211613
v -4.020149 2.267268 0.211069
v -4.077261 1.731241 0.211572
v -3.923298 1.726766 0.210582
v -4.077340 1.453258 0.211667
v -3.912285 1.451689 0.211540
v -4.083320 1.135189 0.209957
v -3.906012 1.137191 0.211485
v -4.252715 2.625105 0.202332
v -4.155396 2.573073 0.222851
v -4.078043 2.013923 -0.170132
v -4.135285 2.300045 -0.170682
v -3.934160 1.999216 -0.170176
v -4.020148 2.267286 -0.169369
v -4.077443 1.731242 -0.170208
v -3.923480 1.726761 -0.171198
v -4.077440 1.453195 -0.170166
v -3.912383 1.451617 -0.170207
v -4.083313 1.135167 -0.168219
v -3.906023 1.137149 -0.169706
v -4.252625 2.625092 -0.160514
v -4.155391 2.573181 -0.181157
v -4.116304 1.074400 -0.107969
v -3.881280 1.076177 -0.110185
v -4.321149 2.674127 0.139642
v -4.179820 2.650951 -0.125394
v -4.116313 1.074393 0.150272
v -4.121540 1.058440 -0.052956
v -3.881275 1.076188 0.152493
v -3.877798 1.058691 -0.053754
v -4.321116 2.674051 -0.097348
v -4.332999 2.682829 0.092238
v -4.179823 2.650806 0.167731
v -4.190351 2.679848 -0.058960
v -4.332997 2.682804 -0.049639
v -4.121542 1.058429 0.095570
v -3.877796 1.058684 0.096373
v -4.190350 2.679832 0.101613
vn -0.6788 -0.0667 -0.7313
vn -0.6566 -0.1772 -0.7331
vn 0.6757 0.2600 -0.6898
vn 0.7247 0.1288 -0.6770
vn -0.7087 -0.0008 -0.7055
vn 0.7036 0.0280 -0.7100
vn -0.7055 0.0039 -0.7087
vn 0.7088 0.0186 -0.7051
vn -0.7764 0.3157 -0.5455
vn 0.7863 0.2798 -0.5508
vn -0.6862 -0.6105 -0.3956
vn 0.7143 0.2022 -0.6700
vn -0.6764 -0.0680 0.7334
vn 0.7265 0.1269 0.6754
vn 0.6759 0.2596 0.6897
vn -0.6564 -0.1773 0.7332
vn -0.7048 -0.0008 0.7094
vn 0.7094 0.0282 0.7042
vn -0.7030 0.0055 0.7112
vn 0.7106 0.0204 0.7033
vn -0.7767 0.3168 0.5444
vn 0.7873 0.2813 0.5487
vn 0.7150 0.2007 0.6697
vn -0.6871 -0.6113 0.3927
vn -0.7703 0.6014 0.2121
vn 0.7741 0.5771 0.2600
vn 0.7092 -0.4000 0.5805
vn -0.7293 -0.6834 -0.0327
vn -0.7294 -0.6834 0.0323
vn 0.7092 -0.3966 -0.5829
vn 0.7139 -0.6789 0.1715
vn -0.7637 -0.6455 -0.0102
vn 0.7746 0.5760 -0.2613
vn -0.7707 0.6006 -0.2130
vn -0.7469 0.6629 0.0525
vn 0.7446 0.6641 0.0676
vn 0.7448 0.6638 -0.0679
vn -0.7471 0.6626 -0.0527
vn -0.7639 -0.6453 0.0102
vn 0.7141 -0.6784 -0.1725
vn -0.0584 -0.0074 0.9983
vn 0.0699 0.0106 0.9975
vn 0.0602 0.0131 0.9981
vn -0.0845 -0.0217 0.9962
vn -0.0592 -0.0000 0.9982
vn 0.0706 0.0029 0.9975
vn -0.0522 -0.0008 0.9986
vn 0.0613 0.0025 0.9981
vn -0.1231 -0.3716 0.9202
vn 0.1425 -0.3694 0.9183
vn 0.1023 0.2751 0.9560
vn -0.1138 0.4321 0.8946
vn -0.0615 -0.0062 -0.9981
vn -0.0850 -0.0213 -0.9962
vn 0.0598 0.0135 -0.9981
vn 0.0662 0.0138 -0.9977
vn -0.0651 -0.0000 -0.9979
vn 0.0652 0.0025 -0.9979
vn -0.0557 -0.0023 -0.9984
vn 0.0585 -0.0006 -0.9983
vn -0.1240 -0.3743 -0.9190
vn 0.1426 -0.3723 -0.9171
vn -0.1138 0.4350 -0.8932
vn 0.1025 0.2772 -0.9553
vn -0.2257 -0.8203 -0.5255
vn 0.2446 -0.8145 -0.5260
vn 0.2121 0.7886 -0.5772
vn -0.2453 0.8321 -0.4974
vn 0.2116 0.7862 0.5806
vn -0.2451 0.8310 0.4994
vn 0.2361 0.9581 -0.1622
vn -0.2913 0.9469 -0.1359
vn -0.2255 -0.8188 0.5279
vn 0.2444 -0.8129 0.5286
vn -0.2553 -0.9564 -0.1420
vn 0.2737 -0.9511 -0.1431
vn -0.2554 -0.9563 0.1427
vn 0.2738 -0.9510 0.1438
vn 0.2362 0.9578 0.1636
vn -0.2916 0.9468 0.1363
vn -0.7337 -0.0731 -0.6755
vn -0.7512 -0.0008 -0.6601
vn -0.8496 -0.5149 0.1142
vn -0.8033 -0.4077 0.4341
vn 0.7551 0.0298 0.6549
vn 0.7514 0.0246 0.6594
vn 0.7010 -0.1258 0.7020
vn 0.8175 -0.4133 0.4011
vn 0.7505 0.0301 -0.6602
vn 0.7591 0.1342 -0.6370
vn 0.8582 -0.5027 0.1040
vn -0.6769 -0.1204 0.7262
vn -0.7420 0.0059 0.6703
vn 0.8583 -0.5027 -0.1035
vn 0.8179 -0.4145 -0.3991
vn -0.7445 0.0054 -0.6676
vn 0.8128 0.5787 0.0664
vn 0.7427 0.6047 0.2876
vn -0.7852 0.2911 -0.5466
vn -0.5888 -0.0320 -0.8076
vn 0.7501 0.0215 -0.6610
vn -0.6962 -0.1860 0.6933
vn -0.5885 -0.0342 0.8077
vn -0.7847 0.2897 0.5481
vn -0.8731 0.4637 0.1504
vn -0.6778 -0.1224 -0.7250
vn 0.6895 0.4087 0.5979
vn 0.7183 0.2649 0.6433
vn 0.7005 -0.1279 -0.7021
vn 0.8131 0.5784 -0.0653
vn 0.7432 0.6054 -0.2849
vn -0.6968 -0.1857 -0.6928
vn -0.8730 0.4640 -0.1501
vn 0.7179 0.2651 -0.6437
vn 0.6895 0.4092 -0.5977
vn -0.8038 -0.4090 -0.4320
vn -0.8496 -0.5149 -0.1137
vn -0.7314 -0.0734 0.6780
vn 0.7608 0.1317 0.6354
vn -0.7479 -0.0008 0.6638
vt 0.851243 0.231079
vt 0.866808 0.119672
vt 0.830328 0.131389
vt 0.804885 0.238255
vt 0.857841 0.339852
vt 0.807739 0.344604
vt 0.864617 0.447338
vt 0.810513 0.451334
vt 0.874385 0.565651
vt 0.815850 0.568946
vt 0.905285 -0.002780
vt 0.874283 0.011607
vt 0.274332 0.257082
vt 0.320565 0.265027
vt 0.296905 0.157753
vt 0.260627 0.145432
vt 0.265926 0.365730
vt 0.315942 0.371314
vt 0.257363 0.473088
vt 0.311394 0.477983
vt 0.245554 0.591154
vt 0.304137 0.595427
vt 0.255528 0.036034
vt 0.223218 0.023424
vt 0.236641 0.612499
vt 0.306535 0.617485
vt 0.240847 0.012352
vt 0.202716 0.000327
vt 0.707600 0.695916
vt 0.724971 0.729130
vt 0.758697 0.750078
vt 0.748735 0.713124
vt 0.801514 0.717545
vt 0.799766 0.754328
vt 0.809019 0.750083
vt 0.815699 0.713156
vt 0.712644 0.878101
vt 0.713545 0.819360
vt 0.676669 0.815065
vt 0.675857 0.885048
vt 0.630501 0.886975
vt 0.630369 0.813801
vt 0.618937 0.815047
vt 0.619450 0.885025
vt 0.659901 0.813811
vt 0.659730 0.886986
vt 0.771847 0.754319
vt 0.770120 0.717533
vt 0.847333 0.230772
vt 0.808794 0.238982
vt 0.833545 0.133079
vt 0.863443 0.118458
vt 0.853896 0.340101
vt 0.811693 0.344570
vt 0.860610 0.447650
vt 0.814532 0.451234
vt 0.870345 0.566396
vt 0.819943 0.569000
vt 0.877287 0.013696
vt 0.902347 -0.005066
vt 0.278247 0.256842
vt 0.264012 0.144268
vt 0.293656 0.159403
vt 0.316644 0.265687
vt 0.269866 0.366044
vt 0.311990 0.371214
vt 0.261365 0.473464
vt 0.307377 0.477818
vt 0.249577 0.591855
vt 0.300043 0.595355
vt 0.226013 0.022275
vt 0.252555 0.036923
vt 0.240767 0.613317
vt 0.302300 0.617460
vt 0.237499 0.012885
vt 0.205775 -0.000676
vt 0.705465 0.698754
vt 0.747689 0.716572
vt 0.760132 0.746814
vt 0.727315 0.726413
vt 0.801741 0.721211
vt 0.816387 0.716605
vt 0.808020 0.746817
vt 0.799422 0.750662
vt 0.712016 0.874032
vt 0.675330 0.880858
vt 0.676317 0.819283
vt 0.713100 0.823445
vt 0.630625 0.882706
vt 0.619811 0.880835
vt 0.619173 0.819265
vt 0.630446 0.818070
vt 0.659607 0.882717
vt 0.659822 0.818080
vt 0.769889 0.721199
vt 0.772195 0.750652
s 1
f 1/1/1 2/2/2 4/3/3 3/4/4
f 5/5/5 1/1/1 3/4/4 6/6/6
f 7/7/7 5/5/5 6/6/6 8/8/8
f 9/9/9 7/7/7 8/8/8 10/10/10
f 2/2/2 11/11/11 12/12/12 4/3/3
f 13/13/13 15/14/14 16/15/15 14/16/16
f 17/17/17 18/18/18 15/14/14 13/13/13
f 19/19/19 20/20/20 18/18/18 17/17/17
f 21/21/21 22/22/22 20/20/20 19/19/19
f 14/16/16 16/15/15 24/23/23 23/24/24
f 25/25/25 26/26/26 22/22/22 21/21/21
f 28/27/27 33/28/28 23/24/24 24/23/23
f 12/29/12 11/30/11 27/31/29 35/32/30
f 36/33/31 37/34/32 33/35/28 28/36/27
f 9/37/9 10/38/10 31/39/33 29/40/34
f 30/41/35 32/42/36 26/43/26 25/44/25
f 29/40/34 31/39/33 39/45/37 38/46/38
f 35/32/30 27/31/29 34/47/39 40/48/40
f 37/34/32 36/33/31 40/48/40 34/47/39
f 32/42/36 30/41/35 38/46/38 39/45/37
f 81/49/41 83/50/42 84/51/43 82/52/44
f 85/53/45 86/54/46 83/50/42 81/49/41
f 87/55/47 88/56/48 86/54/46 85/53/45
f 89/57/49 90/58/50 88/56/48 87/55/47
f 82/52/44 84/51/43 92/59/51 91/60/52
f 93/61/53 94/62/54 96/63/55 95/64/56
f 97/65/57 93/61/53 95/64/56 98/66/58
f 99/67/59 97/65/57 98/66/58 100/68/60
f 101/69/61 99/67/59 100/68/60 102/70/62
f 94/62/54 103/71/63 104/72/64 96/63/55
f 65/73/65 101/69/61 102/70/62 66/74/66
f 68/75/67 104/72/64 103/71/63 73/76/68
f 92/77/51 75/78/69 67/79/70 91/80/52
f 76/81/71 68/82/67 73/83/68 77/84/72
f 89/85/49 69/86/73 71/87/74 90/88/50
f 70/89/75 65/90/65 66/91/66 72/92/76
f 69/86/73 78/93/77 79/94/78 71/87/74
f 75/78/69 80/95/79 74/96/80 67/79/70
f 77/84/72 74/96/80 80/95/79 76/81/71
f 72/92/76 79/94/78 78/93/77 70/89/75
f 17/17/17 13/13/13 62/13/81 60/17/82
f 29/40/34 38/46/38 118/46/83 109/40/84
f 8/8/8 6/6/6 47/6/85 45/8/86
f 31/39/33 10/38/10 42/38/87 111/39/88
f 15/14/14 18/18/18 59/18/89 61/14/90
f 39/45/37 31/39/33 111/39/88 119/45/91
f 7/7/7 9/9/9 41/9/92 46/7/93
f 26/43/26 32/42/36 112/42/94 106/43/95
f 19/19/19 17/17/17 60/17/82 58/19/96
f 35/32/30 40/48/40 120/48/97 115/32/98
f 10/10/10 8/8/8 45/8/86 42/10/87
f 23/24/24 33/28/28 113/28/99 56/24/100
f 18/18/18 20/20/20 57/20/101 59/18/89
f 11/11/11 2/2/2 52/2/102 44/11/103
f 34/47/39 27/31/29 107/31/104 114/47/105
f 21/21/21 19/19/19 58/19/96 53/21/106
f 4/3/3 12/12/12 43/12/107 51/3/108
f 12/29/12 35/32/30 115/32/98 43/29/107
f 20/20/20 22/22/22 54/22/109 57/20/101
f 40/48/40 36/33/31 116/33/110 120/48/97
f 36/33/31 28/36/27 108/36/111 116/33/110
f 14/16/16 23/24/24 56/24/100 64/16/112
f 37/34/32 34/47/39 114/47/105 117/34/113
f 24/23/23 16/15/15 63/15/114 55/23/115
f 32/42/36 39/45/37 119/45/91 112/42/94
f 25/25/25 21/21/21 53/21/106 105/25/116
f 38/46/38 30/41/35 110/41/117 118/46/83
f 2/2/2 1/1/1 50/1/118 52/2/102
f 22/22/22 26/26/26 106/26/95 54/22/109
f 3/4/4 4/3/3 51/3/108 49/4/119
f 27/31/29 11/30/11 44/30/103 107/31/104
f 33/35/28 37/34/32 117/34/113 113/35/99
f 1/1/1 5/5/5 48/5/120 50/1/118
f 28/27/27 24/23/23 55/23/115 108/27/111
f 13/13/13 14/16/16 64/16/112 62/13/81
f 6/6/6 3/4/4 49/4/119 47/6/85
f 9/37/9 29/40/34 109/40/84 41/37/92
f 16/15/15 15/14/14 61/14/90 63/15/114
f 5/5/5 7/7/7 46/7/93 48/5/120
f 30/41/35 25/44/25 105/44/116 110/41/117
f 81/49/41 82/52/44 52/2/102 50/1/118
f 84/51/43 83/50/42 49/4/119 51/3/108
f 85/53/45 81/49/41 50/1/118 48/5/120
f 83/50/42 86/54/46 47/6/85 49/4/119
f 87/55/47 85/53/45 48/5/120 46/7/93
f 86/54/46 88/56/48 45/8/86 47/6/85
f 89/57/49 87/55/47 46/7/93 41/9/92
f 88/56/48 90/58/50 42/10/87 45/8/86
f 82/52/44 91/60/52 44/11/103 52/2/102
f 92/59/51 84/51/43 51/3/108 43/12/107
f 94/62/54 93/61/53 62/13/81 64/16/112
f 95/64/56 96/63/55 63/15/114 61/14/90
f 93/61/53 97/65/57 60/17/82 62/13/81
f 98/66/58 95/64/56 61/14/90 59/18/89
f 97/65/57 99/67/59 58/19/96 60/17/82
f 100/68/60 98/66/58 59/18/89 57/20/101
f 99/67/59 101/69/61 53/21/106 58/19/96
f 102/70/62 100/68/60 57/20/101 54/22/109
f 103/71/63 94/62/54 64/16/112 56/24/100
f 96/63/55 104/72/64 55/23/115 63/15/114
f 101/69/61 65/73/65 105/25/116 53/21/106
f 66/74/66 102/70/62 54/22/109 106/26/95
f 91/80/52 67/79/70 107/31/104 44/30/103
f 104/72/64 68/75/67 108/27/111 55/23/115
f 69/86/73 89/85/49 41/37/92 109/40/84
f 65/90/65 70/89/75 110/41/117 105/44/116
f 90/88/50 71/87/74 111/39/88 42/38/87
f 72/92/76 66/91/66 106/43/95 112/42/94
f 73/76/68 103/71/63 56/24/100 113/28/99
f 67/79/70 74/96/80 114/47/105 107/31/104
f 75/78/69 92/77/51 43/29/107 115/32/98
f 68/82/67 76/81/71 116/33/110 108/36/111
f 77/84/72 73/83/68 113/35/99 117/34/113
f 78/93/77 69/86/73 109/40/84 118/46/83
f 71/87/74 79/94/78 119/45/91 111/39/88
f 80/95/79 75/78/69 115/32/98 120/48/97
f 76/81/71 80/95/79 120/48/97 116/33/110
f 74/96/80 77/84/72 117/34/113 114/47/105
f 79/94/78 72/92/76 112/42/94 119/45/91
f 70/89/75 78/93/77 118/46/83 110/41/117
o Bomber_Tailwing_Trim_Glow_Right
v -4.091490 0.144572 0.897682
v -4.146739 0.003597 1.141553
v -3.920575 0.149971 0.888493
v -4.006124 0.015700 1.120971
v -4.090841 0.283925 0.656413
v -3.909876 0.286782 0.653609
v -4.090841 0.421564 0.417911
v -3.898878 0.422312 0.416882
v -4.096687 0.572273 0.154432
v -3.892616 0.570680 0.154979
v -4.263700 -0.146269 1.408594
v -4.139361 -0.142187 1.374243
v -4.091490 0.423900 1.058952
v -4.146729 0.283091 1.302916
v -3.920575 0.429299 1.049764
v -4.006114 0.294839 1.282134
v -4.090841 0.563253 0.817683
v -3.909876 0.566110 0.814879
v -4.090841 0.700900 0.579186
v -3.898878 0.701650 0.578158
v -4.096675 0.853567 0.316896
v -3.892620 0.853866 0.318522
v -4.263628 0.126732 1.566111
v -4.139349 0.154428 1.545535
v -4.115643 0.839858 0.245181
v -3.880616 0.840657 0.247410
v -4.321578 -0.127372 1.477154
v -4.180006 0.086907 1.577961
v -4.115652 0.640779 0.130186
v -4.120898 0.807396 0.212166
v -3.880612 0.638441 0.130620
v -3.877156 0.807906 0.212740
v -4.321539 0.057496 1.583768
v -4.333169 -0.096610 1.502174
v -4.180005 -0.136963 1.448636
v -4.190594 0.028763 1.571277
v -4.333162 0.020110 1.569531
v -4.120900 0.685266 0.141640
v -3.877154 0.684509 0.141486
v -4.190599 -0.102467 1.495499
v -4.096735 0.555060 0.132538
v -3.892664 0.553198 0.133299
v -4.140437 -0.168155 1.364236
v -4.263693 -0.174116 1.408141
v -3.898868 0.398136 0.403055
v -4.090830 0.397388 0.404083
v -3.909786 0.262661 0.639686
v -4.090751 0.259806 0.642487
v -3.920514 0.125868 0.874540
v -4.091436 0.120465 0.883734
v -4.006631 -0.008257 1.106777
v -4.147755 -0.020195 1.127111
v -4.096730 0.881148 0.320767
v -3.892676 0.881397 0.322732
v -4.140421 0.176046 1.563061
v -4.263613 0.140954 1.590057
v -3.898966 0.725746 0.592123
v -4.090929 0.724997 0.593150
v -3.909966 0.590230 0.828802
v -4.090931 0.587372 0.831608
v -3.920622 0.453400 1.063721
v -4.091523 0.448003 1.072905
v -4.006629 0.319103 1.295796
v -4.147750 0.307490 1.316307
v -4.101788 0.868131 0.223719
v -3.893113 0.869435 0.227043
v -4.309208 -0.152623 1.504070
v -4.194180 0.092136 1.612325
v -4.101798 0.645146 0.094958
v -4.106962 0.828358 0.183454
v -3.893108 0.641599 0.095507
v -3.889647 0.829118 0.184211
v -4.309173 0.046752 1.619060
v -4.320395 -0.116414 1.531469
v -4.194183 -0.169378 1.461146
v -4.205124 0.016687 1.604948
v -4.320393 0.004625 1.601320
v -4.106964 0.699629 0.109119
v -3.889645 0.698587 0.108839
v -4.205123 -0.125623 1.522766
v -4.077271 0.117573 0.885264
v -4.134606 -0.026128 1.132741
v -3.933365 0.124959 0.872521
v -4.019464 -0.008632 1.104998
v -4.076576 0.258945 0.640534
v -3.922614 0.262040 0.637153
v -4.076655 0.397854 0.399746
v -3.911600 0.398749 0.398451
v -4.082635 0.558370 0.125145
v -3.905327 0.556045 0.126115
v -4.252030 -0.179985 1.419263
v -4.154712 -0.171739 1.363942
v -4.077358 0.448169 1.076195
v -4.134600 0.305585 1.324260
v -3.933475 0.455561 1.063481
v -4.019463 0.320827 1.295233
v -4.076758 0.589576 0.831424
v -3.922795 0.592673 0.828038
v -4.076756 0.728563 0.590607
v -3.911698 0.729387 0.589262
v -4.082629 0.885890 0.314214
v -3.905338 0.886187 0.316674
v -4.251940 0.134255 1.600674
v -4.154706 0.178088 1.566039
v -4.115619 0.864096 0.231464
v -3.880595 0.865127 0.234110
v -4.320465 -0.150205 1.493062
v -4.179135 0.090910 1.605509
v -4.115628 0.640457 0.102337
v -4.120855 0.824433 0.190135
v -3.880591 0.637636 0.102781
v -3.877113 0.824998 0.190751
v -4.320431 0.055072 1.611491
v -4.332314 -0.113503 1.524300
v -4.179138 -0.162870 1.458821
v -4.189666 0.018929 1.597317
v -4.332312 0.009379 1.595217
v -4.120857 0.695811 0.115863
v -3.877111 0.694989 0.115682
v -4.189665 -0.120124 1.517017
vn -0.6788 0.6667 0.3079
vn -0.6566 0.7235 0.2130
vn 0.6757 0.4674 0.5701
vn 0.7247 0.5219 0.4500
vn -0.7087 0.6114 0.3521
vn 0.7036 0.6009 0.3793
vn -0.7055 0.6118 0.3578
vn 0.7088 0.6014 0.3687
vn -0.7764 0.3146 0.5462
vn 0.7863 0.3371 0.5178
vn -0.6862 0.6479 -0.3309
vn 0.7143 0.4791 0.5102
vn -0.6764 -0.6011 -0.4256
vn 0.7265 -0.6483 -0.2278
vn 0.6759 -0.7271 -0.1200
vn -0.6564 -0.5463 -0.5202
vn -0.7048 -0.6140 -0.3554
vn 0.7094 -0.6240 -0.3277
vn -0.7030 -0.6187 -0.3508
vn 0.7106 -0.6192 -0.3340
vn -0.7767 -0.6299 0.0021
vn 0.7873 -0.6158 -0.0307
vn 0.7150 -0.6803 -0.1611
vn -0.6871 -0.0344 -0.7258
vn -0.7703 -0.4843 0.4148
vn 0.7741 -0.5137 0.3698
vn 0.7092 -0.3028 -0.6367
vn -0.7293 0.3701 -0.5755
vn -0.7294 0.3137 -0.6080
vn 0.7092 0.7031 -0.0520
vn 0.7139 0.1909 -0.6737
vn -0.7637 0.3316 -0.5539
vn 0.7746 -0.0618 0.6295
vn -0.7707 -0.1158 0.6266
vn -0.7469 -0.3769 0.5478
vn 0.7446 -0.3906 0.5413
vn 0.7448 -0.2731 0.6088
vn -0.7471 -0.2857 0.6002
vn -0.7639 0.3138 -0.5639
vn 0.7141 0.4886 -0.5013
vn -0.0584 -0.8608 -0.5056
vn 0.0699 -0.8692 -0.4895
vn 0.0602 -0.8710 -0.4877
vn -0.0845 -0.8519 -0.5169
vn -0.0592 -0.8645 -0.4992
vn 0.0706 -0.8653 -0.4963
vn -0.0522 -0.8645 -0.5000
vn 0.0613 -0.8657 -0.4969
vn -0.1231 -0.6111 -0.7819
vn 0.1425 -0.6105 -0.7790
vn 0.1023 -0.9654 -0.2397
vn -0.1138 -0.9908 -0.0731
vn -0.0615 0.8675 0.4937
vn -0.0850 0.8734 0.4796
vn 0.0598 0.8576 0.5108
vn 0.0662 0.8571 0.5108
vn -0.0651 0.8642 0.4989
vn 0.0652 0.8629 0.5011
vn -0.0557 0.8658 0.4972
vn 0.0585 0.8648 0.4986
vn -0.1240 0.9830 0.1353
vn 0.1426 0.9804 0.1362
vn -0.1138 0.5561 0.8233
vn 0.1025 0.6887 0.7177
vn -0.2257 0.8652 -0.4477
vn 0.2446 0.8628 -0.4424
vn 0.2121 0.1056 0.9715
vn -0.2453 0.0147 0.9693
vn 0.2116 -0.8959 0.3906
vn -0.2451 -0.8480 0.4699
vn 0.2361 -0.3386 0.9108
vn -0.2913 -0.3558 0.8880
vn -0.2255 -0.0478 -0.9731
vn 0.2444 -0.0513 -0.9683
vn -0.2553 0.6012 -0.7572
vn 0.2737 0.5995 -0.7521
vn -0.2554 0.3546 -0.8995
vn 0.2738 0.3509 -0.8955
vn 0.2362 -0.6206 0.7477
vn -0.2916 -0.5914 0.7518
vn -0.7337 0.6216 0.2744
vn -0.7512 0.5720 0.3293
vn -0.8496 0.1585 -0.5030
vn -0.8033 -0.1721 -0.5701
vn 0.7551 -0.5821 -0.3016
vn 0.7514 -0.5834 -0.3084
vn 0.7010 -0.5450 -0.4599
vn 0.8175 -0.1408 -0.5585
vn 0.7505 0.5567 0.3562
vn 0.7591 0.4845 0.4347
vn 0.8582 0.1612 -0.4873
vn -0.6769 -0.5687 -0.4673
vn -0.7420 -0.5835 -0.3301
vn 0.8583 0.3410 -0.3836
vn 0.8179 0.5528 -0.1594
vn -0.7445 0.5754 0.3385
vn 0.8128 -0.3468 0.4680
vn 0.7427 -0.5514 0.3799
vn -0.7852 0.3278 0.5254
vn -0.5888 0.7154 0.3761
vn 0.7501 0.5617 0.3491
vn -0.6962 -0.5074 -0.5077
vn -0.5885 -0.6824 -0.4335
vn -0.7847 -0.6195 -0.0231
vn -0.8731 -0.3621 0.3263
vn -0.6778 0.6890 0.2565
vn 0.6895 -0.7222 0.0550
vn 0.7183 -0.6896 -0.0922
vn 0.7005 0.6720 0.2403
vn 0.8131 -0.2327 0.5336
vn 0.7432 -0.0559 0.6667
vn -0.6968 0.6928 0.1856
vn -0.8730 -0.1020 0.4769
vn 0.7179 0.4249 0.5514
vn 0.6895 0.3130 0.6532
vn -0.8038 0.5786 -0.1382
vn -0.8496 0.3560 -0.3891
vn -0.7314 -0.5505 -0.4026
vn 0.7608 -0.6162 -0.2036
vn -0.7479 -0.5744 -0.3326
vt 0.851243 0.231079
vt 0.866808 0.119672
vt 0.830328 0.131389
vt 0.804885 0.238255
vt 0.857841 0.339852
vt 0.807739 0.344604
vt 0.864617 0.447338
vt 0.810513 0.451334
vt 0.874385 0.565651
vt 0.815850 0.568946
vt 0.905285 -0.002780
vt 0.874283 0.011607
vt 0.274332 0.257082
vt 0.320565 0.265027
vt 0.296905 0.157753
vt 0.260627 0.145432
vt 0.265926 0.365730
vt 0.315942 0.371314
vt 0.257363 0.473088
vt 0.311394 0.477983
vt 0.245554 0.591154
vt 0.304137 0.595427
vt 0.255528 0.036034
vt 0.223218 0.023424
vt 0.236641 0.612499
vt 0.306535 0.617485
vt 0.240847 0.012352
vt 0.202716 0.000327
vt 0.707600 0.695916
vt 0.724971 0.729130
vt 0.758697 0.750078
vt 0.748735 0.713124
vt 0.801514 0.717545
vt 0.799766 0.754328
vt 0.809019 0.750083
vt 0.815699 0.713156
vt 0.712644 0.878101
vt 0.713545 0.819360
vt 0.676669 0.815065
vt 0.675857 0.885048
vt 0.630501 0.886975
vt 0.630369 0.813801
vt 0.618937 0.815047
vt 0.619450 0.885025
vt 0.659901 0.813811
vt 0.659730 0.886986
vt 0.771847 0.754319
vt 0.770120 0.717533
vt 0.847333 0.230772
vt 0.808794 0.238982
vt 0.833545 0.133079
vt 0.863443 0.118458
vt 0.853896 0.340101
vt 0.811693 0.344570
vt 0.860610 0.447650
vt 0.814532 0.451234
vt 0.870345 0.566396
vt 0.819943 0.569000
vt 0.877287 0.013696
vt 0.902347 -0.005066
vt 0.278247 0.256842
vt 0.264012 0.144268
vt 0.293656 0.159403
vt 0.316644 0.265687
vt 0.269866 0.366044
vt 0.311990 0.371214
vt 0.261365 0.473464
vt 0.307377 0.477818
vt 0.249577 0.591855
vt 0.300043 0.595355
vt 0.226013 0.022275
vt 0.252555 0.036923
vt 0.240767 0.613317
vt 0.302300 0.617460
vt 0.237499 0.012885
vt 0.205775 -0.000676
vt 0.705465 0.698754
vt 0.747689 0.716572
vt 0.760132 0.746814
vt 0.727315 0.726413
vt 0.801741 0.721211
vt 0.816387 0.716605
vt 0.808020 0.746817
vt 0.799422 0.750662
vt 0.712016 0.874032
vt 0.675330 0.880858
vt 0.676317 0.819283
vt 0.713100 0.823445
vt 0.630625 0.882706
vt 0.619811 0.880835
vt 0.619173 0.819265
vt 0.630446 0.818070
vt 0.659607 0.882717
vt 0.659822 0.818080
vt 0.769889 0.721199
vt 0.772195 0.750652
s 1
f 121/97/121 122/98/122 124/99/123 123/100/124
f 125/101/125 121/97/121 123/100/124 126/102/126
f 127/103/127 125/101/125 126/102/126 128/104/128
f 129/105/129 127/103/127 128/104/128 130/106/130
f 122/98/122 131/107/131 132/108/132 124/99/123
f 133/109/133 135/110/134 136/111/135 134/112/136
f 137/113/137 138/114/138 135/110/134 133/109/133
f 139/115/139 140/116/140 138/114/138 137/113/137
f 141/117/141 142/118/142 140/116/140 139/115/139
f 134/112/136 136/111/135 144/119/143 143/120/144
f 145/121/145 146/122/146 142/118/142 141/117/141
f 148/123/147 153/124/148 143/120/144 144/119/143
f 132/125/132 131/126/131 147/127/149 155/128/150
f 156/129/151 157/130/152 153/131/148 148/132/147
f 129/133/129 130/134/130 151/135/153 149/136/154
f 150/137/155 152/138/156 146/139/146 145/140/145
f 149/136/154 151/135/153 159/141/157 158/142/158
f 155/128/150 147/127/149 154/143/159 160/144/160
f 157/130/152 156/129/151 160/144/160 154/143/159
f 152/138/156 150/137/155 158/142/158 159/141/157
f 201/145/161 203/146/162 204/147/163 202/148/164
f 205/149/165 206/150/166 203/146/162 201/145/161
f 207/151/167 208/152/168 206/150/166 205/149/165
f 209/153/169 210/154/170 208/152/168 207/151/167
f 202/148/164 204/147/163 212/155/171 211/156/172
f 213/157/173 214/158/174 216/159/175 215/160/176
f 217/161/177 213/157/173 215/160/176 218/162/178
f 219/163/179 217/161/177 218/162/178 220/164/180
f 221/165/181 219/163/179 220/164/180 222/166/182
f 214/158/174 223/167/183 224/168/184 216/159/175
f 185/169/185 221/165/181 222/166/182 186/170/186
f 188/171/187 224/168/184 223/167/183 193/172/188
f 212/173/171 195/174/189 187/175/190 211/176/172
f 196/177/191 188/178/187 193/179/188 197/180/192
f 209/181/169 189/182/193 191/183/194 210/184/170
f 190/185/195 185/186/185 186/187/186 192/188/196
f 189/182/193 198/189/197 199/190/198 191/183/194
f 195/174/189 200/191/199 194/192/200 187/175/190
f 197/180/192 194/192/200 200/191/199 196/177/191
f 192/188/196 199/190/198 198/189/197 190/185/195
f 137/113/137 133/109/133 182/109/201 180/113/202
f 149/136/154 158/142/158 238/142/203 229/136/204
f 128/104/128 126/102/126 167/102/205 165/104/206
f 151/135/153 130/134/130 162/134/207 231/135/208
f 135/110/134 138/114/138 179/114/209 181/110/210
f 159/141/157 151/135/153 231/135/208 239/141/211
f 127/103/127 129/105/129 161/105/212 166/103/213
f 146/139/146 152/138/156 232/138/214 226/139/215
f 139/115/139 137/113/137 180/113/202 178/115/216
f 155/128/150 160/144/160 240/144/217 235/128/218
f 130/106/130 128/104/128 165/104/206 162/106/207
f 143/120/144 153/124/148 233/124/219 176/120/220
f 138/114/138 140/116/140 177/116/221 179/114/209
f 131/107/131 122/98/122 172/98/222 164/107/223
f 154/143/159 147/127/149 227/127/224 234/143/225
f 141/117/141 139/115/139 178/115/216 173/117/226
f 124/99/123 132/108/132 163/108/227 171/99/228
f 132/125/132 155/128/150 235/128/218 163/125/227
f 140/116/140 142/118/142 174/118/229 177/116/221
f 160/144/160 156/129/151 236/129/230 240/144/217
f 156/129/151 148/132/147 228/132/231 236/129/230
f 134/112/136 143/120/144 176/120/220 184/112/232
f 157/130/152 154/143/159 234/143/225 237/130/233
f 144/119/143 136/111/135 183/111/234 175/119/235
f 152/138/156 159/141/157 239/141/211 232/138/214
f 145/121/145 141/117/141 173/117/226 225/121/236
f 158/142/158 150/137/155 230/137/237 238/142/203
f 122/98/122 121/97/121 170/97/238 172/98/222
f 142/118/142 146/122/146 226/122/215 174/118/229
f 123/100/124 124/99/123 171/99/228 169/100/239
f 147/127/149 131/126/131 164/126/223 227/127/224
f 153/131/148 157/130/152 237/130/233 233/131/219
f 121/97/121 125/101/125 168/101/240 170/97/238
f 148/123/147 144/119/143 175/119/235 228/123/231
f 133/109/133 134/112/136 184/112/232 182/109/201
f 126/102/126 123/100/124 169/100/239 167/102/205
f 129/133/129 149/136/154 229/136/204 161/133/212
f 136/111/135 135/110/134 181/110/210 183/111/234
f 125/101/125 127/103/127 166/103/213 168/101/240
f 150/137/155 145/140/145 225/140/236 230/137/237
f 201/145/161 202/148/164 172/98/222 170/97/238
f 204/147/163 203/146/162 169/100/239 171/99/228
f 205/149/165 201/145/161 170/97/238 168/101/240
f 203/146/162 206/150/166 167/102/205 169/100/239
f 207/151/167 205/149/165 168/101/240 166/103/213
f 206/150/166 208/152/168 165/104/206 167/102/205
f 209/153/169 207/151/167 166/103/213 161/105/212
f 208/152/168 210/154/170 162/106/207 165/104/206
f 202/148/164 211/156/172 164/107/223 172/98/222
f 212/155/171 204/147/163 171/99/228 163/108/227
f 214/158/174 213/157/173 182/109/201 184/112/232
f 215/160/176 216/159/175 183/111/234 181/110/210
f 213/157/173 217/161/177 180/113/202 182/109/201
f 218/162/178 215/160/176 181/110/210 179/114/209
f 217/161/177 219/163/179 178/115/216 180/113/202
f 220/164/180 218/162/178 179/114/209 177/116/221
f 219/163/179 221/165/181 173/117/226 178/115/216
f 222/166/182 220/164/180 177/116/221 174/118/229
f 223/167/183 214/158/174 184/112/232 176/120/220
f 216/159/175 224/168/184 175/119/235 183/111/234
f 221/165/181 185/169/185 225/121/236 173/117/226
f 186/170/186 222/166/182 174/118/229 226/122/215
f 211/176/172 187/175/190 227/127/224 164/126/223
f 224/168/184 188/171/187 228/123/231 175/119/235
f 189/182/193 209/181/169 161/133/212 229/136/204
f 185/186/185 190/185/195 230/137/237 225/140/236
f 210/184/170 191/183/194 231/135/208 162/134/207
f 192/188/196 186/187/186 226/139/215 232/138/214
f 193/172/188 223/167/183 176/120/220 233/124/219
f 187/175/190 194/192/200 234/143/225 227/127/224
f 195/174/189 212/173/171 163/125/227 235/128/218
f 188/178/187 196/177/191 236/129/230 228/132/231
f 197/180/192 193/179/188 233/131/219 237/130/233
f 198/189/197 189/182/193 229/136/204 238/142/203
f 191/183/194 199/190/198 239/141/211 231/135/208
f 200/191/199 195/174/189 235/128/218 240/144/217
f 196/177/191 200/191/199 240/144/217 236/129/230
f 194/192/200 197/180/192 237/130/233 234/143/225
f 199/190/198 192/188/196 232/138/214 239/141/211
f 190/185/195 198/189/197 238/142/203 230/137/237
o Bomber_Tailwing_Trim_Glow_Left
v -4.092175 0.462491 -1.075924
v -4.147424 0.321780 -1.319947
v -3.921260 0.467750 -1.066654
v -4.006809 0.333554 -1.299176
v -4.091526 0.601760 -0.834606
v -3.910560 0.602760 -0.830730
v -4.091526 0.739490 -0.596156
v -3.899562 0.740006 -0.594994
v -4.097372 0.892314 -0.333899
v -3.893300 0.892637 -0.335552
v -4.264385 0.165449 -1.583256
v -4.140046 0.193157 -1.562545
v -4.092175 0.183164 -0.914654
v -4.147414 0.042289 -1.158580
v -3.921260 0.188421 -0.905384
v -4.006799 0.054412 -1.138015
v -4.091526 0.322432 -0.673336
v -3.910560 0.323432 -0.669460
v -4.091526 0.460153 -0.434882
v -3.899562 0.460668 -0.433718
v -4.097360 0.610969 -0.171523
v -3.893304 0.609412 -0.172077
v -4.264313 -0.107465 -1.425589
v -4.140034 -0.103493 -1.391315
v -4.116328 0.679931 -0.147538
v -3.881301 0.677601 -0.147961
v -4.322263 0.096626 -1.601170
v -4.180691 -0.097815 -1.466003
v -4.116336 0.879059 -0.262448
v -4.121583 0.724754 -0.159144
v -3.881296 0.879853 -0.264690
v -3.877841 0.724002 -0.158989
v -4.322224 -0.088139 -1.494377
v -4.333854 0.059577 -1.587039
v -4.180689 0.126118 -1.595217
v -4.191279 -0.062955 -1.513015
v -4.333847 -0.057116 -1.519635
v -4.121585 0.846896 -0.229648
v -3.877839 0.847408 -0.230227
v -4.191284 0.068286 -1.588774
v -4.097420 0.919882 -0.337859
v -3.893349 0.920154 -0.339852
v -4.141121 0.214808 -1.580030
v -4.264378 0.179765 -1.607145
v -3.899553 0.764069 -0.609018
v -4.091515 0.763553 -0.610179
v -3.910470 0.626878 -0.844658
v -4.091436 0.625880 -0.848531
v -3.921198 0.491885 -1.080551
v -4.092121 0.486624 -1.089827
v -4.007316 0.357824 -1.312826
v -4.148440 0.346184 -1.333330
v -4.097414 0.593827 -0.149573
v -3.893360 0.592000 -0.150340
v -4.141106 -0.129481 -1.381357
v -4.264298 -0.135314 -1.425245
v -3.899650 0.436526 -0.419833
v -4.091614 0.436011 -0.420995
v -3.910650 0.299314 -0.655533
v -4.091616 0.298313 -0.659411
v -3.921306 0.164283 -0.891491
v -4.092207 0.159028 -0.900756
v -4.007314 0.030449 -1.123832
v -4.148435 0.018493 -1.144145
v -4.102472 0.684381 -0.112322
v -3.893797 0.680850 -0.112854
v -4.309893 0.085942 -1.636496
v -4.194865 -0.130190 -1.478657
v -4.102482 0.907384 -0.241052
v -4.107646 0.739138 -0.126634
v -3.893793 0.908681 -0.244398
v -3.890331 0.738102 -0.126354
v -4.309857 -0.113330 -1.521327
v -4.321080 0.044109 -1.618838
v -4.194868 0.131492 -1.629545
v -4.205809 -0.086077 -1.540308
v -4.321078 -0.076903 -1.548941
v -4.107648 0.867879 -0.200949
v -3.890329 0.868642 -0.201711
v -4.205808 0.056250 -1.622462
v -4.077956 0.486745 -1.093096
v -4.135291 0.344275 -1.341284
v -3.934050 0.494088 -1.080328
v -4.020149 0.359553 -1.312261
v -4.077261 0.628002 -0.848300
v -3.923298 0.629382 -0.843930
v -4.077340 0.767076 -0.607607
v -3.912285 0.767750 -0.606185
v -4.083320 0.924629 -0.331296
v -3.906012 0.924951 -0.333794
v -4.252715 0.173068 -1.617789
v -4.155396 0.216854 -1.582988
v -4.078043 0.156096 -0.902258
v -4.135285 0.012558 -1.149771
v -3.934160 0.163411 -0.889499
v -4.020148 0.030075 -1.122058
v -4.077443 0.297371 -0.657411
v -3.923480 0.298754 -0.653035
v -4.077440 0.436430 -0.416636
v -3.912383 0.437183 -0.415249
v -4.083313 0.597131 -0.142190
v -3.906023 0.594852 -0.143162
v -4.252625 -0.141159 -1.436354
v -4.155391 -0.133081 -1.381077
v -4.116304 0.679691 -0.119689
v -3.881280 0.676885 -0.120119
v -4.321149 0.094265 -1.628898
v -4.179820 -0.123674 -1.476310
v -4.116313 0.903338 -0.248803
v -4.121540 0.735315 -0.133373
v -3.881275 0.904364 -0.251468
v -3.877798 0.734498 -0.133192
v -4.321116 -0.110936 -1.510337
v -4.332999 0.048862 -1.612732
v -4.179823 0.130252 -1.622746
v -4.190351 -0.080589 -1.534552
v -4.332997 -0.073995 -1.541772
v -4.121542 0.863947 -0.207627
v -3.877796 0.864515 -0.208249
v -4.190350 0.058479 -1.614825
vn -0.6788 -0.6000 0.4234
vn -0.6566 -0.5462 0.5200
vn 0.6757 -0.7274 0.1197
vn 0.7247 -0.6507 0.2270
vn -0.7087 -0.6106 0.3534
vn 0.7036 -0.6289 0.3307
vn -0.7055 -0.6157 0.3510
vn 0.7088 -0.6200 0.3365
vn -0.7764 -0.6303 -0.0007
vn 0.7863 -0.6170 0.0331
vn -0.6862 -0.0374 0.7265
vn 0.7143 -0.6814 0.1599
vn -0.6764 0.6691 -0.3078
vn 0.7265 0.5214 -0.4476
vn 0.6759 0.4675 -0.5697
vn -0.6564 0.7237 -0.2131
vn -0.7048 0.6148 -0.3540
vn 0.7094 0.5958 -0.3765
vn -0.7030 0.6132 -0.3604
vn 0.7106 0.5989 -0.3693
vn -0.7767 0.3131 -0.5465
vn 0.7873 0.3345 -0.5180
vn 0.7150 0.4797 -0.5086
vn -0.6871 0.6457 0.3331
vn -0.7703 -0.1171 -0.6269
vn 0.7741 -0.0634 -0.6298
vn 0.7092 0.7028 0.0561
vn -0.7293 0.3133 0.6082
vn -0.7294 0.3697 0.5756
vn 0.7092 -0.3065 0.6349
vn 0.7139 0.4880 0.5022
vn -0.7637 0.3139 0.5641
vn 0.7746 -0.5143 -0.3682
vn -0.7707 -0.4847 -0.4136
vn -0.7469 -0.2860 -0.6003
vn 0.7446 -0.2735 -0.6089
vn 0.7448 -0.3907 -0.5409
vn -0.7471 -0.3769 -0.5475
vn -0.7639 0.3315 0.5537
vn 0.7141 0.1898 0.6738
vn -0.0584 0.8682 -0.4927
vn 0.0699 0.8585 -0.5080
vn 0.0602 0.8578 -0.5104
vn -0.0845 0.8736 -0.4793
vn -0.0592 0.8645 -0.4991
vn 0.0706 0.8624 -0.5012
vn -0.0522 0.8652 -0.4986
vn 0.0613 0.8631 -0.5013
vn -0.1231 0.9827 -0.1383
vn 0.1425 0.9799 -0.1392
vn 0.1023 0.6903 -0.7162
vn -0.1138 0.5587 -0.8215
vn -0.0615 -0.8613 0.5044
vn -0.0850 -0.8520 0.5166
vn 0.0598 -0.8712 0.4874
vn 0.0662 -0.8710 0.4869
vn -0.0651 -0.8642 0.4990
vn 0.0652 -0.8654 0.4967
vn -0.0557 -0.8635 0.5012
vn 0.0585 -0.8642 0.4997
vn -0.1240 -0.6087 0.7836
vn 0.1426 -0.6081 0.7809
vn -0.1138 -0.9910 0.0699
vn 0.1025 -0.9659 0.2376
vn -0.2257 -0.0449 0.9732
vn 0.2446 -0.0483 0.9684
vn 0.2121 -0.8942 -0.3944
vn -0.2453 -0.8468 -0.4720
vn 0.2116 0.1097 -0.9712
vn -0.2451 0.0170 -0.9694
vn 0.2361 -0.6195 -0.7486
vn -0.2913 -0.5912 -0.7521
vn -0.2255 0.8666 0.4451
vn 0.2444 0.8642 0.4397
vn -0.2553 0.3552 0.8992
vn 0.2737 0.3516 0.8952
vn -0.2554 0.6017 0.7568
vn 0.2738 0.6001 0.7516
vn 0.2362 -0.3373 -0.9113
vn -0.2916 -0.3553 -0.8881
vn -0.7337 -0.5485 0.4011
vn -0.7512 -0.5712 0.3307
vn -0.8496 0.3564 0.3888
vn -0.8033 0.5798 0.1360
vn 0.7551 0.5523 -0.3533
vn 0.7514 0.5588 -0.3510
vn 0.7010 0.6708 -0.2420
vn 0.8175 0.5540 0.1573
vn 0.7505 -0.5868 0.3041
vn 0.7591 -0.6188 0.2022
vn 0.8582 0.3414 0.3833
vn -0.6769 0.6890 -0.2588
vn -0.7420 0.5776 -0.3403
vn 0.8583 0.1617 0.4871
vn 0.8179 -0.1383 0.5585
vn -0.7445 -0.5809 0.3291
vn 0.8128 -0.2319 -0.5344
vn 0.7427 -0.0533 -0.6675
vn -0.7852 -0.6189 0.0212
vn -0.5888 -0.6834 0.4315
vn 0.7501 -0.5832 0.3119
vn -0.6962 0.6934 -0.1855
vn -0.5885 0.7166 -0.3743
vn -0.7847 0.3298 -0.5250
vn -0.8731 -0.1016 -0.4768
vn -0.6778 -0.5667 0.4685
vn 0.6895 0.3135 -0.6529
vn 0.7183 0.4247 -0.5511
vn 0.7005 -0.5441 0.4618
vn 0.8131 -0.3458 -0.4683
vn 0.7432 -0.5495 -0.3818
vn -0.6968 -0.5072 0.5072
vn -0.8730 -0.3620 -0.3268
vn 0.7179 -0.6900 0.0923
vn 0.6895 -0.7222 -0.0555
vn -0.8038 -0.1696 0.5702
vn -0.8496 0.1590 0.5028
vn -0.7314 0.6239 -0.2755
vn 0.7608 0.4844 -0.4318
vn -0.7479 0.5753 -0.3312
vt 0.851243 0.231079
vt 0.866808 0.119672
vt 0.830328 0.131389
vt 0.804885 0.238255
vt 0.857841 0.339852
vt 0.807739 0.344604
vt 0.864617 0.447338
vt 0.810513 0.451334
vt 0.874385 0.565651
vt 0.815850 0.568946
vt 0.905285 -0.002780
vt 0.874283 0.011607
vt 0.274332 0.257082
vt 0.320565 0.265027
vt 0.296905 0.157753
vt 0.260627 0.145432
vt 0.265926 0.365730
vt 0.315942 0.371314
vt 0.257363 0.473088
vt 0.311394 0.477983
vt 0.245554 0.591154
vt 0.304137 0.595427
vt 0.255528 0.036034
vt 0.223218 0.023424
vt 0.236641 0.612499
vt 0.306535 0.617485
vt 0.240847 0.012352
vt 0.202716 0.000327
vt 0.707600 0.695916
vt 0.724971 0.729130
vt 0.758697 0.750078
vt 0.748735 0.713124
vt 0.801514 0.717545
vt 0.799766 0.754328
vt 0.809019 0.750083
vt 0.815699 0.713156
vt 0.712644 0.878101
vt 0.713545 0.819360
vt 0.676669 0.815065
vt 0.675857 0.885048
vt 0.630501 0.886975
vt 0.630369 0.813801
vt 0.618937 0.815047
vt 0.619450 0.885025
vt 0.659901 0.813811
vt 0.659730 0.886986
vt 0.771847 0.754319
vt 0.770120 0.717533
vt 0.847333 0.230772
vt 0.808794 0.238982
vt 0.833545 0.133079
vt 0.863443 0.118458
vt 0.853896 0.340101
vt 0.811693 0.344570
vt 0.860610 0.447650
vt 0.814532 0.451234
vt 0.870345 0.566396
vt 0.819943 0.569000
vt 0.877287 0.013696
vt 0.902347 -0.005066
vt 0.278247 0.256842
vt 0.264012 0.144268
vt 0.293656 0.159403
vt 0.316644 0.265687
vt 0.269866 0.366044
vt 0.311990 0.371214
vt 0.261365 0.473464
vt 0.307377 0.477818
vt 0.249577 0.591855
vt 0.300043 0.595355
vt 0.226013 0.022275
vt 0.252555 0.036923
vt 0.240767 0.613317
vt 0.302300 0.617460
vt 0.237499 0.012885
vt 0.205775 -0.000676
vt 0.705465 0.698754
vt 0.747689 0.716572
vt 0.760132 0.746814
vt 0.727315 0.726413
vt 0.801741 0.721211
vt 0.816387 0.716605
vt 0.808020 0.746817
vt 0.799422 0.750662
vt 0.712016 0.874032
vt 0.675330 0.880858
vt 0.676317 0.819283
vt 0.713100 0.823445
vt 0.630625 0.882706
vt 0.619811 0.880835
vt 0.619173 0.819265
vt 0.630446 0.818070
vt 0.659607 0.882717
vt 0.659822 0.818080
vt 0.769889 0.721199
vt 0.772195 0.750652
s 1
f 241/193/241 242/194/242 244/195/243 243/196/244
f 245/197/245 241/193/241 243/196/244 246/198/246
f 247/199/247 245/197/245 246/198/246 248/200/248
f 249/201/249 247/199/247 248/200/248 250/202/250
f 242/194/242 251/203/251 252/204/252 244/195/243
f 253/205/253 255/206/254 256/207/255 254/208/256
f 257/209/257 258/210/258 255/206/254 253/205/253
f 259/211/259 260/212/260 258/210/258 257/209/257
f 261/213/261 262/214/262 260/212/260 259/211/259
f 254/208/256 256/207/255 264/215/263 263/216/264
f 265/217/265 266/218/266 262/214/262 261/213/261
f 268/219/267 273/220/268 263/216/264 264/215/263
f 252/221/252 251/222/251 267/223/269 275/224/270
f 276/225/271 277/226/272 273/227/268 268/228/267
f 249/229/249 250/230/250 271/231/273 269/232/274
f 270/233/275 272/234/276 266/235/266 265/236/265
f 269/232/274 271/231/273 279/237/277 278/238/278
f 275/224/270 267/223/269 274/239/279 280/240/280
f 277/226/272 276/225/271 280/240/280 274/239/279
f 272/234/276 270/233/275 278/238/278 279/237/277
f 321/241/281 323/242/282 324/243/283 322/244/284
f 325/245/285 326/246/286 323/242/282 321/241/281
f 327/247/287 328/248/288 326/246/286 325/245/285
f 329/249/289 330/250/290 328/248/288 327/247/287
f 322/244/284 324/243/283 332/251/291 331/252/292
f 333/253/293 334/254/294 336/255/295 335/256/296
f 337/257/297 333/253/293 335/256/296 338/258/298
f 339/259/299 337/257/297 338/258/298 340/260/300
f 341/261/301 339/259/299 340/260/300 342/262/302
f 334/254/294 343/263/303 344/264/304 336/255/295
f 305/265/305 341/261/301 342/262/302 306/266/306
f 308/267/307 344/264/304 343/263/303 313/268/308
f 332/269/291 315/270/309 307/271/310 331/272/292
f 316/273/311 308/274/307 313/275/308 317/276/312
f 329/277/289 309/278/313 311/279/314 330/280/290
f 310/281/315 305/282/305 306/283/306 312/284/316
f 309/278/313 318/285/317 319/286/318 311/279/314
f 315/270/309 320/287/319 314/288/320 307/271/310
f 317/276/312 314/288/320 320/287/319 316/273/311
f 312/284/316 319/286/318 318/285/317 310/281/315
f 257/209/257 253/205/253 302/205/321 300/209/322
f 269/232/274 278/238/278 358/238/323 349/232/324
f 248/200/248 246/198/246 287/198/325 285/200/326
f 271/231/273 250/230/250 282/230/327 351/231/328
f 255/206/254 258/210/258 299/210/329 301/206/330
f 279/237/277 271/231/273 351/231/328 359/237/331
f 247/199/247 249/201/249 281/201/332 286/199/333
f 266/235/266 272/234/276 352/234/334 346/235/335
f 259/211/259 257/209/257 300/209/322 298/211/336
f 275/224/270 280/240/280 360/240/337 355/224/338
f 250/202/250 248/200/248 285/200/326 282/202/327
f 263/216/264 273/220/268 353/220/339 296/216/340
f 258/210/258 260/212/260 297/212/341 299/210/329
f 251/203/251 242/194/242 292/194/342 284/203/343
f 274/239/279 267/223/269 347/223/344 354/239/345
f 261/213/261 259/211/259 298/211/336 293/213/346
f 244/195/243 252/204/252 283/204/347 291/195/348
f 252/221/252 275/224/270 355/224/338 283/221/347
f 260/212/260 262/214/262 294/214/349 297/212/341
f 280/240/280 276/225/271 356/225/350 360/240/337
f 276/225/271 268/228/267 348/228/351 356/225/350
f 254/208/256 263/216/264 296/216/340 304/208/352
f 277/226/272 274/239/279 354/239/345 357/226/353
f 264/215/263 256/207/255 303/207/354 295/215/355
f 272/234/276 279/237/277 359/237/331 352/234/334
f 265/217/265 261/213/261 293/213/346 345/217/356
f 278/238/278 270/233/275 350/233/357 358/238/323
f 242/194/242 241/193/241 290/193/358 292/194/342
f 262/214/262 266/218/266 346/218/335 294/214/349
f 243/196/244 244/195/243 291/195/348 289/196/359
f 267/223/269 251/222/251 284/222/343 347/223/344
f 273/227/268 277/226/272 357/226/353 353/227/339
f 241/193/241 245/197/245 288/197/360 290/193/358
f 268/219/267 264/215/263 295/215/355 348/219/351
f 253/205/253 254/208/256 304/208/352 302/205/321
f 246/198/246 243/196/244 289/196/359 287/198/325
f 249/229/249 269/232/274 349/232/324 281/229/332
f 256/207/255 255/206/254 301/206/330 303/207/354
f 245/197/245 247/199/247 286/199/333 288/197/360
f 270/233/275 265/236/265 345/236/356 350/233/357
f 321/241/281 322/244/284 292/194/342 290/193/358
f 324/243/283 323/242/282 289/196/359 291/195/348
f 325/245/285 321/241/281 290/193/358 288/197/360
f 323/242/282 326/246/286 287/198/325 289/196/359
f 327/247/287 325/245/285 288/197/360 286/199/333
f 326/246/286 328/248/288 285/200/326 287/198/325
f 329/249/289 327/247/287 286/199/333 281/201/332
f 328/248/288 330/250/290 282/202/327 285/200/326
f 322/244/284 331/252/292 284/203/343 292/194/342
f 332/251/291 324/243/283 291/195/348 283/204/347
f 334/254/294 333/253/293 302/205/321 304/208/352
f 335/256/296 336/255/295 303/207/354 301/206/330
f 333/253/293 337/257/297 300/209/322 302/205/321
f 338/258/298 335/256/296 301/206/330 299/210/329
f 337/257/297 339/259/299 298/211/336 300/209/322
f 340/260/300 338/258/298 299/210/329 297/212/341
f 339/259/299 341/261/301 293/213/346 298/211/336
f 342/262/302 340/260/300 297/212/341 294/214/349
f 343/263/303 334/254/294 304/208/352 296/216/340
f 336/255/295 344/264/304 295/215/355 303/207/354
f 341/261/301 305/265/305 345/217/356 293/213/346
f 306/266/306 342/262/302 294/214/349 346/218/335
f 331/272/292 307/271/310 347/223/344 284/222/343
f 344/264/304 308/267/307 348/219/351 295/215/355
f 309/278/313 329/277/289 281/229/332 349/232/324
f 305/282/305 310/281/315 350/233/357 345/236/356
f 330/280/290 311/279/314 351/231/328 282/230/327
f 312/284/316 306/283/306 346/235/335 352/234/334
f 313/268/308 343/263/303 296/216/340 353/220/339
f 307/271/310 314/288/320 354/239/345 347/223/344
f 315/270/309 332/269/291 283/221/347 355/224/338
f 308/274/307 316/273/311 356/225/350 348/228/351
f 317/276/312 313/275/308 353/227/339 357/226/353
f 318/285/317 309/278/313 349/232/324 358/238/323
f 311/279/314 319/286/318 359/237/331 351/231/328
f 320/287/319 315/270/309 355/224/338 360/240/337
f 316/273/311 320/287/319 360/240/337 356/225/350
f 314/288/320 317/276/312 357/226/353 354/239/345
f 319/286/318 312/284/316 352/234/334 359/237/331
f 310/281/315 318/285/317 358/238/323 350/233/357
